<?xml version="1.0" encoding="UTF-8" standalone="no"?>
<!DOCTYPE svg PUBLIC "-//W3C//DTD SVG 1.1//EN"
 "http://www.w3.org/Graphics/SVG/1.1/DTD/svg11.dtd">
<!-- Generated by graphviz version 12.1.2 (20240928.0832)
 -->
<!-- Title: public.statistical_limit Pages: 1 -->
<svg width="627pt" height="1253pt"
 viewBox="0.00 0.00 626.54 1252.80" xmlns="http://www.w3.org/2000/svg" xmlns:xlink="http://www.w3.org/1999/xlink">
<g id="graph0" class="graph" transform="scale(1 1) rotate(0) translate(4 1248.8)">
<title>public.statistical_limit</title>
<polygon fill="white" stroke="none" points="-4,4 -4,-1248.8 622.54,-1248.8 622.54,4 -4,4"/>
<!-- public.statistical_limit -->
<g id="node1" class="node">
<title>public.statistical_limit</title>
<polygon fill="#efefef" stroke="none" points="172.9,-573.8 172.9,-609.4 471.87,-609.4 471.87,-573.8 172.9,-573.8"/>
<polygon fill="none" stroke="black" points="172.9,-573.8 172.9,-609.4 471.87,-609.4 471.87,-573.8 172.9,-573.8"/>
<text text-anchor="start" x="179.9" y="-587.2" font-family="Arial Bold" font-size="18.00">public.statistical_limit</text>
<text text-anchor="start" x="340.38" y="-587.2" font-family="Arial" font-size="14.00">    </text>
<text text-anchor="start" x="371.5" y="-587.2" font-family="Arial" font-size="14.00" fill="#666666">[BASE TABLE]</text>
<polygon fill="none" stroke="black" points="172.9,-543 172.9,-573.8 471.87,-573.8 471.87,-543 172.9,-543"/>
<text text-anchor="start" x="179.9" y="-555.2" font-family="Arial" font-size="14.00">id </text>
<text text-anchor="start" x="194.69" y="-555.2" font-family="Arial" font-size="14.00" fill="#666666">[bigint]</text>
<polygon fill="none" stroke="black" points="172.9,-512.2 172.9,-543 471.87,-543 471.87,-512.2 172.9,-512.2"/>
<text text-anchor="start" x="179.9" y="-524.4" font-family="Arial" font-size="14.00">lower_value </text>
<text text-anchor="start" x="258.5" y="-524.4" font-family="Arial" font-size="14.00" fill="#666666">[double precision]</text>
<polygon fill="none" stroke="black" points="172.9,-481.4 172.9,-512.2 471.87,-512.2 471.87,-481.4 172.9,-481.4"/>
<text text-anchor="start" x="179.9" y="-493.6" font-family="Arial" font-size="14.00">upper_value </text>
<text text-anchor="start" x="260.86" y="-493.6" font-family="Arial" font-size="14.00" fill="#666666">[double precision]</text>
<polygon fill="none" stroke="black" points="172.9,-450.6 172.9,-481.4 471.87,-481.4 471.87,-450.6 172.9,-450.6"/>
<text text-anchor="start" x="179.9" y="-462.8" font-family="Arial" font-size="14.00">output_id </text>
<text text-anchor="start" x="241.4" y="-462.8" font-family="Arial" font-size="14.00" fill="#666666">[bigint]</text>
<polygon fill="none" stroke="black" stroke-width="3" points="171.4,-449.1 171.4,-610.9 473.37,-610.9 473.37,-449.1 171.4,-449.1"/>
</g>
<!-- public.output -->
<g id="node3" class="node">
<title>public.output</title>
<polygon fill="#efefef" stroke="none" points="205.4,-289.6 205.4,-325.2 439.38,-325.2 439.38,-289.6 205.4,-289.6"/>
<polygon fill="none" stroke="black" points="205.4,-289.6 205.4,-325.2 439.38,-325.2 439.38,-289.6 205.4,-289.6"/>
<text text-anchor="start" x="212.4" y="-303" font-family="Arial Bold" font-size="18.00">public.output</text>
<text text-anchor="start" x="307.89" y="-303" font-family="Arial" font-size="14.00">    </text>
<text text-anchor="start" x="339.01" y="-303" font-family="Arial" font-size="14.00" fill="#666666">[BASE TABLE]</text>
<polygon fill="none" stroke="black" points="205.4,-258.8 205.4,-289.6 439.38,-289.6 439.38,-258.8 205.4,-258.8"/>
<text text-anchor="start" x="212.4" y="-271" font-family="Arial" font-size="14.00">id </text>
<text text-anchor="start" x="227.18" y="-271" font-family="Arial" font-size="14.00" fill="#666666">[bigint]</text>
<polygon fill="none" stroke="black" points="205.4,-228 205.4,-258.8 439.38,-258.8 439.38,-228 205.4,-228"/>
<text text-anchor="start" x="212.4" y="-240.2" font-family="Arial" font-size="14.00">acronym </text>
<text text-anchor="start" x="269.97" y="-240.2" font-family="Arial" font-size="14.00" fill="#666666">[varchar(255)]</text>
<polygon fill="none" stroke="black" points="205.4,-197.2 205.4,-228 439.38,-228 439.38,-197.2 205.4,-197.2"/>
<text text-anchor="start" x="212.4" y="-209.4" font-family="Arial" font-size="14.00">active </text>
<text text-anchor="start" x="252.86" y="-209.4" font-family="Arial" font-size="14.00" fill="#666666">[boolean]</text>
<polygon fill="none" stroke="black" points="205.4,-166.4 205.4,-197.2 439.38,-197.2 439.38,-166.4 205.4,-166.4"/>
<text text-anchor="start" x="212.4" y="-178.6" font-family="Arial" font-size="14.00">equation </text>
<text text-anchor="start" x="270" y="-178.6" font-family="Arial" font-size="14.00" fill="#666666">[text]</text>
<polygon fill="none" stroke="black" points="205.4,-135.6 205.4,-166.4 439.38,-166.4 439.38,-135.6 205.4,-135.6"/>
<text text-anchor="start" x="212.4" y="-147.8" font-family="Arial" font-size="14.00">name </text>
<text text-anchor="start" x="251.31" y="-147.8" font-family="Arial" font-size="14.00" fill="#666666">[varchar(255)]</text>
<polygon fill="none" stroke="black" points="205.4,-104.8 205.4,-135.6 439.38,-135.6 439.38,-104.8 205.4,-104.8"/>
<text text-anchor="start" x="212.4" y="-117" font-family="Arial" font-size="14.00">precision </text>
<text text-anchor="start" x="272.31" y="-117" font-family="Arial" font-size="14.00" fill="#666666">[integer]</text>
<polygon fill="none" stroke="black" points="205.4,-74 205.4,-104.8 439.38,-104.8 439.38,-74 205.4,-74"/>
<text text-anchor="start" x="212.4" y="-86.2" font-family="Arial" font-size="14.00">instrument_id </text>
<text text-anchor="start" x="300.33" y="-86.2" font-family="Arial" font-size="14.00" fill="#666666">[bigint]</text>
<polygon fill="none" stroke="black" points="205.4,-43.2 205.4,-74 439.38,-74 439.38,-43.2 205.4,-43.2"/>
<text text-anchor="start" x="212.4" y="-55.4" font-family="Arial" font-size="14.00">measurement_unit_id </text>
<text text-anchor="start" x="350.92" y="-55.4" font-family="Arial" font-size="14.00" fill="#666666">[bigint]</text>
</g>
<!-- public.statistical_limit&#45;&gt;public.output -->
<g id="edge2" class="edge">
<title>public.statistical_limit:output_id&#45;&gt;public.output:id</title>
<path fill="none" stroke="black" d="M323.26,-439.48C332.43,-390.44 411.48,-421.05 439.38,-368.4 458.99,-331.41 482.25,-274.2 440.38,-274.2"/>
<polygon fill="black" stroke="black" points="323.27,-439.3 317.93,-448.88 322.82,-444.62 322.45,-448.93 322.45,-448.93 322.45,-448.93 322.82,-444.62 326.9,-449.65 323.27,-439.3"/>
<text text-anchor="start" x="80.31" y="-459.6" font-family="Arial" font-size="10.00">FOREIGN KEY (output_id) REFERENCES output(id)</text>
</g>
<!-- public.instrument_graph_customization_properties -->
<g id="node2" class="node">
<title>public.instrument_graph_customization_properties</title>
<polygon fill="#efefef" stroke="none" points="69.44,-1166 69.44,-1201.6 575.34,-1201.6 575.34,-1166 69.44,-1166"/>
<polygon fill="none" stroke="black" points="69.44,-1166 69.44,-1201.6 575.34,-1201.6 575.34,-1166 69.44,-1166"/>
<text text-anchor="start" x="76.44" y="-1179.4" font-family="Arial Bold" font-size="18.00">public.instrument_graph_customization_properties</text>
<text text-anchor="start" x="443.85" y="-1179.4" font-family="Arial" font-size="14.00">    </text>
<text text-anchor="start" x="474.97" y="-1179.4" font-family="Arial" font-size="14.00" fill="#666666">[BASE TABLE]</text>
<polygon fill="none" stroke="black" points="69.44,-1135.2 69.44,-1166 575.34,-1166 575.34,-1135.2 69.44,-1135.2"/>
<text text-anchor="start" x="76.44" y="-1147.4" font-family="Arial" font-size="14.00">id </text>
<text text-anchor="start" x="91.22" y="-1147.4" font-family="Arial" font-size="14.00" fill="#666666">[bigint]</text>
<polygon fill="none" stroke="black" points="69.44,-1104.4 69.44,-1135.2 575.34,-1135.2 575.34,-1104.4 69.44,-1104.4"/>
<text text-anchor="start" x="76.44" y="-1116.6" font-family="Arial" font-size="14.00">customization_type </text>
<text text-anchor="start" x="200.17" y="-1116.6" font-family="Arial" font-size="14.00" fill="#666666">[varchar(255)]</text>
<polygon fill="none" stroke="black" points="69.44,-1073.6 69.44,-1104.4 575.34,-1104.4 575.34,-1073.6 69.44,-1073.6"/>
<text text-anchor="start" x="76.44" y="-1085.8" font-family="Arial" font-size="14.00">fill_color </text>
<text text-anchor="start" x="131.68" y="-1085.8" font-family="Arial" font-size="14.00" fill="#666666">[varchar(255)]</text>
<polygon fill="none" stroke="black" points="69.44,-1042.8 69.44,-1073.6 575.34,-1073.6 575.34,-1042.8 69.44,-1042.8"/>
<text text-anchor="start" x="76.44" y="-1055" font-family="Arial" font-size="14.00">is_primary_ordinate </text>
<text text-anchor="start" x="203.27" y="-1055" font-family="Arial" font-size="14.00" fill="#666666">[boolean]</text>
<polygon fill="none" stroke="black" points="69.44,-1012 69.44,-1042.8 575.34,-1042.8 575.34,-1012 69.44,-1012"/>
<text text-anchor="start" x="76.44" y="-1024.2" font-family="Arial" font-size="14.00">label_enable </text>
<text text-anchor="start" x="159.73" y="-1024.2" font-family="Arial" font-size="14.00" fill="#666666">[boolean]</text>
<polygon fill="none" stroke="black" points="69.44,-981.2 69.44,-1012 575.34,-1012 575.34,-981.2 69.44,-981.2"/>
<text text-anchor="start" x="76.44" y="-993.4" font-family="Arial" font-size="14.00">limit_value_type </text>
<text text-anchor="start" x="180.71" y="-993.4" font-family="Arial" font-size="14.00" fill="#666666">[varchar(255)]</text>
<polygon fill="none" stroke="black" points="69.44,-950.4 69.44,-981.2 575.34,-981.2 575.34,-950.4 69.44,-950.4"/>
<text text-anchor="start" x="76.44" y="-962.6" font-family="Arial" font-size="14.00">line_type </text>
<text text-anchor="start" x="136.37" y="-962.6" font-family="Arial" font-size="14.00" fill="#666666">[varchar(255)]</text>
<polygon fill="none" stroke="black" points="69.44,-919.6 69.44,-950.4 575.34,-950.4 575.34,-919.6 69.44,-919.6"/>
<text text-anchor="start" x="76.44" y="-931.8" font-family="Arial" font-size="14.00">name </text>
<text text-anchor="start" x="115.35" y="-931.8" font-family="Arial" font-size="14.00" fill="#666666">[varchar(255)]</text>
<polygon fill="none" stroke="black" points="69.44,-888.8 69.44,-919.6 575.34,-919.6 575.34,-888.8 69.44,-888.8"/>
<text text-anchor="start" x="76.44" y="-901" font-family="Arial" font-size="14.00">constant_id </text>
<text text-anchor="start" x="151.93" y="-901" font-family="Arial" font-size="14.00" fill="#666666">[bigint]</text>
<polygon fill="none" stroke="black" points="69.44,-858 69.44,-888.8 575.34,-888.8 575.34,-858 69.44,-858"/>
<text text-anchor="start" x="76.44" y="-870.2" font-family="Arial" font-size="14.00">deterministic_limit_id </text>
<text text-anchor="start" x="210.26" y="-870.2" font-family="Arial" font-size="14.00" fill="#666666">[bigint]</text>
<polygon fill="none" stroke="black" points="69.44,-827.2 69.44,-858 575.34,-858 575.34,-827.2 69.44,-827.2"/>
<text text-anchor="start" x="76.44" y="-839.4" font-family="Arial" font-size="14.00">instrument_id </text>
<text text-anchor="start" x="164.37" y="-839.4" font-family="Arial" font-size="14.00" fill="#666666">[bigint]</text>
<polygon fill="none" stroke="black" points="69.44,-796.4 69.44,-827.2 575.34,-827.2 575.34,-796.4 69.44,-796.4"/>
<text text-anchor="start" x="76.44" y="-808.6" font-family="Arial" font-size="14.00">output_id </text>
<text text-anchor="start" x="137.93" y="-808.6" font-family="Arial" font-size="14.00" fill="#666666">[bigint]</text>
<polygon fill="none" stroke="black" points="69.44,-765.6 69.44,-796.4 575.34,-796.4 575.34,-765.6 69.44,-765.6"/>
<text text-anchor="start" x="76.44" y="-777.8" font-family="Arial" font-size="14.00">pattern_id </text>
<text text-anchor="start" x="142.59" y="-777.8" font-family="Arial" font-size="14.00" fill="#666666">[bigint]</text>
<polygon fill="none" stroke="black" points="69.44,-734.8 69.44,-765.6 575.34,-765.6 575.34,-734.8 69.44,-734.8"/>
<text text-anchor="start" x="76.44" y="-747" font-family="Arial" font-size="14.00">statistical_limit_id </text>
<text text-anchor="start" x="189.25" y="-747" font-family="Arial" font-size="14.00" fill="#666666">[bigint]</text>
</g>
<!-- public.instrument_graph_customization_properties&#45;&gt;public.statistical_limit -->
<g id="edge1" class="edge">
<title>public.instrument_graph_customization_properties:statistical_limit_id&#45;&gt;public.statistical_limit:id</title>
<path fill="none" stroke="black" d="M323.22,-723.39C333.41,-664.67 434.7,-716.29 471.87,-655.6 494.44,-618.76 516.08,-558.4 472.87,-558.4"/>
<polygon fill="black" stroke="black" points="323.21,-723.5 317.93,-733.11 322.79,-728.82 322.44,-733.13 322.44,-733.13 322.44,-733.13 322.79,-728.82 326.9,-733.82 323.21,-723.5"/>
<text text-anchor="start" x="7" y="-743.8" font-family="Arial" font-size="10.00">FOREIGN KEY (statistical_limit_id) REFERENCES statistical_limit(id)</text>
</g>
</g>
</svg>
