<?xml version="1.0" encoding="UTF-8" standalone="no"?>
<!DOCTYPE svg PUBLIC "-//W3C//DTD SVG 1.1//EN"
 "http://www.w3.org/Graphics/SVG/1.1/DTD/svg11.dtd">
<!-- Generated by graphviz version 12.1.2 (20240928.0832)
 -->
<!-- Title: public.instrument_tabulate_pattern_folder Pages: 1 -->
<svg width="649pt" height="1160pt"
 viewBox="0.00 0.00 648.74 1160.40" xmlns="http://www.w3.org/2000/svg" xmlns:xlink="http://www.w3.org/1999/xlink">
<g id="graph0" class="graph" transform="scale(1 1) rotate(0) translate(4 1156.4)">
<title>public.instrument_tabulate_pattern_folder</title>
<polygon fill="white" stroke="none" points="-4,4 -4,-1156.4 644.74,-1156.4 644.74,4 -4,4"/>
<!-- public.instrument_tabulate_pattern_folder -->
<g id="node1" class="node">
<title>public.instrument_tabulate_pattern_folder</title>
<polygon fill="#efefef" stroke="none" points="152.64,-789.4 152.64,-825 594.54,-825 594.54,-789.4 152.64,-789.4"/>
<polygon fill="none" stroke="black" points="152.64,-789.4 152.64,-825 594.54,-825 594.54,-789.4 152.64,-789.4"/>
<text text-anchor="start" x="159.64" y="-802.8" font-family="Arial Bold" font-size="18.00">public.instrument_tabulate_pattern_folder</text>
<text text-anchor="start" x="463.05" y="-802.8" font-family="Arial" font-size="14.00">    </text>
<text text-anchor="start" x="494.17" y="-802.8" font-family="Arial" font-size="14.00" fill="#666666">[BASE TABLE]</text>
<polygon fill="none" stroke="black" points="152.64,-758.6 152.64,-789.4 594.54,-789.4 594.54,-758.6 152.64,-758.6"/>
<text text-anchor="start" x="159.64" y="-770.8" font-family="Arial" font-size="14.00">id </text>
<text text-anchor="start" x="174.43" y="-770.8" font-family="Arial" font-size="14.00" fill="#666666">[bigint]</text>
<polygon fill="none" stroke="black" points="152.64,-727.8 152.64,-758.6 594.54,-758.6 594.54,-727.8 152.64,-727.8"/>
<text text-anchor="start" x="159.64" y="-740" font-family="Arial" font-size="14.00">name </text>
<text text-anchor="start" x="198.55" y="-740" font-family="Arial" font-size="14.00" fill="#666666">[varchar(255)]</text>
<polygon fill="none" stroke="black" points="152.64,-697 152.64,-727.8 594.54,-727.8 594.54,-697 152.64,-697"/>
<text text-anchor="start" x="159.64" y="-709.2" font-family="Arial" font-size="14.00">dam_id </text>
<text text-anchor="start" x="209.45" y="-709.2" font-family="Arial" font-size="14.00" fill="#666666">[bigint]</text>
<polygon fill="none" stroke="black" stroke-width="3" points="151.14,-695.5 151.14,-826.5 596.04,-826.5 596.04,-695.5 151.14,-695.5"/>
</g>
<!-- public.dam -->
<g id="node3" class="node">
<title>public.dam</title>
<polygon fill="#efefef" stroke="none" points="264.1,-536 264.1,-571.6 483.08,-571.6 483.08,-536 264.1,-536"/>
<polygon fill="none" stroke="black" points="264.1,-536 264.1,-571.6 483.08,-571.6 483.08,-536 264.1,-536"/>
<text text-anchor="start" x="271.1" y="-549.4" font-family="Arial Bold" font-size="18.00">public.dam</text>
<text text-anchor="start" x="351.59" y="-549.4" font-family="Arial" font-size="14.00">    </text>
<text text-anchor="start" x="382.7" y="-549.4" font-family="Arial" font-size="14.00" fill="#666666">[BASE TABLE]</text>
<polygon fill="none" stroke="black" points="264.1,-505.2 264.1,-536 483.08,-536 483.08,-505.2 264.1,-505.2"/>
<text text-anchor="start" x="271.1" y="-517.4" font-family="Arial" font-size="14.00">id </text>
<text text-anchor="start" x="285.89" y="-517.4" font-family="Arial" font-size="14.00" fill="#666666">[bigint]</text>
<polygon fill="none" stroke="black" points="264.1,-474.4 264.1,-505.2 483.08,-505.2 483.08,-474.4 264.1,-474.4"/>
<text text-anchor="start" x="271.1" y="-486.6" font-family="Arial" font-size="14.00">city </text>
<text text-anchor="start" x="295.99" y="-486.6" font-family="Arial" font-size="14.00" fill="#666666">[varchar(100)]</text>
<polygon fill="none" stroke="black" points="264.1,-443.6 264.1,-474.4 483.08,-474.4 483.08,-443.6 264.1,-443.6"/>
<text text-anchor="start" x="271.1" y="-455.8" font-family="Arial" font-size="14.00">dam_image_path </text>
<text text-anchor="start" x="383.18" y="-455.8" font-family="Arial" font-size="14.00" fill="#666666">[varchar(255)]</text>
<polygon fill="none" stroke="black" points="264.1,-412.8 264.1,-443.6 483.08,-443.6 483.08,-412.8 264.1,-412.8"/>
<text text-anchor="start" x="271.1" y="-425" font-family="Arial" font-size="14.00">latitude </text>
<text text-anchor="start" x="320.14" y="-425" font-family="Arial" font-size="14.00" fill="#666666">[double precision]</text>
<polygon fill="none" stroke="black" points="264.1,-382 264.1,-412.8 483.08,-412.8 483.08,-382 264.1,-382"/>
<text text-anchor="start" x="271.1" y="-394.2" font-family="Arial" font-size="14.00">link_legislation </text>
<text text-anchor="start" x="366.05" y="-394.2" font-family="Arial" font-size="14.00" fill="#666666">[varchar(255)]</text>
<polygon fill="none" stroke="black" points="264.1,-351.2 264.1,-382 483.08,-382 483.08,-351.2 264.1,-351.2"/>
<text text-anchor="start" x="271.1" y="-363.4" font-family="Arial" font-size="14.00">linkpsb </text>
<text text-anchor="start" x="318.57" y="-363.4" font-family="Arial" font-size="14.00" fill="#666666">[varchar(255)]</text>
<polygon fill="none" stroke="black" points="264.1,-320.4 264.1,-351.2 483.08,-351.2 483.08,-320.4 264.1,-320.4"/>
<text text-anchor="start" x="271.1" y="-332.6" font-family="Arial" font-size="14.00">logo_path </text>
<text text-anchor="start" x="336.5" y="-332.6" font-family="Arial" font-size="14.00" fill="#666666">[varchar(255)]</text>
<polygon fill="none" stroke="black" points="264.1,-289.6 264.1,-320.4 483.08,-320.4 483.08,-289.6 264.1,-289.6"/>
<text text-anchor="start" x="271.1" y="-301.8" font-family="Arial" font-size="14.00">longitude </text>
<text text-anchor="start" x="331.82" y="-301.8" font-family="Arial" font-size="14.00" fill="#666666">[double precision]</text>
<polygon fill="none" stroke="black" points="264.1,-258.8 264.1,-289.6 483.08,-289.6 483.08,-258.8 264.1,-258.8"/>
<text text-anchor="start" x="271.1" y="-271" font-family="Arial" font-size="14.00">name </text>
<text text-anchor="start" x="310.01" y="-271" font-family="Arial" font-size="14.00" fill="#666666">[varchar(255)]</text>
<polygon fill="none" stroke="black" points="264.1,-228 264.1,-258.8 483.08,-258.8 483.08,-228 264.1,-228"/>
<text text-anchor="start" x="271.1" y="-240.2" font-family="Arial" font-size="14.00">neighborhood </text>
<text text-anchor="start" x="360.63" y="-240.2" font-family="Arial" font-size="14.00" fill="#666666">[varchar(100)]</text>
<polygon fill="none" stroke="black" points="264.1,-197.2 264.1,-228 483.08,-228 483.08,-197.2 264.1,-197.2"/>
<text text-anchor="start" x="271.1" y="-209.4" font-family="Arial" font-size="14.00">number_address </text>
<text text-anchor="start" x="380.06" y="-209.4" font-family="Arial" font-size="14.00" fill="#666666">[varchar(10)]</text>
<polygon fill="none" stroke="black" points="264.1,-166.4 264.1,-197.2 483.08,-197.2 483.08,-166.4 264.1,-166.4"/>
<text text-anchor="start" x="271.1" y="-178.6" font-family="Arial" font-size="14.00">state </text>
<text text-anchor="start" x="305.35" y="-178.6" font-family="Arial" font-size="14.00" fill="#666666">[varchar(100)]</text>
<polygon fill="none" stroke="black" points="264.1,-135.6 264.1,-166.4 483.08,-166.4 483.08,-135.6 264.1,-135.6"/>
<text text-anchor="start" x="271.1" y="-147.8" font-family="Arial" font-size="14.00">street </text>
<text text-anchor="start" x="310.01" y="-147.8" font-family="Arial" font-size="14.00" fill="#666666">[varchar(255)]</text>
<polygon fill="none" stroke="black" points="264.1,-104.8 264.1,-135.6 483.08,-135.6 483.08,-104.8 264.1,-104.8"/>
<text text-anchor="start" x="271.1" y="-117" font-family="Arial" font-size="14.00">zip_code </text>
<text text-anchor="start" x="331.04" y="-117" font-family="Arial" font-size="14.00" fill="#666666">[varchar(9)]</text>
<polygon fill="none" stroke="black" points="264.1,-74 264.1,-104.8 483.08,-104.8 483.08,-74 264.1,-74"/>
<text text-anchor="start" x="271.1" y="-86.2" font-family="Arial" font-size="14.00">client_id </text>
<text text-anchor="start" x="326.36" y="-86.2" font-family="Arial" font-size="14.00" fill="#666666">[bigint]</text>
<polygon fill="none" stroke="black" points="264.1,-43.2 264.1,-74 483.08,-74 483.08,-43.2 264.1,-43.2"/>
<text text-anchor="start" x="271.1" y="-55.4" font-family="Arial" font-size="14.00">status_id </text>
<text text-anchor="start" x="331.03" y="-55.4" font-family="Arial" font-size="14.00" fill="#666666">[bigint]</text>
</g>
<!-- public.instrument_tabulate_pattern_folder&#45;&gt;public.dam -->
<g id="edge2" class="edge">
<title>public.instrument_tabulate_pattern_folder:dam_id&#45;&gt;public.dam:id</title>
<path fill="none" stroke="black" d="M374.52,-685.7C383.62,-639.25 457.27,-665.4 483.08,-614.8 502.1,-577.5 525.94,-520.6 484.08,-520.6"/>
<polygon fill="black" stroke="black" points="374.52,-685.71 369.14,-695.26 374.04,-691.02 373.65,-695.33 373.65,-695.33 373.65,-695.33 374.04,-691.02 378.1,-696.07 374.52,-685.71"/>
<text text-anchor="start" x="148.21" y="-706" font-family="Arial" font-size="10.00">FOREIGN KEY (dam_id) REFERENCES dam(id)</text>
</g>
<!-- public.instrument_tabulate_pattern -->
<g id="node2" class="node">
<title>public.instrument_tabulate_pattern</title>
<polygon fill="#efefef" stroke="none" points="178.63,-1073.6 178.63,-1109.2 568.55,-1109.2 568.55,-1073.6 178.63,-1073.6"/>
<polygon fill="none" stroke="black" points="178.63,-1073.6 178.63,-1109.2 568.55,-1109.2 568.55,-1073.6 178.63,-1073.6"/>
<text text-anchor="start" x="185.63" y="-1087" font-family="Arial Bold" font-size="18.00">public.instrument_tabulate_pattern</text>
<text text-anchor="start" x="437.06" y="-1087" font-family="Arial" font-size="14.00">    </text>
<text text-anchor="start" x="468.18" y="-1087" font-family="Arial" font-size="14.00" fill="#666666">[BASE TABLE]</text>
<polygon fill="none" stroke="black" points="178.63,-1042.8 178.63,-1073.6 568.55,-1073.6 568.55,-1042.8 178.63,-1042.8"/>
<text text-anchor="start" x="185.63" y="-1055" font-family="Arial" font-size="14.00">id </text>
<text text-anchor="start" x="200.42" y="-1055" font-family="Arial" font-size="14.00" fill="#666666">[bigint]</text>
<polygon fill="none" stroke="black" points="178.63,-1012 178.63,-1042.8 568.55,-1042.8 568.55,-1012 178.63,-1012"/>
<text text-anchor="start" x="185.63" y="-1024.2" font-family="Arial" font-size="14.00">name </text>
<text text-anchor="start" x="224.54" y="-1024.2" font-family="Arial" font-size="14.00" fill="#666666">[varchar(255)]</text>
<polygon fill="none" stroke="black" points="178.63,-981.2 178.63,-1012 568.55,-1012 568.55,-981.2 178.63,-981.2"/>
<text text-anchor="start" x="185.63" y="-993.4" font-family="Arial" font-size="14.00">dam_id </text>
<text text-anchor="start" x="235.44" y="-993.4" font-family="Arial" font-size="14.00" fill="#666666">[bigint]</text>
<polygon fill="none" stroke="black" points="178.63,-950.4 178.63,-981.2 568.55,-981.2 568.55,-950.4 178.63,-950.4"/>
<text text-anchor="start" x="185.63" y="-962.6" font-family="Arial" font-size="14.00">folder_id </text>
<text text-anchor="start" x="243.22" y="-962.6" font-family="Arial" font-size="14.00" fill="#666666">[bigint]</text>
</g>
<!-- public.instrument_tabulate_pattern&#45;&gt;public.instrument_tabulate_pattern_folder -->
<g id="edge1" class="edge">
<title>public.instrument_tabulate_pattern:folder_id&#45;&gt;public.instrument_tabulate_pattern_folder:id</title>
<path fill="none" stroke="black" d="M374.17,-939.19C384.74,-852.78 536.1,-952.97 594.54,-871.2 619.66,-836.05 638.74,-774 595.54,-774"/>
<polygon fill="black" stroke="black" points="374.18,-939.08 369.12,-948.81 373.88,-944.41 373.63,-948.73 373.63,-948.73 373.63,-948.73 373.88,-944.41 378.1,-949.32 374.18,-939.08"/>
<text text-anchor="start" x="7" y="-959.4" font-family="Arial" font-size="10.00">FOREIGN KEY (folder_id) REFERENCES instrument_tabulate_pattern_folder(id)</text>
</g>
</g>
</svg>
