<?xml version="1.0" encoding="UTF-8" standalone="no"?>
<!DOCTYPE svg PUBLIC "-//W3C//DTD SVG 1.1//EN"
 "http://www.w3.org/Graphics/SVG/1.1/DTD/svg11.dtd">
<!-- Generated by graphviz version 12.1.2 (20240928.0832)
 -->
<!-- Title: public.instrument_graph_axes Pages: 1 -->
<svg width="577pt" height="879pt"
 viewBox="0.00 0.00 577.29 879.20" xmlns="http://www.w3.org/2000/svg" xmlns:xlink="http://www.w3.org/1999/xlink">
<g id="graph0" class="graph" transform="scale(1 1) rotate(0) translate(4 875.2)">
<title>public.instrument_graph_axes</title>
<polygon fill="white" stroke="none" points="-4,4 -4,-875.2 573.29,-875.2 573.29,4 -4,4"/>
<!-- public.instrument_graph_axes -->
<g id="node1" class="node">
<title>public.instrument_graph_axes</title>
<polygon fill="#efefef" stroke="none" points="158.97,-789.4 158.97,-825 519.28,-825 519.28,-789.4 158.97,-789.4"/>
<polygon fill="none" stroke="black" points="158.97,-789.4 158.97,-825 519.28,-825 519.28,-789.4 158.97,-789.4"/>
<text text-anchor="start" x="168.15" y="-802.8" font-family="Arial Bold" font-size="18.00">public.instrument_graph_axes</text>
<text text-anchor="start" x="385.6" y="-802.8" font-family="Arial" font-size="14.00">    </text>
<text text-anchor="start" x="416.72" y="-802.8" font-family="Arial" font-size="14.00" fill="#666666">[BASE TABLE]</text>
<polygon fill="none" stroke="black" points="158.97,-758.6 158.97,-789.4 519.28,-789.4 519.28,-758.6 158.97,-758.6"/>
<text text-anchor="start" x="165.97" y="-770.8" font-family="Arial" font-size="14.00">id </text>
<text text-anchor="start" x="180.75" y="-770.8" font-family="Arial" font-size="14.00" fill="#666666">[bigint]</text>
<polygon fill="none" stroke="black" points="158.97,-727.8 158.97,-758.6 519.28,-758.6 519.28,-727.8 158.97,-727.8"/>
<text text-anchor="start" x="165.97" y="-740" font-family="Arial" font-size="14.00">abscissa_grid_lines_enable </text>
<text text-anchor="start" x="341.86" y="-740" font-family="Arial" font-size="14.00" fill="#666666">[boolean]</text>
<polygon fill="none" stroke="black" points="158.97,-697 158.97,-727.8 519.28,-727.8 519.28,-697 158.97,-697"/>
<text text-anchor="start" x="165.97" y="-709.2" font-family="Arial" font-size="14.00">abscissa_px </text>
<text text-anchor="start" x="246.9" y="-709.2" font-family="Arial" font-size="14.00" fill="#666666">[integer]</text>
<polygon fill="none" stroke="black" points="158.97,-666.2 158.97,-697 519.28,-697 519.28,-666.2 158.97,-666.2"/>
<text text-anchor="start" x="165.97" y="-678.4" font-family="Arial" font-size="14.00">primary_ordinate_grid_lines_enable </text>
<text text-anchor="start" x="392.44" y="-678.4" font-family="Arial" font-size="14.00" fill="#666666">[boolean]</text>
<polygon fill="none" stroke="black" points="158.97,-635.4 158.97,-666.2 519.28,-666.2 519.28,-635.4 158.97,-635.4"/>
<text text-anchor="start" x="165.97" y="-647.6" font-family="Arial" font-size="14.00">primary_ordinate_initial_value </text>
<text text-anchor="start" x="355.85" y="-647.6" font-family="Arial" font-size="14.00" fill="#666666">[double precision]</text>
<polygon fill="none" stroke="black" points="158.97,-604.6 158.97,-635.4 519.28,-635.4 519.28,-604.6 158.97,-604.6"/>
<text text-anchor="start" x="165.97" y="-616.8" font-family="Arial" font-size="14.00">primary_ordinate_maximum_value </text>
<text text-anchor="start" x="384.62" y="-616.8" font-family="Arial" font-size="14.00" fill="#666666">[double precision]</text>
<polygon fill="none" stroke="black" points="158.97,-573.8 158.97,-604.6 519.28,-604.6 519.28,-573.8 158.97,-573.8"/>
<text text-anchor="start" x="165.97" y="-586" font-family="Arial" font-size="14.00">primary_ordinate_px </text>
<text text-anchor="start" x="297.48" y="-586" font-family="Arial" font-size="14.00" fill="#666666">[integer]</text>
<polygon fill="none" stroke="black" points="158.97,-543 158.97,-573.8 519.28,-573.8 519.28,-543 158.97,-543"/>
<text text-anchor="start" x="165.97" y="-555.2" font-family="Arial" font-size="14.00">primary_ordinate_spacing </text>
<text text-anchor="start" x="330.95" y="-555.2" font-family="Arial" font-size="14.00" fill="#666666">[double precision]</text>
<polygon fill="none" stroke="black" points="158.97,-512.2 158.97,-543 519.28,-543 519.28,-512.2 158.97,-512.2"/>
<text text-anchor="start" x="165.97" y="-524.4" font-family="Arial" font-size="14.00">primary_ordinate_title </text>
<text text-anchor="start" x="304.48" y="-524.4" font-family="Arial" font-size="14.00" fill="#666666">[varchar(255)]</text>
<polygon fill="none" stroke="black" points="158.97,-481.4 158.97,-512.2 519.28,-512.2 519.28,-481.4 158.97,-481.4"/>
<text text-anchor="start" x="165.97" y="-493.6" font-family="Arial" font-size="14.00">secondary_ordinate_initial_value </text>
<text text-anchor="start" x="373.77" y="-493.6" font-family="Arial" font-size="14.00" fill="#666666">[double precision]</text>
<polygon fill="none" stroke="black" points="158.97,-450.6 158.97,-481.4 519.28,-481.4 519.28,-450.6 158.97,-450.6"/>
<text text-anchor="start" x="165.97" y="-462.8" font-family="Arial" font-size="14.00">secondary_ordinate_maximum_value </text>
<text text-anchor="start" x="402.54" y="-462.8" font-family="Arial" font-size="14.00" fill="#666666">[double precision]</text>
<polygon fill="none" stroke="black" points="158.97,-419.8 158.97,-450.6 519.28,-450.6 519.28,-419.8 158.97,-419.8"/>
<text text-anchor="start" x="165.97" y="-432" font-family="Arial" font-size="14.00">secondary_ordinate_px </text>
<text text-anchor="start" x="315.4" y="-432" font-family="Arial" font-size="14.00" fill="#666666">[integer]</text>
<polygon fill="none" stroke="black" points="158.97,-389 158.97,-419.8 519.28,-419.8 519.28,-389 158.97,-389"/>
<text text-anchor="start" x="165.97" y="-401.2" font-family="Arial" font-size="14.00">secondary_ordinate_spacing </text>
<text text-anchor="start" x="348.87" y="-401.2" font-family="Arial" font-size="14.00" fill="#666666">[double precision]</text>
<polygon fill="none" stroke="black" points="158.97,-358.2 158.97,-389 519.28,-389 519.28,-358.2 158.97,-358.2"/>
<text text-anchor="start" x="165.97" y="-370.4" font-family="Arial" font-size="14.00">secondary_ordinate_title </text>
<text text-anchor="start" x="322.4" y="-370.4" font-family="Arial" font-size="14.00" fill="#666666">[varchar(255)]</text>
<polygon fill="none" stroke="black" points="158.97,-327.4 158.97,-358.2 519.28,-358.2 519.28,-327.4 158.97,-327.4"/>
<text text-anchor="start" x="165.97" y="-339.6" font-family="Arial" font-size="14.00">pattern_id </text>
<text text-anchor="start" x="232.13" y="-339.6" font-family="Arial" font-size="14.00" fill="#666666">[bigint]</text>
<polygon fill="none" stroke="black" stroke-width="3" points="157.47,-325.9 157.47,-826.5 520.78,-826.5 520.78,-325.9 157.47,-325.9"/>
</g>
<!-- public.instrument_graph_pattern -->
<g id="node2" class="node">
<title>public.instrument_graph_pattern</title>
<polygon fill="#efefef" stroke="none" points="152.16,-166.4 152.16,-202 526.09,-202 526.09,-166.4 152.16,-166.4"/>
<polygon fill="none" stroke="black" points="152.16,-166.4 152.16,-202 526.09,-202 526.09,-166.4 152.16,-166.4"/>
<text text-anchor="start" x="159.16" y="-179.8" font-family="Arial Bold" font-size="18.00">public.instrument_graph_pattern</text>
<text text-anchor="start" x="394.6" y="-179.8" font-family="Arial" font-size="14.00">    </text>
<text text-anchor="start" x="425.72" y="-179.8" font-family="Arial" font-size="14.00" fill="#666666">[BASE TABLE]</text>
<polygon fill="none" stroke="black" points="152.16,-135.6 152.16,-166.4 526.09,-166.4 526.09,-135.6 152.16,-135.6"/>
<text text-anchor="start" x="159.16" y="-147.8" font-family="Arial" font-size="14.00">id </text>
<text text-anchor="start" x="173.94" y="-147.8" font-family="Arial" font-size="14.00" fill="#666666">[bigint]</text>
<polygon fill="none" stroke="black" points="152.16,-104.8 152.16,-135.6 526.09,-135.6 526.09,-104.8 152.16,-104.8"/>
<text text-anchor="start" x="159.16" y="-117" font-family="Arial" font-size="14.00">name </text>
<text text-anchor="start" x="198.07" y="-117" font-family="Arial" font-size="14.00" fill="#666666">[varchar(255)]</text>
<polygon fill="none" stroke="black" points="152.16,-74 152.16,-104.8 526.09,-104.8 526.09,-74 152.16,-74"/>
<text text-anchor="start" x="159.16" y="-86.2" font-family="Arial" font-size="14.00">folder_id </text>
<text text-anchor="start" x="216.75" y="-86.2" font-family="Arial" font-size="14.00" fill="#666666">[bigint]</text>
<polygon fill="none" stroke="black" points="152.16,-43.2 152.16,-74 526.09,-74 526.09,-43.2 152.16,-43.2"/>
<text text-anchor="start" x="159.16" y="-55.4" font-family="Arial" font-size="14.00">instrument_id </text>
<text text-anchor="start" x="247.09" y="-55.4" font-family="Arial" font-size="14.00" fill="#666666">[bigint]</text>
</g>
<!-- public.instrument_graph_axes&#45;&gt;public.instrument_graph_pattern -->
<g id="edge1" class="edge">
<title>public.instrument_graph_axes:pattern_id&#45;&gt;public.instrument_graph_pattern:id</title>
<path fill="none" stroke="black" d="M339.8,-316.12C350.2,-242.5 478.05,-317.59 526.09,-245.2 549.24,-210.31 568.96,-151 527.09,-151"/>
<polygon fill="black" stroke="black" points="339.8,-316.09 334.65,-325.77 339.45,-321.41 339.17,-325.73 339.17,-325.73 339.17,-325.73 339.45,-321.41 343.63,-326.36 339.8,-316.09"/>
<text text-anchor="start" x="7" y="-336.4" font-family="Arial" font-size="10.00">FOREIGN KEY (pattern_id) REFERENCES instrument_graph_pattern(id)</text>
</g>
</g>
</svg>
