<?xml version="1.0" encoding="UTF-8" standalone="no"?>
<!DOCTYPE svg PUBLIC "-//W3C//DTD SVG 1.1//EN"
 "http://www.w3.org/Graphics/SVG/1.1/DTD/svg11.dtd">
<!-- Generated by graphviz version 12.1.2 (20240928.0832)
 -->
<!-- Title: public.psb_files Pages: 1 -->
<svg width="874pt" height="972pt"
 viewBox="0.00 0.00 874.33 971.60" xmlns="http://www.w3.org/2000/svg" xmlns:xlink="http://www.w3.org/1999/xlink">
<g id="graph0" class="graph" transform="scale(1 1) rotate(0) translate(4 967.6)">
<title>public.psb_files</title>
<polygon fill="white" stroke="none" points="-4,4 -4,-967.6 870.33,-967.6 870.33,4 -4,4"/>
<!-- public.psb_files -->
<g id="node1" class="node">
<title>public.psb_files</title>
<polygon fill="#efefef" stroke="none" points="292.87,-881.8 292.87,-917.4 590.13,-917.4 590.13,-881.8 292.87,-881.8"/>
<polygon fill="none" stroke="black" points="292.87,-881.8 292.87,-917.4 590.13,-917.4 590.13,-881.8 292.87,-881.8"/>
<text text-anchor="start" x="322.01" y="-895.2" font-family="Arial Bold" font-size="18.00">public.psb_files</text>
<text text-anchor="start" x="436.5" y="-895.2" font-family="Arial" font-size="14.00">    </text>
<text text-anchor="start" x="467.62" y="-895.2" font-family="Arial" font-size="14.00" fill="#666666">[BASE TABLE]</text>
<polygon fill="none" stroke="black" points="292.87,-851 292.87,-881.8 590.13,-881.8 590.13,-851 292.87,-851"/>
<text text-anchor="start" x="299.87" y="-863.2" font-family="Arial" font-size="14.00">id </text>
<text text-anchor="start" x="314.66" y="-863.2" font-family="Arial" font-size="14.00" fill="#666666">[bigint]</text>
<polygon fill="none" stroke="black" points="292.87,-820.2 292.87,-851 590.13,-851 590.13,-820.2 292.87,-820.2"/>
<text text-anchor="start" x="299.87" y="-832.4" font-family="Arial" font-size="14.00">content_type </text>
<text text-anchor="start" x="383.93" y="-832.4" font-family="Arial" font-size="14.00" fill="#666666">[varchar(255)]</text>
<polygon fill="none" stroke="black" points="292.87,-789.4 292.87,-820.2 590.13,-820.2 590.13,-789.4 292.87,-789.4"/>
<text text-anchor="start" x="299.87" y="-801.6" font-family="Arial" font-size="14.00">download_url </text>
<text text-anchor="start" x="387.04" y="-801.6" font-family="Arial" font-size="14.00" fill="#666666">[varchar(255)]</text>
<polygon fill="none" stroke="black" points="292.87,-758.6 292.87,-789.4 590.13,-789.4 590.13,-758.6 292.87,-758.6"/>
<text text-anchor="start" x="299.87" y="-770.8" font-family="Arial" font-size="14.00">file_path </text>
<text text-anchor="start" x="356.69" y="-770.8" font-family="Arial" font-size="14.00" fill="#666666">[varchar(255)]</text>
<polygon fill="none" stroke="black" points="292.87,-727.8 292.87,-758.6 590.13,-758.6 590.13,-727.8 292.87,-727.8"/>
<text text-anchor="start" x="299.87" y="-740" font-family="Arial" font-size="14.00">filename </text>
<text text-anchor="start" x="356.68" y="-740" font-family="Arial" font-size="14.00" fill="#666666">[varchar(255)]</text>
<polygon fill="none" stroke="black" points="292.87,-697 292.87,-727.8 590.13,-727.8 590.13,-697 292.87,-697"/>
<text text-anchor="start" x="299.87" y="-709.2" font-family="Arial" font-size="14.00">original_filename </text>
<text text-anchor="start" x="409.6" y="-709.2" font-family="Arial" font-size="14.00" fill="#666666">[varchar(255)]</text>
<polygon fill="none" stroke="black" points="292.87,-666.2 292.87,-697 590.13,-697 590.13,-666.2 292.87,-666.2"/>
<text text-anchor="start" x="299.87" y="-678.4" font-family="Arial" font-size="14.00">size </text>
<text text-anchor="start" x="328.66" y="-678.4" font-family="Arial" font-size="14.00" fill="#666666">[bigint]</text>
<polygon fill="none" stroke="black" points="292.87,-635.4 292.87,-666.2 590.13,-666.2 590.13,-635.4 292.87,-635.4"/>
<text text-anchor="start" x="299.87" y="-647.6" font-family="Arial" font-size="14.00">uploaded_at </text>
<text text-anchor="start" x="380.84" y="-647.6" font-family="Arial" font-size="14.00" fill="#666666">[timestamp(6) without time zone]</text>
<polygon fill="none" stroke="black" points="292.87,-604.6 292.87,-635.4 590.13,-635.4 590.13,-604.6 292.87,-604.6"/>
<text text-anchor="start" x="299.87" y="-616.8" font-family="Arial" font-size="14.00">psb_folder_id </text>
<text text-anchor="start" x="387.82" y="-616.8" font-family="Arial" font-size="14.00" fill="#666666">[bigint]</text>
<polygon fill="none" stroke="black" points="292.87,-573.8 292.87,-604.6 590.13,-604.6 590.13,-573.8 292.87,-573.8"/>
<text text-anchor="start" x="299.87" y="-586" font-family="Arial" font-size="14.00">uploaded_by_id </text>
<text text-anchor="start" x="402.63" y="-586" font-family="Arial" font-size="14.00" fill="#666666">[bigint]</text>
<polygon fill="none" stroke="black" stroke-width="3" points="291.37,-572.3 291.37,-918.9 591.63,-918.9 591.63,-572.3 291.37,-572.3"/>
</g>
<!-- public.psb_folders -->
<g id="node2" class="node">
<title>public.psb_folders</title>
<polygon fill="#efefef" stroke="none" points="88.37,-382 88.37,-417.6 378.63,-417.6 378.63,-382 88.37,-382"/>
<polygon fill="none" stroke="black" points="88.37,-382 88.37,-417.6 378.63,-417.6 378.63,-382 88.37,-382"/>
<text text-anchor="start" x="104.52" y="-395.4" font-family="Arial Bold" font-size="18.00">public.psb_folders</text>
<text text-anchor="start" x="238" y="-395.4" font-family="Arial" font-size="14.00">    </text>
<text text-anchor="start" x="269.11" y="-395.4" font-family="Arial" font-size="14.00" fill="#666666">[BASE TABLE]</text>
<polygon fill="none" stroke="black" points="88.37,-351.2 88.37,-382 378.63,-382 378.63,-351.2 88.37,-351.2"/>
<text text-anchor="start" x="95.37" y="-363.4" font-family="Arial" font-size="14.00">id </text>
<text text-anchor="start" x="110.16" y="-363.4" font-family="Arial" font-size="14.00" fill="#666666">[bigint]</text>
<polygon fill="none" stroke="black" points="88.37,-320.4 88.37,-351.2 378.63,-351.2 378.63,-320.4 88.37,-320.4"/>
<text text-anchor="start" x="95.37" y="-332.6" font-family="Arial" font-size="14.00">color </text>
<text text-anchor="start" x="129.61" y="-332.6" font-family="Arial" font-size="14.00" fill="#666666">[varchar(255)]</text>
<polygon fill="none" stroke="black" points="88.37,-289.6 88.37,-320.4 378.63,-320.4 378.63,-289.6 88.37,-289.6"/>
<text text-anchor="start" x="95.37" y="-301.8" font-family="Arial" font-size="14.00">created_at </text>
<text text-anchor="start" x="165.42" y="-301.8" font-family="Arial" font-size="14.00" fill="#666666">[timestamp(6) without time zone]</text>
<polygon fill="none" stroke="black" points="88.37,-258.8 88.37,-289.6 378.63,-289.6 378.63,-258.8 88.37,-258.8"/>
<text text-anchor="start" x="95.37" y="-271" font-family="Arial" font-size="14.00">description </text>
<text text-anchor="start" x="166.97" y="-271" font-family="Arial" font-size="14.00" fill="#666666">[varchar(1000)]</text>
<polygon fill="none" stroke="black" points="88.37,-228 88.37,-258.8 378.63,-258.8 378.63,-228 88.37,-228"/>
<text text-anchor="start" x="95.37" y="-240.2" font-family="Arial" font-size="14.00">folder_index </text>
<text text-anchor="start" x="175.54" y="-240.2" font-family="Arial" font-size="14.00" fill="#666666">[integer]</text>
<polygon fill="none" stroke="black" points="88.37,-197.2 88.37,-228 378.63,-228 378.63,-197.2 88.37,-197.2"/>
<text text-anchor="start" x="95.37" y="-209.4" font-family="Arial" font-size="14.00">name </text>
<text text-anchor="start" x="134.28" y="-209.4" font-family="Arial" font-size="14.00" fill="#666666">[varchar(255)]</text>
<polygon fill="none" stroke="black" points="88.37,-166.4 88.37,-197.2 378.63,-197.2 378.63,-166.4 88.37,-166.4"/>
<text text-anchor="start" x="95.37" y="-178.6" font-family="Arial" font-size="14.00">server_path </text>
<text text-anchor="start" x="173.19" y="-178.6" font-family="Arial" font-size="14.00" fill="#666666">[varchar(255)]</text>
<polygon fill="none" stroke="black" points="88.37,-135.6 88.37,-166.4 378.63,-166.4 378.63,-135.6 88.37,-135.6"/>
<text text-anchor="start" x="95.37" y="-147.8" font-family="Arial" font-size="14.00">updated_at </text>
<text text-anchor="start" x="169.33" y="-147.8" font-family="Arial" font-size="14.00" fill="#666666">[timestamp(6) without time zone]</text>
<polygon fill="none" stroke="black" points="88.37,-104.8 88.37,-135.6 378.63,-135.6 378.63,-104.8 88.37,-104.8"/>
<text text-anchor="start" x="95.37" y="-117" font-family="Arial" font-size="14.00">created_by </text>
<text text-anchor="start" x="168.53" y="-117" font-family="Arial" font-size="14.00" fill="#666666">[bigint]</text>
<polygon fill="none" stroke="black" points="88.37,-74 88.37,-104.8 378.63,-104.8 378.63,-74 88.37,-74"/>
<text text-anchor="start" x="95.37" y="-86.2" font-family="Arial" font-size="14.00">dam_id </text>
<text text-anchor="start" x="145.18" y="-86.2" font-family="Arial" font-size="14.00" fill="#666666">[bigint]</text>
</g>
<!-- public.psb_files&#45;&gt;public.psb_folders -->
<g id="edge1" class="edge">
<title>public.psb_files:psb_folder_id&#45;&gt;public.psb_folders:id</title>
<path fill="none" stroke="black" d="M281.63,-618.48C255.4,-609.32 276.42,-560.81 292.87,-527.6 314.32,-484.31 357.19,-504.09 378.63,-460.8 397.21,-423.28 421.5,-366.6 379.63,-366.6"/>
<polygon fill="black" stroke="black" points="281.65,-618.48 290.88,-624.4 286.93,-619.27 291.21,-619.9 291.21,-619.9 291.21,-619.9 286.93,-619.27 292.2,-615.5 281.65,-618.48"/>
<text text-anchor="start" x="7" y="-630" font-family="Arial" font-size="10.00">FOREIGN KEY (psb_folder_id) REFERENCES psb_folders(id)</text>
</g>
<!-- public.users -->
<g id="node3" class="node">
<title>public.users</title>
<polygon fill="#efefef" stroke="none" points="483.2,-412.8 483.2,-448.4 817.8,-448.4 817.8,-412.8 483.2,-412.8"/>
<polygon fill="none" stroke="black" points="483.2,-412.8 483.2,-448.4 817.8,-448.4 817.8,-412.8 483.2,-412.8"/>
<text text-anchor="start" x="545.01" y="-426.2" font-family="Arial Bold" font-size="18.00">public.users</text>
<text text-anchor="start" x="631.5" y="-426.2" font-family="Arial" font-size="14.00">    </text>
<text text-anchor="start" x="662.62" y="-426.2" font-family="Arial" font-size="14.00" fill="#666666">[BASE TABLE]</text>
<polygon fill="none" stroke="black" points="483.2,-382 483.2,-412.8 817.8,-412.8 817.8,-382 483.2,-382"/>
<text text-anchor="start" x="490.2" y="-394.2" font-family="Arial" font-size="14.00">id </text>
<text text-anchor="start" x="504.99" y="-394.2" font-family="Arial" font-size="14.00" fill="#666666">[bigint]</text>
<polygon fill="none" stroke="black" points="483.2,-351.2 483.2,-382 817.8,-382 817.8,-351.2 483.2,-351.2"/>
<text text-anchor="start" x="490.2" y="-363.4" font-family="Arial" font-size="14.00">email </text>
<text text-anchor="start" x="527.55" y="-363.4" font-family="Arial" font-size="14.00" fill="#666666">[varchar(255)]</text>
<polygon fill="none" stroke="black" points="483.2,-320.4 483.2,-351.2 817.8,-351.2 817.8,-320.4 483.2,-320.4"/>
<text text-anchor="start" x="490.2" y="-332.6" font-family="Arial" font-size="14.00">is_first_access </text>
<text text-anchor="start" x="585.9" y="-332.6" font-family="Arial" font-size="14.00" fill="#666666">[boolean]</text>
<polygon fill="none" stroke="black" points="483.2,-289.6 483.2,-320.4 817.8,-320.4 817.8,-289.6 483.2,-289.6"/>
<text text-anchor="start" x="490.2" y="-301.8" font-family="Arial" font-size="14.00">last_token </text>
<text text-anchor="start" x="557.91" y="-301.8" font-family="Arial" font-size="14.00" fill="#666666">[text]</text>
<polygon fill="none" stroke="black" points="483.2,-258.8 483.2,-289.6 817.8,-289.6 817.8,-258.8 483.2,-258.8"/>
<text text-anchor="start" x="490.2" y="-271" font-family="Arial" font-size="14.00">name </text>
<text text-anchor="start" x="529.11" y="-271" font-family="Arial" font-size="14.00" fill="#666666">[varchar(255)]</text>
<polygon fill="none" stroke="black" points="483.2,-228 483.2,-258.8 817.8,-258.8 817.8,-228 483.2,-228"/>
<text text-anchor="start" x="490.2" y="-240.2" font-family="Arial" font-size="14.00">password </text>
<text text-anchor="start" x="554.01" y="-240.2" font-family="Arial" font-size="14.00" fill="#666666">[varchar(255)]</text>
<polygon fill="none" stroke="black" points="483.2,-197.2 483.2,-228 817.8,-228 817.8,-197.2 483.2,-197.2"/>
<text text-anchor="start" x="490.2" y="-209.4" font-family="Arial" font-size="14.00">phone </text>
<text text-anchor="start" x="533.02" y="-209.4" font-family="Arial" font-size="14.00" fill="#666666">[varchar(11)]</text>
<polygon fill="none" stroke="black" points="483.2,-166.4 483.2,-197.2 817.8,-197.2 817.8,-166.4 483.2,-166.4"/>
<text text-anchor="start" x="490.2" y="-178.6" font-family="Arial" font-size="14.00">token_expiry_date </text>
<text text-anchor="start" x="608.5" y="-178.6" font-family="Arial" font-size="14.00" fill="#666666">[timestamp(6) without time zone]</text>
<polygon fill="none" stroke="black" points="483.2,-135.6 483.2,-166.4 817.8,-166.4 817.8,-135.6 483.2,-135.6"/>
<text text-anchor="start" x="490.2" y="-147.8" font-family="Arial" font-size="14.00">created_by_id </text>
<text text-anchor="start" x="582.04" y="-147.8" font-family="Arial" font-size="14.00" fill="#666666">[bigint]</text>
<polygon fill="none" stroke="black" points="483.2,-104.8 483.2,-135.6 817.8,-135.6 817.8,-104.8 483.2,-104.8"/>
<text text-anchor="start" x="490.2" y="-117" font-family="Arial" font-size="14.00">role_id </text>
<text text-anchor="start" x="536.12" y="-117" font-family="Arial" font-size="14.00" fill="#666666">[bigint]</text>
<polygon fill="none" stroke="black" points="483.2,-74 483.2,-104.8 817.8,-104.8 817.8,-74 483.2,-74"/>
<text text-anchor="start" x="490.2" y="-86.2" font-family="Arial" font-size="14.00">sex_id </text>
<text text-anchor="start" x="534.56" y="-86.2" font-family="Arial" font-size="14.00" fill="#666666">[bigint]</text>
<polygon fill="none" stroke="black" points="483.2,-43.2 483.2,-74 817.8,-74 817.8,-43.2 483.2,-43.2"/>
<text text-anchor="start" x="490.2" y="-55.4" font-family="Arial" font-size="14.00">status_id </text>
<text text-anchor="start" x="550.13" y="-55.4" font-family="Arial" font-size="14.00" fill="#666666">[bigint]</text>
</g>
<!-- public.psb_files&#45;&gt;public.users -->
<g id="edge2" class="edge">
<title>public.psb_files:uploaded_by_id&#45;&gt;public.users:id</title>
<path fill="none" stroke="black" d="M601.2,-586.52C614.6,-577.28 603.76,-546.25 590.13,-527.6 560.54,-487.11 512.68,-532.17 483.2,-491.6 458.59,-457.73 440.33,-397.4 482.2,-397.4"/>
<polygon fill="black" stroke="black" points="601.12,-586.55 590.3,-584.76 595.96,-587.92 591.78,-589.03 591.78,-589.03 591.78,-589.03 595.96,-587.92 592.61,-593.46 601.12,-586.55"/>
<text text-anchor="start" x="598.13" y="-599.2" font-family="Arial" font-size="10.00">FOREIGN KEY (uploaded_by_id) REFERENCES users(id)</text>
</g>
</g>
</svg>
