<?xml version="1.0" encoding="UTF-8" standalone="no"?>
<!DOCTYPE svg PUBLIC "-//W3C//DTD SVG 1.1//EN"
 "http://www.w3.org/Graphics/SVG/1.1/DTD/svg11.dtd">
<!-- Generated by graphviz version 12.1.2 (20240928.0832)
 -->
<!-- Title: public.checklist_template_questionnaire Pages: 1 -->
<svg width="1120pt" height="448pt"
 viewBox="0.00 0.00 1120.45 448.00" xmlns="http://www.w3.org/2000/svg" xmlns:xlink="http://www.w3.org/1999/xlink">
<g id="graph0" class="graph" transform="scale(1 1) rotate(0) translate(4 444)">
<title>public.checklist_template_questionnaire</title>
<polygon fill="white" stroke="none" points="-4,4 -4,-444 1116.45,-444 1116.45,4 -4,4"/>
<!-- public.checklist_template_questionnaire -->
<g id="node1" class="node">
<title>public.checklist_template_questionnaire</title>
<polygon fill="#efefef" stroke="none" points="276.16,-358.2 276.16,-393.8 705.06,-393.8 705.06,-358.2 276.16,-358.2"/>
<polygon fill="none" stroke="black" points="276.16,-358.2 276.16,-393.8 705.06,-393.8 705.06,-358.2 276.16,-358.2"/>
<text text-anchor="start" x="283.16" y="-371.6" font-family="Arial Bold" font-size="18.00">public.checklist_template_questionnaire</text>
<text text-anchor="start" x="573.57" y="-371.6" font-family="Arial" font-size="14.00">    </text>
<text text-anchor="start" x="604.69" y="-371.6" font-family="Arial" font-size="14.00" fill="#666666">[BASE TABLE]</text>
<polygon fill="none" stroke="black" points="276.16,-327.4 276.16,-358.2 705.06,-358.2 705.06,-327.4 276.16,-327.4"/>
<text text-anchor="start" x="283.16" y="-339.6" font-family="Arial" font-size="14.00">checklist_id </text>
<text text-anchor="start" x="359.42" y="-339.6" font-family="Arial" font-size="14.00" fill="#666666">[bigint]</text>
<polygon fill="none" stroke="black" points="276.16,-296.6 276.16,-327.4 705.06,-327.4 705.06,-296.6 276.16,-296.6"/>
<text text-anchor="start" x="283.16" y="-308.8" font-family="Arial" font-size="14.00">template_questionnaire_id </text>
<text text-anchor="start" x="451.28" y="-308.8" font-family="Arial" font-size="14.00" fill="#666666">[bigint]</text>
<polygon fill="none" stroke="black" stroke-width="3" points="274.66,-295.1 274.66,-395.3 706.56,-395.3 706.56,-295.1 274.66,-295.1"/>
</g>
<!-- public.checklists -->
<g id="node2" class="node">
<title>public.checklists</title>
<polygon fill="#efefef" stroke="none" points="133.44,-135.6 133.44,-171.2 419.78,-171.2 419.78,-135.6 133.44,-135.6"/>
<polygon fill="none" stroke="black" points="133.44,-135.6 133.44,-171.2 419.78,-171.2 419.78,-135.6 133.44,-135.6"/>
<text text-anchor="start" x="154.13" y="-149" font-family="Arial Bold" font-size="18.00">public.checklists</text>
<text text-anchor="start" x="274.6" y="-149" font-family="Arial" font-size="14.00">    </text>
<text text-anchor="start" x="305.72" y="-149" font-family="Arial" font-size="14.00" fill="#666666">[BASE TABLE]</text>
<polygon fill="none" stroke="black" points="133.44,-104.8 133.44,-135.6 419.78,-135.6 419.78,-104.8 133.44,-104.8"/>
<text text-anchor="start" x="140.44" y="-117" font-family="Arial" font-size="14.00">id </text>
<text text-anchor="start" x="155.23" y="-117" font-family="Arial" font-size="14.00" fill="#666666">[bigint]</text>
<polygon fill="none" stroke="black" points="133.44,-74 133.44,-104.8 419.78,-104.8 419.78,-74 133.44,-74"/>
<text text-anchor="start" x="140.44" y="-86.2" font-family="Arial" font-size="14.00">created_at </text>
<text text-anchor="start" x="210.49" y="-86.2" font-family="Arial" font-size="14.00" fill="#666666">[timestamp(6) without time zone]</text>
<polygon fill="none" stroke="black" points="133.44,-43.2 133.44,-74 419.78,-74 419.78,-43.2 133.44,-43.2"/>
<text text-anchor="start" x="140.44" y="-55.4" font-family="Arial" font-size="14.00">name </text>
<text text-anchor="start" x="179.35" y="-55.4" font-family="Arial" font-size="14.00" fill="#666666">[varchar(255)]</text>
</g>
<!-- public.checklist_template_questionnaire&#45;&gt;public.checklists -->
<g id="edge1" class="edge">
<title>public.checklist_template_questionnaire:checklist_id&#45;&gt;public.checklists:id</title>
<path fill="none" stroke="black" d="M265.09,-341.29C237.29,-331.77 253.11,-279.62 276.16,-250.4 316.92,-198.74 379.03,-266.07 419.78,-214.4 445.71,-181.53 462.65,-120.2 420.78,-120.2"/>
<polygon fill="black" stroke="black" points="264.94,-341.26 274.16,-347.2 270.22,-342.06 274.5,-342.7 274.5,-342.7 274.5,-342.7 270.22,-342.06 275.5,-338.3 264.94,-341.26"/>
<text text-anchor="start" x="7" y="-352.8" font-family="Arial" font-size="10.00">FOREIGN KEY (checklist_id) REFERENCES checklists(id)</text>
</g>
<!-- public.template_questionnaires -->
<g id="node3" class="node">
<title>public.template_questionnaires</title>
<polygon fill="#efefef" stroke="none" points="524.15,-120.2 524.15,-155.8 887.07,-155.8 887.07,-120.2 524.15,-120.2"/>
<polygon fill="none" stroke="black" points="524.15,-120.2 524.15,-155.8 887.07,-155.8 887.07,-120.2 524.15,-120.2"/>
<text text-anchor="start" x="531.15" y="-133.6" font-family="Arial Bold" font-size="18.00">public.template_questionnaires</text>
<text text-anchor="start" x="755.58" y="-133.6" font-family="Arial" font-size="14.00">    </text>
<text text-anchor="start" x="786.7" y="-133.6" font-family="Arial" font-size="14.00" fill="#666666">[BASE TABLE]</text>
<polygon fill="none" stroke="black" points="524.15,-89.4 524.15,-120.2 887.07,-120.2 887.07,-89.4 524.15,-89.4"/>
<text text-anchor="start" x="531.15" y="-101.6" font-family="Arial" font-size="14.00">id </text>
<text text-anchor="start" x="545.93" y="-101.6" font-family="Arial" font-size="14.00" fill="#666666">[bigint]</text>
<polygon fill="none" stroke="black" points="524.15,-58.6 524.15,-89.4 887.07,-89.4 887.07,-58.6 524.15,-58.6"/>
<text text-anchor="start" x="531.15" y="-70.8" font-family="Arial" font-size="14.00">name </text>
<text text-anchor="start" x="570.06" y="-70.8" font-family="Arial" font-size="14.00" fill="#666666">[varchar(255)]</text>
</g>
<!-- public.checklist_template_questionnaire&#45;&gt;public.template_questionnaires -->
<g id="edge2" class="edge">
<title>public.checklist_template_questionnaire:template_questionnaire_id&#45;&gt;public.template_questionnaires:id</title>
<path fill="none" stroke="black" d="M715.78,-309.55C729.86,-300.56 719.27,-268.89 705.06,-250.4 654.13,-184.12 574.89,-265.43 524.15,-199 498.73,-165.73 481.28,-104.8 523.15,-104.8"/>
<polygon fill="black" stroke="black" points="716.08,-309.48 705.29,-307.55 710.91,-310.78 706.71,-311.84 706.71,-311.84 706.71,-311.84 710.91,-310.78 707.48,-316.28 716.08,-309.48"/>
<text text-anchor="start" x="713.06" y="-322" font-family="Arial" font-size="10.00">FOREIGN KEY (template_questionnaire_id) REFERENCES template_questionnaires(id)</text>
</g>
</g>
</svg>
