<?xml version="1.0" encoding="UTF-8" standalone="no"?>
<!DOCTYPE svg PUBLIC "-//W3C//DTD SVG 1.1//EN"
 "http://www.w3.org/Graphics/SVG/1.1/DTD/svg11.dtd">
<!-- Generated by graphviz version 12.1.2 (20240928.0832)
 -->
<!-- Title: public.levels Pages: 1 -->
<svg width="437pt" height="571pt"
 viewBox="0.00 0.00 436.98 571.20" xmlns="http://www.w3.org/2000/svg" xmlns:xlink="http://www.w3.org/1999/xlink">
<g id="graph0" class="graph" transform="scale(1 1) rotate(0) translate(4 567.2)">
<title>public.levels</title>
<polygon fill="white" stroke="none" points="-4,4 -4,-567.2 432.98,-567.2 432.98,4 -4,4"/>
<!-- public.levels -->
<g id="node1" class="node">
<title>public.levels</title>
<polygon fill="#efefef" stroke="none" points="96.43,-200.2 96.43,-235.8 382.78,-235.8 382.78,-200.2 96.43,-200.2"/>
<polygon fill="none" stroke="black" points="96.43,-200.2 96.43,-235.8 382.78,-235.8 382.78,-200.2 96.43,-200.2"/>
<text text-anchor="start" x="131.62" y="-213.6" font-family="Arial Bold" font-size="18.00">public.levels</text>
<text text-anchor="start" x="223.1" y="-213.6" font-family="Arial" font-size="14.00">    </text>
<text text-anchor="start" x="254.22" y="-213.6" font-family="Arial" font-size="14.00" fill="#666666">[BASE TABLE]</text>
<polygon fill="none" stroke="black" points="96.43,-169.4 96.43,-200.2 382.78,-200.2 382.78,-169.4 96.43,-169.4"/>
<text text-anchor="start" x="103.43" y="-181.6" font-family="Arial" font-size="14.00">id </text>
<text text-anchor="start" x="118.22" y="-181.6" font-family="Arial" font-size="14.00" fill="#666666">[bigint]</text>
<polygon fill="none" stroke="black" points="96.43,-138.6 96.43,-169.4 382.78,-169.4 382.78,-138.6 96.43,-138.6"/>
<text text-anchor="start" x="103.43" y="-150.8" font-family="Arial" font-size="14.00">created_at </text>
<text text-anchor="start" x="173.48" y="-150.8" font-family="Arial" font-size="14.00" fill="#666666">[timestamp(6) without time zone]</text>
<polygon fill="none" stroke="black" points="96.43,-107.8 96.43,-138.6 382.78,-138.6 382.78,-107.8 96.43,-107.8"/>
<text text-anchor="start" x="103.43" y="-120" font-family="Arial" font-size="14.00">name </text>
<text text-anchor="start" x="142.34" y="-120" font-family="Arial" font-size="14.00" fill="#666666">[varchar(255)]</text>
<polygon fill="none" stroke="black" points="96.43,-77 96.43,-107.8 382.78,-107.8 382.78,-77 96.43,-77"/>
<text text-anchor="start" x="103.43" y="-89.2" font-family="Arial" font-size="14.00">unit_level </text>
<text text-anchor="start" x="166.47" y="-89.2" font-family="Arial" font-size="14.00" fill="#666666">[varchar(255)]</text>
<polygon fill="none" stroke="black" points="96.43,-46.2 96.43,-77 382.78,-77 382.78,-46.2 96.43,-46.2"/>
<text text-anchor="start" x="103.43" y="-58.4" font-family="Arial" font-size="14.00">value </text>
<text text-anchor="start" x="140.79" y="-58.4" font-family="Arial" font-size="14.00" fill="#666666">[double precision]</text>
<polygon fill="none" stroke="black" stroke-width="3" points="94.93,-44.7 94.93,-237.3 384.28,-237.3 384.28,-44.7 94.93,-44.7"/>
</g>
<!-- public.reservoirs -->
<g id="node2" class="node">
<title>public.reservoirs</title>
<polygon fill="#efefef" stroke="none" points="96.43,-484.4 96.43,-520 382.78,-520 382.78,-484.4 96.43,-484.4"/>
<polygon fill="none" stroke="black" points="96.43,-484.4 96.43,-520 382.78,-520 382.78,-484.4 96.43,-484.4"/>
<text text-anchor="start" x="117.13" y="-497.8" font-family="Arial Bold" font-size="18.00">public.reservoirs</text>
<text text-anchor="start" x="237.59" y="-497.8" font-family="Arial" font-size="14.00">    </text>
<text text-anchor="start" x="268.71" y="-497.8" font-family="Arial" font-size="14.00" fill="#666666">[BASE TABLE]</text>
<polygon fill="none" stroke="black" points="96.43,-453.6 96.43,-484.4 382.78,-484.4 382.78,-453.6 96.43,-453.6"/>
<text text-anchor="start" x="103.43" y="-465.8" font-family="Arial" font-size="14.00">id </text>
<text text-anchor="start" x="118.22" y="-465.8" font-family="Arial" font-size="14.00" fill="#666666">[bigint]</text>
<polygon fill="none" stroke="black" points="96.43,-422.8 96.43,-453.6 382.78,-453.6 382.78,-422.8 96.43,-422.8"/>
<text text-anchor="start" x="103.43" y="-435" font-family="Arial" font-size="14.00">created_at </text>
<text text-anchor="start" x="173.48" y="-435" font-family="Arial" font-size="14.00" fill="#666666">[timestamp(6) without time zone]</text>
<polygon fill="none" stroke="black" points="96.43,-392 96.43,-422.8 382.78,-422.8 382.78,-392 96.43,-392"/>
<text text-anchor="start" x="103.43" y="-404.2" font-family="Arial" font-size="14.00">dam_id </text>
<text text-anchor="start" x="153.24" y="-404.2" font-family="Arial" font-size="14.00" fill="#666666">[bigint]</text>
<polygon fill="none" stroke="black" points="96.43,-361.2 96.43,-392 382.78,-392 382.78,-361.2 96.43,-361.2"/>
<text text-anchor="start" x="103.43" y="-373.4" font-family="Arial" font-size="14.00">level_id </text>
<text text-anchor="start" x="154.8" y="-373.4" font-family="Arial" font-size="14.00" fill="#666666">[bigint]</text>
</g>
<!-- public.reservoirs&#45;&gt;public.levels -->
<g id="edge1" class="edge">
<title>public.reservoirs:level_id&#45;&gt;public.levels:id</title>
<path fill="none" stroke="black" d="M240.4,-350.12C250.18,-293.12 347.36,-341.01 382.78,-282 405.01,-244.96 426.98,-184.8 383.78,-184.8"/>
<polygon fill="black" stroke="black" points="240.42,-349.9 235.15,-359.51 240,-355.22 239.66,-359.53 239.66,-359.53 239.66,-359.53 240,-355.22 244.12,-360.22 240.42,-349.9"/>
<text text-anchor="start" x="7" y="-370.2" font-family="Arial" font-size="10.00">FOREIGN KEY (level_id) REFERENCES levels(id)</text>
</g>
</g>
</svg>
