<?xml version="1.0" encoding="UTF-8" standalone="no"?>
<!DOCTYPE svg PUBLIC "-//W3C//DTD SVG 1.1//EN"
 "http://www.w3.org/Graphics/SVG/1.1/DTD/svg11.dtd">
<!-- Generated by graphviz version 12.1.2 (20240928.0832)
 -->
<!-- Title: public.instrumentation_permissions Pages: 1 -->
<svg width="689pt" height="1002pt"
 viewBox="0.00 0.00 688.54 1002.40" xmlns="http://www.w3.org/2000/svg" xmlns:xlink="http://www.w3.org/1999/xlink">
<g id="graph0" class="graph" transform="scale(1 1) rotate(0) translate(4 998.4)">
<title>public.instrumentation_permissions</title>
<polygon fill="white" stroke="none" points="-4,4 -4,-998.4 684.54,-998.4 684.54,4 -4,4"/>
<!-- public.instrumentation_permissions -->
<g id="node1" class="node">
<title>public.instrumentation_permissions</title>
<polygon fill="#efefef" stroke="none" points="46.2,-912.6 46.2,-948.2 442.16,-948.2 442.16,-912.6 46.2,-912.6"/>
<polygon fill="none" stroke="black" points="46.2,-912.6 46.2,-948.2 442.16,-948.2 442.16,-912.6 46.2,-912.6"/>
<text text-anchor="start" x="53.2" y="-926" font-family="Arial Bold" font-size="18.00">public.instrumentation_permissions</text>
<text text-anchor="start" x="310.68" y="-926" font-family="Arial" font-size="14.00">    </text>
<text text-anchor="start" x="341.79" y="-926" font-family="Arial" font-size="14.00" fill="#666666">[BASE TABLE]</text>
<polygon fill="none" stroke="black" points="46.2,-881.8 46.2,-912.6 442.16,-912.6 442.16,-881.8 46.2,-881.8"/>
<text text-anchor="start" x="53.2" y="-894" font-family="Arial" font-size="14.00">id </text>
<text text-anchor="start" x="67.99" y="-894" font-family="Arial" font-size="14.00" fill="#666666">[bigint]</text>
<polygon fill="none" stroke="black" points="46.2,-851 46.2,-881.8 442.16,-881.8 442.16,-851 46.2,-851"/>
<text text-anchor="start" x="53.2" y="-863.2" font-family="Arial" font-size="14.00">edit_graphs_default </text>
<text text-anchor="start" x="180.07" y="-863.2" font-family="Arial" font-size="14.00" fill="#666666">[boolean]</text>
<polygon fill="none" stroke="black" points="46.2,-820.2 46.2,-851 442.16,-851 442.16,-820.2 46.2,-820.2"/>
<text text-anchor="start" x="53.2" y="-832.4" font-family="Arial" font-size="14.00">edit_graphs_local </text>
<text text-anchor="start" x="166.83" y="-832.4" font-family="Arial" font-size="14.00" fill="#666666">[boolean]</text>
<polygon fill="none" stroke="black" points="46.2,-789.4 46.2,-820.2 442.16,-820.2 442.16,-789.4 46.2,-789.4"/>
<text text-anchor="start" x="53.2" y="-801.6" font-family="Arial" font-size="14.00">edit_read </text>
<text text-anchor="start" x="115.47" y="-801.6" font-family="Arial" font-size="14.00" fill="#666666">[boolean]</text>
<polygon fill="none" stroke="black" points="46.2,-758.6 46.2,-789.4 442.16,-789.4 442.16,-758.6 46.2,-758.6"/>
<text text-anchor="start" x="53.2" y="-770.8" font-family="Arial" font-size="14.00">edit_sections </text>
<text text-anchor="start" x="138.81" y="-770.8" font-family="Arial" font-size="14.00" fill="#666666">[boolean]</text>
<polygon fill="none" stroke="black" points="46.2,-727.8 46.2,-758.6 442.16,-758.6 442.16,-727.8 46.2,-727.8"/>
<text text-anchor="start" x="53.2" y="-740" font-family="Arial" font-size="14.00">view_graphs </text>
<text text-anchor="start" x="135.69" y="-740" font-family="Arial" font-size="14.00" fill="#666666">[boolean]</text>
<polygon fill="none" stroke="black" points="46.2,-697 46.2,-727.8 442.16,-727.8 442.16,-697 46.2,-697"/>
<text text-anchor="start" x="53.2" y="-709.2" font-family="Arial" font-size="14.00">view_read </text>
<text text-anchor="start" x="120.9" y="-709.2" font-family="Arial" font-size="14.00" fill="#666666">[boolean]</text>
<polygon fill="none" stroke="black" points="46.2,-666.2 46.2,-697 442.16,-697 442.16,-666.2 46.2,-666.2"/>
<text text-anchor="start" x="53.2" y="-678.4" font-family="Arial" font-size="14.00">view_sections </text>
<text text-anchor="start" x="144.24" y="-678.4" font-family="Arial" font-size="14.00" fill="#666666">[boolean]</text>
<polygon fill="none" stroke="black" points="46.2,-635.4 46.2,-666.2 442.16,-666.2 442.16,-635.4 46.2,-635.4"/>
<text text-anchor="start" x="53.2" y="-647.6" font-family="Arial" font-size="14.00">user_id </text>
<text text-anchor="start" x="103.01" y="-647.6" font-family="Arial" font-size="14.00" fill="#666666">[bigint]</text>
<polygon fill="none" stroke="black" points="46.2,-604.6 46.2,-635.4 442.16,-635.4 442.16,-604.6 46.2,-604.6"/>
<text text-anchor="start" x="53.2" y="-616.8" font-family="Arial" font-size="14.00">edit_instruments </text>
<text text-anchor="start" x="159.81" y="-616.8" font-family="Arial" font-size="14.00" fill="#666666">[boolean]</text>
<polygon fill="none" stroke="black" points="46.2,-573.8 46.2,-604.6 442.16,-604.6 442.16,-573.8 46.2,-573.8"/>
<text text-anchor="start" x="53.2" y="-586" font-family="Arial" font-size="14.00">view_instruments </text>
<text text-anchor="start" x="165.24" y="-586" font-family="Arial" font-size="14.00" fill="#666666">[boolean]</text>
<polygon fill="none" stroke="black" stroke-width="3" points="44.7,-572.3 44.7,-949.7 443.66,-949.7 443.66,-572.3 44.7,-572.3"/>
</g>
<!-- public.users -->
<g id="node2" class="node">
<title>public.users</title>
<polygon fill="#efefef" stroke="none" points="76.88,-412.8 76.88,-448.4 411.48,-448.4 411.48,-412.8 76.88,-412.8"/>
<polygon fill="none" stroke="black" points="76.88,-412.8 76.88,-448.4 411.48,-448.4 411.48,-412.8 76.88,-412.8"/>
<text text-anchor="start" x="138.7" y="-426.2" font-family="Arial Bold" font-size="18.00">public.users</text>
<text text-anchor="start" x="225.18" y="-426.2" font-family="Arial" font-size="14.00">    </text>
<text text-anchor="start" x="256.3" y="-426.2" font-family="Arial" font-size="14.00" fill="#666666">[BASE TABLE]</text>
<polygon fill="none" stroke="black" points="76.88,-382 76.88,-412.8 411.48,-412.8 411.48,-382 76.88,-382"/>
<text text-anchor="start" x="83.88" y="-394.2" font-family="Arial" font-size="14.00">id </text>
<text text-anchor="start" x="98.67" y="-394.2" font-family="Arial" font-size="14.00" fill="#666666">[bigint]</text>
<polygon fill="none" stroke="black" points="76.88,-351.2 76.88,-382 411.48,-382 411.48,-351.2 76.88,-351.2"/>
<text text-anchor="start" x="83.88" y="-363.4" font-family="Arial" font-size="14.00">email </text>
<text text-anchor="start" x="121.23" y="-363.4" font-family="Arial" font-size="14.00" fill="#666666">[varchar(255)]</text>
<polygon fill="none" stroke="black" points="76.88,-320.4 76.88,-351.2 411.48,-351.2 411.48,-320.4 76.88,-320.4"/>
<text text-anchor="start" x="83.88" y="-332.6" font-family="Arial" font-size="14.00">is_first_access </text>
<text text-anchor="start" x="179.58" y="-332.6" font-family="Arial" font-size="14.00" fill="#666666">[boolean]</text>
<polygon fill="none" stroke="black" points="76.88,-289.6 76.88,-320.4 411.48,-320.4 411.48,-289.6 76.88,-289.6"/>
<text text-anchor="start" x="83.88" y="-301.8" font-family="Arial" font-size="14.00">last_token </text>
<text text-anchor="start" x="151.59" y="-301.8" font-family="Arial" font-size="14.00" fill="#666666">[text]</text>
<polygon fill="none" stroke="black" points="76.88,-258.8 76.88,-289.6 411.48,-289.6 411.48,-258.8 76.88,-258.8"/>
<text text-anchor="start" x="83.88" y="-271" font-family="Arial" font-size="14.00">name </text>
<text text-anchor="start" x="122.79" y="-271" font-family="Arial" font-size="14.00" fill="#666666">[varchar(255)]</text>
<polygon fill="none" stroke="black" points="76.88,-228 76.88,-258.8 411.48,-258.8 411.48,-228 76.88,-228"/>
<text text-anchor="start" x="83.88" y="-240.2" font-family="Arial" font-size="14.00">password </text>
<text text-anchor="start" x="147.69" y="-240.2" font-family="Arial" font-size="14.00" fill="#666666">[varchar(255)]</text>
<polygon fill="none" stroke="black" points="76.88,-197.2 76.88,-228 411.48,-228 411.48,-197.2 76.88,-197.2"/>
<text text-anchor="start" x="83.88" y="-209.4" font-family="Arial" font-size="14.00">phone </text>
<text text-anchor="start" x="126.7" y="-209.4" font-family="Arial" font-size="14.00" fill="#666666">[varchar(11)]</text>
<polygon fill="none" stroke="black" points="76.88,-166.4 76.88,-197.2 411.48,-197.2 411.48,-166.4 76.88,-166.4"/>
<text text-anchor="start" x="83.88" y="-178.6" font-family="Arial" font-size="14.00">token_expiry_date </text>
<text text-anchor="start" x="202.19" y="-178.6" font-family="Arial" font-size="14.00" fill="#666666">[timestamp(6) without time zone]</text>
<polygon fill="none" stroke="black" points="76.88,-135.6 76.88,-166.4 411.48,-166.4 411.48,-135.6 76.88,-135.6"/>
<text text-anchor="start" x="83.88" y="-147.8" font-family="Arial" font-size="14.00">created_by_id </text>
<text text-anchor="start" x="175.72" y="-147.8" font-family="Arial" font-size="14.00" fill="#666666">[bigint]</text>
<polygon fill="none" stroke="black" points="76.88,-104.8 76.88,-135.6 411.48,-135.6 411.48,-104.8 76.88,-104.8"/>
<text text-anchor="start" x="83.88" y="-117" font-family="Arial" font-size="14.00">role_id </text>
<text text-anchor="start" x="129.8" y="-117" font-family="Arial" font-size="14.00" fill="#666666">[bigint]</text>
<polygon fill="none" stroke="black" points="76.88,-74 76.88,-104.8 411.48,-104.8 411.48,-74 76.88,-74"/>
<text text-anchor="start" x="83.88" y="-86.2" font-family="Arial" font-size="14.00">sex_id </text>
<text text-anchor="start" x="128.24" y="-86.2" font-family="Arial" font-size="14.00" fill="#666666">[bigint]</text>
<polygon fill="none" stroke="black" points="76.88,-43.2 76.88,-74 411.48,-74 411.48,-43.2 76.88,-43.2"/>
<text text-anchor="start" x="83.88" y="-55.4" font-family="Arial" font-size="14.00">status_id </text>
<text text-anchor="start" x="143.81" y="-55.4" font-family="Arial" font-size="14.00" fill="#666666">[bigint]</text>
</g>
<!-- public.instrumentation_permissions&#45;&gt;public.users -->
<g id="edge1" class="edge">
<title>public.instrumentation_permissions:user_id&#45;&gt;public.users:id</title>
<path fill="none" stroke="black" d="M453.38,-650.07C554.61,-635.21 522.38,-397.4 412.48,-397.4"/>
<polygon fill="black" stroke="black" points="453.47,-650.07 443.18,-646.29 448.15,-650.45 443.83,-650.75 443.83,-650.75 443.83,-650.75 448.15,-650.45 443.82,-655.26 453.47,-650.07"/>
<text text-anchor="start" x="450.16" y="-660.8" font-family="Arial" font-size="10.00">FOREIGN KEY (user_id) REFERENCES users(id)</text>
</g>
</g>
</svg>
