<?xml version="1.0" encoding="UTF-8" standalone="no"?>
<!DOCTYPE svg PUBLIC "-//W3C//DTD SVG 1.1//EN"
 "http://www.w3.org/Graphics/SVG/1.1/DTD/svg11.dtd">
<!-- Generated by graphviz version 12.1.2 (20240928.0832)
 -->
<!-- Title: public.input Pages: 1 -->
<svg width="950pt" height="941pt"
 viewBox="0.00 0.00 949.52 940.80" xmlns="http://www.w3.org/2000/svg" xmlns:xlink="http://www.w3.org/1999/xlink">
<g id="graph0" class="graph" transform="scale(1 1) rotate(0) translate(4 936.8)">
<title>public.input</title>
<polygon fill="white" stroke="none" points="-4,4 -4,-936.8 945.52,-936.8 945.52,4 -4,4"/>
<!-- public.input -->
<g id="node1" class="node">
<title>public.input</title>
<polygon fill="#efefef" stroke="none" points="356.42,-851 356.42,-886.6 581.4,-886.6 581.4,-851 356.42,-851"/>
<polygon fill="none" stroke="black" points="356.42,-851 356.42,-886.6 581.4,-886.6 581.4,-851 356.42,-851"/>
<text text-anchor="start" x="363.42" y="-864.4" font-family="Arial Bold" font-size="18.00">public.input</text>
<text text-anchor="start" x="449.91" y="-864.4" font-family="Arial" font-size="14.00">    </text>
<text text-anchor="start" x="481.03" y="-864.4" font-family="Arial" font-size="14.00" fill="#666666">[BASE TABLE]</text>
<polygon fill="none" stroke="black" points="356.42,-820.2 356.42,-851 581.4,-851 581.4,-820.2 356.42,-820.2"/>
<text text-anchor="start" x="363.42" y="-832.4" font-family="Arial" font-size="14.00">id </text>
<text text-anchor="start" x="378.21" y="-832.4" font-family="Arial" font-size="14.00" fill="#666666">[bigint]</text>
<polygon fill="none" stroke="black" points="356.42,-789.4 356.42,-820.2 581.4,-820.2 581.4,-789.4 356.42,-789.4"/>
<text text-anchor="start" x="363.42" y="-801.6" font-family="Arial" font-size="14.00">acronym </text>
<text text-anchor="start" x="420.99" y="-801.6" font-family="Arial" font-size="14.00" fill="#666666">[varchar(255)]</text>
<polygon fill="none" stroke="black" points="356.42,-758.6 356.42,-789.4 581.4,-789.4 581.4,-758.6 356.42,-758.6"/>
<text text-anchor="start" x="363.42" y="-770.8" font-family="Arial" font-size="14.00">name </text>
<text text-anchor="start" x="402.33" y="-770.8" font-family="Arial" font-size="14.00" fill="#666666">[varchar(255)]</text>
<polygon fill="none" stroke="black" points="356.42,-727.8 356.42,-758.6 581.4,-758.6 581.4,-727.8 356.42,-727.8"/>
<text text-anchor="start" x="363.42" y="-740" font-family="Arial" font-size="14.00">precision </text>
<text text-anchor="start" x="423.34" y="-740" font-family="Arial" font-size="14.00" fill="#666666">[integer]</text>
<polygon fill="none" stroke="black" points="356.42,-697 356.42,-727.8 581.4,-727.8 581.4,-697 356.42,-697"/>
<text text-anchor="start" x="363.42" y="-709.2" font-family="Arial" font-size="14.00">instrument_id </text>
<text text-anchor="start" x="451.35" y="-709.2" font-family="Arial" font-size="14.00" fill="#666666">[bigint]</text>
<polygon fill="none" stroke="black" points="356.42,-666.2 356.42,-697 581.4,-697 581.4,-666.2 356.42,-666.2"/>
<text text-anchor="start" x="363.42" y="-678.4" font-family="Arial" font-size="14.00">measurement_unit_id </text>
<text text-anchor="start" x="501.95" y="-678.4" font-family="Arial" font-size="14.00" fill="#666666">[bigint]</text>
<polygon fill="none" stroke="black" stroke-width="3" points="354.92,-664.7 354.92,-888.1 582.9,-888.1 582.9,-664.7 354.92,-664.7"/>
</g>
<!-- public.instrument -->
<g id="node2" class="node">
<title>public.instrument</title>
<polygon fill="#efefef" stroke="none" points="43.2,-505.2 43.2,-540.8 434.63,-540.8 434.63,-505.2 43.2,-505.2"/>
<polygon fill="none" stroke="black" points="43.2,-505.2 43.2,-540.8 434.63,-540.8 434.63,-505.2 43.2,-505.2"/>
<text text-anchor="start" x="113.43" y="-518.6" font-family="Arial Bold" font-size="18.00">public.instrument</text>
<text text-anchor="start" x="239.91" y="-518.6" font-family="Arial" font-size="14.00">    </text>
<text text-anchor="start" x="271.03" y="-518.6" font-family="Arial" font-size="14.00" fill="#666666">[BASE TABLE]</text>
<polygon fill="none" stroke="black" points="43.2,-474.4 43.2,-505.2 434.63,-505.2 434.63,-474.4 43.2,-474.4"/>
<text text-anchor="start" x="50.2" y="-486.6" font-family="Arial" font-size="14.00">id </text>
<text text-anchor="start" x="64.99" y="-486.6" font-family="Arial" font-size="14.00" fill="#666666">[bigint]</text>
<polygon fill="none" stroke="black" points="43.2,-443.6 43.2,-474.4 434.63,-474.4 434.63,-443.6 43.2,-443.6"/>
<text text-anchor="start" x="50.2" y="-455.8" font-family="Arial" font-size="14.00">active </text>
<text text-anchor="start" x="90.66" y="-455.8" font-family="Arial" font-size="14.00" fill="#666666">[boolean]</text>
<polygon fill="none" stroke="black" points="43.2,-412.8 43.2,-443.6 434.63,-443.6 434.63,-412.8 43.2,-412.8"/>
<text text-anchor="start" x="50.2" y="-425" font-family="Arial" font-size="14.00">active_for_section </text>
<text text-anchor="start" x="166.93" y="-425" font-family="Arial" font-size="14.00" fill="#666666">[boolean]</text>
<polygon fill="none" stroke="black" points="43.2,-382 43.2,-412.8 434.63,-412.8 434.63,-382 43.2,-382"/>
<text text-anchor="start" x="50.2" y="-394.2" font-family="Arial" font-size="14.00">distance_offset </text>
<text text-anchor="start" x="148.26" y="-394.2" font-family="Arial" font-size="14.00" fill="#666666">[double precision]</text>
<polygon fill="none" stroke="black" points="43.2,-351.2 43.2,-382 434.63,-382 434.63,-351.2 43.2,-351.2"/>
<text text-anchor="start" x="50.2" y="-363.4" font-family="Arial" font-size="14.00">is_linimetric_ruler </text>
<text text-anchor="start" x="163.01" y="-363.4" font-family="Arial" font-size="14.00" fill="#666666">[boolean]</text>
<polygon fill="none" stroke="black" points="43.2,-320.4 43.2,-351.2 434.63,-351.2 434.63,-320.4 43.2,-320.4"/>
<text text-anchor="start" x="50.2" y="-332.6" font-family="Arial" font-size="14.00">last_update_variables_date </text>
<text text-anchor="start" x="225.33" y="-332.6" font-family="Arial" font-size="14.00" fill="#666666">[timestamp(6) without time zone]</text>
<polygon fill="none" stroke="black" points="43.2,-289.6 43.2,-320.4 434.63,-320.4 434.63,-289.6 43.2,-289.6"/>
<text text-anchor="start" x="50.2" y="-301.8" font-family="Arial" font-size="14.00">latitude </text>
<text text-anchor="start" x="99.23" y="-301.8" font-family="Arial" font-size="14.00" fill="#666666">[double precision]</text>
<polygon fill="none" stroke="black" points="43.2,-258.8 43.2,-289.6 434.63,-289.6 434.63,-258.8 43.2,-258.8"/>
<text text-anchor="start" x="50.2" y="-271" font-family="Arial" font-size="14.00">linimetric_ruler_code </text>
<text text-anchor="start" x="183.25" y="-271" font-family="Arial" font-size="14.00" fill="#666666">[bigint]</text>
<polygon fill="none" stroke="black" points="43.2,-228 43.2,-258.8 434.63,-258.8 434.63,-228 43.2,-228"/>
<text text-anchor="start" x="50.2" y="-240.2" font-family="Arial" font-size="14.00">location </text>
<text text-anchor="start" x="102.34" y="-240.2" font-family="Arial" font-size="14.00" fill="#666666">[varchar(255)]</text>
<polygon fill="none" stroke="black" points="43.2,-197.2 43.2,-228 434.63,-228 434.63,-197.2 43.2,-197.2"/>
<text text-anchor="start" x="50.2" y="-209.4" font-family="Arial" font-size="14.00">longitude </text>
<text text-anchor="start" x="110.92" y="-209.4" font-family="Arial" font-size="14.00" fill="#666666">[double precision]</text>
<polygon fill="none" stroke="black" points="43.2,-166.4 43.2,-197.2 434.63,-197.2 434.63,-166.4 43.2,-166.4"/>
<text text-anchor="start" x="50.2" y="-178.6" font-family="Arial" font-size="14.00">name </text>
<text text-anchor="start" x="89.11" y="-178.6" font-family="Arial" font-size="14.00" fill="#666666">[varchar(255)]</text>
<polygon fill="none" stroke="black" points="43.2,-135.6 43.2,-166.4 434.63,-166.4 434.63,-135.6 43.2,-135.6"/>
<text text-anchor="start" x="50.2" y="-147.8" font-family="Arial" font-size="14.00">no_limit </text>
<text text-anchor="start" x="102.33" y="-147.8" font-family="Arial" font-size="14.00" fill="#666666">[boolean]</text>
<polygon fill="none" stroke="black" points="43.2,-104.8 43.2,-135.6 434.63,-135.6 434.63,-104.8 43.2,-104.8"/>
<text text-anchor="start" x="50.2" y="-117" font-family="Arial" font-size="14.00">dam_id </text>
<text text-anchor="start" x="100.01" y="-117" font-family="Arial" font-size="14.00" fill="#666666">[bigint]</text>
<polygon fill="none" stroke="black" points="43.2,-74 43.2,-104.8 434.63,-104.8 434.63,-74 43.2,-74"/>
<text text-anchor="start" x="50.2" y="-86.2" font-family="Arial" font-size="14.00">instrument_type_id </text>
<text text-anchor="start" x="172.38" y="-86.2" font-family="Arial" font-size="14.00" fill="#666666">[bigint]</text>
<polygon fill="none" stroke="black" points="43.2,-43.2 43.2,-74 434.63,-74 434.63,-43.2 43.2,-43.2"/>
<text text-anchor="start" x="50.2" y="-55.4" font-family="Arial" font-size="14.00">section_id </text>
<text text-anchor="start" x="117.13" y="-55.4" font-family="Arial" font-size="14.00" fill="#666666">[bigint]</text>
</g>
<!-- public.input&#45;&gt;public.instrument -->
<g id="edge1" class="edge">
<title>public.input:instrument_id&#45;&gt;public.instrument:id</title>
<path fill="none" stroke="black" d="M345.43,-710.94C318.08,-701.74 336.18,-651.23 356.42,-620 377.23,-587.89 413.82,-616.11 434.63,-584 457.4,-548.86 477.49,-489.8 435.63,-489.8"/>
<polygon fill="black" stroke="black" points="345.2,-710.91 354.44,-716.8 350.47,-711.68 354.76,-712.3 354.76,-712.3 354.76,-712.3 350.47,-711.68 355.74,-707.9 345.2,-710.91"/>
<text text-anchor="start" x="75.58" y="-722.4" font-family="Arial" font-size="10.00">FOREIGN KEY (instrument_id) REFERENCES instrument(id)</text>
</g>
<!-- public.measurement_unit -->
<g id="node3" class="node">
<title>public.measurement_unit</title>
<polygon fill="#efefef" stroke="none" points="539.44,-320.4 539.44,-356 860.38,-356 860.38,-320.4 539.44,-320.4"/>
<polygon fill="none" stroke="black" points="539.44,-320.4 539.44,-356 860.38,-356 860.38,-320.4 539.44,-320.4"/>
<text text-anchor="start" x="546.44" y="-333.8" font-family="Arial Bold" font-size="18.00">public.measurement_unit</text>
<text text-anchor="start" x="728.89" y="-333.8" font-family="Arial" font-size="14.00">    </text>
<text text-anchor="start" x="760.01" y="-333.8" font-family="Arial" font-size="14.00" fill="#666666">[BASE TABLE]</text>
<polygon fill="none" stroke="black" points="539.44,-289.6 539.44,-320.4 860.38,-320.4 860.38,-289.6 539.44,-289.6"/>
<text text-anchor="start" x="546.44" y="-301.8" font-family="Arial" font-size="14.00">id </text>
<text text-anchor="start" x="561.23" y="-301.8" font-family="Arial" font-size="14.00" fill="#666666">[bigint]</text>
<polygon fill="none" stroke="black" points="539.44,-258.8 539.44,-289.6 860.38,-289.6 860.38,-258.8 539.44,-258.8"/>
<text text-anchor="start" x="546.44" y="-271" font-family="Arial" font-size="14.00">acronym </text>
<text text-anchor="start" x="604.01" y="-271" font-family="Arial" font-size="14.00" fill="#666666">[varchar(255)]</text>
<polygon fill="none" stroke="black" points="539.44,-228 539.44,-258.8 860.38,-258.8 860.38,-228 539.44,-228"/>
<text text-anchor="start" x="546.44" y="-240.2" font-family="Arial" font-size="14.00">name </text>
<text text-anchor="start" x="585.35" y="-240.2" font-family="Arial" font-size="14.00" fill="#666666">[varchar(255)]</text>
</g>
<!-- public.input&#45;&gt;public.measurement_unit -->
<g id="edge2" class="edge">
<title>public.input:measurement_unit_id&#45;&gt;public.measurement_unit:id</title>
<path fill="none" stroke="black" d="M592.52,-681.09C734.8,-665.59 373.55,-305 538.44,-305"/>
<polygon fill="black" stroke="black" points="592.73,-681.08 582.51,-677.09 587.4,-681.35 583.07,-681.57 583.07,-681.57 583.07,-681.57 587.4,-681.35 582.97,-686.08 592.73,-681.08"/>
<text text-anchor="start" x="589.4" y="-691.6" font-family="Arial" font-size="10.00">FOREIGN KEY (measurement_unit_id) REFERENCES measurement_unit(id)</text>
</g>
</g>
</svg>
