<?xml version="1.0" encoding="UTF-8" standalone="no"?>
<!DOCTYPE svg PUBLIC "-//W3C//DTD SVG 1.1//EN"
 "http://www.w3.org/Graphics/SVG/1.1/DTD/svg11.dtd">
<!-- Generated by graphviz version 12.1.2 (20240928.0832)
 -->
<!-- Title: public.options Pages: 1 -->
<svg width="804pt" height="479pt"
 viewBox="0.00 0.00 803.87 478.80" xmlns="http://www.w3.org/2000/svg" xmlns:xlink="http://www.w3.org/1999/xlink">
<g id="graph0" class="graph" transform="scale(1 1) rotate(0) translate(4 474.8)">
<title>public.options</title>
<polygon fill="white" stroke="none" points="-4,4 -4,-474.8 799.87,-474.8 799.87,4 -4,4"/>
<!-- public.options -->
<g id="node1" class="node">
<title>public.options</title>
<polygon fill="#efefef" stroke="none" points="276.19,-169.4 276.19,-205 517.18,-205 517.18,-169.4 276.19,-169.4"/>
<polygon fill="none" stroke="black" points="276.19,-169.4 276.19,-205 517.18,-205 517.18,-169.4 276.19,-169.4"/>
<text text-anchor="start" x="283.19" y="-182.8" font-family="Arial Bold" font-size="18.00">public.options</text>
<text text-anchor="start" x="385.69" y="-182.8" font-family="Arial" font-size="14.00">    </text>
<text text-anchor="start" x="416.8" y="-182.8" font-family="Arial" font-size="14.00" fill="#666666">[BASE TABLE]</text>
<polygon fill="none" stroke="black" points="276.19,-138.6 276.19,-169.4 517.18,-169.4 517.18,-138.6 276.19,-138.6"/>
<text text-anchor="start" x="283.19" y="-150.8" font-family="Arial" font-size="14.00">id </text>
<text text-anchor="start" x="297.97" y="-150.8" font-family="Arial" font-size="14.00" fill="#666666">[bigint]</text>
<polygon fill="none" stroke="black" points="276.19,-107.8 276.19,-138.6 517.18,-138.6 517.18,-107.8 276.19,-107.8"/>
<text text-anchor="start" x="283.19" y="-120" font-family="Arial" font-size="14.00">label </text>
<text text-anchor="start" x="316.66" y="-120" font-family="Arial" font-size="14.00" fill="#666666">[varchar(255)]</text>
<polygon fill="none" stroke="black" points="276.19,-77 276.19,-107.8 517.18,-107.8 517.18,-77 276.19,-77"/>
<text text-anchor="start" x="283.19" y="-89.2" font-family="Arial" font-size="14.00">order_index </text>
<text text-anchor="start" x="361.02" y="-89.2" font-family="Arial" font-size="14.00" fill="#666666">[integer]</text>
<polygon fill="none" stroke="black" points="276.19,-46.2 276.19,-77 517.18,-77 517.18,-46.2 276.19,-46.2"/>
<text text-anchor="start" x="283.19" y="-58.4" font-family="Arial" font-size="14.00">value </text>
<text text-anchor="start" x="320.55" y="-58.4" font-family="Arial" font-size="14.00" fill="#666666">[varchar(255)]</text>
<polygon fill="none" stroke="black" stroke-width="3" points="274.69,-44.7 274.69,-206.5 518.68,-206.5 518.68,-44.7 274.69,-44.7"/>
</g>
<!-- public.answer_options -->
<g id="node2" class="node">
<title>public.answer_options</title>
<polygon fill="#efefef" stroke="none" points="43.2,-392 43.2,-427.6 344.16,-427.6 344.16,-392 43.2,-392"/>
<polygon fill="none" stroke="black" points="43.2,-392 43.2,-427.6 344.16,-427.6 344.16,-392 43.2,-392"/>
<text text-anchor="start" x="50.2" y="-405.4" font-family="Arial Bold" font-size="18.00">public.answer_options</text>
<text text-anchor="start" x="212.67" y="-405.4" font-family="Arial" font-size="14.00">    </text>
<text text-anchor="start" x="243.79" y="-405.4" font-family="Arial" font-size="14.00" fill="#666666">[BASE TABLE]</text>
<polygon fill="none" stroke="black" points="43.2,-361.2 43.2,-392 344.16,-392 344.16,-361.2 43.2,-361.2"/>
<text text-anchor="start" x="50.2" y="-373.4" font-family="Arial" font-size="14.00">answer_id </text>
<text text-anchor="start" x="117.9" y="-373.4" font-family="Arial" font-size="14.00" fill="#666666">[bigint]</text>
<polygon fill="none" stroke="black" points="43.2,-330.4 43.2,-361.2 344.16,-361.2 344.16,-330.4 43.2,-330.4"/>
<text text-anchor="start" x="50.2" y="-342.6" font-family="Arial" font-size="14.00">option_id </text>
<text text-anchor="start" x="110.92" y="-342.6" font-family="Arial" font-size="14.00" fill="#666666">[bigint]</text>
</g>
<!-- public.answer_options&#45;&gt;public.options -->
<g id="edge1" class="edge">
<title>public.answer_options:option_id&#45;&gt;public.options:id</title>
<path fill="none" stroke="black" d="M354.97,-343.08C366.8,-334.24 355.55,-305.76 344.16,-287.2 326.28,-258.06 293.97,-280.4 276.19,-251.2 253.72,-214.3 231.99,-154 275.19,-154"/>
<polygon fill="black" stroke="black" points="355.12,-343.04 344.29,-341.37 349.98,-344.47 345.81,-345.62 345.81,-345.62 345.81,-345.62 349.98,-344.47 346.69,-350.05 355.12,-343.04"/>
<text text-anchor="start" x="352.16" y="-355.8" font-family="Arial" font-size="10.00">FOREIGN KEY (option_id) REFERENCES options(id)</text>
</g>
<!-- public.question_option -->
<g id="node3" class="node">
<title>public.question_option</title>
<polygon fill="#efefef" stroke="none" points="448.69,-392 448.69,-427.6 752.67,-427.6 752.67,-392 448.69,-392"/>
<polygon fill="none" stroke="black" points="448.69,-392 448.69,-427.6 752.67,-427.6 752.67,-392 448.69,-392"/>
<text text-anchor="start" x="455.69" y="-405.4" font-family="Arial Bold" font-size="18.00">public.question_option</text>
<text text-anchor="start" x="621.18" y="-405.4" font-family="Arial" font-size="14.00">    </text>
<text text-anchor="start" x="652.3" y="-405.4" font-family="Arial" font-size="14.00" fill="#666666">[BASE TABLE]</text>
<polygon fill="none" stroke="black" points="448.69,-361.2 448.69,-392 752.67,-392 752.67,-361.2 448.69,-361.2"/>
<text text-anchor="start" x="455.69" y="-373.4" font-family="Arial" font-size="14.00">question_id </text>
<text text-anchor="start" x="531.2" y="-373.4" font-family="Arial" font-size="14.00" fill="#666666">[bigint]</text>
<polygon fill="none" stroke="black" points="448.69,-330.4 448.69,-361.2 752.67,-361.2 752.67,-330.4 448.69,-330.4"/>
<text text-anchor="start" x="455.69" y="-342.6" font-family="Arial" font-size="14.00">option_id </text>
<text text-anchor="start" x="516.41" y="-342.6" font-family="Arial" font-size="14.00" fill="#666666">[bigint]</text>
</g>
<!-- public.question_option&#45;&gt;public.options -->
<g id="edge2" class="edge">
<title>public.question_option:option_id&#45;&gt;public.options:id</title>
<path fill="none" stroke="black" d="M437.88,-343.08C426.05,-334.23 437.28,-305.74 448.69,-287.2 466.72,-257.92 499.24,-280.54 517.18,-251.2 539.7,-214.34 561.38,-154 518.18,-154"/>
<polygon fill="black" stroke="black" points="437.73,-343.04 446.17,-350.05 442.87,-344.47 447.05,-345.62 447.05,-345.62 447.05,-345.62 442.87,-344.47 448.57,-341.37 437.73,-343.04"/>
<text text-anchor="start" x="454.69" y="-329.8" font-family="Arial" font-size="10.00">FOREIGN KEY (option_id) REFERENCES options(id)</text>
</g>
</g>
</svg>
