<?xml version="1.0" encoding="UTF-8" standalone="no"?>
<!DOCTYPE svg PUBLIC "-//W3C//DTD SVG 1.1//EN"
 "http://www.w3.org/Graphics/SVG/1.1/DTD/svg11.dtd">
<!-- Generated by graphviz version 12.1.2 (20240928.0832)
 -->
<!-- Title: public.share_folders Pages: 1 -->
<svg width="895pt" height="941pt"
 viewBox="0.00 0.00 894.86 940.80" xmlns="http://www.w3.org/2000/svg" xmlns:xlink="http://www.w3.org/1999/xlink">
<g id="graph0" class="graph" transform="scale(1 1) rotate(0) translate(4 936.8)">
<title>public.share_folders</title>
<polygon fill="white" stroke="none" points="-4,4 -4,-936.8 890.86,-936.8 890.86,4 -4,4"/>
<!-- public.share_folders -->
<g id="node1" class="node">
<title>public.share_folders</title>
<polygon fill="#efefef" stroke="none" points="292.87,-851 292.87,-886.6 621.24,-886.6 621.24,-851 292.87,-851"/>
<polygon fill="none" stroke="black" points="292.87,-851 292.87,-886.6 621.24,-886.6 621.24,-851 292.87,-851"/>
<text text-anchor="start" x="321.58" y="-864.4" font-family="Arial Bold" font-size="18.00">public.share_folders</text>
<text text-anchor="start" x="468.03" y="-864.4" font-family="Arial" font-size="14.00">    </text>
<text text-anchor="start" x="499.15" y="-864.4" font-family="Arial" font-size="14.00" fill="#666666">[BASE TABLE]</text>
<polygon fill="none" stroke="black" points="292.87,-820.2 292.87,-851 621.24,-851 621.24,-820.2 292.87,-820.2"/>
<text text-anchor="start" x="299.87" y="-832.4" font-family="Arial" font-size="14.00">id </text>
<text text-anchor="start" x="314.66" y="-832.4" font-family="Arial" font-size="14.00" fill="#666666">[bigint]</text>
<polygon fill="none" stroke="black" points="292.87,-789.4 292.87,-820.2 621.24,-820.2 621.24,-789.4 292.87,-789.4"/>
<text text-anchor="start" x="299.87" y="-801.6" font-family="Arial" font-size="14.00">access_count </text>
<text text-anchor="start" x="389.37" y="-801.6" font-family="Arial" font-size="14.00" fill="#666666">[integer]</text>
<polygon fill="none" stroke="black" points="292.87,-758.6 292.87,-789.4 621.24,-789.4 621.24,-758.6 292.87,-758.6"/>
<text text-anchor="start" x="299.87" y="-770.8" font-family="Arial" font-size="14.00">created_at </text>
<text text-anchor="start" x="369.92" y="-770.8" font-family="Arial" font-size="14.00" fill="#666666">[timestamp(6) without time zone]</text>
<polygon fill="none" stroke="black" points="292.87,-727.8 292.87,-758.6 621.24,-758.6 621.24,-727.8 292.87,-727.8"/>
<text text-anchor="start" x="299.87" y="-740" font-family="Arial" font-size="14.00">expires_at </text>
<text text-anchor="start" x="368.35" y="-740" font-family="Arial" font-size="14.00" fill="#666666">[timestamp(6) without time zone]</text>
<polygon fill="none" stroke="black" points="292.87,-697 292.87,-727.8 621.24,-727.8 621.24,-697 292.87,-697"/>
<text text-anchor="start" x="299.87" y="-709.2" font-family="Arial" font-size="14.00">last_accessed_at </text>
<text text-anchor="start" x="411.94" y="-709.2" font-family="Arial" font-size="14.00" fill="#666666">[timestamp(6) without time zone]</text>
<polygon fill="none" stroke="black" points="292.87,-666.2 292.87,-697 621.24,-697 621.24,-666.2 292.87,-666.2"/>
<text text-anchor="start" x="299.87" y="-678.4" font-family="Arial" font-size="14.00">shared_with_email </text>
<text text-anchor="start" x="420.49" y="-678.4" font-family="Arial" font-size="14.00" fill="#666666">[varchar(255)]</text>
<polygon fill="none" stroke="black" points="292.87,-635.4 292.87,-666.2 621.24,-666.2 621.24,-635.4 292.87,-635.4"/>
<text text-anchor="start" x="299.87" y="-647.6" font-family="Arial" font-size="14.00">token </text>
<text text-anchor="start" x="338.01" y="-647.6" font-family="Arial" font-size="14.00" fill="#666666">[varchar(36)]</text>
<polygon fill="none" stroke="black" points="292.87,-604.6 292.87,-635.4 621.24,-635.4 621.24,-604.6 292.87,-604.6"/>
<text text-anchor="start" x="299.87" y="-616.8" font-family="Arial" font-size="14.00">psb_folder_id </text>
<text text-anchor="start" x="387.82" y="-616.8" font-family="Arial" font-size="14.00" fill="#666666">[bigint]</text>
<polygon fill="none" stroke="black" points="292.87,-573.8 292.87,-604.6 621.24,-604.6 621.24,-573.8 292.87,-573.8"/>
<text text-anchor="start" x="299.87" y="-586" font-family="Arial" font-size="14.00">shared_by_id </text>
<text text-anchor="start" x="387.82" y="-586" font-family="Arial" font-size="14.00" fill="#666666">[bigint]</text>
<polygon fill="none" stroke="black" stroke-width="3" points="291.37,-572.3 291.37,-888.1 622.74,-888.1 622.74,-572.3 291.37,-572.3"/>
</g>
<!-- public.psb_folders -->
<g id="node2" class="node">
<title>public.psb_folders</title>
<polygon fill="#efefef" stroke="none" points="103.93,-382 103.93,-417.6 394.18,-417.6 394.18,-382 103.93,-382"/>
<polygon fill="none" stroke="black" points="103.93,-382 103.93,-417.6 394.18,-417.6 394.18,-382 103.93,-382"/>
<text text-anchor="start" x="120.07" y="-395.4" font-family="Arial Bold" font-size="18.00">public.psb_folders</text>
<text text-anchor="start" x="253.55" y="-395.4" font-family="Arial" font-size="14.00">    </text>
<text text-anchor="start" x="284.67" y="-395.4" font-family="Arial" font-size="14.00" fill="#666666">[BASE TABLE]</text>
<polygon fill="none" stroke="black" points="103.93,-351.2 103.93,-382 394.18,-382 394.18,-351.2 103.93,-351.2"/>
<text text-anchor="start" x="110.93" y="-363.4" font-family="Arial" font-size="14.00">id </text>
<text text-anchor="start" x="125.71" y="-363.4" font-family="Arial" font-size="14.00" fill="#666666">[bigint]</text>
<polygon fill="none" stroke="black" points="103.93,-320.4 103.93,-351.2 394.18,-351.2 394.18,-320.4 103.93,-320.4"/>
<text text-anchor="start" x="110.93" y="-332.6" font-family="Arial" font-size="14.00">color </text>
<text text-anchor="start" x="145.16" y="-332.6" font-family="Arial" font-size="14.00" fill="#666666">[varchar(255)]</text>
<polygon fill="none" stroke="black" points="103.93,-289.6 103.93,-320.4 394.18,-320.4 394.18,-289.6 103.93,-289.6"/>
<text text-anchor="start" x="110.93" y="-301.8" font-family="Arial" font-size="14.00">created_at </text>
<text text-anchor="start" x="180.97" y="-301.8" font-family="Arial" font-size="14.00" fill="#666666">[timestamp(6) without time zone]</text>
<polygon fill="none" stroke="black" points="103.93,-258.8 103.93,-289.6 394.18,-289.6 394.18,-258.8 103.93,-258.8"/>
<text text-anchor="start" x="110.93" y="-271" font-family="Arial" font-size="14.00">description </text>
<text text-anchor="start" x="182.52" y="-271" font-family="Arial" font-size="14.00" fill="#666666">[varchar(1000)]</text>
<polygon fill="none" stroke="black" points="103.93,-228 103.93,-258.8 394.18,-258.8 394.18,-228 103.93,-228"/>
<text text-anchor="start" x="110.93" y="-240.2" font-family="Arial" font-size="14.00">folder_index </text>
<text text-anchor="start" x="191.09" y="-240.2" font-family="Arial" font-size="14.00" fill="#666666">[integer]</text>
<polygon fill="none" stroke="black" points="103.93,-197.2 103.93,-228 394.18,-228 394.18,-197.2 103.93,-197.2"/>
<text text-anchor="start" x="110.93" y="-209.4" font-family="Arial" font-size="14.00">name </text>
<text text-anchor="start" x="149.84" y="-209.4" font-family="Arial" font-size="14.00" fill="#666666">[varchar(255)]</text>
<polygon fill="none" stroke="black" points="103.93,-166.4 103.93,-197.2 394.18,-197.2 394.18,-166.4 103.93,-166.4"/>
<text text-anchor="start" x="110.93" y="-178.6" font-family="Arial" font-size="14.00">server_path </text>
<text text-anchor="start" x="188.75" y="-178.6" font-family="Arial" font-size="14.00" fill="#666666">[varchar(255)]</text>
<polygon fill="none" stroke="black" points="103.93,-135.6 103.93,-166.4 394.18,-166.4 394.18,-135.6 103.93,-135.6"/>
<text text-anchor="start" x="110.93" y="-147.8" font-family="Arial" font-size="14.00">updated_at </text>
<text text-anchor="start" x="184.88" y="-147.8" font-family="Arial" font-size="14.00" fill="#666666">[timestamp(6) without time zone]</text>
<polygon fill="none" stroke="black" points="103.93,-104.8 103.93,-135.6 394.18,-135.6 394.18,-104.8 103.93,-104.8"/>
<text text-anchor="start" x="110.93" y="-117" font-family="Arial" font-size="14.00">created_by </text>
<text text-anchor="start" x="184.08" y="-117" font-family="Arial" font-size="14.00" fill="#666666">[bigint]</text>
<polygon fill="none" stroke="black" points="103.93,-74 103.93,-104.8 394.18,-104.8 394.18,-74 103.93,-74"/>
<text text-anchor="start" x="110.93" y="-86.2" font-family="Arial" font-size="14.00">dam_id </text>
<text text-anchor="start" x="160.73" y="-86.2" font-family="Arial" font-size="14.00" fill="#666666">[bigint]</text>
</g>
<!-- public.share_folders&#45;&gt;public.psb_folders -->
<g id="edge1" class="edge">
<title>public.share_folders:psb_folder_id&#45;&gt;public.psb_folders:id</title>
<path fill="none" stroke="black" d="M281.59,-618.46C255.15,-609.19 275.13,-560.13 292.87,-527.6 318.7,-480.25 368.36,-508.15 394.18,-460.8 414.23,-424.04 437.05,-366.6 395.18,-366.6"/>
<polygon fill="black" stroke="black" points="281.65,-618.47 290.87,-624.4 286.93,-619.26 291.21,-619.9 291.21,-619.9 291.21,-619.9 286.93,-619.26 292.21,-615.5 281.65,-618.47"/>
<text text-anchor="start" x="7" y="-630" font-family="Arial" font-size="10.00">FOREIGN KEY (psb_folder_id) REFERENCES psb_folders(id)</text>
</g>
<!-- public.users -->
<g id="node3" class="node">
<title>public.users</title>
<polygon fill="#efefef" stroke="none" points="498.75,-412.8 498.75,-448.4 833.35,-448.4 833.35,-412.8 498.75,-412.8"/>
<polygon fill="none" stroke="black" points="498.75,-412.8 498.75,-448.4 833.35,-448.4 833.35,-412.8 498.75,-412.8"/>
<text text-anchor="start" x="560.57" y="-426.2" font-family="Arial Bold" font-size="18.00">public.users</text>
<text text-anchor="start" x="647.05" y="-426.2" font-family="Arial" font-size="14.00">    </text>
<text text-anchor="start" x="678.17" y="-426.2" font-family="Arial" font-size="14.00" fill="#666666">[BASE TABLE]</text>
<polygon fill="none" stroke="black" points="498.75,-382 498.75,-412.8 833.35,-412.8 833.35,-382 498.75,-382"/>
<text text-anchor="start" x="505.75" y="-394.2" font-family="Arial" font-size="14.00">id </text>
<text text-anchor="start" x="520.54" y="-394.2" font-family="Arial" font-size="14.00" fill="#666666">[bigint]</text>
<polygon fill="none" stroke="black" points="498.75,-351.2 498.75,-382 833.35,-382 833.35,-351.2 498.75,-351.2"/>
<text text-anchor="start" x="505.75" y="-363.4" font-family="Arial" font-size="14.00">email </text>
<text text-anchor="start" x="543.1" y="-363.4" font-family="Arial" font-size="14.00" fill="#666666">[varchar(255)]</text>
<polygon fill="none" stroke="black" points="498.75,-320.4 498.75,-351.2 833.35,-351.2 833.35,-320.4 498.75,-320.4"/>
<text text-anchor="start" x="505.75" y="-332.6" font-family="Arial" font-size="14.00">is_first_access </text>
<text text-anchor="start" x="601.45" y="-332.6" font-family="Arial" font-size="14.00" fill="#666666">[boolean]</text>
<polygon fill="none" stroke="black" points="498.75,-289.6 498.75,-320.4 833.35,-320.4 833.35,-289.6 498.75,-289.6"/>
<text text-anchor="start" x="505.75" y="-301.8" font-family="Arial" font-size="14.00">last_token </text>
<text text-anchor="start" x="573.46" y="-301.8" font-family="Arial" font-size="14.00" fill="#666666">[text]</text>
<polygon fill="none" stroke="black" points="498.75,-258.8 498.75,-289.6 833.35,-289.6 833.35,-258.8 498.75,-258.8"/>
<text text-anchor="start" x="505.75" y="-271" font-family="Arial" font-size="14.00">name </text>
<text text-anchor="start" x="544.66" y="-271" font-family="Arial" font-size="14.00" fill="#666666">[varchar(255)]</text>
<polygon fill="none" stroke="black" points="498.75,-228 498.75,-258.8 833.35,-258.8 833.35,-228 498.75,-228"/>
<text text-anchor="start" x="505.75" y="-240.2" font-family="Arial" font-size="14.00">password </text>
<text text-anchor="start" x="569.56" y="-240.2" font-family="Arial" font-size="14.00" fill="#666666">[varchar(255)]</text>
<polygon fill="none" stroke="black" points="498.75,-197.2 498.75,-228 833.35,-228 833.35,-197.2 498.75,-197.2"/>
<text text-anchor="start" x="505.75" y="-209.4" font-family="Arial" font-size="14.00">phone </text>
<text text-anchor="start" x="548.57" y="-209.4" font-family="Arial" font-size="14.00" fill="#666666">[varchar(11)]</text>
<polygon fill="none" stroke="black" points="498.75,-166.4 498.75,-197.2 833.35,-197.2 833.35,-166.4 498.75,-166.4"/>
<text text-anchor="start" x="505.75" y="-178.6" font-family="Arial" font-size="14.00">token_expiry_date </text>
<text text-anchor="start" x="624.06" y="-178.6" font-family="Arial" font-size="14.00" fill="#666666">[timestamp(6) without time zone]</text>
<polygon fill="none" stroke="black" points="498.75,-135.6 498.75,-166.4 833.35,-166.4 833.35,-135.6 498.75,-135.6"/>
<text text-anchor="start" x="505.75" y="-147.8" font-family="Arial" font-size="14.00">created_by_id </text>
<text text-anchor="start" x="597.59" y="-147.8" font-family="Arial" font-size="14.00" fill="#666666">[bigint]</text>
<polygon fill="none" stroke="black" points="498.75,-104.8 498.75,-135.6 833.35,-135.6 833.35,-104.8 498.75,-104.8"/>
<text text-anchor="start" x="505.75" y="-117" font-family="Arial" font-size="14.00">role_id </text>
<text text-anchor="start" x="551.67" y="-117" font-family="Arial" font-size="14.00" fill="#666666">[bigint]</text>
<polygon fill="none" stroke="black" points="498.75,-74 498.75,-104.8 833.35,-104.8 833.35,-74 498.75,-74"/>
<text text-anchor="start" x="505.75" y="-86.2" font-family="Arial" font-size="14.00">sex_id </text>
<text text-anchor="start" x="550.11" y="-86.2" font-family="Arial" font-size="14.00" fill="#666666">[bigint]</text>
<polygon fill="none" stroke="black" points="498.75,-43.2 498.75,-74 833.35,-74 833.35,-43.2 498.75,-43.2"/>
<text text-anchor="start" x="505.75" y="-55.4" font-family="Arial" font-size="14.00">status_id </text>
<text text-anchor="start" x="565.68" y="-55.4" font-family="Arial" font-size="14.00" fill="#666666">[bigint]</text>
</g>
<!-- public.share_folders&#45;&gt;public.users -->
<g id="edge2" class="edge">
<title>public.share_folders:shared_by_id&#45;&gt;public.users:id</title>
<path fill="none" stroke="black" d="M631.95,-586.76C646.01,-577.78 635.36,-546.15 621.24,-527.6 586.87,-482.45 532.99,-536.85 498.75,-491.6 473.49,-458.21 455.88,-397.4 497.75,-397.4"/>
<polygon fill="black" stroke="black" points="632.26,-586.68 621.46,-584.75 627.08,-587.98 622.88,-589.04 622.88,-589.04 622.88,-589.04 627.08,-587.98 623.66,-593.48 632.26,-586.68"/>
<text text-anchor="start" x="629.24" y="-599.2" font-family="Arial" font-size="10.00">FOREIGN KEY (shared_by_id) REFERENCES users(id)</text>
</g>
</g>
</svg>
