<?xml version="1.0" encoding="UTF-8" standalone="no"?>
<!DOCTYPE svg PUBLIC "-//W3C//DTD SVG 1.1//EN"
 "http://www.w3.org/Graphics/SVG/1.1/DTD/svg11.dtd">
<!-- Generated by graphviz version 12.1.2 (20240928.0832)
 -->
<!-- Title: public.routine_inspection_permissions Pages: 1 -->
<svg width="517pt" height="787pt"
 viewBox="0.00 0.00 517.35 786.80" xmlns="http://www.w3.org/2000/svg" xmlns:xlink="http://www.w3.org/1999/xlink">
<g id="graph0" class="graph" transform="scale(1 1) rotate(0) translate(4 782.8)">
<title>public.routine_inspection_permissions</title>
<polygon fill="white" stroke="none" points="-4,4 -4,-782.8 513.35,-782.8 513.35,4 -4,4"/>
<!-- public.routine_inspection_permissions -->
<g id="node1" class="node">
<title>public.routine_inspection_permissions</title>
<polygon fill="#efefef" stroke="none" points="46.2,-697 46.2,-732.6 463.15,-732.6 463.15,-697 46.2,-697"/>
<polygon fill="none" stroke="black" points="46.2,-697 46.2,-732.6 463.15,-732.6 463.15,-697 46.2,-697"/>
<text text-anchor="start" x="53.2" y="-710.4" font-family="Arial Bold" font-size="18.00">public.routine_inspection_permissions</text>
<text text-anchor="start" x="331.66" y="-710.4" font-family="Arial" font-size="14.00">    </text>
<text text-anchor="start" x="362.78" y="-710.4" font-family="Arial" font-size="14.00" fill="#666666">[BASE TABLE]</text>
<polygon fill="none" stroke="black" points="46.2,-666.2 46.2,-697 463.15,-697 463.15,-666.2 46.2,-666.2"/>
<text text-anchor="start" x="53.2" y="-678.4" font-family="Arial" font-size="14.00">id </text>
<text text-anchor="start" x="67.99" y="-678.4" font-family="Arial" font-size="14.00" fill="#666666">[bigint]</text>
<polygon fill="none" stroke="black" points="46.2,-635.4 46.2,-666.2 463.15,-666.2 463.15,-635.4 46.2,-635.4"/>
<text text-anchor="start" x="53.2" y="-647.6" font-family="Arial" font-size="14.00">is_fill_mobile </text>
<text text-anchor="start" x="137.23" y="-647.6" font-family="Arial" font-size="14.00" fill="#666666">[boolean]</text>
<polygon fill="none" stroke="black" points="46.2,-604.6 46.2,-635.4 463.15,-635.4 463.15,-604.6 46.2,-604.6"/>
<text text-anchor="start" x="53.2" y="-616.8" font-family="Arial" font-size="14.00">is_fill_web </text>
<text text-anchor="start" x="121.68" y="-616.8" font-family="Arial" font-size="14.00" fill="#666666">[boolean]</text>
<polygon fill="none" stroke="black" points="46.2,-573.8 46.2,-604.6 463.15,-604.6 463.15,-573.8 46.2,-573.8"/>
<text text-anchor="start" x="53.2" y="-586" font-family="Arial" font-size="14.00">user_id </text>
<text text-anchor="start" x="103.01" y="-586" font-family="Arial" font-size="14.00" fill="#666666">[bigint]</text>
<polygon fill="none" stroke="black" stroke-width="3" points="44.7,-572.3 44.7,-734.1 464.65,-734.1 464.65,-572.3 44.7,-572.3"/>
</g>
<!-- public.users -->
<g id="node2" class="node">
<title>public.users</title>
<polygon fill="#efefef" stroke="none" points="87.38,-412.8 87.38,-448.4 421.98,-448.4 421.98,-412.8 87.38,-412.8"/>
<polygon fill="none" stroke="black" points="87.38,-412.8 87.38,-448.4 421.98,-448.4 421.98,-412.8 87.38,-412.8"/>
<text text-anchor="start" x="149.19" y="-426.2" font-family="Arial Bold" font-size="18.00">public.users</text>
<text text-anchor="start" x="235.67" y="-426.2" font-family="Arial" font-size="14.00">    </text>
<text text-anchor="start" x="266.79" y="-426.2" font-family="Arial" font-size="14.00" fill="#666666">[BASE TABLE]</text>
<polygon fill="none" stroke="black" points="87.38,-382 87.38,-412.8 421.98,-412.8 421.98,-382 87.38,-382"/>
<text text-anchor="start" x="94.38" y="-394.2" font-family="Arial" font-size="14.00">id </text>
<text text-anchor="start" x="109.16" y="-394.2" font-family="Arial" font-size="14.00" fill="#666666">[bigint]</text>
<polygon fill="none" stroke="black" points="87.38,-351.2 87.38,-382 421.98,-382 421.98,-351.2 87.38,-351.2"/>
<text text-anchor="start" x="94.38" y="-363.4" font-family="Arial" font-size="14.00">email </text>
<text text-anchor="start" x="131.72" y="-363.4" font-family="Arial" font-size="14.00" fill="#666666">[varchar(255)]</text>
<polygon fill="none" stroke="black" points="87.38,-320.4 87.38,-351.2 421.98,-351.2 421.98,-320.4 87.38,-320.4"/>
<text text-anchor="start" x="94.38" y="-332.6" font-family="Arial" font-size="14.00">is_first_access </text>
<text text-anchor="start" x="190.07" y="-332.6" font-family="Arial" font-size="14.00" fill="#666666">[boolean]</text>
<polygon fill="none" stroke="black" points="87.38,-289.6 87.38,-320.4 421.98,-320.4 421.98,-289.6 87.38,-289.6"/>
<text text-anchor="start" x="94.38" y="-301.8" font-family="Arial" font-size="14.00">last_token </text>
<text text-anchor="start" x="162.09" y="-301.8" font-family="Arial" font-size="14.00" fill="#666666">[text]</text>
<polygon fill="none" stroke="black" points="87.38,-258.8 87.38,-289.6 421.98,-289.6 421.98,-258.8 87.38,-258.8"/>
<text text-anchor="start" x="94.38" y="-271" font-family="Arial" font-size="14.00">name </text>
<text text-anchor="start" x="133.29" y="-271" font-family="Arial" font-size="14.00" fill="#666666">[varchar(255)]</text>
<polygon fill="none" stroke="black" points="87.38,-228 87.38,-258.8 421.98,-258.8 421.98,-228 87.38,-228"/>
<text text-anchor="start" x="94.38" y="-240.2" font-family="Arial" font-size="14.00">password </text>
<text text-anchor="start" x="158.18" y="-240.2" font-family="Arial" font-size="14.00" fill="#666666">[varchar(255)]</text>
<polygon fill="none" stroke="black" points="87.38,-197.2 87.38,-228 421.98,-228 421.98,-197.2 87.38,-197.2"/>
<text text-anchor="start" x="94.38" y="-209.4" font-family="Arial" font-size="14.00">phone </text>
<text text-anchor="start" x="137.2" y="-209.4" font-family="Arial" font-size="14.00" fill="#666666">[varchar(11)]</text>
<polygon fill="none" stroke="black" points="87.38,-166.4 87.38,-197.2 421.98,-197.2 421.98,-166.4 87.38,-166.4"/>
<text text-anchor="start" x="94.38" y="-178.6" font-family="Arial" font-size="14.00">token_expiry_date </text>
<text text-anchor="start" x="212.68" y="-178.6" font-family="Arial" font-size="14.00" fill="#666666">[timestamp(6) without time zone]</text>
<polygon fill="none" stroke="black" points="87.38,-135.6 87.38,-166.4 421.98,-166.4 421.98,-135.6 87.38,-135.6"/>
<text text-anchor="start" x="94.38" y="-147.8" font-family="Arial" font-size="14.00">created_by_id </text>
<text text-anchor="start" x="186.22" y="-147.8" font-family="Arial" font-size="14.00" fill="#666666">[bigint]</text>
<polygon fill="none" stroke="black" points="87.38,-104.8 87.38,-135.6 421.98,-135.6 421.98,-104.8 87.38,-104.8"/>
<text text-anchor="start" x="94.38" y="-117" font-family="Arial" font-size="14.00">role_id </text>
<text text-anchor="start" x="140.29" y="-117" font-family="Arial" font-size="14.00" fill="#666666">[bigint]</text>
<polygon fill="none" stroke="black" points="87.38,-74 87.38,-104.8 421.98,-104.8 421.98,-74 87.38,-74"/>
<text text-anchor="start" x="94.38" y="-86.2" font-family="Arial" font-size="14.00">sex_id </text>
<text text-anchor="start" x="138.74" y="-86.2" font-family="Arial" font-size="14.00" fill="#666666">[bigint]</text>
<polygon fill="none" stroke="black" points="87.38,-43.2 87.38,-74 421.98,-74 421.98,-43.2 87.38,-43.2"/>
<text text-anchor="start" x="94.38" y="-55.4" font-family="Arial" font-size="14.00">status_id </text>
<text text-anchor="start" x="154.3" y="-55.4" font-family="Arial" font-size="14.00" fill="#666666">[bigint]</text>
</g>
<!-- public.routine_inspection_permissions&#45;&gt;public.users -->
<g id="edge1" class="edge">
<title>public.routine_inspection_permissions:user_id&#45;&gt;public.users:id</title>
<path fill="none" stroke="black" d="M255.4,-562.57C265.57,-496.27 379.73,-558.28 421.98,-491.6 444.39,-456.23 464.84,-397.4 422.98,-397.4"/>
<polygon fill="black" stroke="black" points="255.41,-562.49 250.21,-572.15 255.03,-567.81 254.72,-572.13 254.72,-572.13 254.72,-572.13 255.03,-567.81 259.19,-572.79 255.41,-562.49"/>
<text text-anchor="start" x="142.99" y="-556.8" font-family="Arial" font-size="10.00">FOREIGN KEY (user_id) REFERENCES users(id)</text>
</g>
</g>
</svg>
