<?xml version="1.0" encoding="UTF-8" standalone="no"?>
<!DOCTYPE svg PUBLIC "-//W3C//DTD SVG 1.1//EN"
 "http://www.w3.org/Graphics/SVG/1.1/DTD/svg11.dtd">
<!-- Generated by graphviz version 12.1.2 (20240928.0832)
 -->
<!-- Title: public.reading_input_value_mapping Pages: 1 -->
<svg width="1013pt" height="664pt"
 viewBox="0.00 0.00 1012.82 663.60" xmlns="http://www.w3.org/2000/svg" xmlns:xlink="http://www.w3.org/1999/xlink">
<g id="graph0" class="graph" transform="scale(1 1) rotate(0) translate(4 659.6)">
<title>public.reading_input_value_mapping</title>
<polygon fill="white" stroke="none" points="-4,4 -4,-659.6 1008.82,-659.6 1008.82,4 -4,4"/>
<!-- public.reading_input_value_mapping -->
<g id="node1" class="node">
<title>public.reading_input_value_mapping</title>
<polygon fill="#efefef" stroke="none" points="261.19,-573.8 261.19,-609.4 669.12,-609.4 669.12,-573.8 261.19,-573.8"/>
<polygon fill="none" stroke="black" points="261.19,-573.8 261.19,-609.4 669.12,-609.4 669.12,-573.8 261.19,-573.8"/>
<text text-anchor="start" x="268.19" y="-587.2" font-family="Arial Bold" font-size="18.00">public.reading_input_value_mapping</text>
<text text-anchor="start" x="537.63" y="-587.2" font-family="Arial" font-size="14.00">    </text>
<text text-anchor="start" x="568.75" y="-587.2" font-family="Arial" font-size="14.00" fill="#666666">[BASE TABLE]</text>
<polygon fill="none" stroke="black" points="261.19,-543 261.19,-573.8 669.12,-573.8 669.12,-543 261.19,-543"/>
<text text-anchor="start" x="268.19" y="-555.2" font-family="Arial" font-size="14.00">reading_id </text>
<text text-anchor="start" x="337.47" y="-555.2" font-family="Arial" font-size="14.00" fill="#666666">[bigint]</text>
<polygon fill="none" stroke="black" points="261.19,-512.2 261.19,-543 669.12,-543 669.12,-512.2 261.19,-512.2"/>
<text text-anchor="start" x="268.19" y="-524.4" font-family="Arial" font-size="14.00">input_value_id </text>
<text text-anchor="start" x="362.38" y="-524.4" font-family="Arial" font-size="14.00" fill="#666666">[bigint]</text>
<polygon fill="none" stroke="black" stroke-width="3" points="259.69,-510.7 259.69,-610.9 670.62,-610.9 670.62,-510.7 259.69,-510.7"/>
</g>
<!-- public.reading -->
<g id="node2" class="node">
<title>public.reading</title>
<polygon fill="#efefef" stroke="none" points="148.18,-351.2 148.18,-386.8 390.13,-386.8 390.13,-351.2 148.18,-351.2"/>
<polygon fill="none" stroke="black" points="148.18,-351.2 148.18,-386.8 390.13,-386.8 390.13,-351.2 148.18,-351.2"/>
<text text-anchor="start" x="155.18" y="-364.6" font-family="Arial Bold" font-size="18.00">public.reading</text>
<text text-anchor="start" x="258.64" y="-364.6" font-family="Arial" font-size="14.00">    </text>
<text text-anchor="start" x="289.76" y="-364.6" font-family="Arial" font-size="14.00" fill="#666666">[BASE TABLE]</text>
<polygon fill="none" stroke="black" points="148.18,-320.4 148.18,-351.2 390.13,-351.2 390.13,-320.4 148.18,-320.4"/>
<text text-anchor="start" x="155.18" y="-332.6" font-family="Arial" font-size="14.00">id </text>
<text text-anchor="start" x="169.96" y="-332.6" font-family="Arial" font-size="14.00" fill="#666666">[bigint]</text>
<polygon fill="none" stroke="black" points="148.18,-289.6 148.18,-320.4 390.13,-320.4 390.13,-289.6 148.18,-289.6"/>
<text text-anchor="start" x="155.18" y="-301.8" font-family="Arial" font-size="14.00">active </text>
<text text-anchor="start" x="195.64" y="-301.8" font-family="Arial" font-size="14.00" fill="#666666">[boolean]</text>
<polygon fill="none" stroke="black" points="148.18,-258.8 148.18,-289.6 390.13,-289.6 390.13,-258.8 148.18,-258.8"/>
<text text-anchor="start" x="155.18" y="-271" font-family="Arial" font-size="14.00">calculated_value </text>
<text text-anchor="start" x="263.36" y="-271" font-family="Arial" font-size="14.00" fill="#666666">[double precision]</text>
<polygon fill="none" stroke="black" points="148.18,-228 148.18,-258.8 390.13,-258.8 390.13,-228 148.18,-228"/>
<text text-anchor="start" x="155.18" y="-240.2" font-family="Arial" font-size="14.00">comment </text>
<text text-anchor="start" x="216.64" y="-240.2" font-family="Arial" font-size="14.00" fill="#666666">[text]</text>
<polygon fill="none" stroke="black" points="148.18,-197.2 148.18,-228 390.13,-228 390.13,-197.2 148.18,-197.2"/>
<text text-anchor="start" x="155.18" y="-209.4" font-family="Arial" font-size="14.00">date </text>
<text text-anchor="start" x="186.32" y="-209.4" font-family="Arial" font-size="14.00" fill="#666666">[date]</text>
<polygon fill="none" stroke="black" points="148.18,-166.4 148.18,-197.2 390.13,-197.2 390.13,-166.4 148.18,-166.4"/>
<text text-anchor="start" x="155.18" y="-178.6" font-family="Arial" font-size="14.00">hour </text>
<text text-anchor="start" x="187.09" y="-178.6" font-family="Arial" font-size="14.00" fill="#666666">[time(6) without time zone]</text>
<polygon fill="none" stroke="black" points="148.18,-135.6 148.18,-166.4 390.13,-166.4 390.13,-135.6 148.18,-135.6"/>
<text text-anchor="start" x="155.18" y="-147.8" font-family="Arial" font-size="14.00">limit_status </text>
<text text-anchor="start" x="229.09" y="-147.8" font-family="Arial" font-size="14.00" fill="#666666">[varchar(255)]</text>
<polygon fill="none" stroke="black" points="148.18,-104.8 148.18,-135.6 390.13,-135.6 390.13,-104.8 148.18,-104.8"/>
<text text-anchor="start" x="155.18" y="-117" font-family="Arial" font-size="14.00">instrument_id </text>
<text text-anchor="start" x="243.11" y="-117" font-family="Arial" font-size="14.00" fill="#666666">[bigint]</text>
<polygon fill="none" stroke="black" points="148.18,-74 148.18,-104.8 390.13,-104.8 390.13,-74 148.18,-74"/>
<text text-anchor="start" x="155.18" y="-86.2" font-family="Arial" font-size="14.00">output_id </text>
<text text-anchor="start" x="216.67" y="-86.2" font-family="Arial" font-size="14.00" fill="#666666">[bigint]</text>
<polygon fill="none" stroke="black" points="148.18,-43.2 148.18,-74 390.13,-74 390.13,-43.2 148.18,-43.2"/>
<text text-anchor="start" x="155.18" y="-55.4" font-family="Arial" font-size="14.00">user_id </text>
<text text-anchor="start" x="204.98" y="-55.4" font-family="Arial" font-size="14.00" fill="#666666">[bigint]</text>
</g>
<!-- public.reading_input_value_mapping&#45;&gt;public.reading -->
<g id="edge1" class="edge">
<title>public.reading_input_value_mapping:reading_id&#45;&gt;public.reading:id</title>
<path fill="none" stroke="black" d="M250.13,-556.89C222.39,-547.42 238.53,-495.52 261.19,-466 297.42,-418.8 353.91,-477.2 390.13,-430 415.62,-396.78 433,-335.8 391.13,-335.8"/>
<polygon fill="black" stroke="black" points="249.97,-556.87 259.19,-562.8 255.25,-557.66 259.53,-558.3 259.53,-558.3 259.53,-558.3 255.25,-557.66 260.53,-553.9 249.97,-556.87"/>
<text text-anchor="start" x="7" y="-568.4" font-family="Arial" font-size="10.00">FOREIGN KEY (reading_id) REFERENCES reading(id)</text>
</g>
<!-- public.reading_input_value -->
<g id="node3" class="node">
<title>public.reading_input_value</title>
<polygon fill="#efefef" stroke="none" points="494.19,-258.8 494.19,-294.4 830.12,-294.4 830.12,-258.8 494.19,-258.8"/>
<polygon fill="none" stroke="black" points="494.19,-258.8 494.19,-294.4 830.12,-294.4 830.12,-258.8 494.19,-258.8"/>
<text text-anchor="start" x="501.19" y="-272.2" font-family="Arial Bold" font-size="18.00">public.reading_input_value</text>
<text text-anchor="start" x="698.63" y="-272.2" font-family="Arial" font-size="14.00">    </text>
<text text-anchor="start" x="729.75" y="-272.2" font-family="Arial" font-size="14.00" fill="#666666">[BASE TABLE]</text>
<polygon fill="none" stroke="black" points="494.19,-228 494.19,-258.8 830.12,-258.8 830.12,-228 494.19,-228"/>
<text text-anchor="start" x="501.19" y="-240.2" font-family="Arial" font-size="14.00">id </text>
<text text-anchor="start" x="515.97" y="-240.2" font-family="Arial" font-size="14.00" fill="#666666">[bigint]</text>
<polygon fill="none" stroke="black" points="494.19,-197.2 494.19,-228 830.12,-228 830.12,-197.2 494.19,-197.2"/>
<text text-anchor="start" x="501.19" y="-209.4" font-family="Arial" font-size="14.00">input_acronym </text>
<text text-anchor="start" x="596.9" y="-209.4" font-family="Arial" font-size="14.00" fill="#666666">[varchar(255)]</text>
<polygon fill="none" stroke="black" points="494.19,-166.4 494.19,-197.2 830.12,-197.2 830.12,-166.4 494.19,-166.4"/>
<text text-anchor="start" x="501.19" y="-178.6" font-family="Arial" font-size="14.00">input_name </text>
<text text-anchor="start" x="578.24" y="-178.6" font-family="Arial" font-size="14.00" fill="#666666">[varchar(255)]</text>
<polygon fill="none" stroke="black" points="494.19,-135.6 494.19,-166.4 830.12,-166.4 830.12,-135.6 494.19,-135.6"/>
<text text-anchor="start" x="501.19" y="-147.8" font-family="Arial" font-size="14.00">value </text>
<text text-anchor="start" x="538.55" y="-147.8" font-family="Arial" font-size="14.00" fill="#666666">[double precision]</text>
</g>
<!-- public.reading_input_value_mapping&#45;&gt;public.reading_input_value -->
<g id="edge2" class="edge">
<title>public.reading_input_value_mapping:input_value_id&#45;&gt;public.reading_input_value:id</title>
<path fill="none" stroke="black" d="M679.97,-525.06C692.64,-516.27 679.72,-486.53 669.12,-466 624.85,-380.32 538.22,-423.41 494.19,-337.6 475.07,-300.35 451.32,-243.4 493.19,-243.4"/>
<polygon fill="black" stroke="black" points="680.13,-525.02 669.32,-523.16 674.96,-526.35 670.77,-527.43 670.77,-527.43 670.77,-527.43 674.96,-526.35 671.57,-531.87 680.13,-525.02"/>
<text text-anchor="start" x="677.12" y="-537.6" font-family="Arial" font-size="10.00">FOREIGN KEY (input_value_id) REFERENCES reading_input_value(id)</text>
</g>
</g>
</svg>
