<?xml version="1.0" encoding="UTF-8" standalone="no"?>
<!DOCTYPE svg PUBLIC "-//W3C//DTD SVG 1.1//EN"
 "http://www.w3.org/Graphics/SVG/1.1/DTD/svg11.dtd">
<!-- Generated by graphviz version 12.1.2 (20240928.0832)
 -->
<!-- Title: public.checklist_dam Pages: 1 -->
<svg width="809pt" height="848pt"
 viewBox="0.00 0.00 809.49 848.40" xmlns="http://www.w3.org/2000/svg" xmlns:xlink="http://www.w3.org/1999/xlink">
<g id="graph0" class="graph" transform="scale(1 1) rotate(0) translate(4 844.4)">
<title>public.checklist_dam</title>
<polygon fill="white" stroke="none" points="-4,4 -4,-844.4 805.49,-844.4 805.49,4 -4,4"/>
<!-- public.checklist_dam -->
<g id="node1" class="node">
<title>public.checklist_dam</title>
<polygon fill="#efefef" stroke="none" points="276.16,-758.6 276.16,-794.2 568.11,-794.2 568.11,-758.6 276.16,-758.6"/>
<polygon fill="none" stroke="black" points="276.16,-758.6 276.16,-794.2 568.11,-794.2 568.11,-758.6 276.16,-758.6"/>
<text text-anchor="start" x="283.16" y="-772" font-family="Arial Bold" font-size="18.00">public.checklist_dam</text>
<text text-anchor="start" x="436.62" y="-772" font-family="Arial" font-size="14.00">    </text>
<text text-anchor="start" x="467.74" y="-772" font-family="Arial" font-size="14.00" fill="#666666">[BASE TABLE]</text>
<polygon fill="none" stroke="black" points="276.16,-727.8 276.16,-758.6 568.11,-758.6 568.11,-727.8 276.16,-727.8"/>
<text text-anchor="start" x="283.16" y="-740" font-family="Arial" font-size="14.00">checklist_id </text>
<text text-anchor="start" x="359.42" y="-740" font-family="Arial" font-size="14.00" fill="#666666">[bigint]</text>
<polygon fill="none" stroke="black" points="276.16,-697 276.16,-727.8 568.11,-727.8 568.11,-697 276.16,-697"/>
<text text-anchor="start" x="283.16" y="-709.2" font-family="Arial" font-size="14.00">dam_id </text>
<text text-anchor="start" x="332.97" y="-709.2" font-family="Arial" font-size="14.00" fill="#666666">[bigint]</text>
<polygon fill="none" stroke="black" stroke-width="3" points="274.66,-695.5 274.66,-795.7 569.61,-795.7 569.61,-695.5 274.66,-695.5"/>
</g>
<!-- public.checklists -->
<g id="node2" class="node">
<title>public.checklists</title>
<polygon fill="#efefef" stroke="none" points="100.96,-335.8 100.96,-371.4 387.31,-371.4 387.31,-335.8 100.96,-335.8"/>
<polygon fill="none" stroke="black" points="100.96,-335.8 100.96,-371.4 387.31,-371.4 387.31,-335.8 100.96,-335.8"/>
<text text-anchor="start" x="121.65" y="-349.2" font-family="Arial Bold" font-size="18.00">public.checklists</text>
<text text-anchor="start" x="242.13" y="-349.2" font-family="Arial" font-size="14.00">    </text>
<text text-anchor="start" x="273.24" y="-349.2" font-family="Arial" font-size="14.00" fill="#666666">[BASE TABLE]</text>
<polygon fill="none" stroke="black" points="100.96,-305 100.96,-335.8 387.31,-335.8 387.31,-305 100.96,-305"/>
<text text-anchor="start" x="107.96" y="-317.2" font-family="Arial" font-size="14.00">id </text>
<text text-anchor="start" x="122.75" y="-317.2" font-family="Arial" font-size="14.00" fill="#666666">[bigint]</text>
<polygon fill="none" stroke="black" points="100.96,-274.2 100.96,-305 387.31,-305 387.31,-274.2 100.96,-274.2"/>
<text text-anchor="start" x="107.96" y="-286.4" font-family="Arial" font-size="14.00">created_at </text>
<text text-anchor="start" x="178.01" y="-286.4" font-family="Arial" font-size="14.00" fill="#666666">[timestamp(6) without time zone]</text>
<polygon fill="none" stroke="black" points="100.96,-243.4 100.96,-274.2 387.31,-274.2 387.31,-243.4 100.96,-243.4"/>
<text text-anchor="start" x="107.96" y="-255.6" font-family="Arial" font-size="14.00">name </text>
<text text-anchor="start" x="146.87" y="-255.6" font-family="Arial" font-size="14.00" fill="#666666">[varchar(255)]</text>
</g>
<!-- public.checklist_dam&#45;&gt;public.checklists -->
<g id="edge1" class="edge">
<title>public.checklist_dam:checklist_id&#45;&gt;public.checklists:id</title>
<path fill="none" stroke="black" d="M265.04,-742.77C99.03,-727.66 579.22,-320.4 388.31,-320.4"/>
<polygon fill="black" stroke="black" points="264.84,-742.76 274.64,-747.68 270.17,-742.99 274.49,-743.17 274.49,-743.17 274.49,-743.17 270.17,-742.99 275.02,-738.69 264.84,-742.76"/>
<text text-anchor="start" x="7" y="-753.2" font-family="Arial" font-size="10.00">FOREIGN KEY (checklist_id) REFERENCES checklists(id)</text>
</g>
<!-- public.dam -->
<g id="node3" class="node">
<title>public.dam</title>
<polygon fill="#efefef" stroke="none" points="491.65,-536 491.65,-571.6 710.62,-571.6 710.62,-536 491.65,-536"/>
<polygon fill="none" stroke="black" points="491.65,-536 491.65,-571.6 710.62,-571.6 710.62,-536 491.65,-536"/>
<text text-anchor="start" x="498.65" y="-549.4" font-family="Arial Bold" font-size="18.00">public.dam</text>
<text text-anchor="start" x="579.13" y="-549.4" font-family="Arial" font-size="14.00">    </text>
<text text-anchor="start" x="610.25" y="-549.4" font-family="Arial" font-size="14.00" fill="#666666">[BASE TABLE]</text>
<polygon fill="none" stroke="black" points="491.65,-505.2 491.65,-536 710.62,-536 710.62,-505.2 491.65,-505.2"/>
<text text-anchor="start" x="498.65" y="-517.4" font-family="Arial" font-size="14.00">id </text>
<text text-anchor="start" x="513.44" y="-517.4" font-family="Arial" font-size="14.00" fill="#666666">[bigint]</text>
<polygon fill="none" stroke="black" points="491.65,-474.4 491.65,-505.2 710.62,-505.2 710.62,-474.4 491.65,-474.4"/>
<text text-anchor="start" x="498.65" y="-486.6" font-family="Arial" font-size="14.00">city </text>
<text text-anchor="start" x="523.54" y="-486.6" font-family="Arial" font-size="14.00" fill="#666666">[varchar(100)]</text>
<polygon fill="none" stroke="black" points="491.65,-443.6 491.65,-474.4 710.62,-474.4 710.62,-443.6 491.65,-443.6"/>
<text text-anchor="start" x="498.65" y="-455.8" font-family="Arial" font-size="14.00">dam_image_path </text>
<text text-anchor="start" x="610.73" y="-455.8" font-family="Arial" font-size="14.00" fill="#666666">[varchar(255)]</text>
<polygon fill="none" stroke="black" points="491.65,-412.8 491.65,-443.6 710.62,-443.6 710.62,-412.8 491.65,-412.8"/>
<text text-anchor="start" x="498.65" y="-425" font-family="Arial" font-size="14.00">latitude </text>
<text text-anchor="start" x="547.68" y="-425" font-family="Arial" font-size="14.00" fill="#666666">[double precision]</text>
<polygon fill="none" stroke="black" points="491.65,-382 491.65,-412.8 710.62,-412.8 710.62,-382 491.65,-382"/>
<text text-anchor="start" x="498.65" y="-394.2" font-family="Arial" font-size="14.00">link_legislation </text>
<text text-anchor="start" x="593.59" y="-394.2" font-family="Arial" font-size="14.00" fill="#666666">[varchar(255)]</text>
<polygon fill="none" stroke="black" points="491.65,-351.2 491.65,-382 710.62,-382 710.62,-351.2 491.65,-351.2"/>
<text text-anchor="start" x="498.65" y="-363.4" font-family="Arial" font-size="14.00">linkpsb </text>
<text text-anchor="start" x="546.12" y="-363.4" font-family="Arial" font-size="14.00" fill="#666666">[varchar(255)]</text>
<polygon fill="none" stroke="black" points="491.65,-320.4 491.65,-351.2 710.62,-351.2 710.62,-320.4 491.65,-320.4"/>
<text text-anchor="start" x="498.65" y="-332.6" font-family="Arial" font-size="14.00">logo_path </text>
<text text-anchor="start" x="564.04" y="-332.6" font-family="Arial" font-size="14.00" fill="#666666">[varchar(255)]</text>
<polygon fill="none" stroke="black" points="491.65,-289.6 491.65,-320.4 710.62,-320.4 710.62,-289.6 491.65,-289.6"/>
<text text-anchor="start" x="498.65" y="-301.8" font-family="Arial" font-size="14.00">longitude </text>
<text text-anchor="start" x="559.37" y="-301.8" font-family="Arial" font-size="14.00" fill="#666666">[double precision]</text>
<polygon fill="none" stroke="black" points="491.65,-258.8 491.65,-289.6 710.62,-289.6 710.62,-258.8 491.65,-258.8"/>
<text text-anchor="start" x="498.65" y="-271" font-family="Arial" font-size="14.00">name </text>
<text text-anchor="start" x="537.56" y="-271" font-family="Arial" font-size="14.00" fill="#666666">[varchar(255)]</text>
<polygon fill="none" stroke="black" points="491.65,-228 491.65,-258.8 710.62,-258.8 710.62,-228 491.65,-228"/>
<text text-anchor="start" x="498.65" y="-240.2" font-family="Arial" font-size="14.00">neighborhood </text>
<text text-anchor="start" x="588.17" y="-240.2" font-family="Arial" font-size="14.00" fill="#666666">[varchar(100)]</text>
<polygon fill="none" stroke="black" points="491.65,-197.2 491.65,-228 710.62,-228 710.62,-197.2 491.65,-197.2"/>
<text text-anchor="start" x="498.65" y="-209.4" font-family="Arial" font-size="14.00">number_address </text>
<text text-anchor="start" x="607.6" y="-209.4" font-family="Arial" font-size="14.00" fill="#666666">[varchar(10)]</text>
<polygon fill="none" stroke="black" points="491.65,-166.4 491.65,-197.2 710.62,-197.2 710.62,-166.4 491.65,-166.4"/>
<text text-anchor="start" x="498.65" y="-178.6" font-family="Arial" font-size="14.00">state </text>
<text text-anchor="start" x="532.89" y="-178.6" font-family="Arial" font-size="14.00" fill="#666666">[varchar(100)]</text>
<polygon fill="none" stroke="black" points="491.65,-135.6 491.65,-166.4 710.62,-166.4 710.62,-135.6 491.65,-135.6"/>
<text text-anchor="start" x="498.65" y="-147.8" font-family="Arial" font-size="14.00">street </text>
<text text-anchor="start" x="537.55" y="-147.8" font-family="Arial" font-size="14.00" fill="#666666">[varchar(255)]</text>
<polygon fill="none" stroke="black" points="491.65,-104.8 491.65,-135.6 710.62,-135.6 710.62,-104.8 491.65,-104.8"/>
<text text-anchor="start" x="498.65" y="-117" font-family="Arial" font-size="14.00">zip_code </text>
<text text-anchor="start" x="558.58" y="-117" font-family="Arial" font-size="14.00" fill="#666666">[varchar(9)]</text>
<polygon fill="none" stroke="black" points="491.65,-74 491.65,-104.8 710.62,-104.8 710.62,-74 491.65,-74"/>
<text text-anchor="start" x="498.65" y="-86.2" font-family="Arial" font-size="14.00">client_id </text>
<text text-anchor="start" x="553.9" y="-86.2" font-family="Arial" font-size="14.00" fill="#666666">[bigint]</text>
<polygon fill="none" stroke="black" points="491.65,-43.2 491.65,-74 710.62,-74 710.62,-43.2 491.65,-43.2"/>
<text text-anchor="start" x="498.65" y="-55.4" font-family="Arial" font-size="14.00">status_id </text>
<text text-anchor="start" x="558.57" y="-55.4" font-family="Arial" font-size="14.00" fill="#666666">[bigint]</text>
</g>
<!-- public.checklist_dam&#45;&gt;public.dam -->
<g id="edge2" class="edge">
<title>public.checklist_dam:dam_id&#45;&gt;public.dam:id</title>
<path fill="none" stroke="black" d="M579.1,-709.78C592.23,-700.72 580.64,-670.21 568.11,-650.8 547.73,-619.25 511.94,-646.41 491.65,-614.8 469.03,-579.57 448.78,-520.6 490.65,-520.6"/>
<polygon fill="black" stroke="black" points="579.1,-709.78 568.29,-707.96 573.94,-711.13 569.76,-712.23 569.76,-712.23 569.76,-712.23 573.94,-711.13 570.57,-716.67 579.1,-709.78"/>
<text text-anchor="start" x="576.11" y="-722.4" font-family="Arial" font-size="10.00">FOREIGN KEY (dam_id) REFERENCES dam(id)</text>
</g>
</g>
</svg>
