<?xml version="1.0" encoding="UTF-8" standalone="no"?>
<!DOCTYPE svg PUBLIC "-//W3C//DTD SVG 1.1//EN"
 "http://www.w3.org/Graphics/SVG/1.1/DTD/svg11.dtd">
<!-- Generated by graphviz version 12.1.2 (20240928.0832)
 -->
<!-- Title: public.instrument_graph_pattern_folder Pages: 1 -->
<svg width="819pt" height="1160pt"
 viewBox="0.00 0.00 818.70 1160.40" xmlns="http://www.w3.org/2000/svg" xmlns:xlink="http://www.w3.org/1999/xlink">
<g id="graph0" class="graph" transform="scale(1 1) rotate(0) translate(4 1156.4)">
<title>public.instrument_graph_pattern_folder</title>
<polygon fill="white" stroke="none" points="-4,4 -4,-1156.4 814.7,-1156.4 814.7,4 -4,4"/>
<!-- public.instrument_graph_pattern_folder -->
<g id="node1" class="node">
<title>public.instrument_graph_pattern_folder</title>
<polygon fill="#efefef" stroke="none" points="46.2,-789.4 46.2,-825 472.11,-825 472.11,-789.4 46.2,-789.4"/>
<polygon fill="none" stroke="black" points="46.2,-789.4 46.2,-825 472.11,-825 472.11,-789.4 46.2,-789.4"/>
<text text-anchor="start" x="53.2" y="-802.8" font-family="Arial Bold" font-size="18.00">public.instrument_graph_pattern_folder</text>
<text text-anchor="start" x="340.62" y="-802.8" font-family="Arial" font-size="14.00">    </text>
<text text-anchor="start" x="371.74" y="-802.8" font-family="Arial" font-size="14.00" fill="#666666">[BASE TABLE]</text>
<polygon fill="none" stroke="black" points="46.2,-758.6 46.2,-789.4 472.11,-789.4 472.11,-758.6 46.2,-758.6"/>
<text text-anchor="start" x="53.2" y="-770.8" font-family="Arial" font-size="14.00">id </text>
<text text-anchor="start" x="67.99" y="-770.8" font-family="Arial" font-size="14.00" fill="#666666">[bigint]</text>
<polygon fill="none" stroke="black" points="46.2,-727.8 46.2,-758.6 472.11,-758.6 472.11,-727.8 46.2,-727.8"/>
<text text-anchor="start" x="53.2" y="-740" font-family="Arial" font-size="14.00">name </text>
<text text-anchor="start" x="92.11" y="-740" font-family="Arial" font-size="14.00" fill="#666666">[varchar(255)]</text>
<polygon fill="none" stroke="black" points="46.2,-697 46.2,-727.8 472.11,-727.8 472.11,-697 46.2,-697"/>
<text text-anchor="start" x="53.2" y="-709.2" font-family="Arial" font-size="14.00">dam_id </text>
<text text-anchor="start" x="103.01" y="-709.2" font-family="Arial" font-size="14.00" fill="#666666">[bigint]</text>
<polygon fill="none" stroke="black" stroke-width="3" points="44.7,-695.5 44.7,-826.5 473.61,-826.5 473.61,-695.5 44.7,-695.5"/>
</g>
<!-- public.dam -->
<g id="node3" class="node">
<title>public.dam</title>
<polygon fill="#efefef" stroke="none" points="149.67,-536 149.67,-571.6 368.64,-571.6 368.64,-536 149.67,-536"/>
<polygon fill="none" stroke="black" points="149.67,-536 149.67,-571.6 368.64,-571.6 368.64,-536 149.67,-536"/>
<text text-anchor="start" x="156.67" y="-549.4" font-family="Arial Bold" font-size="18.00">public.dam</text>
<text text-anchor="start" x="237.15" y="-549.4" font-family="Arial" font-size="14.00">    </text>
<text text-anchor="start" x="268.27" y="-549.4" font-family="Arial" font-size="14.00" fill="#666666">[BASE TABLE]</text>
<polygon fill="none" stroke="black" points="149.67,-505.2 149.67,-536 368.64,-536 368.64,-505.2 149.67,-505.2"/>
<text text-anchor="start" x="156.67" y="-517.4" font-family="Arial" font-size="14.00">id </text>
<text text-anchor="start" x="171.46" y="-517.4" font-family="Arial" font-size="14.00" fill="#666666">[bigint]</text>
<polygon fill="none" stroke="black" points="149.67,-474.4 149.67,-505.2 368.64,-505.2 368.64,-474.4 149.67,-474.4"/>
<text text-anchor="start" x="156.67" y="-486.6" font-family="Arial" font-size="14.00">city </text>
<text text-anchor="start" x="181.56" y="-486.6" font-family="Arial" font-size="14.00" fill="#666666">[varchar(100)]</text>
<polygon fill="none" stroke="black" points="149.67,-443.6 149.67,-474.4 368.64,-474.4 368.64,-443.6 149.67,-443.6"/>
<text text-anchor="start" x="156.67" y="-455.8" font-family="Arial" font-size="14.00">dam_image_path </text>
<text text-anchor="start" x="268.74" y="-455.8" font-family="Arial" font-size="14.00" fill="#666666">[varchar(255)]</text>
<polygon fill="none" stroke="black" points="149.67,-412.8 149.67,-443.6 368.64,-443.6 368.64,-412.8 149.67,-412.8"/>
<text text-anchor="start" x="156.67" y="-425" font-family="Arial" font-size="14.00">latitude </text>
<text text-anchor="start" x="205.7" y="-425" font-family="Arial" font-size="14.00" fill="#666666">[double precision]</text>
<polygon fill="none" stroke="black" points="149.67,-382 149.67,-412.8 368.64,-412.8 368.64,-382 149.67,-382"/>
<text text-anchor="start" x="156.67" y="-394.2" font-family="Arial" font-size="14.00">link_legislation </text>
<text text-anchor="start" x="251.61" y="-394.2" font-family="Arial" font-size="14.00" fill="#666666">[varchar(255)]</text>
<polygon fill="none" stroke="black" points="149.67,-351.2 149.67,-382 368.64,-382 368.64,-351.2 149.67,-351.2"/>
<text text-anchor="start" x="156.67" y="-363.4" font-family="Arial" font-size="14.00">linkpsb </text>
<text text-anchor="start" x="204.14" y="-363.4" font-family="Arial" font-size="14.00" fill="#666666">[varchar(255)]</text>
<polygon fill="none" stroke="black" points="149.67,-320.4 149.67,-351.2 368.64,-351.2 368.64,-320.4 149.67,-320.4"/>
<text text-anchor="start" x="156.67" y="-332.6" font-family="Arial" font-size="14.00">logo_path </text>
<text text-anchor="start" x="222.06" y="-332.6" font-family="Arial" font-size="14.00" fill="#666666">[varchar(255)]</text>
<polygon fill="none" stroke="black" points="149.67,-289.6 149.67,-320.4 368.64,-320.4 368.64,-289.6 149.67,-289.6"/>
<text text-anchor="start" x="156.67" y="-301.8" font-family="Arial" font-size="14.00">longitude </text>
<text text-anchor="start" x="217.39" y="-301.8" font-family="Arial" font-size="14.00" fill="#666666">[double precision]</text>
<polygon fill="none" stroke="black" points="149.67,-258.8 149.67,-289.6 368.64,-289.6 368.64,-258.8 149.67,-258.8"/>
<text text-anchor="start" x="156.67" y="-271" font-family="Arial" font-size="14.00">name </text>
<text text-anchor="start" x="195.58" y="-271" font-family="Arial" font-size="14.00" fill="#666666">[varchar(255)]</text>
<polygon fill="none" stroke="black" points="149.67,-228 149.67,-258.8 368.64,-258.8 368.64,-228 149.67,-228"/>
<text text-anchor="start" x="156.67" y="-240.2" font-family="Arial" font-size="14.00">neighborhood </text>
<text text-anchor="start" x="246.19" y="-240.2" font-family="Arial" font-size="14.00" fill="#666666">[varchar(100)]</text>
<polygon fill="none" stroke="black" points="149.67,-197.2 149.67,-228 368.64,-228 368.64,-197.2 149.67,-197.2"/>
<text text-anchor="start" x="156.67" y="-209.4" font-family="Arial" font-size="14.00">number_address </text>
<text text-anchor="start" x="265.62" y="-209.4" font-family="Arial" font-size="14.00" fill="#666666">[varchar(10)]</text>
<polygon fill="none" stroke="black" points="149.67,-166.4 149.67,-197.2 368.64,-197.2 368.64,-166.4 149.67,-166.4"/>
<text text-anchor="start" x="156.67" y="-178.6" font-family="Arial" font-size="14.00">state </text>
<text text-anchor="start" x="190.91" y="-178.6" font-family="Arial" font-size="14.00" fill="#666666">[varchar(100)]</text>
<polygon fill="none" stroke="black" points="149.67,-135.6 149.67,-166.4 368.64,-166.4 368.64,-135.6 149.67,-135.6"/>
<text text-anchor="start" x="156.67" y="-147.8" font-family="Arial" font-size="14.00">street </text>
<text text-anchor="start" x="195.57" y="-147.8" font-family="Arial" font-size="14.00" fill="#666666">[varchar(255)]</text>
<polygon fill="none" stroke="black" points="149.67,-104.8 149.67,-135.6 368.64,-135.6 368.64,-104.8 149.67,-104.8"/>
<text text-anchor="start" x="156.67" y="-117" font-family="Arial" font-size="14.00">zip_code </text>
<text text-anchor="start" x="216.6" y="-117" font-family="Arial" font-size="14.00" fill="#666666">[varchar(9)]</text>
<polygon fill="none" stroke="black" points="149.67,-74 149.67,-104.8 368.64,-104.8 368.64,-74 149.67,-74"/>
<text text-anchor="start" x="156.67" y="-86.2" font-family="Arial" font-size="14.00">client_id </text>
<text text-anchor="start" x="211.92" y="-86.2" font-family="Arial" font-size="14.00" fill="#666666">[bigint]</text>
<polygon fill="none" stroke="black" points="149.67,-43.2 149.67,-74 368.64,-74 368.64,-43.2 149.67,-43.2"/>
<text text-anchor="start" x="156.67" y="-55.4" font-family="Arial" font-size="14.00">status_id </text>
<text text-anchor="start" x="216.59" y="-55.4" font-family="Arial" font-size="14.00" fill="#666666">[bigint]</text>
</g>
<!-- public.instrument_graph_pattern_folder&#45;&gt;public.dam -->
<g id="edge2" class="edge">
<title>public.instrument_graph_pattern_folder:dam_id&#45;&gt;public.dam:id</title>
<path fill="none" stroke="black" d="M260.08,-685.7C269.19,-639.25 342.83,-665.4 368.64,-614.8 387.66,-577.5 411.51,-520.6 369.64,-520.6"/>
<polygon fill="black" stroke="black" points="260.08,-685.71 254.7,-695.26 259.6,-691.02 259.21,-695.33 259.21,-695.33 259.21,-695.33 259.6,-691.02 263.67,-696.07 260.08,-685.71"/>
<text text-anchor="start" x="33.78" y="-706" font-family="Arial" font-size="10.00">FOREIGN KEY (dam_id) REFERENCES dam(id)</text>
</g>
<!-- public.instrument_graph_pattern -->
<g id="node2" class="node">
<title>public.instrument_graph_pattern</title>
<polygon fill="#efefef" stroke="none" points="72.19,-1073.6 72.19,-1109.2 446.12,-1109.2 446.12,-1073.6 72.19,-1073.6"/>
<polygon fill="none" stroke="black" points="72.19,-1073.6 72.19,-1109.2 446.12,-1109.2 446.12,-1073.6 72.19,-1073.6"/>
<text text-anchor="start" x="79.19" y="-1087" font-family="Arial Bold" font-size="18.00">public.instrument_graph_pattern</text>
<text text-anchor="start" x="314.63" y="-1087" font-family="Arial" font-size="14.00">    </text>
<text text-anchor="start" x="345.75" y="-1087" font-family="Arial" font-size="14.00" fill="#666666">[BASE TABLE]</text>
<polygon fill="none" stroke="black" points="72.19,-1042.8 72.19,-1073.6 446.12,-1073.6 446.12,-1042.8 72.19,-1042.8"/>
<text text-anchor="start" x="79.19" y="-1055" font-family="Arial" font-size="14.00">id </text>
<text text-anchor="start" x="93.98" y="-1055" font-family="Arial" font-size="14.00" fill="#666666">[bigint]</text>
<polygon fill="none" stroke="black" points="72.19,-1012 72.19,-1042.8 446.12,-1042.8 446.12,-1012 72.19,-1012"/>
<text text-anchor="start" x="79.19" y="-1024.2" font-family="Arial" font-size="14.00">name </text>
<text text-anchor="start" x="118.1" y="-1024.2" font-family="Arial" font-size="14.00" fill="#666666">[varchar(255)]</text>
<polygon fill="none" stroke="black" points="72.19,-981.2 72.19,-1012 446.12,-1012 446.12,-981.2 72.19,-981.2"/>
<text text-anchor="start" x="79.19" y="-993.4" font-family="Arial" font-size="14.00">folder_id </text>
<text text-anchor="start" x="136.78" y="-993.4" font-family="Arial" font-size="14.00" fill="#666666">[bigint]</text>
<polygon fill="none" stroke="black" points="72.19,-950.4 72.19,-981.2 446.12,-981.2 446.12,-950.4 72.19,-950.4"/>
<text text-anchor="start" x="79.19" y="-962.6" font-family="Arial" font-size="14.00">instrument_id </text>
<text text-anchor="start" x="167.12" y="-962.6" font-family="Arial" font-size="14.00" fill="#666666">[bigint]</text>
</g>
<!-- public.instrument_graph_pattern&#45;&gt;public.instrument_graph_pattern_folder -->
<g id="edge1" class="edge">
<title>public.instrument_graph_pattern:folder_id&#45;&gt;public.instrument_graph_pattern_folder:id</title>
<path fill="none" stroke="black" d="M457.35,-995.79C548.4,-981.22 569.21,-774 473.11,-774"/>
<polygon fill="black" stroke="black" points="457.42,-995.79 447.1,-992.09 452.1,-996.21 447.79,-996.55 447.79,-996.55 447.79,-996.55 452.1,-996.21 447.81,-1001.06 457.42,-995.79"/>
<text text-anchor="start" x="454.12" y="-1006.6" font-family="Arial" font-size="10.00">FOREIGN KEY (folder_id) REFERENCES instrument_graph_pattern_folder(id)</text>
</g>
</g>
</svg>
