<?xml version="1.0" encoding="UTF-8" standalone="no"?>
<!DOCTYPE svg PUBLIC "-//W3C//DTD SVG 1.1//EN"
 "http://www.w3.org/Graphics/SVG/1.1/DTD/svg11.dtd">
<!-- Generated by graphviz version 12.1.2 (20240928.0832)
 -->
<!-- Title: public.instrument_tabulate_association Pages: 1 -->
<svg width="1131pt" height="1345pt"
 viewBox="0.00 0.00 1131.19 1345.20" xmlns="http://www.w3.org/2000/svg" xmlns:xlink="http://www.w3.org/1999/xlink">
<g id="graph0" class="graph" transform="scale(1 1) rotate(0) translate(4 1341.2)">
<title>public.instrument_tabulate_association</title>
<polygon fill="white" stroke="none" points="-4,4 -4,-1341.2 1127.19,-1341.2 1127.19,4 -4,4"/>
<!-- public.instrument_tabulate_association -->
<g id="node1" class="node">
<title>public.instrument_tabulate_association</title>
<polygon fill="#efefef" stroke="none" points="287.84,-974.2 287.84,-1009.8 707.77,-1009.8 707.77,-974.2 287.84,-974.2"/>
<polygon fill="none" stroke="black" points="287.84,-974.2 287.84,-1009.8 707.77,-1009.8 707.77,-974.2 287.84,-974.2"/>
<text text-anchor="start" x="294.84" y="-987.6" font-family="Arial Bold" font-size="18.00">public.instrument_tabulate_association</text>
<text text-anchor="start" x="576.28" y="-987.6" font-family="Arial" font-size="14.00">    </text>
<text text-anchor="start" x="607.39" y="-987.6" font-family="Arial" font-size="14.00" fill="#666666">[BASE TABLE]</text>
<polygon fill="none" stroke="black" points="287.84,-943.4 287.84,-974.2 707.77,-974.2 707.77,-943.4 287.84,-943.4"/>
<text text-anchor="start" x="294.84" y="-955.6" font-family="Arial" font-size="14.00">id </text>
<text text-anchor="start" x="309.63" y="-955.6" font-family="Arial" font-size="14.00" fill="#666666">[bigint]</text>
<polygon fill="none" stroke="black" points="287.84,-912.6 287.84,-943.4 707.77,-943.4 707.77,-912.6 287.84,-912.6"/>
<text text-anchor="start" x="294.84" y="-924.8" font-family="Arial" font-size="14.00">date_index </text>
<text text-anchor="start" x="367.23" y="-924.8" font-family="Arial" font-size="14.00" fill="#666666">[integer]</text>
<polygon fill="none" stroke="black" points="287.84,-881.8 287.84,-912.6 707.77,-912.6 707.77,-881.8 287.84,-881.8"/>
<text text-anchor="start" x="294.84" y="-894" font-family="Arial" font-size="14.00">hour_index </text>
<text text-anchor="start" x="368.01" y="-894" font-family="Arial" font-size="14.00" fill="#666666">[integer]</text>
<polygon fill="none" stroke="black" points="287.84,-851 287.84,-881.8 707.77,-881.8 707.77,-851 287.84,-851"/>
<text text-anchor="start" x="294.84" y="-863.2" font-family="Arial" font-size="14.00">is_date_enable </text>
<text text-anchor="start" x="393.7" y="-863.2" font-family="Arial" font-size="14.00" fill="#666666">[boolean]</text>
<polygon fill="none" stroke="black" points="287.84,-820.2 287.84,-851 707.77,-851 707.77,-820.2 287.84,-820.2"/>
<text text-anchor="start" x="294.84" y="-832.4" font-family="Arial" font-size="14.00">is_hour_enable </text>
<text text-anchor="start" x="394.48" y="-832.4" font-family="Arial" font-size="14.00" fill="#666666">[boolean]</text>
<polygon fill="none" stroke="black" points="287.84,-789.4 287.84,-820.2 707.77,-820.2 707.77,-789.4 287.84,-789.4"/>
<text text-anchor="start" x="294.84" y="-801.6" font-family="Arial" font-size="14.00">is_read_enable </text>
<text text-anchor="start" x="394.48" y="-801.6" font-family="Arial" font-size="14.00" fill="#666666">[boolean]</text>
<polygon fill="none" stroke="black" points="287.84,-758.6 287.84,-789.4 707.77,-789.4 707.77,-758.6 287.84,-758.6"/>
<text text-anchor="start" x="294.84" y="-770.8" font-family="Arial" font-size="14.00">is_user_enable </text>
<text text-anchor="start" x="393.69" y="-770.8" font-family="Arial" font-size="14.00" fill="#666666">[boolean]</text>
<polygon fill="none" stroke="black" points="287.84,-727.8 287.84,-758.6 707.77,-758.6 707.77,-727.8 287.84,-727.8"/>
<text text-anchor="start" x="294.84" y="-740" font-family="Arial" font-size="14.00">user_index </text>
<text text-anchor="start" x="367.22" y="-740" font-family="Arial" font-size="14.00" fill="#666666">[integer]</text>
<polygon fill="none" stroke="black" points="287.84,-697 287.84,-727.8 707.77,-727.8 707.77,-697 287.84,-697"/>
<text text-anchor="start" x="294.84" y="-709.2" font-family="Arial" font-size="14.00">instrument_id </text>
<text text-anchor="start" x="382.77" y="-709.2" font-family="Arial" font-size="14.00" fill="#666666">[bigint]</text>
<polygon fill="none" stroke="black" points="287.84,-666.2 287.84,-697 707.77,-697 707.77,-666.2 287.84,-666.2"/>
<text text-anchor="start" x="294.84" y="-678.4" font-family="Arial" font-size="14.00">pattern_id </text>
<text text-anchor="start" x="361" y="-678.4" font-family="Arial" font-size="14.00" fill="#666666">[bigint]</text>
<polygon fill="none" stroke="black" stroke-width="3" points="286.34,-664.7 286.34,-1011.3 709.27,-1011.3 709.27,-664.7 286.34,-664.7"/>
</g>
<!-- public.instrument -->
<g id="node3" class="node">
<title>public.instrument</title>
<polygon fill="#efefef" stroke="none" points="55.09,-505.2 55.09,-540.8 446.52,-540.8 446.52,-505.2 55.09,-505.2"/>
<polygon fill="none" stroke="black" points="55.09,-505.2 55.09,-540.8 446.52,-540.8 446.52,-505.2 55.09,-505.2"/>
<text text-anchor="start" x="125.32" y="-518.6" font-family="Arial Bold" font-size="18.00">public.instrument</text>
<text text-anchor="start" x="251.8" y="-518.6" font-family="Arial" font-size="14.00">    </text>
<text text-anchor="start" x="282.92" y="-518.6" font-family="Arial" font-size="14.00" fill="#666666">[BASE TABLE]</text>
<polygon fill="none" stroke="black" points="55.09,-474.4 55.09,-505.2 446.52,-505.2 446.52,-474.4 55.09,-474.4"/>
<text text-anchor="start" x="62.09" y="-486.6" font-family="Arial" font-size="14.00">id </text>
<text text-anchor="start" x="76.88" y="-486.6" font-family="Arial" font-size="14.00" fill="#666666">[bigint]</text>
<polygon fill="none" stroke="black" points="55.09,-443.6 55.09,-474.4 446.52,-474.4 446.52,-443.6 55.09,-443.6"/>
<text text-anchor="start" x="62.09" y="-455.8" font-family="Arial" font-size="14.00">active </text>
<text text-anchor="start" x="102.55" y="-455.8" font-family="Arial" font-size="14.00" fill="#666666">[boolean]</text>
<polygon fill="none" stroke="black" points="55.09,-412.8 55.09,-443.6 446.52,-443.6 446.52,-412.8 55.09,-412.8"/>
<text text-anchor="start" x="62.09" y="-425" font-family="Arial" font-size="14.00">active_for_section </text>
<text text-anchor="start" x="178.82" y="-425" font-family="Arial" font-size="14.00" fill="#666666">[boolean]</text>
<polygon fill="none" stroke="black" points="55.09,-382 55.09,-412.8 446.52,-412.8 446.52,-382 55.09,-382"/>
<text text-anchor="start" x="62.09" y="-394.2" font-family="Arial" font-size="14.00">distance_offset </text>
<text text-anchor="start" x="160.15" y="-394.2" font-family="Arial" font-size="14.00" fill="#666666">[double precision]</text>
<polygon fill="none" stroke="black" points="55.09,-351.2 55.09,-382 446.52,-382 446.52,-351.2 55.09,-351.2"/>
<text text-anchor="start" x="62.09" y="-363.4" font-family="Arial" font-size="14.00">is_linimetric_ruler </text>
<text text-anchor="start" x="174.9" y="-363.4" font-family="Arial" font-size="14.00" fill="#666666">[boolean]</text>
<polygon fill="none" stroke="black" points="55.09,-320.4 55.09,-351.2 446.52,-351.2 446.52,-320.4 55.09,-320.4"/>
<text text-anchor="start" x="62.09" y="-332.6" font-family="Arial" font-size="14.00">last_update_variables_date </text>
<text text-anchor="start" x="237.22" y="-332.6" font-family="Arial" font-size="14.00" fill="#666666">[timestamp(6) without time zone]</text>
<polygon fill="none" stroke="black" points="55.09,-289.6 55.09,-320.4 446.52,-320.4 446.52,-289.6 55.09,-289.6"/>
<text text-anchor="start" x="62.09" y="-301.8" font-family="Arial" font-size="14.00">latitude </text>
<text text-anchor="start" x="111.12" y="-301.8" font-family="Arial" font-size="14.00" fill="#666666">[double precision]</text>
<polygon fill="none" stroke="black" points="55.09,-258.8 55.09,-289.6 446.52,-289.6 446.52,-258.8 55.09,-258.8"/>
<text text-anchor="start" x="62.09" y="-271" font-family="Arial" font-size="14.00">linimetric_ruler_code </text>
<text text-anchor="start" x="195.15" y="-271" font-family="Arial" font-size="14.00" fill="#666666">[bigint]</text>
<polygon fill="none" stroke="black" points="55.09,-228 55.09,-258.8 446.52,-258.8 446.52,-228 55.09,-228"/>
<text text-anchor="start" x="62.09" y="-240.2" font-family="Arial" font-size="14.00">location </text>
<text text-anchor="start" x="114.24" y="-240.2" font-family="Arial" font-size="14.00" fill="#666666">[varchar(255)]</text>
<polygon fill="none" stroke="black" points="55.09,-197.2 55.09,-228 446.52,-228 446.52,-197.2 55.09,-197.2"/>
<text text-anchor="start" x="62.09" y="-209.4" font-family="Arial" font-size="14.00">longitude </text>
<text text-anchor="start" x="122.81" y="-209.4" font-family="Arial" font-size="14.00" fill="#666666">[double precision]</text>
<polygon fill="none" stroke="black" points="55.09,-166.4 55.09,-197.2 446.52,-197.2 446.52,-166.4 55.09,-166.4"/>
<text text-anchor="start" x="62.09" y="-178.6" font-family="Arial" font-size="14.00">name </text>
<text text-anchor="start" x="101" y="-178.6" font-family="Arial" font-size="14.00" fill="#666666">[varchar(255)]</text>
<polygon fill="none" stroke="black" points="55.09,-135.6 55.09,-166.4 446.52,-166.4 446.52,-135.6 55.09,-135.6"/>
<text text-anchor="start" x="62.09" y="-147.8" font-family="Arial" font-size="14.00">no_limit </text>
<text text-anchor="start" x="114.22" y="-147.8" font-family="Arial" font-size="14.00" fill="#666666">[boolean]</text>
<polygon fill="none" stroke="black" points="55.09,-104.8 55.09,-135.6 446.52,-135.6 446.52,-104.8 55.09,-104.8"/>
<text text-anchor="start" x="62.09" y="-117" font-family="Arial" font-size="14.00">dam_id </text>
<text text-anchor="start" x="111.9" y="-117" font-family="Arial" font-size="14.00" fill="#666666">[bigint]</text>
<polygon fill="none" stroke="black" points="55.09,-74 55.09,-104.8 446.52,-104.8 446.52,-74 55.09,-74"/>
<text text-anchor="start" x="62.09" y="-86.2" font-family="Arial" font-size="14.00">instrument_type_id </text>
<text text-anchor="start" x="184.27" y="-86.2" font-family="Arial" font-size="14.00" fill="#666666">[bigint]</text>
<polygon fill="none" stroke="black" points="55.09,-43.2 55.09,-74 446.52,-74 446.52,-43.2 55.09,-43.2"/>
<text text-anchor="start" x="62.09" y="-55.4" font-family="Arial" font-size="14.00">section_id </text>
<text text-anchor="start" x="129.02" y="-55.4" font-family="Arial" font-size="14.00" fill="#666666">[bigint]</text>
</g>
<!-- public.instrument_tabulate_association&#45;&gt;public.instrument -->
<g id="edge2" class="edge">
<title>public.instrument_tabulate_association:instrument_id&#45;&gt;public.instrument:id</title>
<path fill="none" stroke="black" d="M276.76,-710.88C248.91,-701.32 264.46,-648.96 287.84,-620 333.27,-563.74 401.09,-640.27 446.52,-584 472.82,-551.42 489.39,-489.8 447.52,-489.8"/>
<polygon fill="black" stroke="black" points="276.62,-710.86 285.84,-716.8 281.9,-711.65 286.18,-712.3 286.18,-712.3 286.18,-712.3 281.9,-711.65 287.18,-707.9 276.62,-710.86"/>
<text text-anchor="start" x="7" y="-722.4" font-family="Arial" font-size="10.00">FOREIGN KEY (instrument_id) REFERENCES instrument(id)</text>
</g>
<!-- public.instrument_tabulate_pattern -->
<g id="node4" class="node">
<title>public.instrument_tabulate_pattern</title>
<polygon fill="#efefef" stroke="none" points="550.84,-335.8 550.84,-371.4 940.76,-371.4 940.76,-335.8 550.84,-335.8"/>
<polygon fill="none" stroke="black" points="550.84,-335.8 550.84,-371.4 940.76,-371.4 940.76,-335.8 550.84,-335.8"/>
<text text-anchor="start" x="557.84" y="-349.2" font-family="Arial Bold" font-size="18.00">public.instrument_tabulate_pattern</text>
<text text-anchor="start" x="809.27" y="-349.2" font-family="Arial" font-size="14.00">    </text>
<text text-anchor="start" x="840.39" y="-349.2" font-family="Arial" font-size="14.00" fill="#666666">[BASE TABLE]</text>
<polygon fill="none" stroke="black" points="550.84,-305 550.84,-335.8 940.76,-335.8 940.76,-305 550.84,-305"/>
<text text-anchor="start" x="557.84" y="-317.2" font-family="Arial" font-size="14.00">id </text>
<text text-anchor="start" x="572.63" y="-317.2" font-family="Arial" font-size="14.00" fill="#666666">[bigint]</text>
<polygon fill="none" stroke="black" points="550.84,-274.2 550.84,-305 940.76,-305 940.76,-274.2 550.84,-274.2"/>
<text text-anchor="start" x="557.84" y="-286.4" font-family="Arial" font-size="14.00">name </text>
<text text-anchor="start" x="596.75" y="-286.4" font-family="Arial" font-size="14.00" fill="#666666">[varchar(255)]</text>
<polygon fill="none" stroke="black" points="550.84,-243.4 550.84,-274.2 940.76,-274.2 940.76,-243.4 550.84,-243.4"/>
<text text-anchor="start" x="557.84" y="-255.6" font-family="Arial" font-size="14.00">dam_id </text>
<text text-anchor="start" x="607.65" y="-255.6" font-family="Arial" font-size="14.00" fill="#666666">[bigint]</text>
<polygon fill="none" stroke="black" points="550.84,-212.6 550.84,-243.4 940.76,-243.4 940.76,-212.6 550.84,-212.6"/>
<text text-anchor="start" x="557.84" y="-224.8" font-family="Arial" font-size="14.00">folder_id </text>
<text text-anchor="start" x="615.44" y="-224.8" font-family="Arial" font-size="14.00" fill="#666666">[bigint]</text>
</g>
<!-- public.instrument_tabulate_association&#45;&gt;public.instrument_tabulate_pattern -->
<g id="edge3" class="edge">
<title>public.instrument_tabulate_association:pattern_id&#45;&gt;public.instrument_tabulate_pattern:id</title>
<path fill="none" stroke="black" d="M718.72,-678.92C730.06,-670.14 715.28,-641.62 707.77,-620 670.07,-511.48 588.23,-523.23 550.84,-414.6 537.22,-375.01 507.98,-320.4 549.84,-320.4"/>
<polygon fill="black" stroke="black" points="718.74,-678.91 707.92,-677.17 713.59,-680.3 709.41,-681.43 709.41,-681.43 709.41,-681.43 713.59,-680.3 710.26,-685.86 718.74,-678.91"/>
<text text-anchor="start" x="715.77" y="-691.6" font-family="Arial" font-size="10.00">FOREIGN KEY (pattern_id) REFERENCES instrument_tabulate_pattern(id)</text>
</g>
<!-- public.instrument_tabulate_output_association -->
<g id="node2" class="node">
<title>public.instrument_tabulate_output_association</title>
<polygon fill="#efefef" stroke="none" points="260.34,-1258.4 260.34,-1294 735.27,-1294 735.27,-1258.4 260.34,-1258.4"/>
<polygon fill="none" stroke="black" points="260.34,-1258.4 260.34,-1294 735.27,-1294 735.27,-1258.4 260.34,-1258.4"/>
<text text-anchor="start" x="267.34" y="-1271.8" font-family="Arial Bold" font-size="18.00">public.instrument_tabulate_output_association</text>
<text text-anchor="start" x="603.78" y="-1271.8" font-family="Arial" font-size="14.00">    </text>
<text text-anchor="start" x="634.89" y="-1271.8" font-family="Arial" font-size="14.00" fill="#666666">[BASE TABLE]</text>
<polygon fill="none" stroke="black" points="260.34,-1227.6 260.34,-1258.4 735.27,-1258.4 735.27,-1227.6 260.34,-1227.6"/>
<text text-anchor="start" x="267.34" y="-1239.8" font-family="Arial" font-size="14.00">id </text>
<text text-anchor="start" x="282.13" y="-1239.8" font-family="Arial" font-size="14.00" fill="#666666">[bigint]</text>
<polygon fill="none" stroke="black" points="260.34,-1196.8 260.34,-1227.6 735.27,-1227.6 735.27,-1196.8 260.34,-1196.8"/>
<text text-anchor="start" x="267.34" y="-1209" font-family="Arial" font-size="14.00">output_index </text>
<text text-anchor="start" x="351.41" y="-1209" font-family="Arial" font-size="14.00" fill="#666666">[integer]</text>
<polygon fill="none" stroke="black" points="260.34,-1166 260.34,-1196.8 735.27,-1196.8 735.27,-1166 260.34,-1166"/>
<text text-anchor="start" x="267.34" y="-1178.2" font-family="Arial" font-size="14.00">association_id </text>
<text text-anchor="start" x="359.95" y="-1178.2" font-family="Arial" font-size="14.00" fill="#666666">[bigint]</text>
<polygon fill="none" stroke="black" points="260.34,-1135.2 260.34,-1166 735.27,-1166 735.27,-1135.2 260.34,-1135.2"/>
<text text-anchor="start" x="267.34" y="-1147.4" font-family="Arial" font-size="14.00">output_id </text>
<text text-anchor="start" x="328.84" y="-1147.4" font-family="Arial" font-size="14.00" fill="#666666">[bigint]</text>
</g>
<!-- public.instrument_tabulate_output_association&#45;&gt;public.instrument_tabulate_association -->
<g id="edge1" class="edge">
<title>public.instrument_tabulate_output_association:association_id&#45;&gt;public.instrument_tabulate_association:id</title>
<path fill="none" stroke="black" d="M746.58,-1180.55C833.87,-1165.6 804.85,-958.8 708.77,-958.8"/>
<polygon fill="black" stroke="black" points="746.57,-1180.55 736.23,-1176.89 741.25,-1180.99 736.93,-1181.34 736.93,-1181.34 736.93,-1181.34 741.25,-1180.99 736.97,-1185.86 746.57,-1180.55"/>
<text text-anchor="start" x="743.27" y="-1191.4" font-family="Arial" font-size="10.00">FOREIGN KEY (association_id) REFERENCES instrument_tabulate_association(id)</text>
</g>
</g>
</svg>
