<?xml version="1.0" encoding="UTF-8" standalone="no"?>
<!DOCTYPE svg PUBLIC "-//W3C//DTD SVG 1.1//EN"
 "http://www.w3.org/Graphics/SVG/1.1/DTD/svg11.dtd">
<!-- Generated by graphviz version 12.1.2 (20240928.0832)
 -->
<!-- Title: public.question_option Pages: 1 -->
<svg width="841pt" height="479pt"
 viewBox="0.00 0.00 841.03 478.80" xmlns="http://www.w3.org/2000/svg" xmlns:xlink="http://www.w3.org/1999/xlink">
<g id="graph0" class="graph" transform="scale(1 1) rotate(0) translate(4 474.8)">
<title>public.question_option</title>
<polygon fill="white" stroke="none" points="-4,4 -4,-474.8 837.03,-474.8 837.03,4 -4,4"/>
<!-- public.question_option -->
<g id="node1" class="node">
<title>public.question_option</title>
<polygon fill="#efefef" stroke="none" points="275.09,-389 275.09,-424.6 579.07,-424.6 579.07,-389 275.09,-389"/>
<polygon fill="none" stroke="black" points="275.09,-389 275.09,-424.6 579.07,-424.6 579.07,-389 275.09,-389"/>
<text text-anchor="start" x="282.09" y="-402.4" font-family="Arial Bold" font-size="18.00">public.question_option</text>
<text text-anchor="start" x="447.58" y="-402.4" font-family="Arial" font-size="14.00">    </text>
<text text-anchor="start" x="478.69" y="-402.4" font-family="Arial" font-size="14.00" fill="#666666">[BASE TABLE]</text>
<polygon fill="none" stroke="black" points="275.09,-358.2 275.09,-389 579.07,-389 579.07,-358.2 275.09,-358.2"/>
<text text-anchor="start" x="282.09" y="-370.4" font-family="Arial" font-size="14.00">question_id </text>
<text text-anchor="start" x="357.59" y="-370.4" font-family="Arial" font-size="14.00" fill="#666666">[bigint]</text>
<polygon fill="none" stroke="black" points="275.09,-327.4 275.09,-358.2 579.07,-358.2 579.07,-327.4 275.09,-327.4"/>
<text text-anchor="start" x="282.09" y="-339.6" font-family="Arial" font-size="14.00">option_id </text>
<text text-anchor="start" x="342.8" y="-339.6" font-family="Arial" font-size="14.00" fill="#666666">[bigint]</text>
<polygon fill="none" stroke="black" stroke-width="3" points="273.59,-325.9 273.59,-426.1 580.57,-426.1 580.57,-325.9 273.59,-325.9"/>
</g>
<!-- public.questions -->
<g id="node2" class="node">
<title>public.questions</title>
<polygon fill="#efefef" stroke="none" points="123.09,-151 123.09,-186.6 379.07,-186.6 379.07,-151 123.09,-151"/>
<polygon fill="none" stroke="black" points="123.09,-151 123.09,-186.6 379.07,-186.6 379.07,-151 123.09,-151"/>
<text text-anchor="start" x="130.09" y="-164.4" font-family="Arial Bold" font-size="18.00">public.questions</text>
<text text-anchor="start" x="247.58" y="-164.4" font-family="Arial" font-size="14.00">    </text>
<text text-anchor="start" x="278.7" y="-164.4" font-family="Arial" font-size="14.00" fill="#666666">[BASE TABLE]</text>
<polygon fill="none" stroke="black" points="123.09,-120.2 123.09,-151 379.07,-151 379.07,-120.2 123.09,-120.2"/>
<text text-anchor="start" x="130.09" y="-132.4" font-family="Arial" font-size="14.00">id </text>
<text text-anchor="start" x="144.87" y="-132.4" font-family="Arial" font-size="14.00" fill="#666666">[bigint]</text>
<polygon fill="none" stroke="black" points="123.09,-89.4 123.09,-120.2 379.07,-120.2 379.07,-89.4 123.09,-89.4"/>
<text text-anchor="start" x="130.09" y="-101.6" font-family="Arial" font-size="14.00">question_text </text>
<text text-anchor="start" x="217.26" y="-101.6" font-family="Arial" font-size="14.00" fill="#666666">[varchar(255)]</text>
<polygon fill="none" stroke="black" points="123.09,-58.6 123.09,-89.4 379.07,-89.4 379.07,-58.6 123.09,-58.6"/>
<text text-anchor="start" x="130.09" y="-70.8" font-family="Arial" font-size="14.00">type </text>
<text text-anchor="start" x="160.44" y="-70.8" font-family="Arial" font-size="14.00" fill="#666666">[varchar(255)]</text>
</g>
<!-- public.question_option&#45;&gt;public.questions -->
<g id="edge1" class="edge">
<title>public.question_option:question_id&#45;&gt;public.questions:id</title>
<path fill="none" stroke="black" d="M264.1,-372.15C236.82,-363 255.28,-312.71 275.09,-281.2 302.53,-237.56 351.63,-273.45 379.07,-229.8 401.35,-194.35 421.94,-135.6 380.07,-135.6"/>
<polygon fill="black" stroke="black" points="263.86,-372.11 273.11,-378 269.14,-372.88 273.43,-373.5 273.43,-373.5 273.43,-373.5 269.14,-372.88 274.41,-369.1 263.86,-372.11"/>
<text text-anchor="start" x="7" y="-383.6" font-family="Arial" font-size="10.00">FOREIGN KEY (question_id) REFERENCES questions(id)</text>
</g>
<!-- public.options -->
<g id="node3" class="node">
<title>public.options</title>
<polygon fill="#efefef" stroke="none" points="483.58,-166.4 483.58,-202 724.57,-202 724.57,-166.4 483.58,-166.4"/>
<polygon fill="none" stroke="black" points="483.58,-166.4 483.58,-202 724.57,-202 724.57,-166.4 483.58,-166.4"/>
<text text-anchor="start" x="490.58" y="-179.8" font-family="Arial Bold" font-size="18.00">public.options</text>
<text text-anchor="start" x="593.08" y="-179.8" font-family="Arial" font-size="14.00">    </text>
<text text-anchor="start" x="624.2" y="-179.8" font-family="Arial" font-size="14.00" fill="#666666">[BASE TABLE]</text>
<polygon fill="none" stroke="black" points="483.58,-135.6 483.58,-166.4 724.57,-166.4 724.57,-135.6 483.58,-135.6"/>
<text text-anchor="start" x="490.58" y="-147.8" font-family="Arial" font-size="14.00">id </text>
<text text-anchor="start" x="505.37" y="-147.8" font-family="Arial" font-size="14.00" fill="#666666">[bigint]</text>
<polygon fill="none" stroke="black" points="483.58,-104.8 483.58,-135.6 724.57,-135.6 724.57,-104.8 483.58,-104.8"/>
<text text-anchor="start" x="490.58" y="-117" font-family="Arial" font-size="14.00">label </text>
<text text-anchor="start" x="524.05" y="-117" font-family="Arial" font-size="14.00" fill="#666666">[varchar(255)]</text>
<polygon fill="none" stroke="black" points="483.58,-74 483.58,-104.8 724.57,-104.8 724.57,-74 483.58,-74"/>
<text text-anchor="start" x="490.58" y="-86.2" font-family="Arial" font-size="14.00">order_index </text>
<text text-anchor="start" x="568.41" y="-86.2" font-family="Arial" font-size="14.00" fill="#666666">[integer]</text>
<polygon fill="none" stroke="black" points="483.58,-43.2 483.58,-74 724.57,-74 724.57,-43.2 483.58,-43.2"/>
<text text-anchor="start" x="490.58" y="-55.4" font-family="Arial" font-size="14.00">value </text>
<text text-anchor="start" x="527.94" y="-55.4" font-family="Arial" font-size="14.00" fill="#666666">[varchar(255)]</text>
</g>
<!-- public.question_option&#45;&gt;public.options -->
<g id="edge2" class="edge">
<title>public.question_option:option_id&#45;&gt;public.options:id</title>
<path fill="none" stroke="black" d="M590.11,-340.14C603.43,-330.96 592.36,-300.09 579.07,-281.2 552.96,-244.11 509.58,-282.36 483.58,-245.2 459.58,-210.89 440.71,-151 482.58,-151"/>
<polygon fill="black" stroke="black" points="590.06,-340.16 579.24,-338.36 584.9,-341.52 580.71,-342.63 580.71,-342.63 580.71,-342.63 584.9,-341.52 581.54,-347.06 590.06,-340.16"/>
<text text-anchor="start" x="587.07" y="-352.8" font-family="Arial" font-size="10.00">FOREIGN KEY (option_id) REFERENCES options(id)</text>
</g>
</g>
</svg>
