<?xml version="1.0" encoding="UTF-8" standalone="no"?>
<!DOCTYPE svg PUBLIC "-//W3C//DTD SVG 1.1//EN"
 "http://www.w3.org/Graphics/SVG/1.1/DTD/svg11.dtd">
<!-- Generated by graphviz version 12.1.2 (20240928.0832)
 -->
<!-- Title: public.documentation_dam Pages: 1 -->
<svg width="454pt" height="1341pt"
 viewBox="0.00 0.00 454.05 1341.20" xmlns="http://www.w3.org/2000/svg" xmlns:xlink="http://www.w3.org/1999/xlink">
<g id="graph0" class="graph" transform="scale(1 1) rotate(0) translate(4 1337.2)">
<title>public.documentation_dam</title>
<polygon fill="white" stroke="none" points="-4,4 -4,-1337.2 450.05,-1337.2 450.05,4 -4,4"/>
<!-- public.documentation_dam -->
<g id="node1" class="node">
<title>public.documentation_dam</title>
<polygon fill="#efefef" stroke="none" points="64.91,-1251.4 64.91,-1287 399.85,-1287 399.85,-1251.4 64.91,-1251.4"/>
<polygon fill="none" stroke="black" points="64.91,-1251.4 64.91,-1287 399.85,-1287 399.85,-1251.4 64.91,-1251.4"/>
<text text-anchor="start" x="71.91" y="-1264.8" font-family="Arial Bold" font-size="18.00">public.documentation_dam</text>
<text text-anchor="start" x="268.36" y="-1264.8" font-family="Arial" font-size="14.00">    </text>
<text text-anchor="start" x="299.48" y="-1264.8" font-family="Arial" font-size="14.00" fill="#666666">[BASE TABLE]</text>
<polygon fill="none" stroke="black" points="64.91,-1220.6 64.91,-1251.4 399.85,-1251.4 399.85,-1220.6 64.91,-1220.6"/>
<text text-anchor="start" x="71.91" y="-1232.8" font-family="Arial" font-size="14.00">id </text>
<text text-anchor="start" x="86.69" y="-1232.8" font-family="Arial" font-size="14.00" fill="#666666">[bigint]</text>
<polygon fill="none" stroke="black" points="64.91,-1189.8 64.91,-1220.6 399.85,-1220.6 399.85,-1189.8 64.91,-1189.8"/>
<text text-anchor="start" x="71.91" y="-1202" font-family="Arial" font-size="14.00">last_achievement_checklist </text>
<text text-anchor="start" x="246.22" y="-1202" font-family="Arial" font-size="14.00" fill="#666666">[date]</text>
<polygon fill="none" stroke="black" points="64.91,-1159 64.91,-1189.8 399.85,-1189.8 399.85,-1159 64.91,-1159"/>
<text text-anchor="start" x="71.91" y="-1171.2" font-family="Arial" font-size="14.00">last_achievement_isr </text>
<text text-anchor="start" x="207.31" y="-1171.2" font-family="Arial" font-size="14.00" fill="#666666">[date]</text>
<polygon fill="none" stroke="black" points="64.91,-1128.2 64.91,-1159 399.85,-1159 399.85,-1128.2 64.91,-1128.2"/>
<text text-anchor="start" x="71.91" y="-1140.4" font-family="Arial" font-size="14.00">last_external_simulation </text>
<text text-anchor="start" x="225.99" y="-1140.4" font-family="Arial" font-size="14.00" fill="#666666">[date]</text>
<polygon fill="none" stroke="black" points="64.91,-1097.4 64.91,-1128.2 399.85,-1128.2 399.85,-1097.4 64.91,-1097.4"/>
<text text-anchor="start" x="71.91" y="-1109.6" font-family="Arial" font-size="14.00">last_filling_fsb </text>
<text text-anchor="start" x="163.73" y="-1109.6" font-family="Arial" font-size="14.00" fill="#666666">[date]</text>
<polygon fill="none" stroke="black" points="64.91,-1066.6 64.91,-1097.4 399.85,-1097.4 399.85,-1066.6 64.91,-1066.6"/>
<text text-anchor="start" x="71.91" y="-1078.8" font-family="Arial" font-size="14.00">last_internal_simulation </text>
<text text-anchor="start" x="222.1" y="-1078.8" font-family="Arial" font-size="14.00" fill="#666666">[date]</text>
<polygon fill="none" stroke="black" points="64.91,-1035.8 64.91,-1066.6 399.85,-1066.6 399.85,-1035.8 64.91,-1035.8"/>
<text text-anchor="start" x="71.91" y="-1048" font-family="Arial" font-size="14.00">last_update_pae </text>
<text text-anchor="start" x="179.33" y="-1048" font-family="Arial" font-size="14.00" fill="#666666">[date]</text>
<polygon fill="none" stroke="black" points="64.91,-1005 64.91,-1035.8 399.85,-1035.8 399.85,-1005 64.91,-1005"/>
<text text-anchor="start" x="71.91" y="-1017.2" font-family="Arial" font-size="14.00">last_update_psb </text>
<text text-anchor="start" x="178.55" y="-1017.2" font-family="Arial" font-size="14.00" fill="#666666">[date]</text>
<polygon fill="none" stroke="black" points="64.91,-974.2 64.91,-1005 399.85,-1005 399.85,-974.2 64.91,-974.2"/>
<text text-anchor="start" x="71.91" y="-986.4" font-family="Arial" font-size="14.00">last_update_rpsb </text>
<text text-anchor="start" x="183.21" y="-986.4" font-family="Arial" font-size="14.00" fill="#666666">[date]</text>
<polygon fill="none" stroke="black" points="64.91,-943.4 64.91,-974.2 399.85,-974.2 399.85,-943.4 64.91,-943.4"/>
<text text-anchor="start" x="71.91" y="-955.6" font-family="Arial" font-size="14.00">next_achievement_checklist </text>
<text text-anchor="start" x="250.89" y="-955.6" font-family="Arial" font-size="14.00" fill="#666666">[date]</text>
<polygon fill="none" stroke="black" points="64.91,-912.6 64.91,-943.4 399.85,-943.4 399.85,-912.6 64.91,-912.6"/>
<text text-anchor="start" x="71.91" y="-924.8" font-family="Arial" font-size="14.00">next_achievement_isr </text>
<text text-anchor="start" x="211.98" y="-924.8" font-family="Arial" font-size="14.00" fill="#666666">[date]</text>
<polygon fill="none" stroke="black" points="64.91,-881.8 64.91,-912.6 399.85,-912.6 399.85,-881.8 64.91,-881.8"/>
<text text-anchor="start" x="71.91" y="-894" font-family="Arial" font-size="14.00">next_external_simulation </text>
<text text-anchor="start" x="230.67" y="-894" font-family="Arial" font-size="14.00" fill="#666666">[date]</text>
<polygon fill="none" stroke="black" points="64.91,-851 64.91,-881.8 399.85,-881.8 399.85,-851 64.91,-851"/>
<text text-anchor="start" x="71.91" y="-863.2" font-family="Arial" font-size="14.00">next_filling_fsb </text>
<text text-anchor="start" x="168.41" y="-863.2" font-family="Arial" font-size="14.00" fill="#666666">[date]</text>
<polygon fill="none" stroke="black" points="64.91,-820.2 64.91,-851 399.85,-851 399.85,-820.2 64.91,-820.2"/>
<text text-anchor="start" x="71.91" y="-832.4" font-family="Arial" font-size="14.00">next_internal_simulation </text>
<text text-anchor="start" x="226.78" y="-832.4" font-family="Arial" font-size="14.00" fill="#666666">[date]</text>
<polygon fill="none" stroke="black" points="64.91,-789.4 64.91,-820.2 399.85,-820.2 399.85,-789.4 64.91,-789.4"/>
<text text-anchor="start" x="71.91" y="-801.6" font-family="Arial" font-size="14.00">next_update_pae </text>
<text text-anchor="start" x="184.01" y="-801.6" font-family="Arial" font-size="14.00" fill="#666666">[date]</text>
<polygon fill="none" stroke="black" points="64.91,-758.6 64.91,-789.4 399.85,-789.4 399.85,-758.6 64.91,-758.6"/>
<text text-anchor="start" x="71.91" y="-770.8" font-family="Arial" font-size="14.00">next_update_psb </text>
<text text-anchor="start" x="183.22" y="-770.8" font-family="Arial" font-size="14.00" fill="#666666">[date]</text>
<polygon fill="none" stroke="black" points="64.91,-727.8 64.91,-758.6 399.85,-758.6 399.85,-727.8 64.91,-727.8"/>
<text text-anchor="start" x="71.91" y="-740" font-family="Arial" font-size="14.00">next_update_rpsb </text>
<text text-anchor="start" x="187.89" y="-740" font-family="Arial" font-size="14.00" fill="#666666">[date]</text>
<polygon fill="none" stroke="black" points="64.91,-697 64.91,-727.8 399.85,-727.8 399.85,-697 64.91,-697"/>
<text text-anchor="start" x="71.91" y="-709.2" font-family="Arial" font-size="14.00">dam_id </text>
<text text-anchor="start" x="121.71" y="-709.2" font-family="Arial" font-size="14.00" fill="#666666">[bigint]</text>
<polygon fill="none" stroke="black" stroke-width="3" points="63.41,-695.5 63.41,-1288.5 401.35,-1288.5 401.35,-695.5 63.41,-695.5"/>
</g>
<!-- public.dam -->
<g id="node2" class="node">
<title>public.dam</title>
<polygon fill="#efefef" stroke="none" points="122.89,-536 122.89,-571.6 341.86,-571.6 341.86,-536 122.89,-536"/>
<polygon fill="none" stroke="black" points="122.89,-536 122.89,-571.6 341.86,-571.6 341.86,-536 122.89,-536"/>
<text text-anchor="start" x="129.89" y="-549.4" font-family="Arial Bold" font-size="18.00">public.dam</text>
<text text-anchor="start" x="210.38" y="-549.4" font-family="Arial" font-size="14.00">    </text>
<text text-anchor="start" x="241.49" y="-549.4" font-family="Arial" font-size="14.00" fill="#666666">[BASE TABLE]</text>
<polygon fill="none" stroke="black" points="122.89,-505.2 122.89,-536 341.86,-536 341.86,-505.2 122.89,-505.2"/>
<text text-anchor="start" x="129.89" y="-517.4" font-family="Arial" font-size="14.00">id </text>
<text text-anchor="start" x="144.68" y="-517.4" font-family="Arial" font-size="14.00" fill="#666666">[bigint]</text>
<polygon fill="none" stroke="black" points="122.89,-474.4 122.89,-505.2 341.86,-505.2 341.86,-474.4 122.89,-474.4"/>
<text text-anchor="start" x="129.89" y="-486.6" font-family="Arial" font-size="14.00">city </text>
<text text-anchor="start" x="154.78" y="-486.6" font-family="Arial" font-size="14.00" fill="#666666">[varchar(100)]</text>
<polygon fill="none" stroke="black" points="122.89,-443.6 122.89,-474.4 341.86,-474.4 341.86,-443.6 122.89,-443.6"/>
<text text-anchor="start" x="129.89" y="-455.8" font-family="Arial" font-size="14.00">dam_image_path </text>
<text text-anchor="start" x="241.97" y="-455.8" font-family="Arial" font-size="14.00" fill="#666666">[varchar(255)]</text>
<polygon fill="none" stroke="black" points="122.89,-412.8 122.89,-443.6 341.86,-443.6 341.86,-412.8 122.89,-412.8"/>
<text text-anchor="start" x="129.89" y="-425" font-family="Arial" font-size="14.00">latitude </text>
<text text-anchor="start" x="178.93" y="-425" font-family="Arial" font-size="14.00" fill="#666666">[double precision]</text>
<polygon fill="none" stroke="black" points="122.89,-382 122.89,-412.8 341.86,-412.8 341.86,-382 122.89,-382"/>
<text text-anchor="start" x="129.89" y="-394.2" font-family="Arial" font-size="14.00">link_legislation </text>
<text text-anchor="start" x="224.84" y="-394.2" font-family="Arial" font-size="14.00" fill="#666666">[varchar(255)]</text>
<polygon fill="none" stroke="black" points="122.89,-351.2 122.89,-382 341.86,-382 341.86,-351.2 122.89,-351.2"/>
<text text-anchor="start" x="129.89" y="-363.4" font-family="Arial" font-size="14.00">linkpsb </text>
<text text-anchor="start" x="177.36" y="-363.4" font-family="Arial" font-size="14.00" fill="#666666">[varchar(255)]</text>
<polygon fill="none" stroke="black" points="122.89,-320.4 122.89,-351.2 341.86,-351.2 341.86,-320.4 122.89,-320.4"/>
<text text-anchor="start" x="129.89" y="-332.6" font-family="Arial" font-size="14.00">logo_path </text>
<text text-anchor="start" x="195.29" y="-332.6" font-family="Arial" font-size="14.00" fill="#666666">[varchar(255)]</text>
<polygon fill="none" stroke="black" points="122.89,-289.6 122.89,-320.4 341.86,-320.4 341.86,-289.6 122.89,-289.6"/>
<text text-anchor="start" x="129.89" y="-301.8" font-family="Arial" font-size="14.00">longitude </text>
<text text-anchor="start" x="190.61" y="-301.8" font-family="Arial" font-size="14.00" fill="#666666">[double precision]</text>
<polygon fill="none" stroke="black" points="122.89,-258.8 122.89,-289.6 341.86,-289.6 341.86,-258.8 122.89,-258.8"/>
<text text-anchor="start" x="129.89" y="-271" font-family="Arial" font-size="14.00">name </text>
<text text-anchor="start" x="168.8" y="-271" font-family="Arial" font-size="14.00" fill="#666666">[varchar(255)]</text>
<polygon fill="none" stroke="black" points="122.89,-228 122.89,-258.8 341.86,-258.8 341.86,-228 122.89,-228"/>
<text text-anchor="start" x="129.89" y="-240.2" font-family="Arial" font-size="14.00">neighborhood </text>
<text text-anchor="start" x="219.42" y="-240.2" font-family="Arial" font-size="14.00" fill="#666666">[varchar(100)]</text>
<polygon fill="none" stroke="black" points="122.89,-197.2 122.89,-228 341.86,-228 341.86,-197.2 122.89,-197.2"/>
<text text-anchor="start" x="129.89" y="-209.4" font-family="Arial" font-size="14.00">number_address </text>
<text text-anchor="start" x="238.84" y="-209.4" font-family="Arial" font-size="14.00" fill="#666666">[varchar(10)]</text>
<polygon fill="none" stroke="black" points="122.89,-166.4 122.89,-197.2 341.86,-197.2 341.86,-166.4 122.89,-166.4"/>
<text text-anchor="start" x="129.89" y="-178.6" font-family="Arial" font-size="14.00">state </text>
<text text-anchor="start" x="164.13" y="-178.6" font-family="Arial" font-size="14.00" fill="#666666">[varchar(100)]</text>
<polygon fill="none" stroke="black" points="122.89,-135.6 122.89,-166.4 341.86,-166.4 341.86,-135.6 122.89,-135.6"/>
<text text-anchor="start" x="129.89" y="-147.8" font-family="Arial" font-size="14.00">street </text>
<text text-anchor="start" x="168.8" y="-147.8" font-family="Arial" font-size="14.00" fill="#666666">[varchar(255)]</text>
<polygon fill="none" stroke="black" points="122.89,-104.8 122.89,-135.6 341.86,-135.6 341.86,-104.8 122.89,-104.8"/>
<text text-anchor="start" x="129.89" y="-117" font-family="Arial" font-size="14.00">zip_code </text>
<text text-anchor="start" x="189.82" y="-117" font-family="Arial" font-size="14.00" fill="#666666">[varchar(9)]</text>
<polygon fill="none" stroke="black" points="122.89,-74 122.89,-104.8 341.86,-104.8 341.86,-74 122.89,-74"/>
<text text-anchor="start" x="129.89" y="-86.2" font-family="Arial" font-size="14.00">client_id </text>
<text text-anchor="start" x="185.15" y="-86.2" font-family="Arial" font-size="14.00" fill="#666666">[bigint]</text>
<polygon fill="none" stroke="black" points="122.89,-43.2 122.89,-74 341.86,-74 341.86,-43.2 122.89,-43.2"/>
<text text-anchor="start" x="129.89" y="-55.4" font-family="Arial" font-size="14.00">status_id </text>
<text text-anchor="start" x="189.82" y="-55.4" font-family="Arial" font-size="14.00" fill="#666666">[bigint]</text>
</g>
<!-- public.documentation_dam&#45;&gt;public.dam -->
<g id="edge1" class="edge">
<title>public.documentation_dam:dam_id&#45;&gt;public.dam:id</title>
<path fill="none" stroke="black" d="M233.31,-685.7C242.41,-639.25 316.06,-665.4 341.86,-614.8 360.89,-577.5 384.73,-520.6 342.86,-520.6"/>
<polygon fill="black" stroke="black" points="233.31,-685.71 227.93,-695.26 232.83,-691.02 232.44,-695.33 232.44,-695.33 232.44,-695.33 232.83,-691.02 236.89,-696.07 233.31,-685.71"/>
<text text-anchor="start" x="7" y="-706" font-family="Arial" font-size="10.00">FOREIGN KEY (dam_id) REFERENCES dam(id)</text>
</g>
</g>
</svg>
