<?xml version="1.0" encoding="UTF-8" standalone="no"?>
<!DOCTYPE svg PUBLIC "-//W3C//DTD SVG 1.1//EN"
 "http://www.w3.org/Graphics/SVG/1.1/DTD/svg11.dtd">
<!-- Generated by graphviz version 12.1.2 (20240928.0832)
 -->
<!-- Title: public.template_questionnaires Pages: 1 -->
<svg width="1529pt" height="510pt"
 viewBox="0.00 0.00 1529.31 509.60" xmlns="http://www.w3.org/2000/svg" xmlns:xlink="http://www.w3.org/1999/xlink">
<g id="graph0" class="graph" transform="scale(1 1) rotate(0) translate(4 505.6)">
<title>public.template_questionnaires</title>
<polygon fill="white" stroke="none" points="-4,4 -4,-505.6 1525.31,-505.6 1525.31,4 -4,4"/>
<!-- public.template_questionnaires -->
<g id="node1" class="node">
<title>public.template_questionnaires</title>
<polygon fill="#efefef" stroke="none" points="577.19,-107.8 577.19,-143.4 940.11,-143.4 940.11,-107.8 577.19,-107.8"/>
<polygon fill="none" stroke="black" points="577.19,-107.8 577.19,-143.4 940.11,-143.4 940.11,-107.8 577.19,-107.8"/>
<text text-anchor="start" x="584.19" y="-121.2" font-family="Arial Bold" font-size="18.00">public.template_questionnaires</text>
<text text-anchor="start" x="808.62" y="-121.2" font-family="Arial" font-size="14.00">    </text>
<text text-anchor="start" x="839.74" y="-121.2" font-family="Arial" font-size="14.00" fill="#666666">[BASE TABLE]</text>
<polygon fill="none" stroke="black" points="577.19,-77 577.19,-107.8 940.11,-107.8 940.11,-77 577.19,-77"/>
<text text-anchor="start" x="584.19" y="-89.2" font-family="Arial" font-size="14.00">id </text>
<text text-anchor="start" x="598.97" y="-89.2" font-family="Arial" font-size="14.00" fill="#666666">[bigint]</text>
<polygon fill="none" stroke="black" points="577.19,-46.2 577.19,-77 940.11,-77 940.11,-46.2 577.19,-46.2"/>
<text text-anchor="start" x="584.19" y="-58.4" font-family="Arial" font-size="14.00">name </text>
<text text-anchor="start" x="623.1" y="-58.4" font-family="Arial" font-size="14.00" fill="#666666">[varchar(255)]</text>
<polygon fill="none" stroke="black" stroke-width="3" points="575.69,-44.7 575.69,-144.9 941.61,-144.9 941.61,-44.7 575.69,-44.7"/>
</g>
<!-- public.checklist_template_questionnaire -->
<g id="node2" class="node">
<title>public.checklist_template_questionnaire</title>
<polygon fill="#efefef" stroke="none" points="43.2,-376.6 43.2,-412.2 472.1,-412.2 472.1,-376.6 43.2,-376.6"/>
<polygon fill="none" stroke="black" points="43.2,-376.6 43.2,-412.2 472.1,-412.2 472.1,-376.6 43.2,-376.6"/>
<text text-anchor="start" x="50.2" y="-390" font-family="Arial Bold" font-size="18.00">public.checklist_template_questionnaire</text>
<text text-anchor="start" x="340.61" y="-390" font-family="Arial" font-size="14.00">    </text>
<text text-anchor="start" x="371.73" y="-390" font-family="Arial" font-size="14.00" fill="#666666">[BASE TABLE]</text>
<polygon fill="none" stroke="black" points="43.2,-345.8 43.2,-376.6 472.1,-376.6 472.1,-345.8 43.2,-345.8"/>
<text text-anchor="start" x="50.2" y="-358" font-family="Arial" font-size="14.00">checklist_id </text>
<text text-anchor="start" x="126.45" y="-358" font-family="Arial" font-size="14.00" fill="#666666">[bigint]</text>
<polygon fill="none" stroke="black" points="43.2,-315 43.2,-345.8 472.1,-345.8 472.1,-315 43.2,-315"/>
<text text-anchor="start" x="50.2" y="-327.2" font-family="Arial" font-size="14.00">template_questionnaire_id </text>
<text text-anchor="start" x="218.32" y="-327.2" font-family="Arial" font-size="14.00" fill="#666666">[bigint]</text>
</g>
<!-- public.checklist_template_questionnaire&#45;&gt;public.template_questionnaires -->
<g id="edge1" class="edge">
<title>public.checklist_template_questionnaire:template_questionnaire_id&#45;&gt;public.template_questionnaires:id</title>
<path fill="none" stroke="black" d="M483.12,-327.73C529.48,-301.58 522.15,-92.4 576.19,-92.4"/>
<polygon fill="black" stroke="black" points="483.08,-327.74 472.26,-325.97 477.93,-329.11 473.74,-330.23 473.74,-330.23 473.74,-330.23 477.93,-329.11 474.58,-334.66 483.08,-327.74"/>
<text text-anchor="start" x="480.1" y="-340.4" font-family="Arial" font-size="10.00">FOREIGN KEY (template_questionnaire_id) REFERENCES template_questionnaires(id)</text>
</g>
<!-- public.questionnaire_responses -->
<g id="node3" class="node">
<title>public.questionnaire_responses</title>
<polygon fill="#efefef" stroke="none" points="576.68,-422.8 576.68,-458.4 940.62,-458.4 940.62,-422.8 576.68,-422.8"/>
<polygon fill="none" stroke="black" points="576.68,-422.8 576.68,-458.4 940.62,-458.4 940.62,-422.8 576.68,-422.8"/>
<text text-anchor="start" x="583.68" y="-436.2" font-family="Arial Bold" font-size="18.00">public.questionnaire_responses</text>
<text text-anchor="start" x="809.13" y="-436.2" font-family="Arial" font-size="14.00">    </text>
<text text-anchor="start" x="840.25" y="-436.2" font-family="Arial" font-size="14.00" fill="#666666">[BASE TABLE]</text>
<polygon fill="none" stroke="black" points="576.68,-392 576.68,-422.8 940.62,-422.8 940.62,-392 576.68,-392"/>
<text text-anchor="start" x="583.68" y="-404.2" font-family="Arial" font-size="14.00">id </text>
<text text-anchor="start" x="598.47" y="-404.2" font-family="Arial" font-size="14.00" fill="#666666">[bigint]</text>
<polygon fill="none" stroke="black" points="576.68,-361.2 576.68,-392 940.62,-392 940.62,-361.2 576.68,-361.2"/>
<text text-anchor="start" x="583.68" y="-373.4" font-family="Arial" font-size="14.00">created_at </text>
<text text-anchor="start" x="653.73" y="-373.4" font-family="Arial" font-size="14.00" fill="#666666">[timestamp(6) without time zone]</text>
<polygon fill="none" stroke="black" points="576.68,-330.4 576.68,-361.2 940.62,-361.2 940.62,-330.4 576.68,-330.4"/>
<text text-anchor="start" x="583.68" y="-342.6" font-family="Arial" font-size="14.00">checklist_response_id </text>
<text text-anchor="start" x="725.31" y="-342.6" font-family="Arial" font-size="14.00" fill="#666666">[bigint]</text>
<polygon fill="none" stroke="black" points="576.68,-299.6 576.68,-330.4 940.62,-330.4 940.62,-299.6 576.68,-299.6"/>
<text text-anchor="start" x="583.68" y="-311.8" font-family="Arial" font-size="14.00">dam_id </text>
<text text-anchor="start" x="633.49" y="-311.8" font-family="Arial" font-size="14.00" fill="#666666">[bigint]</text>
<polygon fill="none" stroke="black" points="576.68,-268.8 576.68,-299.6 940.62,-299.6 940.62,-268.8 576.68,-268.8"/>
<text text-anchor="start" x="583.68" y="-281" font-family="Arial" font-size="14.00">template_questionnaire_id </text>
<text text-anchor="start" x="751.8" y="-281" font-family="Arial" font-size="14.00" fill="#666666">[bigint]</text>
</g>
<!-- public.questionnaire_responses&#45;&gt;public.template_questionnaires -->
<g id="edge2" class="edge">
<title>public.questionnaire_responses:template_questionnaire_id&#45;&gt;public.template_questionnaires:id</title>
<path fill="none" stroke="black" d="M759.37,-257.4C769.91,-186.8 893.55,-259.57 940.11,-189.6 964.04,-153.63 984.31,-92.4 941.11,-92.4"/>
<polygon fill="black" stroke="black" points="759.36,-257.49 754.18,-267.16 758.99,-262.81 758.69,-267.13 758.69,-267.13 758.69,-267.13 758.99,-262.81 763.16,-267.78 759.36,-257.49"/>
<text text-anchor="start" x="359.26" y="-251.8" font-family="Arial" font-size="10.00">FOREIGN KEY (template_questionnaire_id) REFERENCES template_questionnaires(id)</text>
</g>
<!-- public.template_questionnaire_questions -->
<g id="node4" class="node">
<title>public.template_questionnaire_questions</title>
<polygon fill="#efefef" stroke="none" points="1045.19,-407.4 1045.19,-443 1478.11,-443 1478.11,-407.4 1045.19,-407.4"/>
<polygon fill="none" stroke="black" points="1045.19,-407.4 1045.19,-443 1478.11,-443 1478.11,-407.4 1045.19,-407.4"/>
<text text-anchor="start" x="1052.19" y="-420.8" font-family="Arial Bold" font-size="18.00">public.template_questionnaire_questions</text>
<text text-anchor="start" x="1346.62" y="-420.8" font-family="Arial" font-size="14.00">    </text>
<text text-anchor="start" x="1377.74" y="-420.8" font-family="Arial" font-size="14.00" fill="#666666">[BASE TABLE]</text>
<polygon fill="none" stroke="black" points="1045.19,-376.6 1045.19,-407.4 1478.11,-407.4 1478.11,-376.6 1045.19,-376.6"/>
<text text-anchor="start" x="1052.19" y="-388.8" font-family="Arial" font-size="14.00">id </text>
<text text-anchor="start" x="1066.97" y="-388.8" font-family="Arial" font-size="14.00" fill="#666666">[bigint]</text>
<polygon fill="none" stroke="black" points="1045.19,-345.8 1045.19,-376.6 1478.11,-376.6 1478.11,-345.8 1045.19,-345.8"/>
<text text-anchor="start" x="1052.19" y="-358" font-family="Arial" font-size="14.00">order_index </text>
<text text-anchor="start" x="1130.01" y="-358" font-family="Arial" font-size="14.00" fill="#666666">[integer]</text>
<polygon fill="none" stroke="black" points="1045.19,-315 1045.19,-345.8 1478.11,-345.8 1478.11,-315 1045.19,-315"/>
<text text-anchor="start" x="1052.19" y="-327.2" font-family="Arial" font-size="14.00">question_id </text>
<text text-anchor="start" x="1127.69" y="-327.2" font-family="Arial" font-size="14.00" fill="#666666">[bigint]</text>
<polygon fill="none" stroke="black" points="1045.19,-284.2 1045.19,-315 1478.11,-315 1478.11,-284.2 1045.19,-284.2"/>
<text text-anchor="start" x="1052.19" y="-296.4" font-family="Arial" font-size="14.00">template_questionnaire_id </text>
<text text-anchor="start" x="1220.3" y="-296.4" font-family="Arial" font-size="14.00" fill="#666666">[bigint]</text>
</g>
<!-- public.template_questionnaire_questions&#45;&gt;public.template_questionnaires -->
<g id="edge3" class="edge">
<title>public.template_questionnaire_questions:template_questionnaire_id&#45;&gt;public.template_questionnaires:id</title>
<path fill="none" stroke="black" d="M1033.82,-298.81C948.48,-284.9 1040.25,-92.4 941.11,-92.4"/>
<polygon fill="black" stroke="black" points="1033.88,-298.81 1043.51,-304.06 1039.2,-299.22 1043.52,-299.55 1043.52,-299.55 1043.52,-299.55 1039.2,-299.22 1044.2,-295.09 1033.88,-298.81"/>
<text text-anchor="start" x="1051.19" y="-309.6" font-family="Arial" font-size="10.00">FOREIGN KEY (template_questionnaire_id) REFERENCES template_questionnaires(id)</text>
</g>
</g>
</svg>
