<?xml version="1.0" encoding="UTF-8" standalone="no"?>
<!DOCTYPE svg PUBLIC "-//W3C//DTD SVG 1.1//EN"
 "http://www.w3.org/Graphics/SVG/1.1/DTD/svg11.dtd">
<!-- Generated by graphviz version 12.1.2 (20240928.0832)
 -->
<!-- Title: public.instrument_tabulate_output_association Pages: 1 -->
<svg width="1121pt" height="725pt"
 viewBox="0.00 0.00 1120.93 725.20" xmlns="http://www.w3.org/2000/svg" xmlns:xlink="http://www.w3.org/1999/xlink">
<g id="graph0" class="graph" transform="scale(1 1) rotate(0) translate(4 721.2)">
<title>public.instrument_tabulate_output_association</title>
<polygon fill="white" stroke="none" points="-4,4 -4,-721.2 1116.93,-721.2 1116.93,4 -4,4"/>
<!-- public.instrument_tabulate_output_association -->
<g id="node1" class="node">
<title>public.instrument_tabulate_output_association</title>
<polygon fill="#efefef" stroke="none" points="387.92,-635.4 387.92,-671 862.85,-671 862.85,-635.4 387.92,-635.4"/>
<polygon fill="none" stroke="black" points="387.92,-635.4 387.92,-671 862.85,-671 862.85,-635.4 387.92,-635.4"/>
<text text-anchor="start" x="394.92" y="-648.8" font-family="Arial Bold" font-size="18.00">public.instrument_tabulate_output_association</text>
<text text-anchor="start" x="731.36" y="-648.8" font-family="Arial" font-size="14.00">    </text>
<text text-anchor="start" x="762.48" y="-648.8" font-family="Arial" font-size="14.00" fill="#666666">[BASE TABLE]</text>
<polygon fill="none" stroke="black" points="387.92,-604.6 387.92,-635.4 862.85,-635.4 862.85,-604.6 387.92,-604.6"/>
<text text-anchor="start" x="394.92" y="-616.8" font-family="Arial" font-size="14.00">id </text>
<text text-anchor="start" x="409.71" y="-616.8" font-family="Arial" font-size="14.00" fill="#666666">[bigint]</text>
<polygon fill="none" stroke="black" points="387.92,-573.8 387.92,-604.6 862.85,-604.6 862.85,-573.8 387.92,-573.8"/>
<text text-anchor="start" x="394.92" y="-586" font-family="Arial" font-size="14.00">output_index </text>
<text text-anchor="start" x="478.99" y="-586" font-family="Arial" font-size="14.00" fill="#666666">[integer]</text>
<polygon fill="none" stroke="black" points="387.92,-543 387.92,-573.8 862.85,-573.8 862.85,-543 387.92,-543"/>
<text text-anchor="start" x="394.92" y="-555.2" font-family="Arial" font-size="14.00">association_id </text>
<text text-anchor="start" x="487.54" y="-555.2" font-family="Arial" font-size="14.00" fill="#666666">[bigint]</text>
<polygon fill="none" stroke="black" points="387.92,-512.2 387.92,-543 862.85,-543 862.85,-512.2 387.92,-512.2"/>
<text text-anchor="start" x="394.92" y="-524.4" font-family="Arial" font-size="14.00">output_id </text>
<text text-anchor="start" x="456.42" y="-524.4" font-family="Arial" font-size="14.00" fill="#666666">[bigint]</text>
<polygon fill="none" stroke="black" stroke-width="3" points="386.42,-510.7 386.42,-672.5 864.35,-672.5 864.35,-510.7 386.42,-510.7"/>
</g>
<!-- public.instrument_tabulate_association -->
<g id="node2" class="node">
<title>public.instrument_tabulate_association</title>
<polygon fill="#efefef" stroke="none" points="200.43,-351.2 200.43,-386.8 620.35,-386.8 620.35,-351.2 200.43,-351.2"/>
<polygon fill="none" stroke="black" points="200.43,-351.2 200.43,-386.8 620.35,-386.8 620.35,-351.2 200.43,-351.2"/>
<text text-anchor="start" x="207.43" y="-364.6" font-family="Arial Bold" font-size="18.00">public.instrument_tabulate_association</text>
<text text-anchor="start" x="488.86" y="-364.6" font-family="Arial" font-size="14.00">    </text>
<text text-anchor="start" x="519.98" y="-364.6" font-family="Arial" font-size="14.00" fill="#666666">[BASE TABLE]</text>
<polygon fill="none" stroke="black" points="200.43,-320.4 200.43,-351.2 620.35,-351.2 620.35,-320.4 200.43,-320.4"/>
<text text-anchor="start" x="207.43" y="-332.6" font-family="Arial" font-size="14.00">id </text>
<text text-anchor="start" x="222.21" y="-332.6" font-family="Arial" font-size="14.00" fill="#666666">[bigint]</text>
<polygon fill="none" stroke="black" points="200.43,-289.6 200.43,-320.4 620.35,-320.4 620.35,-289.6 200.43,-289.6"/>
<text text-anchor="start" x="207.43" y="-301.8" font-family="Arial" font-size="14.00">date_index </text>
<text text-anchor="start" x="279.82" y="-301.8" font-family="Arial" font-size="14.00" fill="#666666">[integer]</text>
<polygon fill="none" stroke="black" points="200.43,-258.8 200.43,-289.6 620.35,-289.6 620.35,-258.8 200.43,-258.8"/>
<text text-anchor="start" x="207.43" y="-271" font-family="Arial" font-size="14.00">hour_index </text>
<text text-anchor="start" x="280.59" y="-271" font-family="Arial" font-size="14.00" fill="#666666">[integer]</text>
<polygon fill="none" stroke="black" points="200.43,-228 200.43,-258.8 620.35,-258.8 620.35,-228 200.43,-228"/>
<text text-anchor="start" x="207.43" y="-240.2" font-family="Arial" font-size="14.00">is_date_enable </text>
<text text-anchor="start" x="306.29" y="-240.2" font-family="Arial" font-size="14.00" fill="#666666">[boolean]</text>
<polygon fill="none" stroke="black" points="200.43,-197.2 200.43,-228 620.35,-228 620.35,-197.2 200.43,-197.2"/>
<text text-anchor="start" x="207.43" y="-209.4" font-family="Arial" font-size="14.00">is_hour_enable </text>
<text text-anchor="start" x="307.06" y="-209.4" font-family="Arial" font-size="14.00" fill="#666666">[boolean]</text>
<polygon fill="none" stroke="black" points="200.43,-166.4 200.43,-197.2 620.35,-197.2 620.35,-166.4 200.43,-166.4"/>
<text text-anchor="start" x="207.43" y="-178.6" font-family="Arial" font-size="14.00">is_read_enable </text>
<text text-anchor="start" x="307.06" y="-178.6" font-family="Arial" font-size="14.00" fill="#666666">[boolean]</text>
<polygon fill="none" stroke="black" points="200.43,-135.6 200.43,-166.4 620.35,-166.4 620.35,-135.6 200.43,-135.6"/>
<text text-anchor="start" x="207.43" y="-147.8" font-family="Arial" font-size="14.00">is_user_enable </text>
<text text-anchor="start" x="306.27" y="-147.8" font-family="Arial" font-size="14.00" fill="#666666">[boolean]</text>
<polygon fill="none" stroke="black" points="200.43,-104.8 200.43,-135.6 620.35,-135.6 620.35,-104.8 200.43,-104.8"/>
<text text-anchor="start" x="207.43" y="-117" font-family="Arial" font-size="14.00">user_index </text>
<text text-anchor="start" x="279.8" y="-117" font-family="Arial" font-size="14.00" fill="#666666">[integer]</text>
<polygon fill="none" stroke="black" points="200.43,-74 200.43,-104.8 620.35,-104.8 620.35,-74 200.43,-74"/>
<text text-anchor="start" x="207.43" y="-86.2" font-family="Arial" font-size="14.00">instrument_id </text>
<text text-anchor="start" x="295.36" y="-86.2" font-family="Arial" font-size="14.00" fill="#666666">[bigint]</text>
<polygon fill="none" stroke="black" points="200.43,-43.2 200.43,-74 620.35,-74 620.35,-43.2 200.43,-43.2"/>
<text text-anchor="start" x="207.43" y="-55.4" font-family="Arial" font-size="14.00">pattern_id </text>
<text text-anchor="start" x="273.58" y="-55.4" font-family="Arial" font-size="14.00" fill="#666666">[bigint]</text>
</g>
<!-- public.instrument_tabulate_output_association&#45;&gt;public.instrument_tabulate_association -->
<g id="edge1" class="edge">
<title>public.instrument_tabulate_output_association:association_id&#45;&gt;public.instrument_tabulate_association:id</title>
<path fill="none" stroke="black" d="M376.82,-556.86C348.8,-547.16 363.55,-494.13 387.92,-466 456.38,-387 551.91,-509.01 620.35,-430 647.76,-398.35 663.22,-335.8 621.35,-335.8"/>
<polygon fill="black" stroke="black" points="376.71,-556.84 385.92,-562.8 381.98,-557.65 386.26,-558.3 386.26,-558.3 386.26,-558.3 381.98,-557.65 387.27,-553.9 376.71,-556.84"/>
<text text-anchor="start" x="7" y="-568.4" font-family="Arial" font-size="10.00">FOREIGN KEY (association_id) REFERENCES instrument_tabulate_association(id)</text>
</g>
<!-- public.output -->
<g id="node3" class="node">
<title>public.output</title>
<polygon fill="#efefef" stroke="none" points="724.4,-320.4 724.4,-356 958.38,-356 958.38,-320.4 724.4,-320.4"/>
<polygon fill="none" stroke="black" points="724.4,-320.4 724.4,-356 958.38,-356 958.38,-320.4 724.4,-320.4"/>
<text text-anchor="start" x="731.4" y="-333.8" font-family="Arial Bold" font-size="18.00">public.output</text>
<text text-anchor="start" x="826.89" y="-333.8" font-family="Arial" font-size="14.00">    </text>
<text text-anchor="start" x="858.01" y="-333.8" font-family="Arial" font-size="14.00" fill="#666666">[BASE TABLE]</text>
<polygon fill="none" stroke="black" points="724.4,-289.6 724.4,-320.4 958.38,-320.4 958.38,-289.6 724.4,-289.6"/>
<text text-anchor="start" x="731.4" y="-301.8" font-family="Arial" font-size="14.00">id </text>
<text text-anchor="start" x="746.18" y="-301.8" font-family="Arial" font-size="14.00" fill="#666666">[bigint]</text>
<polygon fill="none" stroke="black" points="724.4,-258.8 724.4,-289.6 958.38,-289.6 958.38,-258.8 724.4,-258.8"/>
<text text-anchor="start" x="731.4" y="-271" font-family="Arial" font-size="14.00">acronym </text>
<text text-anchor="start" x="788.97" y="-271" font-family="Arial" font-size="14.00" fill="#666666">[varchar(255)]</text>
<polygon fill="none" stroke="black" points="724.4,-228 724.4,-258.8 958.38,-258.8 958.38,-228 724.4,-228"/>
<text text-anchor="start" x="731.4" y="-240.2" font-family="Arial" font-size="14.00">active </text>
<text text-anchor="start" x="771.86" y="-240.2" font-family="Arial" font-size="14.00" fill="#666666">[boolean]</text>
<polygon fill="none" stroke="black" points="724.4,-197.2 724.4,-228 958.38,-228 958.38,-197.2 724.4,-197.2"/>
<text text-anchor="start" x="731.4" y="-209.4" font-family="Arial" font-size="14.00">equation </text>
<text text-anchor="start" x="789" y="-209.4" font-family="Arial" font-size="14.00" fill="#666666">[text]</text>
<polygon fill="none" stroke="black" points="724.4,-166.4 724.4,-197.2 958.38,-197.2 958.38,-166.4 724.4,-166.4"/>
<text text-anchor="start" x="731.4" y="-178.6" font-family="Arial" font-size="14.00">name </text>
<text text-anchor="start" x="770.31" y="-178.6" font-family="Arial" font-size="14.00" fill="#666666">[varchar(255)]</text>
<polygon fill="none" stroke="black" points="724.4,-135.6 724.4,-166.4 958.38,-166.4 958.38,-135.6 724.4,-135.6"/>
<text text-anchor="start" x="731.4" y="-147.8" font-family="Arial" font-size="14.00">precision </text>
<text text-anchor="start" x="791.31" y="-147.8" font-family="Arial" font-size="14.00" fill="#666666">[integer]</text>
<polygon fill="none" stroke="black" points="724.4,-104.8 724.4,-135.6 958.38,-135.6 958.38,-104.8 724.4,-104.8"/>
<text text-anchor="start" x="731.4" y="-117" font-family="Arial" font-size="14.00">instrument_id </text>
<text text-anchor="start" x="819.33" y="-117" font-family="Arial" font-size="14.00" fill="#666666">[bigint]</text>
<polygon fill="none" stroke="black" points="724.4,-74 724.4,-104.8 958.38,-104.8 958.38,-74 724.4,-74"/>
<text text-anchor="start" x="731.4" y="-86.2" font-family="Arial" font-size="14.00">measurement_unit_id </text>
<text text-anchor="start" x="869.92" y="-86.2" font-family="Arial" font-size="14.00" fill="#666666">[bigint]</text>
</g>
<!-- public.instrument_tabulate_output_association&#45;&gt;public.output -->
<g id="edge2" class="edge">
<title>public.instrument_tabulate_output_association:output_id&#45;&gt;public.output:id</title>
<path fill="none" stroke="black" d="M873.83,-524.98C886.94,-515.94 875.29,-485.47 862.85,-466 826.05,-408.43 761.03,-456.87 724.4,-399.2 701.95,-363.86 681.53,-305 723.4,-305"/>
<polygon fill="black" stroke="black" points="873.85,-524.98 863.03,-523.16 868.69,-526.33 864.5,-527.43 864.5,-527.43 864.5,-527.43 868.69,-526.33 865.31,-531.87 873.85,-524.98"/>
<text text-anchor="start" x="870.85" y="-537.6" font-family="Arial" font-size="10.00">FOREIGN KEY (output_id) REFERENCES output(id)</text>
</g>
</g>
</svg>
