<?xml version="1.0" encoding="UTF-8" standalone="no"?>
<!DOCTYPE svg PUBLIC "-//W3C//DTD SVG 1.1//EN"
 "http://www.w3.org/Graphics/SVG/1.1/DTD/svg11.dtd">
<!-- Generated by graphviz version 12.1.2 (20240928.0832)
 -->
<!-- Title: public.anomaly_status Pages: 1 -->
<svg width="639pt" height="787pt"
 viewBox="0.00 0.00 638.54 786.80" xmlns="http://www.w3.org/2000/svg" xmlns:xlink="http://www.w3.org/1999/xlink">
<g id="graph0" class="graph" transform="scale(1 1) rotate(0) translate(4 782.8)">
<title>public.anomaly_status</title>
<polygon fill="white" stroke="none" points="-4,4 -4,-782.8 634.54,-782.8 634.54,4 -4,4"/>
<!-- public.anomaly_status -->
<g id="node1" class="node">
<title>public.anomaly_status</title>
<polygon fill="#efefef" stroke="none" points="46.2,-138.6 46.2,-174.2 346.16,-174.2 346.16,-138.6 46.2,-138.6"/>
<polygon fill="none" stroke="black" points="46.2,-138.6 46.2,-174.2 346.16,-174.2 346.16,-138.6 46.2,-138.6"/>
<text text-anchor="start" x="53.2" y="-152" font-family="Arial Bold" font-size="18.00">public.anomaly_status</text>
<text text-anchor="start" x="214.67" y="-152" font-family="Arial" font-size="14.00">    </text>
<text text-anchor="start" x="245.79" y="-152" font-family="Arial" font-size="14.00" fill="#666666">[BASE TABLE]</text>
<polygon fill="none" stroke="black" points="46.2,-107.8 46.2,-138.6 346.16,-138.6 346.16,-107.8 46.2,-107.8"/>
<text text-anchor="start" x="53.2" y="-120" font-family="Arial" font-size="14.00">id </text>
<text text-anchor="start" x="67.99" y="-120" font-family="Arial" font-size="14.00" fill="#666666">[bigint]</text>
<polygon fill="none" stroke="black" points="46.2,-77 46.2,-107.8 346.16,-107.8 346.16,-77 46.2,-77"/>
<text text-anchor="start" x="53.2" y="-89.2" font-family="Arial" font-size="14.00">description </text>
<text text-anchor="start" x="124.79" y="-89.2" font-family="Arial" font-size="14.00" fill="#666666">[varchar(255)]</text>
<polygon fill="none" stroke="black" points="46.2,-46.2 46.2,-77 346.16,-77 346.16,-46.2 46.2,-46.2"/>
<text text-anchor="start" x="53.2" y="-58.4" font-family="Arial" font-size="14.00">name </text>
<text text-anchor="start" x="92.11" y="-58.4" font-family="Arial" font-size="14.00" fill="#666666">[varchar(255)]</text>
<polygon fill="none" stroke="black" stroke-width="3" points="44.7,-44.7 44.7,-175.7 347.66,-175.7 347.66,-44.7 44.7,-44.7"/>
</g>
<!-- public.anomalies -->
<g id="node2" class="node">
<title>public.anomalies</title>
<polygon fill="#efefef" stroke="none" points="53.01,-700 53.01,-735.6 339.35,-735.6 339.35,-700 53.01,-700"/>
<polygon fill="none" stroke="black" points="53.01,-700 53.01,-735.6 339.35,-735.6 339.35,-700 53.01,-700"/>
<text text-anchor="start" x="72.7" y="-713.4" font-family="Arial Bold" font-size="18.00">public.anomalies</text>
<text text-anchor="start" x="195.17" y="-713.4" font-family="Arial" font-size="14.00">    </text>
<text text-anchor="start" x="226.29" y="-713.4" font-family="Arial" font-size="14.00" fill="#666666">[BASE TABLE]</text>
<polygon fill="none" stroke="black" points="53.01,-669.2 53.01,-700 339.35,-700 339.35,-669.2 53.01,-669.2"/>
<text text-anchor="start" x="60.01" y="-681.4" font-family="Arial" font-size="14.00">id </text>
<text text-anchor="start" x="74.8" y="-681.4" font-family="Arial" font-size="14.00" fill="#666666">[bigint]</text>
<polygon fill="none" stroke="black" points="53.01,-638.4 53.01,-669.2 339.35,-669.2 339.35,-638.4 53.01,-638.4"/>
<text text-anchor="start" x="60.01" y="-650.6" font-family="Arial" font-size="14.00">created_at </text>
<text text-anchor="start" x="130.06" y="-650.6" font-family="Arial" font-size="14.00" fill="#666666">[timestamp(6) without time zone]</text>
<polygon fill="none" stroke="black" points="53.01,-607.6 53.01,-638.4 339.35,-638.4 339.35,-607.6 53.01,-607.6"/>
<text text-anchor="start" x="60.01" y="-619.8" font-family="Arial" font-size="14.00">latitude </text>
<text text-anchor="start" x="109.04" y="-619.8" font-family="Arial" font-size="14.00" fill="#666666">[double precision]</text>
<polygon fill="none" stroke="black" points="53.01,-576.8 53.01,-607.6 339.35,-607.6 339.35,-576.8 53.01,-576.8"/>
<text text-anchor="start" x="60.01" y="-589" font-family="Arial" font-size="14.00">longitude </text>
<text text-anchor="start" x="120.73" y="-589" font-family="Arial" font-size="14.00" fill="#666666">[double precision]</text>
<polygon fill="none" stroke="black" points="53.01,-546 53.01,-576.8 339.35,-576.8 339.35,-546 53.01,-546"/>
<text text-anchor="start" x="60.01" y="-558.2" font-family="Arial" font-size="14.00">observation </text>
<text text-anchor="start" x="136.28" y="-558.2" font-family="Arial" font-size="14.00" fill="#666666">[text]</text>
<polygon fill="none" stroke="black" points="53.01,-515.2 53.01,-546 339.35,-546 339.35,-515.2 53.01,-515.2"/>
<text text-anchor="start" x="60.01" y="-527.4" font-family="Arial" font-size="14.00">origin </text>
<text text-anchor="start" x="98.14" y="-527.4" font-family="Arial" font-size="14.00" fill="#666666">[varchar(255)]</text>
<polygon fill="none" stroke="black" points="53.01,-484.4 53.01,-515.2 339.35,-515.2 339.35,-484.4 53.01,-484.4"/>
<text text-anchor="start" x="60.01" y="-496.6" font-family="Arial" font-size="14.00">question_id </text>
<text text-anchor="start" x="135.51" y="-496.6" font-family="Arial" font-size="14.00" fill="#666666">[bigint]</text>
<polygon fill="none" stroke="black" points="53.01,-453.6 53.01,-484.4 339.35,-484.4 339.35,-453.6 53.01,-453.6"/>
<text text-anchor="start" x="60.01" y="-465.8" font-family="Arial" font-size="14.00">questionnaire_id </text>
<text text-anchor="start" x="166.64" y="-465.8" font-family="Arial" font-size="14.00" fill="#666666">[bigint]</text>
<polygon fill="none" stroke="black" points="53.01,-422.8 53.01,-453.6 339.35,-453.6 339.35,-422.8 53.01,-422.8"/>
<text text-anchor="start" x="60.01" y="-435" font-family="Arial" font-size="14.00">recommendation </text>
<text text-anchor="start" x="168.17" y="-435" font-family="Arial" font-size="14.00" fill="#666666">[text]</text>
<polygon fill="none" stroke="black" points="53.01,-392 53.01,-422.8 339.35,-422.8 339.35,-392 53.01,-392"/>
<text text-anchor="start" x="60.01" y="-404.2" font-family="Arial" font-size="14.00">dam_id </text>
<text text-anchor="start" x="109.82" y="-404.2" font-family="Arial" font-size="14.00" fill="#666666">[bigint]</text>
<polygon fill="none" stroke="black" points="53.01,-361.2 53.01,-392 339.35,-392 339.35,-361.2 53.01,-361.2"/>
<text text-anchor="start" x="60.01" y="-373.4" font-family="Arial" font-size="14.00">danger_level_id </text>
<text text-anchor="start" x="162.75" y="-373.4" font-family="Arial" font-size="14.00" fill="#666666">[bigint]</text>
<polygon fill="none" stroke="black" points="53.01,-330.4 53.01,-361.2 339.35,-361.2 339.35,-330.4 53.01,-330.4"/>
<text text-anchor="start" x="60.01" y="-342.6" font-family="Arial" font-size="14.00">status_id </text>
<text text-anchor="start" x="119.93" y="-342.6" font-family="Arial" font-size="14.00" fill="#666666">[bigint]</text>
<polygon fill="none" stroke="black" points="53.01,-299.6 53.01,-330.4 339.35,-330.4 339.35,-299.6 53.01,-299.6"/>
<text text-anchor="start" x="60.01" y="-311.8" font-family="Arial" font-size="14.00">user_id </text>
<text text-anchor="start" x="109.82" y="-311.8" font-family="Arial" font-size="14.00" fill="#666666">[bigint]</text>
</g>
<!-- public.anomalies&#45;&gt;public.anomaly_status -->
<g id="edge1" class="edge">
<title>public.anomalies:status_id&#45;&gt;public.anomaly_status:id</title>
<path fill="none" stroke="black" d="M350.15,-342.65C390.52,-315.6 393.17,-123.2 347.16,-123.2"/>
<polygon fill="black" stroke="black" points="350.19,-342.64 339.3,-341.41 345.11,-344.27 340.99,-345.6 340.99,-345.6 340.99,-345.6 345.11,-344.27 342.05,-349.98 350.19,-342.64"/>
<text text-anchor="start" x="347.35" y="-355.8" font-family="Arial" font-size="10.00">FOREIGN KEY (status_id) REFERENCES anomaly_status(id)</text>
</g>
</g>
</svg>
