<?xml version="1.0" encoding="UTF-8" standalone="no"?>
<!DOCTYPE svg PUBLIC "-//W3C//DTD SVG 1.1//EN"
 "http://www.w3.org/Graphics/SVG/1.1/DTD/svg11.dtd">
<!-- Generated by graphviz version 12.1.2 (20240928.0832)
 -->
<!-- Title: public.instrument_tabulate_pattern Pages: 1 -->
<svg width="1006pt" height="1376pt"
 viewBox="0.00 0.00 1005.89 1376.00" xmlns="http://www.w3.org/2000/svg" xmlns:xlink="http://www.w3.org/1999/xlink">
<g id="graph0" class="graph" transform="scale(1 1) rotate(0) translate(4 1372)">
<title>public.instrument_tabulate_pattern</title>
<polygon fill="white" stroke="none" points="-4,4 -4,-1372 1001.89,-1372 1001.89,4 -4,4"/>
<!-- public.instrument_tabulate_pattern -->
<g id="node1" class="node">
<title>public.instrument_tabulate_pattern</title>
<polygon fill="#efefef" stroke="none" points="233.38,-820.2 233.38,-855.8 623.3,-855.8 623.3,-820.2 233.38,-820.2"/>
<polygon fill="none" stroke="black" points="233.38,-820.2 233.38,-855.8 623.3,-855.8 623.3,-820.2 233.38,-820.2"/>
<text text-anchor="start" x="240.38" y="-833.6" font-family="Arial Bold" font-size="18.00">public.instrument_tabulate_pattern</text>
<text text-anchor="start" x="491.81" y="-833.6" font-family="Arial" font-size="14.00">    </text>
<text text-anchor="start" x="522.92" y="-833.6" font-family="Arial" font-size="14.00" fill="#666666">[BASE TABLE]</text>
<polygon fill="none" stroke="black" points="233.38,-789.4 233.38,-820.2 623.3,-820.2 623.3,-789.4 233.38,-789.4"/>
<text text-anchor="start" x="240.38" y="-801.6" font-family="Arial" font-size="14.00">id </text>
<text text-anchor="start" x="255.17" y="-801.6" font-family="Arial" font-size="14.00" fill="#666666">[bigint]</text>
<polygon fill="none" stroke="black" points="233.38,-758.6 233.38,-789.4 623.3,-789.4 623.3,-758.6 233.38,-758.6"/>
<text text-anchor="start" x="240.38" y="-770.8" font-family="Arial" font-size="14.00">name </text>
<text text-anchor="start" x="279.29" y="-770.8" font-family="Arial" font-size="14.00" fill="#666666">[varchar(255)]</text>
<polygon fill="none" stroke="black" points="233.38,-727.8 233.38,-758.6 623.3,-758.6 623.3,-727.8 233.38,-727.8"/>
<text text-anchor="start" x="240.38" y="-740" font-family="Arial" font-size="14.00">dam_id </text>
<text text-anchor="start" x="290.19" y="-740" font-family="Arial" font-size="14.00" fill="#666666">[bigint]</text>
<polygon fill="none" stroke="black" points="233.38,-697 233.38,-727.8 623.3,-727.8 623.3,-697 233.38,-697"/>
<text text-anchor="start" x="240.38" y="-709.2" font-family="Arial" font-size="14.00">folder_id </text>
<text text-anchor="start" x="297.97" y="-709.2" font-family="Arial" font-size="14.00" fill="#666666">[bigint]</text>
<polygon fill="none" stroke="black" stroke-width="3" points="231.88,-695.5 231.88,-857.3 624.8,-857.3 624.8,-695.5 231.88,-695.5"/>
</g>
<!-- public.dam -->
<g id="node3" class="node">
<title>public.dam</title>
<polygon fill="#efefef" stroke="none" points="101.85,-536 101.85,-571.6 320.82,-571.6 320.82,-536 101.85,-536"/>
<polygon fill="none" stroke="black" points="101.85,-536 101.85,-571.6 320.82,-571.6 320.82,-536 101.85,-536"/>
<text text-anchor="start" x="108.85" y="-549.4" font-family="Arial Bold" font-size="18.00">public.dam</text>
<text text-anchor="start" x="189.33" y="-549.4" font-family="Arial" font-size="14.00">    </text>
<text text-anchor="start" x="220.45" y="-549.4" font-family="Arial" font-size="14.00" fill="#666666">[BASE TABLE]</text>
<polygon fill="none" stroke="black" points="101.85,-505.2 101.85,-536 320.82,-536 320.82,-505.2 101.85,-505.2"/>
<text text-anchor="start" x="108.85" y="-517.4" font-family="Arial" font-size="14.00">id </text>
<text text-anchor="start" x="123.64" y="-517.4" font-family="Arial" font-size="14.00" fill="#666666">[bigint]</text>
<polygon fill="none" stroke="black" points="101.85,-474.4 101.85,-505.2 320.82,-505.2 320.82,-474.4 101.85,-474.4"/>
<text text-anchor="start" x="108.85" y="-486.6" font-family="Arial" font-size="14.00">city </text>
<text text-anchor="start" x="133.74" y="-486.6" font-family="Arial" font-size="14.00" fill="#666666">[varchar(100)]</text>
<polygon fill="none" stroke="black" points="101.85,-443.6 101.85,-474.4 320.82,-474.4 320.82,-443.6 101.85,-443.6"/>
<text text-anchor="start" x="108.85" y="-455.8" font-family="Arial" font-size="14.00">dam_image_path </text>
<text text-anchor="start" x="220.93" y="-455.8" font-family="Arial" font-size="14.00" fill="#666666">[varchar(255)]</text>
<polygon fill="none" stroke="black" points="101.85,-412.8 101.85,-443.6 320.82,-443.6 320.82,-412.8 101.85,-412.8"/>
<text text-anchor="start" x="108.85" y="-425" font-family="Arial" font-size="14.00">latitude </text>
<text text-anchor="start" x="157.89" y="-425" font-family="Arial" font-size="14.00" fill="#666666">[double precision]</text>
<polygon fill="none" stroke="black" points="101.85,-382 101.85,-412.8 320.82,-412.8 320.82,-382 101.85,-382"/>
<text text-anchor="start" x="108.85" y="-394.2" font-family="Arial" font-size="14.00">link_legislation </text>
<text text-anchor="start" x="203.8" y="-394.2" font-family="Arial" font-size="14.00" fill="#666666">[varchar(255)]</text>
<polygon fill="none" stroke="black" points="101.85,-351.2 101.85,-382 320.82,-382 320.82,-351.2 101.85,-351.2"/>
<text text-anchor="start" x="108.85" y="-363.4" font-family="Arial" font-size="14.00">linkpsb </text>
<text text-anchor="start" x="156.32" y="-363.4" font-family="Arial" font-size="14.00" fill="#666666">[varchar(255)]</text>
<polygon fill="none" stroke="black" points="101.85,-320.4 101.85,-351.2 320.82,-351.2 320.82,-320.4 101.85,-320.4"/>
<text text-anchor="start" x="108.85" y="-332.6" font-family="Arial" font-size="14.00">logo_path </text>
<text text-anchor="start" x="174.25" y="-332.6" font-family="Arial" font-size="14.00" fill="#666666">[varchar(255)]</text>
<polygon fill="none" stroke="black" points="101.85,-289.6 101.85,-320.4 320.82,-320.4 320.82,-289.6 101.85,-289.6"/>
<text text-anchor="start" x="108.85" y="-301.8" font-family="Arial" font-size="14.00">longitude </text>
<text text-anchor="start" x="169.57" y="-301.8" font-family="Arial" font-size="14.00" fill="#666666">[double precision]</text>
<polygon fill="none" stroke="black" points="101.85,-258.8 101.85,-289.6 320.82,-289.6 320.82,-258.8 101.85,-258.8"/>
<text text-anchor="start" x="108.85" y="-271" font-family="Arial" font-size="14.00">name </text>
<text text-anchor="start" x="147.76" y="-271" font-family="Arial" font-size="14.00" fill="#666666">[varchar(255)]</text>
<polygon fill="none" stroke="black" points="101.85,-228 101.85,-258.8 320.82,-258.8 320.82,-228 101.85,-228"/>
<text text-anchor="start" x="108.85" y="-240.2" font-family="Arial" font-size="14.00">neighborhood </text>
<text text-anchor="start" x="198.38" y="-240.2" font-family="Arial" font-size="14.00" fill="#666666">[varchar(100)]</text>
<polygon fill="none" stroke="black" points="101.85,-197.2 101.85,-228 320.82,-228 320.82,-197.2 101.85,-197.2"/>
<text text-anchor="start" x="108.85" y="-209.4" font-family="Arial" font-size="14.00">number_address </text>
<text text-anchor="start" x="217.8" y="-209.4" font-family="Arial" font-size="14.00" fill="#666666">[varchar(10)]</text>
<polygon fill="none" stroke="black" points="101.85,-166.4 101.85,-197.2 320.82,-197.2 320.82,-166.4 101.85,-166.4"/>
<text text-anchor="start" x="108.85" y="-178.6" font-family="Arial" font-size="14.00">state </text>
<text text-anchor="start" x="143.09" y="-178.6" font-family="Arial" font-size="14.00" fill="#666666">[varchar(100)]</text>
<polygon fill="none" stroke="black" points="101.85,-135.6 101.85,-166.4 320.82,-166.4 320.82,-135.6 101.85,-135.6"/>
<text text-anchor="start" x="108.85" y="-147.8" font-family="Arial" font-size="14.00">street </text>
<text text-anchor="start" x="147.76" y="-147.8" font-family="Arial" font-size="14.00" fill="#666666">[varchar(255)]</text>
<polygon fill="none" stroke="black" points="101.85,-104.8 101.85,-135.6 320.82,-135.6 320.82,-104.8 101.85,-104.8"/>
<text text-anchor="start" x="108.85" y="-117" font-family="Arial" font-size="14.00">zip_code </text>
<text text-anchor="start" x="168.78" y="-117" font-family="Arial" font-size="14.00" fill="#666666">[varchar(9)]</text>
<polygon fill="none" stroke="black" points="101.85,-74 101.85,-104.8 320.82,-104.8 320.82,-74 101.85,-74"/>
<text text-anchor="start" x="108.85" y="-86.2" font-family="Arial" font-size="14.00">client_id </text>
<text text-anchor="start" x="164.11" y="-86.2" font-family="Arial" font-size="14.00" fill="#666666">[bigint]</text>
<polygon fill="none" stroke="black" points="101.85,-43.2 101.85,-74 320.82,-74 320.82,-43.2 101.85,-43.2"/>
<text text-anchor="start" x="108.85" y="-55.4" font-family="Arial" font-size="14.00">status_id </text>
<text text-anchor="start" x="168.78" y="-55.4" font-family="Arial" font-size="14.00" fill="#666666">[bigint]</text>
</g>
<!-- public.instrument_tabulate_pattern&#45;&gt;public.dam -->
<g id="edge2" class="edge">
<title>public.instrument_tabulate_pattern:dam_id&#45;&gt;public.dam:id</title>
<path fill="none" stroke="black" d="M222.37,-741.73C194.91,-732.46 212.5,-681.61 233.38,-650.8 256.96,-616.01 297.25,-649.6 320.82,-614.8 344.31,-580.14 363.69,-520.6 321.82,-520.6"/>
<polygon fill="black" stroke="black" points="222.15,-741.7 231.39,-747.6 227.43,-742.47 231.72,-743.1 231.72,-743.1 231.72,-743.1 227.43,-742.47 232.7,-738.7 222.15,-741.7"/>
<text text-anchor="start" x="7" y="-753.2" font-family="Arial" font-size="10.00">FOREIGN KEY (dam_id) REFERENCES dam(id)</text>
</g>
<!-- public.instrument_tabulate_pattern_folder -->
<g id="node4" class="node">
<title>public.instrument_tabulate_pattern_folder</title>
<polygon fill="#efefef" stroke="none" points="425.39,-335.8 425.39,-371.4 867.29,-371.4 867.29,-335.8 425.39,-335.8"/>
<polygon fill="none" stroke="black" points="425.39,-335.8 425.39,-371.4 867.29,-371.4 867.29,-335.8 425.39,-335.8"/>
<text text-anchor="start" x="432.39" y="-349.2" font-family="Arial Bold" font-size="18.00">public.instrument_tabulate_pattern_folder</text>
<text text-anchor="start" x="735.8" y="-349.2" font-family="Arial" font-size="14.00">    </text>
<text text-anchor="start" x="766.91" y="-349.2" font-family="Arial" font-size="14.00" fill="#666666">[BASE TABLE]</text>
<polygon fill="none" stroke="black" points="425.39,-305 425.39,-335.8 867.29,-335.8 867.29,-305 425.39,-305"/>
<text text-anchor="start" x="432.39" y="-317.2" font-family="Arial" font-size="14.00">id </text>
<text text-anchor="start" x="447.18" y="-317.2" font-family="Arial" font-size="14.00" fill="#666666">[bigint]</text>
<polygon fill="none" stroke="black" points="425.39,-274.2 425.39,-305 867.29,-305 867.29,-274.2 425.39,-274.2"/>
<text text-anchor="start" x="432.39" y="-286.4" font-family="Arial" font-size="14.00">name </text>
<text text-anchor="start" x="471.3" y="-286.4" font-family="Arial" font-size="14.00" fill="#666666">[varchar(255)]</text>
<polygon fill="none" stroke="black" points="425.39,-243.4 425.39,-274.2 867.29,-274.2 867.29,-243.4 425.39,-243.4"/>
<text text-anchor="start" x="432.39" y="-255.6" font-family="Arial" font-size="14.00">dam_id </text>
<text text-anchor="start" x="482.2" y="-255.6" font-family="Arial" font-size="14.00" fill="#666666">[bigint]</text>
</g>
<!-- public.instrument_tabulate_pattern&#45;&gt;public.instrument_tabulate_pattern_folder -->
<g id="edge3" class="edge">
<title>public.instrument_tabulate_pattern:folder_id&#45;&gt;public.instrument_tabulate_pattern_folder:id</title>
<path fill="none" stroke="black" d="M634.29,-709.7C645.75,-700.88 631.29,-672.25 623.3,-650.8 575.46,-522.47 472.87,-543.06 425.39,-414.6 410.88,-375.33 382.52,-320.4 424.39,-320.4"/>
<polygon fill="black" stroke="black" points="634.27,-709.71 623.45,-707.97 629.12,-711.1 624.94,-712.23 624.94,-712.23 624.94,-712.23 629.12,-711.1 625.79,-716.66 634.27,-709.71"/>
<text text-anchor="start" x="631.3" y="-722.4" font-family="Arial" font-size="10.00">FOREIGN KEY (folder_id) REFERENCES instrument_tabulate_pattern_folder(id)</text>
</g>
<!-- public.instrument_tabulate_association -->
<g id="node2" class="node">
<title>public.instrument_tabulate_association</title>
<polygon fill="#efefef" stroke="none" points="218.38,-1289.2 218.38,-1324.8 638.3,-1324.8 638.3,-1289.2 218.38,-1289.2"/>
<polygon fill="none" stroke="black" points="218.38,-1289.2 218.38,-1324.8 638.3,-1324.8 638.3,-1289.2 218.38,-1289.2"/>
<text text-anchor="start" x="225.38" y="-1302.6" font-family="Arial Bold" font-size="18.00">public.instrument_tabulate_association</text>
<text text-anchor="start" x="506.81" y="-1302.6" font-family="Arial" font-size="14.00">    </text>
<text text-anchor="start" x="537.93" y="-1302.6" font-family="Arial" font-size="14.00" fill="#666666">[BASE TABLE]</text>
<polygon fill="none" stroke="black" points="218.38,-1258.4 218.38,-1289.2 638.3,-1289.2 638.3,-1258.4 218.38,-1258.4"/>
<text text-anchor="start" x="225.38" y="-1270.6" font-family="Arial" font-size="14.00">id </text>
<text text-anchor="start" x="240.16" y="-1270.6" font-family="Arial" font-size="14.00" fill="#666666">[bigint]</text>
<polygon fill="none" stroke="black" points="218.38,-1227.6 218.38,-1258.4 638.3,-1258.4 638.3,-1227.6 218.38,-1227.6"/>
<text text-anchor="start" x="225.38" y="-1239.8" font-family="Arial" font-size="14.00">date_index </text>
<text text-anchor="start" x="297.77" y="-1239.8" font-family="Arial" font-size="14.00" fill="#666666">[integer]</text>
<polygon fill="none" stroke="black" points="218.38,-1196.8 218.38,-1227.6 638.3,-1227.6 638.3,-1196.8 218.38,-1196.8"/>
<text text-anchor="start" x="225.38" y="-1209" font-family="Arial" font-size="14.00">hour_index </text>
<text text-anchor="start" x="298.54" y="-1209" font-family="Arial" font-size="14.00" fill="#666666">[integer]</text>
<polygon fill="none" stroke="black" points="218.38,-1166 218.38,-1196.8 638.3,-1196.8 638.3,-1166 218.38,-1166"/>
<text text-anchor="start" x="225.38" y="-1178.2" font-family="Arial" font-size="14.00">is_date_enable </text>
<text text-anchor="start" x="324.24" y="-1178.2" font-family="Arial" font-size="14.00" fill="#666666">[boolean]</text>
<polygon fill="none" stroke="black" points="218.38,-1135.2 218.38,-1166 638.3,-1166 638.3,-1135.2 218.38,-1135.2"/>
<text text-anchor="start" x="225.38" y="-1147.4" font-family="Arial" font-size="14.00">is_hour_enable </text>
<text text-anchor="start" x="325.01" y="-1147.4" font-family="Arial" font-size="14.00" fill="#666666">[boolean]</text>
<polygon fill="none" stroke="black" points="218.38,-1104.4 218.38,-1135.2 638.3,-1135.2 638.3,-1104.4 218.38,-1104.4"/>
<text text-anchor="start" x="225.38" y="-1116.6" font-family="Arial" font-size="14.00">is_read_enable </text>
<text text-anchor="start" x="325.01" y="-1116.6" font-family="Arial" font-size="14.00" fill="#666666">[boolean]</text>
<polygon fill="none" stroke="black" points="218.38,-1073.6 218.38,-1104.4 638.3,-1104.4 638.3,-1073.6 218.38,-1073.6"/>
<text text-anchor="start" x="225.38" y="-1085.8" font-family="Arial" font-size="14.00">is_user_enable </text>
<text text-anchor="start" x="324.22" y="-1085.8" font-family="Arial" font-size="14.00" fill="#666666">[boolean]</text>
<polygon fill="none" stroke="black" points="218.38,-1042.8 218.38,-1073.6 638.3,-1073.6 638.3,-1042.8 218.38,-1042.8"/>
<text text-anchor="start" x="225.38" y="-1055" font-family="Arial" font-size="14.00">user_index </text>
<text text-anchor="start" x="297.75" y="-1055" font-family="Arial" font-size="14.00" fill="#666666">[integer]</text>
<polygon fill="none" stroke="black" points="218.38,-1012 218.38,-1042.8 638.3,-1042.8 638.3,-1012 218.38,-1012"/>
<text text-anchor="start" x="225.38" y="-1024.2" font-family="Arial" font-size="14.00">instrument_id </text>
<text text-anchor="start" x="313.31" y="-1024.2" font-family="Arial" font-size="14.00" fill="#666666">[bigint]</text>
<polygon fill="none" stroke="black" points="218.38,-981.2 218.38,-1012 638.3,-1012 638.3,-981.2 218.38,-981.2"/>
<text text-anchor="start" x="225.38" y="-993.4" font-family="Arial" font-size="14.00">pattern_id </text>
<text text-anchor="start" x="291.53" y="-993.4" font-family="Arial" font-size="14.00" fill="#666666">[bigint]</text>
</g>
<!-- public.instrument_tabulate_association&#45;&gt;public.instrument_tabulate_pattern -->
<g id="edge1" class="edge">
<title>public.instrument_tabulate_association:pattern_id&#45;&gt;public.instrument_tabulate_pattern:id</title>
<path fill="none" stroke="black" d="M428.98,-970.09C439.32,-893.79 572.66,-976.05 623.3,-902 647.68,-866.34 667.5,-804.8 624.3,-804.8"/>
<polygon fill="black" stroke="black" points="428.99,-969.89 423.87,-979.58 428.65,-975.21 428.38,-979.53 428.38,-979.53 428.38,-979.53 428.65,-975.21 432.85,-980.15 428.99,-969.89"/>
<text text-anchor="start" x="86.21" y="-990.2" font-family="Arial" font-size="10.00">FOREIGN KEY (pattern_id) REFERENCES instrument_tabulate_pattern(id)</text>
</g>
</g>
</svg>
