<?xml version="1.0" encoding="UTF-8" standalone="no"?>
<!DOCTYPE svg PUBLIC "-//W3C//DTD SVG 1.1//EN"
 "http://www.w3.org/Graphics/SVG/1.1/DTD/svg11.dtd">
<!-- Generated by graphviz version 12.1.2 (20240928.0832)
 -->
<!-- Title: public.constant Pages: 1 -->
<svg width="1000pt" height="1561pt"
 viewBox="0.00 0.00 999.94 1560.80" xmlns="http://www.w3.org/2000/svg" xmlns:xlink="http://www.w3.org/1999/xlink">
<g id="graph0" class="graph" transform="scale(1 1) rotate(0) translate(4 1556.8)">
<title>public.constant</title>
<polygon fill="white" stroke="none" points="-4,4 -4,-1556.8 995.94,-1556.8 995.94,4 -4,4"/>
<!-- public.constant -->
<g id="node1" class="node">
<title>public.constant</title>
<polygon fill="#efefef" stroke="none" points="344.93,-881.8 344.93,-917.4 592.9,-917.4 592.9,-881.8 344.93,-881.8"/>
<polygon fill="none" stroke="black" points="344.93,-881.8 344.93,-917.4 592.9,-917.4 592.9,-881.8 344.93,-881.8"/>
<text text-anchor="start" x="351.93" y="-895.2" font-family="Arial Bold" font-size="18.00">public.constant</text>
<text text-anchor="start" x="461.41" y="-895.2" font-family="Arial" font-size="14.00">    </text>
<text text-anchor="start" x="492.52" y="-895.2" font-family="Arial" font-size="14.00" fill="#666666">[BASE TABLE]</text>
<polygon fill="none" stroke="black" points="344.93,-851 344.93,-881.8 592.9,-881.8 592.9,-851 344.93,-851"/>
<text text-anchor="start" x="351.93" y="-863.2" font-family="Arial" font-size="14.00">id </text>
<text text-anchor="start" x="366.72" y="-863.2" font-family="Arial" font-size="14.00" fill="#666666">[bigint]</text>
<polygon fill="none" stroke="black" points="344.93,-820.2 344.93,-851 592.9,-851 592.9,-820.2 344.93,-820.2"/>
<text text-anchor="start" x="351.93" y="-832.4" font-family="Arial" font-size="14.00">acronym </text>
<text text-anchor="start" x="409.5" y="-832.4" font-family="Arial" font-size="14.00" fill="#666666">[varchar(255)]</text>
<polygon fill="none" stroke="black" points="344.93,-789.4 344.93,-820.2 592.9,-820.2 592.9,-789.4 344.93,-789.4"/>
<text text-anchor="start" x="351.93" y="-801.6" font-family="Arial" font-size="14.00">name </text>
<text text-anchor="start" x="390.84" y="-801.6" font-family="Arial" font-size="14.00" fill="#666666">[varchar(255)]</text>
<polygon fill="none" stroke="black" points="344.93,-758.6 344.93,-789.4 592.9,-789.4 592.9,-758.6 344.93,-758.6"/>
<text text-anchor="start" x="351.93" y="-770.8" font-family="Arial" font-size="14.00">precision </text>
<text text-anchor="start" x="411.85" y="-770.8" font-family="Arial" font-size="14.00" fill="#666666">[integer]</text>
<polygon fill="none" stroke="black" points="344.93,-727.8 344.93,-758.6 592.9,-758.6 592.9,-727.8 344.93,-727.8"/>
<text text-anchor="start" x="351.93" y="-740" font-family="Arial" font-size="14.00">value </text>
<text text-anchor="start" x="389.29" y="-740" font-family="Arial" font-size="14.00" fill="#666666">[double precision]</text>
<polygon fill="none" stroke="black" points="344.93,-697 344.93,-727.8 592.9,-727.8 592.9,-697 344.93,-697"/>
<text text-anchor="start" x="351.93" y="-709.2" font-family="Arial" font-size="14.00">instrument_id </text>
<text text-anchor="start" x="439.86" y="-709.2" font-family="Arial" font-size="14.00" fill="#666666">[bigint]</text>
<polygon fill="none" stroke="black" points="344.93,-666.2 344.93,-697 592.9,-697 592.9,-666.2 344.93,-666.2"/>
<text text-anchor="start" x="351.93" y="-678.4" font-family="Arial" font-size="14.00">measurement_unit_id </text>
<text text-anchor="start" x="490.45" y="-678.4" font-family="Arial" font-size="14.00" fill="#666666">[bigint]</text>
<polygon fill="none" stroke="black" stroke-width="3" points="343.43,-664.7 343.43,-918.9 594.4,-918.9 594.4,-664.7 343.43,-664.7"/>
</g>
<!-- public.instrument -->
<g id="node3" class="node">
<title>public.instrument</title>
<polygon fill="#efefef" stroke="none" points="43.2,-505.2 43.2,-540.8 434.63,-540.8 434.63,-505.2 43.2,-505.2"/>
<polygon fill="none" stroke="black" points="43.2,-505.2 43.2,-540.8 434.63,-540.8 434.63,-505.2 43.2,-505.2"/>
<text text-anchor="start" x="113.43" y="-518.6" font-family="Arial Bold" font-size="18.00">public.instrument</text>
<text text-anchor="start" x="239.91" y="-518.6" font-family="Arial" font-size="14.00">    </text>
<text text-anchor="start" x="271.03" y="-518.6" font-family="Arial" font-size="14.00" fill="#666666">[BASE TABLE]</text>
<polygon fill="none" stroke="black" points="43.2,-474.4 43.2,-505.2 434.63,-505.2 434.63,-474.4 43.2,-474.4"/>
<text text-anchor="start" x="50.2" y="-486.6" font-family="Arial" font-size="14.00">id </text>
<text text-anchor="start" x="64.99" y="-486.6" font-family="Arial" font-size="14.00" fill="#666666">[bigint]</text>
<polygon fill="none" stroke="black" points="43.2,-443.6 43.2,-474.4 434.63,-474.4 434.63,-443.6 43.2,-443.6"/>
<text text-anchor="start" x="50.2" y="-455.8" font-family="Arial" font-size="14.00">active </text>
<text text-anchor="start" x="90.66" y="-455.8" font-family="Arial" font-size="14.00" fill="#666666">[boolean]</text>
<polygon fill="none" stroke="black" points="43.2,-412.8 43.2,-443.6 434.63,-443.6 434.63,-412.8 43.2,-412.8"/>
<text text-anchor="start" x="50.2" y="-425" font-family="Arial" font-size="14.00">active_for_section </text>
<text text-anchor="start" x="166.93" y="-425" font-family="Arial" font-size="14.00" fill="#666666">[boolean]</text>
<polygon fill="none" stroke="black" points="43.2,-382 43.2,-412.8 434.63,-412.8 434.63,-382 43.2,-382"/>
<text text-anchor="start" x="50.2" y="-394.2" font-family="Arial" font-size="14.00">distance_offset </text>
<text text-anchor="start" x="148.26" y="-394.2" font-family="Arial" font-size="14.00" fill="#666666">[double precision]</text>
<polygon fill="none" stroke="black" points="43.2,-351.2 43.2,-382 434.63,-382 434.63,-351.2 43.2,-351.2"/>
<text text-anchor="start" x="50.2" y="-363.4" font-family="Arial" font-size="14.00">is_linimetric_ruler </text>
<text text-anchor="start" x="163.01" y="-363.4" font-family="Arial" font-size="14.00" fill="#666666">[boolean]</text>
<polygon fill="none" stroke="black" points="43.2,-320.4 43.2,-351.2 434.63,-351.2 434.63,-320.4 43.2,-320.4"/>
<text text-anchor="start" x="50.2" y="-332.6" font-family="Arial" font-size="14.00">last_update_variables_date </text>
<text text-anchor="start" x="225.33" y="-332.6" font-family="Arial" font-size="14.00" fill="#666666">[timestamp(6) without time zone]</text>
<polygon fill="none" stroke="black" points="43.2,-289.6 43.2,-320.4 434.63,-320.4 434.63,-289.6 43.2,-289.6"/>
<text text-anchor="start" x="50.2" y="-301.8" font-family="Arial" font-size="14.00">latitude </text>
<text text-anchor="start" x="99.23" y="-301.8" font-family="Arial" font-size="14.00" fill="#666666">[double precision]</text>
<polygon fill="none" stroke="black" points="43.2,-258.8 43.2,-289.6 434.63,-289.6 434.63,-258.8 43.2,-258.8"/>
<text text-anchor="start" x="50.2" y="-271" font-family="Arial" font-size="14.00">linimetric_ruler_code </text>
<text text-anchor="start" x="183.25" y="-271" font-family="Arial" font-size="14.00" fill="#666666">[bigint]</text>
<polygon fill="none" stroke="black" points="43.2,-228 43.2,-258.8 434.63,-258.8 434.63,-228 43.2,-228"/>
<text text-anchor="start" x="50.2" y="-240.2" font-family="Arial" font-size="14.00">location </text>
<text text-anchor="start" x="102.34" y="-240.2" font-family="Arial" font-size="14.00" fill="#666666">[varchar(255)]</text>
<polygon fill="none" stroke="black" points="43.2,-197.2 43.2,-228 434.63,-228 434.63,-197.2 43.2,-197.2"/>
<text text-anchor="start" x="50.2" y="-209.4" font-family="Arial" font-size="14.00">longitude </text>
<text text-anchor="start" x="110.92" y="-209.4" font-family="Arial" font-size="14.00" fill="#666666">[double precision]</text>
<polygon fill="none" stroke="black" points="43.2,-166.4 43.2,-197.2 434.63,-197.2 434.63,-166.4 43.2,-166.4"/>
<text text-anchor="start" x="50.2" y="-178.6" font-family="Arial" font-size="14.00">name </text>
<text text-anchor="start" x="89.11" y="-178.6" font-family="Arial" font-size="14.00" fill="#666666">[varchar(255)]</text>
<polygon fill="none" stroke="black" points="43.2,-135.6 43.2,-166.4 434.63,-166.4 434.63,-135.6 43.2,-135.6"/>
<text text-anchor="start" x="50.2" y="-147.8" font-family="Arial" font-size="14.00">no_limit </text>
<text text-anchor="start" x="102.33" y="-147.8" font-family="Arial" font-size="14.00" fill="#666666">[boolean]</text>
<polygon fill="none" stroke="black" points="43.2,-104.8 43.2,-135.6 434.63,-135.6 434.63,-104.8 43.2,-104.8"/>
<text text-anchor="start" x="50.2" y="-117" font-family="Arial" font-size="14.00">dam_id </text>
<text text-anchor="start" x="100.01" y="-117" font-family="Arial" font-size="14.00" fill="#666666">[bigint]</text>
<polygon fill="none" stroke="black" points="43.2,-74 43.2,-104.8 434.63,-104.8 434.63,-74 43.2,-74"/>
<text text-anchor="start" x="50.2" y="-86.2" font-family="Arial" font-size="14.00">instrument_type_id </text>
<text text-anchor="start" x="172.38" y="-86.2" font-family="Arial" font-size="14.00" fill="#666666">[bigint]</text>
<polygon fill="none" stroke="black" points="43.2,-43.2 43.2,-74 434.63,-74 434.63,-43.2 43.2,-43.2"/>
<text text-anchor="start" x="50.2" y="-55.4" font-family="Arial" font-size="14.00">section_id </text>
<text text-anchor="start" x="117.13" y="-55.4" font-family="Arial" font-size="14.00" fill="#666666">[bigint]</text>
</g>
<!-- public.constant&#45;&gt;public.instrument -->
<g id="edge2" class="edge">
<title>public.constant:instrument_id&#45;&gt;public.instrument:id</title>
<path fill="none" stroke="black" d="M333.91,-710.93C306.44,-701.65 323.92,-650.72 344.93,-620 369.18,-584.55 410.38,-619.46 434.63,-584 458.26,-549.44 477.49,-489.8 435.63,-489.8"/>
<polygon fill="black" stroke="black" points="333.71,-710.9 342.94,-716.8 338.98,-711.67 343.27,-712.3 343.27,-712.3 343.27,-712.3 338.98,-711.67 344.25,-707.9 333.71,-710.9"/>
<text text-anchor="start" x="64.09" y="-722.4" font-family="Arial" font-size="10.00">FOREIGN KEY (instrument_id) REFERENCES instrument(id)</text>
</g>
<!-- public.measurement_unit -->
<g id="node4" class="node">
<title>public.measurement_unit</title>
<polygon fill="#efefef" stroke="none" points="539.44,-320.4 539.44,-356 860.38,-356 860.38,-320.4 539.44,-320.4"/>
<polygon fill="none" stroke="black" points="539.44,-320.4 539.44,-356 860.38,-356 860.38,-320.4 539.44,-320.4"/>
<text text-anchor="start" x="546.44" y="-333.8" font-family="Arial Bold" font-size="18.00">public.measurement_unit</text>
<text text-anchor="start" x="728.89" y="-333.8" font-family="Arial" font-size="14.00">    </text>
<text text-anchor="start" x="760.01" y="-333.8" font-family="Arial" font-size="14.00" fill="#666666">[BASE TABLE]</text>
<polygon fill="none" stroke="black" points="539.44,-289.6 539.44,-320.4 860.38,-320.4 860.38,-289.6 539.44,-289.6"/>
<text text-anchor="start" x="546.44" y="-301.8" font-family="Arial" font-size="14.00">id </text>
<text text-anchor="start" x="561.23" y="-301.8" font-family="Arial" font-size="14.00" fill="#666666">[bigint]</text>
<polygon fill="none" stroke="black" points="539.44,-258.8 539.44,-289.6 860.38,-289.6 860.38,-258.8 539.44,-258.8"/>
<text text-anchor="start" x="546.44" y="-271" font-family="Arial" font-size="14.00">acronym </text>
<text text-anchor="start" x="604.01" y="-271" font-family="Arial" font-size="14.00" fill="#666666">[varchar(255)]</text>
<polygon fill="none" stroke="black" points="539.44,-228 539.44,-258.8 860.38,-258.8 860.38,-228 539.44,-228"/>
<text text-anchor="start" x="546.44" y="-240.2" font-family="Arial" font-size="14.00">name </text>
<text text-anchor="start" x="585.35" y="-240.2" font-family="Arial" font-size="14.00" fill="#666666">[varchar(255)]</text>
</g>
<!-- public.constant&#45;&gt;public.measurement_unit -->
<g id="edge3" class="edge">
<title>public.constant:measurement_unit_id&#45;&gt;public.measurement_unit:id</title>
<path fill="none" stroke="black" d="M604.03,-681.09C746.42,-665.59 372.89,-305 538.44,-305"/>
<polygon fill="black" stroke="black" points="604.22,-681.08 594,-677.09 598.89,-681.35 594.56,-681.57 594.56,-681.57 594.56,-681.57 598.89,-681.35 594.46,-686.08 604.22,-681.08"/>
<text text-anchor="start" x="600.9" y="-691.6" font-family="Arial" font-size="10.00">FOREIGN KEY (measurement_unit_id) REFERENCES measurement_unit(id)</text>
</g>
<!-- public.instrument_graph_customization_properties -->
<g id="node2" class="node">
<title>public.instrument_graph_customization_properties</title>
<polygon fill="#efefef" stroke="none" points="215.96,-1474 215.96,-1509.6 721.87,-1509.6 721.87,-1474 215.96,-1474"/>
<polygon fill="none" stroke="black" points="215.96,-1474 215.96,-1509.6 721.87,-1509.6 721.87,-1474 215.96,-1474"/>
<text text-anchor="start" x="222.96" y="-1487.4" font-family="Arial Bold" font-size="18.00">public.instrument_graph_customization_properties</text>
<text text-anchor="start" x="590.38" y="-1487.4" font-family="Arial" font-size="14.00">    </text>
<text text-anchor="start" x="621.49" y="-1487.4" font-family="Arial" font-size="14.00" fill="#666666">[BASE TABLE]</text>
<polygon fill="none" stroke="black" points="215.96,-1443.2 215.96,-1474 721.87,-1474 721.87,-1443.2 215.96,-1443.2"/>
<text text-anchor="start" x="222.96" y="-1455.4" font-family="Arial" font-size="14.00">id </text>
<text text-anchor="start" x="237.75" y="-1455.4" font-family="Arial" font-size="14.00" fill="#666666">[bigint]</text>
<polygon fill="none" stroke="black" points="215.96,-1412.4 215.96,-1443.2 721.87,-1443.2 721.87,-1412.4 215.96,-1412.4"/>
<text text-anchor="start" x="222.96" y="-1424.6" font-family="Arial" font-size="14.00">customization_type </text>
<text text-anchor="start" x="346.69" y="-1424.6" font-family="Arial" font-size="14.00" fill="#666666">[varchar(255)]</text>
<polygon fill="none" stroke="black" points="215.96,-1381.6 215.96,-1412.4 721.87,-1412.4 721.87,-1381.6 215.96,-1381.6"/>
<text text-anchor="start" x="222.96" y="-1393.8" font-family="Arial" font-size="14.00">fill_color </text>
<text text-anchor="start" x="278.2" y="-1393.8" font-family="Arial" font-size="14.00" fill="#666666">[varchar(255)]</text>
<polygon fill="none" stroke="black" points="215.96,-1350.8 215.96,-1381.6 721.87,-1381.6 721.87,-1350.8 215.96,-1350.8"/>
<text text-anchor="start" x="222.96" y="-1363" font-family="Arial" font-size="14.00">is_primary_ordinate </text>
<text text-anchor="start" x="349.79" y="-1363" font-family="Arial" font-size="14.00" fill="#666666">[boolean]</text>
<polygon fill="none" stroke="black" points="215.96,-1320 215.96,-1350.8 721.87,-1350.8 721.87,-1320 215.96,-1320"/>
<text text-anchor="start" x="222.96" y="-1332.2" font-family="Arial" font-size="14.00">label_enable </text>
<text text-anchor="start" x="306.26" y="-1332.2" font-family="Arial" font-size="14.00" fill="#666666">[boolean]</text>
<polygon fill="none" stroke="black" points="215.96,-1289.2 215.96,-1320 721.87,-1320 721.87,-1289.2 215.96,-1289.2"/>
<text text-anchor="start" x="222.96" y="-1301.4" font-family="Arial" font-size="14.00">limit_value_type </text>
<text text-anchor="start" x="327.23" y="-1301.4" font-family="Arial" font-size="14.00" fill="#666666">[varchar(255)]</text>
<polygon fill="none" stroke="black" points="215.96,-1258.4 215.96,-1289.2 721.87,-1289.2 721.87,-1258.4 215.96,-1258.4"/>
<text text-anchor="start" x="222.96" y="-1270.6" font-family="Arial" font-size="14.00">line_type </text>
<text text-anchor="start" x="282.89" y="-1270.6" font-family="Arial" font-size="14.00" fill="#666666">[varchar(255)]</text>
<polygon fill="none" stroke="black" points="215.96,-1227.6 215.96,-1258.4 721.87,-1258.4 721.87,-1227.6 215.96,-1227.6"/>
<text text-anchor="start" x="222.96" y="-1239.8" font-family="Arial" font-size="14.00">name </text>
<text text-anchor="start" x="261.87" y="-1239.8" font-family="Arial" font-size="14.00" fill="#666666">[varchar(255)]</text>
<polygon fill="none" stroke="black" points="215.96,-1196.8 215.96,-1227.6 721.87,-1227.6 721.87,-1196.8 215.96,-1196.8"/>
<text text-anchor="start" x="222.96" y="-1209" font-family="Arial" font-size="14.00">constant_id </text>
<text text-anchor="start" x="298.46" y="-1209" font-family="Arial" font-size="14.00" fill="#666666">[bigint]</text>
<polygon fill="none" stroke="black" points="215.96,-1166 215.96,-1196.8 721.87,-1196.8 721.87,-1166 215.96,-1166"/>
<text text-anchor="start" x="222.96" y="-1178.2" font-family="Arial" font-size="14.00">deterministic_limit_id </text>
<text text-anchor="start" x="356.78" y="-1178.2" font-family="Arial" font-size="14.00" fill="#666666">[bigint]</text>
<polygon fill="none" stroke="black" points="215.96,-1135.2 215.96,-1166 721.87,-1166 721.87,-1135.2 215.96,-1135.2"/>
<text text-anchor="start" x="222.96" y="-1147.4" font-family="Arial" font-size="14.00">instrument_id </text>
<text text-anchor="start" x="310.89" y="-1147.4" font-family="Arial" font-size="14.00" fill="#666666">[bigint]</text>
<polygon fill="none" stroke="black" points="215.96,-1104.4 215.96,-1135.2 721.87,-1135.2 721.87,-1104.4 215.96,-1104.4"/>
<text text-anchor="start" x="222.96" y="-1116.6" font-family="Arial" font-size="14.00">output_id </text>
<text text-anchor="start" x="284.46" y="-1116.6" font-family="Arial" font-size="14.00" fill="#666666">[bigint]</text>
<polygon fill="none" stroke="black" points="215.96,-1073.6 215.96,-1104.4 721.87,-1104.4 721.87,-1073.6 215.96,-1073.6"/>
<text text-anchor="start" x="222.96" y="-1085.8" font-family="Arial" font-size="14.00">pattern_id </text>
<text text-anchor="start" x="289.12" y="-1085.8" font-family="Arial" font-size="14.00" fill="#666666">[bigint]</text>
<polygon fill="none" stroke="black" points="215.96,-1042.8 215.96,-1073.6 721.87,-1073.6 721.87,-1042.8 215.96,-1042.8"/>
<text text-anchor="start" x="222.96" y="-1055" font-family="Arial" font-size="14.00">statistical_limit_id </text>
<text text-anchor="start" x="335.77" y="-1055" font-family="Arial" font-size="14.00" fill="#666666">[bigint]</text>
</g>
<!-- public.instrument_graph_customization_properties&#45;&gt;public.constant -->
<g id="edge1" class="edge">
<title>public.instrument_graph_customization_properties:constant_id&#45;&gt;public.constant:id</title>
<path fill="none" stroke="black" d="M733.04,-1211.73C881.34,-1197.5 754.4,-866.4 593.9,-866.4"/>
<polygon fill="black" stroke="black" points="733.19,-1211.72 722.99,-1207.69 727.86,-1211.97 723.53,-1212.17 723.53,-1212.17 723.53,-1212.17 727.86,-1211.97 723.41,-1216.68 733.19,-1211.72"/>
<text text-anchor="start" x="729.87" y="-1222.2" font-family="Arial" font-size="10.00">FOREIGN KEY (constant_id) REFERENCES constant(id)</text>
</g>
</g>
</svg>
