<?xml version="1.0" encoding="UTF-8" standalone="no"?>
<!DOCTYPE svg PUBLIC "-//W3C//DTD SVG 1.1//EN"
 "http://www.w3.org/Graphics/SVG/1.1/DTD/svg11.dtd">
<!-- Generated by graphviz version 12.1.2 (20240928.0832)
 -->
<!-- Title: public.reading_input_value Pages: 1 -->
<svg width="590pt" height="479pt"
 viewBox="0.00 0.00 589.86 478.80" xmlns="http://www.w3.org/2000/svg" xmlns:xlink="http://www.w3.org/1999/xlink">
<g id="graph0" class="graph" transform="scale(1 1) rotate(0) translate(4 474.8)">
<title>public.reading_input_value</title>
<polygon fill="white" stroke="none" points="-4,4 -4,-474.8 585.86,-474.8 585.86,4 -4,4"/>
<!-- public.reading_input_value -->
<g id="node1" class="node">
<title>public.reading_input_value</title>
<polygon fill="#efefef" stroke="none" points="166.73,-169.4 166.73,-205 502.67,-205 502.67,-169.4 166.73,-169.4"/>
<polygon fill="none" stroke="black" points="166.73,-169.4 166.73,-205 502.67,-205 502.67,-169.4 166.73,-169.4"/>
<text text-anchor="start" x="173.73" y="-182.8" font-family="Arial Bold" font-size="18.00">public.reading_input_value</text>
<text text-anchor="start" x="371.18" y="-182.8" font-family="Arial" font-size="14.00">    </text>
<text text-anchor="start" x="402.29" y="-182.8" font-family="Arial" font-size="14.00" fill="#666666">[BASE TABLE]</text>
<polygon fill="none" stroke="black" points="166.73,-138.6 166.73,-169.4 502.67,-169.4 502.67,-138.6 166.73,-138.6"/>
<text text-anchor="start" x="173.73" y="-150.8" font-family="Arial" font-size="14.00">id </text>
<text text-anchor="start" x="188.52" y="-150.8" font-family="Arial" font-size="14.00" fill="#666666">[bigint]</text>
<polygon fill="none" stroke="black" points="166.73,-107.8 166.73,-138.6 502.67,-138.6 502.67,-107.8 166.73,-107.8"/>
<text text-anchor="start" x="173.73" y="-120" font-family="Arial" font-size="14.00">input_acronym </text>
<text text-anchor="start" x="269.45" y="-120" font-family="Arial" font-size="14.00" fill="#666666">[varchar(255)]</text>
<polygon fill="none" stroke="black" points="166.73,-77 166.73,-107.8 502.67,-107.8 502.67,-77 166.73,-77"/>
<text text-anchor="start" x="173.73" y="-89.2" font-family="Arial" font-size="14.00">input_name </text>
<text text-anchor="start" x="250.79" y="-89.2" font-family="Arial" font-size="14.00" fill="#666666">[varchar(255)]</text>
<polygon fill="none" stroke="black" points="166.73,-46.2 166.73,-77 502.67,-77 502.67,-46.2 166.73,-46.2"/>
<text text-anchor="start" x="173.73" y="-58.4" font-family="Arial" font-size="14.00">value </text>
<text text-anchor="start" x="211.09" y="-58.4" font-family="Arial" font-size="14.00" fill="#666666">[double precision]</text>
<polygon fill="none" stroke="black" stroke-width="3" points="165.23,-44.7 165.23,-206.5 504.17,-206.5 504.17,-44.7 165.23,-44.7"/>
</g>
<!-- public.reading_input_value_mapping -->
<g id="node2" class="node">
<title>public.reading_input_value_mapping</title>
<polygon fill="#efefef" stroke="none" points="130.73,-392 130.73,-427.6 538.66,-427.6 538.66,-392 130.73,-392"/>
<polygon fill="none" stroke="black" points="130.73,-392 130.73,-427.6 538.66,-427.6 538.66,-392 130.73,-392"/>
<text text-anchor="start" x="137.73" y="-405.4" font-family="Arial Bold" font-size="18.00">public.reading_input_value_mapping</text>
<text text-anchor="start" x="407.17" y="-405.4" font-family="Arial" font-size="14.00">    </text>
<text text-anchor="start" x="438.29" y="-405.4" font-family="Arial" font-size="14.00" fill="#666666">[BASE TABLE]</text>
<polygon fill="none" stroke="black" points="130.73,-361.2 130.73,-392 538.66,-392 538.66,-361.2 130.73,-361.2"/>
<text text-anchor="start" x="137.73" y="-373.4" font-family="Arial" font-size="14.00">reading_id </text>
<text text-anchor="start" x="207.01" y="-373.4" font-family="Arial" font-size="14.00" fill="#666666">[bigint]</text>
<polygon fill="none" stroke="black" points="130.73,-330.4 130.73,-361.2 538.66,-361.2 538.66,-330.4 130.73,-330.4"/>
<text text-anchor="start" x="137.73" y="-342.6" font-family="Arial" font-size="14.00">input_value_id </text>
<text text-anchor="start" x="231.92" y="-342.6" font-family="Arial" font-size="14.00" fill="#666666">[bigint]</text>
</g>
<!-- public.reading_input_value_mapping&#45;&gt;public.reading_input_value -->
<g id="edge1" class="edge">
<title>public.reading_input_value_mapping:input_value_id&#45;&gt;public.reading_input_value:id</title>
<path fill="none" stroke="black" d="M335.43,-319.22C345.62,-253.36 460.05,-317.3 502.67,-251.2 526.08,-214.89 546.87,-154 503.67,-154"/>
<polygon fill="black" stroke="black" points="335.44,-319.09 330.23,-328.75 335.06,-324.41 334.75,-328.73 334.75,-328.73 334.75,-328.73 335.06,-324.41 339.21,-329.39 335.44,-319.09"/>
<text text-anchor="start" x="7" y="-339.4" font-family="Arial" font-size="10.00">FOREIGN KEY (input_value_id) REFERENCES reading_input_value(id)</text>
</g>
</g>
</svg>
