<?xml version="1.0" encoding="UTF-8" standalone="no"?>
<!DOCTYPE svg PUBLIC "-//W3C//DTD SVG 1.1//EN"
 "http://www.w3.org/Graphics/SVG/1.1/DTD/svg11.dtd">
<!-- Generated by graphviz version 12.1.2 (20240928.0832)
 -->
<!-- Title: public.template_questionnaire_questions Pages: 1 -->
<svg width="1123pt" height="510pt"
 viewBox="0.00 0.00 1123.40 509.60" xmlns="http://www.w3.org/2000/svg" xmlns:xlink="http://www.w3.org/1999/xlink">
<g id="graph0" class="graph" transform="scale(1 1) rotate(0) translate(4 505.6)">
<title>public.template_questionnaire_questions</title>
<polygon fill="white" stroke="none" points="-4,4 -4,-505.6 1119.4,-505.6 1119.4,4 -4,4"/>
<!-- public.template_questionnaire_questions -->
<g id="node1" class="node">
<title>public.template_questionnaire_questions</title>
<polygon fill="#efefef" stroke="none" points="275.09,-419.8 275.09,-455.4 708.01,-455.4 708.01,-419.8 275.09,-419.8"/>
<polygon fill="none" stroke="black" points="275.09,-419.8 275.09,-455.4 708.01,-455.4 708.01,-419.8 275.09,-419.8"/>
<text text-anchor="start" x="282.09" y="-433.2" font-family="Arial Bold" font-size="18.00">public.template_questionnaire_questions</text>
<text text-anchor="start" x="576.52" y="-433.2" font-family="Arial" font-size="14.00">    </text>
<text text-anchor="start" x="607.64" y="-433.2" font-family="Arial" font-size="14.00" fill="#666666">[BASE TABLE]</text>
<polygon fill="none" stroke="black" points="275.09,-389 275.09,-419.8 708.01,-419.8 708.01,-389 275.09,-389"/>
<text text-anchor="start" x="282.09" y="-401.2" font-family="Arial" font-size="14.00">id </text>
<text text-anchor="start" x="296.87" y="-401.2" font-family="Arial" font-size="14.00" fill="#666666">[bigint]</text>
<polygon fill="none" stroke="black" points="275.09,-358.2 275.09,-389 708.01,-389 708.01,-358.2 275.09,-358.2"/>
<text text-anchor="start" x="282.09" y="-370.4" font-family="Arial" font-size="14.00">order_index </text>
<text text-anchor="start" x="359.92" y="-370.4" font-family="Arial" font-size="14.00" fill="#666666">[integer]</text>
<polygon fill="none" stroke="black" points="275.09,-327.4 275.09,-358.2 708.01,-358.2 708.01,-327.4 275.09,-327.4"/>
<text text-anchor="start" x="282.09" y="-339.6" font-family="Arial" font-size="14.00">question_id </text>
<text text-anchor="start" x="357.59" y="-339.6" font-family="Arial" font-size="14.00" fill="#666666">[bigint]</text>
<polygon fill="none" stroke="black" points="275.09,-296.6 275.09,-327.4 708.01,-327.4 708.01,-296.6 275.09,-296.6"/>
<text text-anchor="start" x="282.09" y="-308.8" font-family="Arial" font-size="14.00">template_questionnaire_id </text>
<text text-anchor="start" x="450.2" y="-308.8" font-family="Arial" font-size="14.00" fill="#666666">[bigint]</text>
<polygon fill="none" stroke="black" stroke-width="3" points="273.59,-295.1 273.59,-456.9 709.51,-456.9 709.51,-295.1 273.59,-295.1"/>
</g>
<!-- public.questions -->
<g id="node2" class="node">
<title>public.questions</title>
<polygon fill="#efefef" stroke="none" points="156.56,-135.6 156.56,-171.2 412.54,-171.2 412.54,-135.6 156.56,-135.6"/>
<polygon fill="none" stroke="black" points="156.56,-135.6 156.56,-171.2 412.54,-171.2 412.54,-135.6 156.56,-135.6"/>
<text text-anchor="start" x="163.56" y="-149" font-family="Arial Bold" font-size="18.00">public.questions</text>
<text text-anchor="start" x="281.05" y="-149" font-family="Arial" font-size="14.00">    </text>
<text text-anchor="start" x="312.17" y="-149" font-family="Arial" font-size="14.00" fill="#666666">[BASE TABLE]</text>
<polygon fill="none" stroke="black" points="156.56,-104.8 156.56,-135.6 412.54,-135.6 412.54,-104.8 156.56,-104.8"/>
<text text-anchor="start" x="163.56" y="-117" font-family="Arial" font-size="14.00">id </text>
<text text-anchor="start" x="178.34" y="-117" font-family="Arial" font-size="14.00" fill="#666666">[bigint]</text>
<polygon fill="none" stroke="black" points="156.56,-74 156.56,-104.8 412.54,-104.8 412.54,-74 156.56,-74"/>
<text text-anchor="start" x="163.56" y="-86.2" font-family="Arial" font-size="14.00">question_text </text>
<text text-anchor="start" x="250.73" y="-86.2" font-family="Arial" font-size="14.00" fill="#666666">[varchar(255)]</text>
<polygon fill="none" stroke="black" points="156.56,-43.2 156.56,-74 412.54,-74 412.54,-43.2 156.56,-43.2"/>
<text text-anchor="start" x="163.56" y="-55.4" font-family="Arial" font-size="14.00">type </text>
<text text-anchor="start" x="193.91" y="-55.4" font-family="Arial" font-size="14.00" fill="#666666">[varchar(255)]</text>
</g>
<!-- public.template_questionnaire_questions&#45;&gt;public.questions -->
<g id="edge1" class="edge">
<title>public.template_questionnaire_questions:question_id&#45;&gt;public.questions:id</title>
<path fill="none" stroke="black" d="M264.02,-341.29C236.24,-331.79 252.19,-279.74 275.09,-250.4 313.94,-200.62 373.69,-264.19 412.54,-214.4 438.3,-181.39 455.41,-120.2 413.54,-120.2"/>
<polygon fill="black" stroke="black" points="263.87,-341.27 273.09,-347.2 269.14,-342.06 273.43,-342.7 273.43,-342.7 273.43,-342.7 269.14,-342.06 274.42,-338.3 263.87,-341.27"/>
<text text-anchor="start" x="7" y="-352.8" font-family="Arial" font-size="10.00">FOREIGN KEY (question_id) REFERENCES questions(id)</text>
</g>
<!-- public.template_questionnaires -->
<g id="node3" class="node">
<title>public.template_questionnaires</title>
<polygon fill="#efefef" stroke="none" points="517.09,-120.2 517.09,-155.8 880.01,-155.8 880.01,-120.2 517.09,-120.2"/>
<polygon fill="none" stroke="black" points="517.09,-120.2 517.09,-155.8 880.01,-155.8 880.01,-120.2 517.09,-120.2"/>
<text text-anchor="start" x="524.09" y="-133.6" font-family="Arial Bold" font-size="18.00">public.template_questionnaires</text>
<text text-anchor="start" x="748.52" y="-133.6" font-family="Arial" font-size="14.00">    </text>
<text text-anchor="start" x="779.64" y="-133.6" font-family="Arial" font-size="14.00" fill="#666666">[BASE TABLE]</text>
<polygon fill="none" stroke="black" points="517.09,-89.4 517.09,-120.2 880.01,-120.2 880.01,-89.4 517.09,-89.4"/>
<text text-anchor="start" x="524.09" y="-101.6" font-family="Arial" font-size="14.00">id </text>
<text text-anchor="start" x="538.87" y="-101.6" font-family="Arial" font-size="14.00" fill="#666666">[bigint]</text>
<polygon fill="none" stroke="black" points="517.09,-58.6 517.09,-89.4 880.01,-89.4 880.01,-58.6 517.09,-58.6"/>
<text text-anchor="start" x="524.09" y="-70.8" font-family="Arial" font-size="14.00">name </text>
<text text-anchor="start" x="563" y="-70.8" font-family="Arial" font-size="14.00" fill="#666666">[varchar(255)]</text>
</g>
<!-- public.template_questionnaire_questions&#45;&gt;public.template_questionnaires -->
<g id="edge2" class="edge">
<title>public.template_questionnaire_questions:template_questionnaire_id&#45;&gt;public.template_questionnaires:id</title>
<path fill="none" stroke="black" d="M718.74,-309.55C732.85,-300.53 722.34,-268.79 708.01,-250.4 653.99,-181.09 570.91,-268.46 517.09,-199 491.44,-165.9 474.22,-104.8 516.09,-104.8"/>
<polygon fill="black" stroke="black" points="719.03,-309.47 708.23,-307.55 713.86,-310.78 709.66,-311.84 709.66,-311.84 709.66,-311.84 713.86,-310.78 710.44,-316.28 719.03,-309.47"/>
<text text-anchor="start" x="716.01" y="-322" font-family="Arial" font-size="10.00">FOREIGN KEY (template_questionnaire_id) REFERENCES template_questionnaires(id)</text>
</g>
</g>
</svg>
