<?xml version="1.0" encoding="UTF-8" standalone="no"?>
<!DOCTYPE svg PUBLIC "-//W3C//DTD SVG 1.1//EN"
 "http://www.w3.org/Graphics/SVG/1.1/DTD/svg11.dtd">
<!-- Generated by graphviz version 12.1.2 (20240928.0832)
 -->
<!-- Title: public.documentation_permissions Pages: 1 -->
<svg width="490pt" height="818pt"
 viewBox="0.00 0.00 490.35 817.60" xmlns="http://www.w3.org/2000/svg" xmlns:xlink="http://www.w3.org/1999/xlink">
<g id="graph0" class="graph" transform="scale(1 1) rotate(0) translate(4 813.6)">
<title>public.documentation_permissions</title>
<polygon fill="white" stroke="none" points="-4,4 -4,-813.6 486.35,-813.6 486.35,4 -4,4"/>
<!-- public.documentation_permissions -->
<g id="node1" class="node">
<title>public.documentation_permissions</title>
<polygon fill="#efefef" stroke="none" points="46.2,-727.8 46.2,-763.4 436.15,-763.4 436.15,-727.8 46.2,-727.8"/>
<polygon fill="none" stroke="black" points="46.2,-727.8 46.2,-763.4 436.15,-763.4 436.15,-727.8 46.2,-727.8"/>
<text text-anchor="start" x="53.2" y="-741.2" font-family="Arial Bold" font-size="18.00">public.documentation_permissions</text>
<text text-anchor="start" x="304.66" y="-741.2" font-family="Arial" font-size="14.00">    </text>
<text text-anchor="start" x="335.78" y="-741.2" font-family="Arial" font-size="14.00" fill="#666666">[BASE TABLE]</text>
<polygon fill="none" stroke="black" points="46.2,-697 46.2,-727.8 436.15,-727.8 436.15,-697 46.2,-697"/>
<text text-anchor="start" x="53.2" y="-709.2" font-family="Arial" font-size="14.00">id </text>
<text text-anchor="start" x="67.99" y="-709.2" font-family="Arial" font-size="14.00" fill="#666666">[bigint]</text>
<polygon fill="none" stroke="black" points="46.2,-666.2 46.2,-697 436.15,-697 436.15,-666.2 46.2,-666.2"/>
<text text-anchor="start" x="53.2" y="-678.4" font-family="Arial" font-size="14.00">edit_psb </text>
<text text-anchor="start" x="110.02" y="-678.4" font-family="Arial" font-size="14.00" fill="#666666">[boolean]</text>
<polygon fill="none" stroke="black" points="46.2,-635.4 46.2,-666.2 436.15,-666.2 436.15,-635.4 46.2,-635.4"/>
<text text-anchor="start" x="53.2" y="-647.6" font-family="Arial" font-size="14.00">share_psb </text>
<text text-anchor="start" x="122.47" y="-647.6" font-family="Arial" font-size="14.00" fill="#666666">[boolean]</text>
<polygon fill="none" stroke="black" points="46.2,-604.6 46.2,-635.4 436.15,-635.4 436.15,-604.6 46.2,-604.6"/>
<text text-anchor="start" x="53.2" y="-616.8" font-family="Arial" font-size="14.00">view_psb </text>
<text text-anchor="start" x="115.45" y="-616.8" font-family="Arial" font-size="14.00" fill="#666666">[boolean]</text>
<polygon fill="none" stroke="black" points="46.2,-573.8 46.2,-604.6 436.15,-604.6 436.15,-573.8 46.2,-573.8"/>
<text text-anchor="start" x="53.2" y="-586" font-family="Arial" font-size="14.00">user_id </text>
<text text-anchor="start" x="103.01" y="-586" font-family="Arial" font-size="14.00" fill="#666666">[bigint]</text>
<polygon fill="none" stroke="black" stroke-width="3" points="44.7,-572.3 44.7,-764.9 437.65,-764.9 437.65,-572.3 44.7,-572.3"/>
</g>
<!-- public.users -->
<g id="node2" class="node">
<title>public.users</title>
<polygon fill="#efefef" stroke="none" points="73.88,-412.8 73.88,-448.4 408.48,-448.4 408.48,-412.8 73.88,-412.8"/>
<polygon fill="none" stroke="black" points="73.88,-412.8 73.88,-448.4 408.48,-448.4 408.48,-412.8 73.88,-412.8"/>
<text text-anchor="start" x="135.69" y="-426.2" font-family="Arial Bold" font-size="18.00">public.users</text>
<text text-anchor="start" x="222.17" y="-426.2" font-family="Arial" font-size="14.00">    </text>
<text text-anchor="start" x="253.29" y="-426.2" font-family="Arial" font-size="14.00" fill="#666666">[BASE TABLE]</text>
<polygon fill="none" stroke="black" points="73.88,-382 73.88,-412.8 408.48,-412.8 408.48,-382 73.88,-382"/>
<text text-anchor="start" x="80.88" y="-394.2" font-family="Arial" font-size="14.00">id </text>
<text text-anchor="start" x="95.66" y="-394.2" font-family="Arial" font-size="14.00" fill="#666666">[bigint]</text>
<polygon fill="none" stroke="black" points="73.88,-351.2 73.88,-382 408.48,-382 408.48,-351.2 73.88,-351.2"/>
<text text-anchor="start" x="80.88" y="-363.4" font-family="Arial" font-size="14.00">email </text>
<text text-anchor="start" x="118.22" y="-363.4" font-family="Arial" font-size="14.00" fill="#666666">[varchar(255)]</text>
<polygon fill="none" stroke="black" points="73.88,-320.4 73.88,-351.2 408.48,-351.2 408.48,-320.4 73.88,-320.4"/>
<text text-anchor="start" x="80.88" y="-332.6" font-family="Arial" font-size="14.00">is_first_access </text>
<text text-anchor="start" x="176.57" y="-332.6" font-family="Arial" font-size="14.00" fill="#666666">[boolean]</text>
<polygon fill="none" stroke="black" points="73.88,-289.6 73.88,-320.4 408.48,-320.4 408.48,-289.6 73.88,-289.6"/>
<text text-anchor="start" x="80.88" y="-301.8" font-family="Arial" font-size="14.00">last_token </text>
<text text-anchor="start" x="148.59" y="-301.8" font-family="Arial" font-size="14.00" fill="#666666">[text]</text>
<polygon fill="none" stroke="black" points="73.88,-258.8 73.88,-289.6 408.48,-289.6 408.48,-258.8 73.88,-258.8"/>
<text text-anchor="start" x="80.88" y="-271" font-family="Arial" font-size="14.00">name </text>
<text text-anchor="start" x="119.79" y="-271" font-family="Arial" font-size="14.00" fill="#666666">[varchar(255)]</text>
<polygon fill="none" stroke="black" points="73.88,-228 73.88,-258.8 408.48,-258.8 408.48,-228 73.88,-228"/>
<text text-anchor="start" x="80.88" y="-240.2" font-family="Arial" font-size="14.00">password </text>
<text text-anchor="start" x="144.68" y="-240.2" font-family="Arial" font-size="14.00" fill="#666666">[varchar(255)]</text>
<polygon fill="none" stroke="black" points="73.88,-197.2 73.88,-228 408.48,-228 408.48,-197.2 73.88,-197.2"/>
<text text-anchor="start" x="80.88" y="-209.4" font-family="Arial" font-size="14.00">phone </text>
<text text-anchor="start" x="123.7" y="-209.4" font-family="Arial" font-size="14.00" fill="#666666">[varchar(11)]</text>
<polygon fill="none" stroke="black" points="73.88,-166.4 73.88,-197.2 408.48,-197.2 408.48,-166.4 73.88,-166.4"/>
<text text-anchor="start" x="80.88" y="-178.6" font-family="Arial" font-size="14.00">token_expiry_date </text>
<text text-anchor="start" x="199.18" y="-178.6" font-family="Arial" font-size="14.00" fill="#666666">[timestamp(6) without time zone]</text>
<polygon fill="none" stroke="black" points="73.88,-135.6 73.88,-166.4 408.48,-166.4 408.48,-135.6 73.88,-135.6"/>
<text text-anchor="start" x="80.88" y="-147.8" font-family="Arial" font-size="14.00">created_by_id </text>
<text text-anchor="start" x="172.72" y="-147.8" font-family="Arial" font-size="14.00" fill="#666666">[bigint]</text>
<polygon fill="none" stroke="black" points="73.88,-104.8 73.88,-135.6 408.48,-135.6 408.48,-104.8 73.88,-104.8"/>
<text text-anchor="start" x="80.88" y="-117" font-family="Arial" font-size="14.00">role_id </text>
<text text-anchor="start" x="126.79" y="-117" font-family="Arial" font-size="14.00" fill="#666666">[bigint]</text>
<polygon fill="none" stroke="black" points="73.88,-74 73.88,-104.8 408.48,-104.8 408.48,-74 73.88,-74"/>
<text text-anchor="start" x="80.88" y="-86.2" font-family="Arial" font-size="14.00">sex_id </text>
<text text-anchor="start" x="125.24" y="-86.2" font-family="Arial" font-size="14.00" fill="#666666">[bigint]</text>
<polygon fill="none" stroke="black" points="73.88,-43.2 73.88,-74 408.48,-74 408.48,-43.2 73.88,-43.2"/>
<text text-anchor="start" x="80.88" y="-55.4" font-family="Arial" font-size="14.00">status_id </text>
<text text-anchor="start" x="140.8" y="-55.4" font-family="Arial" font-size="14.00" fill="#666666">[bigint]</text>
</g>
<!-- public.documentation_permissions&#45;&gt;public.users -->
<g id="edge1" class="edge">
<title>public.documentation_permissions:user_id&#45;&gt;public.users:id</title>
<path fill="none" stroke="black" d="M241.9,-562.57C252.07,-496.27 366.23,-558.28 408.48,-491.6 430.89,-456.23 451.34,-397.4 409.48,-397.4"/>
<polygon fill="black" stroke="black" points="241.91,-562.49 236.71,-572.15 241.53,-567.81 241.22,-572.13 241.22,-572.13 241.22,-572.13 241.53,-567.81 245.69,-572.79 241.91,-562.49"/>
<text text-anchor="start" x="129.49" y="-556.8" font-family="Arial" font-size="10.00">FOREIGN KEY (user_id) REFERENCES users(id)</text>
</g>
</g>
</svg>
