<?xml version="1.0" encoding="UTF-8" standalone="no"?>
<!DOCTYPE svg PUBLIC "-//W3C//DTD SVG 1.1//EN"
 "http://www.w3.org/Graphics/SVG/1.1/DTD/svg11.dtd">
<!-- Generated by graphviz version 12.1.2 (20240928.0832)
 -->
<!-- Title: public.output Pages: 1 -->
<svg width="2359pt" height="1592pt"
 viewBox="0.00 0.00 2359.36 1591.60" xmlns="http://www.w3.org/2000/svg" xmlns:xlink="http://www.w3.org/1999/xlink">
<g id="graph0" class="graph" transform="scale(1 1) rotate(0) translate(4 1587.6)">
<title>public.output</title>
<polygon fill="white" stroke="none" points="-4,4 -4,-1587.6 2355.36,-1587.6 2355.36,4 -4,4"/>
<!-- public.output -->
<g id="node1" class="node">
<title>public.output</title>
<polygon fill="#efefef" stroke="none" points="1203.69,-912.6 1203.69,-948.2 1437.67,-948.2 1437.67,-912.6 1203.69,-912.6"/>
<polygon fill="none" stroke="black" points="1203.69,-912.6 1203.69,-948.2 1437.67,-948.2 1437.67,-912.6 1203.69,-912.6"/>
<text text-anchor="start" x="1210.69" y="-926" font-family="Arial Bold" font-size="18.00">public.output</text>
<text text-anchor="start" x="1306.18" y="-926" font-family="Arial" font-size="14.00">    </text>
<text text-anchor="start" x="1337.3" y="-926" font-family="Arial" font-size="14.00" fill="#666666">[BASE TABLE]</text>
<polygon fill="none" stroke="black" points="1203.69,-881.8 1203.69,-912.6 1437.67,-912.6 1437.67,-881.8 1203.69,-881.8"/>
<text text-anchor="start" x="1210.69" y="-894" font-family="Arial" font-size="14.00">id </text>
<text text-anchor="start" x="1225.47" y="-894" font-family="Arial" font-size="14.00" fill="#666666">[bigint]</text>
<polygon fill="none" stroke="black" points="1203.69,-851 1203.69,-881.8 1437.67,-881.8 1437.67,-851 1203.69,-851"/>
<text text-anchor="start" x="1210.69" y="-863.2" font-family="Arial" font-size="14.00">acronym </text>
<text text-anchor="start" x="1268.26" y="-863.2" font-family="Arial" font-size="14.00" fill="#666666">[varchar(255)]</text>
<polygon fill="none" stroke="black" points="1203.69,-820.2 1203.69,-851 1437.67,-851 1437.67,-820.2 1203.69,-820.2"/>
<text text-anchor="start" x="1210.69" y="-832.4" font-family="Arial" font-size="14.00">active </text>
<text text-anchor="start" x="1251.15" y="-832.4" font-family="Arial" font-size="14.00" fill="#666666">[boolean]</text>
<polygon fill="none" stroke="black" points="1203.69,-789.4 1203.69,-820.2 1437.67,-820.2 1437.67,-789.4 1203.69,-789.4"/>
<text text-anchor="start" x="1210.69" y="-801.6" font-family="Arial" font-size="14.00">equation </text>
<text text-anchor="start" x="1268.29" y="-801.6" font-family="Arial" font-size="14.00" fill="#666666">[text]</text>
<polygon fill="none" stroke="black" points="1203.69,-758.6 1203.69,-789.4 1437.67,-789.4 1437.67,-758.6 1203.69,-758.6"/>
<text text-anchor="start" x="1210.69" y="-770.8" font-family="Arial" font-size="14.00">name </text>
<text text-anchor="start" x="1249.6" y="-770.8" font-family="Arial" font-size="14.00" fill="#666666">[varchar(255)]</text>
<polygon fill="none" stroke="black" points="1203.69,-727.8 1203.69,-758.6 1437.67,-758.6 1437.67,-727.8 1203.69,-727.8"/>
<text text-anchor="start" x="1210.69" y="-740" font-family="Arial" font-size="14.00">precision </text>
<text text-anchor="start" x="1270.6" y="-740" font-family="Arial" font-size="14.00" fill="#666666">[integer]</text>
<polygon fill="none" stroke="black" points="1203.69,-697 1203.69,-727.8 1437.67,-727.8 1437.67,-697 1203.69,-697"/>
<text text-anchor="start" x="1210.69" y="-709.2" font-family="Arial" font-size="14.00">instrument_id </text>
<text text-anchor="start" x="1298.62" y="-709.2" font-family="Arial" font-size="14.00" fill="#666666">[bigint]</text>
<polygon fill="none" stroke="black" points="1203.69,-666.2 1203.69,-697 1437.67,-697 1437.67,-666.2 1203.69,-666.2"/>
<text text-anchor="start" x="1210.69" y="-678.4" font-family="Arial" font-size="14.00">measurement_unit_id </text>
<text text-anchor="start" x="1349.21" y="-678.4" font-family="Arial" font-size="14.00" fill="#666666">[bigint]</text>
<polygon fill="none" stroke="black" stroke-width="3" points="1202.19,-664.7 1202.19,-949.7 1439.17,-949.7 1439.17,-664.7 1202.19,-664.7"/>
</g>
<!-- public.instrument -->
<g id="node7" class="node">
<title>public.instrument</title>
<polygon fill="#efefef" stroke="none" points="894.97,-505.2 894.97,-540.8 1286.39,-540.8 1286.39,-505.2 894.97,-505.2"/>
<polygon fill="none" stroke="black" points="894.97,-505.2 894.97,-540.8 1286.39,-540.8 1286.39,-505.2 894.97,-505.2"/>
<text text-anchor="start" x="965.19" y="-518.6" font-family="Arial Bold" font-size="18.00">public.instrument</text>
<text text-anchor="start" x="1091.68" y="-518.6" font-family="Arial" font-size="14.00">    </text>
<text text-anchor="start" x="1122.79" y="-518.6" font-family="Arial" font-size="14.00" fill="#666666">[BASE TABLE]</text>
<polygon fill="none" stroke="black" points="894.97,-474.4 894.97,-505.2 1286.39,-505.2 1286.39,-474.4 894.97,-474.4"/>
<text text-anchor="start" x="901.97" y="-486.6" font-family="Arial" font-size="14.00">id </text>
<text text-anchor="start" x="916.75" y="-486.6" font-family="Arial" font-size="14.00" fill="#666666">[bigint]</text>
<polygon fill="none" stroke="black" points="894.97,-443.6 894.97,-474.4 1286.39,-474.4 1286.39,-443.6 894.97,-443.6"/>
<text text-anchor="start" x="901.97" y="-455.8" font-family="Arial" font-size="14.00">active </text>
<text text-anchor="start" x="942.43" y="-455.8" font-family="Arial" font-size="14.00" fill="#666666">[boolean]</text>
<polygon fill="none" stroke="black" points="894.97,-412.8 894.97,-443.6 1286.39,-443.6 1286.39,-412.8 894.97,-412.8"/>
<text text-anchor="start" x="901.97" y="-425" font-family="Arial" font-size="14.00">active_for_section </text>
<text text-anchor="start" x="1018.7" y="-425" font-family="Arial" font-size="14.00" fill="#666666">[boolean]</text>
<polygon fill="none" stroke="black" points="894.97,-382 894.97,-412.8 1286.39,-412.8 1286.39,-382 894.97,-382"/>
<text text-anchor="start" x="901.97" y="-394.2" font-family="Arial" font-size="14.00">distance_offset </text>
<text text-anchor="start" x="1000.03" y="-394.2" font-family="Arial" font-size="14.00" fill="#666666">[double precision]</text>
<polygon fill="none" stroke="black" points="894.97,-351.2 894.97,-382 1286.39,-382 1286.39,-351.2 894.97,-351.2"/>
<text text-anchor="start" x="901.97" y="-363.4" font-family="Arial" font-size="14.00">is_linimetric_ruler </text>
<text text-anchor="start" x="1014.77" y="-363.4" font-family="Arial" font-size="14.00" fill="#666666">[boolean]</text>
<polygon fill="none" stroke="black" points="894.97,-320.4 894.97,-351.2 1286.39,-351.2 1286.39,-320.4 894.97,-320.4"/>
<text text-anchor="start" x="901.97" y="-332.6" font-family="Arial" font-size="14.00">last_update_variables_date </text>
<text text-anchor="start" x="1077.1" y="-332.6" font-family="Arial" font-size="14.00" fill="#666666">[timestamp(6) without time zone]</text>
<polygon fill="none" stroke="black" points="894.97,-289.6 894.97,-320.4 1286.39,-320.4 1286.39,-289.6 894.97,-289.6"/>
<text text-anchor="start" x="901.97" y="-301.8" font-family="Arial" font-size="14.00">latitude </text>
<text text-anchor="start" x="951" y="-301.8" font-family="Arial" font-size="14.00" fill="#666666">[double precision]</text>
<polygon fill="none" stroke="black" points="894.97,-258.8 894.97,-289.6 1286.39,-289.6 1286.39,-258.8 894.97,-258.8"/>
<text text-anchor="start" x="901.97" y="-271" font-family="Arial" font-size="14.00">linimetric_ruler_code </text>
<text text-anchor="start" x="1035.02" y="-271" font-family="Arial" font-size="14.00" fill="#666666">[bigint]</text>
<polygon fill="none" stroke="black" points="894.97,-228 894.97,-258.8 1286.39,-258.8 1286.39,-228 894.97,-228"/>
<text text-anchor="start" x="901.97" y="-240.2" font-family="Arial" font-size="14.00">location </text>
<text text-anchor="start" x="954.11" y="-240.2" font-family="Arial" font-size="14.00" fill="#666666">[varchar(255)]</text>
<polygon fill="none" stroke="black" points="894.97,-197.2 894.97,-228 1286.39,-228 1286.39,-197.2 894.97,-197.2"/>
<text text-anchor="start" x="901.97" y="-209.4" font-family="Arial" font-size="14.00">longitude </text>
<text text-anchor="start" x="962.68" y="-209.4" font-family="Arial" font-size="14.00" fill="#666666">[double precision]</text>
<polygon fill="none" stroke="black" points="894.97,-166.4 894.97,-197.2 1286.39,-197.2 1286.39,-166.4 894.97,-166.4"/>
<text text-anchor="start" x="901.97" y="-178.6" font-family="Arial" font-size="14.00">name </text>
<text text-anchor="start" x="940.88" y="-178.6" font-family="Arial" font-size="14.00" fill="#666666">[varchar(255)]</text>
<polygon fill="none" stroke="black" points="894.97,-135.6 894.97,-166.4 1286.39,-166.4 1286.39,-135.6 894.97,-135.6"/>
<text text-anchor="start" x="901.97" y="-147.8" font-family="Arial" font-size="14.00">no_limit </text>
<text text-anchor="start" x="954.1" y="-147.8" font-family="Arial" font-size="14.00" fill="#666666">[boolean]</text>
<polygon fill="none" stroke="black" points="894.97,-104.8 894.97,-135.6 1286.39,-135.6 1286.39,-104.8 894.97,-104.8"/>
<text text-anchor="start" x="901.97" y="-117" font-family="Arial" font-size="14.00">dam_id </text>
<text text-anchor="start" x="951.77" y="-117" font-family="Arial" font-size="14.00" fill="#666666">[bigint]</text>
<polygon fill="none" stroke="black" points="894.97,-74 894.97,-104.8 1286.39,-104.8 1286.39,-74 894.97,-74"/>
<text text-anchor="start" x="901.97" y="-86.2" font-family="Arial" font-size="14.00">instrument_type_id </text>
<text text-anchor="start" x="1024.14" y="-86.2" font-family="Arial" font-size="14.00" fill="#666666">[bigint]</text>
<polygon fill="none" stroke="black" points="894.97,-43.2 894.97,-74 1286.39,-74 1286.39,-43.2 894.97,-43.2"/>
<text text-anchor="start" x="901.97" y="-55.4" font-family="Arial" font-size="14.00">section_id </text>
<text text-anchor="start" x="968.9" y="-55.4" font-family="Arial" font-size="14.00" fill="#666666">[bigint]</text>
</g>
<!-- public.output&#45;&gt;public.instrument -->
<g id="edge6" class="edge">
<title>public.output:instrument_id&#45;&gt;public.instrument:id</title>
<path fill="none" stroke="black" d="M1192.68,-710.93C1165.28,-701.7 1183.12,-651.02 1203.69,-620 1225.84,-586.59 1264.24,-617.41 1286.39,-584 1309.53,-549.1 1329.26,-489.8 1287.39,-489.8"/>
<polygon fill="black" stroke="black" points="1192.46,-710.9 1201.7,-716.8 1197.74,-711.67 1202.03,-712.3 1202.03,-712.3 1202.03,-712.3 1197.74,-711.67 1203.01,-707.9 1192.46,-710.9"/>
<text text-anchor="start" x="922.85" y="-722.4" font-family="Arial" font-size="10.00">FOREIGN KEY (instrument_id) REFERENCES instrument(id)</text>
</g>
<!-- public.measurement_unit -->
<g id="node8" class="node">
<title>public.measurement_unit</title>
<polygon fill="#efefef" stroke="none" points="1391.21,-320.4 1391.21,-356 1712.15,-356 1712.15,-320.4 1391.21,-320.4"/>
<polygon fill="none" stroke="black" points="1391.21,-320.4 1391.21,-356 1712.15,-356 1712.15,-320.4 1391.21,-320.4"/>
<text text-anchor="start" x="1398.21" y="-333.8" font-family="Arial Bold" font-size="18.00">public.measurement_unit</text>
<text text-anchor="start" x="1580.66" y="-333.8" font-family="Arial" font-size="14.00">    </text>
<text text-anchor="start" x="1611.78" y="-333.8" font-family="Arial" font-size="14.00" fill="#666666">[BASE TABLE]</text>
<polygon fill="none" stroke="black" points="1391.21,-289.6 1391.21,-320.4 1712.15,-320.4 1712.15,-289.6 1391.21,-289.6"/>
<text text-anchor="start" x="1398.21" y="-301.8" font-family="Arial" font-size="14.00">id </text>
<text text-anchor="start" x="1412.99" y="-301.8" font-family="Arial" font-size="14.00" fill="#666666">[bigint]</text>
<polygon fill="none" stroke="black" points="1391.21,-258.8 1391.21,-289.6 1712.15,-289.6 1712.15,-258.8 1391.21,-258.8"/>
<text text-anchor="start" x="1398.21" y="-271" font-family="Arial" font-size="14.00">acronym </text>
<text text-anchor="start" x="1455.78" y="-271" font-family="Arial" font-size="14.00" fill="#666666">[varchar(255)]</text>
<polygon fill="none" stroke="black" points="1391.21,-228 1391.21,-258.8 1712.15,-258.8 1712.15,-228 1391.21,-228"/>
<text text-anchor="start" x="1398.21" y="-240.2" font-family="Arial" font-size="14.00">name </text>
<text text-anchor="start" x="1437.12" y="-240.2" font-family="Arial" font-size="14.00" fill="#666666">[varchar(255)]</text>
</g>
<!-- public.output&#45;&gt;public.measurement_unit -->
<g id="edge7" class="edge">
<title>public.output:measurement_unit_id&#45;&gt;public.measurement_unit:id</title>
<path fill="none" stroke="black" d="M1448.79,-681.09C1591.1,-665.59 1225.08,-305 1390.21,-305"/>
<polygon fill="black" stroke="black" points="1448.99,-681.08 1438.78,-677.09 1443.66,-681.35 1439.34,-681.57 1439.34,-681.57 1439.34,-681.57 1443.66,-681.35 1439.23,-686.08 1448.99,-681.08"/>
<text text-anchor="start" x="1445.67" y="-691.6" font-family="Arial" font-size="10.00">FOREIGN KEY (measurement_unit_id) REFERENCES measurement_unit(id)</text>
</g>
<!-- public.deterministic_limit -->
<g id="node2" class="node">
<title>public.deterministic_limit</title>
<polygon fill="#efefef" stroke="none" points="43.2,-1366.2 43.2,-1401.8 368.16,-1401.8 368.16,-1366.2 43.2,-1366.2"/>
<polygon fill="none" stroke="black" points="43.2,-1366.2 43.2,-1401.8 368.16,-1401.8 368.16,-1366.2 43.2,-1366.2"/>
<text text-anchor="start" x="50.2" y="-1379.6" font-family="Arial Bold" font-size="18.00">public.deterministic_limit</text>
<text text-anchor="start" x="236.67" y="-1379.6" font-family="Arial" font-size="14.00">    </text>
<text text-anchor="start" x="267.79" y="-1379.6" font-family="Arial" font-size="14.00" fill="#666666">[BASE TABLE]</text>
<polygon fill="none" stroke="black" points="43.2,-1335.4 43.2,-1366.2 368.16,-1366.2 368.16,-1335.4 43.2,-1335.4"/>
<text text-anchor="start" x="50.2" y="-1347.6" font-family="Arial" font-size="14.00">id </text>
<text text-anchor="start" x="64.99" y="-1347.6" font-family="Arial" font-size="14.00" fill="#666666">[bigint]</text>
<polygon fill="none" stroke="black" points="43.2,-1304.6 43.2,-1335.4 368.16,-1335.4 368.16,-1304.6 43.2,-1304.6"/>
<text text-anchor="start" x="50.2" y="-1316.8" font-family="Arial" font-size="14.00">alert_value </text>
<text text-anchor="start" x="122.58" y="-1316.8" font-family="Arial" font-size="14.00" fill="#666666">[double precision]</text>
<polygon fill="none" stroke="black" points="43.2,-1273.8 43.2,-1304.6 368.16,-1304.6 368.16,-1273.8 43.2,-1273.8"/>
<text text-anchor="start" x="50.2" y="-1286" font-family="Arial" font-size="14.00">attention_value </text>
<text text-anchor="start" x="149.05" y="-1286" font-family="Arial" font-size="14.00" fill="#666666">[double precision]</text>
<polygon fill="none" stroke="black" points="43.2,-1243 43.2,-1273.8 368.16,-1273.8 368.16,-1243 43.2,-1243"/>
<text text-anchor="start" x="50.2" y="-1255.2" font-family="Arial" font-size="14.00">emergency_value </text>
<text text-anchor="start" x="164.6" y="-1255.2" font-family="Arial" font-size="14.00" fill="#666666">[double precision]</text>
<polygon fill="none" stroke="black" points="43.2,-1212.2 43.2,-1243 368.16,-1243 368.16,-1212.2 43.2,-1212.2"/>
<text text-anchor="start" x="50.2" y="-1224.4" font-family="Arial" font-size="14.00">output_id </text>
<text text-anchor="start" x="111.7" y="-1224.4" font-family="Arial" font-size="14.00" fill="#666666">[bigint]</text>
</g>
<!-- public.deterministic_limit&#45;&gt;public.output -->
<g id="edge1" class="edge">
<title>public.deterministic_limit:output_id&#45;&gt;public.output:id</title>
<path fill="none" stroke="black" d="M379.34,-1226.93C451.35,-1216.57 356.64,-1089.1 420.68,-1030.4 550.62,-911.28 1026.41,-897.2 1202.69,-897.2"/>
<polygon fill="black" stroke="black" points="379.47,-1226.92 369.2,-1223.09 374.15,-1227.27 369.83,-1227.56 369.83,-1227.56 369.83,-1227.56 374.15,-1227.27 369.79,-1232.07 379.47,-1226.92"/>
<text text-anchor="start" x="251.62" y="-1211.6" font-family="Arial" font-size="10.00">FOREIGN KEY (output_id) REFERENCES output(id)</text>
</g>
<!-- public.instrument_graph_customization_properties -->
<g id="node3" class="node">
<title>public.instrument_graph_customization_properties</title>
<polygon fill="#efefef" stroke="none" points="472.73,-1504.8 472.73,-1540.4 978.63,-1540.4 978.63,-1504.8 472.73,-1504.8"/>
<polygon fill="none" stroke="black" points="472.73,-1504.8 472.73,-1540.4 978.63,-1540.4 978.63,-1504.8 472.73,-1504.8"/>
<text text-anchor="start" x="479.73" y="-1518.2" font-family="Arial Bold" font-size="18.00">public.instrument_graph_customization_properties</text>
<text text-anchor="start" x="847.14" y="-1518.2" font-family="Arial" font-size="14.00">    </text>
<text text-anchor="start" x="878.26" y="-1518.2" font-family="Arial" font-size="14.00" fill="#666666">[BASE TABLE]</text>
<polygon fill="none" stroke="black" points="472.73,-1474 472.73,-1504.8 978.63,-1504.8 978.63,-1474 472.73,-1474"/>
<text text-anchor="start" x="479.73" y="-1486.2" font-family="Arial" font-size="14.00">id </text>
<text text-anchor="start" x="494.51" y="-1486.2" font-family="Arial" font-size="14.00" fill="#666666">[bigint]</text>
<polygon fill="none" stroke="black" points="472.73,-1443.2 472.73,-1474 978.63,-1474 978.63,-1443.2 472.73,-1443.2"/>
<text text-anchor="start" x="479.73" y="-1455.4" font-family="Arial" font-size="14.00">customization_type </text>
<text text-anchor="start" x="603.46" y="-1455.4" font-family="Arial" font-size="14.00" fill="#666666">[varchar(255)]</text>
<polygon fill="none" stroke="black" points="472.73,-1412.4 472.73,-1443.2 978.63,-1443.2 978.63,-1412.4 472.73,-1412.4"/>
<text text-anchor="start" x="479.73" y="-1424.6" font-family="Arial" font-size="14.00">fill_color </text>
<text text-anchor="start" x="534.97" y="-1424.6" font-family="Arial" font-size="14.00" fill="#666666">[varchar(255)]</text>
<polygon fill="none" stroke="black" points="472.73,-1381.6 472.73,-1412.4 978.63,-1412.4 978.63,-1381.6 472.73,-1381.6"/>
<text text-anchor="start" x="479.73" y="-1393.8" font-family="Arial" font-size="14.00">is_primary_ordinate </text>
<text text-anchor="start" x="606.56" y="-1393.8" font-family="Arial" font-size="14.00" fill="#666666">[boolean]</text>
<polygon fill="none" stroke="black" points="472.73,-1350.8 472.73,-1381.6 978.63,-1381.6 978.63,-1350.8 472.73,-1350.8"/>
<text text-anchor="start" x="479.73" y="-1363" font-family="Arial" font-size="14.00">label_enable </text>
<text text-anchor="start" x="563.02" y="-1363" font-family="Arial" font-size="14.00" fill="#666666">[boolean]</text>
<polygon fill="none" stroke="black" points="472.73,-1320 472.73,-1350.8 978.63,-1350.8 978.63,-1320 472.73,-1320"/>
<text text-anchor="start" x="479.73" y="-1332.2" font-family="Arial" font-size="14.00">limit_value_type </text>
<text text-anchor="start" x="584" y="-1332.2" font-family="Arial" font-size="14.00" fill="#666666">[varchar(255)]</text>
<polygon fill="none" stroke="black" points="472.73,-1289.2 472.73,-1320 978.63,-1320 978.63,-1289.2 472.73,-1289.2"/>
<text text-anchor="start" x="479.73" y="-1301.4" font-family="Arial" font-size="14.00">line_type </text>
<text text-anchor="start" x="539.66" y="-1301.4" font-family="Arial" font-size="14.00" fill="#666666">[varchar(255)]</text>
<polygon fill="none" stroke="black" points="472.73,-1258.4 472.73,-1289.2 978.63,-1289.2 978.63,-1258.4 472.73,-1258.4"/>
<text text-anchor="start" x="479.73" y="-1270.6" font-family="Arial" font-size="14.00">name </text>
<text text-anchor="start" x="518.64" y="-1270.6" font-family="Arial" font-size="14.00" fill="#666666">[varchar(255)]</text>
<polygon fill="none" stroke="black" points="472.73,-1227.6 472.73,-1258.4 978.63,-1258.4 978.63,-1227.6 472.73,-1227.6"/>
<text text-anchor="start" x="479.73" y="-1239.8" font-family="Arial" font-size="14.00">constant_id </text>
<text text-anchor="start" x="555.22" y="-1239.8" font-family="Arial" font-size="14.00" fill="#666666">[bigint]</text>
<polygon fill="none" stroke="black" points="472.73,-1196.8 472.73,-1227.6 978.63,-1227.6 978.63,-1196.8 472.73,-1196.8"/>
<text text-anchor="start" x="479.73" y="-1209" font-family="Arial" font-size="14.00">deterministic_limit_id </text>
<text text-anchor="start" x="613.55" y="-1209" font-family="Arial" font-size="14.00" fill="#666666">[bigint]</text>
<polygon fill="none" stroke="black" points="472.73,-1166 472.73,-1196.8 978.63,-1196.8 978.63,-1166 472.73,-1166"/>
<text text-anchor="start" x="479.73" y="-1178.2" font-family="Arial" font-size="14.00">instrument_id </text>
<text text-anchor="start" x="567.66" y="-1178.2" font-family="Arial" font-size="14.00" fill="#666666">[bigint]</text>
<polygon fill="none" stroke="black" points="472.73,-1135.2 472.73,-1166 978.63,-1166 978.63,-1135.2 472.73,-1135.2"/>
<text text-anchor="start" x="479.73" y="-1147.4" font-family="Arial" font-size="14.00">output_id </text>
<text text-anchor="start" x="541.22" y="-1147.4" font-family="Arial" font-size="14.00" fill="#666666">[bigint]</text>
<polygon fill="none" stroke="black" points="472.73,-1104.4 472.73,-1135.2 978.63,-1135.2 978.63,-1104.4 472.73,-1104.4"/>
<text text-anchor="start" x="479.73" y="-1116.6" font-family="Arial" font-size="14.00">pattern_id </text>
<text text-anchor="start" x="545.88" y="-1116.6" font-family="Arial" font-size="14.00" fill="#666666">[bigint]</text>
<polygon fill="none" stroke="black" points="472.73,-1073.6 472.73,-1104.4 978.63,-1104.4 978.63,-1073.6 472.73,-1073.6"/>
<text text-anchor="start" x="479.73" y="-1085.8" font-family="Arial" font-size="14.00">statistical_limit_id </text>
<text text-anchor="start" x="592.54" y="-1085.8" font-family="Arial" font-size="14.00" fill="#666666">[bigint]</text>
</g>
<!-- public.instrument_graph_customization_properties&#45;&gt;public.output -->
<g id="edge2" class="edge">
<title>public.instrument_graph_customization_properties:output_id&#45;&gt;public.output:id</title>
<path fill="none" stroke="black" d="M989.92,-1149.65C1032.38,-1140.87 997.6,-1073.31 1030.68,-1030.4 1089.71,-953.82 1106,-897.2 1202.69,-897.2"/>
<polygon fill="black" stroke="black" points="989.92,-1149.65 979.55,-1146.09 984.61,-1150.14 980.3,-1150.54 980.3,-1150.54 980.3,-1150.54 984.61,-1150.14 980.38,-1155.05 989.92,-1149.65"/>
<text text-anchor="start" x="986.63" y="-1160.6" font-family="Arial" font-size="10.00">FOREIGN KEY (output_id) REFERENCES output(id)</text>
</g>
<!-- public.instrument_tabulate_output_association -->
<g id="node4" class="node">
<title>public.instrument_tabulate_output_association</title>
<polygon fill="#efefef" stroke="none" points="1083.22,-1350.8 1083.22,-1386.4 1558.14,-1386.4 1558.14,-1350.8 1083.22,-1350.8"/>
<polygon fill="none" stroke="black" points="1083.22,-1350.8 1083.22,-1386.4 1558.14,-1386.4 1558.14,-1350.8 1083.22,-1350.8"/>
<text text-anchor="start" x="1090.22" y="-1364.2" font-family="Arial Bold" font-size="18.00">public.instrument_tabulate_output_association</text>
<text text-anchor="start" x="1426.65" y="-1364.2" font-family="Arial" font-size="14.00">    </text>
<text text-anchor="start" x="1457.77" y="-1364.2" font-family="Arial" font-size="14.00" fill="#666666">[BASE TABLE]</text>
<polygon fill="none" stroke="black" points="1083.22,-1320 1083.22,-1350.8 1558.14,-1350.8 1558.14,-1320 1083.22,-1320"/>
<text text-anchor="start" x="1090.22" y="-1332.2" font-family="Arial" font-size="14.00">id </text>
<text text-anchor="start" x="1105" y="-1332.2" font-family="Arial" font-size="14.00" fill="#666666">[bigint]</text>
<polygon fill="none" stroke="black" points="1083.22,-1289.2 1083.22,-1320 1558.14,-1320 1558.14,-1289.2 1083.22,-1289.2"/>
<text text-anchor="start" x="1090.22" y="-1301.4" font-family="Arial" font-size="14.00">output_index </text>
<text text-anchor="start" x="1174.28" y="-1301.4" font-family="Arial" font-size="14.00" fill="#666666">[integer]</text>
<polygon fill="none" stroke="black" points="1083.22,-1258.4 1083.22,-1289.2 1558.14,-1289.2 1558.14,-1258.4 1083.22,-1258.4"/>
<text text-anchor="start" x="1090.22" y="-1270.6" font-family="Arial" font-size="14.00">association_id </text>
<text text-anchor="start" x="1182.83" y="-1270.6" font-family="Arial" font-size="14.00" fill="#666666">[bigint]</text>
<polygon fill="none" stroke="black" points="1083.22,-1227.6 1083.22,-1258.4 1558.14,-1258.4 1558.14,-1227.6 1083.22,-1227.6"/>
<text text-anchor="start" x="1090.22" y="-1239.8" font-family="Arial" font-size="14.00">output_id </text>
<text text-anchor="start" x="1151.71" y="-1239.8" font-family="Arial" font-size="14.00" fill="#666666">[bigint]</text>
</g>
<!-- public.instrument_tabulate_output_association&#45;&gt;public.output -->
<g id="edge3" class="edge">
<title>public.instrument_tabulate_output_association:output_id&#45;&gt;public.output:id</title>
<path fill="none" stroke="black" d="M1321.05,-1216.55C1332.23,-1063.7 1590.84,-897.2 1438.67,-897.2"/>
<polygon fill="black" stroke="black" points="1321.06,-1216.27 1316.19,-1226.1 1320.86,-1221.6 1320.7,-1225.93 1320.7,-1225.93 1320.7,-1225.93 1320.86,-1221.6 1325.19,-1226.43 1321.06,-1216.27"/>
<text text-anchor="start" x="1265.41" y="-1210.6" font-family="Arial" font-size="10.00">FOREIGN KEY (output_id) REFERENCES output(id)</text>
</g>
<!-- public.reading -->
<g id="node5" class="node">
<title>public.reading</title>
<polygon fill="#efefef" stroke="none" points="1662.7,-1443.2 1662.7,-1478.8 1904.66,-1478.8 1904.66,-1443.2 1662.7,-1443.2"/>
<polygon fill="none" stroke="black" points="1662.7,-1443.2 1662.7,-1478.8 1904.66,-1478.8 1904.66,-1443.2 1662.7,-1443.2"/>
<text text-anchor="start" x="1669.7" y="-1456.6" font-family="Arial Bold" font-size="18.00">public.reading</text>
<text text-anchor="start" x="1773.17" y="-1456.6" font-family="Arial" font-size="14.00">    </text>
<text text-anchor="start" x="1804.28" y="-1456.6" font-family="Arial" font-size="14.00" fill="#666666">[BASE TABLE]</text>
<polygon fill="none" stroke="black" points="1662.7,-1412.4 1662.7,-1443.2 1904.66,-1443.2 1904.66,-1412.4 1662.7,-1412.4"/>
<text text-anchor="start" x="1669.7" y="-1424.6" font-family="Arial" font-size="14.00">id </text>
<text text-anchor="start" x="1684.49" y="-1424.6" font-family="Arial" font-size="14.00" fill="#666666">[bigint]</text>
<polygon fill="none" stroke="black" points="1662.7,-1381.6 1662.7,-1412.4 1904.66,-1412.4 1904.66,-1381.6 1662.7,-1381.6"/>
<text text-anchor="start" x="1669.7" y="-1393.8" font-family="Arial" font-size="14.00">active </text>
<text text-anchor="start" x="1710.16" y="-1393.8" font-family="Arial" font-size="14.00" fill="#666666">[boolean]</text>
<polygon fill="none" stroke="black" points="1662.7,-1350.8 1662.7,-1381.6 1904.66,-1381.6 1904.66,-1350.8 1662.7,-1350.8"/>
<text text-anchor="start" x="1669.7" y="-1363" font-family="Arial" font-size="14.00">calculated_value </text>
<text text-anchor="start" x="1777.89" y="-1363" font-family="Arial" font-size="14.00" fill="#666666">[double precision]</text>
<polygon fill="none" stroke="black" points="1662.7,-1320 1662.7,-1350.8 1904.66,-1350.8 1904.66,-1320 1662.7,-1320"/>
<text text-anchor="start" x="1669.7" y="-1332.2" font-family="Arial" font-size="14.00">comment </text>
<text text-anchor="start" x="1731.16" y="-1332.2" font-family="Arial" font-size="14.00" fill="#666666">[text]</text>
<polygon fill="none" stroke="black" points="1662.7,-1289.2 1662.7,-1320 1904.66,-1320 1904.66,-1289.2 1662.7,-1289.2"/>
<text text-anchor="start" x="1669.7" y="-1301.4" font-family="Arial" font-size="14.00">date </text>
<text text-anchor="start" x="1700.84" y="-1301.4" font-family="Arial" font-size="14.00" fill="#666666">[date]</text>
<polygon fill="none" stroke="black" points="1662.7,-1258.4 1662.7,-1289.2 1904.66,-1289.2 1904.66,-1258.4 1662.7,-1258.4"/>
<text text-anchor="start" x="1669.7" y="-1270.6" font-family="Arial" font-size="14.00">hour </text>
<text text-anchor="start" x="1701.61" y="-1270.6" font-family="Arial" font-size="14.00" fill="#666666">[time(6) without time zone]</text>
<polygon fill="none" stroke="black" points="1662.7,-1227.6 1662.7,-1258.4 1904.66,-1258.4 1904.66,-1227.6 1662.7,-1227.6"/>
<text text-anchor="start" x="1669.7" y="-1239.8" font-family="Arial" font-size="14.00">limit_status </text>
<text text-anchor="start" x="1743.61" y="-1239.8" font-family="Arial" font-size="14.00" fill="#666666">[varchar(255)]</text>
<polygon fill="none" stroke="black" points="1662.7,-1196.8 1662.7,-1227.6 1904.66,-1227.6 1904.66,-1196.8 1662.7,-1196.8"/>
<text text-anchor="start" x="1669.7" y="-1209" font-family="Arial" font-size="14.00">instrument_id </text>
<text text-anchor="start" x="1757.63" y="-1209" font-family="Arial" font-size="14.00" fill="#666666">[bigint]</text>
<polygon fill="none" stroke="black" points="1662.7,-1166 1662.7,-1196.8 1904.66,-1196.8 1904.66,-1166 1662.7,-1166"/>
<text text-anchor="start" x="1669.7" y="-1178.2" font-family="Arial" font-size="14.00">output_id </text>
<text text-anchor="start" x="1731.2" y="-1178.2" font-family="Arial" font-size="14.00" fill="#666666">[bigint]</text>
<polygon fill="none" stroke="black" points="1662.7,-1135.2 1662.7,-1166 1904.66,-1166 1904.66,-1135.2 1662.7,-1135.2"/>
<text text-anchor="start" x="1669.7" y="-1147.4" font-family="Arial" font-size="14.00">user_id </text>
<text text-anchor="start" x="1719.51" y="-1147.4" font-family="Arial" font-size="14.00" fill="#666666">[bigint]</text>
</g>
<!-- public.reading&#45;&gt;public.output -->
<g id="edge4" class="edge">
<title>public.reading:output_id&#45;&gt;public.output:id</title>
<path fill="none" stroke="black" d="M1651.56,-1180.64C1597,-1171.66 1649.61,-1085.06 1610.68,-1030.4 1554.59,-951.64 1535.36,-897.2 1438.67,-897.2"/>
<polygon fill="black" stroke="black" points="1651.4,-1180.63 1661.03,-1185.86 1656.72,-1181.03 1661.03,-1181.35 1661.03,-1181.35 1661.03,-1181.35 1656.72,-1181.03 1661.7,-1176.89 1651.4,-1180.63"/>
<text text-anchor="start" x="1419.62" y="-1165.4" font-family="Arial" font-size="10.00">FOREIGN KEY (output_id) REFERENCES output(id)</text>
</g>
<!-- public.statistical_limit -->
<g id="node6" class="node">
<title>public.statistical_limit</title>
<polygon fill="#efefef" stroke="none" points="2009.19,-1350.8 2009.19,-1386.4 2308.16,-1386.4 2308.16,-1350.8 2009.19,-1350.8"/>
<polygon fill="none" stroke="black" points="2009.19,-1350.8 2009.19,-1386.4 2308.16,-1386.4 2308.16,-1350.8 2009.19,-1350.8"/>
<text text-anchor="start" x="2016.19" y="-1364.2" font-family="Arial Bold" font-size="18.00">public.statistical_limit</text>
<text text-anchor="start" x="2176.67" y="-1364.2" font-family="Arial" font-size="14.00">    </text>
<text text-anchor="start" x="2207.79" y="-1364.2" font-family="Arial" font-size="14.00" fill="#666666">[BASE TABLE]</text>
<polygon fill="none" stroke="black" points="2009.19,-1320 2009.19,-1350.8 2308.16,-1350.8 2308.16,-1320 2009.19,-1320"/>
<text text-anchor="start" x="2016.19" y="-1332.2" font-family="Arial" font-size="14.00">id </text>
<text text-anchor="start" x="2030.98" y="-1332.2" font-family="Arial" font-size="14.00" fill="#666666">[bigint]</text>
<polygon fill="none" stroke="black" points="2009.19,-1289.2 2009.19,-1320 2308.16,-1320 2308.16,-1289.2 2009.19,-1289.2"/>
<text text-anchor="start" x="2016.19" y="-1301.4" font-family="Arial" font-size="14.00">lower_value </text>
<text text-anchor="start" x="2094.79" y="-1301.4" font-family="Arial" font-size="14.00" fill="#666666">[double precision]</text>
<polygon fill="none" stroke="black" points="2009.19,-1258.4 2009.19,-1289.2 2308.16,-1289.2 2308.16,-1258.4 2009.19,-1258.4"/>
<text text-anchor="start" x="2016.19" y="-1270.6" font-family="Arial" font-size="14.00">upper_value </text>
<text text-anchor="start" x="2097.15" y="-1270.6" font-family="Arial" font-size="14.00" fill="#666666">[double precision]</text>
<polygon fill="none" stroke="black" points="2009.19,-1227.6 2009.19,-1258.4 2308.16,-1258.4 2308.16,-1227.6 2009.19,-1227.6"/>
<text text-anchor="start" x="2016.19" y="-1239.8" font-family="Arial" font-size="14.00">output_id </text>
<text text-anchor="start" x="2077.69" y="-1239.8" font-family="Arial" font-size="14.00" fill="#666666">[bigint]</text>
</g>
<!-- public.statistical_limit&#45;&gt;public.output -->
<g id="edge5" class="edge">
<title>public.statistical_limit:output_id&#45;&gt;public.output:id</title>
<path fill="none" stroke="black" d="M1998.22,-1242.42C1919.18,-1232.46 2022.41,-1097.06 1956.68,-1030.4 1873.22,-945.77 1557.53,-897.2 1438.67,-897.2"/>
<polygon fill="black" stroke="black" points="1997.88,-1242.4 2007.6,-1247.47 2003.2,-1242.71 2007.53,-1242.96 2007.53,-1242.96 2007.53,-1242.96 2003.2,-1242.71 2008.12,-1238.49 1997.88,-1242.4"/>
<text text-anchor="start" x="1766.12" y="-1253" font-family="Arial" font-size="10.00">FOREIGN KEY (output_id) REFERENCES output(id)</text>
</g>
</g>
</svg>
