<?xml version="1.0" encoding="UTF-8" standalone="no"?>
<!DOCTYPE svg PUBLIC "-//W3C//DTD SVG 1.1//EN"
 "http://www.w3.org/Graphics/SVG/1.1/DTD/svg11.dtd">
<!-- Generated by graphviz version 12.1.2 (20240928.0832)
 -->
<!-- Title: public.questions Pages: 1 -->
<svg width="1286pt" height="571pt"
 viewBox="0.00 0.00 1285.84 571.20" xmlns="http://www.w3.org/2000/svg" xmlns:xlink="http://www.w3.org/1999/xlink">
<g id="graph0" class="graph" transform="scale(1 1) rotate(0) translate(4 567.2)">
<title>public.questions</title>
<polygon fill="white" stroke="none" points="-4,4 -4,-567.2 1281.84,-567.2 1281.84,4 -4,4"/>
<!-- public.questions -->
<g id="node1" class="node">
<title>public.questions</title>
<polygon fill="#efefef" stroke="none" points="417.19,-138.6 417.19,-174.2 673.17,-174.2 673.17,-138.6 417.19,-138.6"/>
<polygon fill="none" stroke="black" points="417.19,-138.6 417.19,-174.2 673.17,-174.2 673.17,-138.6 417.19,-138.6"/>
<text text-anchor="start" x="424.19" y="-152" font-family="Arial Bold" font-size="18.00">public.questions</text>
<text text-anchor="start" x="541.68" y="-152" font-family="Arial" font-size="14.00">    </text>
<text text-anchor="start" x="572.8" y="-152" font-family="Arial" font-size="14.00" fill="#666666">[BASE TABLE]</text>
<polygon fill="none" stroke="black" points="417.19,-107.8 417.19,-138.6 673.17,-138.6 673.17,-107.8 417.19,-107.8"/>
<text text-anchor="start" x="424.19" y="-120" font-family="Arial" font-size="14.00">id </text>
<text text-anchor="start" x="438.98" y="-120" font-family="Arial" font-size="14.00" fill="#666666">[bigint]</text>
<polygon fill="none" stroke="black" points="417.19,-77 417.19,-107.8 673.17,-107.8 673.17,-77 417.19,-77"/>
<text text-anchor="start" x="424.19" y="-89.2" font-family="Arial" font-size="14.00">question_text </text>
<text text-anchor="start" x="511.36" y="-89.2" font-family="Arial" font-size="14.00" fill="#666666">[varchar(255)]</text>
<polygon fill="none" stroke="black" points="417.19,-46.2 417.19,-77 673.17,-77 673.17,-46.2 417.19,-46.2"/>
<text text-anchor="start" x="424.19" y="-58.4" font-family="Arial" font-size="14.00">type </text>
<text text-anchor="start" x="454.54" y="-58.4" font-family="Arial" font-size="14.00" fill="#666666">[varchar(255)]</text>
<polygon fill="none" stroke="black" stroke-width="3" points="415.69,-44.7 415.69,-175.7 674.67,-175.7 674.67,-44.7 415.69,-44.7"/>
</g>
<!-- public.answers -->
<g id="node2" class="node">
<title>public.answers</title>
<polygon fill="#efefef" stroke="none" points="43.2,-484.4 43.2,-520 289.16,-520 289.16,-484.4 43.2,-484.4"/>
<polygon fill="none" stroke="black" points="43.2,-484.4 43.2,-520 289.16,-520 289.16,-484.4 43.2,-484.4"/>
<text text-anchor="start" x="50.2" y="-497.8" font-family="Arial Bold" font-size="18.00">public.answers</text>
<text text-anchor="start" x="157.67" y="-497.8" font-family="Arial" font-size="14.00">    </text>
<text text-anchor="start" x="188.79" y="-497.8" font-family="Arial" font-size="14.00" fill="#666666">[BASE TABLE]</text>
<polygon fill="none" stroke="black" points="43.2,-453.6 43.2,-484.4 289.16,-484.4 289.16,-453.6 43.2,-453.6"/>
<text text-anchor="start" x="50.2" y="-465.8" font-family="Arial" font-size="14.00">id </text>
<text text-anchor="start" x="64.99" y="-465.8" font-family="Arial" font-size="14.00" fill="#666666">[bigint]</text>
<polygon fill="none" stroke="black" points="43.2,-422.8 43.2,-453.6 289.16,-453.6 289.16,-422.8 43.2,-422.8"/>
<text text-anchor="start" x="50.2" y="-435" font-family="Arial" font-size="14.00">comment </text>
<text text-anchor="start" x="111.66" y="-435" font-family="Arial" font-size="14.00" fill="#666666">[text]</text>
<polygon fill="none" stroke="black" points="43.2,-392 43.2,-422.8 289.16,-422.8 289.16,-392 43.2,-392"/>
<text text-anchor="start" x="50.2" y="-404.2" font-family="Arial" font-size="14.00">latitude </text>
<text text-anchor="start" x="99.23" y="-404.2" font-family="Arial" font-size="14.00" fill="#666666">[double precision]</text>
<polygon fill="none" stroke="black" points="43.2,-361.2 43.2,-392 289.16,-392 289.16,-361.2 43.2,-361.2"/>
<text text-anchor="start" x="50.2" y="-373.4" font-family="Arial" font-size="14.00">longitude </text>
<text text-anchor="start" x="110.92" y="-373.4" font-family="Arial" font-size="14.00" fill="#666666">[double precision]</text>
<polygon fill="none" stroke="black" points="43.2,-330.4 43.2,-361.2 289.16,-361.2 289.16,-330.4 43.2,-330.4"/>
<text text-anchor="start" x="50.2" y="-342.6" font-family="Arial" font-size="14.00">question_id </text>
<text text-anchor="start" x="125.7" y="-342.6" font-family="Arial" font-size="14.00" fill="#666666">[bigint]</text>
<polygon fill="none" stroke="black" points="43.2,-299.6 43.2,-330.4 289.16,-330.4 289.16,-299.6 43.2,-299.6"/>
<text text-anchor="start" x="50.2" y="-311.8" font-family="Arial" font-size="14.00">questionnaire_response_id </text>
<text text-anchor="start" x="222.21" y="-311.8" font-family="Arial" font-size="14.00" fill="#666666">[bigint]</text>
</g>
<!-- public.answers&#45;&gt;public.questions -->
<g id="edge1" class="edge">
<title>public.answers:question_id&#45;&gt;public.questions:id</title>
<path fill="none" stroke="black" d="M295.79,-337.35C320,-296.69 413.05,-123.2 416.19,-123.2"/>
<polygon fill="black" stroke="black" points="295.89,-337.2 286.6,-343.03 292.93,-341.64 290.53,-345.24 290.53,-345.24 290.53,-345.24 292.93,-341.64 294.09,-348.02 295.89,-337.2"/>
<text text-anchor="start" x="297.16" y="-355.8" font-family="Arial" font-size="10.00">FOREIGN KEY (question_id) REFERENCES questions(id)</text>
</g>
<!-- public.question_option -->
<g id="node3" class="node">
<title>public.question_option</title>
<polygon fill="#efefef" stroke="none" points="393.19,-422.8 393.19,-458.4 697.17,-458.4 697.17,-422.8 393.19,-422.8"/>
<polygon fill="none" stroke="black" points="393.19,-422.8 393.19,-458.4 697.17,-458.4 697.17,-422.8 393.19,-422.8"/>
<text text-anchor="start" x="400.19" y="-436.2" font-family="Arial Bold" font-size="18.00">public.question_option</text>
<text text-anchor="start" x="565.68" y="-436.2" font-family="Arial" font-size="14.00">    </text>
<text text-anchor="start" x="596.8" y="-436.2" font-family="Arial" font-size="14.00" fill="#666666">[BASE TABLE]</text>
<polygon fill="none" stroke="black" points="393.19,-392 393.19,-422.8 697.17,-422.8 697.17,-392 393.19,-392"/>
<text text-anchor="start" x="400.19" y="-404.2" font-family="Arial" font-size="14.00">question_id </text>
<text text-anchor="start" x="475.69" y="-404.2" font-family="Arial" font-size="14.00" fill="#666666">[bigint]</text>
<polygon fill="none" stroke="black" points="393.19,-361.2 393.19,-392 697.17,-392 697.17,-361.2 393.19,-361.2"/>
<text text-anchor="start" x="400.19" y="-373.4" font-family="Arial" font-size="14.00">option_id </text>
<text text-anchor="start" x="460.91" y="-373.4" font-family="Arial" font-size="14.00" fill="#666666">[bigint]</text>
</g>
<!-- public.question_option&#45;&gt;public.questions -->
<g id="edge2" class="edge">
<title>public.question_option:question_id&#45;&gt;public.questions:id</title>
<path fill="none" stroke="black" d="M708.11,-404.77C758.71,-376.12 733.96,-123.2 674.17,-123.2"/>
<polygon fill="black" stroke="black" points="708.16,-404.75 697.34,-402.96 703,-406.12 698.82,-407.23 698.82,-407.23 698.82,-407.23 703,-406.12 699.65,-411.66 708.16,-404.75"/>
<text text-anchor="start" x="705.17" y="-417.4" font-family="Arial" font-size="10.00">FOREIGN KEY (question_id) REFERENCES questions(id)</text>
</g>
<!-- public.template_questionnaire_questions -->
<g id="node4" class="node">
<title>public.template_questionnaire_questions</title>
<polygon fill="#efefef" stroke="none" points="801.72,-453.6 801.72,-489.2 1234.64,-489.2 1234.64,-453.6 801.72,-453.6"/>
<polygon fill="none" stroke="black" points="801.72,-453.6 801.72,-489.2 1234.64,-489.2 1234.64,-453.6 801.72,-453.6"/>
<text text-anchor="start" x="808.72" y="-467" font-family="Arial Bold" font-size="18.00">public.template_questionnaire_questions</text>
<text text-anchor="start" x="1103.15" y="-467" font-family="Arial" font-size="14.00">    </text>
<text text-anchor="start" x="1134.27" y="-467" font-family="Arial" font-size="14.00" fill="#666666">[BASE TABLE]</text>
<polygon fill="none" stroke="black" points="801.72,-422.8 801.72,-453.6 1234.64,-453.6 1234.64,-422.8 801.72,-422.8"/>
<text text-anchor="start" x="808.72" y="-435" font-family="Arial" font-size="14.00">id </text>
<text text-anchor="start" x="823.51" y="-435" font-family="Arial" font-size="14.00" fill="#666666">[bigint]</text>
<polygon fill="none" stroke="black" points="801.72,-392 801.72,-422.8 1234.64,-422.8 1234.64,-392 801.72,-392"/>
<text text-anchor="start" x="808.72" y="-404.2" font-family="Arial" font-size="14.00">order_index </text>
<text text-anchor="start" x="886.55" y="-404.2" font-family="Arial" font-size="14.00" fill="#666666">[integer]</text>
<polygon fill="none" stroke="black" points="801.72,-361.2 801.72,-392 1234.64,-392 1234.64,-361.2 801.72,-361.2"/>
<text text-anchor="start" x="808.72" y="-373.4" font-family="Arial" font-size="14.00">question_id </text>
<text text-anchor="start" x="884.22" y="-373.4" font-family="Arial" font-size="14.00" fill="#666666">[bigint]</text>
<polygon fill="none" stroke="black" points="801.72,-330.4 801.72,-361.2 1234.64,-361.2 1234.64,-330.4 801.72,-330.4"/>
<text text-anchor="start" x="808.72" y="-342.6" font-family="Arial" font-size="14.00">template_questionnaire_id </text>
<text text-anchor="start" x="976.84" y="-342.6" font-family="Arial" font-size="14.00" fill="#666666">[bigint]</text>
</g>
<!-- public.template_questionnaire_questions&#45;&gt;public.questions -->
<g id="edge3" class="edge">
<title>public.template_questionnaire_questions:question_id&#45;&gt;public.questions:id</title>
<path fill="none" stroke="black" d="M790.57,-375.77C746.52,-367.89 773.27,-305.15 749.18,-256.4 719.08,-195.49 742.11,-123.2 674.17,-123.2"/>
<polygon fill="black" stroke="black" points="790.42,-375.76 800.02,-381.06 795.74,-376.19 800.05,-376.55 800.05,-376.55 800.05,-376.55 795.74,-376.19 800.75,-372.09 790.42,-375.76"/>
<text text-anchor="start" x="807.72" y="-386.6" font-family="Arial" font-size="10.00">FOREIGN KEY (question_id) REFERENCES questions(id)</text>
</g>
</g>
</svg>
