<?xml version="1.0" encoding="UTF-8" standalone="no"?>
<!DOCTYPE svg PUBLIC "-//W3C//DTD SVG 1.1//EN"
 "http://www.w3.org/Graphics/SVG/1.1/DTD/svg11.dtd">
<!-- Generated by graphviz version 12.1.2 (20240928.0832)
 -->
<!-- Title: public.section Pages: 1 -->
<svg width="504pt" height="1653pt"
 viewBox="0.00 0.00 503.75 1653.20" xmlns="http://www.w3.org/2000/svg" xmlns:xlink="http://www.w3.org/1999/xlink">
<g id="graph0" class="graph" transform="scale(1 1) rotate(0) translate(4 1649.2)">
<title>public.section</title>
<polygon fill="white" stroke="none" points="-4,4 -4,-1649.2 499.75,-1649.2 499.75,4 -4,4"/>
<!-- public.section -->
<g id="node1" class="node">
<title>public.section</title>
<polygon fill="#efefef" stroke="none" points="115.19,-943.4 115.19,-979 398.49,-979 398.49,-943.4 115.19,-943.4"/>
<polygon fill="none" stroke="black" points="115.19,-943.4 115.19,-979 398.49,-979 398.49,-943.4 115.19,-943.4"/>
<text text-anchor="start" x="144.36" y="-956.8" font-family="Arial Bold" font-size="18.00">public.section</text>
<text text-anchor="start" x="244.84" y="-956.8" font-family="Arial" font-size="14.00">    </text>
<text text-anchor="start" x="275.95" y="-956.8" font-family="Arial" font-size="14.00" fill="#666666">[BASE TABLE]</text>
<polygon fill="none" stroke="black" points="115.19,-912.6 115.19,-943.4 398.49,-943.4 398.49,-912.6 115.19,-912.6"/>
<text text-anchor="start" x="122.19" y="-924.8" font-family="Arial" font-size="14.00">id </text>
<text text-anchor="start" x="136.98" y="-924.8" font-family="Arial" font-size="14.00" fill="#666666">[bigint]</text>
<polygon fill="none" stroke="black" points="115.19,-881.8 115.19,-912.6 398.49,-912.6 398.49,-881.8 115.19,-881.8"/>
<text text-anchor="start" x="122.19" y="-894" font-family="Arial" font-size="14.00">file_path </text>
<text text-anchor="start" x="179.01" y="-894" font-family="Arial" font-size="14.00" fill="#666666">[varchar(255)]</text>
<polygon fill="none" stroke="black" points="115.19,-851 115.19,-881.8 398.49,-881.8 398.49,-851 115.19,-851"/>
<text text-anchor="start" x="122.19" y="-863.2" font-family="Arial" font-size="14.00">first_vertex_latitude </text>
<text text-anchor="start" x="247.48" y="-863.2" font-family="Arial" font-size="14.00" fill="#666666">[double precision]</text>
<polygon fill="none" stroke="black" points="115.19,-820.2 115.19,-851 398.49,-851 398.49,-820.2 115.19,-820.2"/>
<text text-anchor="start" x="122.19" y="-832.4" font-family="Arial" font-size="14.00">first_vertex_longitude </text>
<text text-anchor="start" x="259.16" y="-832.4" font-family="Arial" font-size="14.00" fill="#666666">[double precision]</text>
<polygon fill="none" stroke="black" points="115.19,-789.4 115.19,-820.2 398.49,-820.2 398.49,-789.4 115.19,-789.4"/>
<text text-anchor="start" x="122.19" y="-801.6" font-family="Arial" font-size="14.00">name </text>
<text text-anchor="start" x="161.1" y="-801.6" font-family="Arial" font-size="14.00" fill="#666666">[varchar(255)]</text>
<polygon fill="none" stroke="black" points="115.19,-758.6 115.19,-789.4 398.49,-789.4 398.49,-758.6 115.19,-758.6"/>
<text text-anchor="start" x="122.19" y="-770.8" font-family="Arial" font-size="14.00">second_vertex_latitude </text>
<text text-anchor="start" x="270.07" y="-770.8" font-family="Arial" font-size="14.00" fill="#666666">[double precision]</text>
<polygon fill="none" stroke="black" points="115.19,-727.8 115.19,-758.6 398.49,-758.6 398.49,-727.8 115.19,-727.8"/>
<text text-anchor="start" x="122.19" y="-740" font-family="Arial" font-size="14.00">second_vertex_longitude </text>
<text text-anchor="start" x="281.75" y="-740" font-family="Arial" font-size="14.00" fill="#666666">[double precision]</text>
<polygon fill="none" stroke="black" points="115.19,-697 115.19,-727.8 398.49,-727.8 398.49,-697 115.19,-697"/>
<text text-anchor="start" x="122.19" y="-709.2" font-family="Arial" font-size="14.00">dam_id </text>
<text text-anchor="start" x="172" y="-709.2" font-family="Arial" font-size="14.00" fill="#666666">[bigint]</text>
<polygon fill="none" stroke="black" stroke-width="3" points="113.69,-695.5 113.69,-980.5 399.99,-980.5 399.99,-695.5 113.69,-695.5"/>
</g>
<!-- public.dam -->
<g id="node3" class="node">
<title>public.dam</title>
<polygon fill="#efefef" stroke="none" points="147.36,-536 147.36,-571.6 366.33,-571.6 366.33,-536 147.36,-536"/>
<polygon fill="none" stroke="black" points="147.36,-536 147.36,-571.6 366.33,-571.6 366.33,-536 147.36,-536"/>
<text text-anchor="start" x="154.36" y="-549.4" font-family="Arial Bold" font-size="18.00">public.dam</text>
<text text-anchor="start" x="234.84" y="-549.4" font-family="Arial" font-size="14.00">    </text>
<text text-anchor="start" x="265.96" y="-549.4" font-family="Arial" font-size="14.00" fill="#666666">[BASE TABLE]</text>
<polygon fill="none" stroke="black" points="147.36,-505.2 147.36,-536 366.33,-536 366.33,-505.2 147.36,-505.2"/>
<text text-anchor="start" x="154.36" y="-517.4" font-family="Arial" font-size="14.00">id </text>
<text text-anchor="start" x="169.14" y="-517.4" font-family="Arial" font-size="14.00" fill="#666666">[bigint]</text>
<polygon fill="none" stroke="black" points="147.36,-474.4 147.36,-505.2 366.33,-505.2 366.33,-474.4 147.36,-474.4"/>
<text text-anchor="start" x="154.36" y="-486.6" font-family="Arial" font-size="14.00">city </text>
<text text-anchor="start" x="179.25" y="-486.6" font-family="Arial" font-size="14.00" fill="#666666">[varchar(100)]</text>
<polygon fill="none" stroke="black" points="147.36,-443.6 147.36,-474.4 366.33,-474.4 366.33,-443.6 147.36,-443.6"/>
<text text-anchor="start" x="154.36" y="-455.8" font-family="Arial" font-size="14.00">dam_image_path </text>
<text text-anchor="start" x="266.43" y="-455.8" font-family="Arial" font-size="14.00" fill="#666666">[varchar(255)]</text>
<polygon fill="none" stroke="black" points="147.36,-412.8 147.36,-443.6 366.33,-443.6 366.33,-412.8 147.36,-412.8"/>
<text text-anchor="start" x="154.36" y="-425" font-family="Arial" font-size="14.00">latitude </text>
<text text-anchor="start" x="203.39" y="-425" font-family="Arial" font-size="14.00" fill="#666666">[double precision]</text>
<polygon fill="none" stroke="black" points="147.36,-382 147.36,-412.8 366.33,-412.8 366.33,-382 147.36,-382"/>
<text text-anchor="start" x="154.36" y="-394.2" font-family="Arial" font-size="14.00">link_legislation </text>
<text text-anchor="start" x="249.3" y="-394.2" font-family="Arial" font-size="14.00" fill="#666666">[varchar(255)]</text>
<polygon fill="none" stroke="black" points="147.36,-351.2 147.36,-382 366.33,-382 366.33,-351.2 147.36,-351.2"/>
<text text-anchor="start" x="154.36" y="-363.4" font-family="Arial" font-size="14.00">linkpsb </text>
<text text-anchor="start" x="201.83" y="-363.4" font-family="Arial" font-size="14.00" fill="#666666">[varchar(255)]</text>
<polygon fill="none" stroke="black" points="147.36,-320.4 147.36,-351.2 366.33,-351.2 366.33,-320.4 147.36,-320.4"/>
<text text-anchor="start" x="154.36" y="-332.6" font-family="Arial" font-size="14.00">logo_path </text>
<text text-anchor="start" x="219.75" y="-332.6" font-family="Arial" font-size="14.00" fill="#666666">[varchar(255)]</text>
<polygon fill="none" stroke="black" points="147.36,-289.6 147.36,-320.4 366.33,-320.4 366.33,-289.6 147.36,-289.6"/>
<text text-anchor="start" x="154.36" y="-301.8" font-family="Arial" font-size="14.00">longitude </text>
<text text-anchor="start" x="215.07" y="-301.8" font-family="Arial" font-size="14.00" fill="#666666">[double precision]</text>
<polygon fill="none" stroke="black" points="147.36,-258.8 147.36,-289.6 366.33,-289.6 366.33,-258.8 147.36,-258.8"/>
<text text-anchor="start" x="154.36" y="-271" font-family="Arial" font-size="14.00">name </text>
<text text-anchor="start" x="193.27" y="-271" font-family="Arial" font-size="14.00" fill="#666666">[varchar(255)]</text>
<polygon fill="none" stroke="black" points="147.36,-228 147.36,-258.8 366.33,-258.8 366.33,-228 147.36,-228"/>
<text text-anchor="start" x="154.36" y="-240.2" font-family="Arial" font-size="14.00">neighborhood </text>
<text text-anchor="start" x="243.88" y="-240.2" font-family="Arial" font-size="14.00" fill="#666666">[varchar(100)]</text>
<polygon fill="none" stroke="black" points="147.36,-197.2 147.36,-228 366.33,-228 366.33,-197.2 147.36,-197.2"/>
<text text-anchor="start" x="154.36" y="-209.4" font-family="Arial" font-size="14.00">number_address </text>
<text text-anchor="start" x="263.31" y="-209.4" font-family="Arial" font-size="14.00" fill="#666666">[varchar(10)]</text>
<polygon fill="none" stroke="black" points="147.36,-166.4 147.36,-197.2 366.33,-197.2 366.33,-166.4 147.36,-166.4"/>
<text text-anchor="start" x="154.36" y="-178.6" font-family="Arial" font-size="14.00">state </text>
<text text-anchor="start" x="188.6" y="-178.6" font-family="Arial" font-size="14.00" fill="#666666">[varchar(100)]</text>
<polygon fill="none" stroke="black" points="147.36,-135.6 147.36,-166.4 366.33,-166.4 366.33,-135.6 147.36,-135.6"/>
<text text-anchor="start" x="154.36" y="-147.8" font-family="Arial" font-size="14.00">street </text>
<text text-anchor="start" x="193.26" y="-147.8" font-family="Arial" font-size="14.00" fill="#666666">[varchar(255)]</text>
<polygon fill="none" stroke="black" points="147.36,-104.8 147.36,-135.6 366.33,-135.6 366.33,-104.8 147.36,-104.8"/>
<text text-anchor="start" x="154.36" y="-117" font-family="Arial" font-size="14.00">zip_code </text>
<text text-anchor="start" x="214.29" y="-117" font-family="Arial" font-size="14.00" fill="#666666">[varchar(9)]</text>
<polygon fill="none" stroke="black" points="147.36,-74 147.36,-104.8 366.33,-104.8 366.33,-74 147.36,-74"/>
<text text-anchor="start" x="154.36" y="-86.2" font-family="Arial" font-size="14.00">client_id </text>
<text text-anchor="start" x="209.61" y="-86.2" font-family="Arial" font-size="14.00" fill="#666666">[bigint]</text>
<polygon fill="none" stroke="black" points="147.36,-43.2 147.36,-74 366.33,-74 366.33,-43.2 147.36,-43.2"/>
<text text-anchor="start" x="154.36" y="-55.4" font-family="Arial" font-size="14.00">status_id </text>
<text text-anchor="start" x="214.28" y="-55.4" font-family="Arial" font-size="14.00" fill="#666666">[bigint]</text>
</g>
<!-- public.section&#45;&gt;public.dam -->
<g id="edge2" class="edge">
<title>public.section:dam_id&#45;&gt;public.dam:id</title>
<path fill="none" stroke="black" d="M257.77,-685.7C266.87,-639.25 340.52,-665.4 366.33,-614.8 385.35,-577.5 409.2,-520.6 367.33,-520.6"/>
<polygon fill="black" stroke="black" points="257.77,-685.71 252.39,-695.26 257.29,-691.02 256.9,-695.33 256.9,-695.33 256.9,-695.33 257.29,-691.02 261.35,-696.07 257.77,-685.71"/>
<text text-anchor="start" x="31.46" y="-706" font-family="Arial" font-size="10.00">FOREIGN KEY (dam_id) REFERENCES dam(id)</text>
</g>
<!-- public.instrument -->
<g id="node2" class="node">
<title>public.instrument</title>
<polygon fill="#efefef" stroke="none" points="61.13,-1566.4 61.13,-1602 452.55,-1602 452.55,-1566.4 61.13,-1566.4"/>
<polygon fill="none" stroke="black" points="61.13,-1566.4 61.13,-1602 452.55,-1602 452.55,-1566.4 61.13,-1566.4"/>
<text text-anchor="start" x="131.36" y="-1579.8" font-family="Arial Bold" font-size="18.00">public.instrument</text>
<text text-anchor="start" x="257.84" y="-1579.8" font-family="Arial" font-size="14.00">    </text>
<text text-anchor="start" x="288.96" y="-1579.8" font-family="Arial" font-size="14.00" fill="#666666">[BASE TABLE]</text>
<polygon fill="none" stroke="black" points="61.13,-1535.6 61.13,-1566.4 452.55,-1566.4 452.55,-1535.6 61.13,-1535.6"/>
<text text-anchor="start" x="68.13" y="-1547.8" font-family="Arial" font-size="14.00">id </text>
<text text-anchor="start" x="82.92" y="-1547.8" font-family="Arial" font-size="14.00" fill="#666666">[bigint]</text>
<polygon fill="none" stroke="black" points="61.13,-1504.8 61.13,-1535.6 452.55,-1535.6 452.55,-1504.8 61.13,-1504.8"/>
<text text-anchor="start" x="68.13" y="-1517" font-family="Arial" font-size="14.00">active </text>
<text text-anchor="start" x="108.59" y="-1517" font-family="Arial" font-size="14.00" fill="#666666">[boolean]</text>
<polygon fill="none" stroke="black" points="61.13,-1474 61.13,-1504.8 452.55,-1504.8 452.55,-1474 61.13,-1474"/>
<text text-anchor="start" x="68.13" y="-1486.2" font-family="Arial" font-size="14.00">active_for_section </text>
<text text-anchor="start" x="184.86" y="-1486.2" font-family="Arial" font-size="14.00" fill="#666666">[boolean]</text>
<polygon fill="none" stroke="black" points="61.13,-1443.2 61.13,-1474 452.55,-1474 452.55,-1443.2 61.13,-1443.2"/>
<text text-anchor="start" x="68.13" y="-1455.4" font-family="Arial" font-size="14.00">distance_offset </text>
<text text-anchor="start" x="166.19" y="-1455.4" font-family="Arial" font-size="14.00" fill="#666666">[double precision]</text>
<polygon fill="none" stroke="black" points="61.13,-1412.4 61.13,-1443.2 452.55,-1443.2 452.55,-1412.4 61.13,-1412.4"/>
<text text-anchor="start" x="68.13" y="-1424.6" font-family="Arial" font-size="14.00">is_linimetric_ruler </text>
<text text-anchor="start" x="180.94" y="-1424.6" font-family="Arial" font-size="14.00" fill="#666666">[boolean]</text>
<polygon fill="none" stroke="black" points="61.13,-1381.6 61.13,-1412.4 452.55,-1412.4 452.55,-1381.6 61.13,-1381.6"/>
<text text-anchor="start" x="68.13" y="-1393.8" font-family="Arial" font-size="14.00">last_update_variables_date </text>
<text text-anchor="start" x="243.26" y="-1393.8" font-family="Arial" font-size="14.00" fill="#666666">[timestamp(6) without time zone]</text>
<polygon fill="none" stroke="black" points="61.13,-1350.8 61.13,-1381.6 452.55,-1381.6 452.55,-1350.8 61.13,-1350.8"/>
<text text-anchor="start" x="68.13" y="-1363" font-family="Arial" font-size="14.00">latitude </text>
<text text-anchor="start" x="117.16" y="-1363" font-family="Arial" font-size="14.00" fill="#666666">[double precision]</text>
<polygon fill="none" stroke="black" points="61.13,-1320 61.13,-1350.8 452.55,-1350.8 452.55,-1320 61.13,-1320"/>
<text text-anchor="start" x="68.13" y="-1332.2" font-family="Arial" font-size="14.00">linimetric_ruler_code </text>
<text text-anchor="start" x="201.18" y="-1332.2" font-family="Arial" font-size="14.00" fill="#666666">[bigint]</text>
<polygon fill="none" stroke="black" points="61.13,-1289.2 61.13,-1320 452.55,-1320 452.55,-1289.2 61.13,-1289.2"/>
<text text-anchor="start" x="68.13" y="-1301.4" font-family="Arial" font-size="14.00">location </text>
<text text-anchor="start" x="120.27" y="-1301.4" font-family="Arial" font-size="14.00" fill="#666666">[varchar(255)]</text>
<polygon fill="none" stroke="black" points="61.13,-1258.4 61.13,-1289.2 452.55,-1289.2 452.55,-1258.4 61.13,-1258.4"/>
<text text-anchor="start" x="68.13" y="-1270.6" font-family="Arial" font-size="14.00">longitude </text>
<text text-anchor="start" x="128.85" y="-1270.6" font-family="Arial" font-size="14.00" fill="#666666">[double precision]</text>
<polygon fill="none" stroke="black" points="61.13,-1227.6 61.13,-1258.4 452.55,-1258.4 452.55,-1227.6 61.13,-1227.6"/>
<text text-anchor="start" x="68.13" y="-1239.8" font-family="Arial" font-size="14.00">name </text>
<text text-anchor="start" x="107.04" y="-1239.8" font-family="Arial" font-size="14.00" fill="#666666">[varchar(255)]</text>
<polygon fill="none" stroke="black" points="61.13,-1196.8 61.13,-1227.6 452.55,-1227.6 452.55,-1196.8 61.13,-1196.8"/>
<text text-anchor="start" x="68.13" y="-1209" font-family="Arial" font-size="14.00">no_limit </text>
<text text-anchor="start" x="120.26" y="-1209" font-family="Arial" font-size="14.00" fill="#666666">[boolean]</text>
<polygon fill="none" stroke="black" points="61.13,-1166 61.13,-1196.8 452.55,-1196.8 452.55,-1166 61.13,-1166"/>
<text text-anchor="start" x="68.13" y="-1178.2" font-family="Arial" font-size="14.00">dam_id </text>
<text text-anchor="start" x="117.94" y="-1178.2" font-family="Arial" font-size="14.00" fill="#666666">[bigint]</text>
<polygon fill="none" stroke="black" points="61.13,-1135.2 61.13,-1166 452.55,-1166 452.55,-1135.2 61.13,-1135.2"/>
<text text-anchor="start" x="68.13" y="-1147.4" font-family="Arial" font-size="14.00">instrument_type_id </text>
<text text-anchor="start" x="190.31" y="-1147.4" font-family="Arial" font-size="14.00" fill="#666666">[bigint]</text>
<polygon fill="none" stroke="black" points="61.13,-1104.4 61.13,-1135.2 452.55,-1135.2 452.55,-1104.4 61.13,-1104.4"/>
<text text-anchor="start" x="68.13" y="-1116.6" font-family="Arial" font-size="14.00">section_id </text>
<text text-anchor="start" x="135.06" y="-1116.6" font-family="Arial" font-size="14.00" fill="#666666">[bigint]</text>
</g>
<!-- public.instrument&#45;&gt;public.section -->
<g id="edge1" class="edge">
<title>public.instrument:section_id&#45;&gt;public.section:id</title>
<path fill="none" stroke="black" d="M257.69,-1093.05C267.7,-1037.01 363.56,-1083.68 398.49,-1025.2 420.64,-988.11 442.69,-928 399.49,-928"/>
<polygon fill="black" stroke="black" points="257.69,-1093.1 252.38,-1102.7 257.25,-1098.42 256.9,-1102.73 256.9,-1102.73 256.9,-1102.73 257.25,-1098.42 261.35,-1103.43 257.69,-1093.1"/>
<text text-anchor="start" x="7" y="-1113.4" font-family="Arial" font-size="10.00">FOREIGN KEY (section_id) REFERENCES section(id)</text>
</g>
</g>
</svg>
