<?xml version="1.0" encoding="UTF-8" standalone="no"?>
<!DOCTYPE svg PUBLIC "-//W3C//DTD SVG 1.1//EN"
 "http://www.w3.org/Graphics/SVG/1.1/DTD/svg11.dtd">
<!-- Generated by graphviz version 12.1.2 (20240928.0832)
 -->
<!-- Title: public.danger_levels Pages: 1 -->
<svg width="655pt" height="787pt"
 viewBox="0.00 0.00 655.35 786.80" xmlns="http://www.w3.org/2000/svg" xmlns:xlink="http://www.w3.org/1999/xlink">
<g id="graph0" class="graph" transform="scale(1 1) rotate(0) translate(4 782.8)">
<title>public.danger_levels</title>
<polygon fill="white" stroke="none" points="-4,4 -4,-782.8 651.35,-782.8 651.35,4 -4,4"/>
<!-- public.danger_levels -->
<g id="node1" class="node">
<title>public.danger_levels</title>
<polygon fill="#efefef" stroke="none" points="46.2,-138.6 46.2,-174.2 334.14,-174.2 334.14,-138.6 46.2,-138.6"/>
<polygon fill="none" stroke="black" points="46.2,-138.6 46.2,-174.2 334.14,-174.2 334.14,-138.6 46.2,-138.6"/>
<text text-anchor="start" x="53.2" y="-152" font-family="Arial Bold" font-size="18.00">public.danger_levels</text>
<text text-anchor="start" x="202.65" y="-152" font-family="Arial" font-size="14.00">    </text>
<text text-anchor="start" x="233.77" y="-152" font-family="Arial" font-size="14.00" fill="#666666">[BASE TABLE]</text>
<polygon fill="none" stroke="black" points="46.2,-107.8 46.2,-138.6 334.14,-138.6 334.14,-107.8 46.2,-107.8"/>
<text text-anchor="start" x="53.2" y="-120" font-family="Arial" font-size="14.00">id </text>
<text text-anchor="start" x="67.99" y="-120" font-family="Arial" font-size="14.00" fill="#666666">[bigint]</text>
<polygon fill="none" stroke="black" points="46.2,-77 46.2,-107.8 334.14,-107.8 334.14,-77 46.2,-77"/>
<text text-anchor="start" x="53.2" y="-89.2" font-family="Arial" font-size="14.00">description </text>
<text text-anchor="start" x="124.79" y="-89.2" font-family="Arial" font-size="14.00" fill="#666666">[varchar(255)]</text>
<polygon fill="none" stroke="black" points="46.2,-46.2 46.2,-77 334.14,-77 334.14,-46.2 46.2,-46.2"/>
<text text-anchor="start" x="53.2" y="-58.4" font-family="Arial" font-size="14.00">name </text>
<text text-anchor="start" x="92.11" y="-58.4" font-family="Arial" font-size="14.00" fill="#666666">[varchar(255)]</text>
<polygon fill="none" stroke="black" stroke-width="3" points="44.7,-44.7 44.7,-175.7 335.64,-175.7 335.64,-44.7 44.7,-44.7"/>
</g>
<!-- public.anomalies -->
<g id="node2" class="node">
<title>public.anomalies</title>
<polygon fill="#efefef" stroke="none" points="47,-700 47,-735.6 333.34,-735.6 333.34,-700 47,-700"/>
<polygon fill="none" stroke="black" points="47,-700 47,-735.6 333.34,-735.6 333.34,-700 47,-700"/>
<text text-anchor="start" x="66.69" y="-713.4" font-family="Arial Bold" font-size="18.00">public.anomalies</text>
<text text-anchor="start" x="189.16" y="-713.4" font-family="Arial" font-size="14.00">    </text>
<text text-anchor="start" x="220.28" y="-713.4" font-family="Arial" font-size="14.00" fill="#666666">[BASE TABLE]</text>
<polygon fill="none" stroke="black" points="47,-669.2 47,-700 333.34,-700 333.34,-669.2 47,-669.2"/>
<text text-anchor="start" x="54" y="-681.4" font-family="Arial" font-size="14.00">id </text>
<text text-anchor="start" x="68.78" y="-681.4" font-family="Arial" font-size="14.00" fill="#666666">[bigint]</text>
<polygon fill="none" stroke="black" points="47,-638.4 47,-669.2 333.34,-669.2 333.34,-638.4 47,-638.4"/>
<text text-anchor="start" x="54" y="-650.6" font-family="Arial" font-size="14.00">created_at </text>
<text text-anchor="start" x="124.05" y="-650.6" font-family="Arial" font-size="14.00" fill="#666666">[timestamp(6) without time zone]</text>
<polygon fill="none" stroke="black" points="47,-607.6 47,-638.4 333.34,-638.4 333.34,-607.6 47,-607.6"/>
<text text-anchor="start" x="54" y="-619.8" font-family="Arial" font-size="14.00">latitude </text>
<text text-anchor="start" x="103.03" y="-619.8" font-family="Arial" font-size="14.00" fill="#666666">[double precision]</text>
<polygon fill="none" stroke="black" points="47,-576.8 47,-607.6 333.34,-607.6 333.34,-576.8 47,-576.8"/>
<text text-anchor="start" x="54" y="-589" font-family="Arial" font-size="14.00">longitude </text>
<text text-anchor="start" x="114.71" y="-589" font-family="Arial" font-size="14.00" fill="#666666">[double precision]</text>
<polygon fill="none" stroke="black" points="47,-546 47,-576.8 333.34,-576.8 333.34,-546 47,-546"/>
<text text-anchor="start" x="54" y="-558.2" font-family="Arial" font-size="14.00">observation </text>
<text text-anchor="start" x="130.27" y="-558.2" font-family="Arial" font-size="14.00" fill="#666666">[text]</text>
<polygon fill="none" stroke="black" points="47,-515.2 47,-546 333.34,-546 333.34,-515.2 47,-515.2"/>
<text text-anchor="start" x="54" y="-527.4" font-family="Arial" font-size="14.00">origin </text>
<text text-anchor="start" x="92.13" y="-527.4" font-family="Arial" font-size="14.00" fill="#666666">[varchar(255)]</text>
<polygon fill="none" stroke="black" points="47,-484.4 47,-515.2 333.34,-515.2 333.34,-484.4 47,-484.4"/>
<text text-anchor="start" x="54" y="-496.6" font-family="Arial" font-size="14.00">question_id </text>
<text text-anchor="start" x="129.5" y="-496.6" font-family="Arial" font-size="14.00" fill="#666666">[bigint]</text>
<polygon fill="none" stroke="black" points="47,-453.6 47,-484.4 333.34,-484.4 333.34,-453.6 47,-453.6"/>
<text text-anchor="start" x="54" y="-465.8" font-family="Arial" font-size="14.00">questionnaire_id </text>
<text text-anchor="start" x="160.63" y="-465.8" font-family="Arial" font-size="14.00" fill="#666666">[bigint]</text>
<polygon fill="none" stroke="black" points="47,-422.8 47,-453.6 333.34,-453.6 333.34,-422.8 47,-422.8"/>
<text text-anchor="start" x="54" y="-435" font-family="Arial" font-size="14.00">recommendation </text>
<text text-anchor="start" x="162.16" y="-435" font-family="Arial" font-size="14.00" fill="#666666">[text]</text>
<polygon fill="none" stroke="black" points="47,-392 47,-422.8 333.34,-422.8 333.34,-392 47,-392"/>
<text text-anchor="start" x="54" y="-404.2" font-family="Arial" font-size="14.00">dam_id </text>
<text text-anchor="start" x="103.8" y="-404.2" font-family="Arial" font-size="14.00" fill="#666666">[bigint]</text>
<polygon fill="none" stroke="black" points="47,-361.2 47,-392 333.34,-392 333.34,-361.2 47,-361.2"/>
<text text-anchor="start" x="54" y="-373.4" font-family="Arial" font-size="14.00">danger_level_id </text>
<text text-anchor="start" x="156.74" y="-373.4" font-family="Arial" font-size="14.00" fill="#666666">[bigint]</text>
<polygon fill="none" stroke="black" points="47,-330.4 47,-361.2 333.34,-361.2 333.34,-330.4 47,-330.4"/>
<text text-anchor="start" x="54" y="-342.6" font-family="Arial" font-size="14.00">status_id </text>
<text text-anchor="start" x="113.92" y="-342.6" font-family="Arial" font-size="14.00" fill="#666666">[bigint]</text>
<polygon fill="none" stroke="black" points="47,-299.6 47,-330.4 333.34,-330.4 333.34,-299.6 47,-299.6"/>
<text text-anchor="start" x="54" y="-311.8" font-family="Arial" font-size="14.00">user_id </text>
<text text-anchor="start" x="103.8" y="-311.8" font-family="Arial" font-size="14.00" fill="#666666">[bigint]</text>
</g>
<!-- public.anomalies&#45;&gt;public.danger_levels -->
<g id="edge1" class="edge">
<title>public.anomalies:danger_level_id&#45;&gt;public.danger_levels:id</title>
<path fill="none" stroke="black" d="M344.25,-373.75C390.53,-345.91 387.93,-123.2 335.14,-123.2"/>
<polygon fill="black" stroke="black" points="344.27,-373.75 333.42,-372.18 339.15,-375.22 334.98,-376.42 334.98,-376.42 334.98,-376.42 339.15,-375.22 335.9,-380.83 344.27,-373.75"/>
<text text-anchor="start" x="341.34" y="-386.6" font-family="Arial" font-size="10.00">FOREIGN KEY (danger_level_id) REFERENCES danger_levels(id)</text>
</g>
</g>
</svg>
