<?xml version="1.0" encoding="UTF-8" standalone="no"?>
<!DOCTYPE svg PUBLIC "-//W3C//DTD SVG 1.1//EN"
 "http://www.w3.org/Graphics/SVG/1.1/DTD/svg11.dtd">
<!-- Generated by graphviz version 12.1.2 (20240928.0832)
 -->
<!-- Title: public.instrument_graph_pattern Pages: 1 -->
<svg width="1125pt" height="1499pt"
 viewBox="0.00 0.00 1124.70 1499.20" xmlns="http://www.w3.org/2000/svg" xmlns:xlink="http://www.w3.org/1999/xlink">
<g id="graph0" class="graph" transform="scale(1 1) rotate(0) translate(4 1495.2)">
<title>public.instrument_graph_pattern</title>
<polygon fill="white" stroke="none" points="-4,4 -4,-1495.2 1120.7,-1495.2 1120.7,4 -4,4"/>
<!-- public.instrument_graph_pattern -->
<g id="node1" class="node">
<title>public.instrument_graph_pattern</title>
<polygon fill="#efefef" stroke="none" points="364.58,-789.4 364.58,-825 738.51,-825 738.51,-789.4 364.58,-789.4"/>
<polygon fill="none" stroke="black" points="364.58,-789.4 364.58,-825 738.51,-825 738.51,-789.4 364.58,-789.4"/>
<text text-anchor="start" x="371.58" y="-802.8" font-family="Arial Bold" font-size="18.00">public.instrument_graph_pattern</text>
<text text-anchor="start" x="607.02" y="-802.8" font-family="Arial" font-size="14.00">    </text>
<text text-anchor="start" x="638.14" y="-802.8" font-family="Arial" font-size="14.00" fill="#666666">[BASE TABLE]</text>
<polygon fill="none" stroke="black" points="364.58,-758.6 364.58,-789.4 738.51,-789.4 738.51,-758.6 364.58,-758.6"/>
<text text-anchor="start" x="371.58" y="-770.8" font-family="Arial" font-size="14.00">id </text>
<text text-anchor="start" x="386.37" y="-770.8" font-family="Arial" font-size="14.00" fill="#666666">[bigint]</text>
<polygon fill="none" stroke="black" points="364.58,-727.8 364.58,-758.6 738.51,-758.6 738.51,-727.8 364.58,-727.8"/>
<text text-anchor="start" x="371.58" y="-740" font-family="Arial" font-size="14.00">name </text>
<text text-anchor="start" x="410.49" y="-740" font-family="Arial" font-size="14.00" fill="#666666">[varchar(255)]</text>
<polygon fill="none" stroke="black" points="364.58,-697 364.58,-727.8 738.51,-727.8 738.51,-697 364.58,-697"/>
<text text-anchor="start" x="371.58" y="-709.2" font-family="Arial" font-size="14.00">folder_id </text>
<text text-anchor="start" x="429.17" y="-709.2" font-family="Arial" font-size="14.00" fill="#666666">[bigint]</text>
<polygon fill="none" stroke="black" points="364.58,-666.2 364.58,-697 738.51,-697 738.51,-666.2 364.58,-666.2"/>
<text text-anchor="start" x="371.58" y="-678.4" font-family="Arial" font-size="14.00">instrument_id </text>
<text text-anchor="start" x="459.51" y="-678.4" font-family="Arial" font-size="14.00" fill="#666666">[bigint]</text>
<polygon fill="none" stroke="black" stroke-width="3" points="363.08,-664.7 363.08,-826.5 740.01,-826.5 740.01,-664.7 363.08,-664.7"/>
</g>
<!-- public.instrument_graph_pattern_folder -->
<g id="node4" class="node">
<title>public.instrument_graph_pattern_folder</title>
<polygon fill="#efefef" stroke="none" points="82.59,-320.4 82.59,-356 508.5,-356 508.5,-320.4 82.59,-320.4"/>
<polygon fill="none" stroke="black" points="82.59,-320.4 82.59,-356 508.5,-356 508.5,-320.4 82.59,-320.4"/>
<text text-anchor="start" x="89.59" y="-333.8" font-family="Arial Bold" font-size="18.00">public.instrument_graph_pattern_folder</text>
<text text-anchor="start" x="377.01" y="-333.8" font-family="Arial" font-size="14.00">    </text>
<text text-anchor="start" x="408.13" y="-333.8" font-family="Arial" font-size="14.00" fill="#666666">[BASE TABLE]</text>
<polygon fill="none" stroke="black" points="82.59,-289.6 82.59,-320.4 508.5,-320.4 508.5,-289.6 82.59,-289.6"/>
<text text-anchor="start" x="89.59" y="-301.8" font-family="Arial" font-size="14.00">id </text>
<text text-anchor="start" x="104.38" y="-301.8" font-family="Arial" font-size="14.00" fill="#666666">[bigint]</text>
<polygon fill="none" stroke="black" points="82.59,-258.8 82.59,-289.6 508.5,-289.6 508.5,-258.8 82.59,-258.8"/>
<text text-anchor="start" x="89.59" y="-271" font-family="Arial" font-size="14.00">name </text>
<text text-anchor="start" x="128.5" y="-271" font-family="Arial" font-size="14.00" fill="#666666">[varchar(255)]</text>
<polygon fill="none" stroke="black" points="82.59,-228 82.59,-258.8 508.5,-258.8 508.5,-228 82.59,-228"/>
<text text-anchor="start" x="89.59" y="-240.2" font-family="Arial" font-size="14.00">dam_id </text>
<text text-anchor="start" x="139.4" y="-240.2" font-family="Arial" font-size="14.00" fill="#666666">[bigint]</text>
</g>
<!-- public.instrument_graph_pattern&#45;&gt;public.instrument_graph_pattern_folder -->
<g id="edge3" class="edge">
<title>public.instrument_graph_pattern:folder_id&#45;&gt;public.instrument_graph_pattern_folder:id</title>
<path fill="none" stroke="black" d="M353.61,-711.98C190.69,-697.42 698.26,-305 509.5,-305"/>
<polygon fill="black" stroke="black" points="353.25,-711.97 363.06,-716.88 358.58,-712.19 362.91,-712.37 362.91,-712.37 362.91,-712.37 358.58,-712.19 363.43,-707.89 353.25,-711.97"/>
<text text-anchor="start" x="7" y="-722.4" font-family="Arial" font-size="10.00">FOREIGN KEY (folder_id) REFERENCES instrument_graph_pattern_folder(id)</text>
</g>
<!-- public.instrument -->
<g id="node5" class="node">
<title>public.instrument</title>
<polygon fill="#efefef" stroke="none" points="612.83,-505.2 612.83,-540.8 1004.26,-540.8 1004.26,-505.2 612.83,-505.2"/>
<polygon fill="none" stroke="black" points="612.83,-505.2 612.83,-540.8 1004.26,-540.8 1004.26,-505.2 612.83,-505.2"/>
<text text-anchor="start" x="683.06" y="-518.6" font-family="Arial Bold" font-size="18.00">public.instrument</text>
<text text-anchor="start" x="809.54" y="-518.6" font-family="Arial" font-size="14.00">    </text>
<text text-anchor="start" x="840.66" y="-518.6" font-family="Arial" font-size="14.00" fill="#666666">[BASE TABLE]</text>
<polygon fill="none" stroke="black" points="612.83,-474.4 612.83,-505.2 1004.26,-505.2 1004.26,-474.4 612.83,-474.4"/>
<text text-anchor="start" x="619.83" y="-486.6" font-family="Arial" font-size="14.00">id </text>
<text text-anchor="start" x="634.62" y="-486.6" font-family="Arial" font-size="14.00" fill="#666666">[bigint]</text>
<polygon fill="none" stroke="black" points="612.83,-443.6 612.83,-474.4 1004.26,-474.4 1004.26,-443.6 612.83,-443.6"/>
<text text-anchor="start" x="619.83" y="-455.8" font-family="Arial" font-size="14.00">active </text>
<text text-anchor="start" x="660.29" y="-455.8" font-family="Arial" font-size="14.00" fill="#666666">[boolean]</text>
<polygon fill="none" stroke="black" points="612.83,-412.8 612.83,-443.6 1004.26,-443.6 1004.26,-412.8 612.83,-412.8"/>
<text text-anchor="start" x="619.83" y="-425" font-family="Arial" font-size="14.00">active_for_section </text>
<text text-anchor="start" x="736.56" y="-425" font-family="Arial" font-size="14.00" fill="#666666">[boolean]</text>
<polygon fill="none" stroke="black" points="612.83,-382 612.83,-412.8 1004.26,-412.8 1004.26,-382 612.83,-382"/>
<text text-anchor="start" x="619.83" y="-394.2" font-family="Arial" font-size="14.00">distance_offset </text>
<text text-anchor="start" x="717.89" y="-394.2" font-family="Arial" font-size="14.00" fill="#666666">[double precision]</text>
<polygon fill="none" stroke="black" points="612.83,-351.2 612.83,-382 1004.26,-382 1004.26,-351.2 612.83,-351.2"/>
<text text-anchor="start" x="619.83" y="-363.4" font-family="Arial" font-size="14.00">is_linimetric_ruler </text>
<text text-anchor="start" x="732.64" y="-363.4" font-family="Arial" font-size="14.00" fill="#666666">[boolean]</text>
<polygon fill="none" stroke="black" points="612.83,-320.4 612.83,-351.2 1004.26,-351.2 1004.26,-320.4 612.83,-320.4"/>
<text text-anchor="start" x="619.83" y="-332.6" font-family="Arial" font-size="14.00">last_update_variables_date </text>
<text text-anchor="start" x="794.96" y="-332.6" font-family="Arial" font-size="14.00" fill="#666666">[timestamp(6) without time zone]</text>
<polygon fill="none" stroke="black" points="612.83,-289.6 612.83,-320.4 1004.26,-320.4 1004.26,-289.6 612.83,-289.6"/>
<text text-anchor="start" x="619.83" y="-301.8" font-family="Arial" font-size="14.00">latitude </text>
<text text-anchor="start" x="668.87" y="-301.8" font-family="Arial" font-size="14.00" fill="#666666">[double precision]</text>
<polygon fill="none" stroke="black" points="612.83,-258.8 612.83,-289.6 1004.26,-289.6 1004.26,-258.8 612.83,-258.8"/>
<text text-anchor="start" x="619.83" y="-271" font-family="Arial" font-size="14.00">linimetric_ruler_code </text>
<text text-anchor="start" x="752.89" y="-271" font-family="Arial" font-size="14.00" fill="#666666">[bigint]</text>
<polygon fill="none" stroke="black" points="612.83,-228 612.83,-258.8 1004.26,-258.8 1004.26,-228 612.83,-228"/>
<text text-anchor="start" x="619.83" y="-240.2" font-family="Arial" font-size="14.00">location </text>
<text text-anchor="start" x="671.98" y="-240.2" font-family="Arial" font-size="14.00" fill="#666666">[varchar(255)]</text>
<polygon fill="none" stroke="black" points="612.83,-197.2 612.83,-228 1004.26,-228 1004.26,-197.2 612.83,-197.2"/>
<text text-anchor="start" x="619.83" y="-209.4" font-family="Arial" font-size="14.00">longitude </text>
<text text-anchor="start" x="680.55" y="-209.4" font-family="Arial" font-size="14.00" fill="#666666">[double precision]</text>
<polygon fill="none" stroke="black" points="612.83,-166.4 612.83,-197.2 1004.26,-197.2 1004.26,-166.4 612.83,-166.4"/>
<text text-anchor="start" x="619.83" y="-178.6" font-family="Arial" font-size="14.00">name </text>
<text text-anchor="start" x="658.74" y="-178.6" font-family="Arial" font-size="14.00" fill="#666666">[varchar(255)]</text>
<polygon fill="none" stroke="black" points="612.83,-135.6 612.83,-166.4 1004.26,-166.4 1004.26,-135.6 612.83,-135.6"/>
<text text-anchor="start" x="619.83" y="-147.8" font-family="Arial" font-size="14.00">no_limit </text>
<text text-anchor="start" x="671.96" y="-147.8" font-family="Arial" font-size="14.00" fill="#666666">[boolean]</text>
<polygon fill="none" stroke="black" points="612.83,-104.8 612.83,-135.6 1004.26,-135.6 1004.26,-104.8 612.83,-104.8"/>
<text text-anchor="start" x="619.83" y="-117" font-family="Arial" font-size="14.00">dam_id </text>
<text text-anchor="start" x="669.64" y="-117" font-family="Arial" font-size="14.00" fill="#666666">[bigint]</text>
<polygon fill="none" stroke="black" points="612.83,-74 612.83,-104.8 1004.26,-104.8 1004.26,-74 612.83,-74"/>
<text text-anchor="start" x="619.83" y="-86.2" font-family="Arial" font-size="14.00">instrument_type_id </text>
<text text-anchor="start" x="742.01" y="-86.2" font-family="Arial" font-size="14.00" fill="#666666">[bigint]</text>
<polygon fill="none" stroke="black" points="612.83,-43.2 612.83,-74 1004.26,-74 1004.26,-43.2 612.83,-43.2"/>
<text text-anchor="start" x="619.83" y="-55.4" font-family="Arial" font-size="14.00">section_id </text>
<text text-anchor="start" x="686.76" y="-55.4" font-family="Arial" font-size="14.00" fill="#666666">[bigint]</text>
</g>
<!-- public.instrument_graph_pattern&#45;&gt;public.instrument -->
<g id="edge4" class="edge">
<title>public.instrument_graph_pattern:instrument_id&#45;&gt;public.instrument:id</title>
<path fill="none" stroke="black" d="M749.23,-679.15C763.3,-670.16 752.7,-638.51 738.51,-620 703.16,-573.89 648.05,-630.21 612.83,-584 587.45,-550.7 569.96,-489.8 611.83,-489.8"/>
<polygon fill="black" stroke="black" points="749.53,-679.08 738.74,-677.15 744.36,-680.38 740.16,-681.44 740.16,-681.44 740.16,-681.44 744.36,-680.38 740.93,-685.88 749.53,-679.08"/>
<text text-anchor="start" x="746.51" y="-691.6" font-family="Arial" font-size="10.00">FOREIGN KEY (instrument_id) REFERENCES instrument(id)</text>
</g>
<!-- public.instrument_graph_axes -->
<g id="node2" class="node">
<title>public.instrument_graph_axes</title>
<polygon fill="#efefef" stroke="none" points="102.39,-1412.4 102.39,-1448 462.7,-1448 462.7,-1412.4 102.39,-1412.4"/>
<polygon fill="none" stroke="black" points="102.39,-1412.4 102.39,-1448 462.7,-1448 462.7,-1412.4 102.39,-1412.4"/>
<text text-anchor="start" x="111.58" y="-1425.8" font-family="Arial Bold" font-size="18.00">public.instrument_graph_axes</text>
<text text-anchor="start" x="329.03" y="-1425.8" font-family="Arial" font-size="14.00">    </text>
<text text-anchor="start" x="360.14" y="-1425.8" font-family="Arial" font-size="14.00" fill="#666666">[BASE TABLE]</text>
<polygon fill="none" stroke="black" points="102.39,-1381.6 102.39,-1412.4 462.7,-1412.4 462.7,-1381.6 102.39,-1381.6"/>
<text text-anchor="start" x="109.39" y="-1393.8" font-family="Arial" font-size="14.00">id </text>
<text text-anchor="start" x="124.18" y="-1393.8" font-family="Arial" font-size="14.00" fill="#666666">[bigint]</text>
<polygon fill="none" stroke="black" points="102.39,-1350.8 102.39,-1381.6 462.7,-1381.6 462.7,-1350.8 102.39,-1350.8"/>
<text text-anchor="start" x="109.39" y="-1363" font-family="Arial" font-size="14.00">abscissa_grid_lines_enable </text>
<text text-anchor="start" x="285.29" y="-1363" font-family="Arial" font-size="14.00" fill="#666666">[boolean]</text>
<polygon fill="none" stroke="black" points="102.39,-1320 102.39,-1350.8 462.7,-1350.8 462.7,-1320 102.39,-1320"/>
<text text-anchor="start" x="109.39" y="-1332.2" font-family="Arial" font-size="14.00">abscissa_px </text>
<text text-anchor="start" x="190.32" y="-1332.2" font-family="Arial" font-size="14.00" fill="#666666">[integer]</text>
<polygon fill="none" stroke="black" points="102.39,-1289.2 102.39,-1320 462.7,-1320 462.7,-1289.2 102.39,-1289.2"/>
<text text-anchor="start" x="109.39" y="-1301.4" font-family="Arial" font-size="14.00">primary_ordinate_grid_lines_enable </text>
<text text-anchor="start" x="335.87" y="-1301.4" font-family="Arial" font-size="14.00" fill="#666666">[boolean]</text>
<polygon fill="none" stroke="black" points="102.39,-1258.4 102.39,-1289.2 462.7,-1289.2 462.7,-1258.4 102.39,-1258.4"/>
<text text-anchor="start" x="109.39" y="-1270.6" font-family="Arial" font-size="14.00">primary_ordinate_initial_value </text>
<text text-anchor="start" x="299.27" y="-1270.6" font-family="Arial" font-size="14.00" fill="#666666">[double precision]</text>
<polygon fill="none" stroke="black" points="102.39,-1227.6 102.39,-1258.4 462.7,-1258.4 462.7,-1227.6 102.39,-1227.6"/>
<text text-anchor="start" x="109.39" y="-1239.8" font-family="Arial" font-size="14.00">primary_ordinate_maximum_value </text>
<text text-anchor="start" x="328.04" y="-1239.8" font-family="Arial" font-size="14.00" fill="#666666">[double precision]</text>
<polygon fill="none" stroke="black" points="102.39,-1196.8 102.39,-1227.6 462.7,-1227.6 462.7,-1196.8 102.39,-1196.8"/>
<text text-anchor="start" x="109.39" y="-1209" font-family="Arial" font-size="14.00">primary_ordinate_px </text>
<text text-anchor="start" x="240.9" y="-1209" font-family="Arial" font-size="14.00" fill="#666666">[integer]</text>
<polygon fill="none" stroke="black" points="102.39,-1166 102.39,-1196.8 462.7,-1196.8 462.7,-1166 102.39,-1166"/>
<text text-anchor="start" x="109.39" y="-1178.2" font-family="Arial" font-size="14.00">primary_ordinate_spacing </text>
<text text-anchor="start" x="274.37" y="-1178.2" font-family="Arial" font-size="14.00" fill="#666666">[double precision]</text>
<polygon fill="none" stroke="black" points="102.39,-1135.2 102.39,-1166 462.7,-1166 462.7,-1135.2 102.39,-1135.2"/>
<text text-anchor="start" x="109.39" y="-1147.4" font-family="Arial" font-size="14.00">primary_ordinate_title </text>
<text text-anchor="start" x="247.9" y="-1147.4" font-family="Arial" font-size="14.00" fill="#666666">[varchar(255)]</text>
<polygon fill="none" stroke="black" points="102.39,-1104.4 102.39,-1135.2 462.7,-1135.2 462.7,-1104.4 102.39,-1104.4"/>
<text text-anchor="start" x="109.39" y="-1116.6" font-family="Arial" font-size="14.00">secondary_ordinate_initial_value </text>
<text text-anchor="start" x="317.2" y="-1116.6" font-family="Arial" font-size="14.00" fill="#666666">[double precision]</text>
<polygon fill="none" stroke="black" points="102.39,-1073.6 102.39,-1104.4 462.7,-1104.4 462.7,-1073.6 102.39,-1073.6"/>
<text text-anchor="start" x="109.39" y="-1085.8" font-family="Arial" font-size="14.00">secondary_ordinate_maximum_value </text>
<text text-anchor="start" x="345.96" y="-1085.8" font-family="Arial" font-size="14.00" fill="#666666">[double precision]</text>
<polygon fill="none" stroke="black" points="102.39,-1042.8 102.39,-1073.6 462.7,-1073.6 462.7,-1042.8 102.39,-1042.8"/>
<text text-anchor="start" x="109.39" y="-1055" font-family="Arial" font-size="14.00">secondary_ordinate_px </text>
<text text-anchor="start" x="258.82" y="-1055" font-family="Arial" font-size="14.00" fill="#666666">[integer]</text>
<polygon fill="none" stroke="black" points="102.39,-1012 102.39,-1042.8 462.7,-1042.8 462.7,-1012 102.39,-1012"/>
<text text-anchor="start" x="109.39" y="-1024.2" font-family="Arial" font-size="14.00">secondary_ordinate_spacing </text>
<text text-anchor="start" x="292.29" y="-1024.2" font-family="Arial" font-size="14.00" fill="#666666">[double precision]</text>
<polygon fill="none" stroke="black" points="102.39,-981.2 102.39,-1012 462.7,-1012 462.7,-981.2 102.39,-981.2"/>
<text text-anchor="start" x="109.39" y="-993.4" font-family="Arial" font-size="14.00">secondary_ordinate_title </text>
<text text-anchor="start" x="265.82" y="-993.4" font-family="Arial" font-size="14.00" fill="#666666">[varchar(255)]</text>
<polygon fill="none" stroke="black" points="102.39,-950.4 102.39,-981.2 462.7,-981.2 462.7,-950.4 102.39,-950.4"/>
<text text-anchor="start" x="109.39" y="-962.6" font-family="Arial" font-size="14.00">pattern_id </text>
<text text-anchor="start" x="175.55" y="-962.6" font-family="Arial" font-size="14.00" fill="#666666">[bigint]</text>
</g>
<!-- public.instrument_graph_axes&#45;&gt;public.instrument_graph_pattern -->
<g id="edge1" class="edge">
<title>public.instrument_graph_axes:pattern_id&#45;&gt;public.instrument_graph_pattern:id</title>
<path fill="none" stroke="black" d="M473.61,-963.02C485.74,-953.97 475.32,-924.95 462.7,-907.2 435.78,-869.34 391.37,-909.15 364.58,-871.2 339.66,-835.91 320.38,-774 363.58,-774"/>
<polygon fill="black" stroke="black" points="473.65,-963.01 462.81,-961.38 468.51,-964.45 464.34,-965.62 464.34,-965.62 464.34,-965.62 468.51,-964.45 465.24,-970.04 473.65,-963.01"/>
<text text-anchor="start" x="470.7" y="-975.8" font-family="Arial" font-size="10.00">FOREIGN KEY (pattern_id) REFERENCES instrument_graph_pattern(id)</text>
</g>
<!-- public.instrument_graph_customization_properties -->
<g id="node3" class="node">
<title>public.instrument_graph_customization_properties</title>
<polygon fill="#efefef" stroke="none" points="567.59,-1397 567.59,-1432.6 1073.5,-1432.6 1073.5,-1397 567.59,-1397"/>
<polygon fill="none" stroke="black" points="567.59,-1397 567.59,-1432.6 1073.5,-1432.6 1073.5,-1397 567.59,-1397"/>
<text text-anchor="start" x="574.59" y="-1410.4" font-family="Arial Bold" font-size="18.00">public.instrument_graph_customization_properties</text>
<text text-anchor="start" x="942.01" y="-1410.4" font-family="Arial" font-size="14.00">    </text>
<text text-anchor="start" x="973.13" y="-1410.4" font-family="Arial" font-size="14.00" fill="#666666">[BASE TABLE]</text>
<polygon fill="none" stroke="black" points="567.59,-1366.2 567.59,-1397 1073.5,-1397 1073.5,-1366.2 567.59,-1366.2"/>
<text text-anchor="start" x="574.59" y="-1378.4" font-family="Arial" font-size="14.00">id </text>
<text text-anchor="start" x="589.38" y="-1378.4" font-family="Arial" font-size="14.00" fill="#666666">[bigint]</text>
<polygon fill="none" stroke="black" points="567.59,-1335.4 567.59,-1366.2 1073.5,-1366.2 1073.5,-1335.4 567.59,-1335.4"/>
<text text-anchor="start" x="574.59" y="-1347.6" font-family="Arial" font-size="14.00">customization_type </text>
<text text-anchor="start" x="698.32" y="-1347.6" font-family="Arial" font-size="14.00" fill="#666666">[varchar(255)]</text>
<polygon fill="none" stroke="black" points="567.59,-1304.6 567.59,-1335.4 1073.5,-1335.4 1073.5,-1304.6 567.59,-1304.6"/>
<text text-anchor="start" x="574.59" y="-1316.8" font-family="Arial" font-size="14.00">fill_color </text>
<text text-anchor="start" x="629.83" y="-1316.8" font-family="Arial" font-size="14.00" fill="#666666">[varchar(255)]</text>
<polygon fill="none" stroke="black" points="567.59,-1273.8 567.59,-1304.6 1073.5,-1304.6 1073.5,-1273.8 567.59,-1273.8"/>
<text text-anchor="start" x="574.59" y="-1286" font-family="Arial" font-size="14.00">is_primary_ordinate </text>
<text text-anchor="start" x="701.43" y="-1286" font-family="Arial" font-size="14.00" fill="#666666">[boolean]</text>
<polygon fill="none" stroke="black" points="567.59,-1243 567.59,-1273.8 1073.5,-1273.8 1073.5,-1243 567.59,-1243"/>
<text text-anchor="start" x="574.59" y="-1255.2" font-family="Arial" font-size="14.00">label_enable </text>
<text text-anchor="start" x="657.89" y="-1255.2" font-family="Arial" font-size="14.00" fill="#666666">[boolean]</text>
<polygon fill="none" stroke="black" points="567.59,-1212.2 567.59,-1243 1073.5,-1243 1073.5,-1212.2 567.59,-1212.2"/>
<text text-anchor="start" x="574.59" y="-1224.4" font-family="Arial" font-size="14.00">limit_value_type </text>
<text text-anchor="start" x="678.87" y="-1224.4" font-family="Arial" font-size="14.00" fill="#666666">[varchar(255)]</text>
<polygon fill="none" stroke="black" points="567.59,-1181.4 567.59,-1212.2 1073.5,-1212.2 1073.5,-1181.4 567.59,-1181.4"/>
<text text-anchor="start" x="574.59" y="-1193.6" font-family="Arial" font-size="14.00">line_type </text>
<text text-anchor="start" x="634.52" y="-1193.6" font-family="Arial" font-size="14.00" fill="#666666">[varchar(255)]</text>
<polygon fill="none" stroke="black" points="567.59,-1150.6 567.59,-1181.4 1073.5,-1181.4 1073.5,-1150.6 567.59,-1150.6"/>
<text text-anchor="start" x="574.59" y="-1162.8" font-family="Arial" font-size="14.00">name </text>
<text text-anchor="start" x="613.5" y="-1162.8" font-family="Arial" font-size="14.00" fill="#666666">[varchar(255)]</text>
<polygon fill="none" stroke="black" points="567.59,-1119.8 567.59,-1150.6 1073.5,-1150.6 1073.5,-1119.8 567.59,-1119.8"/>
<text text-anchor="start" x="574.59" y="-1132" font-family="Arial" font-size="14.00">constant_id </text>
<text text-anchor="start" x="650.09" y="-1132" font-family="Arial" font-size="14.00" fill="#666666">[bigint]</text>
<polygon fill="none" stroke="black" points="567.59,-1089 567.59,-1119.8 1073.5,-1119.8 1073.5,-1089 567.59,-1089"/>
<text text-anchor="start" x="574.59" y="-1101.2" font-family="Arial" font-size="14.00">deterministic_limit_id </text>
<text text-anchor="start" x="708.41" y="-1101.2" font-family="Arial" font-size="14.00" fill="#666666">[bigint]</text>
<polygon fill="none" stroke="black" points="567.59,-1058.2 567.59,-1089 1073.5,-1089 1073.5,-1058.2 567.59,-1058.2"/>
<text text-anchor="start" x="574.59" y="-1070.4" font-family="Arial" font-size="14.00">instrument_id </text>
<text text-anchor="start" x="662.52" y="-1070.4" font-family="Arial" font-size="14.00" fill="#666666">[bigint]</text>
<polygon fill="none" stroke="black" points="567.59,-1027.4 567.59,-1058.2 1073.5,-1058.2 1073.5,-1027.4 567.59,-1027.4"/>
<text text-anchor="start" x="574.59" y="-1039.6" font-family="Arial" font-size="14.00">output_id </text>
<text text-anchor="start" x="636.09" y="-1039.6" font-family="Arial" font-size="14.00" fill="#666666">[bigint]</text>
<polygon fill="none" stroke="black" points="567.59,-996.6 567.59,-1027.4 1073.5,-1027.4 1073.5,-996.6 567.59,-996.6"/>
<text text-anchor="start" x="574.59" y="-1008.8" font-family="Arial" font-size="14.00">pattern_id </text>
<text text-anchor="start" x="640.75" y="-1008.8" font-family="Arial" font-size="14.00" fill="#666666">[bigint]</text>
<polygon fill="none" stroke="black" points="567.59,-965.8 567.59,-996.6 1073.5,-996.6 1073.5,-965.8 567.59,-965.8"/>
<text text-anchor="start" x="574.59" y="-978" font-family="Arial" font-size="14.00">statistical_limit_id </text>
<text text-anchor="start" x="687.41" y="-978" font-family="Arial" font-size="14.00" fill="#666666">[bigint]</text>
</g>
<!-- public.instrument_graph_customization_properties&#45;&gt;public.instrument_graph_pattern -->
<g id="edge2" class="edge">
<title>public.instrument_graph_customization_properties:pattern_id&#45;&gt;public.instrument_graph_pattern:id</title>
<path fill="none" stroke="black" d="M556.52,-1010.43C530.21,-1000.99 546.04,-951.25 567.59,-922.6 615.28,-859.21 690.85,-934.61 738.51,-871.2 764.47,-836.66 782.71,-774 739.51,-774"/>
<polygon fill="black" stroke="black" points="556.38,-1010.41 565.57,-1016.39 561.65,-1011.23 565.93,-1011.9 565.93,-1011.9 565.93,-1011.9 561.65,-1011.23 566.96,-1007.5 556.38,-1010.41"/>
<text text-anchor="start" x="573.59" y="-1022" font-family="Arial" font-size="10.00">FOREIGN KEY (pattern_id) REFERENCES instrument_graph_pattern(id)</text>
</g>
</g>
</svg>
