<?xml version="1.0" encoding="UTF-8" standalone="no"?>
<!DOCTYPE svg PUBLIC "-//W3C//DTD SVG 1.1//EN"
 "http://www.w3.org/Graphics/SVG/1.1/DTD/svg11.dtd">
<!-- Generated by graphviz version 12.1.2 (20240928.0832)
 -->
<!-- Title: public.status Pages: 1 -->
<svg width="1085pt" height="848pt"
 viewBox="0.00 0.00 1084.68 848.40" xmlns="http://www.w3.org/2000/svg" xmlns:xlink="http://www.w3.org/1999/xlink">
<g id="graph0" class="graph" transform="scale(1 1) rotate(0) translate(4 844.4)">
<title>public.status</title>
<polygon fill="white" stroke="none" points="-4,4 -4,-844.4 1080.68,-844.4 1080.68,4 -4,4"/>
<!-- public.status -->
<g id="node1" class="node">
<title>public.status</title>
<polygon fill="#efefef" stroke="none" points="370.69,-107.8 370.69,-143.4 599.67,-143.4 599.67,-107.8 370.69,-107.8"/>
<polygon fill="none" stroke="black" points="370.69,-107.8 370.69,-143.4 599.67,-143.4 599.67,-107.8 370.69,-107.8"/>
<text text-anchor="start" x="377.69" y="-121.2" font-family="Arial Bold" font-size="18.00">public.status</text>
<text text-anchor="start" x="468.18" y="-121.2" font-family="Arial" font-size="14.00">    </text>
<text text-anchor="start" x="499.3" y="-121.2" font-family="Arial" font-size="14.00" fill="#666666">[BASE TABLE]</text>
<polygon fill="none" stroke="black" points="370.69,-77 370.69,-107.8 599.67,-107.8 599.67,-77 370.69,-77"/>
<text text-anchor="start" x="377.69" y="-89.2" font-family="Arial" font-size="14.00">id </text>
<text text-anchor="start" x="392.48" y="-89.2" font-family="Arial" font-size="14.00" fill="#666666">[bigint]</text>
<polygon fill="none" stroke="black" points="370.69,-46.2 370.69,-77 599.67,-77 599.67,-46.2 370.69,-46.2"/>
<text text-anchor="start" x="377.69" y="-58.4" font-family="Arial" font-size="14.00">status </text>
<text text-anchor="start" x="418.93" y="-58.4" font-family="Arial" font-size="14.00" fill="#666666">[varchar(255)]</text>
<polygon fill="none" stroke="black" stroke-width="3" points="369.19,-44.7 369.19,-144.9 601.17,-144.9 601.17,-44.7 369.19,-44.7"/>
</g>
<!-- public.client -->
<g id="node2" class="node">
<title>public.client</title>
<polygon fill="#efefef" stroke="none" points="43.2,-746.2 43.2,-781.8 271.16,-781.8 271.16,-746.2 43.2,-746.2"/>
<polygon fill="none" stroke="black" points="43.2,-746.2 43.2,-781.8 271.16,-781.8 271.16,-746.2 43.2,-746.2"/>
<text text-anchor="start" x="50.2" y="-759.6" font-family="Arial Bold" font-size="18.00">public.client</text>
<text text-anchor="start" x="139.67" y="-759.6" font-family="Arial" font-size="14.00">    </text>
<text text-anchor="start" x="170.79" y="-759.6" font-family="Arial" font-size="14.00" fill="#666666">[BASE TABLE]</text>
<polygon fill="none" stroke="black" points="43.2,-715.4 43.2,-746.2 271.16,-746.2 271.16,-715.4 43.2,-715.4"/>
<text text-anchor="start" x="50.2" y="-727.6" font-family="Arial" font-size="14.00">id </text>
<text text-anchor="start" x="64.99" y="-727.6" font-family="Arial" font-size="14.00" fill="#666666">[bigint]</text>
<polygon fill="none" stroke="black" points="43.2,-684.6 43.2,-715.4 271.16,-715.4 271.16,-684.6 43.2,-684.6"/>
<text text-anchor="start" x="50.2" y="-696.8" font-family="Arial" font-size="14.00">city </text>
<text text-anchor="start" x="75.09" y="-696.8" font-family="Arial" font-size="14.00" fill="#666666">[varchar(100)]</text>
<polygon fill="none" stroke="black" points="43.2,-653.8 43.2,-684.6 271.16,-684.6 271.16,-653.8 43.2,-653.8"/>
<text text-anchor="start" x="50.2" y="-666" font-family="Arial" font-size="14.00">complement </text>
<text text-anchor="start" x="130.34" y="-666" font-family="Arial" font-size="14.00" fill="#666666">[varchar(100)]</text>
<polygon fill="none" stroke="black" points="43.2,-623 43.2,-653.8 271.16,-653.8 271.16,-623 43.2,-623"/>
<text text-anchor="start" x="50.2" y="-635.2" font-family="Arial" font-size="14.00">email </text>
<text text-anchor="start" x="87.54" y="-635.2" font-family="Arial" font-size="14.00" fill="#666666">[varchar(255)]</text>
<polygon fill="none" stroke="black" points="43.2,-592.2 43.2,-623 271.16,-623 271.16,-592.2 43.2,-592.2"/>
<text text-anchor="start" x="50.2" y="-604.4" font-family="Arial" font-size="14.00">email_contact </text>
<text text-anchor="start" x="140.47" y="-604.4" font-family="Arial" font-size="14.00" fill="#666666">[varchar(150)]</text>
<polygon fill="none" stroke="black" points="43.2,-561.4 43.2,-592.2 271.16,-592.2 271.16,-561.4 43.2,-561.4"/>
<text text-anchor="start" x="50.2" y="-573.6" font-family="Arial" font-size="14.00">logo_path </text>
<text text-anchor="start" x="115.59" y="-573.6" font-family="Arial" font-size="14.00" fill="#666666">[varchar(255)]</text>
<polygon fill="none" stroke="black" points="43.2,-530.6 43.2,-561.4 271.16,-561.4 271.16,-530.6 43.2,-530.6"/>
<text text-anchor="start" x="50.2" y="-542.8" font-family="Arial" font-size="14.00">name </text>
<text text-anchor="start" x="89.11" y="-542.8" font-family="Arial" font-size="14.00" fill="#666666">[varchar(255)]</text>
<polygon fill="none" stroke="black" points="43.2,-499.8 43.2,-530.6 271.16,-530.6 271.16,-499.8 43.2,-499.8"/>
<text text-anchor="start" x="50.2" y="-512" font-family="Arial" font-size="14.00">neighborhood </text>
<text text-anchor="start" x="139.72" y="-512" font-family="Arial" font-size="14.00" fill="#666666">[varchar(100)]</text>
<polygon fill="none" stroke="black" points="43.2,-469 43.2,-499.8 271.16,-499.8 271.16,-469 43.2,-469"/>
<text text-anchor="start" x="50.2" y="-481.2" font-family="Arial" font-size="14.00">number_address </text>
<text text-anchor="start" x="159.15" y="-481.2" font-family="Arial" font-size="14.00" fill="#666666">[varchar(10)]</text>
<polygon fill="none" stroke="black" points="43.2,-438.2 43.2,-469 271.16,-469 271.16,-438.2 43.2,-438.2"/>
<text text-anchor="start" x="50.2" y="-450.4" font-family="Arial" font-size="14.00">phone </text>
<text text-anchor="start" x="93.02" y="-450.4" font-family="Arial" font-size="14.00" fill="#666666">[varchar(11)]</text>
<polygon fill="none" stroke="black" points="43.2,-407.4 43.2,-438.2 271.16,-438.2 271.16,-407.4 43.2,-407.4"/>
<text text-anchor="start" x="50.2" y="-419.6" font-family="Arial" font-size="14.00">state </text>
<text text-anchor="start" x="84.44" y="-419.6" font-family="Arial" font-size="14.00" fill="#666666">[varchar(100)]</text>
<polygon fill="none" stroke="black" points="43.2,-376.6 43.2,-407.4 271.16,-407.4 271.16,-376.6 43.2,-376.6"/>
<text text-anchor="start" x="50.2" y="-388.8" font-family="Arial" font-size="14.00">street </text>
<text text-anchor="start" x="89.1" y="-388.8" font-family="Arial" font-size="14.00" fill="#666666">[varchar(255)]</text>
<polygon fill="none" stroke="black" points="43.2,-345.8 43.2,-376.6 271.16,-376.6 271.16,-345.8 43.2,-345.8"/>
<text text-anchor="start" x="50.2" y="-358" font-family="Arial" font-size="14.00">whatsapp_phone </text>
<text text-anchor="start" x="160.74" y="-358" font-family="Arial" font-size="14.00" fill="#666666">[varchar(11)]</text>
<polygon fill="none" stroke="black" points="43.2,-315 43.2,-345.8 271.16,-345.8 271.16,-315 43.2,-315"/>
<text text-anchor="start" x="50.2" y="-327.2" font-family="Arial" font-size="14.00">zip_code </text>
<text text-anchor="start" x="110.13" y="-327.2" font-family="Arial" font-size="14.00" fill="#666666">[varchar(9)]</text>
<polygon fill="none" stroke="black" points="43.2,-284.2 43.2,-315 271.16,-315 271.16,-284.2 43.2,-284.2"/>
<text text-anchor="start" x="50.2" y="-296.4" font-family="Arial" font-size="14.00">status_id </text>
<text text-anchor="start" x="110.12" y="-296.4" font-family="Arial" font-size="14.00" fill="#666666">[bigint]</text>
</g>
<!-- public.client&#45;&gt;public.status -->
<g id="edge1" class="edge">
<title>public.client:status_id&#45;&gt;public.status:id</title>
<path fill="none" stroke="black" d="M282.4,-298.81C366.55,-284.9 271.59,-92.4 369.69,-92.4"/>
<polygon fill="black" stroke="black" points="282.47,-298.8 272.15,-295.09 277.15,-299.21 272.83,-299.55 272.83,-299.55 272.83,-299.55 277.15,-299.21 272.84,-304.06 282.47,-298.8"/>
<text text-anchor="start" x="279.16" y="-309.6" font-family="Arial" font-size="10.00">FOREIGN KEY (status_id) REFERENCES status(id)</text>
</g>
<!-- public.dam -->
<g id="node3" class="node">
<title>public.dam</title>
<polygon fill="#efefef" stroke="none" points="375.7,-761.6 375.7,-797.2 594.67,-797.2 594.67,-761.6 375.7,-761.6"/>
<polygon fill="none" stroke="black" points="375.7,-761.6 375.7,-797.2 594.67,-797.2 594.67,-761.6 375.7,-761.6"/>
<text text-anchor="start" x="382.7" y="-775" font-family="Arial Bold" font-size="18.00">public.dam</text>
<text text-anchor="start" x="463.18" y="-775" font-family="Arial" font-size="14.00">    </text>
<text text-anchor="start" x="494.29" y="-775" font-family="Arial" font-size="14.00" fill="#666666">[BASE TABLE]</text>
<polygon fill="none" stroke="black" points="375.7,-730.8 375.7,-761.6 594.67,-761.6 594.67,-730.8 375.7,-730.8"/>
<text text-anchor="start" x="382.7" y="-743" font-family="Arial" font-size="14.00">id </text>
<text text-anchor="start" x="397.48" y="-743" font-family="Arial" font-size="14.00" fill="#666666">[bigint]</text>
<polygon fill="none" stroke="black" points="375.7,-700 375.7,-730.8 594.67,-730.8 594.67,-700 375.7,-700"/>
<text text-anchor="start" x="382.7" y="-712.2" font-family="Arial" font-size="14.00">city </text>
<text text-anchor="start" x="407.59" y="-712.2" font-family="Arial" font-size="14.00" fill="#666666">[varchar(100)]</text>
<polygon fill="none" stroke="black" points="375.7,-669.2 375.7,-700 594.67,-700 594.67,-669.2 375.7,-669.2"/>
<text text-anchor="start" x="382.7" y="-681.4" font-family="Arial" font-size="14.00">dam_image_path </text>
<text text-anchor="start" x="494.77" y="-681.4" font-family="Arial" font-size="14.00" fill="#666666">[varchar(255)]</text>
<polygon fill="none" stroke="black" points="375.7,-638.4 375.7,-669.2 594.67,-669.2 594.67,-638.4 375.7,-638.4"/>
<text text-anchor="start" x="382.7" y="-650.6" font-family="Arial" font-size="14.00">latitude </text>
<text text-anchor="start" x="431.73" y="-650.6" font-family="Arial" font-size="14.00" fill="#666666">[double precision]</text>
<polygon fill="none" stroke="black" points="375.7,-607.6 375.7,-638.4 594.67,-638.4 594.67,-607.6 375.7,-607.6"/>
<text text-anchor="start" x="382.7" y="-619.8" font-family="Arial" font-size="14.00">link_legislation </text>
<text text-anchor="start" x="477.64" y="-619.8" font-family="Arial" font-size="14.00" fill="#666666">[varchar(255)]</text>
<polygon fill="none" stroke="black" points="375.7,-576.8 375.7,-607.6 594.67,-607.6 594.67,-576.8 375.7,-576.8"/>
<text text-anchor="start" x="382.7" y="-589" font-family="Arial" font-size="14.00">linkpsb </text>
<text text-anchor="start" x="430.16" y="-589" font-family="Arial" font-size="14.00" fill="#666666">[varchar(255)]</text>
<polygon fill="none" stroke="black" points="375.7,-546 375.7,-576.8 594.67,-576.8 594.67,-546 375.7,-546"/>
<text text-anchor="start" x="382.7" y="-558.2" font-family="Arial" font-size="14.00">logo_path </text>
<text text-anchor="start" x="448.09" y="-558.2" font-family="Arial" font-size="14.00" fill="#666666">[varchar(255)]</text>
<polygon fill="none" stroke="black" points="375.7,-515.2 375.7,-546 594.67,-546 594.67,-515.2 375.7,-515.2"/>
<text text-anchor="start" x="382.7" y="-527.4" font-family="Arial" font-size="14.00">longitude </text>
<text text-anchor="start" x="443.41" y="-527.4" font-family="Arial" font-size="14.00" fill="#666666">[double precision]</text>
<polygon fill="none" stroke="black" points="375.7,-484.4 375.7,-515.2 594.67,-515.2 594.67,-484.4 375.7,-484.4"/>
<text text-anchor="start" x="382.7" y="-496.6" font-family="Arial" font-size="14.00">name </text>
<text text-anchor="start" x="421.61" y="-496.6" font-family="Arial" font-size="14.00" fill="#666666">[varchar(255)]</text>
<polygon fill="none" stroke="black" points="375.7,-453.6 375.7,-484.4 594.67,-484.4 594.67,-453.6 375.7,-453.6"/>
<text text-anchor="start" x="382.7" y="-465.8" font-family="Arial" font-size="14.00">neighborhood </text>
<text text-anchor="start" x="472.22" y="-465.8" font-family="Arial" font-size="14.00" fill="#666666">[varchar(100)]</text>
<polygon fill="none" stroke="black" points="375.7,-422.8 375.7,-453.6 594.67,-453.6 594.67,-422.8 375.7,-422.8"/>
<text text-anchor="start" x="382.7" y="-435" font-family="Arial" font-size="14.00">number_address </text>
<text text-anchor="start" x="491.65" y="-435" font-family="Arial" font-size="14.00" fill="#666666">[varchar(10)]</text>
<polygon fill="none" stroke="black" points="375.7,-392 375.7,-422.8 594.67,-422.8 594.67,-392 375.7,-392"/>
<text text-anchor="start" x="382.7" y="-404.2" font-family="Arial" font-size="14.00">state </text>
<text text-anchor="start" x="416.94" y="-404.2" font-family="Arial" font-size="14.00" fill="#666666">[varchar(100)]</text>
<polygon fill="none" stroke="black" points="375.7,-361.2 375.7,-392 594.67,-392 594.67,-361.2 375.7,-361.2"/>
<text text-anchor="start" x="382.7" y="-373.4" font-family="Arial" font-size="14.00">street </text>
<text text-anchor="start" x="421.6" y="-373.4" font-family="Arial" font-size="14.00" fill="#666666">[varchar(255)]</text>
<polygon fill="none" stroke="black" points="375.7,-330.4 375.7,-361.2 594.67,-361.2 594.67,-330.4 375.7,-330.4"/>
<text text-anchor="start" x="382.7" y="-342.6" font-family="Arial" font-size="14.00">zip_code </text>
<text text-anchor="start" x="442.63" y="-342.6" font-family="Arial" font-size="14.00" fill="#666666">[varchar(9)]</text>
<polygon fill="none" stroke="black" points="375.7,-299.6 375.7,-330.4 594.67,-330.4 594.67,-299.6 375.7,-299.6"/>
<text text-anchor="start" x="382.7" y="-311.8" font-family="Arial" font-size="14.00">client_id </text>
<text text-anchor="start" x="437.95" y="-311.8" font-family="Arial" font-size="14.00" fill="#666666">[bigint]</text>
<polygon fill="none" stroke="black" points="375.7,-268.8 375.7,-299.6 594.67,-299.6 594.67,-268.8 375.7,-268.8"/>
<text text-anchor="start" x="382.7" y="-281" font-family="Arial" font-size="14.00">status_id </text>
<text text-anchor="start" x="442.62" y="-281" font-family="Arial" font-size="14.00" fill="#666666">[bigint]</text>
</g>
<!-- public.dam&#45;&gt;public.status -->
<g id="edge2" class="edge">
<title>public.dam:status_id&#45;&gt;public.status:id</title>
<path fill="none" stroke="black" d="M486.09,-257.66C495.32,-210.41 572.38,-240.65 599.67,-189.6 620.04,-151.5 643.87,-92.4 600.67,-92.4"/>
<polygon fill="black" stroke="black" points="486.1,-257.51 480.73,-267.07 485.63,-262.82 485.24,-267.13 485.24,-267.13 485.24,-267.13 485.63,-262.82 489.69,-267.87 486.1,-257.51"/>
<text text-anchor="start" x="492.18" y="-251.8" font-family="Arial" font-size="10.00">FOREIGN KEY (status_id) REFERENCES status(id)</text>
</g>
<!-- public.users -->
<g id="node4" class="node">
<title>public.users</title>
<polygon fill="#efefef" stroke="none" points="698.88,-700 698.88,-735.6 1033.48,-735.6 1033.48,-700 698.88,-700"/>
<polygon fill="none" stroke="black" points="698.88,-700 698.88,-735.6 1033.48,-735.6 1033.48,-700 698.88,-700"/>
<text text-anchor="start" x="760.69" y="-713.4" font-family="Arial Bold" font-size="18.00">public.users</text>
<text text-anchor="start" x="847.18" y="-713.4" font-family="Arial" font-size="14.00">    </text>
<text text-anchor="start" x="878.3" y="-713.4" font-family="Arial" font-size="14.00" fill="#666666">[BASE TABLE]</text>
<polygon fill="none" stroke="black" points="698.88,-669.2 698.88,-700 1033.48,-700 1033.48,-669.2 698.88,-669.2"/>
<text text-anchor="start" x="705.88" y="-681.4" font-family="Arial" font-size="14.00">id </text>
<text text-anchor="start" x="720.67" y="-681.4" font-family="Arial" font-size="14.00" fill="#666666">[bigint]</text>
<polygon fill="none" stroke="black" points="698.88,-638.4 698.88,-669.2 1033.48,-669.2 1033.48,-638.4 698.88,-638.4"/>
<text text-anchor="start" x="705.88" y="-650.6" font-family="Arial" font-size="14.00">email </text>
<text text-anchor="start" x="743.23" y="-650.6" font-family="Arial" font-size="14.00" fill="#666666">[varchar(255)]</text>
<polygon fill="none" stroke="black" points="698.88,-607.6 698.88,-638.4 1033.48,-638.4 1033.48,-607.6 698.88,-607.6"/>
<text text-anchor="start" x="705.88" y="-619.8" font-family="Arial" font-size="14.00">is_first_access </text>
<text text-anchor="start" x="801.58" y="-619.8" font-family="Arial" font-size="14.00" fill="#666666">[boolean]</text>
<polygon fill="none" stroke="black" points="698.88,-576.8 698.88,-607.6 1033.48,-607.6 1033.48,-576.8 698.88,-576.8"/>
<text text-anchor="start" x="705.88" y="-589" font-family="Arial" font-size="14.00">last_token </text>
<text text-anchor="start" x="773.59" y="-589" font-family="Arial" font-size="14.00" fill="#666666">[text]</text>
<polygon fill="none" stroke="black" points="698.88,-546 698.88,-576.8 1033.48,-576.8 1033.48,-546 698.88,-546"/>
<text text-anchor="start" x="705.88" y="-558.2" font-family="Arial" font-size="14.00">name </text>
<text text-anchor="start" x="744.79" y="-558.2" font-family="Arial" font-size="14.00" fill="#666666">[varchar(255)]</text>
<polygon fill="none" stroke="black" points="698.88,-515.2 698.88,-546 1033.48,-546 1033.48,-515.2 698.88,-515.2"/>
<text text-anchor="start" x="705.88" y="-527.4" font-family="Arial" font-size="14.00">password </text>
<text text-anchor="start" x="769.69" y="-527.4" font-family="Arial" font-size="14.00" fill="#666666">[varchar(255)]</text>
<polygon fill="none" stroke="black" points="698.88,-484.4 698.88,-515.2 1033.48,-515.2 1033.48,-484.4 698.88,-484.4"/>
<text text-anchor="start" x="705.88" y="-496.6" font-family="Arial" font-size="14.00">phone </text>
<text text-anchor="start" x="748.7" y="-496.6" font-family="Arial" font-size="14.00" fill="#666666">[varchar(11)]</text>
<polygon fill="none" stroke="black" points="698.88,-453.6 698.88,-484.4 1033.48,-484.4 1033.48,-453.6 698.88,-453.6"/>
<text text-anchor="start" x="705.88" y="-465.8" font-family="Arial" font-size="14.00">token_expiry_date </text>
<text text-anchor="start" x="824.18" y="-465.8" font-family="Arial" font-size="14.00" fill="#666666">[timestamp(6) without time zone]</text>
<polygon fill="none" stroke="black" points="698.88,-422.8 698.88,-453.6 1033.48,-453.6 1033.48,-422.8 698.88,-422.8"/>
<text text-anchor="start" x="705.88" y="-435" font-family="Arial" font-size="14.00">created_by_id </text>
<text text-anchor="start" x="797.72" y="-435" font-family="Arial" font-size="14.00" fill="#666666">[bigint]</text>
<polygon fill="none" stroke="black" points="698.88,-392 698.88,-422.8 1033.48,-422.8 1033.48,-392 698.88,-392"/>
<text text-anchor="start" x="705.88" y="-404.2" font-family="Arial" font-size="14.00">role_id </text>
<text text-anchor="start" x="751.8" y="-404.2" font-family="Arial" font-size="14.00" fill="#666666">[bigint]</text>
<polygon fill="none" stroke="black" points="698.88,-361.2 698.88,-392 1033.48,-392 1033.48,-361.2 698.88,-361.2"/>
<text text-anchor="start" x="705.88" y="-373.4" font-family="Arial" font-size="14.00">sex_id </text>
<text text-anchor="start" x="750.24" y="-373.4" font-family="Arial" font-size="14.00" fill="#666666">[bigint]</text>
<polygon fill="none" stroke="black" points="698.88,-330.4 698.88,-361.2 1033.48,-361.2 1033.48,-330.4 698.88,-330.4"/>
<text text-anchor="start" x="705.88" y="-342.6" font-family="Arial" font-size="14.00">status_id </text>
<text text-anchor="start" x="765.81" y="-342.6" font-family="Arial" font-size="14.00" fill="#666666">[bigint]</text>
</g>
<!-- public.users&#45;&gt;public.status -->
<g id="edge3" class="edge">
<title>public.users:status_id&#45;&gt;public.status:id</title>
<path fill="none" stroke="black" d="M687.81,-343.13C640.1,-316.04 657.33,-92.4 600.67,-92.4"/>
<polygon fill="black" stroke="black" points="687.89,-343.15 696.4,-350.06 693.05,-344.52 697.24,-345.63 697.24,-345.63 697.24,-345.63 693.05,-344.52 698.71,-341.36 687.89,-343.15"/>
<text text-anchor="start" x="458.05" y="-355.8" font-family="Arial" font-size="10.00">FOREIGN KEY (status_id) REFERENCES status(id)</text>
</g>
</g>
</svg>
