<?xml version="1.0" encoding="UTF-8" standalone="no"?>
<!DOCTYPE svg PUBLIC "-//W3C//DTD SVG 1.1//EN"
 "http://www.w3.org/Graphics/SVG/1.1/DTD/svg11.dtd">
<!-- Generated by graphviz version 12.1.2 (20240928.0832)
 -->
<!-- Title: public.dam_permissions Pages: 1 -->
<svg width="1085pt" height="1064pt"
 viewBox="0.00 0.00 1084.87 1064.00" xmlns="http://www.w3.org/2000/svg" xmlns:xlink="http://www.w3.org/1999/xlink">
<g id="graph0" class="graph" transform="scale(1 1) rotate(0) translate(4 1060)">
<title>public.dam_permissions</title>
<polygon fill="white" stroke="none" points="-4,4 -4,-1060 1080.87,-1060 1080.87,4 -4,4"/>
<!-- public.dam_permissions -->
<g id="node1" class="node">
<title>public.dam_permissions</title>
<polygon fill="#efefef" stroke="none" points="386.2,-974.2 386.2,-1009.8 700.17,-1009.8 700.17,-974.2 386.2,-974.2"/>
<polygon fill="none" stroke="black" points="386.2,-974.2 386.2,-1009.8 700.17,-1009.8 700.17,-974.2 386.2,-974.2"/>
<text text-anchor="start" x="393.2" y="-987.6" font-family="Arial Bold" font-size="18.00">public.dam_permissions</text>
<text text-anchor="start" x="568.68" y="-987.6" font-family="Arial" font-size="14.00">    </text>
<text text-anchor="start" x="599.79" y="-987.6" font-family="Arial" font-size="14.00" fill="#666666">[BASE TABLE]</text>
<polygon fill="none" stroke="black" points="386.2,-943.4 386.2,-974.2 700.17,-974.2 700.17,-943.4 386.2,-943.4"/>
<text text-anchor="start" x="393.2" y="-955.6" font-family="Arial" font-size="14.00">id </text>
<text text-anchor="start" x="407.98" y="-955.6" font-family="Arial" font-size="14.00" fill="#666666">[bigint]</text>
<polygon fill="none" stroke="black" points="386.2,-912.6 386.2,-943.4 700.17,-943.4 700.17,-912.6 386.2,-912.6"/>
<text text-anchor="start" x="393.2" y="-924.8" font-family="Arial" font-size="14.00">created_at </text>
<text text-anchor="start" x="463.24" y="-924.8" font-family="Arial" font-size="14.00" fill="#666666">[timestamp(6) without time zone]</text>
<polygon fill="none" stroke="black" points="386.2,-881.8 386.2,-912.6 700.17,-912.6 700.17,-881.8 386.2,-881.8"/>
<text text-anchor="start" x="393.2" y="-894" font-family="Arial" font-size="14.00">has_access </text>
<text text-anchor="start" x="471.02" y="-894" font-family="Arial" font-size="14.00" fill="#666666">[boolean]</text>
<polygon fill="none" stroke="black" points="386.2,-851 386.2,-881.8 700.17,-881.8 700.17,-851 386.2,-851"/>
<text text-anchor="start" x="393.2" y="-863.2" font-family="Arial" font-size="14.00">updated_at </text>
<text text-anchor="start" x="467.15" y="-863.2" font-family="Arial" font-size="14.00" fill="#666666">[timestamp(6) without time zone]</text>
<polygon fill="none" stroke="black" points="386.2,-820.2 386.2,-851 700.17,-851 700.17,-820.2 386.2,-820.2"/>
<text text-anchor="start" x="393.2" y="-832.4" font-family="Arial" font-size="14.00">client_id </text>
<text text-anchor="start" x="448.45" y="-832.4" font-family="Arial" font-size="14.00" fill="#666666">[bigint]</text>
<polygon fill="none" stroke="black" points="386.2,-789.4 386.2,-820.2 700.17,-820.2 700.17,-789.4 386.2,-789.4"/>
<text text-anchor="start" x="393.2" y="-801.6" font-family="Arial" font-size="14.00">created_by </text>
<text text-anchor="start" x="466.35" y="-801.6" font-family="Arial" font-size="14.00" fill="#666666">[bigint]</text>
<polygon fill="none" stroke="black" points="386.2,-758.6 386.2,-789.4 700.17,-789.4 700.17,-758.6 386.2,-758.6"/>
<text text-anchor="start" x="393.2" y="-770.8" font-family="Arial" font-size="14.00">dam_id </text>
<text text-anchor="start" x="443" y="-770.8" font-family="Arial" font-size="14.00" fill="#666666">[bigint]</text>
<polygon fill="none" stroke="black" points="386.2,-727.8 386.2,-758.6 700.17,-758.6 700.17,-727.8 386.2,-727.8"/>
<text text-anchor="start" x="393.2" y="-740" font-family="Arial" font-size="14.00">updated_by </text>
<text text-anchor="start" x="470.26" y="-740" font-family="Arial" font-size="14.00" fill="#666666">[bigint]</text>
<polygon fill="none" stroke="black" points="386.2,-697 386.2,-727.8 700.17,-727.8 700.17,-697 386.2,-697"/>
<text text-anchor="start" x="393.2" y="-709.2" font-family="Arial" font-size="14.00">user_id </text>
<text text-anchor="start" x="443" y="-709.2" font-family="Arial" font-size="14.00" fill="#666666">[bigint]</text>
<polygon fill="none" stroke="black" stroke-width="3" points="384.7,-695.5 384.7,-1011.3 701.67,-1011.3 701.67,-695.5 384.7,-695.5"/>
</g>
<!-- public.client -->
<g id="node2" class="node">
<title>public.client</title>
<polygon fill="#efefef" stroke="none" points="43.2,-520.6 43.2,-556.2 271.16,-556.2 271.16,-520.6 43.2,-520.6"/>
<polygon fill="none" stroke="black" points="43.2,-520.6 43.2,-556.2 271.16,-556.2 271.16,-520.6 43.2,-520.6"/>
<text text-anchor="start" x="50.2" y="-534" font-family="Arial Bold" font-size="18.00">public.client</text>
<text text-anchor="start" x="139.67" y="-534" font-family="Arial" font-size="14.00">    </text>
<text text-anchor="start" x="170.79" y="-534" font-family="Arial" font-size="14.00" fill="#666666">[BASE TABLE]</text>
<polygon fill="none" stroke="black" points="43.2,-489.8 43.2,-520.6 271.16,-520.6 271.16,-489.8 43.2,-489.8"/>
<text text-anchor="start" x="50.2" y="-502" font-family="Arial" font-size="14.00">id </text>
<text text-anchor="start" x="64.99" y="-502" font-family="Arial" font-size="14.00" fill="#666666">[bigint]</text>
<polygon fill="none" stroke="black" points="43.2,-459 43.2,-489.8 271.16,-489.8 271.16,-459 43.2,-459"/>
<text text-anchor="start" x="50.2" y="-471.2" font-family="Arial" font-size="14.00">city </text>
<text text-anchor="start" x="75.09" y="-471.2" font-family="Arial" font-size="14.00" fill="#666666">[varchar(100)]</text>
<polygon fill="none" stroke="black" points="43.2,-428.2 43.2,-459 271.16,-459 271.16,-428.2 43.2,-428.2"/>
<text text-anchor="start" x="50.2" y="-440.4" font-family="Arial" font-size="14.00">complement </text>
<text text-anchor="start" x="130.34" y="-440.4" font-family="Arial" font-size="14.00" fill="#666666">[varchar(100)]</text>
<polygon fill="none" stroke="black" points="43.2,-397.4 43.2,-428.2 271.16,-428.2 271.16,-397.4 43.2,-397.4"/>
<text text-anchor="start" x="50.2" y="-409.6" font-family="Arial" font-size="14.00">email </text>
<text text-anchor="start" x="87.54" y="-409.6" font-family="Arial" font-size="14.00" fill="#666666">[varchar(255)]</text>
<polygon fill="none" stroke="black" points="43.2,-366.6 43.2,-397.4 271.16,-397.4 271.16,-366.6 43.2,-366.6"/>
<text text-anchor="start" x="50.2" y="-378.8" font-family="Arial" font-size="14.00">email_contact </text>
<text text-anchor="start" x="140.47" y="-378.8" font-family="Arial" font-size="14.00" fill="#666666">[varchar(150)]</text>
<polygon fill="none" stroke="black" points="43.2,-335.8 43.2,-366.6 271.16,-366.6 271.16,-335.8 43.2,-335.8"/>
<text text-anchor="start" x="50.2" y="-348" font-family="Arial" font-size="14.00">logo_path </text>
<text text-anchor="start" x="115.59" y="-348" font-family="Arial" font-size="14.00" fill="#666666">[varchar(255)]</text>
<polygon fill="none" stroke="black" points="43.2,-305 43.2,-335.8 271.16,-335.8 271.16,-305 43.2,-305"/>
<text text-anchor="start" x="50.2" y="-317.2" font-family="Arial" font-size="14.00">name </text>
<text text-anchor="start" x="89.11" y="-317.2" font-family="Arial" font-size="14.00" fill="#666666">[varchar(255)]</text>
<polygon fill="none" stroke="black" points="43.2,-274.2 43.2,-305 271.16,-305 271.16,-274.2 43.2,-274.2"/>
<text text-anchor="start" x="50.2" y="-286.4" font-family="Arial" font-size="14.00">neighborhood </text>
<text text-anchor="start" x="139.72" y="-286.4" font-family="Arial" font-size="14.00" fill="#666666">[varchar(100)]</text>
<polygon fill="none" stroke="black" points="43.2,-243.4 43.2,-274.2 271.16,-274.2 271.16,-243.4 43.2,-243.4"/>
<text text-anchor="start" x="50.2" y="-255.6" font-family="Arial" font-size="14.00">number_address </text>
<text text-anchor="start" x="159.15" y="-255.6" font-family="Arial" font-size="14.00" fill="#666666">[varchar(10)]</text>
<polygon fill="none" stroke="black" points="43.2,-212.6 43.2,-243.4 271.16,-243.4 271.16,-212.6 43.2,-212.6"/>
<text text-anchor="start" x="50.2" y="-224.8" font-family="Arial" font-size="14.00">phone </text>
<text text-anchor="start" x="93.02" y="-224.8" font-family="Arial" font-size="14.00" fill="#666666">[varchar(11)]</text>
<polygon fill="none" stroke="black" points="43.2,-181.8 43.2,-212.6 271.16,-212.6 271.16,-181.8 43.2,-181.8"/>
<text text-anchor="start" x="50.2" y="-194" font-family="Arial" font-size="14.00">state </text>
<text text-anchor="start" x="84.44" y="-194" font-family="Arial" font-size="14.00" fill="#666666">[varchar(100)]</text>
<polygon fill="none" stroke="black" points="43.2,-151 43.2,-181.8 271.16,-181.8 271.16,-151 43.2,-151"/>
<text text-anchor="start" x="50.2" y="-163.2" font-family="Arial" font-size="14.00">street </text>
<text text-anchor="start" x="89.1" y="-163.2" font-family="Arial" font-size="14.00" fill="#666666">[varchar(255)]</text>
<polygon fill="none" stroke="black" points="43.2,-120.2 43.2,-151 271.16,-151 271.16,-120.2 43.2,-120.2"/>
<text text-anchor="start" x="50.2" y="-132.4" font-family="Arial" font-size="14.00">whatsapp_phone </text>
<text text-anchor="start" x="160.74" y="-132.4" font-family="Arial" font-size="14.00" fill="#666666">[varchar(11)]</text>
<polygon fill="none" stroke="black" points="43.2,-89.4 43.2,-120.2 271.16,-120.2 271.16,-89.4 43.2,-89.4"/>
<text text-anchor="start" x="50.2" y="-101.6" font-family="Arial" font-size="14.00">zip_code </text>
<text text-anchor="start" x="110.13" y="-101.6" font-family="Arial" font-size="14.00" fill="#666666">[varchar(9)]</text>
<polygon fill="none" stroke="black" points="43.2,-58.6 43.2,-89.4 271.16,-89.4 271.16,-58.6 43.2,-58.6"/>
<text text-anchor="start" x="50.2" y="-70.8" font-family="Arial" font-size="14.00">status_id </text>
<text text-anchor="start" x="110.12" y="-70.8" font-family="Arial" font-size="14.00" fill="#666666">[bigint]</text>
</g>
<!-- public.dam_permissions&#45;&gt;public.client -->
<g id="edge1" class="edge">
<title>public.dam_permissions:client_id&#45;&gt;public.client:id</title>
<path fill="none" stroke="black" d="M375.05,-833.49C311.29,-805.35 346.12,-505.2 272.16,-505.2"/>
<polygon fill="black" stroke="black" points="375.08,-833.5 383.95,-839.94 380.3,-834.58 384.54,-835.46 384.54,-835.46 384.54,-835.46 380.3,-834.58 385.78,-831.13 375.08,-833.5"/>
<text text-anchor="start" x="152.03" y="-845.6" font-family="Arial" font-size="10.00">FOREIGN KEY (client_id) REFERENCES client(id)</text>
</g>
<!-- public.users -->
<g id="node3" class="node">
<title>public.users</title>
<polygon fill="#efefef" stroke="none" points="375.88,-474.4 375.88,-510 710.48,-510 710.48,-474.4 375.88,-474.4"/>
<polygon fill="none" stroke="black" points="375.88,-474.4 375.88,-510 710.48,-510 710.48,-474.4 375.88,-474.4"/>
<text text-anchor="start" x="437.69" y="-487.8" font-family="Arial Bold" font-size="18.00">public.users</text>
<text text-anchor="start" x="524.18" y="-487.8" font-family="Arial" font-size="14.00">    </text>
<text text-anchor="start" x="555.3" y="-487.8" font-family="Arial" font-size="14.00" fill="#666666">[BASE TABLE]</text>
<polygon fill="none" stroke="black" points="375.88,-443.6 375.88,-474.4 710.48,-474.4 710.48,-443.6 375.88,-443.6"/>
<text text-anchor="start" x="382.88" y="-455.8" font-family="Arial" font-size="14.00">id </text>
<text text-anchor="start" x="397.67" y="-455.8" font-family="Arial" font-size="14.00" fill="#666666">[bigint]</text>
<polygon fill="none" stroke="black" points="375.88,-412.8 375.88,-443.6 710.48,-443.6 710.48,-412.8 375.88,-412.8"/>
<text text-anchor="start" x="382.88" y="-425" font-family="Arial" font-size="14.00">email </text>
<text text-anchor="start" x="420.23" y="-425" font-family="Arial" font-size="14.00" fill="#666666">[varchar(255)]</text>
<polygon fill="none" stroke="black" points="375.88,-382 375.88,-412.8 710.48,-412.8 710.48,-382 375.88,-382"/>
<text text-anchor="start" x="382.88" y="-394.2" font-family="Arial" font-size="14.00">is_first_access </text>
<text text-anchor="start" x="478.58" y="-394.2" font-family="Arial" font-size="14.00" fill="#666666">[boolean]</text>
<polygon fill="none" stroke="black" points="375.88,-351.2 375.88,-382 710.48,-382 710.48,-351.2 375.88,-351.2"/>
<text text-anchor="start" x="382.88" y="-363.4" font-family="Arial" font-size="14.00">last_token </text>
<text text-anchor="start" x="450.59" y="-363.4" font-family="Arial" font-size="14.00" fill="#666666">[text]</text>
<polygon fill="none" stroke="black" points="375.88,-320.4 375.88,-351.2 710.48,-351.2 710.48,-320.4 375.88,-320.4"/>
<text text-anchor="start" x="382.88" y="-332.6" font-family="Arial" font-size="14.00">name </text>
<text text-anchor="start" x="421.79" y="-332.6" font-family="Arial" font-size="14.00" fill="#666666">[varchar(255)]</text>
<polygon fill="none" stroke="black" points="375.88,-289.6 375.88,-320.4 710.48,-320.4 710.48,-289.6 375.88,-289.6"/>
<text text-anchor="start" x="382.88" y="-301.8" font-family="Arial" font-size="14.00">password </text>
<text text-anchor="start" x="446.69" y="-301.8" font-family="Arial" font-size="14.00" fill="#666666">[varchar(255)]</text>
<polygon fill="none" stroke="black" points="375.88,-258.8 375.88,-289.6 710.48,-289.6 710.48,-258.8 375.88,-258.8"/>
<text text-anchor="start" x="382.88" y="-271" font-family="Arial" font-size="14.00">phone </text>
<text text-anchor="start" x="425.7" y="-271" font-family="Arial" font-size="14.00" fill="#666666">[varchar(11)]</text>
<polygon fill="none" stroke="black" points="375.88,-228 375.88,-258.8 710.48,-258.8 710.48,-228 375.88,-228"/>
<text text-anchor="start" x="382.88" y="-240.2" font-family="Arial" font-size="14.00">token_expiry_date </text>
<text text-anchor="start" x="501.18" y="-240.2" font-family="Arial" font-size="14.00" fill="#666666">[timestamp(6) without time zone]</text>
<polygon fill="none" stroke="black" points="375.88,-197.2 375.88,-228 710.48,-228 710.48,-197.2 375.88,-197.2"/>
<text text-anchor="start" x="382.88" y="-209.4" font-family="Arial" font-size="14.00">created_by_id </text>
<text text-anchor="start" x="474.72" y="-209.4" font-family="Arial" font-size="14.00" fill="#666666">[bigint]</text>
<polygon fill="none" stroke="black" points="375.88,-166.4 375.88,-197.2 710.48,-197.2 710.48,-166.4 375.88,-166.4"/>
<text text-anchor="start" x="382.88" y="-178.6" font-family="Arial" font-size="14.00">role_id </text>
<text text-anchor="start" x="428.8" y="-178.6" font-family="Arial" font-size="14.00" fill="#666666">[bigint]</text>
<polygon fill="none" stroke="black" points="375.88,-135.6 375.88,-166.4 710.48,-166.4 710.48,-135.6 375.88,-135.6"/>
<text text-anchor="start" x="382.88" y="-147.8" font-family="Arial" font-size="14.00">sex_id </text>
<text text-anchor="start" x="427.24" y="-147.8" font-family="Arial" font-size="14.00" fill="#666666">[bigint]</text>
<polygon fill="none" stroke="black" points="375.88,-104.8 375.88,-135.6 710.48,-135.6 710.48,-104.8 375.88,-104.8"/>
<text text-anchor="start" x="382.88" y="-117" font-family="Arial" font-size="14.00">status_id </text>
<text text-anchor="start" x="442.81" y="-117" font-family="Arial" font-size="14.00" fill="#666666">[bigint]</text>
</g>
<!-- public.dam_permissions&#45;&gt;public.users -->
<g id="edge2" class="edge">
<title>public.dam_permissions:created_by&#45;&gt;public.users:id</title>
<path fill="none" stroke="black" d="M709.65,-798.8C740.92,-752.88 746.92,-459 711.48,-459"/>
<polygon fill="black" stroke="black" points="709.6,-798.83 698.84,-800.93 705.25,-801.91 701.71,-804.41 701.71,-804.41 701.71,-804.41 705.25,-801.91 704.04,-808.28 709.6,-798.83"/>
<text text-anchor="start" x="708.17" y="-814.8" font-family="Arial" font-size="10.00">FOREIGN KEY (created_by) REFERENCES users(id)</text>
</g>
<!-- public.dam_permissions&#45;&gt;public.users -->
<g id="edge4" class="edge">
<title>public.dam_permissions:updated_by&#45;&gt;public.users:id</title>
<path fill="none" stroke="black" d="M711.06,-740.74C765.27,-712.97 771.22,-459 711.48,-459"/>
<polygon fill="black" stroke="black" points="711.2,-740.71 700.41,-738.75 706.02,-741.99 701.82,-743.04 701.82,-743.04 701.82,-743.04 706.02,-741.99 702.58,-747.49 711.2,-740.71"/>
<text text-anchor="start" x="708.17" y="-753.2" font-family="Arial" font-size="10.00">FOREIGN KEY (updated_by) REFERENCES users(id)</text>
</g>
<!-- public.dam_permissions&#45;&gt;public.users -->
<g id="edge5" class="edge">
<title>public.dam_permissions:user_id&#45;&gt;public.users:id</title>
<path fill="none" stroke="black" d="M543.69,-685.69C552.41,-601.29 670.61,-638.47 710.48,-553.2 728.22,-515.27 753.35,-459 711.48,-459"/>
<polygon fill="black" stroke="black" points="543.69,-685.68 538.7,-695.44 543.43,-691.01 543.21,-695.33 543.21,-695.33 543.21,-695.33 543.43,-691.01 547.69,-695.89 543.69,-685.68"/>
<text text-anchor="start" x="312.8" y="-706" font-family="Arial" font-size="10.00">FOREIGN KEY (user_id) REFERENCES users(id)</text>
</g>
<!-- public.dam -->
<g id="node4" class="node">
<title>public.dam</title>
<polygon fill="#efefef" stroke="none" points="814.7,-536 814.7,-571.6 1033.67,-571.6 1033.67,-536 814.7,-536"/>
<polygon fill="none" stroke="black" points="814.7,-536 814.7,-571.6 1033.67,-571.6 1033.67,-536 814.7,-536"/>
<text text-anchor="start" x="821.7" y="-549.4" font-family="Arial Bold" font-size="18.00">public.dam</text>
<text text-anchor="start" x="902.18" y="-549.4" font-family="Arial" font-size="14.00">    </text>
<text text-anchor="start" x="933.29" y="-549.4" font-family="Arial" font-size="14.00" fill="#666666">[BASE TABLE]</text>
<polygon fill="none" stroke="black" points="814.7,-505.2 814.7,-536 1033.67,-536 1033.67,-505.2 814.7,-505.2"/>
<text text-anchor="start" x="821.7" y="-517.4" font-family="Arial" font-size="14.00">id </text>
<text text-anchor="start" x="836.48" y="-517.4" font-family="Arial" font-size="14.00" fill="#666666">[bigint]</text>
<polygon fill="none" stroke="black" points="814.7,-474.4 814.7,-505.2 1033.67,-505.2 1033.67,-474.4 814.7,-474.4"/>
<text text-anchor="start" x="821.7" y="-486.6" font-family="Arial" font-size="14.00">city </text>
<text text-anchor="start" x="846.59" y="-486.6" font-family="Arial" font-size="14.00" fill="#666666">[varchar(100)]</text>
<polygon fill="none" stroke="black" points="814.7,-443.6 814.7,-474.4 1033.67,-474.4 1033.67,-443.6 814.7,-443.6"/>
<text text-anchor="start" x="821.7" y="-455.8" font-family="Arial" font-size="14.00">dam_image_path </text>
<text text-anchor="start" x="933.77" y="-455.8" font-family="Arial" font-size="14.00" fill="#666666">[varchar(255)]</text>
<polygon fill="none" stroke="black" points="814.7,-412.8 814.7,-443.6 1033.67,-443.6 1033.67,-412.8 814.7,-412.8"/>
<text text-anchor="start" x="821.7" y="-425" font-family="Arial" font-size="14.00">latitude </text>
<text text-anchor="start" x="870.73" y="-425" font-family="Arial" font-size="14.00" fill="#666666">[double precision]</text>
<polygon fill="none" stroke="black" points="814.7,-382 814.7,-412.8 1033.67,-412.8 1033.67,-382 814.7,-382"/>
<text text-anchor="start" x="821.7" y="-394.2" font-family="Arial" font-size="14.00">link_legislation </text>
<text text-anchor="start" x="916.64" y="-394.2" font-family="Arial" font-size="14.00" fill="#666666">[varchar(255)]</text>
<polygon fill="none" stroke="black" points="814.7,-351.2 814.7,-382 1033.67,-382 1033.67,-351.2 814.7,-351.2"/>
<text text-anchor="start" x="821.7" y="-363.4" font-family="Arial" font-size="14.00">linkpsb </text>
<text text-anchor="start" x="869.16" y="-363.4" font-family="Arial" font-size="14.00" fill="#666666">[varchar(255)]</text>
<polygon fill="none" stroke="black" points="814.7,-320.4 814.7,-351.2 1033.67,-351.2 1033.67,-320.4 814.7,-320.4"/>
<text text-anchor="start" x="821.7" y="-332.6" font-family="Arial" font-size="14.00">logo_path </text>
<text text-anchor="start" x="887.09" y="-332.6" font-family="Arial" font-size="14.00" fill="#666666">[varchar(255)]</text>
<polygon fill="none" stroke="black" points="814.7,-289.6 814.7,-320.4 1033.67,-320.4 1033.67,-289.6 814.7,-289.6"/>
<text text-anchor="start" x="821.7" y="-301.8" font-family="Arial" font-size="14.00">longitude </text>
<text text-anchor="start" x="882.41" y="-301.8" font-family="Arial" font-size="14.00" fill="#666666">[double precision]</text>
<polygon fill="none" stroke="black" points="814.7,-258.8 814.7,-289.6 1033.67,-289.6 1033.67,-258.8 814.7,-258.8"/>
<text text-anchor="start" x="821.7" y="-271" font-family="Arial" font-size="14.00">name </text>
<text text-anchor="start" x="860.61" y="-271" font-family="Arial" font-size="14.00" fill="#666666">[varchar(255)]</text>
<polygon fill="none" stroke="black" points="814.7,-228 814.7,-258.8 1033.67,-258.8 1033.67,-228 814.7,-228"/>
<text text-anchor="start" x="821.7" y="-240.2" font-family="Arial" font-size="14.00">neighborhood </text>
<text text-anchor="start" x="911.22" y="-240.2" font-family="Arial" font-size="14.00" fill="#666666">[varchar(100)]</text>
<polygon fill="none" stroke="black" points="814.7,-197.2 814.7,-228 1033.67,-228 1033.67,-197.2 814.7,-197.2"/>
<text text-anchor="start" x="821.7" y="-209.4" font-family="Arial" font-size="14.00">number_address </text>
<text text-anchor="start" x="930.65" y="-209.4" font-family="Arial" font-size="14.00" fill="#666666">[varchar(10)]</text>
<polygon fill="none" stroke="black" points="814.7,-166.4 814.7,-197.2 1033.67,-197.2 1033.67,-166.4 814.7,-166.4"/>
<text text-anchor="start" x="821.7" y="-178.6" font-family="Arial" font-size="14.00">state </text>
<text text-anchor="start" x="855.94" y="-178.6" font-family="Arial" font-size="14.00" fill="#666666">[varchar(100)]</text>
<polygon fill="none" stroke="black" points="814.7,-135.6 814.7,-166.4 1033.67,-166.4 1033.67,-135.6 814.7,-135.6"/>
<text text-anchor="start" x="821.7" y="-147.8" font-family="Arial" font-size="14.00">street </text>
<text text-anchor="start" x="860.6" y="-147.8" font-family="Arial" font-size="14.00" fill="#666666">[varchar(255)]</text>
<polygon fill="none" stroke="black" points="814.7,-104.8 814.7,-135.6 1033.67,-135.6 1033.67,-104.8 814.7,-104.8"/>
<text text-anchor="start" x="821.7" y="-117" font-family="Arial" font-size="14.00">zip_code </text>
<text text-anchor="start" x="881.63" y="-117" font-family="Arial" font-size="14.00" fill="#666666">[varchar(9)]</text>
<polygon fill="none" stroke="black" points="814.7,-74 814.7,-104.8 1033.67,-104.8 1033.67,-74 814.7,-74"/>
<text text-anchor="start" x="821.7" y="-86.2" font-family="Arial" font-size="14.00">client_id </text>
<text text-anchor="start" x="876.95" y="-86.2" font-family="Arial" font-size="14.00" fill="#666666">[bigint]</text>
<polygon fill="none" stroke="black" points="814.7,-43.2 814.7,-74 1033.67,-74 1033.67,-43.2 814.7,-43.2"/>
<text text-anchor="start" x="821.7" y="-55.4" font-family="Arial" font-size="14.00">status_id </text>
<text text-anchor="start" x="881.62" y="-55.4" font-family="Arial" font-size="14.00" fill="#666666">[bigint]</text>
</g>
<!-- public.dam_permissions&#45;&gt;public.dam -->
<g id="edge3" class="edge">
<title>public.dam_permissions:dam_id&#45;&gt;public.dam:id</title>
<path fill="none" stroke="black" d="M711.28,-771.49C761.78,-745.17 755.69,-520.6 813.7,-520.6"/>
<polygon fill="black" stroke="black" points="711.2,-771.51 700.41,-769.55 706.02,-772.8 701.82,-773.84 701.82,-773.84 701.82,-773.84 706.02,-772.8 702.57,-778.29 711.2,-771.51"/>
<text text-anchor="start" x="708.17" y="-784" font-family="Arial" font-size="10.00">FOREIGN KEY (dam_id) REFERENCES dam(id)</text>
</g>
</g>
</svg>
