<?xml version="1.0" encoding="UTF-8" standalone="no"?>
<!DOCTYPE svg PUBLIC "-//W3C//DTD SVG 1.1//EN"
 "http://www.w3.org/Graphics/SVG/1.1/DTD/svg11.dtd">
<!-- Generated by graphviz version 12.1.2 (20240928.0832)
 -->
<!-- Title: public.answers Pages: 1 -->
<svg width="942pt" height="883pt"
 viewBox="0.00 0.00 942.01 883.20" xmlns="http://www.w3.org/2000/svg" xmlns:xlink="http://www.w3.org/1999/xlink">
<g id="graph0" class="graph" transform="scale(1 1) rotate(0) translate(4 879.2)">
<title>public.answers</title>
<polygon fill="white" stroke="none" points="-4,4 -4,-879.2 938.01,-879.2 938.01,4 -4,4"/>
<!-- public.answers -->
<g id="node1" class="node">
<title>public.answers</title>
<polygon fill="#efefef" stroke="none" points="275.09,-543 275.09,-578.6 521.05,-578.6 521.05,-543 275.09,-543"/>
<polygon fill="none" stroke="black" points="275.09,-543 275.09,-578.6 521.05,-578.6 521.05,-543 275.09,-543"/>
<text text-anchor="start" x="282.09" y="-556.4" font-family="Arial Bold" font-size="18.00">public.answers</text>
<text text-anchor="start" x="389.56" y="-556.4" font-family="Arial" font-size="14.00">    </text>
<text text-anchor="start" x="420.68" y="-556.4" font-family="Arial" font-size="14.00" fill="#666666">[BASE TABLE]</text>
<polygon fill="none" stroke="black" points="275.09,-512.2 275.09,-543 521.05,-543 521.05,-512.2 275.09,-512.2"/>
<text text-anchor="start" x="282.09" y="-524.4" font-family="Arial" font-size="14.00">id </text>
<text text-anchor="start" x="296.87" y="-524.4" font-family="Arial" font-size="14.00" fill="#666666">[bigint]</text>
<polygon fill="none" stroke="black" points="275.09,-481.4 275.09,-512.2 521.05,-512.2 521.05,-481.4 275.09,-481.4"/>
<text text-anchor="start" x="282.09" y="-493.6" font-family="Arial" font-size="14.00">comment </text>
<text text-anchor="start" x="343.55" y="-493.6" font-family="Arial" font-size="14.00" fill="#666666">[text]</text>
<polygon fill="none" stroke="black" points="275.09,-450.6 275.09,-481.4 521.05,-481.4 521.05,-450.6 275.09,-450.6"/>
<text text-anchor="start" x="282.09" y="-462.8" font-family="Arial" font-size="14.00">latitude </text>
<text text-anchor="start" x="331.12" y="-462.8" font-family="Arial" font-size="14.00" fill="#666666">[double precision]</text>
<polygon fill="none" stroke="black" points="275.09,-419.8 275.09,-450.6 521.05,-450.6 521.05,-419.8 275.09,-419.8"/>
<text text-anchor="start" x="282.09" y="-432" font-family="Arial" font-size="14.00">longitude </text>
<text text-anchor="start" x="342.8" y="-432" font-family="Arial" font-size="14.00" fill="#666666">[double precision]</text>
<polygon fill="none" stroke="black" points="275.09,-389 275.09,-419.8 521.05,-419.8 521.05,-389 275.09,-389"/>
<text text-anchor="start" x="282.09" y="-401.2" font-family="Arial" font-size="14.00">question_id </text>
<text text-anchor="start" x="357.59" y="-401.2" font-family="Arial" font-size="14.00" fill="#666666">[bigint]</text>
<polygon fill="none" stroke="black" points="275.09,-358.2 275.09,-389 521.05,-389 521.05,-358.2 275.09,-358.2"/>
<text text-anchor="start" x="282.09" y="-370.4" font-family="Arial" font-size="14.00">questionnaire_response_id </text>
<text text-anchor="start" x="454.1" y="-370.4" font-family="Arial" font-size="14.00" fill="#666666">[bigint]</text>
<polygon fill="none" stroke="black" stroke-width="3" points="273.59,-356.7 273.59,-580.1 522.55,-580.1 522.55,-356.7 273.59,-356.7"/>
</g>
<!-- public.questions -->
<g id="node4" class="node">
<title>public.questions</title>
<polygon fill="#efefef" stroke="none" points="63.08,-166.4 63.08,-202 319.06,-202 319.06,-166.4 63.08,-166.4"/>
<polygon fill="none" stroke="black" points="63.08,-166.4 63.08,-202 319.06,-202 319.06,-166.4 63.08,-166.4"/>
<text text-anchor="start" x="70.08" y="-179.8" font-family="Arial Bold" font-size="18.00">public.questions</text>
<text text-anchor="start" x="187.57" y="-179.8" font-family="Arial" font-size="14.00">    </text>
<text text-anchor="start" x="218.69" y="-179.8" font-family="Arial" font-size="14.00" fill="#666666">[BASE TABLE]</text>
<polygon fill="none" stroke="black" points="63.08,-135.6 63.08,-166.4 319.06,-166.4 319.06,-135.6 63.08,-135.6"/>
<text text-anchor="start" x="70.08" y="-147.8" font-family="Arial" font-size="14.00">id </text>
<text text-anchor="start" x="84.86" y="-147.8" font-family="Arial" font-size="14.00" fill="#666666">[bigint]</text>
<polygon fill="none" stroke="black" points="63.08,-104.8 63.08,-135.6 319.06,-135.6 319.06,-104.8 63.08,-104.8"/>
<text text-anchor="start" x="70.08" y="-117" font-family="Arial" font-size="14.00">question_text </text>
<text text-anchor="start" x="157.25" y="-117" font-family="Arial" font-size="14.00" fill="#666666">[varchar(255)]</text>
<polygon fill="none" stroke="black" points="63.08,-74 63.08,-104.8 319.06,-104.8 319.06,-74 63.08,-74"/>
<text text-anchor="start" x="70.08" y="-86.2" font-family="Arial" font-size="14.00">type </text>
<text text-anchor="start" x="100.43" y="-86.2" font-family="Arial" font-size="14.00" fill="#666666">[varchar(255)]</text>
</g>
<!-- public.answers&#45;&gt;public.questions -->
<g id="edge3" class="edge">
<title>public.answers:question_id&#45;&gt;public.questions:id</title>
<path fill="none" stroke="black" d="M264.01,-402.94C238.72,-394.16 264.26,-347.44 275.09,-312 285.47,-278.01 308.68,-279.19 319.06,-245.2 331.29,-205.16 361.93,-151 320.06,-151"/>
<polygon fill="black" stroke="black" points="263.86,-402.92 273.11,-408.81 269.14,-403.68 273.43,-404.3 273.43,-404.3 273.43,-404.3 269.14,-403.68 274.4,-399.9 263.86,-402.92"/>
<text text-anchor="start" x="7" y="-414.4" font-family="Arial" font-size="10.00">FOREIGN KEY (question_id) REFERENCES questions(id)</text>
</g>
<!-- public.questionnaire_responses -->
<g id="node5" class="node">
<title>public.questionnaire_responses</title>
<polygon fill="#efefef" stroke="none" points="423.1,-197.2 423.1,-232.8 787.04,-232.8 787.04,-197.2 423.1,-197.2"/>
<polygon fill="none" stroke="black" points="423.1,-197.2 423.1,-232.8 787.04,-232.8 787.04,-197.2 423.1,-197.2"/>
<text text-anchor="start" x="430.1" y="-210.6" font-family="Arial Bold" font-size="18.00">public.questionnaire_responses</text>
<text text-anchor="start" x="655.55" y="-210.6" font-family="Arial" font-size="14.00">    </text>
<text text-anchor="start" x="686.67" y="-210.6" font-family="Arial" font-size="14.00" fill="#666666">[BASE TABLE]</text>
<polygon fill="none" stroke="black" points="423.1,-166.4 423.1,-197.2 787.04,-197.2 787.04,-166.4 423.1,-166.4"/>
<text text-anchor="start" x="430.1" y="-178.6" font-family="Arial" font-size="14.00">id </text>
<text text-anchor="start" x="444.89" y="-178.6" font-family="Arial" font-size="14.00" fill="#666666">[bigint]</text>
<polygon fill="none" stroke="black" points="423.1,-135.6 423.1,-166.4 787.04,-166.4 787.04,-135.6 423.1,-135.6"/>
<text text-anchor="start" x="430.1" y="-147.8" font-family="Arial" font-size="14.00">created_at </text>
<text text-anchor="start" x="500.15" y="-147.8" font-family="Arial" font-size="14.00" fill="#666666">[timestamp(6) without time zone]</text>
<polygon fill="none" stroke="black" points="423.1,-104.8 423.1,-135.6 787.04,-135.6 787.04,-104.8 423.1,-104.8"/>
<text text-anchor="start" x="430.1" y="-117" font-family="Arial" font-size="14.00">checklist_response_id </text>
<text text-anchor="start" x="571.73" y="-117" font-family="Arial" font-size="14.00" fill="#666666">[bigint]</text>
<polygon fill="none" stroke="black" points="423.1,-74 423.1,-104.8 787.04,-104.8 787.04,-74 423.1,-74"/>
<text text-anchor="start" x="430.1" y="-86.2" font-family="Arial" font-size="14.00">dam_id </text>
<text text-anchor="start" x="479.91" y="-86.2" font-family="Arial" font-size="14.00" fill="#666666">[bigint]</text>
<polygon fill="none" stroke="black" points="423.1,-43.2 423.1,-74 787.04,-74 787.04,-43.2 423.1,-43.2"/>
<text text-anchor="start" x="430.1" y="-55.4" font-family="Arial" font-size="14.00">template_questionnaire_id </text>
<text text-anchor="start" x="598.22" y="-55.4" font-family="Arial" font-size="14.00" fill="#666666">[bigint]</text>
</g>
<!-- public.answers&#45;&gt;public.questionnaire_responses -->
<g id="edge4" class="edge">
<title>public.answers:questionnaire_response_id&#45;&gt;public.questionnaire_responses:id</title>
<path fill="none" stroke="black" d="M532.1,-370.94C545.43,-361.74 534.42,-330.84 521.05,-312 494.2,-274.18 449.84,-313.89 423.1,-276 398.96,-241.79 380.23,-181.8 422.1,-181.8"/>
<polygon fill="black" stroke="black" points="532.04,-370.95 521.22,-369.16 526.88,-372.32 522.7,-373.43 522.7,-373.43 522.7,-373.43 526.88,-372.32 523.53,-377.86 532.04,-370.95"/>
<text text-anchor="start" x="529.05" y="-383.6" font-family="Arial" font-size="10.00">FOREIGN KEY (questionnaire_response_id) REFERENCES questionnaire_responses(id)</text>
</g>
<!-- public.answer_options -->
<g id="node2" class="node">
<title>public.answer_options</title>
<polygon fill="#efefef" stroke="none" points="46.59,-781 46.59,-816.6 347.55,-816.6 347.55,-781 46.59,-781"/>
<polygon fill="none" stroke="black" points="46.59,-781 46.59,-816.6 347.55,-816.6 347.55,-781 46.59,-781"/>
<text text-anchor="start" x="53.59" y="-794.4" font-family="Arial Bold" font-size="18.00">public.answer_options</text>
<text text-anchor="start" x="216.06" y="-794.4" font-family="Arial" font-size="14.00">    </text>
<text text-anchor="start" x="247.18" y="-794.4" font-family="Arial" font-size="14.00" fill="#666666">[BASE TABLE]</text>
<polygon fill="none" stroke="black" points="46.59,-750.2 46.59,-781 347.55,-781 347.55,-750.2 46.59,-750.2"/>
<text text-anchor="start" x="53.59" y="-762.4" font-family="Arial" font-size="14.00">answer_id </text>
<text text-anchor="start" x="121.29" y="-762.4" font-family="Arial" font-size="14.00" fill="#666666">[bigint]</text>
<polygon fill="none" stroke="black" points="46.59,-719.4 46.59,-750.2 347.55,-750.2 347.55,-719.4 46.59,-719.4"/>
<text text-anchor="start" x="53.59" y="-731.6" font-family="Arial" font-size="14.00">option_id </text>
<text text-anchor="start" x="114.3" y="-731.6" font-family="Arial" font-size="14.00" fill="#666666">[bigint]</text>
</g>
<!-- public.answer_options&#45;&gt;public.answers -->
<g id="edge1" class="edge">
<title>public.answer_options:answer_id&#45;&gt;public.answers:id</title>
<path fill="none" stroke="black" d="M358.81,-764C383.8,-754.79 364.12,-707.82 347.55,-676.2 329.23,-641.22 293.39,-659.79 275.09,-624.8 255.06,-586.52 230.89,-527.6 274.09,-527.6"/>
<polygon fill="black" stroke="black" points="358.76,-764.01 348.19,-761.1 353.49,-764.83 349.21,-765.5 349.21,-765.5 349.21,-765.5 353.49,-764.83 349.58,-769.99 358.76,-764.01"/>
<text text-anchor="start" x="355.55" y="-775.6" font-family="Arial" font-size="10.00">FOREIGN KEY (answer_id) REFERENCES answers(id)</text>
</g>
<!-- public.answer_photos -->
<g id="node3" class="node">
<title>public.answer_photos</title>
<polygon fill="#efefef" stroke="none" points="452.09,-796.4 452.09,-832 748.05,-832 748.05,-796.4 452.09,-796.4"/>
<polygon fill="none" stroke="black" points="452.09,-796.4 452.09,-832 748.05,-832 748.05,-796.4 452.09,-796.4"/>
<text text-anchor="start" x="459.09" y="-809.8" font-family="Arial Bold" font-size="18.00">public.answer_photos</text>
<text text-anchor="start" x="616.56" y="-809.8" font-family="Arial" font-size="14.00">    </text>
<text text-anchor="start" x="647.68" y="-809.8" font-family="Arial" font-size="14.00" fill="#666666">[BASE TABLE]</text>
<polygon fill="none" stroke="black" points="452.09,-765.6 452.09,-796.4 748.05,-796.4 748.05,-765.6 452.09,-765.6"/>
<text text-anchor="start" x="459.09" y="-777.8" font-family="Arial" font-size="14.00">id </text>
<text text-anchor="start" x="473.87" y="-777.8" font-family="Arial" font-size="14.00" fill="#666666">[bigint]</text>
<polygon fill="none" stroke="black" points="452.09,-734.8 452.09,-765.6 748.05,-765.6 748.05,-734.8 452.09,-734.8"/>
<text text-anchor="start" x="459.09" y="-747" font-family="Arial" font-size="14.00">image_path </text>
<text text-anchor="start" x="536.14" y="-747" font-family="Arial" font-size="14.00" fill="#666666">[varchar(255)]</text>
<polygon fill="none" stroke="black" points="452.09,-704 452.09,-734.8 748.05,-734.8 748.05,-704 452.09,-704"/>
<text text-anchor="start" x="459.09" y="-716.2" font-family="Arial" font-size="14.00">answer_id </text>
<text text-anchor="start" x="526.79" y="-716.2" font-family="Arial" font-size="14.00" fill="#666666">[bigint]</text>
</g>
<!-- public.answer_photos&#45;&gt;public.answers -->
<g id="edge2" class="edge">
<title>public.answer_photos:answer_id&#45;&gt;public.answers:id</title>
<path fill="none" stroke="black" d="M441.28,-716.68C429.43,-707.83 440.64,-679.32 452.09,-660.8 470.26,-631.39 502.98,-654.28 521.05,-624.8 543.63,-587.97 565.25,-527.6 522.05,-527.6"/>
<polygon fill="black" stroke="black" points="441.13,-716.64 449.56,-723.65 446.27,-718.06 450.44,-719.22 450.44,-719.22 450.44,-719.22 446.27,-718.06 451.97,-714.97 441.13,-716.64"/>
<text text-anchor="start" x="458.09" y="-729.4" font-family="Arial" font-size="10.00">FOREIGN KEY (answer_id) REFERENCES answers(id)</text>
</g>
</g>
</svg>
