<?xml version="1.0" encoding="UTF-8" standalone="no"?>
<!DOCTYPE svg PUBLIC "-//W3C//DTD SVG 1.1//EN"
 "http://www.w3.org/Graphics/SVG/1.1/DTD/svg11.dtd">
<!-- Generated by graphviz version 12.1.2 (20240928.0832)
 -->
<!-- Title: public.classification_dams Pages: 1 -->
<svg width="733pt" height="787pt"
 viewBox="0.00 0.00 733.02 786.80" xmlns="http://www.w3.org/2000/svg" xmlns:xlink="http://www.w3.org/1999/xlink">
<g id="graph0" class="graph" transform="scale(1 1) rotate(0) translate(4 782.8)">
<title>public.classification_dams</title>
<polygon fill="white" stroke="none" points="-4,4 -4,-782.8 729.02,-782.8 729.02,4 -4,4"/>
<!-- public.classification_dams -->
<g id="node1" class="node">
<title>public.classification_dams</title>
<polygon fill="#efefef" stroke="none" points="46.2,-107.8 46.2,-143.4 376.14,-143.4 376.14,-107.8 46.2,-107.8"/>
<polygon fill="none" stroke="black" points="46.2,-107.8 46.2,-143.4 376.14,-143.4 376.14,-107.8 46.2,-107.8"/>
<text text-anchor="start" x="53.2" y="-121.2" font-family="Arial Bold" font-size="18.00">public.classification_dams</text>
<text text-anchor="start" x="244.65" y="-121.2" font-family="Arial" font-size="14.00">    </text>
<text text-anchor="start" x="275.77" y="-121.2" font-family="Arial" font-size="14.00" fill="#666666">[BASE TABLE]</text>
<polygon fill="none" stroke="black" points="46.2,-77 46.2,-107.8 376.14,-107.8 376.14,-77 46.2,-77"/>
<text text-anchor="start" x="53.2" y="-89.2" font-family="Arial" font-size="14.00">id </text>
<text text-anchor="start" x="67.99" y="-89.2" font-family="Arial" font-size="14.00" fill="#666666">[bigint]</text>
<polygon fill="none" stroke="black" points="46.2,-46.2 46.2,-77 376.14,-77 376.14,-46.2 46.2,-46.2"/>
<text text-anchor="start" x="53.2" y="-58.4" font-family="Arial" font-size="14.00">classification </text>
<text text-anchor="start" x="136.45" y="-58.4" font-family="Arial" font-size="14.00" fill="#666666">[varchar(255)]</text>
<polygon fill="none" stroke="black" stroke-width="3" points="44.7,-44.7 44.7,-144.9 377.64,-144.9 377.64,-44.7 44.7,-44.7"/>
</g>
<!-- public.regulatory_dam -->
<g id="node2" class="node">
<title>public.regulatory_dam</title>
<polygon fill="#efefef" stroke="none" points="60.2,-700 60.2,-735.6 362.14,-735.6 362.14,-700 60.2,-700"/>
<polygon fill="none" stroke="black" points="60.2,-700 60.2,-735.6 362.14,-735.6 362.14,-700 60.2,-700"/>
<text text-anchor="start" x="67.2" y="-713.4" font-family="Arial Bold" font-size="18.00">public.regulatory_dam</text>
<text text-anchor="start" x="230.65" y="-713.4" font-family="Arial" font-size="14.00">    </text>
<text text-anchor="start" x="261.77" y="-713.4" font-family="Arial" font-size="14.00" fill="#666666">[BASE TABLE]</text>
<polygon fill="none" stroke="black" points="60.2,-669.2 60.2,-700 362.14,-700 362.14,-669.2 60.2,-669.2"/>
<text text-anchor="start" x="67.2" y="-681.4" font-family="Arial" font-size="14.00">id </text>
<text text-anchor="start" x="81.99" y="-681.4" font-family="Arial" font-size="14.00" fill="#666666">[bigint]</text>
<polygon fill="none" stroke="black" points="60.2,-638.4 60.2,-669.2 362.14,-669.2 362.14,-638.4 60.2,-638.4"/>
<text text-anchor="start" x="67.2" y="-650.6" font-family="Arial" font-size="14.00">frame_pnsb </text>
<text text-anchor="start" x="145.02" y="-650.6" font-family="Arial" font-size="14.00" fill="#666666">[boolean]</text>
<polygon fill="none" stroke="black" points="60.2,-607.6 60.2,-638.4 362.14,-638.4 362.14,-607.6 60.2,-607.6"/>
<text text-anchor="start" x="67.2" y="-619.8" font-family="Arial" font-size="14.00">representative_email </text>
<text text-anchor="start" x="201.05" y="-619.8" font-family="Arial" font-size="14.00" fill="#666666">[varchar(255)]</text>
<polygon fill="none" stroke="black" points="60.2,-576.8 60.2,-607.6 362.14,-607.6 362.14,-576.8 60.2,-576.8"/>
<text text-anchor="start" x="67.2" y="-589" font-family="Arial" font-size="14.00">representative_name </text>
<text text-anchor="start" x="202.61" y="-589" font-family="Arial" font-size="14.00" fill="#666666">[varchar(255)]</text>
<polygon fill="none" stroke="black" points="60.2,-546 60.2,-576.8 362.14,-576.8 362.14,-546 60.2,-546"/>
<text text-anchor="start" x="67.2" y="-558.2" font-family="Arial" font-size="14.00">representative_phone </text>
<text text-anchor="start" x="206.52" y="-558.2" font-family="Arial" font-size="14.00" fill="#666666">[varchar(255)]</text>
<polygon fill="none" stroke="black" points="60.2,-515.2 60.2,-546 362.14,-546 362.14,-515.2 60.2,-515.2"/>
<text text-anchor="start" x="67.2" y="-527.4" font-family="Arial" font-size="14.00">supervisory_body_name </text>
<text text-anchor="start" x="223.62" y="-527.4" font-family="Arial" font-size="14.00" fill="#666666">[varchar(255)]</text>
<polygon fill="none" stroke="black" points="60.2,-484.4 60.2,-515.2 362.14,-515.2 362.14,-484.4 60.2,-484.4"/>
<text text-anchor="start" x="67.2" y="-496.6" font-family="Arial" font-size="14.00">technical_manager_email </text>
<text text-anchor="start" x="230.63" y="-496.6" font-family="Arial" font-size="14.00" fill="#666666">[varchar(255)]</text>
<polygon fill="none" stroke="black" points="60.2,-453.6 60.2,-484.4 362.14,-484.4 362.14,-453.6 60.2,-453.6"/>
<text text-anchor="start" x="67.2" y="-465.8" font-family="Arial" font-size="14.00">technical_manager_name </text>
<text text-anchor="start" x="232.19" y="-465.8" font-family="Arial" font-size="14.00" fill="#666666">[varchar(255)]</text>
<polygon fill="none" stroke="black" points="60.2,-422.8 60.2,-453.6 362.14,-453.6 362.14,-422.8 60.2,-422.8"/>
<text text-anchor="start" x="67.2" y="-435" font-family="Arial" font-size="14.00">technical_manager_phone </text>
<text text-anchor="start" x="236.1" y="-435" font-family="Arial" font-size="14.00" fill="#666666">[varchar(255)]</text>
<polygon fill="none" stroke="black" points="60.2,-392 60.2,-422.8 362.14,-422.8 362.14,-392 60.2,-392"/>
<text text-anchor="start" x="67.2" y="-404.2" font-family="Arial" font-size="14.00">classification_dam_id </text>
<text text-anchor="start" x="204.16" y="-404.2" font-family="Arial" font-size="14.00" fill="#666666">[bigint]</text>
<polygon fill="none" stroke="black" points="60.2,-361.2 60.2,-392 362.14,-392 362.14,-361.2 60.2,-361.2"/>
<text text-anchor="start" x="67.2" y="-373.4" font-family="Arial" font-size="14.00">dam_id </text>
<text text-anchor="start" x="117.01" y="-373.4" font-family="Arial" font-size="14.00" fill="#666666">[bigint]</text>
<polygon fill="none" stroke="black" points="60.2,-330.4 60.2,-361.2 362.14,-361.2 362.14,-330.4 60.2,-330.4"/>
<text text-anchor="start" x="67.2" y="-342.6" font-family="Arial" font-size="14.00">potential_damage_id </text>
<text text-anchor="start" x="201.08" y="-342.6" font-family="Arial" font-size="14.00" fill="#666666">[bigint]</text>
<polygon fill="none" stroke="black" points="60.2,-299.6 60.2,-330.4 362.14,-330.4 362.14,-299.6 60.2,-299.6"/>
<text text-anchor="start" x="67.2" y="-311.8" font-family="Arial" font-size="14.00">risk_category_id </text>
<text text-anchor="start" x="173.03" y="-311.8" font-family="Arial" font-size="14.00" fill="#666666">[bigint]</text>
<polygon fill="none" stroke="black" points="60.2,-268.8 60.2,-299.6 362.14,-299.6 362.14,-268.8 60.2,-268.8"/>
<text text-anchor="start" x="67.2" y="-281" font-family="Arial" font-size="14.00">security_level_id </text>
<text text-anchor="start" x="174.59" y="-281" font-family="Arial" font-size="14.00" fill="#666666">[bigint]</text>
</g>
<!-- public.regulatory_dam&#45;&gt;public.classification_dams -->
<g id="edge1" class="edge">
<title>public.regulatory_dam:classification_dam_id&#45;&gt;public.classification_dams:id</title>
<path fill="none" stroke="black" d="M373,-405.22C434.38,-377.39 443.79,-92.4 377.14,-92.4"/>
<polygon fill="black" stroke="black" points="373.23,-405.17 362.5,-402.93 368.02,-406.32 363.79,-407.26 363.79,-407.26 363.79,-407.26 368.02,-406.32 364.44,-411.72 373.23,-405.17"/>
<text text-anchor="start" x="370.14" y="-417.4" font-family="Arial" font-size="10.00">FOREIGN KEY (classification_dam_id) REFERENCES classification_dams(id)</text>
</g>
</g>
</svg>
