<?xml version="1.0" encoding="UTF-8" standalone="no"?>
<!DOCTYPE svg PUBLIC "-//W3C//DTD SVG 1.1//EN"
 "http://www.w3.org/Graphics/SVG/1.1/DTD/svg11.dtd">
<!-- Generated by graphviz version 12.1.2 (20240928.0832)
 -->
<!-- Title: public.measurement_unit Pages: 1 -->
<svg width="1158pt" height="633pt"
 viewBox="0.00 0.00 1158.26 632.80" xmlns="http://www.w3.org/2000/svg" xmlns:xlink="http://www.w3.org/1999/xlink">
<g id="graph0" class="graph" transform="scale(1 1) rotate(0) translate(4 628.8)">
<title>public.measurement_unit</title>
<polygon fill="white" stroke="none" points="-4,4 -4,-628.8 1154.26,-628.8 1154.26,4 -4,4"/>
<!-- public.measurement_unit -->
<g id="node1" class="node">
<title>public.measurement_unit</title>
<polygon fill="#efefef" stroke="none" points="414.66,-138.6 414.66,-174.2 735.6,-174.2 735.6,-138.6 414.66,-138.6"/>
<polygon fill="none" stroke="black" points="414.66,-138.6 414.66,-174.2 735.6,-174.2 735.6,-138.6 414.66,-138.6"/>
<text text-anchor="start" x="421.66" y="-152" font-family="Arial Bold" font-size="18.00">public.measurement_unit</text>
<text text-anchor="start" x="604.12" y="-152" font-family="Arial" font-size="14.00">    </text>
<text text-anchor="start" x="635.23" y="-152" font-family="Arial" font-size="14.00" fill="#666666">[BASE TABLE]</text>
<polygon fill="none" stroke="black" points="414.66,-107.8 414.66,-138.6 735.6,-138.6 735.6,-107.8 414.66,-107.8"/>
<text text-anchor="start" x="421.66" y="-120" font-family="Arial" font-size="14.00">id </text>
<text text-anchor="start" x="436.45" y="-120" font-family="Arial" font-size="14.00" fill="#666666">[bigint]</text>
<polygon fill="none" stroke="black" points="414.66,-77 414.66,-107.8 735.6,-107.8 735.6,-77 414.66,-77"/>
<text text-anchor="start" x="421.66" y="-89.2" font-family="Arial" font-size="14.00">acronym </text>
<text text-anchor="start" x="479.24" y="-89.2" font-family="Arial" font-size="14.00" fill="#666666">[varchar(255)]</text>
<polygon fill="none" stroke="black" points="414.66,-46.2 414.66,-77 735.6,-77 735.6,-46.2 414.66,-46.2"/>
<text text-anchor="start" x="421.66" y="-58.4" font-family="Arial" font-size="14.00">name </text>
<text text-anchor="start" x="460.57" y="-58.4" font-family="Arial" font-size="14.00" fill="#666666">[varchar(255)]</text>
<polygon fill="none" stroke="black" stroke-width="3" points="413.16,-44.7 413.16,-175.7 737.1,-175.7 737.1,-44.7 413.16,-44.7"/>
</g>
<!-- public.constant -->
<g id="node2" class="node">
<title>public.constant</title>
<polygon fill="#efefef" stroke="none" points="110.15,-530.6 110.15,-566.2 358.12,-566.2 358.12,-530.6 110.15,-530.6"/>
<polygon fill="none" stroke="black" points="110.15,-530.6 110.15,-566.2 358.12,-566.2 358.12,-530.6 110.15,-530.6"/>
<text text-anchor="start" x="117.15" y="-544" font-family="Arial Bold" font-size="18.00">public.constant</text>
<text text-anchor="start" x="226.63" y="-544" font-family="Arial" font-size="14.00">    </text>
<text text-anchor="start" x="257.75" y="-544" font-family="Arial" font-size="14.00" fill="#666666">[BASE TABLE]</text>
<polygon fill="none" stroke="black" points="110.15,-499.8 110.15,-530.6 358.12,-530.6 358.12,-499.8 110.15,-499.8"/>
<text text-anchor="start" x="117.15" y="-512" font-family="Arial" font-size="14.00">id </text>
<text text-anchor="start" x="131.94" y="-512" font-family="Arial" font-size="14.00" fill="#666666">[bigint]</text>
<polygon fill="none" stroke="black" points="110.15,-469 110.15,-499.8 358.12,-499.8 358.12,-469 110.15,-469"/>
<text text-anchor="start" x="117.15" y="-481.2" font-family="Arial" font-size="14.00">acronym </text>
<text text-anchor="start" x="174.72" y="-481.2" font-family="Arial" font-size="14.00" fill="#666666">[varchar(255)]</text>
<polygon fill="none" stroke="black" points="110.15,-438.2 110.15,-469 358.12,-469 358.12,-438.2 110.15,-438.2"/>
<text text-anchor="start" x="117.15" y="-450.4" font-family="Arial" font-size="14.00">name </text>
<text text-anchor="start" x="156.06" y="-450.4" font-family="Arial" font-size="14.00" fill="#666666">[varchar(255)]</text>
<polygon fill="none" stroke="black" points="110.15,-407.4 110.15,-438.2 358.12,-438.2 358.12,-407.4 110.15,-407.4"/>
<text text-anchor="start" x="117.15" y="-419.6" font-family="Arial" font-size="14.00">precision </text>
<text text-anchor="start" x="177.07" y="-419.6" font-family="Arial" font-size="14.00" fill="#666666">[integer]</text>
<polygon fill="none" stroke="black" points="110.15,-376.6 110.15,-407.4 358.12,-407.4 358.12,-376.6 110.15,-376.6"/>
<text text-anchor="start" x="117.15" y="-388.8" font-family="Arial" font-size="14.00">value </text>
<text text-anchor="start" x="154.51" y="-388.8" font-family="Arial" font-size="14.00" fill="#666666">[double precision]</text>
<polygon fill="none" stroke="black" points="110.15,-345.8 110.15,-376.6 358.12,-376.6 358.12,-345.8 110.15,-345.8"/>
<text text-anchor="start" x="117.15" y="-358" font-family="Arial" font-size="14.00">instrument_id </text>
<text text-anchor="start" x="205.08" y="-358" font-family="Arial" font-size="14.00" fill="#666666">[bigint]</text>
<polygon fill="none" stroke="black" points="110.15,-315 110.15,-345.8 358.12,-345.8 358.12,-315 110.15,-315"/>
<text text-anchor="start" x="117.15" y="-327.2" font-family="Arial" font-size="14.00">measurement_unit_id </text>
<text text-anchor="start" x="255.67" y="-327.2" font-family="Arial" font-size="14.00" fill="#666666">[bigint]</text>
</g>
<!-- public.constant&#45;&gt;public.measurement_unit -->
<g id="edge1" class="edge">
<title>public.constant:measurement_unit_id&#45;&gt;public.measurement_unit:id</title>
<path fill="none" stroke="black" d="M369.25,-329.48C444.08,-314.53 322.16,-123.2 413.66,-123.2"/>
<polygon fill="black" stroke="black" points="369.41,-329.46 359.04,-325.89 364.1,-329.95 359.78,-330.34 359.78,-330.34 359.78,-330.34 364.1,-329.95 359.86,-334.85 369.41,-329.46"/>
<text text-anchor="start" x="7" y="-340.4" font-family="Arial" font-size="10.00">FOREIGN KEY (measurement_unit_id) REFERENCES measurement_unit(id)</text>
</g>
<!-- public.input -->
<g id="node3" class="node">
<title>public.input</title>
<polygon fill="#efefef" stroke="none" points="462.64,-515.2 462.64,-550.8 687.63,-550.8 687.63,-515.2 462.64,-515.2"/>
<polygon fill="none" stroke="black" points="462.64,-515.2 462.64,-550.8 687.63,-550.8 687.63,-515.2 462.64,-515.2"/>
<text text-anchor="start" x="469.64" y="-528.6" font-family="Arial Bold" font-size="18.00">public.input</text>
<text text-anchor="start" x="556.14" y="-528.6" font-family="Arial" font-size="14.00">    </text>
<text text-anchor="start" x="587.25" y="-528.6" font-family="Arial" font-size="14.00" fill="#666666">[BASE TABLE]</text>
<polygon fill="none" stroke="black" points="462.64,-484.4 462.64,-515.2 687.63,-515.2 687.63,-484.4 462.64,-484.4"/>
<text text-anchor="start" x="469.64" y="-496.6" font-family="Arial" font-size="14.00">id </text>
<text text-anchor="start" x="484.43" y="-496.6" font-family="Arial" font-size="14.00" fill="#666666">[bigint]</text>
<polygon fill="none" stroke="black" points="462.64,-453.6 462.64,-484.4 687.63,-484.4 687.63,-453.6 462.64,-453.6"/>
<text text-anchor="start" x="469.64" y="-465.8" font-family="Arial" font-size="14.00">acronym </text>
<text text-anchor="start" x="527.22" y="-465.8" font-family="Arial" font-size="14.00" fill="#666666">[varchar(255)]</text>
<polygon fill="none" stroke="black" points="462.64,-422.8 462.64,-453.6 687.63,-453.6 687.63,-422.8 462.64,-422.8"/>
<text text-anchor="start" x="469.64" y="-435" font-family="Arial" font-size="14.00">name </text>
<text text-anchor="start" x="508.55" y="-435" font-family="Arial" font-size="14.00" fill="#666666">[varchar(255)]</text>
<polygon fill="none" stroke="black" points="462.64,-392 462.64,-422.8 687.63,-422.8 687.63,-392 462.64,-392"/>
<text text-anchor="start" x="469.64" y="-404.2" font-family="Arial" font-size="14.00">precision </text>
<text text-anchor="start" x="529.56" y="-404.2" font-family="Arial" font-size="14.00" fill="#666666">[integer]</text>
<polygon fill="none" stroke="black" points="462.64,-361.2 462.64,-392 687.63,-392 687.63,-361.2 462.64,-361.2"/>
<text text-anchor="start" x="469.64" y="-373.4" font-family="Arial" font-size="14.00">instrument_id </text>
<text text-anchor="start" x="557.57" y="-373.4" font-family="Arial" font-size="14.00" fill="#666666">[bigint]</text>
<polygon fill="none" stroke="black" points="462.64,-330.4 462.64,-361.2 687.63,-361.2 687.63,-330.4 462.64,-330.4"/>
<text text-anchor="start" x="469.64" y="-342.6" font-family="Arial" font-size="14.00">measurement_unit_id </text>
<text text-anchor="start" x="608.17" y="-342.6" font-family="Arial" font-size="14.00" fill="#666666">[bigint]</text>
</g>
<!-- public.input&#45;&gt;public.measurement_unit -->
<g id="edge2" class="edge">
<title>public.input:measurement_unit_id&#45;&gt;public.measurement_unit:id</title>
<path fill="none" stroke="black" d="M575.78,-319.04C585.28,-247.52 696.61,-293.12 735.6,-220.4 756.02,-182.33 779.81,-123.2 736.6,-123.2"/>
<polygon fill="black" stroke="black" points="575.78,-319.09 570.66,-328.79 575.45,-324.41 575.18,-328.73 575.18,-328.73 575.18,-328.73 575.45,-324.41 579.65,-329.35 575.78,-319.09"/>
<text text-anchor="start" x="582.13" y="-339.4" font-family="Arial" font-size="10.00">FOREIGN KEY (measurement_unit_id) REFERENCES measurement_unit(id)</text>
</g>
<!-- public.output -->
<g id="node4" class="node">
<title>public.output</title>
<polygon fill="#efefef" stroke="none" points="792.14,-546 792.14,-581.6 1026.13,-581.6 1026.13,-546 792.14,-546"/>
<polygon fill="none" stroke="black" points="792.14,-546 792.14,-581.6 1026.13,-581.6 1026.13,-546 792.14,-546"/>
<text text-anchor="start" x="799.14" y="-559.4" font-family="Arial Bold" font-size="18.00">public.output</text>
<text text-anchor="start" x="894.64" y="-559.4" font-family="Arial" font-size="14.00">    </text>
<text text-anchor="start" x="925.75" y="-559.4" font-family="Arial" font-size="14.00" fill="#666666">[BASE TABLE]</text>
<polygon fill="none" stroke="black" points="792.14,-515.2 792.14,-546 1026.13,-546 1026.13,-515.2 792.14,-515.2"/>
<text text-anchor="start" x="799.14" y="-527.4" font-family="Arial" font-size="14.00">id </text>
<text text-anchor="start" x="813.93" y="-527.4" font-family="Arial" font-size="14.00" fill="#666666">[bigint]</text>
<polygon fill="none" stroke="black" points="792.14,-484.4 792.14,-515.2 1026.13,-515.2 1026.13,-484.4 792.14,-484.4"/>
<text text-anchor="start" x="799.14" y="-496.6" font-family="Arial" font-size="14.00">acronym </text>
<text text-anchor="start" x="856.72" y="-496.6" font-family="Arial" font-size="14.00" fill="#666666">[varchar(255)]</text>
<polygon fill="none" stroke="black" points="792.14,-453.6 792.14,-484.4 1026.13,-484.4 1026.13,-453.6 792.14,-453.6"/>
<text text-anchor="start" x="799.14" y="-465.8" font-family="Arial" font-size="14.00">active </text>
<text text-anchor="start" x="839.6" y="-465.8" font-family="Arial" font-size="14.00" fill="#666666">[boolean]</text>
<polygon fill="none" stroke="black" points="792.14,-422.8 792.14,-453.6 1026.13,-453.6 1026.13,-422.8 792.14,-422.8"/>
<text text-anchor="start" x="799.14" y="-435" font-family="Arial" font-size="14.00">equation </text>
<text text-anchor="start" x="856.75" y="-435" font-family="Arial" font-size="14.00" fill="#666666">[text]</text>
<polygon fill="none" stroke="black" points="792.14,-392 792.14,-422.8 1026.13,-422.8 1026.13,-392 792.14,-392"/>
<text text-anchor="start" x="799.14" y="-404.2" font-family="Arial" font-size="14.00">name </text>
<text text-anchor="start" x="838.05" y="-404.2" font-family="Arial" font-size="14.00" fill="#666666">[varchar(255)]</text>
<polygon fill="none" stroke="black" points="792.14,-361.2 792.14,-392 1026.13,-392 1026.13,-361.2 792.14,-361.2"/>
<text text-anchor="start" x="799.14" y="-373.4" font-family="Arial" font-size="14.00">precision </text>
<text text-anchor="start" x="859.06" y="-373.4" font-family="Arial" font-size="14.00" fill="#666666">[integer]</text>
<polygon fill="none" stroke="black" points="792.14,-330.4 792.14,-361.2 1026.13,-361.2 1026.13,-330.4 792.14,-330.4"/>
<text text-anchor="start" x="799.14" y="-342.6" font-family="Arial" font-size="14.00">instrument_id </text>
<text text-anchor="start" x="887.07" y="-342.6" font-family="Arial" font-size="14.00" fill="#666666">[bigint]</text>
<polygon fill="none" stroke="black" points="792.14,-299.6 792.14,-330.4 1026.13,-330.4 1026.13,-299.6 792.14,-299.6"/>
<text text-anchor="start" x="799.14" y="-311.8" font-family="Arial" font-size="14.00">measurement_unit_id </text>
<text text-anchor="start" x="937.67" y="-311.8" font-family="Arial" font-size="14.00" fill="#666666">[bigint]</text>
</g>
<!-- public.output&#45;&gt;public.measurement_unit -->
<g id="edge3" class="edge">
<title>public.output:measurement_unit_id&#45;&gt;public.measurement_unit:id</title>
<path fill="none" stroke="black" d="M780.86,-313.97C712.67,-298.87 821.42,-123.2 736.6,-123.2"/>
<polygon fill="black" stroke="black" points="780.86,-313.97 790.36,-319.44 786.17,-314.5 790.48,-314.93 790.48,-314.93 790.48,-314.93 786.17,-314.5 791.26,-310.49 780.86,-313.97"/>
<text text-anchor="start" x="798.14" y="-299" font-family="Arial" font-size="10.00">FOREIGN KEY (measurement_unit_id) REFERENCES measurement_unit(id)</text>
</g>
</g>
</svg>
