<?xml version="1.0" encoding="UTF-8" standalone="no"?>
<!DOCTYPE svg PUBLIC "-//W3C//DTD SVG 1.1//EN"
 "http://www.w3.org/Graphics/SVG/1.1/DTD/svg11.dtd">
<!-- Generated by graphviz version 12.1.2 (20240928.0832)
 -->
<!-- Title: public.checklist_responses Pages: 1 -->
<svg width="958pt" height="1284pt"
 viewBox="0.00 0.00 958.38 1283.60" xmlns="http://www.w3.org/2000/svg" xmlns:xlink="http://www.w3.org/1999/xlink">
<g id="graph0" class="graph" transform="scale(1 1) rotate(0) translate(4 1279.6)">
<title>public.checklist_responses</title>
<polygon fill="white" stroke="none" points="-4,4 -4,-1279.6 954.38,-1279.6 954.38,4 -4,4"/>
<!-- public.checklist_responses -->
<g id="node1" class="node">
<title>public.checklist_responses</title>
<polygon fill="#efefef" stroke="none" points="233.38,-881.8 233.38,-917.4 564.32,-917.4 564.32,-881.8 233.38,-881.8"/>
<polygon fill="none" stroke="black" points="233.38,-881.8 233.38,-917.4 564.32,-917.4 564.32,-881.8 233.38,-881.8"/>
<text text-anchor="start" x="240.38" y="-895.2" font-family="Arial Bold" font-size="18.00">public.checklist_responses</text>
<text text-anchor="start" x="432.83" y="-895.2" font-family="Arial" font-size="14.00">    </text>
<text text-anchor="start" x="463.95" y="-895.2" font-family="Arial" font-size="14.00" fill="#666666">[BASE TABLE]</text>
<polygon fill="none" stroke="black" points="233.38,-851 233.38,-881.8 564.32,-881.8 564.32,-851 233.38,-851"/>
<text text-anchor="start" x="240.38" y="-863.2" font-family="Arial" font-size="14.00">id </text>
<text text-anchor="start" x="255.17" y="-863.2" font-family="Arial" font-size="14.00" fill="#666666">[bigint]</text>
<polygon fill="none" stroke="black" points="233.38,-820.2 233.38,-851 564.32,-851 564.32,-820.2 233.38,-820.2"/>
<text text-anchor="start" x="240.38" y="-832.4" font-family="Arial" font-size="14.00">checklist_id </text>
<text text-anchor="start" x="316.63" y="-832.4" font-family="Arial" font-size="14.00" fill="#666666">[bigint]</text>
<polygon fill="none" stroke="black" points="233.38,-789.4 233.38,-820.2 564.32,-820.2 564.32,-789.4 233.38,-789.4"/>
<text text-anchor="start" x="240.38" y="-801.6" font-family="Arial" font-size="14.00">checklist_name </text>
<text text-anchor="start" x="340.76" y="-801.6" font-family="Arial" font-size="14.00" fill="#666666">[varchar(255)]</text>
<polygon fill="none" stroke="black" points="233.38,-758.6 233.38,-789.4 564.32,-789.4 564.32,-758.6 233.38,-758.6"/>
<text text-anchor="start" x="240.38" y="-770.8" font-family="Arial" font-size="14.00">created_at </text>
<text text-anchor="start" x="310.43" y="-770.8" font-family="Arial" font-size="14.00" fill="#666666">[timestamp(6) without time zone]</text>
<polygon fill="none" stroke="black" points="233.38,-727.8 233.38,-758.6 564.32,-758.6 564.32,-727.8 233.38,-727.8"/>
<text text-anchor="start" x="240.38" y="-740" font-family="Arial" font-size="14.00">dam_id </text>
<text text-anchor="start" x="290.19" y="-740" font-family="Arial" font-size="14.00" fill="#666666">[bigint]</text>
<polygon fill="none" stroke="black" points="233.38,-697 233.38,-727.8 564.32,-727.8 564.32,-697 233.38,-697"/>
<text text-anchor="start" x="240.38" y="-709.2" font-family="Arial" font-size="14.00">user_id </text>
<text text-anchor="start" x="290.19" y="-709.2" font-family="Arial" font-size="14.00" fill="#666666">[bigint]</text>
<polygon fill="none" stroke="black" stroke-width="3" points="231.88,-695.5 231.88,-918.9 565.82,-918.9 565.82,-695.5 231.88,-695.5"/>
</g>
<!-- public.dam -->
<g id="node3" class="node">
<title>public.dam</title>
<polygon fill="#efefef" stroke="none" points="99.37,-536 99.37,-571.6 318.34,-571.6 318.34,-536 99.37,-536"/>
<polygon fill="none" stroke="black" points="99.37,-536 99.37,-571.6 318.34,-571.6 318.34,-536 99.37,-536"/>
<text text-anchor="start" x="106.37" y="-549.4" font-family="Arial Bold" font-size="18.00">public.dam</text>
<text text-anchor="start" x="186.85" y="-549.4" font-family="Arial" font-size="14.00">    </text>
<text text-anchor="start" x="217.96" y="-549.4" font-family="Arial" font-size="14.00" fill="#666666">[BASE TABLE]</text>
<polygon fill="none" stroke="black" points="99.37,-505.2 99.37,-536 318.34,-536 318.34,-505.2 99.37,-505.2"/>
<text text-anchor="start" x="106.37" y="-517.4" font-family="Arial" font-size="14.00">id </text>
<text text-anchor="start" x="121.15" y="-517.4" font-family="Arial" font-size="14.00" fill="#666666">[bigint]</text>
<polygon fill="none" stroke="black" points="99.37,-474.4 99.37,-505.2 318.34,-505.2 318.34,-474.4 99.37,-474.4"/>
<text text-anchor="start" x="106.37" y="-486.6" font-family="Arial" font-size="14.00">city </text>
<text text-anchor="start" x="131.25" y="-486.6" font-family="Arial" font-size="14.00" fill="#666666">[varchar(100)]</text>
<polygon fill="none" stroke="black" points="99.37,-443.6 99.37,-474.4 318.34,-474.4 318.34,-443.6 99.37,-443.6"/>
<text text-anchor="start" x="106.37" y="-455.8" font-family="Arial" font-size="14.00">dam_image_path </text>
<text text-anchor="start" x="218.44" y="-455.8" font-family="Arial" font-size="14.00" fill="#666666">[varchar(255)]</text>
<polygon fill="none" stroke="black" points="99.37,-412.8 99.37,-443.6 318.34,-443.6 318.34,-412.8 99.37,-412.8"/>
<text text-anchor="start" x="106.37" y="-425" font-family="Arial" font-size="14.00">latitude </text>
<text text-anchor="start" x="155.4" y="-425" font-family="Arial" font-size="14.00" fill="#666666">[double precision]</text>
<polygon fill="none" stroke="black" points="99.37,-382 99.37,-412.8 318.34,-412.8 318.34,-382 99.37,-382"/>
<text text-anchor="start" x="106.37" y="-394.2" font-family="Arial" font-size="14.00">link_legislation </text>
<text text-anchor="start" x="201.31" y="-394.2" font-family="Arial" font-size="14.00" fill="#666666">[varchar(255)]</text>
<polygon fill="none" stroke="black" points="99.37,-351.2 99.37,-382 318.34,-382 318.34,-351.2 99.37,-351.2"/>
<text text-anchor="start" x="106.37" y="-363.4" font-family="Arial" font-size="14.00">linkpsb </text>
<text text-anchor="start" x="153.83" y="-363.4" font-family="Arial" font-size="14.00" fill="#666666">[varchar(255)]</text>
<polygon fill="none" stroke="black" points="99.37,-320.4 99.37,-351.2 318.34,-351.2 318.34,-320.4 99.37,-320.4"/>
<text text-anchor="start" x="106.37" y="-332.6" font-family="Arial" font-size="14.00">logo_path </text>
<text text-anchor="start" x="171.76" y="-332.6" font-family="Arial" font-size="14.00" fill="#666666">[varchar(255)]</text>
<polygon fill="none" stroke="black" points="99.37,-289.6 99.37,-320.4 318.34,-320.4 318.34,-289.6 99.37,-289.6"/>
<text text-anchor="start" x="106.37" y="-301.8" font-family="Arial" font-size="14.00">longitude </text>
<text text-anchor="start" x="167.08" y="-301.8" font-family="Arial" font-size="14.00" fill="#666666">[double precision]</text>
<polygon fill="none" stroke="black" points="99.37,-258.8 99.37,-289.6 318.34,-289.6 318.34,-258.8 99.37,-258.8"/>
<text text-anchor="start" x="106.37" y="-271" font-family="Arial" font-size="14.00">name </text>
<text text-anchor="start" x="145.28" y="-271" font-family="Arial" font-size="14.00" fill="#666666">[varchar(255)]</text>
<polygon fill="none" stroke="black" points="99.37,-228 99.37,-258.8 318.34,-258.8 318.34,-228 99.37,-228"/>
<text text-anchor="start" x="106.37" y="-240.2" font-family="Arial" font-size="14.00">neighborhood </text>
<text text-anchor="start" x="195.89" y="-240.2" font-family="Arial" font-size="14.00" fill="#666666">[varchar(100)]</text>
<polygon fill="none" stroke="black" points="99.37,-197.2 99.37,-228 318.34,-228 318.34,-197.2 99.37,-197.2"/>
<text text-anchor="start" x="106.37" y="-209.4" font-family="Arial" font-size="14.00">number_address </text>
<text text-anchor="start" x="215.32" y="-209.4" font-family="Arial" font-size="14.00" fill="#666666">[varchar(10)]</text>
<polygon fill="none" stroke="black" points="99.37,-166.4 99.37,-197.2 318.34,-197.2 318.34,-166.4 99.37,-166.4"/>
<text text-anchor="start" x="106.37" y="-178.6" font-family="Arial" font-size="14.00">state </text>
<text text-anchor="start" x="140.61" y="-178.6" font-family="Arial" font-size="14.00" fill="#666666">[varchar(100)]</text>
<polygon fill="none" stroke="black" points="99.37,-135.6 99.37,-166.4 318.34,-166.4 318.34,-135.6 99.37,-135.6"/>
<text text-anchor="start" x="106.37" y="-147.8" font-family="Arial" font-size="14.00">street </text>
<text text-anchor="start" x="145.27" y="-147.8" font-family="Arial" font-size="14.00" fill="#666666">[varchar(255)]</text>
<polygon fill="none" stroke="black" points="99.37,-104.8 99.37,-135.6 318.34,-135.6 318.34,-104.8 99.37,-104.8"/>
<text text-anchor="start" x="106.37" y="-117" font-family="Arial" font-size="14.00">zip_code </text>
<text text-anchor="start" x="166.3" y="-117" font-family="Arial" font-size="14.00" fill="#666666">[varchar(9)]</text>
<polygon fill="none" stroke="black" points="99.37,-74 99.37,-104.8 318.34,-104.8 318.34,-74 99.37,-74"/>
<text text-anchor="start" x="106.37" y="-86.2" font-family="Arial" font-size="14.00">client_id </text>
<text text-anchor="start" x="161.62" y="-86.2" font-family="Arial" font-size="14.00" fill="#666666">[bigint]</text>
<polygon fill="none" stroke="black" points="99.37,-43.2 99.37,-74 318.34,-74 318.34,-43.2 99.37,-43.2"/>
<text text-anchor="start" x="106.37" y="-55.4" font-family="Arial" font-size="14.00">status_id </text>
<text text-anchor="start" x="166.29" y="-55.4" font-family="Arial" font-size="14.00" fill="#666666">[bigint]</text>
</g>
<!-- public.checklist_responses&#45;&gt;public.dam -->
<g id="edge2" class="edge">
<title>public.checklist_responses:dam_id&#45;&gt;public.dam:id</title>
<path fill="none" stroke="black" d="M222.37,-741.73C194.94,-732.48 212.66,-681.72 233.38,-650.8 256.21,-616.73 295.51,-648.87 318.34,-614.8 341.64,-580.02 361.2,-520.6 319.34,-520.6"/>
<polygon fill="black" stroke="black" points="222.15,-741.7 231.39,-747.6 227.43,-742.47 231.72,-743.1 231.72,-743.1 231.72,-743.1 227.43,-742.47 232.7,-738.7 222.15,-741.7"/>
<text text-anchor="start" x="7" y="-753.2" font-family="Arial" font-size="10.00">FOREIGN KEY (dam_id) REFERENCES dam(id)</text>
</g>
<!-- public.users -->
<g id="node4" class="node">
<title>public.users</title>
<polygon fill="#efefef" stroke="none" points="422.55,-474.4 422.55,-510 757.15,-510 757.15,-474.4 422.55,-474.4"/>
<polygon fill="none" stroke="black" points="422.55,-474.4 422.55,-510 757.15,-510 757.15,-474.4 422.55,-474.4"/>
<text text-anchor="start" x="484.36" y="-487.8" font-family="Arial Bold" font-size="18.00">public.users</text>
<text text-anchor="start" x="570.85" y="-487.8" font-family="Arial" font-size="14.00">    </text>
<text text-anchor="start" x="601.97" y="-487.8" font-family="Arial" font-size="14.00" fill="#666666">[BASE TABLE]</text>
<polygon fill="none" stroke="black" points="422.55,-443.6 422.55,-474.4 757.15,-474.4 757.15,-443.6 422.55,-443.6"/>
<text text-anchor="start" x="429.55" y="-455.8" font-family="Arial" font-size="14.00">id </text>
<text text-anchor="start" x="444.34" y="-455.8" font-family="Arial" font-size="14.00" fill="#666666">[bigint]</text>
<polygon fill="none" stroke="black" points="422.55,-412.8 422.55,-443.6 757.15,-443.6 757.15,-412.8 422.55,-412.8"/>
<text text-anchor="start" x="429.55" y="-425" font-family="Arial" font-size="14.00">email </text>
<text text-anchor="start" x="466.9" y="-425" font-family="Arial" font-size="14.00" fill="#666666">[varchar(255)]</text>
<polygon fill="none" stroke="black" points="422.55,-382 422.55,-412.8 757.15,-412.8 757.15,-382 422.55,-382"/>
<text text-anchor="start" x="429.55" y="-394.2" font-family="Arial" font-size="14.00">is_first_access </text>
<text text-anchor="start" x="525.25" y="-394.2" font-family="Arial" font-size="14.00" fill="#666666">[boolean]</text>
<polygon fill="none" stroke="black" points="422.55,-351.2 422.55,-382 757.15,-382 757.15,-351.2 422.55,-351.2"/>
<text text-anchor="start" x="429.55" y="-363.4" font-family="Arial" font-size="14.00">last_token </text>
<text text-anchor="start" x="497.26" y="-363.4" font-family="Arial" font-size="14.00" fill="#666666">[text]</text>
<polygon fill="none" stroke="black" points="422.55,-320.4 422.55,-351.2 757.15,-351.2 757.15,-320.4 422.55,-320.4"/>
<text text-anchor="start" x="429.55" y="-332.6" font-family="Arial" font-size="14.00">name </text>
<text text-anchor="start" x="468.46" y="-332.6" font-family="Arial" font-size="14.00" fill="#666666">[varchar(255)]</text>
<polygon fill="none" stroke="black" points="422.55,-289.6 422.55,-320.4 757.15,-320.4 757.15,-289.6 422.55,-289.6"/>
<text text-anchor="start" x="429.55" y="-301.8" font-family="Arial" font-size="14.00">password </text>
<text text-anchor="start" x="493.36" y="-301.8" font-family="Arial" font-size="14.00" fill="#666666">[varchar(255)]</text>
<polygon fill="none" stroke="black" points="422.55,-258.8 422.55,-289.6 757.15,-289.6 757.15,-258.8 422.55,-258.8"/>
<text text-anchor="start" x="429.55" y="-271" font-family="Arial" font-size="14.00">phone </text>
<text text-anchor="start" x="472.37" y="-271" font-family="Arial" font-size="14.00" fill="#666666">[varchar(11)]</text>
<polygon fill="none" stroke="black" points="422.55,-228 422.55,-258.8 757.15,-258.8 757.15,-228 422.55,-228"/>
<text text-anchor="start" x="429.55" y="-240.2" font-family="Arial" font-size="14.00">token_expiry_date </text>
<text text-anchor="start" x="547.85" y="-240.2" font-family="Arial" font-size="14.00" fill="#666666">[timestamp(6) without time zone]</text>
<polygon fill="none" stroke="black" points="422.55,-197.2 422.55,-228 757.15,-228 757.15,-197.2 422.55,-197.2"/>
<text text-anchor="start" x="429.55" y="-209.4" font-family="Arial" font-size="14.00">created_by_id </text>
<text text-anchor="start" x="521.39" y="-209.4" font-family="Arial" font-size="14.00" fill="#666666">[bigint]</text>
<polygon fill="none" stroke="black" points="422.55,-166.4 422.55,-197.2 757.15,-197.2 757.15,-166.4 422.55,-166.4"/>
<text text-anchor="start" x="429.55" y="-178.6" font-family="Arial" font-size="14.00">role_id </text>
<text text-anchor="start" x="475.47" y="-178.6" font-family="Arial" font-size="14.00" fill="#666666">[bigint]</text>
<polygon fill="none" stroke="black" points="422.55,-135.6 422.55,-166.4 757.15,-166.4 757.15,-135.6 422.55,-135.6"/>
<text text-anchor="start" x="429.55" y="-147.8" font-family="Arial" font-size="14.00">sex_id </text>
<text text-anchor="start" x="473.91" y="-147.8" font-family="Arial" font-size="14.00" fill="#666666">[bigint]</text>
<polygon fill="none" stroke="black" points="422.55,-104.8 422.55,-135.6 757.15,-135.6 757.15,-104.8 422.55,-104.8"/>
<text text-anchor="start" x="429.55" y="-117" font-family="Arial" font-size="14.00">status_id </text>
<text text-anchor="start" x="489.48" y="-117" font-family="Arial" font-size="14.00" fill="#666666">[bigint]</text>
</g>
<!-- public.checklist_responses&#45;&gt;public.users -->
<g id="edge3" class="edge">
<title>public.checklist_responses:user_id&#45;&gt;public.users:id</title>
<path fill="none" stroke="black" d="M575.19,-709.85C587.94,-701.02 575.24,-671.16 564.32,-650.8 528.18,-583.38 458.5,-620.72 422.55,-553.2 402.87,-516.24 379.68,-459 421.55,-459"/>
<polygon fill="black" stroke="black" points="575.33,-709.81 564.52,-707.96 570.16,-711.15 565.97,-712.23 565.97,-712.23 565.97,-712.23 570.16,-711.15 566.77,-716.67 575.33,-709.81"/>
<text text-anchor="start" x="572.32" y="-722.4" font-family="Arial" font-size="10.00">FOREIGN KEY (user_id) REFERENCES users(id)</text>
</g>
<!-- public.questionnaire_responses -->
<g id="node2" class="node">
<title>public.questionnaire_responses</title>
<polygon fill="#efefef" stroke="none" points="216.88,-1196.8 216.88,-1232.4 580.82,-1232.4 580.82,-1196.8 216.88,-1196.8"/>
<polygon fill="none" stroke="black" points="216.88,-1196.8 216.88,-1232.4 580.82,-1232.4 580.82,-1196.8 216.88,-1196.8"/>
<text text-anchor="start" x="223.88" y="-1210.2" font-family="Arial Bold" font-size="18.00">public.questionnaire_responses</text>
<text text-anchor="start" x="449.33" y="-1210.2" font-family="Arial" font-size="14.00">    </text>
<text text-anchor="start" x="480.45" y="-1210.2" font-family="Arial" font-size="14.00" fill="#666666">[BASE TABLE]</text>
<polygon fill="none" stroke="black" points="216.88,-1166 216.88,-1196.8 580.82,-1196.8 580.82,-1166 216.88,-1166"/>
<text text-anchor="start" x="223.88" y="-1178.2" font-family="Arial" font-size="14.00">id </text>
<text text-anchor="start" x="238.67" y="-1178.2" font-family="Arial" font-size="14.00" fill="#666666">[bigint]</text>
<polygon fill="none" stroke="black" points="216.88,-1135.2 216.88,-1166 580.82,-1166 580.82,-1135.2 216.88,-1135.2"/>
<text text-anchor="start" x="223.88" y="-1147.4" font-family="Arial" font-size="14.00">created_at </text>
<text text-anchor="start" x="293.93" y="-1147.4" font-family="Arial" font-size="14.00" fill="#666666">[timestamp(6) without time zone]</text>
<polygon fill="none" stroke="black" points="216.88,-1104.4 216.88,-1135.2 580.82,-1135.2 580.82,-1104.4 216.88,-1104.4"/>
<text text-anchor="start" x="223.88" y="-1116.6" font-family="Arial" font-size="14.00">checklist_response_id </text>
<text text-anchor="start" x="365.52" y="-1116.6" font-family="Arial" font-size="14.00" fill="#666666">[bigint]</text>
<polygon fill="none" stroke="black" points="216.88,-1073.6 216.88,-1104.4 580.82,-1104.4 580.82,-1073.6 216.88,-1073.6"/>
<text text-anchor="start" x="223.88" y="-1085.8" font-family="Arial" font-size="14.00">dam_id </text>
<text text-anchor="start" x="273.69" y="-1085.8" font-family="Arial" font-size="14.00" fill="#666666">[bigint]</text>
<polygon fill="none" stroke="black" points="216.88,-1042.8 216.88,-1073.6 580.82,-1073.6 580.82,-1042.8 216.88,-1042.8"/>
<text text-anchor="start" x="223.88" y="-1055" font-family="Arial" font-size="14.00">template_questionnaire_id </text>
<text text-anchor="start" x="392" y="-1055" font-family="Arial" font-size="14.00" fill="#666666">[bigint]</text>
</g>
<!-- public.questionnaire_responses&#45;&gt;public.checklist_responses -->
<g id="edge1" class="edge">
<title>public.questionnaire_responses:checklist_response_id&#45;&gt;public.checklist_responses:id</title>
<path fill="none" stroke="black" d="M592.02,-1119.07C693.55,-1104.21 674.66,-866.4 565.32,-866.4"/>
<polygon fill="black" stroke="black" points="592.13,-1119.07 581.83,-1115.29 586.81,-1119.44 582.49,-1119.75 582.49,-1119.75 582.49,-1119.75 586.81,-1119.44 582.47,-1124.26 592.13,-1119.07"/>
<text text-anchor="start" x="588.82" y="-1129.8" font-family="Arial" font-size="10.00">FOREIGN KEY (checklist_response_id) REFERENCES checklist_responses(id)</text>
</g>
</g>
</svg>
