<?xml version="1.0" encoding="UTF-8" standalone="no"?>
<!DOCTYPE svg PUBLIC "-//W3C//DTD SVG 1.1//EN"
 "http://www.w3.org/Graphics/SVG/1.1/DTD/svg11.dtd">
<!-- Generated by graphviz version 12.1.2 (20240928.0832)
 -->
<!-- Title: public.client Pages: 1 -->
<svg width="1103pt" height="1468pt"
 viewBox="0.00 0.00 1103.36 1468.40" xmlns="http://www.w3.org/2000/svg" xmlns:xlink="http://www.w3.org/1999/xlink">
<g id="graph0" class="graph" transform="scale(1 1) rotate(0) translate(4 1464.4)">
<title>public.client</title>
<polygon fill="white" stroke="none" points="-4,4 -4,-1464.4 1099.36,-1464.4 1099.36,4 -4,4"/>
<!-- public.client -->
<g id="node1" class="node">
<title>public.client</title>
<polygon fill="#efefef" stroke="none" points="409.7,-727.8 409.7,-763.4 637.67,-763.4 637.67,-727.8 409.7,-727.8"/>
<polygon fill="none" stroke="black" points="409.7,-727.8 409.7,-763.4 637.67,-763.4 637.67,-727.8 409.7,-727.8"/>
<text text-anchor="start" x="416.7" y="-741.2" font-family="Arial Bold" font-size="18.00">public.client</text>
<text text-anchor="start" x="506.18" y="-741.2" font-family="Arial" font-size="14.00">    </text>
<text text-anchor="start" x="537.29" y="-741.2" font-family="Arial" font-size="14.00" fill="#666666">[BASE TABLE]</text>
<polygon fill="none" stroke="black" points="409.7,-697 409.7,-727.8 637.67,-727.8 637.67,-697 409.7,-697"/>
<text text-anchor="start" x="416.7" y="-709.2" font-family="Arial" font-size="14.00">id </text>
<text text-anchor="start" x="431.49" y="-709.2" font-family="Arial" font-size="14.00" fill="#666666">[bigint]</text>
<polygon fill="none" stroke="black" points="409.7,-666.2 409.7,-697 637.67,-697 637.67,-666.2 409.7,-666.2"/>
<text text-anchor="start" x="416.7" y="-678.4" font-family="Arial" font-size="14.00">city </text>
<text text-anchor="start" x="441.59" y="-678.4" font-family="Arial" font-size="14.00" fill="#666666">[varchar(100)]</text>
<polygon fill="none" stroke="black" points="409.7,-635.4 409.7,-666.2 637.67,-666.2 637.67,-635.4 409.7,-635.4"/>
<text text-anchor="start" x="416.7" y="-647.6" font-family="Arial" font-size="14.00">complement </text>
<text text-anchor="start" x="496.85" y="-647.6" font-family="Arial" font-size="14.00" fill="#666666">[varchar(100)]</text>
<polygon fill="none" stroke="black" points="409.7,-604.6 409.7,-635.4 637.67,-635.4 637.67,-604.6 409.7,-604.6"/>
<text text-anchor="start" x="416.7" y="-616.8" font-family="Arial" font-size="14.00">email </text>
<text text-anchor="start" x="454.05" y="-616.8" font-family="Arial" font-size="14.00" fill="#666666">[varchar(255)]</text>
<polygon fill="none" stroke="black" points="409.7,-573.8 409.7,-604.6 637.67,-604.6 637.67,-573.8 409.7,-573.8"/>
<text text-anchor="start" x="416.7" y="-586" font-family="Arial" font-size="14.00">email_contact </text>
<text text-anchor="start" x="506.97" y="-586" font-family="Arial" font-size="14.00" fill="#666666">[varchar(150)]</text>
<polygon fill="none" stroke="black" points="409.7,-543 409.7,-573.8 637.67,-573.8 637.67,-543 409.7,-543"/>
<text text-anchor="start" x="416.7" y="-555.2" font-family="Arial" font-size="14.00">logo_path </text>
<text text-anchor="start" x="482.1" y="-555.2" font-family="Arial" font-size="14.00" fill="#666666">[varchar(255)]</text>
<polygon fill="none" stroke="black" points="409.7,-512.2 409.7,-543 637.67,-543 637.67,-512.2 409.7,-512.2"/>
<text text-anchor="start" x="416.7" y="-524.4" font-family="Arial" font-size="14.00">name </text>
<text text-anchor="start" x="455.61" y="-524.4" font-family="Arial" font-size="14.00" fill="#666666">[varchar(255)]</text>
<polygon fill="none" stroke="black" points="409.7,-481.4 409.7,-512.2 637.67,-512.2 637.67,-481.4 409.7,-481.4"/>
<text text-anchor="start" x="416.7" y="-493.6" font-family="Arial" font-size="14.00">neighborhood </text>
<text text-anchor="start" x="506.23" y="-493.6" font-family="Arial" font-size="14.00" fill="#666666">[varchar(100)]</text>
<polygon fill="none" stroke="black" points="409.7,-450.6 409.7,-481.4 637.67,-481.4 637.67,-450.6 409.7,-450.6"/>
<text text-anchor="start" x="416.7" y="-462.8" font-family="Arial" font-size="14.00">number_address </text>
<text text-anchor="start" x="525.66" y="-462.8" font-family="Arial" font-size="14.00" fill="#666666">[varchar(10)]</text>
<polygon fill="none" stroke="black" points="409.7,-419.8 409.7,-450.6 637.67,-450.6 637.67,-419.8 409.7,-419.8"/>
<text text-anchor="start" x="416.7" y="-432" font-family="Arial" font-size="14.00">phone </text>
<text text-anchor="start" x="459.52" y="-432" font-family="Arial" font-size="14.00" fill="#666666">[varchar(11)]</text>
<polygon fill="none" stroke="black" points="409.7,-389 409.7,-419.8 637.67,-419.8 637.67,-389 409.7,-389"/>
<text text-anchor="start" x="416.7" y="-401.2" font-family="Arial" font-size="14.00">state </text>
<text text-anchor="start" x="450.95" y="-401.2" font-family="Arial" font-size="14.00" fill="#666666">[varchar(100)]</text>
<polygon fill="none" stroke="black" points="409.7,-358.2 409.7,-389 637.67,-389 637.67,-358.2 409.7,-358.2"/>
<text text-anchor="start" x="416.7" y="-370.4" font-family="Arial" font-size="14.00">street </text>
<text text-anchor="start" x="455.61" y="-370.4" font-family="Arial" font-size="14.00" fill="#666666">[varchar(255)]</text>
<polygon fill="none" stroke="black" points="409.7,-327.4 409.7,-358.2 637.67,-358.2 637.67,-327.4 409.7,-327.4"/>
<text text-anchor="start" x="416.7" y="-339.6" font-family="Arial" font-size="14.00">whatsapp_phone </text>
<text text-anchor="start" x="527.24" y="-339.6" font-family="Arial" font-size="14.00" fill="#666666">[varchar(11)]</text>
<polygon fill="none" stroke="black" points="409.7,-296.6 409.7,-327.4 637.67,-327.4 637.67,-296.6 409.7,-296.6"/>
<text text-anchor="start" x="416.7" y="-308.8" font-family="Arial" font-size="14.00">zip_code </text>
<text text-anchor="start" x="476.64" y="-308.8" font-family="Arial" font-size="14.00" fill="#666666">[varchar(9)]</text>
<polygon fill="none" stroke="black" points="409.7,-265.8 409.7,-296.6 637.67,-296.6 637.67,-265.8 409.7,-265.8"/>
<text text-anchor="start" x="416.7" y="-278" font-family="Arial" font-size="14.00">status_id </text>
<text text-anchor="start" x="476.63" y="-278" font-family="Arial" font-size="14.00" fill="#666666">[bigint]</text>
<polygon fill="none" stroke="black" stroke-width="3" points="408.2,-264.3 408.2,-764.9 639.17,-764.9 639.17,-264.3 408.2,-264.3"/>
</g>
<!-- public.status -->
<g id="node5" class="node">
<title>public.status</title>
<polygon fill="#efefef" stroke="none" points="409.19,-104.8 409.19,-140.4 638.18,-140.4 638.18,-104.8 409.19,-104.8"/>
<polygon fill="none" stroke="black" points="409.19,-104.8 409.19,-140.4 638.18,-140.4 638.18,-104.8 409.19,-104.8"/>
<text text-anchor="start" x="416.19" y="-118.2" font-family="Arial Bold" font-size="18.00">public.status</text>
<text text-anchor="start" x="506.69" y="-118.2" font-family="Arial" font-size="14.00">    </text>
<text text-anchor="start" x="537.8" y="-118.2" font-family="Arial" font-size="14.00" fill="#666666">[BASE TABLE]</text>
<polygon fill="none" stroke="black" points="409.19,-74 409.19,-104.8 638.18,-104.8 638.18,-74 409.19,-74"/>
<text text-anchor="start" x="416.19" y="-86.2" font-family="Arial" font-size="14.00">id </text>
<text text-anchor="start" x="430.98" y="-86.2" font-family="Arial" font-size="14.00" fill="#666666">[bigint]</text>
<polygon fill="none" stroke="black" points="409.19,-43.2 409.19,-74 638.18,-74 638.18,-43.2 409.19,-43.2"/>
<text text-anchor="start" x="416.19" y="-55.4" font-family="Arial" font-size="14.00">status </text>
<text text-anchor="start" x="457.44" y="-55.4" font-family="Arial" font-size="14.00" fill="#666666">[varchar(255)]</text>
</g>
<!-- public.client&#45;&gt;public.status -->
<g id="edge4" class="edge">
<title>public.client:status_id&#45;&gt;public.status:id</title>
<path fill="none" stroke="black" d="M524.59,-254.51C533.84,-206.49 611,-235.52 638.18,-183.6 657.59,-146.51 681.05,-89.4 639.18,-89.4"/>
<polygon fill="black" stroke="black" points="524.6,-254.51 519.23,-264.07 524.13,-259.82 523.74,-264.13 523.74,-264.13 523.74,-264.13 524.13,-259.82 528.2,-264.86 524.6,-254.51"/>
<text text-anchor="start" x="283.85" y="-274.8" font-family="Arial" font-size="10.00">FOREIGN KEY (status_id) REFERENCES status(id)</text>
</g>
<!-- public.dam -->
<g id="node2" class="node">
<title>public.dam</title>
<polygon fill="#efefef" stroke="none" points="43.2,-1381.6 43.2,-1417.2 262.17,-1417.2 262.17,-1381.6 43.2,-1381.6"/>
<polygon fill="none" stroke="black" points="43.2,-1381.6 43.2,-1417.2 262.17,-1417.2 262.17,-1381.6 43.2,-1381.6"/>
<text text-anchor="start" x="50.2" y="-1395" font-family="Arial Bold" font-size="18.00">public.dam</text>
<text text-anchor="start" x="130.68" y="-1395" font-family="Arial" font-size="14.00">    </text>
<text text-anchor="start" x="161.8" y="-1395" font-family="Arial" font-size="14.00" fill="#666666">[BASE TABLE]</text>
<polygon fill="none" stroke="black" points="43.2,-1350.8 43.2,-1381.6 262.17,-1381.6 262.17,-1350.8 43.2,-1350.8"/>
<text text-anchor="start" x="50.2" y="-1363" font-family="Arial" font-size="14.00">id </text>
<text text-anchor="start" x="64.99" y="-1363" font-family="Arial" font-size="14.00" fill="#666666">[bigint]</text>
<polygon fill="none" stroke="black" points="43.2,-1320 43.2,-1350.8 262.17,-1350.8 262.17,-1320 43.2,-1320"/>
<text text-anchor="start" x="50.2" y="-1332.2" font-family="Arial" font-size="14.00">city </text>
<text text-anchor="start" x="75.09" y="-1332.2" font-family="Arial" font-size="14.00" fill="#666666">[varchar(100)]</text>
<polygon fill="none" stroke="black" points="43.2,-1289.2 43.2,-1320 262.17,-1320 262.17,-1289.2 43.2,-1289.2"/>
<text text-anchor="start" x="50.2" y="-1301.4" font-family="Arial" font-size="14.00">dam_image_path </text>
<text text-anchor="start" x="162.28" y="-1301.4" font-family="Arial" font-size="14.00" fill="#666666">[varchar(255)]</text>
<polygon fill="none" stroke="black" points="43.2,-1258.4 43.2,-1289.2 262.17,-1289.2 262.17,-1258.4 43.2,-1258.4"/>
<text text-anchor="start" x="50.2" y="-1270.6" font-family="Arial" font-size="14.00">latitude </text>
<text text-anchor="start" x="99.23" y="-1270.6" font-family="Arial" font-size="14.00" fill="#666666">[double precision]</text>
<polygon fill="none" stroke="black" points="43.2,-1227.6 43.2,-1258.4 262.17,-1258.4 262.17,-1227.6 43.2,-1227.6"/>
<text text-anchor="start" x="50.2" y="-1239.8" font-family="Arial" font-size="14.00">link_legislation </text>
<text text-anchor="start" x="145.14" y="-1239.8" font-family="Arial" font-size="14.00" fill="#666666">[varchar(255)]</text>
<polygon fill="none" stroke="black" points="43.2,-1196.8 43.2,-1227.6 262.17,-1227.6 262.17,-1196.8 43.2,-1196.8"/>
<text text-anchor="start" x="50.2" y="-1209" font-family="Arial" font-size="14.00">linkpsb </text>
<text text-anchor="start" x="97.67" y="-1209" font-family="Arial" font-size="14.00" fill="#666666">[varchar(255)]</text>
<polygon fill="none" stroke="black" points="43.2,-1166 43.2,-1196.8 262.17,-1196.8 262.17,-1166 43.2,-1166"/>
<text text-anchor="start" x="50.2" y="-1178.2" font-family="Arial" font-size="14.00">logo_path </text>
<text text-anchor="start" x="115.59" y="-1178.2" font-family="Arial" font-size="14.00" fill="#666666">[varchar(255)]</text>
<polygon fill="none" stroke="black" points="43.2,-1135.2 43.2,-1166 262.17,-1166 262.17,-1135.2 43.2,-1135.2"/>
<text text-anchor="start" x="50.2" y="-1147.4" font-family="Arial" font-size="14.00">longitude </text>
<text text-anchor="start" x="110.92" y="-1147.4" font-family="Arial" font-size="14.00" fill="#666666">[double precision]</text>
<polygon fill="none" stroke="black" points="43.2,-1104.4 43.2,-1135.2 262.17,-1135.2 262.17,-1104.4 43.2,-1104.4"/>
<text text-anchor="start" x="50.2" y="-1116.6" font-family="Arial" font-size="14.00">name </text>
<text text-anchor="start" x="89.11" y="-1116.6" font-family="Arial" font-size="14.00" fill="#666666">[varchar(255)]</text>
<polygon fill="none" stroke="black" points="43.2,-1073.6 43.2,-1104.4 262.17,-1104.4 262.17,-1073.6 43.2,-1073.6"/>
<text text-anchor="start" x="50.2" y="-1085.8" font-family="Arial" font-size="14.00">neighborhood </text>
<text text-anchor="start" x="139.72" y="-1085.8" font-family="Arial" font-size="14.00" fill="#666666">[varchar(100)]</text>
<polygon fill="none" stroke="black" points="43.2,-1042.8 43.2,-1073.6 262.17,-1073.6 262.17,-1042.8 43.2,-1042.8"/>
<text text-anchor="start" x="50.2" y="-1055" font-family="Arial" font-size="14.00">number_address </text>
<text text-anchor="start" x="159.15" y="-1055" font-family="Arial" font-size="14.00" fill="#666666">[varchar(10)]</text>
<polygon fill="none" stroke="black" points="43.2,-1012 43.2,-1042.8 262.17,-1042.8 262.17,-1012 43.2,-1012"/>
<text text-anchor="start" x="50.2" y="-1024.2" font-family="Arial" font-size="14.00">state </text>
<text text-anchor="start" x="84.44" y="-1024.2" font-family="Arial" font-size="14.00" fill="#666666">[varchar(100)]</text>
<polygon fill="none" stroke="black" points="43.2,-981.2 43.2,-1012 262.17,-1012 262.17,-981.2 43.2,-981.2"/>
<text text-anchor="start" x="50.2" y="-993.4" font-family="Arial" font-size="14.00">street </text>
<text text-anchor="start" x="89.1" y="-993.4" font-family="Arial" font-size="14.00" fill="#666666">[varchar(255)]</text>
<polygon fill="none" stroke="black" points="43.2,-950.4 43.2,-981.2 262.17,-981.2 262.17,-950.4 43.2,-950.4"/>
<text text-anchor="start" x="50.2" y="-962.6" font-family="Arial" font-size="14.00">zip_code </text>
<text text-anchor="start" x="110.13" y="-962.6" font-family="Arial" font-size="14.00" fill="#666666">[varchar(9)]</text>
<polygon fill="none" stroke="black" points="43.2,-919.6 43.2,-950.4 262.17,-950.4 262.17,-919.6 43.2,-919.6"/>
<text text-anchor="start" x="50.2" y="-931.8" font-family="Arial" font-size="14.00">client_id </text>
<text text-anchor="start" x="105.45" y="-931.8" font-family="Arial" font-size="14.00" fill="#666666">[bigint]</text>
<polygon fill="none" stroke="black" points="43.2,-888.8 43.2,-919.6 262.17,-919.6 262.17,-888.8 43.2,-888.8"/>
<text text-anchor="start" x="50.2" y="-901" font-family="Arial" font-size="14.00">status_id </text>
<text text-anchor="start" x="110.12" y="-901" font-family="Arial" font-size="14.00" fill="#666666">[bigint]</text>
</g>
<!-- public.dam&#45;&gt;public.client -->
<g id="edge1" class="edge">
<title>public.dam:client_id&#45;&gt;public.client:id</title>
<path fill="none" stroke="black" d="M273.21,-934.01C306.2,-926.75 292.02,-881.07 314.69,-845.6 353.71,-784.54 336.24,-712.4 408.7,-712.4"/>
<polygon fill="black" stroke="black" points="273.46,-933.99 263.06,-930.49 268.15,-934.51 263.84,-934.93 263.84,-934.93 263.84,-934.93 268.15,-934.51 263.95,-939.45 273.46,-933.99"/>
<text text-anchor="start" x="270.17" y="-919" font-family="Arial" font-size="10.00">FOREIGN KEY (client_id) REFERENCES client(id)</text>
</g>
<!-- public.dam_permissions -->
<g id="node3" class="node">
<title>public.dam_permissions</title>
<polygon fill="#efefef" stroke="none" points="366.7,-1273.8 366.7,-1309.4 680.67,-1309.4 680.67,-1273.8 366.7,-1273.8"/>
<polygon fill="none" stroke="black" points="366.7,-1273.8 366.7,-1309.4 680.67,-1309.4 680.67,-1273.8 366.7,-1273.8"/>
<text text-anchor="start" x="373.7" y="-1287.2" font-family="Arial Bold" font-size="18.00">public.dam_permissions</text>
<text text-anchor="start" x="549.18" y="-1287.2" font-family="Arial" font-size="14.00">    </text>
<text text-anchor="start" x="580.3" y="-1287.2" font-family="Arial" font-size="14.00" fill="#666666">[BASE TABLE]</text>
<polygon fill="none" stroke="black" points="366.7,-1243 366.7,-1273.8 680.67,-1273.8 680.67,-1243 366.7,-1243"/>
<text text-anchor="start" x="373.7" y="-1255.2" font-family="Arial" font-size="14.00">id </text>
<text text-anchor="start" x="388.49" y="-1255.2" font-family="Arial" font-size="14.00" fill="#666666">[bigint]</text>
<polygon fill="none" stroke="black" points="366.7,-1212.2 366.7,-1243 680.67,-1243 680.67,-1212.2 366.7,-1212.2"/>
<text text-anchor="start" x="373.7" y="-1224.4" font-family="Arial" font-size="14.00">created_at </text>
<text text-anchor="start" x="443.75" y="-1224.4" font-family="Arial" font-size="14.00" fill="#666666">[timestamp(6) without time zone]</text>
<polygon fill="none" stroke="black" points="366.7,-1181.4 366.7,-1212.2 680.67,-1212.2 680.67,-1181.4 366.7,-1181.4"/>
<text text-anchor="start" x="373.7" y="-1193.6" font-family="Arial" font-size="14.00">has_access </text>
<text text-anchor="start" x="451.52" y="-1193.6" font-family="Arial" font-size="14.00" fill="#666666">[boolean]</text>
<polygon fill="none" stroke="black" points="366.7,-1150.6 366.7,-1181.4 680.67,-1181.4 680.67,-1150.6 366.7,-1150.6"/>
<text text-anchor="start" x="373.7" y="-1162.8" font-family="Arial" font-size="14.00">updated_at </text>
<text text-anchor="start" x="447.66" y="-1162.8" font-family="Arial" font-size="14.00" fill="#666666">[timestamp(6) without time zone]</text>
<polygon fill="none" stroke="black" points="366.7,-1119.8 366.7,-1150.6 680.67,-1150.6 680.67,-1119.8 366.7,-1119.8"/>
<text text-anchor="start" x="373.7" y="-1132" font-family="Arial" font-size="14.00">client_id </text>
<text text-anchor="start" x="428.95" y="-1132" font-family="Arial" font-size="14.00" fill="#666666">[bigint]</text>
<polygon fill="none" stroke="black" points="366.7,-1089 366.7,-1119.8 680.67,-1119.8 680.67,-1089 366.7,-1089"/>
<text text-anchor="start" x="373.7" y="-1101.2" font-family="Arial" font-size="14.00">created_by </text>
<text text-anchor="start" x="446.86" y="-1101.2" font-family="Arial" font-size="14.00" fill="#666666">[bigint]</text>
<polygon fill="none" stroke="black" points="366.7,-1058.2 366.7,-1089 680.67,-1089 680.67,-1058.2 366.7,-1058.2"/>
<text text-anchor="start" x="373.7" y="-1070.4" font-family="Arial" font-size="14.00">dam_id </text>
<text text-anchor="start" x="423.51" y="-1070.4" font-family="Arial" font-size="14.00" fill="#666666">[bigint]</text>
<polygon fill="none" stroke="black" points="366.7,-1027.4 366.7,-1058.2 680.67,-1058.2 680.67,-1027.4 366.7,-1027.4"/>
<text text-anchor="start" x="373.7" y="-1039.6" font-family="Arial" font-size="14.00">updated_by </text>
<text text-anchor="start" x="450.77" y="-1039.6" font-family="Arial" font-size="14.00" fill="#666666">[bigint]</text>
<polygon fill="none" stroke="black" points="366.7,-996.6 366.7,-1027.4 680.67,-1027.4 680.67,-996.6 366.7,-996.6"/>
<text text-anchor="start" x="373.7" y="-1008.8" font-family="Arial" font-size="14.00">user_id </text>
<text text-anchor="start" x="423.51" y="-1008.8" font-family="Arial" font-size="14.00" fill="#666666">[bigint]</text>
</g>
<!-- public.dam_permissions&#45;&gt;public.client -->
<g id="edge2" class="edge">
<title>public.dam_permissions:client_id&#45;&gt;public.client:id</title>
<path fill="none" stroke="black" d="M690.12,-1129.54C722.99,-1079.37 682.66,-712.4 638.67,-712.4"/>
<polygon fill="black" stroke="black" points="690.26,-1129.45 679.44,-1131.27 685.83,-1132.42 682.23,-1134.83 682.23,-1134.83 682.23,-1134.83 685.83,-1132.42 684.45,-1138.75 690.26,-1129.45"/>
<text text-anchor="start" x="508.55" y="-1119.2" font-family="Arial" font-size="10.00">FOREIGN KEY (client_id) REFERENCES client(id)</text>
</g>
<!-- public.user_client -->
<g id="node4" class="node">
<title>public.user_client</title>
<polygon fill="#efefef" stroke="none" points="785.21,-1166 785.21,-1201.6 1052.16,-1201.6 1052.16,-1166 785.21,-1166"/>
<polygon fill="none" stroke="black" points="785.21,-1166 785.21,-1201.6 1052.16,-1201.6 1052.16,-1166 785.21,-1166"/>
<text text-anchor="start" x="792.21" y="-1179.4" font-family="Arial Bold" font-size="18.00">public.user_client</text>
<text text-anchor="start" x="920.67" y="-1179.4" font-family="Arial" font-size="14.00">    </text>
<text text-anchor="start" x="951.79" y="-1179.4" font-family="Arial" font-size="14.00" fill="#666666">[BASE TABLE]</text>
<polygon fill="none" stroke="black" points="785.21,-1135.2 785.21,-1166 1052.16,-1166 1052.16,-1135.2 785.21,-1135.2"/>
<text text-anchor="start" x="792.21" y="-1147.4" font-family="Arial" font-size="14.00">user_id </text>
<text text-anchor="start" x="842.02" y="-1147.4" font-family="Arial" font-size="14.00" fill="#666666">[bigint]</text>
<polygon fill="none" stroke="black" points="785.21,-1104.4 785.21,-1135.2 1052.16,-1135.2 1052.16,-1104.4 785.21,-1104.4"/>
<text text-anchor="start" x="792.21" y="-1116.6" font-family="Arial" font-size="14.00">client_id </text>
<text text-anchor="start" x="847.47" y="-1116.6" font-family="Arial" font-size="14.00" fill="#666666">[bigint]</text>
</g>
<!-- public.user_client&#45;&gt;public.client -->
<g id="edge3" class="edge">
<title>public.user_client:client_id&#45;&gt;public.client:id</title>
<path fill="none" stroke="black" d="M774.28,-1117.64C726.07,-1094.91 755.42,-899.36 732.69,-845.6 704.45,-778.86 711.13,-712.4 638.67,-712.4"/>
<polygon fill="black" stroke="black" points="774.11,-1117.6 782.93,-1124.13 779.32,-1118.74 783.56,-1119.66 783.56,-1119.66 783.56,-1119.66 779.32,-1118.74 784.84,-1115.33 774.11,-1117.6"/>
<text text-anchor="start" x="791.21" y="-1129.8" font-family="Arial" font-size="10.00">FOREIGN KEY (client_id) REFERENCES client(id)</text>
</g>
</g>
</svg>
