<?xml version="1.0" encoding="UTF-8" standalone="no"?>
<!DOCTYPE svg PUBLIC "-//W3C//DTD SVG 1.1//EN"
 "http://www.w3.org/Graphics/SVG/1.1/DTD/svg11.dtd">
<!-- Generated by graphviz version 12.1.2 (20240928.0832)
 -->
<!-- Title: public.psb_folders Pages: 1 -->
<svg width="825pt" height="1561pt"
 viewBox="0.00 0.00 824.88 1560.80" xmlns="http://www.w3.org/2000/svg" xmlns:xlink="http://www.w3.org/1999/xlink">
<g id="graph0" class="graph" transform="scale(1 1) rotate(0) translate(4 1556.8)">
<title>public.psb_folders</title>
<polygon fill="white" stroke="none" points="-4,4 -4,-1556.8 820.88,-1556.8 820.88,4 -4,4"/>
<!-- public.psb_folders -->
<g id="node1" class="node">
<title>public.psb_folders</title>
<polygon fill="#efefef" stroke="none" points="255.37,-1005 255.37,-1040.6 545.63,-1040.6 545.63,-1005 255.37,-1005"/>
<polygon fill="none" stroke="black" points="255.37,-1005 255.37,-1040.6 545.63,-1040.6 545.63,-1005 255.37,-1005"/>
<text text-anchor="start" x="271.51" y="-1018.4" font-family="Arial Bold" font-size="18.00">public.psb_folders</text>
<text text-anchor="start" x="404.99" y="-1018.4" font-family="Arial" font-size="14.00">    </text>
<text text-anchor="start" x="436.11" y="-1018.4" font-family="Arial" font-size="14.00" fill="#666666">[BASE TABLE]</text>
<polygon fill="none" stroke="black" points="255.37,-974.2 255.37,-1005 545.63,-1005 545.63,-974.2 255.37,-974.2"/>
<text text-anchor="start" x="262.37" y="-986.4" font-family="Arial" font-size="14.00">id </text>
<text text-anchor="start" x="277.16" y="-986.4" font-family="Arial" font-size="14.00" fill="#666666">[bigint]</text>
<polygon fill="none" stroke="black" points="255.37,-943.4 255.37,-974.2 545.63,-974.2 545.63,-943.4 255.37,-943.4"/>
<text text-anchor="start" x="262.37" y="-955.6" font-family="Arial" font-size="14.00">color </text>
<text text-anchor="start" x="296.61" y="-955.6" font-family="Arial" font-size="14.00" fill="#666666">[varchar(255)]</text>
<polygon fill="none" stroke="black" points="255.37,-912.6 255.37,-943.4 545.63,-943.4 545.63,-912.6 255.37,-912.6"/>
<text text-anchor="start" x="262.37" y="-924.8" font-family="Arial" font-size="14.00">created_at </text>
<text text-anchor="start" x="332.42" y="-924.8" font-family="Arial" font-size="14.00" fill="#666666">[timestamp(6) without time zone]</text>
<polygon fill="none" stroke="black" points="255.37,-881.8 255.37,-912.6 545.63,-912.6 545.63,-881.8 255.37,-881.8"/>
<text text-anchor="start" x="262.37" y="-894" font-family="Arial" font-size="14.00">description </text>
<text text-anchor="start" x="333.97" y="-894" font-family="Arial" font-size="14.00" fill="#666666">[varchar(1000)]</text>
<polygon fill="none" stroke="black" points="255.37,-851 255.37,-881.8 545.63,-881.8 545.63,-851 255.37,-851"/>
<text text-anchor="start" x="262.37" y="-863.2" font-family="Arial" font-size="14.00">folder_index </text>
<text text-anchor="start" x="342.54" y="-863.2" font-family="Arial" font-size="14.00" fill="#666666">[integer]</text>
<polygon fill="none" stroke="black" points="255.37,-820.2 255.37,-851 545.63,-851 545.63,-820.2 255.37,-820.2"/>
<text text-anchor="start" x="262.37" y="-832.4" font-family="Arial" font-size="14.00">name </text>
<text text-anchor="start" x="301.28" y="-832.4" font-family="Arial" font-size="14.00" fill="#666666">[varchar(255)]</text>
<polygon fill="none" stroke="black" points="255.37,-789.4 255.37,-820.2 545.63,-820.2 545.63,-789.4 255.37,-789.4"/>
<text text-anchor="start" x="262.37" y="-801.6" font-family="Arial" font-size="14.00">server_path </text>
<text text-anchor="start" x="340.19" y="-801.6" font-family="Arial" font-size="14.00" fill="#666666">[varchar(255)]</text>
<polygon fill="none" stroke="black" points="255.37,-758.6 255.37,-789.4 545.63,-789.4 545.63,-758.6 255.37,-758.6"/>
<text text-anchor="start" x="262.37" y="-770.8" font-family="Arial" font-size="14.00">updated_at </text>
<text text-anchor="start" x="336.33" y="-770.8" font-family="Arial" font-size="14.00" fill="#666666">[timestamp(6) without time zone]</text>
<polygon fill="none" stroke="black" points="255.37,-727.8 255.37,-758.6 545.63,-758.6 545.63,-727.8 255.37,-727.8"/>
<text text-anchor="start" x="262.37" y="-740" font-family="Arial" font-size="14.00">created_by </text>
<text text-anchor="start" x="335.53" y="-740" font-family="Arial" font-size="14.00" fill="#666666">[bigint]</text>
<polygon fill="none" stroke="black" points="255.37,-697 255.37,-727.8 545.63,-727.8 545.63,-697 255.37,-697"/>
<text text-anchor="start" x="262.37" y="-709.2" font-family="Arial" font-size="14.00">dam_id </text>
<text text-anchor="start" x="312.18" y="-709.2" font-family="Arial" font-size="14.00" fill="#666666">[bigint]</text>
<polygon fill="none" stroke="black" stroke-width="3" points="253.87,-695.5 253.87,-1042.1 547.13,-1042.1 547.13,-695.5 253.87,-695.5"/>
</g>
<!-- public.users -->
<g id="node4" class="node">
<title>public.users</title>
<polygon fill="#efefef" stroke="none" points="43.2,-474.4 43.2,-510 377.8,-510 377.8,-474.4 43.2,-474.4"/>
<polygon fill="none" stroke="black" points="43.2,-474.4 43.2,-510 377.8,-510 377.8,-474.4 43.2,-474.4"/>
<text text-anchor="start" x="105.01" y="-487.8" font-family="Arial Bold" font-size="18.00">public.users</text>
<text text-anchor="start" x="191.5" y="-487.8" font-family="Arial" font-size="14.00">    </text>
<text text-anchor="start" x="222.61" y="-487.8" font-family="Arial" font-size="14.00" fill="#666666">[BASE TABLE]</text>
<polygon fill="none" stroke="black" points="43.2,-443.6 43.2,-474.4 377.8,-474.4 377.8,-443.6 43.2,-443.6"/>
<text text-anchor="start" x="50.2" y="-455.8" font-family="Arial" font-size="14.00">id </text>
<text text-anchor="start" x="64.99" y="-455.8" font-family="Arial" font-size="14.00" fill="#666666">[bigint]</text>
<polygon fill="none" stroke="black" points="43.2,-412.8 43.2,-443.6 377.8,-443.6 377.8,-412.8 43.2,-412.8"/>
<text text-anchor="start" x="50.2" y="-425" font-family="Arial" font-size="14.00">email </text>
<text text-anchor="start" x="87.54" y="-425" font-family="Arial" font-size="14.00" fill="#666666">[varchar(255)]</text>
<polygon fill="none" stroke="black" points="43.2,-382 43.2,-412.8 377.8,-412.8 377.8,-382 43.2,-382"/>
<text text-anchor="start" x="50.2" y="-394.2" font-family="Arial" font-size="14.00">is_first_access </text>
<text text-anchor="start" x="145.9" y="-394.2" font-family="Arial" font-size="14.00" fill="#666666">[boolean]</text>
<polygon fill="none" stroke="black" points="43.2,-351.2 43.2,-382 377.8,-382 377.8,-351.2 43.2,-351.2"/>
<text text-anchor="start" x="50.2" y="-363.4" font-family="Arial" font-size="14.00">last_token </text>
<text text-anchor="start" x="117.91" y="-363.4" font-family="Arial" font-size="14.00" fill="#666666">[text]</text>
<polygon fill="none" stroke="black" points="43.2,-320.4 43.2,-351.2 377.8,-351.2 377.8,-320.4 43.2,-320.4"/>
<text text-anchor="start" x="50.2" y="-332.6" font-family="Arial" font-size="14.00">name </text>
<text text-anchor="start" x="89.11" y="-332.6" font-family="Arial" font-size="14.00" fill="#666666">[varchar(255)]</text>
<polygon fill="none" stroke="black" points="43.2,-289.6 43.2,-320.4 377.8,-320.4 377.8,-289.6 43.2,-289.6"/>
<text text-anchor="start" x="50.2" y="-301.8" font-family="Arial" font-size="14.00">password </text>
<text text-anchor="start" x="114.01" y="-301.8" font-family="Arial" font-size="14.00" fill="#666666">[varchar(255)]</text>
<polygon fill="none" stroke="black" points="43.2,-258.8 43.2,-289.6 377.8,-289.6 377.8,-258.8 43.2,-258.8"/>
<text text-anchor="start" x="50.2" y="-271" font-family="Arial" font-size="14.00">phone </text>
<text text-anchor="start" x="93.02" y="-271" font-family="Arial" font-size="14.00" fill="#666666">[varchar(11)]</text>
<polygon fill="none" stroke="black" points="43.2,-228 43.2,-258.8 377.8,-258.8 377.8,-228 43.2,-228"/>
<text text-anchor="start" x="50.2" y="-240.2" font-family="Arial" font-size="14.00">token_expiry_date </text>
<text text-anchor="start" x="168.5" y="-240.2" font-family="Arial" font-size="14.00" fill="#666666">[timestamp(6) without time zone]</text>
<polygon fill="none" stroke="black" points="43.2,-197.2 43.2,-228 377.8,-228 377.8,-197.2 43.2,-197.2"/>
<text text-anchor="start" x="50.2" y="-209.4" font-family="Arial" font-size="14.00">created_by_id </text>
<text text-anchor="start" x="142.04" y="-209.4" font-family="Arial" font-size="14.00" fill="#666666">[bigint]</text>
<polygon fill="none" stroke="black" points="43.2,-166.4 43.2,-197.2 377.8,-197.2 377.8,-166.4 43.2,-166.4"/>
<text text-anchor="start" x="50.2" y="-178.6" font-family="Arial" font-size="14.00">role_id </text>
<text text-anchor="start" x="96.12" y="-178.6" font-family="Arial" font-size="14.00" fill="#666666">[bigint]</text>
<polygon fill="none" stroke="black" points="43.2,-135.6 43.2,-166.4 377.8,-166.4 377.8,-135.6 43.2,-135.6"/>
<text text-anchor="start" x="50.2" y="-147.8" font-family="Arial" font-size="14.00">sex_id </text>
<text text-anchor="start" x="94.56" y="-147.8" font-family="Arial" font-size="14.00" fill="#666666">[bigint]</text>
<polygon fill="none" stroke="black" points="43.2,-104.8 43.2,-135.6 377.8,-135.6 377.8,-104.8 43.2,-104.8"/>
<text text-anchor="start" x="50.2" y="-117" font-family="Arial" font-size="14.00">status_id </text>
<text text-anchor="start" x="110.12" y="-117" font-family="Arial" font-size="14.00" fill="#666666">[bigint]</text>
</g>
<!-- public.psb_folders&#45;&gt;public.users -->
<g id="edge3" class="edge">
<title>public.psb_folders:created_by&#45;&gt;public.users:id</title>
<path fill="none" stroke="black" d="M244.14,-741.68C217.94,-732.54 239.11,-684.1 255.37,-650.8 285.91,-588.27 347.27,-615.73 377.8,-553.2 396.17,-515.58 420.67,-459 378.8,-459"/>
<polygon fill="black" stroke="black" points="244.15,-741.68 253.38,-747.6 249.43,-742.47 253.71,-743.1 253.71,-743.1 253.71,-743.1 249.43,-742.47 254.7,-738.7 244.15,-741.68"/>
<text text-anchor="start" x="7.31" y="-753.2" font-family="Arial" font-size="10.00">FOREIGN KEY (created_by) REFERENCES users(id)</text>
</g>
<!-- public.dam -->
<g id="node5" class="node">
<title>public.dam</title>
<polygon fill="#efefef" stroke="none" points="482.01,-536 482.01,-571.6 700.98,-571.6 700.98,-536 482.01,-536"/>
<polygon fill="none" stroke="black" points="482.01,-536 482.01,-571.6 700.98,-571.6 700.98,-536 482.01,-536"/>
<text text-anchor="start" x="489.01" y="-549.4" font-family="Arial Bold" font-size="18.00">public.dam</text>
<text text-anchor="start" x="569.5" y="-549.4" font-family="Arial" font-size="14.00">    </text>
<text text-anchor="start" x="600.61" y="-549.4" font-family="Arial" font-size="14.00" fill="#666666">[BASE TABLE]</text>
<polygon fill="none" stroke="black" points="482.01,-505.2 482.01,-536 700.98,-536 700.98,-505.2 482.01,-505.2"/>
<text text-anchor="start" x="489.01" y="-517.4" font-family="Arial" font-size="14.00">id </text>
<text text-anchor="start" x="503.8" y="-517.4" font-family="Arial" font-size="14.00" fill="#666666">[bigint]</text>
<polygon fill="none" stroke="black" points="482.01,-474.4 482.01,-505.2 700.98,-505.2 700.98,-474.4 482.01,-474.4"/>
<text text-anchor="start" x="489.01" y="-486.6" font-family="Arial" font-size="14.00">city </text>
<text text-anchor="start" x="513.9" y="-486.6" font-family="Arial" font-size="14.00" fill="#666666">[varchar(100)]</text>
<polygon fill="none" stroke="black" points="482.01,-443.6 482.01,-474.4 700.98,-474.4 700.98,-443.6 482.01,-443.6"/>
<text text-anchor="start" x="489.01" y="-455.8" font-family="Arial" font-size="14.00">dam_image_path </text>
<text text-anchor="start" x="601.09" y="-455.8" font-family="Arial" font-size="14.00" fill="#666666">[varchar(255)]</text>
<polygon fill="none" stroke="black" points="482.01,-412.8 482.01,-443.6 700.98,-443.6 700.98,-412.8 482.01,-412.8"/>
<text text-anchor="start" x="489.01" y="-425" font-family="Arial" font-size="14.00">latitude </text>
<text text-anchor="start" x="538.05" y="-425" font-family="Arial" font-size="14.00" fill="#666666">[double precision]</text>
<polygon fill="none" stroke="black" points="482.01,-382 482.01,-412.8 700.98,-412.8 700.98,-382 482.01,-382"/>
<text text-anchor="start" x="489.01" y="-394.2" font-family="Arial" font-size="14.00">link_legislation </text>
<text text-anchor="start" x="583.96" y="-394.2" font-family="Arial" font-size="14.00" fill="#666666">[varchar(255)]</text>
<polygon fill="none" stroke="black" points="482.01,-351.2 482.01,-382 700.98,-382 700.98,-351.2 482.01,-351.2"/>
<text text-anchor="start" x="489.01" y="-363.4" font-family="Arial" font-size="14.00">linkpsb </text>
<text text-anchor="start" x="536.48" y="-363.4" font-family="Arial" font-size="14.00" fill="#666666">[varchar(255)]</text>
<polygon fill="none" stroke="black" points="482.01,-320.4 482.01,-351.2 700.98,-351.2 700.98,-320.4 482.01,-320.4"/>
<text text-anchor="start" x="489.01" y="-332.6" font-family="Arial" font-size="14.00">logo_path </text>
<text text-anchor="start" x="554.41" y="-332.6" font-family="Arial" font-size="14.00" fill="#666666">[varchar(255)]</text>
<polygon fill="none" stroke="black" points="482.01,-289.6 482.01,-320.4 700.98,-320.4 700.98,-289.6 482.01,-289.6"/>
<text text-anchor="start" x="489.01" y="-301.8" font-family="Arial" font-size="14.00">longitude </text>
<text text-anchor="start" x="549.73" y="-301.8" font-family="Arial" font-size="14.00" fill="#666666">[double precision]</text>
<polygon fill="none" stroke="black" points="482.01,-258.8 482.01,-289.6 700.98,-289.6 700.98,-258.8 482.01,-258.8"/>
<text text-anchor="start" x="489.01" y="-271" font-family="Arial" font-size="14.00">name </text>
<text text-anchor="start" x="527.92" y="-271" font-family="Arial" font-size="14.00" fill="#666666">[varchar(255)]</text>
<polygon fill="none" stroke="black" points="482.01,-228 482.01,-258.8 700.98,-258.8 700.98,-228 482.01,-228"/>
<text text-anchor="start" x="489.01" y="-240.2" font-family="Arial" font-size="14.00">neighborhood </text>
<text text-anchor="start" x="578.54" y="-240.2" font-family="Arial" font-size="14.00" fill="#666666">[varchar(100)]</text>
<polygon fill="none" stroke="black" points="482.01,-197.2 482.01,-228 700.98,-228 700.98,-197.2 482.01,-197.2"/>
<text text-anchor="start" x="489.01" y="-209.4" font-family="Arial" font-size="14.00">number_address </text>
<text text-anchor="start" x="597.97" y="-209.4" font-family="Arial" font-size="14.00" fill="#666666">[varchar(10)]</text>
<polygon fill="none" stroke="black" points="482.01,-166.4 482.01,-197.2 700.98,-197.2 700.98,-166.4 482.01,-166.4"/>
<text text-anchor="start" x="489.01" y="-178.6" font-family="Arial" font-size="14.00">state </text>
<text text-anchor="start" x="523.26" y="-178.6" font-family="Arial" font-size="14.00" fill="#666666">[varchar(100)]</text>
<polygon fill="none" stroke="black" points="482.01,-135.6 482.01,-166.4 700.98,-166.4 700.98,-135.6 482.01,-135.6"/>
<text text-anchor="start" x="489.01" y="-147.8" font-family="Arial" font-size="14.00">street </text>
<text text-anchor="start" x="527.92" y="-147.8" font-family="Arial" font-size="14.00" fill="#666666">[varchar(255)]</text>
<polygon fill="none" stroke="black" points="482.01,-104.8 482.01,-135.6 700.98,-135.6 700.98,-104.8 482.01,-104.8"/>
<text text-anchor="start" x="489.01" y="-117" font-family="Arial" font-size="14.00">zip_code </text>
<text text-anchor="start" x="548.94" y="-117" font-family="Arial" font-size="14.00" fill="#666666">[varchar(9)]</text>
<polygon fill="none" stroke="black" points="482.01,-74 482.01,-104.8 700.98,-104.8 700.98,-74 482.01,-74"/>
<text text-anchor="start" x="489.01" y="-86.2" font-family="Arial" font-size="14.00">client_id </text>
<text text-anchor="start" x="544.27" y="-86.2" font-family="Arial" font-size="14.00" fill="#666666">[bigint]</text>
<polygon fill="none" stroke="black" points="482.01,-43.2 482.01,-74 700.98,-74 700.98,-43.2 482.01,-43.2"/>
<text text-anchor="start" x="489.01" y="-55.4" font-family="Arial" font-size="14.00">status_id </text>
<text text-anchor="start" x="548.94" y="-55.4" font-family="Arial" font-size="14.00" fill="#666666">[bigint]</text>
</g>
<!-- public.psb_folders&#45;&gt;public.dam -->
<g id="edge4" class="edge">
<title>public.psb_folders:dam_id&#45;&gt;public.dam:id</title>
<path fill="none" stroke="black" d="M556.56,-709.81C569.52,-700.86 557.43,-670.66 545.63,-650.8 529.04,-622.87 498.53,-642.78 482.01,-614.8 460.73,-578.74 439.14,-520.6 481.01,-520.6"/>
<polygon fill="black" stroke="black" points="556.63,-709.8 545.82,-707.96 551.46,-711.14 547.27,-712.23 547.27,-712.23 547.27,-712.23 551.46,-711.14 548.08,-716.67 556.63,-709.8"/>
<text text-anchor="start" x="553.63" y="-722.4" font-family="Arial" font-size="10.00">FOREIGN KEY (dam_id) REFERENCES dam(id)</text>
</g>
<!-- public.psb_files -->
<g id="node2" class="node">
<title>public.psb_files</title>
<polygon fill="#efefef" stroke="none" points="43.87,-1474 43.87,-1509.6 341.13,-1509.6 341.13,-1474 43.87,-1474"/>
<polygon fill="none" stroke="black" points="43.87,-1474 43.87,-1509.6 341.13,-1509.6 341.13,-1474 43.87,-1474"/>
<text text-anchor="start" x="73.01" y="-1487.4" font-family="Arial Bold" font-size="18.00">public.psb_files</text>
<text text-anchor="start" x="187.5" y="-1487.4" font-family="Arial" font-size="14.00">    </text>
<text text-anchor="start" x="218.62" y="-1487.4" font-family="Arial" font-size="14.00" fill="#666666">[BASE TABLE]</text>
<polygon fill="none" stroke="black" points="43.87,-1443.2 43.87,-1474 341.13,-1474 341.13,-1443.2 43.87,-1443.2"/>
<text text-anchor="start" x="50.87" y="-1455.4" font-family="Arial" font-size="14.00">id </text>
<text text-anchor="start" x="65.66" y="-1455.4" font-family="Arial" font-size="14.00" fill="#666666">[bigint]</text>
<polygon fill="none" stroke="black" points="43.87,-1412.4 43.87,-1443.2 341.13,-1443.2 341.13,-1412.4 43.87,-1412.4"/>
<text text-anchor="start" x="50.87" y="-1424.6" font-family="Arial" font-size="14.00">content_type </text>
<text text-anchor="start" x="134.93" y="-1424.6" font-family="Arial" font-size="14.00" fill="#666666">[varchar(255)]</text>
<polygon fill="none" stroke="black" points="43.87,-1381.6 43.87,-1412.4 341.13,-1412.4 341.13,-1381.6 43.87,-1381.6"/>
<text text-anchor="start" x="50.87" y="-1393.8" font-family="Arial" font-size="14.00">download_url </text>
<text text-anchor="start" x="138.04" y="-1393.8" font-family="Arial" font-size="14.00" fill="#666666">[varchar(255)]</text>
<polygon fill="none" stroke="black" points="43.87,-1350.8 43.87,-1381.6 341.13,-1381.6 341.13,-1350.8 43.87,-1350.8"/>
<text text-anchor="start" x="50.87" y="-1363" font-family="Arial" font-size="14.00">file_path </text>
<text text-anchor="start" x="107.69" y="-1363" font-family="Arial" font-size="14.00" fill="#666666">[varchar(255)]</text>
<polygon fill="none" stroke="black" points="43.87,-1320 43.87,-1350.8 341.13,-1350.8 341.13,-1320 43.87,-1320"/>
<text text-anchor="start" x="50.87" y="-1332.2" font-family="Arial" font-size="14.00">filename </text>
<text text-anchor="start" x="107.68" y="-1332.2" font-family="Arial" font-size="14.00" fill="#666666">[varchar(255)]</text>
<polygon fill="none" stroke="black" points="43.87,-1289.2 43.87,-1320 341.13,-1320 341.13,-1289.2 43.87,-1289.2"/>
<text text-anchor="start" x="50.87" y="-1301.4" font-family="Arial" font-size="14.00">original_filename </text>
<text text-anchor="start" x="160.6" y="-1301.4" font-family="Arial" font-size="14.00" fill="#666666">[varchar(255)]</text>
<polygon fill="none" stroke="black" points="43.87,-1258.4 43.87,-1289.2 341.13,-1289.2 341.13,-1258.4 43.87,-1258.4"/>
<text text-anchor="start" x="50.87" y="-1270.6" font-family="Arial" font-size="14.00">size </text>
<text text-anchor="start" x="79.66" y="-1270.6" font-family="Arial" font-size="14.00" fill="#666666">[bigint]</text>
<polygon fill="none" stroke="black" points="43.87,-1227.6 43.87,-1258.4 341.13,-1258.4 341.13,-1227.6 43.87,-1227.6"/>
<text text-anchor="start" x="50.87" y="-1239.8" font-family="Arial" font-size="14.00">uploaded_at </text>
<text text-anchor="start" x="131.83" y="-1239.8" font-family="Arial" font-size="14.00" fill="#666666">[timestamp(6) without time zone]</text>
<polygon fill="none" stroke="black" points="43.87,-1196.8 43.87,-1227.6 341.13,-1227.6 341.13,-1196.8 43.87,-1196.8"/>
<text text-anchor="start" x="50.87" y="-1209" font-family="Arial" font-size="14.00">psb_folder_id </text>
<text text-anchor="start" x="138.82" y="-1209" font-family="Arial" font-size="14.00" fill="#666666">[bigint]</text>
<polygon fill="none" stroke="black" points="43.87,-1166 43.87,-1196.8 341.13,-1196.8 341.13,-1166 43.87,-1166"/>
<text text-anchor="start" x="50.87" y="-1178.2" font-family="Arial" font-size="14.00">uploaded_by_id </text>
<text text-anchor="start" x="153.63" y="-1178.2" font-family="Arial" font-size="14.00" fill="#666666">[bigint]</text>
</g>
<!-- public.psb_files&#45;&gt;public.psb_folders -->
<g id="edge1" class="edge">
<title>public.psb_files:psb_folder_id&#45;&gt;public.psb_folders:id</title>
<path fill="none" stroke="black" d="M352.15,-1210.66C378.21,-1201.4 361.15,-1152.55 341.13,-1122.8 318.05,-1088.5 278.43,-1121.11 255.37,-1086.8 231.27,-1050.95 211.17,-989.6 254.37,-989.6"/>
<polygon fill="black" stroke="black" points="352.34,-1210.63 341.78,-1207.7 347.07,-1211.44 342.79,-1212.1 342.79,-1212.1 342.79,-1212.1 347.07,-1211.44 343.14,-1216.6 352.34,-1210.63"/>
<text text-anchor="start" x="349.13" y="-1222.2" font-family="Arial" font-size="10.00">FOREIGN KEY (psb_folder_id) REFERENCES psb_folders(id)</text>
</g>
<!-- public.share_folders -->
<g id="node3" class="node">
<title>public.share_folders</title>
<polygon fill="#efefef" stroke="none" points="445.32,-1458.6 445.32,-1494.2 773.68,-1494.2 773.68,-1458.6 445.32,-1458.6"/>
<polygon fill="none" stroke="black" points="445.32,-1458.6 445.32,-1494.2 773.68,-1494.2 773.68,-1458.6 445.32,-1458.6"/>
<text text-anchor="start" x="474.03" y="-1472" font-family="Arial Bold" font-size="18.00">public.share_folders</text>
<text text-anchor="start" x="620.48" y="-1472" font-family="Arial" font-size="14.00">    </text>
<text text-anchor="start" x="651.6" y="-1472" font-family="Arial" font-size="14.00" fill="#666666">[BASE TABLE]</text>
<polygon fill="none" stroke="black" points="445.32,-1427.8 445.32,-1458.6 773.68,-1458.6 773.68,-1427.8 445.32,-1427.8"/>
<text text-anchor="start" x="452.32" y="-1440" font-family="Arial" font-size="14.00">id </text>
<text text-anchor="start" x="467.1" y="-1440" font-family="Arial" font-size="14.00" fill="#666666">[bigint]</text>
<polygon fill="none" stroke="black" points="445.32,-1397 445.32,-1427.8 773.68,-1427.8 773.68,-1397 445.32,-1397"/>
<text text-anchor="start" x="452.32" y="-1409.2" font-family="Arial" font-size="14.00">access_count </text>
<text text-anchor="start" x="541.81" y="-1409.2" font-family="Arial" font-size="14.00" fill="#666666">[integer]</text>
<polygon fill="none" stroke="black" points="445.32,-1366.2 445.32,-1397 773.68,-1397 773.68,-1366.2 445.32,-1366.2"/>
<text text-anchor="start" x="452.32" y="-1378.4" font-family="Arial" font-size="14.00">created_at </text>
<text text-anchor="start" x="522.37" y="-1378.4" font-family="Arial" font-size="14.00" fill="#666666">[timestamp(6) without time zone]</text>
<polygon fill="none" stroke="black" points="445.32,-1335.4 445.32,-1366.2 773.68,-1366.2 773.68,-1335.4 445.32,-1335.4"/>
<text text-anchor="start" x="452.32" y="-1347.6" font-family="Arial" font-size="14.00">expires_at </text>
<text text-anchor="start" x="520.8" y="-1347.6" font-family="Arial" font-size="14.00" fill="#666666">[timestamp(6) without time zone]</text>
<polygon fill="none" stroke="black" points="445.32,-1304.6 445.32,-1335.4 773.68,-1335.4 773.68,-1304.6 445.32,-1304.6"/>
<text text-anchor="start" x="452.32" y="-1316.8" font-family="Arial" font-size="14.00">last_accessed_at </text>
<text text-anchor="start" x="564.39" y="-1316.8" font-family="Arial" font-size="14.00" fill="#666666">[timestamp(6) without time zone]</text>
<polygon fill="none" stroke="black" points="445.32,-1273.8 445.32,-1304.6 773.68,-1304.6 773.68,-1273.8 445.32,-1273.8"/>
<text text-anchor="start" x="452.32" y="-1286" font-family="Arial" font-size="14.00">shared_with_email </text>
<text text-anchor="start" x="572.94" y="-1286" font-family="Arial" font-size="14.00" fill="#666666">[varchar(255)]</text>
<polygon fill="none" stroke="black" points="445.32,-1243 445.32,-1273.8 773.68,-1273.8 773.68,-1243 445.32,-1243"/>
<text text-anchor="start" x="452.32" y="-1255.2" font-family="Arial" font-size="14.00">token </text>
<text text-anchor="start" x="490.45" y="-1255.2" font-family="Arial" font-size="14.00" fill="#666666">[varchar(36)]</text>
<polygon fill="none" stroke="black" points="445.32,-1212.2 445.32,-1243 773.68,-1243 773.68,-1212.2 445.32,-1212.2"/>
<text text-anchor="start" x="452.32" y="-1224.4" font-family="Arial" font-size="14.00">psb_folder_id </text>
<text text-anchor="start" x="540.27" y="-1224.4" font-family="Arial" font-size="14.00" fill="#666666">[bigint]</text>
<polygon fill="none" stroke="black" points="445.32,-1181.4 445.32,-1212.2 773.68,-1212.2 773.68,-1181.4 445.32,-1181.4"/>
<text text-anchor="start" x="452.32" y="-1193.6" font-family="Arial" font-size="14.00">shared_by_id </text>
<text text-anchor="start" x="540.27" y="-1193.6" font-family="Arial" font-size="14.00" fill="#666666">[bigint]</text>
</g>
<!-- public.share_folders&#45;&gt;public.psb_folders -->
<g id="edge2" class="edge">
<title>public.share_folders:psb_folder_id&#45;&gt;public.psb_folders:id</title>
<path fill="none" stroke="black" d="M434.33,-1226.08C408.46,-1216.95 426.45,-1168.69 445.32,-1138.2 471.68,-1095.6 519.28,-1129.41 545.63,-1086.8 568.35,-1050.05 589.83,-989.6 546.63,-989.6"/>
<polygon fill="black" stroke="black" points="434.1,-1226.05 443.31,-1232 439.37,-1226.85 443.66,-1227.5 443.66,-1227.5 443.66,-1227.5 439.37,-1226.85 444.66,-1223.1 434.1,-1226.05"/>
<text text-anchor="start" x="451.32" y="-1237.6" font-family="Arial" font-size="10.00">FOREIGN KEY (psb_folder_id) REFERENCES psb_folders(id)</text>
</g>
</g>
</svg>
