<?xml version="1.0" encoding="UTF-8" standalone="no"?>
<!DOCTYPE svg PUBLIC "-//W3C//DTD SVG 1.1//EN"
 "http://www.w3.org/Graphics/SVG/1.1/DTD/svg11.dtd">
<!-- Generated by graphviz version 12.1.2 (20240928.0832)
 -->
<!-- Title: public.roles Pages: 1 -->
<svg width="619pt" height="756pt"
 viewBox="0.00 0.00 618.62 756.00" xmlns="http://www.w3.org/2000/svg" xmlns:xlink="http://www.w3.org/1999/xlink">
<g id="graph0" class="graph" transform="scale(1 1) rotate(0) translate(4 752)">
<title>public.roles</title>
<polygon fill="white" stroke="none" points="-4,4 -4,-752 614.62,-752 614.62,4 -4,4"/>
<!-- public.roles -->
<g id="node1" class="node">
<title>public.roles</title>
<polygon fill="#efefef" stroke="none" points="99.01,-138.6 99.01,-174.2 321.98,-174.2 321.98,-138.6 99.01,-138.6"/>
<polygon fill="none" stroke="black" points="99.01,-138.6 99.01,-174.2 321.98,-174.2 321.98,-138.6 99.01,-138.6"/>
<text text-anchor="start" x="106.01" y="-152" font-family="Arial Bold" font-size="18.00">public.roles</text>
<text text-anchor="start" x="190.49" y="-152" font-family="Arial" font-size="14.00">    </text>
<text text-anchor="start" x="221.61" y="-152" font-family="Arial" font-size="14.00" fill="#666666">[BASE TABLE]</text>
<polygon fill="none" stroke="black" points="99.01,-107.8 99.01,-138.6 321.98,-138.6 321.98,-107.8 99.01,-107.8"/>
<text text-anchor="start" x="106.01" y="-120" font-family="Arial" font-size="14.00">id </text>
<text text-anchor="start" x="120.8" y="-120" font-family="Arial" font-size="14.00" fill="#666666">[bigint]</text>
<polygon fill="none" stroke="black" points="99.01,-77 99.01,-107.8 321.98,-107.8 321.98,-77 99.01,-77"/>
<text text-anchor="start" x="106.01" y="-89.2" font-family="Arial" font-size="14.00">description </text>
<text text-anchor="start" x="177.61" y="-89.2" font-family="Arial" font-size="14.00" fill="#666666">[varchar(255)]</text>
<polygon fill="none" stroke="black" points="99.01,-46.2 99.01,-77 321.98,-77 321.98,-46.2 99.01,-46.2"/>
<text text-anchor="start" x="106.01" y="-58.4" font-family="Arial" font-size="14.00">name </text>
<text text-anchor="start" x="144.92" y="-58.4" font-family="Arial" font-size="14.00" fill="#666666">[varchar(255)]</text>
<polygon fill="none" stroke="black" stroke-width="3" points="97.51,-44.7 97.51,-175.7 323.48,-175.7 323.48,-44.7 97.51,-44.7"/>
</g>
<!-- public.users -->
<g id="node2" class="node">
<title>public.users</title>
<polygon fill="#efefef" stroke="none" points="43.2,-669.2 43.2,-704.8 377.8,-704.8 377.8,-669.2 43.2,-669.2"/>
<polygon fill="none" stroke="black" points="43.2,-669.2 43.2,-704.8 377.8,-704.8 377.8,-669.2 43.2,-669.2"/>
<text text-anchor="start" x="105.01" y="-682.6" font-family="Arial Bold" font-size="18.00">public.users</text>
<text text-anchor="start" x="191.5" y="-682.6" font-family="Arial" font-size="14.00">    </text>
<text text-anchor="start" x="222.61" y="-682.6" font-family="Arial" font-size="14.00" fill="#666666">[BASE TABLE]</text>
<polygon fill="none" stroke="black" points="43.2,-638.4 43.2,-669.2 377.8,-669.2 377.8,-638.4 43.2,-638.4"/>
<text text-anchor="start" x="50.2" y="-650.6" font-family="Arial" font-size="14.00">id </text>
<text text-anchor="start" x="64.99" y="-650.6" font-family="Arial" font-size="14.00" fill="#666666">[bigint]</text>
<polygon fill="none" stroke="black" points="43.2,-607.6 43.2,-638.4 377.8,-638.4 377.8,-607.6 43.2,-607.6"/>
<text text-anchor="start" x="50.2" y="-619.8" font-family="Arial" font-size="14.00">email </text>
<text text-anchor="start" x="87.54" y="-619.8" font-family="Arial" font-size="14.00" fill="#666666">[varchar(255)]</text>
<polygon fill="none" stroke="black" points="43.2,-576.8 43.2,-607.6 377.8,-607.6 377.8,-576.8 43.2,-576.8"/>
<text text-anchor="start" x="50.2" y="-589" font-family="Arial" font-size="14.00">is_first_access </text>
<text text-anchor="start" x="145.9" y="-589" font-family="Arial" font-size="14.00" fill="#666666">[boolean]</text>
<polygon fill="none" stroke="black" points="43.2,-546 43.2,-576.8 377.8,-576.8 377.8,-546 43.2,-546"/>
<text text-anchor="start" x="50.2" y="-558.2" font-family="Arial" font-size="14.00">last_token </text>
<text text-anchor="start" x="117.91" y="-558.2" font-family="Arial" font-size="14.00" fill="#666666">[text]</text>
<polygon fill="none" stroke="black" points="43.2,-515.2 43.2,-546 377.8,-546 377.8,-515.2 43.2,-515.2"/>
<text text-anchor="start" x="50.2" y="-527.4" font-family="Arial" font-size="14.00">name </text>
<text text-anchor="start" x="89.11" y="-527.4" font-family="Arial" font-size="14.00" fill="#666666">[varchar(255)]</text>
<polygon fill="none" stroke="black" points="43.2,-484.4 43.2,-515.2 377.8,-515.2 377.8,-484.4 43.2,-484.4"/>
<text text-anchor="start" x="50.2" y="-496.6" font-family="Arial" font-size="14.00">password </text>
<text text-anchor="start" x="114.01" y="-496.6" font-family="Arial" font-size="14.00" fill="#666666">[varchar(255)]</text>
<polygon fill="none" stroke="black" points="43.2,-453.6 43.2,-484.4 377.8,-484.4 377.8,-453.6 43.2,-453.6"/>
<text text-anchor="start" x="50.2" y="-465.8" font-family="Arial" font-size="14.00">phone </text>
<text text-anchor="start" x="93.02" y="-465.8" font-family="Arial" font-size="14.00" fill="#666666">[varchar(11)]</text>
<polygon fill="none" stroke="black" points="43.2,-422.8 43.2,-453.6 377.8,-453.6 377.8,-422.8 43.2,-422.8"/>
<text text-anchor="start" x="50.2" y="-435" font-family="Arial" font-size="14.00">token_expiry_date </text>
<text text-anchor="start" x="168.5" y="-435" font-family="Arial" font-size="14.00" fill="#666666">[timestamp(6) without time zone]</text>
<polygon fill="none" stroke="black" points="43.2,-392 43.2,-422.8 377.8,-422.8 377.8,-392 43.2,-392"/>
<text text-anchor="start" x="50.2" y="-404.2" font-family="Arial" font-size="14.00">created_by_id </text>
<text text-anchor="start" x="142.04" y="-404.2" font-family="Arial" font-size="14.00" fill="#666666">[bigint]</text>
<polygon fill="none" stroke="black" points="43.2,-361.2 43.2,-392 377.8,-392 377.8,-361.2 43.2,-361.2"/>
<text text-anchor="start" x="50.2" y="-373.4" font-family="Arial" font-size="14.00">role_id </text>
<text text-anchor="start" x="96.12" y="-373.4" font-family="Arial" font-size="14.00" fill="#666666">[bigint]</text>
<polygon fill="none" stroke="black" points="43.2,-330.4 43.2,-361.2 377.8,-361.2 377.8,-330.4 43.2,-330.4"/>
<text text-anchor="start" x="50.2" y="-342.6" font-family="Arial" font-size="14.00">sex_id </text>
<text text-anchor="start" x="94.56" y="-342.6" font-family="Arial" font-size="14.00" fill="#666666">[bigint]</text>
<polygon fill="none" stroke="black" points="43.2,-299.6 43.2,-330.4 377.8,-330.4 377.8,-299.6 43.2,-299.6"/>
<text text-anchor="start" x="50.2" y="-311.8" font-family="Arial" font-size="14.00">status_id </text>
<text text-anchor="start" x="110.12" y="-311.8" font-family="Arial" font-size="14.00" fill="#666666">[bigint]</text>
</g>
<!-- public.users&#45;&gt;public.roles -->
<g id="edge1" class="edge">
<title>public.users:role_id&#45;&gt;public.roles:id</title>
<path fill="none" stroke="black" d="M389.11,-375.87C490.57,-361.01 434.7,-123.2 322.98,-123.2"/>
<polygon fill="black" stroke="black" points="389.11,-375.87 378.82,-372.09 383.79,-376.25 379.47,-376.55 379.47,-376.55 379.47,-376.55 383.79,-376.25 379.45,-381.07 389.11,-375.87"/>
<text text-anchor="start" x="385.8" y="-386.6" font-family="Arial" font-size="10.00">FOREIGN KEY (role_id) REFERENCES roles(id)</text>
</g>
</g>
</svg>
