<?xml version="1.0" encoding="UTF-8" standalone="no"?>
<!DOCTYPE svg PUBLIC "-//W3C//DTD SVG 1.1//EN"
 "http://www.w3.org/Graphics/SVG/1.1/DTD/svg11.dtd">
<!-- Generated by graphviz version 12.1.2 (20240928.0832)
 -->
<!-- Title: public.anomaly_photos Pages: 1 -->
<svg width="485pt" height="818pt"
 viewBox="0.00 0.00 484.53 817.60" xmlns="http://www.w3.org/2000/svg" xmlns:xlink="http://www.w3.org/1999/xlink">
<g id="graph0" class="graph" transform="scale(1 1) rotate(0) translate(4 813.6)">
<title>public.anomaly_photos</title>
<polygon fill="white" stroke="none" points="-4,4 -4,-813.6 480.53,-813.6 480.53,4 -4,4"/>
<!-- public.anomaly_photos -->
<g id="node1" class="node">
<title>public.anomaly_photos</title>
<polygon fill="#efefef" stroke="none" points="123.37,-727.8 123.37,-763.4 430.33,-763.4 430.33,-727.8 123.37,-727.8"/>
<polygon fill="none" stroke="black" points="123.37,-727.8 123.37,-763.4 430.33,-763.4 430.33,-727.8 123.37,-727.8"/>
<text text-anchor="start" x="130.37" y="-741.2" font-family="Arial Bold" font-size="18.00">public.anomaly_photos</text>
<text text-anchor="start" x="298.85" y="-741.2" font-family="Arial" font-size="14.00">    </text>
<text text-anchor="start" x="329.96" y="-741.2" font-family="Arial" font-size="14.00" fill="#666666">[BASE TABLE]</text>
<polygon fill="none" stroke="black" points="123.37,-697 123.37,-727.8 430.33,-727.8 430.33,-697 123.37,-697"/>
<text text-anchor="start" x="130.37" y="-709.2" font-family="Arial" font-size="14.00">id </text>
<text text-anchor="start" x="145.15" y="-709.2" font-family="Arial" font-size="14.00" fill="#666666">[bigint]</text>
<polygon fill="none" stroke="black" points="123.37,-666.2 123.37,-697 430.33,-697 430.33,-666.2 123.37,-666.2"/>
<text text-anchor="start" x="130.37" y="-678.4" font-family="Arial" font-size="14.00">dam_id </text>
<text text-anchor="start" x="180.17" y="-678.4" font-family="Arial" font-size="14.00" fill="#666666">[bigint]</text>
<polygon fill="none" stroke="black" points="123.37,-635.4 123.37,-666.2 430.33,-666.2 430.33,-635.4 123.37,-635.4"/>
<text text-anchor="start" x="130.37" y="-647.6" font-family="Arial" font-size="14.00">image_path </text>
<text text-anchor="start" x="207.42" y="-647.6" font-family="Arial" font-size="14.00" fill="#666666">[varchar(255)]</text>
<polygon fill="none" stroke="black" points="123.37,-604.6 123.37,-635.4 430.33,-635.4 430.33,-604.6 123.37,-604.6"/>
<text text-anchor="start" x="130.37" y="-616.8" font-family="Arial" font-size="14.00">anomaly_id </text>
<text text-anchor="start" x="205.86" y="-616.8" font-family="Arial" font-size="14.00" fill="#666666">[bigint]</text>
<polygon fill="none" stroke="black" stroke-width="3" points="121.87,-603.1 121.87,-764.9 431.83,-764.9 431.83,-603.1 121.87,-603.1"/>
</g>
<!-- public.anomalies -->
<g id="node2" class="node">
<title>public.anomalies</title>
<polygon fill="#efefef" stroke="none" points="133.68,-443.6 133.68,-479.2 420.02,-479.2 420.02,-443.6 133.68,-443.6"/>
<polygon fill="none" stroke="black" points="133.68,-443.6 133.68,-479.2 420.02,-479.2 420.02,-443.6 133.68,-443.6"/>
<text text-anchor="start" x="153.37" y="-457" font-family="Arial Bold" font-size="18.00">public.anomalies</text>
<text text-anchor="start" x="275.84" y="-457" font-family="Arial" font-size="14.00">    </text>
<text text-anchor="start" x="306.96" y="-457" font-family="Arial" font-size="14.00" fill="#666666">[BASE TABLE]</text>
<polygon fill="none" stroke="black" points="133.68,-412.8 133.68,-443.6 420.02,-443.6 420.02,-412.8 133.68,-412.8"/>
<text text-anchor="start" x="140.68" y="-425" font-family="Arial" font-size="14.00">id </text>
<text text-anchor="start" x="155.47" y="-425" font-family="Arial" font-size="14.00" fill="#666666">[bigint]</text>
<polygon fill="none" stroke="black" points="133.68,-382 133.68,-412.8 420.02,-412.8 420.02,-382 133.68,-382"/>
<text text-anchor="start" x="140.68" y="-394.2" font-family="Arial" font-size="14.00">created_at </text>
<text text-anchor="start" x="210.73" y="-394.2" font-family="Arial" font-size="14.00" fill="#666666">[timestamp(6) without time zone]</text>
<polygon fill="none" stroke="black" points="133.68,-351.2 133.68,-382 420.02,-382 420.02,-351.2 133.68,-351.2"/>
<text text-anchor="start" x="140.68" y="-363.4" font-family="Arial" font-size="14.00">latitude </text>
<text text-anchor="start" x="189.71" y="-363.4" font-family="Arial" font-size="14.00" fill="#666666">[double precision]</text>
<polygon fill="none" stroke="black" points="133.68,-320.4 133.68,-351.2 420.02,-351.2 420.02,-320.4 133.68,-320.4"/>
<text text-anchor="start" x="140.68" y="-332.6" font-family="Arial" font-size="14.00">longitude </text>
<text text-anchor="start" x="201.4" y="-332.6" font-family="Arial" font-size="14.00" fill="#666666">[double precision]</text>
<polygon fill="none" stroke="black" points="133.68,-289.6 133.68,-320.4 420.02,-320.4 420.02,-289.6 133.68,-289.6"/>
<text text-anchor="start" x="140.68" y="-301.8" font-family="Arial" font-size="14.00">observation </text>
<text text-anchor="start" x="216.95" y="-301.8" font-family="Arial" font-size="14.00" fill="#666666">[text]</text>
<polygon fill="none" stroke="black" points="133.68,-258.8 133.68,-289.6 420.02,-289.6 420.02,-258.8 133.68,-258.8"/>
<text text-anchor="start" x="140.68" y="-271" font-family="Arial" font-size="14.00">origin </text>
<text text-anchor="start" x="178.81" y="-271" font-family="Arial" font-size="14.00" fill="#666666">[varchar(255)]</text>
<polygon fill="none" stroke="black" points="133.68,-228 133.68,-258.8 420.02,-258.8 420.02,-228 133.68,-228"/>
<text text-anchor="start" x="140.68" y="-240.2" font-family="Arial" font-size="14.00">question_id </text>
<text text-anchor="start" x="216.18" y="-240.2" font-family="Arial" font-size="14.00" fill="#666666">[bigint]</text>
<polygon fill="none" stroke="black" points="133.68,-197.2 133.68,-228 420.02,-228 420.02,-197.2 133.68,-197.2"/>
<text text-anchor="start" x="140.68" y="-209.4" font-family="Arial" font-size="14.00">questionnaire_id </text>
<text text-anchor="start" x="247.31" y="-209.4" font-family="Arial" font-size="14.00" fill="#666666">[bigint]</text>
<polygon fill="none" stroke="black" points="133.68,-166.4 133.68,-197.2 420.02,-197.2 420.02,-166.4 133.68,-166.4"/>
<text text-anchor="start" x="140.68" y="-178.6" font-family="Arial" font-size="14.00">recommendation </text>
<text text-anchor="start" x="248.84" y="-178.6" font-family="Arial" font-size="14.00" fill="#666666">[text]</text>
<polygon fill="none" stroke="black" points="133.68,-135.6 133.68,-166.4 420.02,-166.4 420.02,-135.6 133.68,-135.6"/>
<text text-anchor="start" x="140.68" y="-147.8" font-family="Arial" font-size="14.00">dam_id </text>
<text text-anchor="start" x="190.49" y="-147.8" font-family="Arial" font-size="14.00" fill="#666666">[bigint]</text>
<polygon fill="none" stroke="black" points="133.68,-104.8 133.68,-135.6 420.02,-135.6 420.02,-104.8 133.68,-104.8"/>
<text text-anchor="start" x="140.68" y="-117" font-family="Arial" font-size="14.00">danger_level_id </text>
<text text-anchor="start" x="243.42" y="-117" font-family="Arial" font-size="14.00" fill="#666666">[bigint]</text>
<polygon fill="none" stroke="black" points="133.68,-74 133.68,-104.8 420.02,-104.8 420.02,-74 133.68,-74"/>
<text text-anchor="start" x="140.68" y="-86.2" font-family="Arial" font-size="14.00">status_id </text>
<text text-anchor="start" x="200.6" y="-86.2" font-family="Arial" font-size="14.00" fill="#666666">[bigint]</text>
<polygon fill="none" stroke="black" points="133.68,-43.2 133.68,-74 420.02,-74 420.02,-43.2 133.68,-43.2"/>
<text text-anchor="start" x="140.68" y="-55.4" font-family="Arial" font-size="14.00">user_id </text>
<text text-anchor="start" x="190.49" y="-55.4" font-family="Arial" font-size="14.00" fill="#666666">[bigint]</text>
</g>
<!-- public.anomaly_photos&#45;&gt;public.anomalies -->
<g id="edge1" class="edge">
<title>public.anomaly_photos:anomaly_id&#45;&gt;public.anomalies:id</title>
<path fill="none" stroke="black" d="M277.65,-593.41C287.44,-535.73 384.76,-582.22 420.02,-522.4 441.29,-486.33 462.89,-428.2 421.02,-428.2"/>
<polygon fill="black" stroke="black" points="277.66,-593.3 272.39,-602.92 277.24,-598.62 276.9,-602.93 276.9,-602.93 276.9,-602.93 277.24,-598.62 281.36,-603.62 277.66,-593.3"/>
<text text-anchor="start" x="7" y="-613.6" font-family="Arial" font-size="10.00">FOREIGN KEY (anomaly_id) REFERENCES anomalies(id)</text>
</g>
</g>
</svg>
