<?xml version="1.0" encoding="UTF-8" standalone="no"?>
<!DOCTYPE svg PUBLIC "-//W3C//DTD SVG 1.1//EN"
 "http://www.w3.org/Graphics/SVG/1.1/DTD/svg11.dtd">
<!-- Generated by graphviz version 12.1.2 (20240928.0832)
 -->
<!-- Title: public.instrument Pages: 1 -->
<svg width="2968pt" height="1838pt"
 viewBox="0.00 0.00 2968.36 1838.00" xmlns="http://www.w3.org/2000/svg" xmlns:xlink="http://www.w3.org/1999/xlink">
<g id="graph0" class="graph" transform="scale(1 1) rotate(0) translate(4 1834)">
<title>public.instrument</title>
<polygon fill="white" stroke="none" points="-4,4 -4,-1834 2964.36,-1834 2964.36,4 -4,4"/>
<!-- public.instrument -->
<g id="node1" class="node">
<title>public.instrument</title>
<polygon fill="#efefef" stroke="none" points="1326.47,-1159 1326.47,-1194.6 1717.9,-1194.6 1717.9,-1159 1326.47,-1159"/>
<polygon fill="none" stroke="black" points="1326.47,-1159 1326.47,-1194.6 1717.9,-1194.6 1717.9,-1159 1326.47,-1159"/>
<text text-anchor="start" x="1396.7" y="-1172.4" font-family="Arial Bold" font-size="18.00">public.instrument</text>
<text text-anchor="start" x="1523.18" y="-1172.4" font-family="Arial" font-size="14.00">    </text>
<text text-anchor="start" x="1554.3" y="-1172.4" font-family="Arial" font-size="14.00" fill="#666666">[BASE TABLE]</text>
<polygon fill="none" stroke="black" points="1326.47,-1128.2 1326.47,-1159 1717.9,-1159 1717.9,-1128.2 1326.47,-1128.2"/>
<text text-anchor="start" x="1333.47" y="-1140.4" font-family="Arial" font-size="14.00">id </text>
<text text-anchor="start" x="1348.26" y="-1140.4" font-family="Arial" font-size="14.00" fill="#666666">[bigint]</text>
<polygon fill="none" stroke="black" points="1326.47,-1097.4 1326.47,-1128.2 1717.9,-1128.2 1717.9,-1097.4 1326.47,-1097.4"/>
<text text-anchor="start" x="1333.47" y="-1109.6" font-family="Arial" font-size="14.00">active </text>
<text text-anchor="start" x="1373.93" y="-1109.6" font-family="Arial" font-size="14.00" fill="#666666">[boolean]</text>
<polygon fill="none" stroke="black" points="1326.47,-1066.6 1326.47,-1097.4 1717.9,-1097.4 1717.9,-1066.6 1326.47,-1066.6"/>
<text text-anchor="start" x="1333.47" y="-1078.8" font-family="Arial" font-size="14.00">active_for_section </text>
<text text-anchor="start" x="1450.2" y="-1078.8" font-family="Arial" font-size="14.00" fill="#666666">[boolean]</text>
<polygon fill="none" stroke="black" points="1326.47,-1035.8 1326.47,-1066.6 1717.9,-1066.6 1717.9,-1035.8 1326.47,-1035.8"/>
<text text-anchor="start" x="1333.47" y="-1048" font-family="Arial" font-size="14.00">distance_offset </text>
<text text-anchor="start" x="1431.53" y="-1048" font-family="Arial" font-size="14.00" fill="#666666">[double precision]</text>
<polygon fill="none" stroke="black" points="1326.47,-1005 1326.47,-1035.8 1717.9,-1035.8 1717.9,-1005 1326.47,-1005"/>
<text text-anchor="start" x="1333.47" y="-1017.2" font-family="Arial" font-size="14.00">is_linimetric_ruler </text>
<text text-anchor="start" x="1446.28" y="-1017.2" font-family="Arial" font-size="14.00" fill="#666666">[boolean]</text>
<polygon fill="none" stroke="black" points="1326.47,-974.2 1326.47,-1005 1717.9,-1005 1717.9,-974.2 1326.47,-974.2"/>
<text text-anchor="start" x="1333.47" y="-986.4" font-family="Arial" font-size="14.00">last_update_variables_date </text>
<text text-anchor="start" x="1508.6" y="-986.4" font-family="Arial" font-size="14.00" fill="#666666">[timestamp(6) without time zone]</text>
<polygon fill="none" stroke="black" points="1326.47,-943.4 1326.47,-974.2 1717.9,-974.2 1717.9,-943.4 1326.47,-943.4"/>
<text text-anchor="start" x="1333.47" y="-955.6" font-family="Arial" font-size="14.00">latitude </text>
<text text-anchor="start" x="1382.5" y="-955.6" font-family="Arial" font-size="14.00" fill="#666666">[double precision]</text>
<polygon fill="none" stroke="black" points="1326.47,-912.6 1326.47,-943.4 1717.9,-943.4 1717.9,-912.6 1326.47,-912.6"/>
<text text-anchor="start" x="1333.47" y="-924.8" font-family="Arial" font-size="14.00">linimetric_ruler_code </text>
<text text-anchor="start" x="1466.52" y="-924.8" font-family="Arial" font-size="14.00" fill="#666666">[bigint]</text>
<polygon fill="none" stroke="black" points="1326.47,-881.8 1326.47,-912.6 1717.9,-912.6 1717.9,-881.8 1326.47,-881.8"/>
<text text-anchor="start" x="1333.47" y="-894" font-family="Arial" font-size="14.00">location </text>
<text text-anchor="start" x="1385.61" y="-894" font-family="Arial" font-size="14.00" fill="#666666">[varchar(255)]</text>
<polygon fill="none" stroke="black" points="1326.47,-851 1326.47,-881.8 1717.9,-881.8 1717.9,-851 1326.47,-851"/>
<text text-anchor="start" x="1333.47" y="-863.2" font-family="Arial" font-size="14.00">longitude </text>
<text text-anchor="start" x="1394.19" y="-863.2" font-family="Arial" font-size="14.00" fill="#666666">[double precision]</text>
<polygon fill="none" stroke="black" points="1326.47,-820.2 1326.47,-851 1717.9,-851 1717.9,-820.2 1326.47,-820.2"/>
<text text-anchor="start" x="1333.47" y="-832.4" font-family="Arial" font-size="14.00">name </text>
<text text-anchor="start" x="1372.38" y="-832.4" font-family="Arial" font-size="14.00" fill="#666666">[varchar(255)]</text>
<polygon fill="none" stroke="black" points="1326.47,-789.4 1326.47,-820.2 1717.9,-820.2 1717.9,-789.4 1326.47,-789.4"/>
<text text-anchor="start" x="1333.47" y="-801.6" font-family="Arial" font-size="14.00">no_limit </text>
<text text-anchor="start" x="1385.6" y="-801.6" font-family="Arial" font-size="14.00" fill="#666666">[boolean]</text>
<polygon fill="none" stroke="black" points="1326.47,-758.6 1326.47,-789.4 1717.9,-789.4 1717.9,-758.6 1326.47,-758.6"/>
<text text-anchor="start" x="1333.47" y="-770.8" font-family="Arial" font-size="14.00">dam_id </text>
<text text-anchor="start" x="1383.28" y="-770.8" font-family="Arial" font-size="14.00" fill="#666666">[bigint]</text>
<polygon fill="none" stroke="black" points="1326.47,-727.8 1326.47,-758.6 1717.9,-758.6 1717.9,-727.8 1326.47,-727.8"/>
<text text-anchor="start" x="1333.47" y="-740" font-family="Arial" font-size="14.00">instrument_type_id </text>
<text text-anchor="start" x="1455.65" y="-740" font-family="Arial" font-size="14.00" fill="#666666">[bigint]</text>
<polygon fill="none" stroke="black" points="1326.47,-697 1326.47,-727.8 1717.9,-727.8 1717.9,-697 1326.47,-697"/>
<text text-anchor="start" x="1333.47" y="-709.2" font-family="Arial" font-size="14.00">section_id </text>
<text text-anchor="start" x="1400.4" y="-709.2" font-family="Arial" font-size="14.00" fill="#666666">[bigint]</text>
<polygon fill="none" stroke="black" stroke-width="3" points="1324.97,-695.5 1324.97,-1196.1 1719.4,-1196.1 1719.4,-695.5 1324.97,-695.5"/>
</g>
<!-- public.dam -->
<g id="node9" class="node">
<title>public.dam</title>
<polygon fill="#efefef" stroke="none" points="1046.7,-536 1046.7,-571.6 1265.67,-571.6 1265.67,-536 1046.7,-536"/>
<polygon fill="none" stroke="black" points="1046.7,-536 1046.7,-571.6 1265.67,-571.6 1265.67,-536 1046.7,-536"/>
<text text-anchor="start" x="1053.7" y="-549.4" font-family="Arial Bold" font-size="18.00">public.dam</text>
<text text-anchor="start" x="1134.18" y="-549.4" font-family="Arial" font-size="14.00">    </text>
<text text-anchor="start" x="1165.3" y="-549.4" font-family="Arial" font-size="14.00" fill="#666666">[BASE TABLE]</text>
<polygon fill="none" stroke="black" points="1046.7,-505.2 1046.7,-536 1265.67,-536 1265.67,-505.2 1046.7,-505.2"/>
<text text-anchor="start" x="1053.7" y="-517.4" font-family="Arial" font-size="14.00">id </text>
<text text-anchor="start" x="1068.48" y="-517.4" font-family="Arial" font-size="14.00" fill="#666666">[bigint]</text>
<polygon fill="none" stroke="black" points="1046.7,-474.4 1046.7,-505.2 1265.67,-505.2 1265.67,-474.4 1046.7,-474.4"/>
<text text-anchor="start" x="1053.7" y="-486.6" font-family="Arial" font-size="14.00">city </text>
<text text-anchor="start" x="1078.59" y="-486.6" font-family="Arial" font-size="14.00" fill="#666666">[varchar(100)]</text>
<polygon fill="none" stroke="black" points="1046.7,-443.6 1046.7,-474.4 1265.67,-474.4 1265.67,-443.6 1046.7,-443.6"/>
<text text-anchor="start" x="1053.7" y="-455.8" font-family="Arial" font-size="14.00">dam_image_path </text>
<text text-anchor="start" x="1165.77" y="-455.8" font-family="Arial" font-size="14.00" fill="#666666">[varchar(255)]</text>
<polygon fill="none" stroke="black" points="1046.7,-412.8 1046.7,-443.6 1265.67,-443.6 1265.67,-412.8 1046.7,-412.8"/>
<text text-anchor="start" x="1053.7" y="-425" font-family="Arial" font-size="14.00">latitude </text>
<text text-anchor="start" x="1102.73" y="-425" font-family="Arial" font-size="14.00" fill="#666666">[double precision]</text>
<polygon fill="none" stroke="black" points="1046.7,-382 1046.7,-412.8 1265.67,-412.8 1265.67,-382 1046.7,-382"/>
<text text-anchor="start" x="1053.7" y="-394.2" font-family="Arial" font-size="14.00">link_legislation </text>
<text text-anchor="start" x="1148.64" y="-394.2" font-family="Arial" font-size="14.00" fill="#666666">[varchar(255)]</text>
<polygon fill="none" stroke="black" points="1046.7,-351.2 1046.7,-382 1265.67,-382 1265.67,-351.2 1046.7,-351.2"/>
<text text-anchor="start" x="1053.7" y="-363.4" font-family="Arial" font-size="14.00">linkpsb </text>
<text text-anchor="start" x="1101.17" y="-363.4" font-family="Arial" font-size="14.00" fill="#666666">[varchar(255)]</text>
<polygon fill="none" stroke="black" points="1046.7,-320.4 1046.7,-351.2 1265.67,-351.2 1265.67,-320.4 1046.7,-320.4"/>
<text text-anchor="start" x="1053.7" y="-332.6" font-family="Arial" font-size="14.00">logo_path </text>
<text text-anchor="start" x="1119.09" y="-332.6" font-family="Arial" font-size="14.00" fill="#666666">[varchar(255)]</text>
<polygon fill="none" stroke="black" points="1046.7,-289.6 1046.7,-320.4 1265.67,-320.4 1265.67,-289.6 1046.7,-289.6"/>
<text text-anchor="start" x="1053.7" y="-301.8" font-family="Arial" font-size="14.00">longitude </text>
<text text-anchor="start" x="1114.41" y="-301.8" font-family="Arial" font-size="14.00" fill="#666666">[double precision]</text>
<polygon fill="none" stroke="black" points="1046.7,-258.8 1046.7,-289.6 1265.67,-289.6 1265.67,-258.8 1046.7,-258.8"/>
<text text-anchor="start" x="1053.7" y="-271" font-family="Arial" font-size="14.00">name </text>
<text text-anchor="start" x="1092.61" y="-271" font-family="Arial" font-size="14.00" fill="#666666">[varchar(255)]</text>
<polygon fill="none" stroke="black" points="1046.7,-228 1046.7,-258.8 1265.67,-258.8 1265.67,-228 1046.7,-228"/>
<text text-anchor="start" x="1053.7" y="-240.2" font-family="Arial" font-size="14.00">neighborhood </text>
<text text-anchor="start" x="1143.22" y="-240.2" font-family="Arial" font-size="14.00" fill="#666666">[varchar(100)]</text>
<polygon fill="none" stroke="black" points="1046.7,-197.2 1046.7,-228 1265.67,-228 1265.67,-197.2 1046.7,-197.2"/>
<text text-anchor="start" x="1053.7" y="-209.4" font-family="Arial" font-size="14.00">number_address </text>
<text text-anchor="start" x="1162.65" y="-209.4" font-family="Arial" font-size="14.00" fill="#666666">[varchar(10)]</text>
<polygon fill="none" stroke="black" points="1046.7,-166.4 1046.7,-197.2 1265.67,-197.2 1265.67,-166.4 1046.7,-166.4"/>
<text text-anchor="start" x="1053.7" y="-178.6" font-family="Arial" font-size="14.00">state </text>
<text text-anchor="start" x="1087.94" y="-178.6" font-family="Arial" font-size="14.00" fill="#666666">[varchar(100)]</text>
<polygon fill="none" stroke="black" points="1046.7,-135.6 1046.7,-166.4 1265.67,-166.4 1265.67,-135.6 1046.7,-135.6"/>
<text text-anchor="start" x="1053.7" y="-147.8" font-family="Arial" font-size="14.00">street </text>
<text text-anchor="start" x="1092.6" y="-147.8" font-family="Arial" font-size="14.00" fill="#666666">[varchar(255)]</text>
<polygon fill="none" stroke="black" points="1046.7,-104.8 1046.7,-135.6 1265.67,-135.6 1265.67,-104.8 1046.7,-104.8"/>
<text text-anchor="start" x="1053.7" y="-117" font-family="Arial" font-size="14.00">zip_code </text>
<text text-anchor="start" x="1113.63" y="-117" font-family="Arial" font-size="14.00" fill="#666666">[varchar(9)]</text>
<polygon fill="none" stroke="black" points="1046.7,-74 1046.7,-104.8 1265.67,-104.8 1265.67,-74 1046.7,-74"/>
<text text-anchor="start" x="1053.7" y="-86.2" font-family="Arial" font-size="14.00">client_id </text>
<text text-anchor="start" x="1108.95" y="-86.2" font-family="Arial" font-size="14.00" fill="#666666">[bigint]</text>
<polygon fill="none" stroke="black" points="1046.7,-43.2 1046.7,-74 1265.67,-74 1265.67,-43.2 1046.7,-43.2"/>
<text text-anchor="start" x="1053.7" y="-55.4" font-family="Arial" font-size="14.00">status_id </text>
<text text-anchor="start" x="1113.62" y="-55.4" font-family="Arial" font-size="14.00" fill="#666666">[bigint]</text>
</g>
<!-- public.instrument&#45;&gt;public.dam -->
<g id="edge8" class="edge">
<title>public.instrument:dam_id&#45;&gt;public.dam:id</title>
<path fill="none" stroke="black" d="M1315.17,-773.23C1220.67,-757.93 1378.56,-520.6 1266.67,-520.6"/>
<polygon fill="black" stroke="black" points="1315.16,-773.23 1324.8,-778.46 1320.48,-773.63 1324.8,-773.95 1324.8,-773.95 1324.8,-773.95 1320.48,-773.63 1325.47,-769.49 1315.16,-773.23"/>
<text text-anchor="start" x="1100.09" y="-784" font-family="Arial" font-size="10.00">FOREIGN KEY (dam_id) REFERENCES dam(id)</text>
</g>
<!-- public.instrument_type -->
<g id="node10" class="node">
<title>public.instrument_type</title>
<polygon fill="#efefef" stroke="none" points="1369.7,-320.4 1369.7,-356 1674.66,-356 1674.66,-320.4 1369.7,-320.4"/>
<polygon fill="none" stroke="black" points="1369.7,-320.4 1369.7,-356 1674.66,-356 1674.66,-320.4 1369.7,-320.4"/>
<text text-anchor="start" x="1376.7" y="-333.8" font-family="Arial Bold" font-size="18.00">public.instrument_type</text>
<text text-anchor="start" x="1543.18" y="-333.8" font-family="Arial" font-size="14.00">    </text>
<text text-anchor="start" x="1574.29" y="-333.8" font-family="Arial" font-size="14.00" fill="#666666">[BASE TABLE]</text>
<polygon fill="none" stroke="black" points="1369.7,-289.6 1369.7,-320.4 1674.66,-320.4 1674.66,-289.6 1369.7,-289.6"/>
<text text-anchor="start" x="1376.7" y="-301.8" font-family="Arial" font-size="14.00">id </text>
<text text-anchor="start" x="1391.49" y="-301.8" font-family="Arial" font-size="14.00" fill="#666666">[bigint]</text>
<polygon fill="none" stroke="black" points="1369.7,-258.8 1369.7,-289.6 1674.66,-289.6 1674.66,-258.8 1369.7,-258.8"/>
<text text-anchor="start" x="1376.7" y="-271" font-family="Arial" font-size="14.00">name </text>
<text text-anchor="start" x="1415.61" y="-271" font-family="Arial" font-size="14.00" fill="#666666">[varchar(255)]</text>
</g>
<!-- public.instrument&#45;&gt;public.instrument_type -->
<g id="edge9" class="edge">
<title>public.instrument:instrument_type_id&#45;&gt;public.instrument_type:id</title>
<path fill="none" stroke="black" d="M1723.76,-734.05C1736.07,-671.12 1698.02,-305 1675.66,-305"/>
<polygon fill="black" stroke="black" points="1723.74,-734.07 1715.08,-740.79 1721.24,-738.78 1719.21,-742.61 1719.21,-742.61 1719.21,-742.61 1721.24,-738.78 1723.03,-745.02 1723.74,-734.07"/>
<text text-anchor="start" x="1725.9" y="-753.2" font-family="Arial" font-size="10.00">FOREIGN KEY (instrument_type_id) REFERENCES instrument_type(id)</text>
</g>
<!-- public.section -->
<g id="node11" class="node">
<title>public.section</title>
<polygon fill="#efefef" stroke="none" points="1779.54,-412.8 1779.54,-448.4 2062.83,-448.4 2062.83,-412.8 1779.54,-412.8"/>
<polygon fill="none" stroke="black" points="1779.54,-412.8 1779.54,-448.4 2062.83,-448.4 2062.83,-412.8 1779.54,-412.8"/>
<text text-anchor="start" x="1808.7" y="-426.2" font-family="Arial Bold" font-size="18.00">public.section</text>
<text text-anchor="start" x="1909.18" y="-426.2" font-family="Arial" font-size="14.00">    </text>
<text text-anchor="start" x="1940.29" y="-426.2" font-family="Arial" font-size="14.00" fill="#666666">[BASE TABLE]</text>
<polygon fill="none" stroke="black" points="1779.54,-382 1779.54,-412.8 2062.83,-412.8 2062.83,-382 1779.54,-382"/>
<text text-anchor="start" x="1786.54" y="-394.2" font-family="Arial" font-size="14.00">id </text>
<text text-anchor="start" x="1801.32" y="-394.2" font-family="Arial" font-size="14.00" fill="#666666">[bigint]</text>
<polygon fill="none" stroke="black" points="1779.54,-351.2 1779.54,-382 2062.83,-382 2062.83,-351.2 1779.54,-351.2"/>
<text text-anchor="start" x="1786.54" y="-363.4" font-family="Arial" font-size="14.00">file_path </text>
<text text-anchor="start" x="1843.36" y="-363.4" font-family="Arial" font-size="14.00" fill="#666666">[varchar(255)]</text>
<polygon fill="none" stroke="black" points="1779.54,-320.4 1779.54,-351.2 2062.83,-351.2 2062.83,-320.4 1779.54,-320.4"/>
<text text-anchor="start" x="1786.54" y="-332.6" font-family="Arial" font-size="14.00">first_vertex_latitude </text>
<text text-anchor="start" x="1911.82" y="-332.6" font-family="Arial" font-size="14.00" fill="#666666">[double precision]</text>
<polygon fill="none" stroke="black" points="1779.54,-289.6 1779.54,-320.4 2062.83,-320.4 2062.83,-289.6 1779.54,-289.6"/>
<text text-anchor="start" x="1786.54" y="-301.8" font-family="Arial" font-size="14.00">first_vertex_longitude </text>
<text text-anchor="start" x="1923.5" y="-301.8" font-family="Arial" font-size="14.00" fill="#666666">[double precision]</text>
<polygon fill="none" stroke="black" points="1779.54,-258.8 1779.54,-289.6 2062.83,-289.6 2062.83,-258.8 1779.54,-258.8"/>
<text text-anchor="start" x="1786.54" y="-271" font-family="Arial" font-size="14.00">name </text>
<text text-anchor="start" x="1825.45" y="-271" font-family="Arial" font-size="14.00" fill="#666666">[varchar(255)]</text>
<polygon fill="none" stroke="black" points="1779.54,-228 1779.54,-258.8 2062.83,-258.8 2062.83,-228 1779.54,-228"/>
<text text-anchor="start" x="1786.54" y="-240.2" font-family="Arial" font-size="14.00">second_vertex_latitude </text>
<text text-anchor="start" x="1934.41" y="-240.2" font-family="Arial" font-size="14.00" fill="#666666">[double precision]</text>
<polygon fill="none" stroke="black" points="1779.54,-197.2 1779.54,-228 2062.83,-228 2062.83,-197.2 1779.54,-197.2"/>
<text text-anchor="start" x="1786.54" y="-209.4" font-family="Arial" font-size="14.00">second_vertex_longitude </text>
<text text-anchor="start" x="1946.09" y="-209.4" font-family="Arial" font-size="14.00" fill="#666666">[double precision]</text>
<polygon fill="none" stroke="black" points="1779.54,-166.4 1779.54,-197.2 2062.83,-197.2 2062.83,-166.4 1779.54,-166.4"/>
<text text-anchor="start" x="1786.54" y="-178.6" font-family="Arial" font-size="14.00">dam_id </text>
<text text-anchor="start" x="1836.34" y="-178.6" font-family="Arial" font-size="14.00" fill="#666666">[bigint]</text>
</g>
<!-- public.instrument&#45;&gt;public.section -->
<g id="edge10" class="edge">
<title>public.instrument:section_id&#45;&gt;public.section:id</title>
<path fill="none" stroke="black" d="M1729.05,-711.8C1850.18,-696.61 1639.67,-397.4 1778.54,-397.4"/>
<polygon fill="black" stroke="black" points="1729.21,-711.79 1718.96,-707.89 1723.89,-712.11 1719.56,-712.36 1719.56,-712.36 1719.56,-712.36 1723.89,-712.11 1719.49,-716.87 1729.21,-711.79"/>
<text text-anchor="start" x="1725.9" y="-722.4" font-family="Arial" font-size="10.00">FOREIGN KEY (section_id) REFERENCES section(id)</text>
</g>
<!-- public.constant -->
<g id="node2" class="node">
<title>public.constant</title>
<polygon fill="#efefef" stroke="none" points="43.2,-1643.4 43.2,-1679 291.17,-1679 291.17,-1643.4 43.2,-1643.4"/>
<polygon fill="none" stroke="black" points="43.2,-1643.4 43.2,-1679 291.17,-1679 291.17,-1643.4 43.2,-1643.4"/>
<text text-anchor="start" x="50.2" y="-1656.8" font-family="Arial Bold" font-size="18.00">public.constant</text>
<text text-anchor="start" x="159.68" y="-1656.8" font-family="Arial" font-size="14.00">    </text>
<text text-anchor="start" x="190.79" y="-1656.8" font-family="Arial" font-size="14.00" fill="#666666">[BASE TABLE]</text>
<polygon fill="none" stroke="black" points="43.2,-1612.6 43.2,-1643.4 291.17,-1643.4 291.17,-1612.6 43.2,-1612.6"/>
<text text-anchor="start" x="50.2" y="-1624.8" font-family="Arial" font-size="14.00">id </text>
<text text-anchor="start" x="64.99" y="-1624.8" font-family="Arial" font-size="14.00" fill="#666666">[bigint]</text>
<polygon fill="none" stroke="black" points="43.2,-1581.8 43.2,-1612.6 291.17,-1612.6 291.17,-1581.8 43.2,-1581.8"/>
<text text-anchor="start" x="50.2" y="-1594" font-family="Arial" font-size="14.00">acronym </text>
<text text-anchor="start" x="107.77" y="-1594" font-family="Arial" font-size="14.00" fill="#666666">[varchar(255)]</text>
<polygon fill="none" stroke="black" points="43.2,-1551 43.2,-1581.8 291.17,-1581.8 291.17,-1551 43.2,-1551"/>
<text text-anchor="start" x="50.2" y="-1563.2" font-family="Arial" font-size="14.00">name </text>
<text text-anchor="start" x="89.11" y="-1563.2" font-family="Arial" font-size="14.00" fill="#666666">[varchar(255)]</text>
<polygon fill="none" stroke="black" points="43.2,-1520.2 43.2,-1551 291.17,-1551 291.17,-1520.2 43.2,-1520.2"/>
<text text-anchor="start" x="50.2" y="-1532.4" font-family="Arial" font-size="14.00">precision </text>
<text text-anchor="start" x="110.12" y="-1532.4" font-family="Arial" font-size="14.00" fill="#666666">[integer]</text>
<polygon fill="none" stroke="black" points="43.2,-1489.4 43.2,-1520.2 291.17,-1520.2 291.17,-1489.4 43.2,-1489.4"/>
<text text-anchor="start" x="50.2" y="-1501.6" font-family="Arial" font-size="14.00">value </text>
<text text-anchor="start" x="87.56" y="-1501.6" font-family="Arial" font-size="14.00" fill="#666666">[double precision]</text>
<polygon fill="none" stroke="black" points="43.2,-1458.6 43.2,-1489.4 291.17,-1489.4 291.17,-1458.6 43.2,-1458.6"/>
<text text-anchor="start" x="50.2" y="-1470.8" font-family="Arial" font-size="14.00">instrument_id </text>
<text text-anchor="start" x="138.13" y="-1470.8" font-family="Arial" font-size="14.00" fill="#666666">[bigint]</text>
<polygon fill="none" stroke="black" points="43.2,-1427.8 43.2,-1458.6 291.17,-1458.6 291.17,-1427.8 43.2,-1427.8"/>
<text text-anchor="start" x="50.2" y="-1440" font-family="Arial" font-size="14.00">measurement_unit_id </text>
<text text-anchor="start" x="188.72" y="-1440" font-family="Arial" font-size="14.00" fill="#666666">[bigint]</text>
</g>
<!-- public.constant&#45;&gt;public.instrument -->
<g id="edge1" class="edge">
<title>public.constant:instrument_id&#45;&gt;public.instrument:id</title>
<path fill="none" stroke="black" d="M302.33,-1473.32C374.2,-1462.88 278.27,-1334.45 343.18,-1276.8 425.54,-1203.66 1215.33,-1143.6 1325.47,-1143.6"/>
<polygon fill="black" stroke="black" points="302.48,-1473.31 292.2,-1469.49 297.15,-1473.67 292.83,-1473.96 292.83,-1473.96 292.83,-1473.96 297.15,-1473.67 292.8,-1478.47 302.48,-1473.31"/>
<text text-anchor="start" x="155.74" y="-1458" font-family="Arial" font-size="10.00">FOREIGN KEY (instrument_id) REFERENCES instrument(id)</text>
</g>
<!-- public.input -->
<g id="node3" class="node">
<title>public.input</title>
<polygon fill="#efefef" stroke="none" points="395.69,-1628 395.69,-1663.6 620.67,-1663.6 620.67,-1628 395.69,-1628"/>
<polygon fill="none" stroke="black" points="395.69,-1628 395.69,-1663.6 620.67,-1663.6 620.67,-1628 395.69,-1628"/>
<text text-anchor="start" x="402.69" y="-1641.4" font-family="Arial Bold" font-size="18.00">public.input</text>
<text text-anchor="start" x="489.18" y="-1641.4" font-family="Arial" font-size="14.00">    </text>
<text text-anchor="start" x="520.3" y="-1641.4" font-family="Arial" font-size="14.00" fill="#666666">[BASE TABLE]</text>
<polygon fill="none" stroke="black" points="395.69,-1597.2 395.69,-1628 620.67,-1628 620.67,-1597.2 395.69,-1597.2"/>
<text text-anchor="start" x="402.69" y="-1609.4" font-family="Arial" font-size="14.00">id </text>
<text text-anchor="start" x="417.48" y="-1609.4" font-family="Arial" font-size="14.00" fill="#666666">[bigint]</text>
<polygon fill="none" stroke="black" points="395.69,-1566.4 395.69,-1597.2 620.67,-1597.2 620.67,-1566.4 395.69,-1566.4"/>
<text text-anchor="start" x="402.69" y="-1578.6" font-family="Arial" font-size="14.00">acronym </text>
<text text-anchor="start" x="460.26" y="-1578.6" font-family="Arial" font-size="14.00" fill="#666666">[varchar(255)]</text>
<polygon fill="none" stroke="black" points="395.69,-1535.6 395.69,-1566.4 620.67,-1566.4 620.67,-1535.6 395.69,-1535.6"/>
<text text-anchor="start" x="402.69" y="-1547.8" font-family="Arial" font-size="14.00">name </text>
<text text-anchor="start" x="441.6" y="-1547.8" font-family="Arial" font-size="14.00" fill="#666666">[varchar(255)]</text>
<polygon fill="none" stroke="black" points="395.69,-1504.8 395.69,-1535.6 620.67,-1535.6 620.67,-1504.8 395.69,-1504.8"/>
<text text-anchor="start" x="402.69" y="-1517" font-family="Arial" font-size="14.00">precision </text>
<text text-anchor="start" x="462.61" y="-1517" font-family="Arial" font-size="14.00" fill="#666666">[integer]</text>
<polygon fill="none" stroke="black" points="395.69,-1474 395.69,-1504.8 620.67,-1504.8 620.67,-1474 395.69,-1474"/>
<text text-anchor="start" x="402.69" y="-1486.2" font-family="Arial" font-size="14.00">instrument_id </text>
<text text-anchor="start" x="490.62" y="-1486.2" font-family="Arial" font-size="14.00" fill="#666666">[bigint]</text>
<polygon fill="none" stroke="black" points="395.69,-1443.2 395.69,-1474 620.67,-1474 620.67,-1443.2 395.69,-1443.2"/>
<text text-anchor="start" x="402.69" y="-1455.4" font-family="Arial" font-size="14.00">measurement_unit_id </text>
<text text-anchor="start" x="541.22" y="-1455.4" font-family="Arial" font-size="14.00" fill="#666666">[bigint]</text>
</g>
<!-- public.input&#45;&gt;public.instrument -->
<g id="edge2" class="edge">
<title>public.input:instrument_id&#45;&gt;public.instrument:id</title>
<path fill="none" stroke="black" d="M631.64,-1488.81C710.57,-1478.74 605.8,-1341.78 673.18,-1276.8 779.67,-1174.1 1177.53,-1143.6 1325.47,-1143.6"/>
<polygon fill="black" stroke="black" points="631.99,-1488.79 621.74,-1484.89 626.67,-1489.11 622.34,-1489.36 622.34,-1489.36 622.34,-1489.36 626.67,-1489.11 622.27,-1493.87 631.99,-1488.79"/>
<text text-anchor="start" x="485.25" y="-1473.4" font-family="Arial" font-size="10.00">FOREIGN KEY (instrument_id) REFERENCES instrument(id)</text>
</g>
<!-- public.instrument_graph_customization_properties -->
<g id="node4" class="node">
<title>public.instrument_graph_customization_properties</title>
<polygon fill="#efefef" stroke="none" points="725.23,-1751.2 725.23,-1786.8 1231.14,-1786.8 1231.14,-1751.2 725.23,-1751.2"/>
<polygon fill="none" stroke="black" points="725.23,-1751.2 725.23,-1786.8 1231.14,-1786.8 1231.14,-1751.2 725.23,-1751.2"/>
<text text-anchor="start" x="732.23" y="-1764.6" font-family="Arial Bold" font-size="18.00">public.instrument_graph_customization_properties</text>
<text text-anchor="start" x="1099.65" y="-1764.6" font-family="Arial" font-size="14.00">    </text>
<text text-anchor="start" x="1130.76" y="-1764.6" font-family="Arial" font-size="14.00" fill="#666666">[BASE TABLE]</text>
<polygon fill="none" stroke="black" points="725.23,-1720.4 725.23,-1751.2 1231.14,-1751.2 1231.14,-1720.4 725.23,-1720.4"/>
<text text-anchor="start" x="732.23" y="-1732.6" font-family="Arial" font-size="14.00">id </text>
<text text-anchor="start" x="747.02" y="-1732.6" font-family="Arial" font-size="14.00" fill="#666666">[bigint]</text>
<polygon fill="none" stroke="black" points="725.23,-1689.6 725.23,-1720.4 1231.14,-1720.4 1231.14,-1689.6 725.23,-1689.6"/>
<text text-anchor="start" x="732.23" y="-1701.8" font-family="Arial" font-size="14.00">customization_type </text>
<text text-anchor="start" x="855.96" y="-1701.8" font-family="Arial" font-size="14.00" fill="#666666">[varchar(255)]</text>
<polygon fill="none" stroke="black" points="725.23,-1658.8 725.23,-1689.6 1231.14,-1689.6 1231.14,-1658.8 725.23,-1658.8"/>
<text text-anchor="start" x="732.23" y="-1671" font-family="Arial" font-size="14.00">fill_color </text>
<text text-anchor="start" x="787.47" y="-1671" font-family="Arial" font-size="14.00" fill="#666666">[varchar(255)]</text>
<polygon fill="none" stroke="black" points="725.23,-1628 725.23,-1658.8 1231.14,-1658.8 1231.14,-1628 725.23,-1628"/>
<text text-anchor="start" x="732.23" y="-1640.2" font-family="Arial" font-size="14.00">is_primary_ordinate </text>
<text text-anchor="start" x="859.06" y="-1640.2" font-family="Arial" font-size="14.00" fill="#666666">[boolean]</text>
<polygon fill="none" stroke="black" points="725.23,-1597.2 725.23,-1628 1231.14,-1628 1231.14,-1597.2 725.23,-1597.2"/>
<text text-anchor="start" x="732.23" y="-1609.4" font-family="Arial" font-size="14.00">label_enable </text>
<text text-anchor="start" x="815.53" y="-1609.4" font-family="Arial" font-size="14.00" fill="#666666">[boolean]</text>
<polygon fill="none" stroke="black" points="725.23,-1566.4 725.23,-1597.2 1231.14,-1597.2 1231.14,-1566.4 725.23,-1566.4"/>
<text text-anchor="start" x="732.23" y="-1578.6" font-family="Arial" font-size="14.00">limit_value_type </text>
<text text-anchor="start" x="836.5" y="-1578.6" font-family="Arial" font-size="14.00" fill="#666666">[varchar(255)]</text>
<polygon fill="none" stroke="black" points="725.23,-1535.6 725.23,-1566.4 1231.14,-1566.4 1231.14,-1535.6 725.23,-1535.6"/>
<text text-anchor="start" x="732.23" y="-1547.8" font-family="Arial" font-size="14.00">line_type </text>
<text text-anchor="start" x="792.16" y="-1547.8" font-family="Arial" font-size="14.00" fill="#666666">[varchar(255)]</text>
<polygon fill="none" stroke="black" points="725.23,-1504.8 725.23,-1535.6 1231.14,-1535.6 1231.14,-1504.8 725.23,-1504.8"/>
<text text-anchor="start" x="732.23" y="-1517" font-family="Arial" font-size="14.00">name </text>
<text text-anchor="start" x="771.14" y="-1517" font-family="Arial" font-size="14.00" fill="#666666">[varchar(255)]</text>
<polygon fill="none" stroke="black" points="725.23,-1474 725.23,-1504.8 1231.14,-1504.8 1231.14,-1474 725.23,-1474"/>
<text text-anchor="start" x="732.23" y="-1486.2" font-family="Arial" font-size="14.00">constant_id </text>
<text text-anchor="start" x="807.73" y="-1486.2" font-family="Arial" font-size="14.00" fill="#666666">[bigint]</text>
<polygon fill="none" stroke="black" points="725.23,-1443.2 725.23,-1474 1231.14,-1474 1231.14,-1443.2 725.23,-1443.2"/>
<text text-anchor="start" x="732.23" y="-1455.4" font-family="Arial" font-size="14.00">deterministic_limit_id </text>
<text text-anchor="start" x="866.05" y="-1455.4" font-family="Arial" font-size="14.00" fill="#666666">[bigint]</text>
<polygon fill="none" stroke="black" points="725.23,-1412.4 725.23,-1443.2 1231.14,-1443.2 1231.14,-1412.4 725.23,-1412.4"/>
<text text-anchor="start" x="732.23" y="-1424.6" font-family="Arial" font-size="14.00">instrument_id </text>
<text text-anchor="start" x="820.16" y="-1424.6" font-family="Arial" font-size="14.00" fill="#666666">[bigint]</text>
<polygon fill="none" stroke="black" points="725.23,-1381.6 725.23,-1412.4 1231.14,-1412.4 1231.14,-1381.6 725.23,-1381.6"/>
<text text-anchor="start" x="732.23" y="-1393.8" font-family="Arial" font-size="14.00">output_id </text>
<text text-anchor="start" x="793.73" y="-1393.8" font-family="Arial" font-size="14.00" fill="#666666">[bigint]</text>
<polygon fill="none" stroke="black" points="725.23,-1350.8 725.23,-1381.6 1231.14,-1381.6 1231.14,-1350.8 725.23,-1350.8"/>
<text text-anchor="start" x="732.23" y="-1363" font-family="Arial" font-size="14.00">pattern_id </text>
<text text-anchor="start" x="798.39" y="-1363" font-family="Arial" font-size="14.00" fill="#666666">[bigint]</text>
<polygon fill="none" stroke="black" points="725.23,-1320 725.23,-1350.8 1231.14,-1350.8 1231.14,-1320 725.23,-1320"/>
<text text-anchor="start" x="732.23" y="-1332.2" font-family="Arial" font-size="14.00">statistical_limit_id </text>
<text text-anchor="start" x="845.04" y="-1332.2" font-family="Arial" font-size="14.00" fill="#666666">[bigint]</text>
</g>
<!-- public.instrument_graph_customization_properties&#45;&gt;public.instrument -->
<g id="edge3" class="edge">
<title>public.instrument_graph_customization_properties:instrument_id&#45;&gt;public.instrument:id</title>
<path fill="none" stroke="black" d="M1242.13,-1425.34C1294.6,-1397.57 1262.63,-1143.6 1325.47,-1143.6"/>
<polygon fill="black" stroke="black" points="1242.17,-1425.33 1231.39,-1423.35 1236.99,-1426.61 1232.79,-1427.64 1232.79,-1427.64 1232.79,-1427.64 1236.99,-1426.61 1233.54,-1432.09 1242.17,-1425.33"/>
<text text-anchor="start" x="1239.14" y="-1411.8" font-family="Arial" font-size="10.00">FOREIGN KEY (instrument_id) REFERENCES instrument(id)</text>
</g>
<!-- public.instrument_graph_pattern -->
<g id="node5" class="node">
<title>public.instrument_graph_pattern</title>
<polygon fill="#efefef" stroke="none" points="1335.22,-1597.2 1335.22,-1632.8 1709.15,-1632.8 1709.15,-1597.2 1335.22,-1597.2"/>
<polygon fill="none" stroke="black" points="1335.22,-1597.2 1335.22,-1632.8 1709.15,-1632.8 1709.15,-1597.2 1335.22,-1597.2"/>
<text text-anchor="start" x="1342.22" y="-1610.6" font-family="Arial Bold" font-size="18.00">public.instrument_graph_pattern</text>
<text text-anchor="start" x="1577.66" y="-1610.6" font-family="Arial" font-size="14.00">    </text>
<text text-anchor="start" x="1608.78" y="-1610.6" font-family="Arial" font-size="14.00" fill="#666666">[BASE TABLE]</text>
<polygon fill="none" stroke="black" points="1335.22,-1566.4 1335.22,-1597.2 1709.15,-1597.2 1709.15,-1566.4 1335.22,-1566.4"/>
<text text-anchor="start" x="1342.22" y="-1578.6" font-family="Arial" font-size="14.00">id </text>
<text text-anchor="start" x="1357" y="-1578.6" font-family="Arial" font-size="14.00" fill="#666666">[bigint]</text>
<polygon fill="none" stroke="black" points="1335.22,-1535.6 1335.22,-1566.4 1709.15,-1566.4 1709.15,-1535.6 1335.22,-1535.6"/>
<text text-anchor="start" x="1342.22" y="-1547.8" font-family="Arial" font-size="14.00">name </text>
<text text-anchor="start" x="1381.13" y="-1547.8" font-family="Arial" font-size="14.00" fill="#666666">[varchar(255)]</text>
<polygon fill="none" stroke="black" points="1335.22,-1504.8 1335.22,-1535.6 1709.15,-1535.6 1709.15,-1504.8 1335.22,-1504.8"/>
<text text-anchor="start" x="1342.22" y="-1517" font-family="Arial" font-size="14.00">folder_id </text>
<text text-anchor="start" x="1399.81" y="-1517" font-family="Arial" font-size="14.00" fill="#666666">[bigint]</text>
<polygon fill="none" stroke="black" points="1335.22,-1474 1335.22,-1504.8 1709.15,-1504.8 1709.15,-1474 1335.22,-1474"/>
<text text-anchor="start" x="1342.22" y="-1486.2" font-family="Arial" font-size="14.00">instrument_id </text>
<text text-anchor="start" x="1430.15" y="-1486.2" font-family="Arial" font-size="14.00" fill="#666666">[bigint]</text>
</g>
<!-- public.instrument_graph_pattern&#45;&gt;public.instrument -->
<g id="edge4" class="edge">
<title>public.instrument_graph_pattern:instrument_id&#45;&gt;public.instrument:id</title>
<path fill="none" stroke="black" d="M1522.49,-1462.66C1529.96,-1339.47 1672.18,-1364 1717.9,-1240.8 1732.93,-1200.3 1762.1,-1143.6 1718.9,-1143.6"/>
<polygon fill="black" stroke="black" points="1522.49,-1462.67 1517.69,-1472.53 1522.33,-1468 1522.2,-1472.33 1522.2,-1472.33 1522.2,-1472.33 1522.33,-1468 1526.69,-1472.8 1522.49,-1462.67"/>
<text text-anchor="start" x="1242.34" y="-1483" font-family="Arial" font-size="10.00">FOREIGN KEY (instrument_id) REFERENCES instrument(id)</text>
</g>
<!-- public.instrument_tabulate_association -->
<g id="node6" class="node">
<title>public.instrument_tabulate_association</title>
<polygon fill="#efefef" stroke="none" points="1813.22,-1689.6 1813.22,-1725.2 2233.14,-1725.2 2233.14,-1689.6 1813.22,-1689.6"/>
<polygon fill="none" stroke="black" points="1813.22,-1689.6 1813.22,-1725.2 2233.14,-1725.2 2233.14,-1689.6 1813.22,-1689.6"/>
<text text-anchor="start" x="1820.22" y="-1703" font-family="Arial Bold" font-size="18.00">public.instrument_tabulate_association</text>
<text text-anchor="start" x="2101.66" y="-1703" font-family="Arial" font-size="14.00">    </text>
<text text-anchor="start" x="2132.77" y="-1703" font-family="Arial" font-size="14.00" fill="#666666">[BASE TABLE]</text>
<polygon fill="none" stroke="black" points="1813.22,-1658.8 1813.22,-1689.6 2233.14,-1689.6 2233.14,-1658.8 1813.22,-1658.8"/>
<text text-anchor="start" x="1820.22" y="-1671" font-family="Arial" font-size="14.00">id </text>
<text text-anchor="start" x="1835.01" y="-1671" font-family="Arial" font-size="14.00" fill="#666666">[bigint]</text>
<polygon fill="none" stroke="black" points="1813.22,-1628 1813.22,-1658.8 2233.14,-1658.8 2233.14,-1628 1813.22,-1628"/>
<text text-anchor="start" x="1820.22" y="-1640.2" font-family="Arial" font-size="14.00">date_index </text>
<text text-anchor="start" x="1892.61" y="-1640.2" font-family="Arial" font-size="14.00" fill="#666666">[integer]</text>
<polygon fill="none" stroke="black" points="1813.22,-1597.2 1813.22,-1628 2233.14,-1628 2233.14,-1597.2 1813.22,-1597.2"/>
<text text-anchor="start" x="1820.22" y="-1609.4" font-family="Arial" font-size="14.00">hour_index </text>
<text text-anchor="start" x="1893.39" y="-1609.4" font-family="Arial" font-size="14.00" fill="#666666">[integer]</text>
<polygon fill="none" stroke="black" points="1813.22,-1566.4 1813.22,-1597.2 2233.14,-1597.2 2233.14,-1566.4 1813.22,-1566.4"/>
<text text-anchor="start" x="1820.22" y="-1578.6" font-family="Arial" font-size="14.00">is_date_enable </text>
<text text-anchor="start" x="1919.08" y="-1578.6" font-family="Arial" font-size="14.00" fill="#666666">[boolean]</text>
<polygon fill="none" stroke="black" points="1813.22,-1535.6 1813.22,-1566.4 2233.14,-1566.4 2233.14,-1535.6 1813.22,-1535.6"/>
<text text-anchor="start" x="1820.22" y="-1547.8" font-family="Arial" font-size="14.00">is_hour_enable </text>
<text text-anchor="start" x="1919.85" y="-1547.8" font-family="Arial" font-size="14.00" fill="#666666">[boolean]</text>
<polygon fill="none" stroke="black" points="1813.22,-1504.8 1813.22,-1535.6 2233.14,-1535.6 2233.14,-1504.8 1813.22,-1504.8"/>
<text text-anchor="start" x="1820.22" y="-1517" font-family="Arial" font-size="14.00">is_read_enable </text>
<text text-anchor="start" x="1919.85" y="-1517" font-family="Arial" font-size="14.00" fill="#666666">[boolean]</text>
<polygon fill="none" stroke="black" points="1813.22,-1474 1813.22,-1504.8 2233.14,-1504.8 2233.14,-1474 1813.22,-1474"/>
<text text-anchor="start" x="1820.22" y="-1486.2" font-family="Arial" font-size="14.00">is_user_enable </text>
<text text-anchor="start" x="1919.07" y="-1486.2" font-family="Arial" font-size="14.00" fill="#666666">[boolean]</text>
<polygon fill="none" stroke="black" points="1813.22,-1443.2 1813.22,-1474 2233.14,-1474 2233.14,-1443.2 1813.22,-1443.2"/>
<text text-anchor="start" x="1820.22" y="-1455.4" font-family="Arial" font-size="14.00">user_index </text>
<text text-anchor="start" x="1892.6" y="-1455.4" font-family="Arial" font-size="14.00" fill="#666666">[integer]</text>
<polygon fill="none" stroke="black" points="1813.22,-1412.4 1813.22,-1443.2 2233.14,-1443.2 2233.14,-1412.4 1813.22,-1412.4"/>
<text text-anchor="start" x="1820.22" y="-1424.6" font-family="Arial" font-size="14.00">instrument_id </text>
<text text-anchor="start" x="1908.15" y="-1424.6" font-family="Arial" font-size="14.00" fill="#666666">[bigint]</text>
<polygon fill="none" stroke="black" points="1813.22,-1381.6 1813.22,-1412.4 2233.14,-1412.4 2233.14,-1381.6 1813.22,-1381.6"/>
<text text-anchor="start" x="1820.22" y="-1393.8" font-family="Arial" font-size="14.00">pattern_id </text>
<text text-anchor="start" x="1886.38" y="-1393.8" font-family="Arial" font-size="14.00" fill="#666666">[bigint]</text>
</g>
<!-- public.instrument_tabulate_association&#45;&gt;public.instrument -->
<g id="edge5" class="edge">
<title>public.instrument_tabulate_association:instrument_id&#45;&gt;public.instrument:id</title>
<path fill="none" stroke="black" d="M1802.23,-1425.34C1749.76,-1397.57 1781.73,-1143.6 1718.9,-1143.6"/>
<polygon fill="black" stroke="black" points="1802.19,-1425.33 1810.82,-1432.09 1807.37,-1426.61 1811.57,-1427.64 1811.57,-1427.64 1811.57,-1427.64 1807.37,-1426.61 1812.97,-1423.35 1802.19,-1425.33"/>
<text text-anchor="start" x="1532.38" y="-1411.8" font-family="Arial" font-size="10.00">FOREIGN KEY (instrument_id) REFERENCES instrument(id)</text>
</g>
<!-- public.output -->
<g id="node7" class="node">
<title>public.output</title>
<polygon fill="#efefef" stroke="none" points="2337.19,-1658.8 2337.19,-1694.4 2571.17,-1694.4 2571.17,-1658.8 2337.19,-1658.8"/>
<polygon fill="none" stroke="black" points="2337.19,-1658.8 2337.19,-1694.4 2571.17,-1694.4 2571.17,-1658.8 2337.19,-1658.8"/>
<text text-anchor="start" x="2344.19" y="-1672.2" font-family="Arial Bold" font-size="18.00">public.output</text>
<text text-anchor="start" x="2439.68" y="-1672.2" font-family="Arial" font-size="14.00">    </text>
<text text-anchor="start" x="2470.8" y="-1672.2" font-family="Arial" font-size="14.00" fill="#666666">[BASE TABLE]</text>
<polygon fill="none" stroke="black" points="2337.19,-1628 2337.19,-1658.8 2571.17,-1658.8 2571.17,-1628 2337.19,-1628"/>
<text text-anchor="start" x="2344.19" y="-1640.2" font-family="Arial" font-size="14.00">id </text>
<text text-anchor="start" x="2358.98" y="-1640.2" font-family="Arial" font-size="14.00" fill="#666666">[bigint]</text>
<polygon fill="none" stroke="black" points="2337.19,-1597.2 2337.19,-1628 2571.17,-1628 2571.17,-1597.2 2337.19,-1597.2"/>
<text text-anchor="start" x="2344.19" y="-1609.4" font-family="Arial" font-size="14.00">acronym </text>
<text text-anchor="start" x="2401.76" y="-1609.4" font-family="Arial" font-size="14.00" fill="#666666">[varchar(255)]</text>
<polygon fill="none" stroke="black" points="2337.19,-1566.4 2337.19,-1597.2 2571.17,-1597.2 2571.17,-1566.4 2337.19,-1566.4"/>
<text text-anchor="start" x="2344.19" y="-1578.6" font-family="Arial" font-size="14.00">active </text>
<text text-anchor="start" x="2384.65" y="-1578.6" font-family="Arial" font-size="14.00" fill="#666666">[boolean]</text>
<polygon fill="none" stroke="black" points="2337.19,-1535.6 2337.19,-1566.4 2571.17,-1566.4 2571.17,-1535.6 2337.19,-1535.6"/>
<text text-anchor="start" x="2344.19" y="-1547.8" font-family="Arial" font-size="14.00">equation </text>
<text text-anchor="start" x="2401.8" y="-1547.8" font-family="Arial" font-size="14.00" fill="#666666">[text]</text>
<polygon fill="none" stroke="black" points="2337.19,-1504.8 2337.19,-1535.6 2571.17,-1535.6 2571.17,-1504.8 2337.19,-1504.8"/>
<text text-anchor="start" x="2344.19" y="-1517" font-family="Arial" font-size="14.00">name </text>
<text text-anchor="start" x="2383.1" y="-1517" font-family="Arial" font-size="14.00" fill="#666666">[varchar(255)]</text>
<polygon fill="none" stroke="black" points="2337.19,-1474 2337.19,-1504.8 2571.17,-1504.8 2571.17,-1474 2337.19,-1474"/>
<text text-anchor="start" x="2344.19" y="-1486.2" font-family="Arial" font-size="14.00">precision </text>
<text text-anchor="start" x="2404.11" y="-1486.2" font-family="Arial" font-size="14.00" fill="#666666">[integer]</text>
<polygon fill="none" stroke="black" points="2337.19,-1443.2 2337.19,-1474 2571.17,-1474 2571.17,-1443.2 2337.19,-1443.2"/>
<text text-anchor="start" x="2344.19" y="-1455.4" font-family="Arial" font-size="14.00">instrument_id </text>
<text text-anchor="start" x="2432.12" y="-1455.4" font-family="Arial" font-size="14.00" fill="#666666">[bigint]</text>
<polygon fill="none" stroke="black" points="2337.19,-1412.4 2337.19,-1443.2 2571.17,-1443.2 2571.17,-1412.4 2337.19,-1412.4"/>
<text text-anchor="start" x="2344.19" y="-1424.6" font-family="Arial" font-size="14.00">measurement_unit_id </text>
<text text-anchor="start" x="2482.72" y="-1424.6" font-family="Arial" font-size="14.00" fill="#666666">[bigint]</text>
</g>
<!-- public.output&#45;&gt;public.instrument -->
<g id="edge6" class="edge">
<title>public.output:instrument_id&#45;&gt;public.instrument:id</title>
<path fill="none" stroke="black" d="M2325.93,-1457.87C2260.36,-1447.62 2343.05,-1332.26 2285.18,-1276.8 2191.85,-1187.35 1848.17,-1143.6 1718.9,-1143.6"/>
<polygon fill="black" stroke="black" points="2325.88,-1457.86 2335.54,-1463.06 2331.2,-1458.24 2335.52,-1458.55 2335.52,-1458.55 2335.52,-1458.55 2331.2,-1458.24 2336.18,-1454.09 2325.88,-1457.86"/>
<text text-anchor="start" x="2056.35" y="-1468.6" font-family="Arial" font-size="10.00">FOREIGN KEY (instrument_id) REFERENCES instrument(id)</text>
</g>
<!-- public.reading -->
<g id="node8" class="node">
<title>public.reading</title>
<polygon fill="#efefef" stroke="none" points="2675.21,-1689.6 2675.21,-1725.2 2917.16,-1725.2 2917.16,-1689.6 2675.21,-1689.6"/>
<polygon fill="none" stroke="black" points="2675.21,-1689.6 2675.21,-1725.2 2917.16,-1725.2 2917.16,-1689.6 2675.21,-1689.6"/>
<text text-anchor="start" x="2682.21" y="-1703" font-family="Arial Bold" font-size="18.00">public.reading</text>
<text text-anchor="start" x="2785.67" y="-1703" font-family="Arial" font-size="14.00">    </text>
<text text-anchor="start" x="2816.79" y="-1703" font-family="Arial" font-size="14.00" fill="#666666">[BASE TABLE]</text>
<polygon fill="none" stroke="black" points="2675.21,-1658.8 2675.21,-1689.6 2917.16,-1689.6 2917.16,-1658.8 2675.21,-1658.8"/>
<text text-anchor="start" x="2682.21" y="-1671" font-family="Arial" font-size="14.00">id </text>
<text text-anchor="start" x="2696.99" y="-1671" font-family="Arial" font-size="14.00" fill="#666666">[bigint]</text>
<polygon fill="none" stroke="black" points="2675.21,-1628 2675.21,-1658.8 2917.16,-1658.8 2917.16,-1628 2675.21,-1628"/>
<text text-anchor="start" x="2682.21" y="-1640.2" font-family="Arial" font-size="14.00">active </text>
<text text-anchor="start" x="2722.67" y="-1640.2" font-family="Arial" font-size="14.00" fill="#666666">[boolean]</text>
<polygon fill="none" stroke="black" points="2675.21,-1597.2 2675.21,-1628 2917.16,-1628 2917.16,-1597.2 2675.21,-1597.2"/>
<text text-anchor="start" x="2682.21" y="-1609.4" font-family="Arial" font-size="14.00">calculated_value </text>
<text text-anchor="start" x="2790.39" y="-1609.4" font-family="Arial" font-size="14.00" fill="#666666">[double precision]</text>
<polygon fill="none" stroke="black" points="2675.21,-1566.4 2675.21,-1597.2 2917.16,-1597.2 2917.16,-1566.4 2675.21,-1566.4"/>
<text text-anchor="start" x="2682.21" y="-1578.6" font-family="Arial" font-size="14.00">comment </text>
<text text-anchor="start" x="2743.67" y="-1578.6" font-family="Arial" font-size="14.00" fill="#666666">[text]</text>
<polygon fill="none" stroke="black" points="2675.21,-1535.6 2675.21,-1566.4 2917.16,-1566.4 2917.16,-1535.6 2675.21,-1535.6"/>
<text text-anchor="start" x="2682.21" y="-1547.8" font-family="Arial" font-size="14.00">date </text>
<text text-anchor="start" x="2713.34" y="-1547.8" font-family="Arial" font-size="14.00" fill="#666666">[date]</text>
<polygon fill="none" stroke="black" points="2675.21,-1504.8 2675.21,-1535.6 2917.16,-1535.6 2917.16,-1504.8 2675.21,-1504.8"/>
<text text-anchor="start" x="2682.21" y="-1517" font-family="Arial" font-size="14.00">hour </text>
<text text-anchor="start" x="2714.12" y="-1517" font-family="Arial" font-size="14.00" fill="#666666">[time(6) without time zone]</text>
<polygon fill="none" stroke="black" points="2675.21,-1474 2675.21,-1504.8 2917.16,-1504.8 2917.16,-1474 2675.21,-1474"/>
<text text-anchor="start" x="2682.21" y="-1486.2" font-family="Arial" font-size="14.00">limit_status </text>
<text text-anchor="start" x="2756.12" y="-1486.2" font-family="Arial" font-size="14.00" fill="#666666">[varchar(255)]</text>
<polygon fill="none" stroke="black" points="2675.21,-1443.2 2675.21,-1474 2917.16,-1474 2917.16,-1443.2 2675.21,-1443.2"/>
<text text-anchor="start" x="2682.21" y="-1455.4" font-family="Arial" font-size="14.00">instrument_id </text>
<text text-anchor="start" x="2770.14" y="-1455.4" font-family="Arial" font-size="14.00" fill="#666666">[bigint]</text>
<polygon fill="none" stroke="black" points="2675.21,-1412.4 2675.21,-1443.2 2917.16,-1443.2 2917.16,-1412.4 2675.21,-1412.4"/>
<text text-anchor="start" x="2682.21" y="-1424.6" font-family="Arial" font-size="14.00">output_id </text>
<text text-anchor="start" x="2743.7" y="-1424.6" font-family="Arial" font-size="14.00" fill="#666666">[bigint]</text>
<polygon fill="none" stroke="black" points="2675.21,-1381.6 2675.21,-1412.4 2917.16,-1412.4 2917.16,-1381.6 2675.21,-1381.6"/>
<text text-anchor="start" x="2682.21" y="-1393.8" font-family="Arial" font-size="14.00">user_id </text>
<text text-anchor="start" x="2732.01" y="-1393.8" font-family="Arial" font-size="14.00" fill="#666666">[bigint]</text>
</g>
<!-- public.reading&#45;&gt;public.instrument -->
<g id="edge7" class="edge">
<title>public.reading:instrument_id&#45;&gt;public.instrument:id</title>
<path fill="none" stroke="black" d="M2663.95,-1457.85C2598.58,-1447.39 2683.35,-1329.75 2623.18,-1276.8 2546.94,-1209.7 1820.46,-1143.6 1718.9,-1143.6"/>
<polygon fill="black" stroke="black" points="2663.9,-1457.85 2673.55,-1463.06 2669.22,-1458.24 2673.54,-1458.55 2673.54,-1458.55 2673.54,-1458.55 2669.22,-1458.24 2674.2,-1454.09 2663.9,-1457.85"/>
<text text-anchor="start" x="2394.36" y="-1468.6" font-family="Arial" font-size="10.00">FOREIGN KEY (instrument_id) REFERENCES instrument(id)</text>
</g>
</g>
</svg>
