<?xml version="1.0" encoding="UTF-8" standalone="no"?>
<!DOCTYPE svg PUBLIC "-//W3C//DTD SVG 1.1//EN"
 "http://www.w3.org/Graphics/SVG/1.1/DTD/svg11.dtd">
<!-- Generated by graphviz version 12.1.2 (20240928.0832)
 -->
<!-- Title: public.instrument_type Pages: 1 -->
<svg width="779pt" height="818pt"
 viewBox="0.00 0.00 779.39 817.60" xmlns="http://www.w3.org/2000/svg" xmlns:xlink="http://www.w3.org/1999/xlink">
<g id="graph0" class="graph" transform="scale(1 1) rotate(0) translate(4 813.6)">
<title>public.instrument_type</title>
<polygon fill="white" stroke="none" points="-4,4 -4,-813.6 775.39,-813.6 775.39,4 -4,4"/>
<!-- public.instrument_type -->
<g id="node1" class="node">
<title>public.instrument_type</title>
<polygon fill="#efefef" stroke="none" points="86.43,-107.8 86.43,-143.4 391.39,-143.4 391.39,-107.8 86.43,-107.8"/>
<polygon fill="none" stroke="black" points="86.43,-107.8 86.43,-143.4 391.39,-143.4 391.39,-107.8 86.43,-107.8"/>
<text text-anchor="start" x="93.43" y="-121.2" font-family="Arial Bold" font-size="18.00">public.instrument_type</text>
<text text-anchor="start" x="259.91" y="-121.2" font-family="Arial" font-size="14.00">    </text>
<text text-anchor="start" x="291.02" y="-121.2" font-family="Arial" font-size="14.00" fill="#666666">[BASE TABLE]</text>
<polygon fill="none" stroke="black" points="86.43,-77 86.43,-107.8 391.39,-107.8 391.39,-77 86.43,-77"/>
<text text-anchor="start" x="93.43" y="-89.2" font-family="Arial" font-size="14.00">id </text>
<text text-anchor="start" x="108.22" y="-89.2" font-family="Arial" font-size="14.00" fill="#666666">[bigint]</text>
<polygon fill="none" stroke="black" points="86.43,-46.2 86.43,-77 391.39,-77 391.39,-46.2 86.43,-46.2"/>
<text text-anchor="start" x="93.43" y="-58.4" font-family="Arial" font-size="14.00">name </text>
<text text-anchor="start" x="132.34" y="-58.4" font-family="Arial" font-size="14.00" fill="#666666">[varchar(255)]</text>
<polygon fill="none" stroke="black" stroke-width="3" points="84.93,-44.7 84.93,-144.9 392.89,-144.9 392.89,-44.7 84.93,-44.7"/>
</g>
<!-- public.instrument -->
<g id="node2" class="node">
<title>public.instrument</title>
<polygon fill="#efefef" stroke="none" points="43.2,-730.8 43.2,-766.4 434.63,-766.4 434.63,-730.8 43.2,-730.8"/>
<polygon fill="none" stroke="black" points="43.2,-730.8 43.2,-766.4 434.63,-766.4 434.63,-730.8 43.2,-730.8"/>
<text text-anchor="start" x="113.43" y="-744.2" font-family="Arial Bold" font-size="18.00">public.instrument</text>
<text text-anchor="start" x="239.91" y="-744.2" font-family="Arial" font-size="14.00">    </text>
<text text-anchor="start" x="271.03" y="-744.2" font-family="Arial" font-size="14.00" fill="#666666">[BASE TABLE]</text>
<polygon fill="none" stroke="black" points="43.2,-700 43.2,-730.8 434.63,-730.8 434.63,-700 43.2,-700"/>
<text text-anchor="start" x="50.2" y="-712.2" font-family="Arial" font-size="14.00">id </text>
<text text-anchor="start" x="64.99" y="-712.2" font-family="Arial" font-size="14.00" fill="#666666">[bigint]</text>
<polygon fill="none" stroke="black" points="43.2,-669.2 43.2,-700 434.63,-700 434.63,-669.2 43.2,-669.2"/>
<text text-anchor="start" x="50.2" y="-681.4" font-family="Arial" font-size="14.00">active </text>
<text text-anchor="start" x="90.66" y="-681.4" font-family="Arial" font-size="14.00" fill="#666666">[boolean]</text>
<polygon fill="none" stroke="black" points="43.2,-638.4 43.2,-669.2 434.63,-669.2 434.63,-638.4 43.2,-638.4"/>
<text text-anchor="start" x="50.2" y="-650.6" font-family="Arial" font-size="14.00">active_for_section </text>
<text text-anchor="start" x="166.93" y="-650.6" font-family="Arial" font-size="14.00" fill="#666666">[boolean]</text>
<polygon fill="none" stroke="black" points="43.2,-607.6 43.2,-638.4 434.63,-638.4 434.63,-607.6 43.2,-607.6"/>
<text text-anchor="start" x="50.2" y="-619.8" font-family="Arial" font-size="14.00">distance_offset </text>
<text text-anchor="start" x="148.26" y="-619.8" font-family="Arial" font-size="14.00" fill="#666666">[double precision]</text>
<polygon fill="none" stroke="black" points="43.2,-576.8 43.2,-607.6 434.63,-607.6 434.63,-576.8 43.2,-576.8"/>
<text text-anchor="start" x="50.2" y="-589" font-family="Arial" font-size="14.00">is_linimetric_ruler </text>
<text text-anchor="start" x="163.01" y="-589" font-family="Arial" font-size="14.00" fill="#666666">[boolean]</text>
<polygon fill="none" stroke="black" points="43.2,-546 43.2,-576.8 434.63,-576.8 434.63,-546 43.2,-546"/>
<text text-anchor="start" x="50.2" y="-558.2" font-family="Arial" font-size="14.00">last_update_variables_date </text>
<text text-anchor="start" x="225.33" y="-558.2" font-family="Arial" font-size="14.00" fill="#666666">[timestamp(6) without time zone]</text>
<polygon fill="none" stroke="black" points="43.2,-515.2 43.2,-546 434.63,-546 434.63,-515.2 43.2,-515.2"/>
<text text-anchor="start" x="50.2" y="-527.4" font-family="Arial" font-size="14.00">latitude </text>
<text text-anchor="start" x="99.23" y="-527.4" font-family="Arial" font-size="14.00" fill="#666666">[double precision]</text>
<polygon fill="none" stroke="black" points="43.2,-484.4 43.2,-515.2 434.63,-515.2 434.63,-484.4 43.2,-484.4"/>
<text text-anchor="start" x="50.2" y="-496.6" font-family="Arial" font-size="14.00">linimetric_ruler_code </text>
<text text-anchor="start" x="183.25" y="-496.6" font-family="Arial" font-size="14.00" fill="#666666">[bigint]</text>
<polygon fill="none" stroke="black" points="43.2,-453.6 43.2,-484.4 434.63,-484.4 434.63,-453.6 43.2,-453.6"/>
<text text-anchor="start" x="50.2" y="-465.8" font-family="Arial" font-size="14.00">location </text>
<text text-anchor="start" x="102.34" y="-465.8" font-family="Arial" font-size="14.00" fill="#666666">[varchar(255)]</text>
<polygon fill="none" stroke="black" points="43.2,-422.8 43.2,-453.6 434.63,-453.6 434.63,-422.8 43.2,-422.8"/>
<text text-anchor="start" x="50.2" y="-435" font-family="Arial" font-size="14.00">longitude </text>
<text text-anchor="start" x="110.92" y="-435" font-family="Arial" font-size="14.00" fill="#666666">[double precision]</text>
<polygon fill="none" stroke="black" points="43.2,-392 43.2,-422.8 434.63,-422.8 434.63,-392 43.2,-392"/>
<text text-anchor="start" x="50.2" y="-404.2" font-family="Arial" font-size="14.00">name </text>
<text text-anchor="start" x="89.11" y="-404.2" font-family="Arial" font-size="14.00" fill="#666666">[varchar(255)]</text>
<polygon fill="none" stroke="black" points="43.2,-361.2 43.2,-392 434.63,-392 434.63,-361.2 43.2,-361.2"/>
<text text-anchor="start" x="50.2" y="-373.4" font-family="Arial" font-size="14.00">no_limit </text>
<text text-anchor="start" x="102.33" y="-373.4" font-family="Arial" font-size="14.00" fill="#666666">[boolean]</text>
<polygon fill="none" stroke="black" points="43.2,-330.4 43.2,-361.2 434.63,-361.2 434.63,-330.4 43.2,-330.4"/>
<text text-anchor="start" x="50.2" y="-342.6" font-family="Arial" font-size="14.00">dam_id </text>
<text text-anchor="start" x="100.01" y="-342.6" font-family="Arial" font-size="14.00" fill="#666666">[bigint]</text>
<polygon fill="none" stroke="black" points="43.2,-299.6 43.2,-330.4 434.63,-330.4 434.63,-299.6 43.2,-299.6"/>
<text text-anchor="start" x="50.2" y="-311.8" font-family="Arial" font-size="14.00">instrument_type_id </text>
<text text-anchor="start" x="172.38" y="-311.8" font-family="Arial" font-size="14.00" fill="#666666">[bigint]</text>
<polygon fill="none" stroke="black" points="43.2,-268.8 43.2,-299.6 434.63,-299.6 434.63,-268.8 43.2,-268.8"/>
<text text-anchor="start" x="50.2" y="-281" font-family="Arial" font-size="14.00">section_id </text>
<text text-anchor="start" x="117.13" y="-281" font-family="Arial" font-size="14.00" fill="#666666">[bigint]</text>
</g>
<!-- public.instrument&#45;&gt;public.instrument_type -->
<g id="edge1" class="edge">
<title>public.instrument:instrument_type_id&#45;&gt;public.instrument_type:id</title>
<path fill="none" stroke="black" d="M445.99,-314.15C533.21,-299.2 489.53,-92.4 392.39,-92.4"/>
<polygon fill="black" stroke="black" points="445.93,-314.15 435.59,-310.49 440.61,-314.59 436.29,-314.95 436.29,-314.95 436.29,-314.95 440.61,-314.59 436.33,-319.46 445.93,-314.15"/>
<text text-anchor="start" x="442.63" y="-325" font-family="Arial" font-size="10.00">FOREIGN KEY (instrument_type_id) REFERENCES instrument_type(id)</text>
</g>
</g>
</svg>
