<?xml version="1.0" encoding="UTF-8" standalone="no"?>
<!DOCTYPE svg PUBLIC "-//W3C//DTD SVG 1.1//EN"
 "http://www.w3.org/Graphics/SVG/1.1/DTD/svg11.dtd">
<!-- Generated by graphviz version 12.1.2 (20240928.0832)
 -->
<!-- Title: public.questionnaire_responses Pages: 1 -->
<svg width="1215pt" height="1284pt"
 viewBox="0.00 0.00 1215.34 1283.60" xmlns="http://www.w3.org/2000/svg" xmlns:xlink="http://www.w3.org/1999/xlink">
<g id="graph0" class="graph" transform="scale(1 1) rotate(0) translate(4 1279.6)">
<title>public.questionnaire_responses</title>
<polygon fill="white" stroke="none" points="-4,4 -4,-1279.6 1211.34,-1279.6 1211.34,4 -4,4"/>
<!-- public.questionnaire_responses -->
<g id="node1" class="node">
<title>public.questionnaire_responses</title>
<polygon fill="#efefef" stroke="none" points="405.7,-851 405.7,-886.6 769.64,-886.6 769.64,-851 405.7,-851"/>
<polygon fill="none" stroke="black" points="405.7,-851 405.7,-886.6 769.64,-886.6 769.64,-851 405.7,-851"/>
<text text-anchor="start" x="412.7" y="-864.4" font-family="Arial Bold" font-size="18.00">public.questionnaire_responses</text>
<text text-anchor="start" x="638.15" y="-864.4" font-family="Arial" font-size="14.00">    </text>
<text text-anchor="start" x="669.27" y="-864.4" font-family="Arial" font-size="14.00" fill="#666666">[BASE TABLE]</text>
<polygon fill="none" stroke="black" points="405.7,-820.2 405.7,-851 769.64,-851 769.64,-820.2 405.7,-820.2"/>
<text text-anchor="start" x="412.7" y="-832.4" font-family="Arial" font-size="14.00">id </text>
<text text-anchor="start" x="427.49" y="-832.4" font-family="Arial" font-size="14.00" fill="#666666">[bigint]</text>
<polygon fill="none" stroke="black" points="405.7,-789.4 405.7,-820.2 769.64,-820.2 769.64,-789.4 405.7,-789.4"/>
<text text-anchor="start" x="412.7" y="-801.6" font-family="Arial" font-size="14.00">created_at </text>
<text text-anchor="start" x="482.75" y="-801.6" font-family="Arial" font-size="14.00" fill="#666666">[timestamp(6) without time zone]</text>
<polygon fill="none" stroke="black" points="405.7,-758.6 405.7,-789.4 769.64,-789.4 769.64,-758.6 405.7,-758.6"/>
<text text-anchor="start" x="412.7" y="-770.8" font-family="Arial" font-size="14.00">checklist_response_id </text>
<text text-anchor="start" x="554.34" y="-770.8" font-family="Arial" font-size="14.00" fill="#666666">[bigint]</text>
<polygon fill="none" stroke="black" points="405.7,-727.8 405.7,-758.6 769.64,-758.6 769.64,-727.8 405.7,-727.8"/>
<text text-anchor="start" x="412.7" y="-740" font-family="Arial" font-size="14.00">dam_id </text>
<text text-anchor="start" x="462.51" y="-740" font-family="Arial" font-size="14.00" fill="#666666">[bigint]</text>
<polygon fill="none" stroke="black" points="405.7,-697 405.7,-727.8 769.64,-727.8 769.64,-697 405.7,-697"/>
<text text-anchor="start" x="412.7" y="-709.2" font-family="Arial" font-size="14.00">template_questionnaire_id </text>
<text text-anchor="start" x="580.82" y="-709.2" font-family="Arial" font-size="14.00" fill="#666666">[bigint]</text>
<polygon fill="none" stroke="black" stroke-width="3" points="404.2,-695.5 404.2,-888.1 771.14,-888.1 771.14,-695.5 404.2,-695.5"/>
</g>
<!-- public.checklist_responses -->
<g id="node3" class="node">
<title>public.checklist_responses</title>
<polygon fill="#efefef" stroke="none" points="43.2,-382 43.2,-417.6 374.14,-417.6 374.14,-382 43.2,-382"/>
<polygon fill="none" stroke="black" points="43.2,-382 43.2,-417.6 374.14,-417.6 374.14,-382 43.2,-382"/>
<text text-anchor="start" x="50.2" y="-395.4" font-family="Arial Bold" font-size="18.00">public.checklist_responses</text>
<text text-anchor="start" x="242.65" y="-395.4" font-family="Arial" font-size="14.00">    </text>
<text text-anchor="start" x="273.77" y="-395.4" font-family="Arial" font-size="14.00" fill="#666666">[BASE TABLE]</text>
<polygon fill="none" stroke="black" points="43.2,-351.2 43.2,-382 374.14,-382 374.14,-351.2 43.2,-351.2"/>
<text text-anchor="start" x="50.2" y="-363.4" font-family="Arial" font-size="14.00">id </text>
<text text-anchor="start" x="64.99" y="-363.4" font-family="Arial" font-size="14.00" fill="#666666">[bigint]</text>
<polygon fill="none" stroke="black" points="43.2,-320.4 43.2,-351.2 374.14,-351.2 374.14,-320.4 43.2,-320.4"/>
<text text-anchor="start" x="50.2" y="-332.6" font-family="Arial" font-size="14.00">checklist_id </text>
<text text-anchor="start" x="126.45" y="-332.6" font-family="Arial" font-size="14.00" fill="#666666">[bigint]</text>
<polygon fill="none" stroke="black" points="43.2,-289.6 43.2,-320.4 374.14,-320.4 374.14,-289.6 43.2,-289.6"/>
<text text-anchor="start" x="50.2" y="-301.8" font-family="Arial" font-size="14.00">checklist_name </text>
<text text-anchor="start" x="150.58" y="-301.8" font-family="Arial" font-size="14.00" fill="#666666">[varchar(255)]</text>
<polygon fill="none" stroke="black" points="43.2,-258.8 43.2,-289.6 374.14,-289.6 374.14,-258.8 43.2,-258.8"/>
<text text-anchor="start" x="50.2" y="-271" font-family="Arial" font-size="14.00">created_at </text>
<text text-anchor="start" x="120.25" y="-271" font-family="Arial" font-size="14.00" fill="#666666">[timestamp(6) without time zone]</text>
<polygon fill="none" stroke="black" points="43.2,-228 43.2,-258.8 374.14,-258.8 374.14,-228 43.2,-228"/>
<text text-anchor="start" x="50.2" y="-240.2" font-family="Arial" font-size="14.00">dam_id </text>
<text text-anchor="start" x="100.01" y="-240.2" font-family="Arial" font-size="14.00" fill="#666666">[bigint]</text>
<polygon fill="none" stroke="black" points="43.2,-197.2 43.2,-228 374.14,-228 374.14,-197.2 43.2,-197.2"/>
<text text-anchor="start" x="50.2" y="-209.4" font-family="Arial" font-size="14.00">user_id </text>
<text text-anchor="start" x="100.01" y="-209.4" font-family="Arial" font-size="14.00" fill="#666666">[bigint]</text>
</g>
<!-- public.questionnaire_responses&#45;&gt;public.checklist_responses -->
<g id="edge2" class="edge">
<title>public.questionnaire_responses:checklist_response_id&#45;&gt;public.checklist_responses:id</title>
<path fill="none" stroke="black" d="M394.73,-772C325.99,-741.27 462.19,-366.6 375.14,-366.6"/>
<polygon fill="black" stroke="black" points="394.57,-771.97 403.49,-778.35 399.8,-773.02 404.05,-773.87 404.05,-773.87 404.05,-773.87 399.8,-773.02 405.26,-769.52 394.57,-771.97"/>
<text text-anchor="start" x="43.14" y="-784" font-family="Arial" font-size="10.00">FOREIGN KEY (checklist_response_id) REFERENCES checklist_responses(id)</text>
</g>
<!-- public.dam -->
<g id="node4" class="node">
<title>public.dam</title>
<polygon fill="#efefef" stroke="none" points="478.19,-536 478.19,-571.6 697.16,-571.6 697.16,-536 478.19,-536"/>
<polygon fill="none" stroke="black" points="478.19,-536 478.19,-571.6 697.16,-571.6 697.16,-536 478.19,-536"/>
<text text-anchor="start" x="485.19" y="-549.4" font-family="Arial Bold" font-size="18.00">public.dam</text>
<text text-anchor="start" x="565.67" y="-549.4" font-family="Arial" font-size="14.00">    </text>
<text text-anchor="start" x="596.78" y="-549.4" font-family="Arial" font-size="14.00" fill="#666666">[BASE TABLE]</text>
<polygon fill="none" stroke="black" points="478.19,-505.2 478.19,-536 697.16,-536 697.16,-505.2 478.19,-505.2"/>
<text text-anchor="start" x="485.19" y="-517.4" font-family="Arial" font-size="14.00">id </text>
<text text-anchor="start" x="499.97" y="-517.4" font-family="Arial" font-size="14.00" fill="#666666">[bigint]</text>
<polygon fill="none" stroke="black" points="478.19,-474.4 478.19,-505.2 697.16,-505.2 697.16,-474.4 478.19,-474.4"/>
<text text-anchor="start" x="485.19" y="-486.6" font-family="Arial" font-size="14.00">city </text>
<text text-anchor="start" x="510.08" y="-486.6" font-family="Arial" font-size="14.00" fill="#666666">[varchar(100)]</text>
<polygon fill="none" stroke="black" points="478.19,-443.6 478.19,-474.4 697.16,-474.4 697.16,-443.6 478.19,-443.6"/>
<text text-anchor="start" x="485.19" y="-455.8" font-family="Arial" font-size="14.00">dam_image_path </text>
<text text-anchor="start" x="597.26" y="-455.8" font-family="Arial" font-size="14.00" fill="#666666">[varchar(255)]</text>
<polygon fill="none" stroke="black" points="478.19,-412.8 478.19,-443.6 697.16,-443.6 697.16,-412.8 478.19,-412.8"/>
<text text-anchor="start" x="485.19" y="-425" font-family="Arial" font-size="14.00">latitude </text>
<text text-anchor="start" x="534.22" y="-425" font-family="Arial" font-size="14.00" fill="#666666">[double precision]</text>
<polygon fill="none" stroke="black" points="478.19,-382 478.19,-412.8 697.16,-412.8 697.16,-382 478.19,-382"/>
<text text-anchor="start" x="485.19" y="-394.2" font-family="Arial" font-size="14.00">link_legislation </text>
<text text-anchor="start" x="580.13" y="-394.2" font-family="Arial" font-size="14.00" fill="#666666">[varchar(255)]</text>
<polygon fill="none" stroke="black" points="478.19,-351.2 478.19,-382 697.16,-382 697.16,-351.2 478.19,-351.2"/>
<text text-anchor="start" x="485.19" y="-363.4" font-family="Arial" font-size="14.00">linkpsb </text>
<text text-anchor="start" x="532.66" y="-363.4" font-family="Arial" font-size="14.00" fill="#666666">[varchar(255)]</text>
<polygon fill="none" stroke="black" points="478.19,-320.4 478.19,-351.2 697.16,-351.2 697.16,-320.4 478.19,-320.4"/>
<text text-anchor="start" x="485.19" y="-332.6" font-family="Arial" font-size="14.00">logo_path </text>
<text text-anchor="start" x="550.58" y="-332.6" font-family="Arial" font-size="14.00" fill="#666666">[varchar(255)]</text>
<polygon fill="none" stroke="black" points="478.19,-289.6 478.19,-320.4 697.16,-320.4 697.16,-289.6 478.19,-289.6"/>
<text text-anchor="start" x="485.19" y="-301.8" font-family="Arial" font-size="14.00">longitude </text>
<text text-anchor="start" x="545.9" y="-301.8" font-family="Arial" font-size="14.00" fill="#666666">[double precision]</text>
<polygon fill="none" stroke="black" points="478.19,-258.8 478.19,-289.6 697.16,-289.6 697.16,-258.8 478.19,-258.8"/>
<text text-anchor="start" x="485.19" y="-271" font-family="Arial" font-size="14.00">name </text>
<text text-anchor="start" x="524.1" y="-271" font-family="Arial" font-size="14.00" fill="#666666">[varchar(255)]</text>
<polygon fill="none" stroke="black" points="478.19,-228 478.19,-258.8 697.16,-258.8 697.16,-228 478.19,-228"/>
<text text-anchor="start" x="485.19" y="-240.2" font-family="Arial" font-size="14.00">neighborhood </text>
<text text-anchor="start" x="574.71" y="-240.2" font-family="Arial" font-size="14.00" fill="#666666">[varchar(100)]</text>
<polygon fill="none" stroke="black" points="478.19,-197.2 478.19,-228 697.16,-228 697.16,-197.2 478.19,-197.2"/>
<text text-anchor="start" x="485.19" y="-209.4" font-family="Arial" font-size="14.00">number_address </text>
<text text-anchor="start" x="594.14" y="-209.4" font-family="Arial" font-size="14.00" fill="#666666">[varchar(10)]</text>
<polygon fill="none" stroke="black" points="478.19,-166.4 478.19,-197.2 697.16,-197.2 697.16,-166.4 478.19,-166.4"/>
<text text-anchor="start" x="485.19" y="-178.6" font-family="Arial" font-size="14.00">state </text>
<text text-anchor="start" x="519.43" y="-178.6" font-family="Arial" font-size="14.00" fill="#666666">[varchar(100)]</text>
<polygon fill="none" stroke="black" points="478.19,-135.6 478.19,-166.4 697.16,-166.4 697.16,-135.6 478.19,-135.6"/>
<text text-anchor="start" x="485.19" y="-147.8" font-family="Arial" font-size="14.00">street </text>
<text text-anchor="start" x="524.09" y="-147.8" font-family="Arial" font-size="14.00" fill="#666666">[varchar(255)]</text>
<polygon fill="none" stroke="black" points="478.19,-104.8 478.19,-135.6 697.16,-135.6 697.16,-104.8 478.19,-104.8"/>
<text text-anchor="start" x="485.19" y="-117" font-family="Arial" font-size="14.00">zip_code </text>
<text text-anchor="start" x="545.12" y="-117" font-family="Arial" font-size="14.00" fill="#666666">[varchar(9)]</text>
<polygon fill="none" stroke="black" points="478.19,-74 478.19,-104.8 697.16,-104.8 697.16,-74 478.19,-74"/>
<text text-anchor="start" x="485.19" y="-86.2" font-family="Arial" font-size="14.00">client_id </text>
<text text-anchor="start" x="540.44" y="-86.2" font-family="Arial" font-size="14.00" fill="#666666">[bigint]</text>
<polygon fill="none" stroke="black" points="478.19,-43.2 478.19,-74 697.16,-74 697.16,-43.2 478.19,-43.2"/>
<text text-anchor="start" x="485.19" y="-55.4" font-family="Arial" font-size="14.00">status_id </text>
<text text-anchor="start" x="545.11" y="-55.4" font-family="Arial" font-size="14.00" fill="#666666">[bigint]</text>
</g>
<!-- public.questionnaire_responses&#45;&gt;public.dam -->
<g id="edge3" class="edge">
<title>public.questionnaire_responses:dam_id&#45;&gt;public.dam:id</title>
<path fill="none" stroke="black" d="M780.69,-741.75C805.82,-733.01 779.49,-686.52 769.64,-650.8 764.72,-632.95 757.71,-630.96 748.67,-614.8 725.49,-573.33 745.66,-520.6 698.16,-520.6"/>
<polygon fill="black" stroke="black" points="780.87,-741.73 770.33,-738.7 775.59,-742.49 771.3,-743.1 771.3,-743.1 771.3,-743.1 775.59,-742.49 771.61,-747.61 780.87,-741.73"/>
<text text-anchor="start" x="777.64" y="-753.2" font-family="Arial" font-size="10.00">FOREIGN KEY (dam_id) REFERENCES dam(id)</text>
</g>
<!-- public.template_questionnaires -->
<g id="node5" class="node">
<title>public.template_questionnaires</title>
<polygon fill="#efefef" stroke="none" points="801.21,-320.4 801.21,-356 1164.14,-356 1164.14,-320.4 801.21,-320.4"/>
<polygon fill="none" stroke="black" points="801.21,-320.4 801.21,-356 1164.14,-356 1164.14,-320.4 801.21,-320.4"/>
<text text-anchor="start" x="808.21" y="-333.8" font-family="Arial Bold" font-size="18.00">public.template_questionnaires</text>
<text text-anchor="start" x="1032.65" y="-333.8" font-family="Arial" font-size="14.00">    </text>
<text text-anchor="start" x="1063.76" y="-333.8" font-family="Arial" font-size="14.00" fill="#666666">[BASE TABLE]</text>
<polygon fill="none" stroke="black" points="801.21,-289.6 801.21,-320.4 1164.14,-320.4 1164.14,-289.6 801.21,-289.6"/>
<text text-anchor="start" x="808.21" y="-301.8" font-family="Arial" font-size="14.00">id </text>
<text text-anchor="start" x="822.99" y="-301.8" font-family="Arial" font-size="14.00" fill="#666666">[bigint]</text>
<polygon fill="none" stroke="black" points="801.21,-258.8 801.21,-289.6 1164.14,-289.6 1164.14,-258.8 801.21,-258.8"/>
<text text-anchor="start" x="808.21" y="-271" font-family="Arial" font-size="14.00">name </text>
<text text-anchor="start" x="847.12" y="-271" font-family="Arial" font-size="14.00" fill="#666666">[varchar(255)]</text>
</g>
<!-- public.questionnaire_responses&#45;&gt;public.template_questionnaires -->
<g id="edge4" class="edge">
<title>public.questionnaire_responses:template_questionnaire_id&#45;&gt;public.template_questionnaires:id</title>
<path fill="none" stroke="black" d="M780.62,-710.4C849.35,-679.67 713.16,-305 800.21,-305"/>
<polygon fill="black" stroke="black" points="780.77,-710.37 770.08,-707.92 775.54,-711.42 771.3,-712.27 771.3,-712.27 771.3,-712.27 775.54,-711.42 771.85,-716.75 780.77,-710.37"/>
<text text-anchor="start" x="777.64" y="-722.4" font-family="Arial" font-size="10.00">FOREIGN KEY (template_questionnaire_id) REFERENCES template_questionnaires(id)</text>
</g>
<!-- public.answers -->
<g id="node2" class="node">
<title>public.answers</title>
<polygon fill="#efefef" stroke="none" points="464.69,-1196.8 464.69,-1232.4 710.65,-1232.4 710.65,-1196.8 464.69,-1196.8"/>
<polygon fill="none" stroke="black" points="464.69,-1196.8 464.69,-1232.4 710.65,-1232.4 710.65,-1196.8 464.69,-1196.8"/>
<text text-anchor="start" x="471.69" y="-1210.2" font-family="Arial Bold" font-size="18.00">public.answers</text>
<text text-anchor="start" x="579.16" y="-1210.2" font-family="Arial" font-size="14.00">    </text>
<text text-anchor="start" x="610.28" y="-1210.2" font-family="Arial" font-size="14.00" fill="#666666">[BASE TABLE]</text>
<polygon fill="none" stroke="black" points="464.69,-1166 464.69,-1196.8 710.65,-1196.8 710.65,-1166 464.69,-1166"/>
<text text-anchor="start" x="471.69" y="-1178.2" font-family="Arial" font-size="14.00">id </text>
<text text-anchor="start" x="486.48" y="-1178.2" font-family="Arial" font-size="14.00" fill="#666666">[bigint]</text>
<polygon fill="none" stroke="black" points="464.69,-1135.2 464.69,-1166 710.65,-1166 710.65,-1135.2 464.69,-1135.2"/>
<text text-anchor="start" x="471.69" y="-1147.4" font-family="Arial" font-size="14.00">comment </text>
<text text-anchor="start" x="533.15" y="-1147.4" font-family="Arial" font-size="14.00" fill="#666666">[text]</text>
<polygon fill="none" stroke="black" points="464.69,-1104.4 464.69,-1135.2 710.65,-1135.2 710.65,-1104.4 464.69,-1104.4"/>
<text text-anchor="start" x="471.69" y="-1116.6" font-family="Arial" font-size="14.00">latitude </text>
<text text-anchor="start" x="520.72" y="-1116.6" font-family="Arial" font-size="14.00" fill="#666666">[double precision]</text>
<polygon fill="none" stroke="black" points="464.69,-1073.6 464.69,-1104.4 710.65,-1104.4 710.65,-1073.6 464.69,-1073.6"/>
<text text-anchor="start" x="471.69" y="-1085.8" font-family="Arial" font-size="14.00">longitude </text>
<text text-anchor="start" x="532.41" y="-1085.8" font-family="Arial" font-size="14.00" fill="#666666">[double precision]</text>
<polygon fill="none" stroke="black" points="464.69,-1042.8 464.69,-1073.6 710.65,-1073.6 710.65,-1042.8 464.69,-1042.8"/>
<text text-anchor="start" x="471.69" y="-1055" font-family="Arial" font-size="14.00">question_id </text>
<text text-anchor="start" x="547.19" y="-1055" font-family="Arial" font-size="14.00" fill="#666666">[bigint]</text>
<polygon fill="none" stroke="black" points="464.69,-1012 464.69,-1042.8 710.65,-1042.8 710.65,-1012 464.69,-1012"/>
<text text-anchor="start" x="471.69" y="-1024.2" font-family="Arial" font-size="14.00">questionnaire_response_id </text>
<text text-anchor="start" x="643.7" y="-1024.2" font-family="Arial" font-size="14.00" fill="#666666">[bigint]</text>
</g>
<!-- public.answers&#45;&gt;public.questionnaire_responses -->
<g id="edge1" class="edge">
<title>public.answers:questionnaire_response_id&#45;&gt;public.questionnaire_responses:id</title>
<path fill="none" stroke="black" d="M588.33,-1001.01C598.45,-929.53 722.84,-1003.06 769.64,-932.8 793.59,-896.84 813.84,-835.6 770.64,-835.6"/>
<polygon fill="black" stroke="black" points="588.35,-1000.69 583.2,-1010.37 588,-1006.01 587.72,-1010.33 587.72,-1010.33 587.72,-1010.33 588,-1006.01 592.18,-1010.96 588.35,-1000.69"/>
<text text-anchor="start" x="182.71" y="-1021" font-family="Arial" font-size="10.00">FOREIGN KEY (questionnaire_response_id) REFERENCES questionnaire_responses(id)</text>
</g>
</g>
</svg>
