<?xml version="1.0" encoding="UTF-8" standalone="no"?>
<!DOCTYPE svg PUBLIC "-//W3C//DTD SVG 1.1//EN"
 "http://www.w3.org/Graphics/SVG/1.1/DTD/svg11.dtd">
<!-- Generated by graphviz version 12.1.2 (20240928.0832)
 -->
<!-- Title: public.potential_damages Pages: 1 -->
<svg width="725pt" height="787pt"
 viewBox="0.00 0.00 725.12 786.80" xmlns="http://www.w3.org/2000/svg" xmlns:xlink="http://www.w3.org/1999/xlink">
<g id="graph0" class="graph" transform="scale(1 1) rotate(0) translate(4 782.8)">
<title>public.potential_damages</title>
<polygon fill="white" stroke="none" points="-4,4 -4,-782.8 721.12,-782.8 721.12,4 -4,4"/>
<!-- public.potential_damages -->
<g id="node1" class="node">
<title>public.potential_damages</title>
<polygon fill="#efefef" stroke="none" points="46.2,-107.8 46.2,-143.4 369.14,-143.4 369.14,-107.8 46.2,-107.8"/>
<polygon fill="none" stroke="black" points="46.2,-107.8 46.2,-143.4 369.14,-143.4 369.14,-107.8 46.2,-107.8"/>
<text text-anchor="start" x="53.2" y="-121.2" font-family="Arial Bold" font-size="18.00">public.potential_damages</text>
<text text-anchor="start" x="237.65" y="-121.2" font-family="Arial" font-size="14.00">    </text>
<text text-anchor="start" x="268.76" y="-121.2" font-family="Arial" font-size="14.00" fill="#666666">[BASE TABLE]</text>
<polygon fill="none" stroke="black" points="46.2,-77 46.2,-107.8 369.14,-107.8 369.14,-77 46.2,-77"/>
<text text-anchor="start" x="53.2" y="-89.2" font-family="Arial" font-size="14.00">id </text>
<text text-anchor="start" x="67.99" y="-89.2" font-family="Arial" font-size="14.00" fill="#666666">[bigint]</text>
<polygon fill="none" stroke="black" points="46.2,-46.2 46.2,-77 369.14,-77 369.14,-46.2 46.2,-46.2"/>
<text text-anchor="start" x="53.2" y="-58.4" font-family="Arial" font-size="14.00">name </text>
<text text-anchor="start" x="92.11" y="-58.4" font-family="Arial" font-size="14.00" fill="#666666">[varchar(255)]</text>
<polygon fill="none" stroke="black" stroke-width="3" points="44.7,-44.7 44.7,-144.9 370.64,-144.9 370.64,-44.7 44.7,-44.7"/>
</g>
<!-- public.regulatory_dam -->
<g id="node2" class="node">
<title>public.regulatory_dam</title>
<polygon fill="#efefef" stroke="none" points="56.7,-700 56.7,-735.6 358.64,-735.6 358.64,-700 56.7,-700"/>
<polygon fill="none" stroke="black" points="56.7,-700 56.7,-735.6 358.64,-735.6 358.64,-700 56.7,-700"/>
<text text-anchor="start" x="63.7" y="-713.4" font-family="Arial Bold" font-size="18.00">public.regulatory_dam</text>
<text text-anchor="start" x="227.15" y="-713.4" font-family="Arial" font-size="14.00">    </text>
<text text-anchor="start" x="258.27" y="-713.4" font-family="Arial" font-size="14.00" fill="#666666">[BASE TABLE]</text>
<polygon fill="none" stroke="black" points="56.7,-669.2 56.7,-700 358.64,-700 358.64,-669.2 56.7,-669.2"/>
<text text-anchor="start" x="63.7" y="-681.4" font-family="Arial" font-size="14.00">id </text>
<text text-anchor="start" x="78.48" y="-681.4" font-family="Arial" font-size="14.00" fill="#666666">[bigint]</text>
<polygon fill="none" stroke="black" points="56.7,-638.4 56.7,-669.2 358.64,-669.2 358.64,-638.4 56.7,-638.4"/>
<text text-anchor="start" x="63.7" y="-650.6" font-family="Arial" font-size="14.00">frame_pnsb </text>
<text text-anchor="start" x="141.52" y="-650.6" font-family="Arial" font-size="14.00" fill="#666666">[boolean]</text>
<polygon fill="none" stroke="black" points="56.7,-607.6 56.7,-638.4 358.64,-638.4 358.64,-607.6 56.7,-607.6"/>
<text text-anchor="start" x="63.7" y="-619.8" font-family="Arial" font-size="14.00">representative_email </text>
<text text-anchor="start" x="197.55" y="-619.8" font-family="Arial" font-size="14.00" fill="#666666">[varchar(255)]</text>
<polygon fill="none" stroke="black" points="56.7,-576.8 56.7,-607.6 358.64,-607.6 358.64,-576.8 56.7,-576.8"/>
<text text-anchor="start" x="63.7" y="-589" font-family="Arial" font-size="14.00">representative_name </text>
<text text-anchor="start" x="199.11" y="-589" font-family="Arial" font-size="14.00" fill="#666666">[varchar(255)]</text>
<polygon fill="none" stroke="black" points="56.7,-546 56.7,-576.8 358.64,-576.8 358.64,-546 56.7,-546"/>
<text text-anchor="start" x="63.7" y="-558.2" font-family="Arial" font-size="14.00">representative_phone </text>
<text text-anchor="start" x="203.02" y="-558.2" font-family="Arial" font-size="14.00" fill="#666666">[varchar(255)]</text>
<polygon fill="none" stroke="black" points="56.7,-515.2 56.7,-546 358.64,-546 358.64,-515.2 56.7,-515.2"/>
<text text-anchor="start" x="63.7" y="-527.4" font-family="Arial" font-size="14.00">supervisory_body_name </text>
<text text-anchor="start" x="220.12" y="-527.4" font-family="Arial" font-size="14.00" fill="#666666">[varchar(255)]</text>
<polygon fill="none" stroke="black" points="56.7,-484.4 56.7,-515.2 358.64,-515.2 358.64,-484.4 56.7,-484.4"/>
<text text-anchor="start" x="63.7" y="-496.6" font-family="Arial" font-size="14.00">technical_manager_email </text>
<text text-anchor="start" x="227.13" y="-496.6" font-family="Arial" font-size="14.00" fill="#666666">[varchar(255)]</text>
<polygon fill="none" stroke="black" points="56.7,-453.6 56.7,-484.4 358.64,-484.4 358.64,-453.6 56.7,-453.6"/>
<text text-anchor="start" x="63.7" y="-465.8" font-family="Arial" font-size="14.00">technical_manager_name </text>
<text text-anchor="start" x="228.69" y="-465.8" font-family="Arial" font-size="14.00" fill="#666666">[varchar(255)]</text>
<polygon fill="none" stroke="black" points="56.7,-422.8 56.7,-453.6 358.64,-453.6 358.64,-422.8 56.7,-422.8"/>
<text text-anchor="start" x="63.7" y="-435" font-family="Arial" font-size="14.00">technical_manager_phone </text>
<text text-anchor="start" x="232.6" y="-435" font-family="Arial" font-size="14.00" fill="#666666">[varchar(255)]</text>
<polygon fill="none" stroke="black" points="56.7,-392 56.7,-422.8 358.64,-422.8 358.64,-392 56.7,-392"/>
<text text-anchor="start" x="63.7" y="-404.2" font-family="Arial" font-size="14.00">classification_dam_id </text>
<text text-anchor="start" x="200.66" y="-404.2" font-family="Arial" font-size="14.00" fill="#666666">[bigint]</text>
<polygon fill="none" stroke="black" points="56.7,-361.2 56.7,-392 358.64,-392 358.64,-361.2 56.7,-361.2"/>
<text text-anchor="start" x="63.7" y="-373.4" font-family="Arial" font-size="14.00">dam_id </text>
<text text-anchor="start" x="113.51" y="-373.4" font-family="Arial" font-size="14.00" fill="#666666">[bigint]</text>
<polygon fill="none" stroke="black" points="56.7,-330.4 56.7,-361.2 358.64,-361.2 358.64,-330.4 56.7,-330.4"/>
<text text-anchor="start" x="63.7" y="-342.6" font-family="Arial" font-size="14.00">potential_damage_id </text>
<text text-anchor="start" x="197.58" y="-342.6" font-family="Arial" font-size="14.00" fill="#666666">[bigint]</text>
<polygon fill="none" stroke="black" points="56.7,-299.6 56.7,-330.4 358.64,-330.4 358.64,-299.6 56.7,-299.6"/>
<text text-anchor="start" x="63.7" y="-311.8" font-family="Arial" font-size="14.00">risk_category_id </text>
<text text-anchor="start" x="169.53" y="-311.8" font-family="Arial" font-size="14.00" fill="#666666">[bigint]</text>
<polygon fill="none" stroke="black" points="56.7,-268.8 56.7,-299.6 358.64,-299.6 358.64,-268.8 56.7,-268.8"/>
<text text-anchor="start" x="63.7" y="-281" font-family="Arial" font-size="14.00">security_level_id </text>
<text text-anchor="start" x="171.08" y="-281" font-family="Arial" font-size="14.00" fill="#666666">[bigint]</text>
</g>
<!-- public.regulatory_dam&#45;&gt;public.potential_damages -->
<g id="edge1" class="edge">
<title>public.regulatory_dam:potential_damage_id&#45;&gt;public.potential_damages:id</title>
<path fill="none" stroke="black" d="M369.66,-342.95C417.05,-315.11 422.97,-92.4 370.14,-92.4"/>
<polygon fill="black" stroke="black" points="369.58,-342.98 358.73,-341.38 364.45,-344.43 360.28,-345.62 360.28,-345.62 360.28,-345.62 364.45,-344.43 361.19,-350.04 369.58,-342.98"/>
<text text-anchor="start" x="366.64" y="-355.8" font-family="Arial" font-size="10.00">FOREIGN KEY (potential_damage_id) REFERENCES potential_damages(id)</text>
</g>
</g>
</svg>
