<?xml version="1.0" encoding="UTF-8" standalone="no"?>
<!DOCTYPE svg PUBLIC "-//W3C//DTD SVG 1.1//EN"
 "http://www.w3.org/Graphics/SVG/1.1/DTD/svg11.dtd">
<!-- Generated by graphviz version 12.1.2 (20240928.0832)
 -->
<!-- Title: public.deterministic_limit Pages: 1 -->
<svg width="911pt" height="1284pt"
 viewBox="0.00 0.00 910.51 1283.60" xmlns="http://www.w3.org/2000/svg" xmlns:xlink="http://www.w3.org/1999/xlink">
<g id="graph0" class="graph" transform="scale(1 1) rotate(0) translate(4 1279.6)">
<title>public.deterministic_limit</title>
<polygon fill="white" stroke="none" points="-4,4 -4,-1279.6 906.51,-1279.6 906.51,4 -4,4"/>
<!-- public.deterministic_limit -->
<g id="node1" class="node">
<title>public.deterministic_limit</title>
<polygon fill="#efefef" stroke="none" points="133.67,-604.6 133.67,-640.2 458.63,-640.2 458.63,-604.6 133.67,-604.6"/>
<polygon fill="none" stroke="black" points="133.67,-604.6 133.67,-640.2 458.63,-640.2 458.63,-604.6 133.67,-604.6"/>
<text text-anchor="start" x="140.67" y="-618" font-family="Arial Bold" font-size="18.00">public.deterministic_limit</text>
<text text-anchor="start" x="327.14" y="-618" font-family="Arial" font-size="14.00">    </text>
<text text-anchor="start" x="358.26" y="-618" font-family="Arial" font-size="14.00" fill="#666666">[BASE TABLE]</text>
<polygon fill="none" stroke="black" points="133.67,-573.8 133.67,-604.6 458.63,-604.6 458.63,-573.8 133.67,-573.8"/>
<text text-anchor="start" x="140.67" y="-586" font-family="Arial" font-size="14.00">id </text>
<text text-anchor="start" x="155.46" y="-586" font-family="Arial" font-size="14.00" fill="#666666">[bigint]</text>
<polygon fill="none" stroke="black" points="133.67,-543 133.67,-573.8 458.63,-573.8 458.63,-543 133.67,-543"/>
<text text-anchor="start" x="140.67" y="-555.2" font-family="Arial" font-size="14.00">alert_value </text>
<text text-anchor="start" x="213.05" y="-555.2" font-family="Arial" font-size="14.00" fill="#666666">[double precision]</text>
<polygon fill="none" stroke="black" points="133.67,-512.2 133.67,-543 458.63,-543 458.63,-512.2 133.67,-512.2"/>
<text text-anchor="start" x="140.67" y="-524.4" font-family="Arial" font-size="14.00">attention_value </text>
<text text-anchor="start" x="239.53" y="-524.4" font-family="Arial" font-size="14.00" fill="#666666">[double precision]</text>
<polygon fill="none" stroke="black" points="133.67,-481.4 133.67,-512.2 458.63,-512.2 458.63,-481.4 133.67,-481.4"/>
<text text-anchor="start" x="140.67" y="-493.6" font-family="Arial" font-size="14.00">emergency_value </text>
<text text-anchor="start" x="255.07" y="-493.6" font-family="Arial" font-size="14.00" fill="#666666">[double precision]</text>
<polygon fill="none" stroke="black" points="133.67,-450.6 133.67,-481.4 458.63,-481.4 458.63,-450.6 133.67,-450.6"/>
<text text-anchor="start" x="140.67" y="-462.8" font-family="Arial" font-size="14.00">output_id </text>
<text text-anchor="start" x="202.17" y="-462.8" font-family="Arial" font-size="14.00" fill="#666666">[bigint]</text>
<polygon fill="none" stroke="black" stroke-width="3" points="132.17,-449.1 132.17,-641.7 460.13,-641.7 460.13,-449.1 132.17,-449.1"/>
</g>
<!-- public.output -->
<g id="node3" class="node">
<title>public.output</title>
<polygon fill="#efefef" stroke="none" points="179.16,-289.6 179.16,-325.2 413.14,-325.2 413.14,-289.6 179.16,-289.6"/>
<polygon fill="none" stroke="black" points="179.16,-289.6 179.16,-325.2 413.14,-325.2 413.14,-289.6 179.16,-289.6"/>
<text text-anchor="start" x="186.16" y="-303" font-family="Arial Bold" font-size="18.00">public.output</text>
<text text-anchor="start" x="281.66" y="-303" font-family="Arial" font-size="14.00">    </text>
<text text-anchor="start" x="312.77" y="-303" font-family="Arial" font-size="14.00" fill="#666666">[BASE TABLE]</text>
<polygon fill="none" stroke="black" points="179.16,-258.8 179.16,-289.6 413.14,-289.6 413.14,-258.8 179.16,-258.8"/>
<text text-anchor="start" x="186.16" y="-271" font-family="Arial" font-size="14.00">id </text>
<text text-anchor="start" x="200.95" y="-271" font-family="Arial" font-size="14.00" fill="#666666">[bigint]</text>
<polygon fill="none" stroke="black" points="179.16,-228 179.16,-258.8 413.14,-258.8 413.14,-228 179.16,-228"/>
<text text-anchor="start" x="186.16" y="-240.2" font-family="Arial" font-size="14.00">acronym </text>
<text text-anchor="start" x="243.73" y="-240.2" font-family="Arial" font-size="14.00" fill="#666666">[varchar(255)]</text>
<polygon fill="none" stroke="black" points="179.16,-197.2 179.16,-228 413.14,-228 413.14,-197.2 179.16,-197.2"/>
<text text-anchor="start" x="186.16" y="-209.4" font-family="Arial" font-size="14.00">active </text>
<text text-anchor="start" x="226.62" y="-209.4" font-family="Arial" font-size="14.00" fill="#666666">[boolean]</text>
<polygon fill="none" stroke="black" points="179.16,-166.4 179.16,-197.2 413.14,-197.2 413.14,-166.4 179.16,-166.4"/>
<text text-anchor="start" x="186.16" y="-178.6" font-family="Arial" font-size="14.00">equation </text>
<text text-anchor="start" x="243.77" y="-178.6" font-family="Arial" font-size="14.00" fill="#666666">[text]</text>
<polygon fill="none" stroke="black" points="179.16,-135.6 179.16,-166.4 413.14,-166.4 413.14,-135.6 179.16,-135.6"/>
<text text-anchor="start" x="186.16" y="-147.8" font-family="Arial" font-size="14.00">name </text>
<text text-anchor="start" x="225.07" y="-147.8" font-family="Arial" font-size="14.00" fill="#666666">[varchar(255)]</text>
<polygon fill="none" stroke="black" points="179.16,-104.8 179.16,-135.6 413.14,-135.6 413.14,-104.8 179.16,-104.8"/>
<text text-anchor="start" x="186.16" y="-117" font-family="Arial" font-size="14.00">precision </text>
<text text-anchor="start" x="246.08" y="-117" font-family="Arial" font-size="14.00" fill="#666666">[integer]</text>
<polygon fill="none" stroke="black" points="179.16,-74 179.16,-104.8 413.14,-104.8 413.14,-74 179.16,-74"/>
<text text-anchor="start" x="186.16" y="-86.2" font-family="Arial" font-size="14.00">instrument_id </text>
<text text-anchor="start" x="274.09" y="-86.2" font-family="Arial" font-size="14.00" fill="#666666">[bigint]</text>
<polygon fill="none" stroke="black" points="179.16,-43.2 179.16,-74 413.14,-74 413.14,-43.2 179.16,-43.2"/>
<text text-anchor="start" x="186.16" y="-55.4" font-family="Arial" font-size="14.00">measurement_unit_id </text>
<text text-anchor="start" x="324.69" y="-55.4" font-family="Arial" font-size="14.00" fill="#666666">[bigint]</text>
</g>
<!-- public.deterministic_limit&#45;&gt;public.output -->
<g id="edge2" class="edge">
<title>public.deterministic_limit:output_id&#45;&gt;public.output:id</title>
<path fill="none" stroke="black" d="M297.02,-439.48C306.19,-390.44 385.24,-421.05 413.14,-368.4 432.75,-331.41 456.01,-274.2 414.14,-274.2"/>
<polygon fill="black" stroke="black" points="297.04,-439.3 291.7,-448.88 296.58,-444.62 296.21,-448.93 296.21,-448.93 296.21,-448.93 296.58,-444.62 300.67,-449.65 297.04,-439.3"/>
<text text-anchor="start" x="54.08" y="-459.6" font-family="Arial" font-size="10.00">FOREIGN KEY (output_id) REFERENCES output(id)</text>
</g>
<!-- public.instrument_graph_customization_properties -->
<g id="node2" class="node">
<title>public.instrument_graph_customization_properties</title>
<polygon fill="#efefef" stroke="none" points="43.2,-1196.8 43.2,-1232.4 549.11,-1232.4 549.11,-1196.8 43.2,-1196.8"/>
<polygon fill="none" stroke="black" points="43.2,-1196.8 43.2,-1232.4 549.11,-1232.4 549.11,-1196.8 43.2,-1196.8"/>
<text text-anchor="start" x="50.2" y="-1210.2" font-family="Arial Bold" font-size="18.00">public.instrument_graph_customization_properties</text>
<text text-anchor="start" x="417.62" y="-1210.2" font-family="Arial" font-size="14.00">    </text>
<text text-anchor="start" x="448.74" y="-1210.2" font-family="Arial" font-size="14.00" fill="#666666">[BASE TABLE]</text>
<polygon fill="none" stroke="black" points="43.2,-1166 43.2,-1196.8 549.11,-1196.8 549.11,-1166 43.2,-1166"/>
<text text-anchor="start" x="50.2" y="-1178.2" font-family="Arial" font-size="14.00">id </text>
<text text-anchor="start" x="64.99" y="-1178.2" font-family="Arial" font-size="14.00" fill="#666666">[bigint]</text>
<polygon fill="none" stroke="black" points="43.2,-1135.2 43.2,-1166 549.11,-1166 549.11,-1135.2 43.2,-1135.2"/>
<text text-anchor="start" x="50.2" y="-1147.4" font-family="Arial" font-size="14.00">customization_type </text>
<text text-anchor="start" x="173.93" y="-1147.4" font-family="Arial" font-size="14.00" fill="#666666">[varchar(255)]</text>
<polygon fill="none" stroke="black" points="43.2,-1104.4 43.2,-1135.2 549.11,-1135.2 549.11,-1104.4 43.2,-1104.4"/>
<text text-anchor="start" x="50.2" y="-1116.6" font-family="Arial" font-size="14.00">fill_color </text>
<text text-anchor="start" x="105.44" y="-1116.6" font-family="Arial" font-size="14.00" fill="#666666">[varchar(255)]</text>
<polygon fill="none" stroke="black" points="43.2,-1073.6 43.2,-1104.4 549.11,-1104.4 549.11,-1073.6 43.2,-1073.6"/>
<text text-anchor="start" x="50.2" y="-1085.8" font-family="Arial" font-size="14.00">is_primary_ordinate </text>
<text text-anchor="start" x="177.03" y="-1085.8" font-family="Arial" font-size="14.00" fill="#666666">[boolean]</text>
<polygon fill="none" stroke="black" points="43.2,-1042.8 43.2,-1073.6 549.11,-1073.6 549.11,-1042.8 43.2,-1042.8"/>
<text text-anchor="start" x="50.2" y="-1055" font-family="Arial" font-size="14.00">label_enable </text>
<text text-anchor="start" x="133.5" y="-1055" font-family="Arial" font-size="14.00" fill="#666666">[boolean]</text>
<polygon fill="none" stroke="black" points="43.2,-1012 43.2,-1042.8 549.11,-1042.8 549.11,-1012 43.2,-1012"/>
<text text-anchor="start" x="50.2" y="-1024.2" font-family="Arial" font-size="14.00">limit_value_type </text>
<text text-anchor="start" x="154.48" y="-1024.2" font-family="Arial" font-size="14.00" fill="#666666">[varchar(255)]</text>
<polygon fill="none" stroke="black" points="43.2,-981.2 43.2,-1012 549.11,-1012 549.11,-981.2 43.2,-981.2"/>
<text text-anchor="start" x="50.2" y="-993.4" font-family="Arial" font-size="14.00">line_type </text>
<text text-anchor="start" x="110.13" y="-993.4" font-family="Arial" font-size="14.00" fill="#666666">[varchar(255)]</text>
<polygon fill="none" stroke="black" points="43.2,-950.4 43.2,-981.2 549.11,-981.2 549.11,-950.4 43.2,-950.4"/>
<text text-anchor="start" x="50.2" y="-962.6" font-family="Arial" font-size="14.00">name </text>
<text text-anchor="start" x="89.11" y="-962.6" font-family="Arial" font-size="14.00" fill="#666666">[varchar(255)]</text>
<polygon fill="none" stroke="black" points="43.2,-919.6 43.2,-950.4 549.11,-950.4 549.11,-919.6 43.2,-919.6"/>
<text text-anchor="start" x="50.2" y="-931.8" font-family="Arial" font-size="14.00">constant_id </text>
<text text-anchor="start" x="125.7" y="-931.8" font-family="Arial" font-size="14.00" fill="#666666">[bigint]</text>
<polygon fill="none" stroke="black" points="43.2,-888.8 43.2,-919.6 549.11,-919.6 549.11,-888.8 43.2,-888.8"/>
<text text-anchor="start" x="50.2" y="-901" font-family="Arial" font-size="14.00">deterministic_limit_id </text>
<text text-anchor="start" x="184.02" y="-901" font-family="Arial" font-size="14.00" fill="#666666">[bigint]</text>
<polygon fill="none" stroke="black" points="43.2,-858 43.2,-888.8 549.11,-888.8 549.11,-858 43.2,-858"/>
<text text-anchor="start" x="50.2" y="-870.2" font-family="Arial" font-size="14.00">instrument_id </text>
<text text-anchor="start" x="138.13" y="-870.2" font-family="Arial" font-size="14.00" fill="#666666">[bigint]</text>
<polygon fill="none" stroke="black" points="43.2,-827.2 43.2,-858 549.11,-858 549.11,-827.2 43.2,-827.2"/>
<text text-anchor="start" x="50.2" y="-839.4" font-family="Arial" font-size="14.00">output_id </text>
<text text-anchor="start" x="111.7" y="-839.4" font-family="Arial" font-size="14.00" fill="#666666">[bigint]</text>
<polygon fill="none" stroke="black" points="43.2,-796.4 43.2,-827.2 549.11,-827.2 549.11,-796.4 43.2,-796.4"/>
<text text-anchor="start" x="50.2" y="-808.6" font-family="Arial" font-size="14.00">pattern_id </text>
<text text-anchor="start" x="116.36" y="-808.6" font-family="Arial" font-size="14.00" fill="#666666">[bigint]</text>
<polygon fill="none" stroke="black" points="43.2,-765.6 43.2,-796.4 549.11,-796.4 549.11,-765.6 43.2,-765.6"/>
<text text-anchor="start" x="50.2" y="-777.8" font-family="Arial" font-size="14.00">statistical_limit_id </text>
<text text-anchor="start" x="163.01" y="-777.8" font-family="Arial" font-size="14.00" fill="#666666">[bigint]</text>
</g>
<!-- public.instrument_graph_customization_properties&#45;&gt;public.deterministic_limit -->
<g id="edge1" class="edge">
<title>public.instrument_graph_customization_properties:deterministic_limit_id&#45;&gt;public.deterministic_limit:id</title>
<path fill="none" stroke="black" d="M560.36,-903.65C691.32,-889.01 601.74,-589.2 459.63,-589.2"/>
<polygon fill="black" stroke="black" points="560.43,-903.64 550.2,-899.69 555.1,-903.93 550.78,-904.16 550.78,-904.16 550.78,-904.16 555.1,-903.93 550.68,-908.68 560.43,-903.64"/>
<text text-anchor="start" x="557.11" y="-914.2" font-family="Arial" font-size="10.00">FOREIGN KEY (deterministic_limit_id) REFERENCES deterministic_limit(id)</text>
</g>
</g>
</svg>
