<?xml version="1.0" encoding="UTF-8" standalone="no"?>
<!DOCTYPE svg PUBLIC "-//W3C//DTD SVG 1.1//EN"
 "http://www.w3.org/Graphics/SVG/1.1/DTD/svg11.dtd">
<!-- Generated by graphviz version 12.1.2 (20240928.0832)
 -->
<!-- Title: public.checklists Pages: 1 -->
<svg width="920pt" height="448pt"
 viewBox="0.00 0.00 919.82 448.00" xmlns="http://www.w3.org/2000/svg" xmlns:xlink="http://www.w3.org/1999/xlink">
<g id="graph0" class="graph" transform="scale(1 1) rotate(0) translate(4 444)">
<title>public.checklists</title>
<polygon fill="white" stroke="none" points="-4,4 -4,-444 915.82,-444 915.82,4 -4,4"/>
<!-- public.checklists -->
<g id="node1" class="node">
<title>public.checklists</title>
<polygon fill="#efefef" stroke="none" points="278,-138.6 278,-174.2 564.35,-174.2 564.35,-138.6 278,-138.6"/>
<polygon fill="none" stroke="black" points="278,-138.6 278,-174.2 564.35,-174.2 564.35,-138.6 278,-138.6"/>
<text text-anchor="start" x="298.69" y="-152" font-family="Arial Bold" font-size="18.00">public.checklists</text>
<text text-anchor="start" x="419.16" y="-152" font-family="Arial" font-size="14.00">    </text>
<text text-anchor="start" x="450.28" y="-152" font-family="Arial" font-size="14.00" fill="#666666">[BASE TABLE]</text>
<polygon fill="none" stroke="black" points="278,-107.8 278,-138.6 564.35,-138.6 564.35,-107.8 278,-107.8"/>
<text text-anchor="start" x="285" y="-120" font-family="Arial" font-size="14.00">id </text>
<text text-anchor="start" x="299.79" y="-120" font-family="Arial" font-size="14.00" fill="#666666">[bigint]</text>
<polygon fill="none" stroke="black" points="278,-77 278,-107.8 564.35,-107.8 564.35,-77 278,-77"/>
<text text-anchor="start" x="285" y="-89.2" font-family="Arial" font-size="14.00">created_at </text>
<text text-anchor="start" x="355.05" y="-89.2" font-family="Arial" font-size="14.00" fill="#666666">[timestamp(6) without time zone]</text>
<polygon fill="none" stroke="black" points="278,-46.2 278,-77 564.35,-77 564.35,-46.2 278,-46.2"/>
<text text-anchor="start" x="285" y="-58.4" font-family="Arial" font-size="14.00">name </text>
<text text-anchor="start" x="323.91" y="-58.4" font-family="Arial" font-size="14.00" fill="#666666">[varchar(255)]</text>
<polygon fill="none" stroke="black" stroke-width="3" points="276.5,-44.7 276.5,-175.7 565.85,-175.7 565.85,-44.7 276.5,-44.7"/>
</g>
<!-- public.checklist_dam -->
<g id="node2" class="node">
<title>public.checklist_dam</title>
<polygon fill="#efefef" stroke="none" points="43.2,-361.2 43.2,-396.8 335.15,-396.8 335.15,-361.2 43.2,-361.2"/>
<polygon fill="none" stroke="black" points="43.2,-361.2 43.2,-396.8 335.15,-396.8 335.15,-361.2 43.2,-361.2"/>
<text text-anchor="start" x="50.2" y="-374.6" font-family="Arial Bold" font-size="18.00">public.checklist_dam</text>
<text text-anchor="start" x="203.66" y="-374.6" font-family="Arial" font-size="14.00">    </text>
<text text-anchor="start" x="234.77" y="-374.6" font-family="Arial" font-size="14.00" fill="#666666">[BASE TABLE]</text>
<polygon fill="none" stroke="black" points="43.2,-330.4 43.2,-361.2 335.15,-361.2 335.15,-330.4 43.2,-330.4"/>
<text text-anchor="start" x="50.2" y="-342.6" font-family="Arial" font-size="14.00">checklist_id </text>
<text text-anchor="start" x="126.45" y="-342.6" font-family="Arial" font-size="14.00" fill="#666666">[bigint]</text>
<polygon fill="none" stroke="black" points="43.2,-299.6 43.2,-330.4 335.15,-330.4 335.15,-299.6 43.2,-299.6"/>
<text text-anchor="start" x="50.2" y="-311.8" font-family="Arial" font-size="14.00">dam_id </text>
<text text-anchor="start" x="100.01" y="-311.8" font-family="Arial" font-size="14.00" fill="#666666">[bigint]</text>
</g>
<!-- public.checklist_dam&#45;&gt;public.checklists -->
<g id="edge1" class="edge">
<title>public.checklist_dam:checklist_id&#45;&gt;public.checklists:id</title>
<path fill="none" stroke="black" d="M346.43,-344.19C371.57,-334.89 352.57,-287.56 335.15,-256.4 320.49,-230.2 292.64,-246.61 278,-220.4 256.93,-182.68 233.8,-123.2 277,-123.2"/>
<polygon fill="black" stroke="black" points="346.36,-344.2 335.78,-341.3 341.09,-345.02 336.81,-345.7 336.81,-345.7 336.81,-345.7 341.09,-345.02 337.17,-350.19 346.36,-344.2"/>
<text text-anchor="start" x="343.15" y="-355.8" font-family="Arial" font-size="10.00">FOREIGN KEY (checklist_id) REFERENCES checklists(id)</text>
</g>
<!-- public.checklist_template_questionnaire -->
<g id="node3" class="node">
<title>public.checklist_template_questionnaire</title>
<polygon fill="#efefef" stroke="none" points="439.72,-361.2 439.72,-396.8 868.62,-396.8 868.62,-361.2 439.72,-361.2"/>
<polygon fill="none" stroke="black" points="439.72,-361.2 439.72,-396.8 868.62,-396.8 868.62,-361.2 439.72,-361.2"/>
<text text-anchor="start" x="446.72" y="-374.6" font-family="Arial Bold" font-size="18.00">public.checklist_template_questionnaire</text>
<text text-anchor="start" x="737.13" y="-374.6" font-family="Arial" font-size="14.00">    </text>
<text text-anchor="start" x="768.25" y="-374.6" font-family="Arial" font-size="14.00" fill="#666666">[BASE TABLE]</text>
<polygon fill="none" stroke="black" points="439.72,-330.4 439.72,-361.2 868.62,-361.2 868.62,-330.4 439.72,-330.4"/>
<text text-anchor="start" x="446.72" y="-342.6" font-family="Arial" font-size="14.00">checklist_id </text>
<text text-anchor="start" x="522.98" y="-342.6" font-family="Arial" font-size="14.00" fill="#666666">[bigint]</text>
<polygon fill="none" stroke="black" points="439.72,-299.6 439.72,-330.4 868.62,-330.4 868.62,-299.6 439.72,-299.6"/>
<text text-anchor="start" x="446.72" y="-311.8" font-family="Arial" font-size="14.00">template_questionnaire_id </text>
<text text-anchor="start" x="614.84" y="-311.8" font-family="Arial" font-size="14.00" fill="#666666">[bigint]</text>
</g>
<!-- public.checklist_template_questionnaire&#45;&gt;public.checklists -->
<g id="edge2" class="edge">
<title>public.checklist_template_questionnaire:checklist_id&#45;&gt;public.checklists:id</title>
<path fill="none" stroke="black" d="M428.65,-344.23C402.32,-334.77 418.01,-284.94 439.72,-256.4 474.63,-210.52 529.46,-266.3 564.35,-220.4 590.49,-186.01 608.55,-123.2 565.35,-123.2"/>
<polygon fill="black" stroke="black" points="428.51,-344.2 437.7,-350.19 433.78,-345.03 438.06,-345.7 438.06,-345.7 438.06,-345.7 433.78,-345.03 439.09,-341.3 428.51,-344.2"/>
<text text-anchor="start" x="445.72" y="-329.8" font-family="Arial" font-size="10.00">FOREIGN KEY (checklist_id) REFERENCES checklists(id)</text>
</g>
</g>
</svg>
