<?xml version="1.0" encoding="UTF-8" standalone="no"?>
<!DOCTYPE svg PUBLIC "-//W3C//DTD SVG 1.1//EN"
 "http://www.w3.org/Graphics/SVG/1.1/DTD/svg11.dtd">
<!-- Generated by graphviz version 12.1.2 (20240928.0832)
 -->
<!-- Title: public.answer_options Pages: 1 -->
<svg width="827pt" height="540pt"
 viewBox="0.00 0.00 826.87 540.40" xmlns="http://www.w3.org/2000/svg" xmlns:xlink="http://www.w3.org/1999/xlink">
<g id="graph0" class="graph" transform="scale(1 1) rotate(0) translate(4 536.4)">
<title>public.answer_options</title>
<polygon fill="white" stroke="none" points="-4,4 -4,-536.4 822.87,-536.4 822.87,4 -4,4"/>
<!-- public.answer_options -->
<g id="node1" class="node">
<title>public.answer_options</title>
<polygon fill="#efefef" stroke="none" points="263.95,-450.6 263.95,-486.2 564.91,-486.2 564.91,-450.6 263.95,-450.6"/>
<polygon fill="none" stroke="black" points="263.95,-450.6 263.95,-486.2 564.91,-486.2 564.91,-450.6 263.95,-450.6"/>
<text text-anchor="start" x="270.95" y="-464" font-family="Arial Bold" font-size="18.00">public.answer_options</text>
<text text-anchor="start" x="433.42" y="-464" font-family="Arial" font-size="14.00">    </text>
<text text-anchor="start" x="464.54" y="-464" font-family="Arial" font-size="14.00" fill="#666666">[BASE TABLE]</text>
<polygon fill="none" stroke="black" points="263.95,-419.8 263.95,-450.6 564.91,-450.6 564.91,-419.8 263.95,-419.8"/>
<text text-anchor="start" x="270.95" y="-432" font-family="Arial" font-size="14.00">answer_id </text>
<text text-anchor="start" x="338.65" y="-432" font-family="Arial" font-size="14.00" fill="#666666">[bigint]</text>
<polygon fill="none" stroke="black" points="263.95,-389 263.95,-419.8 564.91,-419.8 564.91,-389 263.95,-389"/>
<text text-anchor="start" x="270.95" y="-401.2" font-family="Arial" font-size="14.00">option_id </text>
<text text-anchor="start" x="331.66" y="-401.2" font-family="Arial" font-size="14.00" fill="#666666">[bigint]</text>
<polygon fill="none" stroke="black" stroke-width="3" points="262.45,-387.5 262.45,-487.7 566.41,-487.7 566.41,-387.5 262.45,-387.5"/>
</g>
<!-- public.answers -->
<g id="node2" class="node">
<title>public.answers</title>
<polygon fill="#efefef" stroke="none" points="117.45,-228 117.45,-263.6 363.41,-263.6 363.41,-228 117.45,-228"/>
<polygon fill="none" stroke="black" points="117.45,-228 117.45,-263.6 363.41,-263.6 363.41,-228 117.45,-228"/>
<text text-anchor="start" x="124.45" y="-241.4" font-family="Arial Bold" font-size="18.00">public.answers</text>
<text text-anchor="start" x="231.92" y="-241.4" font-family="Arial" font-size="14.00">    </text>
<text text-anchor="start" x="263.04" y="-241.4" font-family="Arial" font-size="14.00" fill="#666666">[BASE TABLE]</text>
<polygon fill="none" stroke="black" points="117.45,-197.2 117.45,-228 363.41,-228 363.41,-197.2 117.45,-197.2"/>
<text text-anchor="start" x="124.45" y="-209.4" font-family="Arial" font-size="14.00">id </text>
<text text-anchor="start" x="139.23" y="-209.4" font-family="Arial" font-size="14.00" fill="#666666">[bigint]</text>
<polygon fill="none" stroke="black" points="117.45,-166.4 117.45,-197.2 363.41,-197.2 363.41,-166.4 117.45,-166.4"/>
<text text-anchor="start" x="124.45" y="-178.6" font-family="Arial" font-size="14.00">comment </text>
<text text-anchor="start" x="185.91" y="-178.6" font-family="Arial" font-size="14.00" fill="#666666">[text]</text>
<polygon fill="none" stroke="black" points="117.45,-135.6 117.45,-166.4 363.41,-166.4 363.41,-135.6 117.45,-135.6"/>
<text text-anchor="start" x="124.45" y="-147.8" font-family="Arial" font-size="14.00">latitude </text>
<text text-anchor="start" x="173.48" y="-147.8" font-family="Arial" font-size="14.00" fill="#666666">[double precision]</text>
<polygon fill="none" stroke="black" points="117.45,-104.8 117.45,-135.6 363.41,-135.6 363.41,-104.8 117.45,-104.8"/>
<text text-anchor="start" x="124.45" y="-117" font-family="Arial" font-size="14.00">longitude </text>
<text text-anchor="start" x="185.16" y="-117" font-family="Arial" font-size="14.00" fill="#666666">[double precision]</text>
<polygon fill="none" stroke="black" points="117.45,-74 117.45,-104.8 363.41,-104.8 363.41,-74 117.45,-74"/>
<text text-anchor="start" x="124.45" y="-86.2" font-family="Arial" font-size="14.00">question_id </text>
<text text-anchor="start" x="199.95" y="-86.2" font-family="Arial" font-size="14.00" fill="#666666">[bigint]</text>
<polygon fill="none" stroke="black" points="117.45,-43.2 117.45,-74 363.41,-74 363.41,-43.2 117.45,-43.2"/>
<text text-anchor="start" x="124.45" y="-55.4" font-family="Arial" font-size="14.00">questionnaire_response_id </text>
<text text-anchor="start" x="296.46" y="-55.4" font-family="Arial" font-size="14.00" fill="#666666">[bigint]</text>
</g>
<!-- public.answer_options&#45;&gt;public.answers -->
<g id="edge1" class="edge">
<title>public.answer_options:answer_id&#45;&gt;public.answers:id</title>
<path fill="none" stroke="black" d="M252.92,-433.72C225.36,-424.38 242.41,-373.15 263.95,-342.8 291.15,-304.46 336.2,-345.14 363.41,-306.8 387.64,-272.65 406.28,-212.6 364.41,-212.6"/>
<polygon fill="black" stroke="black" points="252.72,-433.69 261.96,-439.6 258,-434.47 262.28,-435.1 262.28,-435.1 262.28,-435.1 258,-434.47 263.27,-430.7 252.72,-433.69"/>
<text text-anchor="start" x="7" y="-445.2" font-family="Arial" font-size="10.00">FOREIGN KEY (answer_id) REFERENCES answers(id)</text>
</g>
<!-- public.options -->
<g id="node3" class="node">
<title>public.options</title>
<polygon fill="#efefef" stroke="none" points="467.93,-197.2 467.93,-232.8 708.92,-232.8 708.92,-197.2 467.93,-197.2"/>
<polygon fill="none" stroke="black" points="467.93,-197.2 467.93,-232.8 708.92,-232.8 708.92,-197.2 467.93,-197.2"/>
<text text-anchor="start" x="474.93" y="-210.6" font-family="Arial Bold" font-size="18.00">public.options</text>
<text text-anchor="start" x="577.43" y="-210.6" font-family="Arial" font-size="14.00">    </text>
<text text-anchor="start" x="608.55" y="-210.6" font-family="Arial" font-size="14.00" fill="#666666">[BASE TABLE]</text>
<polygon fill="none" stroke="black" points="467.93,-166.4 467.93,-197.2 708.92,-197.2 708.92,-166.4 467.93,-166.4"/>
<text text-anchor="start" x="474.93" y="-178.6" font-family="Arial" font-size="14.00">id </text>
<text text-anchor="start" x="489.72" y="-178.6" font-family="Arial" font-size="14.00" fill="#666666">[bigint]</text>
<polygon fill="none" stroke="black" points="467.93,-135.6 467.93,-166.4 708.92,-166.4 708.92,-135.6 467.93,-135.6"/>
<text text-anchor="start" x="474.93" y="-147.8" font-family="Arial" font-size="14.00">label </text>
<text text-anchor="start" x="508.4" y="-147.8" font-family="Arial" font-size="14.00" fill="#666666">[varchar(255)]</text>
<polygon fill="none" stroke="black" points="467.93,-104.8 467.93,-135.6 708.92,-135.6 708.92,-104.8 467.93,-104.8"/>
<text text-anchor="start" x="474.93" y="-117" font-family="Arial" font-size="14.00">order_index </text>
<text text-anchor="start" x="552.76" y="-117" font-family="Arial" font-size="14.00" fill="#666666">[integer]</text>
<polygon fill="none" stroke="black" points="467.93,-74 467.93,-104.8 708.92,-104.8 708.92,-74 467.93,-74"/>
<text text-anchor="start" x="474.93" y="-86.2" font-family="Arial" font-size="14.00">value </text>
<text text-anchor="start" x="512.29" y="-86.2" font-family="Arial" font-size="14.00" fill="#666666">[varchar(255)]</text>
</g>
<!-- public.answer_options&#45;&gt;public.options -->
<g id="edge2" class="edge">
<title>public.answer_options:option_id&#45;&gt;public.options:id</title>
<path fill="none" stroke="black" d="M575.78,-401.85C588.52,-393.02 575.82,-363.16 564.91,-342.8 540.19,-296.67 492.52,-322.2 467.93,-276 448.26,-239.04 425.06,-181.8 466.93,-181.8"/>
<polygon fill="black" stroke="black" points="575.92,-401.81 565.11,-399.96 570.75,-403.15 566.56,-404.23 566.56,-404.23 566.56,-404.23 570.75,-403.15 567.36,-408.67 575.92,-401.81"/>
<text text-anchor="start" x="572.91" y="-414.4" font-family="Arial" font-size="10.00">FOREIGN KEY (option_id) REFERENCES options(id)</text>
</g>
</g>
</svg>
