<?xml version="1.0" encoding="UTF-8" standalone="no"?>
<!DOCTYPE svg PUBLIC "-//W3C//DTD SVG 1.1//EN"
 "http://www.w3.org/Graphics/SVG/1.1/DTD/svg11.dtd">
<!-- Generated by graphviz version 12.1.2 (20240928.0832)
 -->
<!-- Title: public.answer_photos Pages: 1 -->
<svg width="465pt" height="571pt"
 viewBox="0.00 0.00 465.13 571.20" xmlns="http://www.w3.org/2000/svg" xmlns:xlink="http://www.w3.org/1999/xlink">
<g id="graph0" class="graph" transform="scale(1 1) rotate(0) translate(4 567.2)">
<title>public.answer_photos</title>
<polygon fill="white" stroke="none" points="-4,4 -4,-567.2 461.13,-567.2 461.13,4 -4,4"/>
<!-- public.answer_photos -->
<g id="node1" class="node">
<title>public.answer_photos</title>
<polygon fill="#efefef" stroke="none" points="114.96,-481.4 114.96,-517 410.93,-517 410.93,-481.4 114.96,-481.4"/>
<polygon fill="none" stroke="black" points="114.96,-481.4 114.96,-517 410.93,-517 410.93,-481.4 114.96,-481.4"/>
<text text-anchor="start" x="121.96" y="-494.8" font-family="Arial Bold" font-size="18.00">public.answer_photos</text>
<text text-anchor="start" x="279.44" y="-494.8" font-family="Arial" font-size="14.00">    </text>
<text text-anchor="start" x="310.55" y="-494.8" font-family="Arial" font-size="14.00" fill="#666666">[BASE TABLE]</text>
<polygon fill="none" stroke="black" points="114.96,-450.6 114.96,-481.4 410.93,-481.4 410.93,-450.6 114.96,-450.6"/>
<text text-anchor="start" x="121.96" y="-462.8" font-family="Arial" font-size="14.00">id </text>
<text text-anchor="start" x="136.75" y="-462.8" font-family="Arial" font-size="14.00" fill="#666666">[bigint]</text>
<polygon fill="none" stroke="black" points="114.96,-419.8 114.96,-450.6 410.93,-450.6 410.93,-419.8 114.96,-419.8"/>
<text text-anchor="start" x="121.96" y="-432" font-family="Arial" font-size="14.00">image_path </text>
<text text-anchor="start" x="199.02" y="-432" font-family="Arial" font-size="14.00" fill="#666666">[varchar(255)]</text>
<polygon fill="none" stroke="black" points="114.96,-389 114.96,-419.8 410.93,-419.8 410.93,-389 114.96,-389"/>
<text text-anchor="start" x="121.96" y="-401.2" font-family="Arial" font-size="14.00">answer_id </text>
<text text-anchor="start" x="189.67" y="-401.2" font-family="Arial" font-size="14.00" fill="#666666">[bigint]</text>
<polygon fill="none" stroke="black" stroke-width="3" points="113.46,-387.5 113.46,-518.5 412.43,-518.5 412.43,-387.5 113.46,-387.5"/>
</g>
<!-- public.answers -->
<g id="node2" class="node">
<title>public.answers</title>
<polygon fill="#efefef" stroke="none" points="139.96,-228 139.96,-263.6 385.93,-263.6 385.93,-228 139.96,-228"/>
<polygon fill="none" stroke="black" points="139.96,-228 139.96,-263.6 385.93,-263.6 385.93,-228 139.96,-228"/>
<text text-anchor="start" x="146.96" y="-241.4" font-family="Arial Bold" font-size="18.00">public.answers</text>
<text text-anchor="start" x="254.44" y="-241.4" font-family="Arial" font-size="14.00">    </text>
<text text-anchor="start" x="285.55" y="-241.4" font-family="Arial" font-size="14.00" fill="#666666">[BASE TABLE]</text>
<polygon fill="none" stroke="black" points="139.96,-197.2 139.96,-228 385.93,-228 385.93,-197.2 139.96,-197.2"/>
<text text-anchor="start" x="146.96" y="-209.4" font-family="Arial" font-size="14.00">id </text>
<text text-anchor="start" x="161.75" y="-209.4" font-family="Arial" font-size="14.00" fill="#666666">[bigint]</text>
<polygon fill="none" stroke="black" points="139.96,-166.4 139.96,-197.2 385.93,-197.2 385.93,-166.4 139.96,-166.4"/>
<text text-anchor="start" x="146.96" y="-178.6" font-family="Arial" font-size="14.00">comment </text>
<text text-anchor="start" x="208.43" y="-178.6" font-family="Arial" font-size="14.00" fill="#666666">[text]</text>
<polygon fill="none" stroke="black" points="139.96,-135.6 139.96,-166.4 385.93,-166.4 385.93,-135.6 139.96,-135.6"/>
<text text-anchor="start" x="146.96" y="-147.8" font-family="Arial" font-size="14.00">latitude </text>
<text text-anchor="start" x="196" y="-147.8" font-family="Arial" font-size="14.00" fill="#666666">[double precision]</text>
<polygon fill="none" stroke="black" points="139.96,-104.8 139.96,-135.6 385.93,-135.6 385.93,-104.8 139.96,-104.8"/>
<text text-anchor="start" x="146.96" y="-117" font-family="Arial" font-size="14.00">longitude </text>
<text text-anchor="start" x="207.68" y="-117" font-family="Arial" font-size="14.00" fill="#666666">[double precision]</text>
<polygon fill="none" stroke="black" points="139.96,-74 139.96,-104.8 385.93,-104.8 385.93,-74 139.96,-74"/>
<text text-anchor="start" x="146.96" y="-86.2" font-family="Arial" font-size="14.00">question_id </text>
<text text-anchor="start" x="222.47" y="-86.2" font-family="Arial" font-size="14.00" fill="#666666">[bigint]</text>
<polygon fill="none" stroke="black" points="139.96,-43.2 139.96,-74 385.93,-74 385.93,-43.2 139.96,-43.2"/>
<text text-anchor="start" x="146.96" y="-55.4" font-family="Arial" font-size="14.00">questionnaire_response_id </text>
<text text-anchor="start" x="318.98" y="-55.4" font-family="Arial" font-size="14.00" fill="#666666">[bigint]</text>
</g>
<!-- public.answer_photos&#45;&gt;public.answers -->
<g id="edge1" class="edge">
<title>public.answer_photos:answer_id&#45;&gt;public.answers:id</title>
<path fill="none" stroke="black" d="M263.8,-377.87C273.13,-326.92 356.36,-361.06 385.93,-306.8 405.96,-270.03 428.8,-212.6 386.93,-212.6"/>
<polygon fill="black" stroke="black" points="263.81,-377.7 258.49,-387.29 263.37,-383.02 263,-387.33 263,-387.33 263,-387.33 263.37,-383.02 267.46,-388.04 263.81,-377.7"/>
<text text-anchor="start" x="7" y="-398" font-family="Arial" font-size="10.00">FOREIGN KEY (answer_id) REFERENCES answers(id)</text>
</g>
</g>
</svg>
