<?xml version="1.0" encoding="UTF-8" standalone="no"?>
<!DOCTYPE svg PUBLIC "-//W3C//DTD SVG 1.1//EN"
 "http://www.w3.org/Graphics/SVG/1.1/DTD/svg11.dtd">
<!-- Generated by graphviz version 12.1.2 (20240928.0832)
 -->
<!-- Title: public.reading Pages: 1 -->
<svg width="1263pt" height="1284pt"
 viewBox="0.00 0.00 1263.41 1283.60" xmlns="http://www.w3.org/2000/svg" xmlns:xlink="http://www.w3.org/1999/xlink">
<g id="graph0" class="graph" transform="scale(1 1) rotate(0) translate(4 1279.6)">
<title>public.reading</title>
<polygon fill="white" stroke="none" points="-4,4 -4,-1279.6 1259.41,-1279.6 1259.41,4 -4,4"/>
<!-- public.reading -->
<g id="node1" class="node">
<title>public.reading</title>
<polygon fill="#efefef" stroke="none" points="534.94,-974.2 534.94,-1009.8 776.89,-1009.8 776.89,-974.2 534.94,-974.2"/>
<polygon fill="none" stroke="black" points="534.94,-974.2 534.94,-1009.8 776.89,-1009.8 776.89,-974.2 534.94,-974.2"/>
<text text-anchor="start" x="541.94" y="-987.6" font-family="Arial Bold" font-size="18.00">public.reading</text>
<text text-anchor="start" x="645.4" y="-987.6" font-family="Arial" font-size="14.00">    </text>
<text text-anchor="start" x="676.52" y="-987.6" font-family="Arial" font-size="14.00" fill="#666666">[BASE TABLE]</text>
<polygon fill="none" stroke="black" points="534.94,-943.4 534.94,-974.2 776.89,-974.2 776.89,-943.4 534.94,-943.4"/>
<text text-anchor="start" x="541.94" y="-955.6" font-family="Arial" font-size="14.00">id </text>
<text text-anchor="start" x="556.72" y="-955.6" font-family="Arial" font-size="14.00" fill="#666666">[bigint]</text>
<polygon fill="none" stroke="black" points="534.94,-912.6 534.94,-943.4 776.89,-943.4 776.89,-912.6 534.94,-912.6"/>
<text text-anchor="start" x="541.94" y="-924.8" font-family="Arial" font-size="14.00">active </text>
<text text-anchor="start" x="582.4" y="-924.8" font-family="Arial" font-size="14.00" fill="#666666">[boolean]</text>
<polygon fill="none" stroke="black" points="534.94,-881.8 534.94,-912.6 776.89,-912.6 776.89,-881.8 534.94,-881.8"/>
<text text-anchor="start" x="541.94" y="-894" font-family="Arial" font-size="14.00">calculated_value </text>
<text text-anchor="start" x="650.12" y="-894" font-family="Arial" font-size="14.00" fill="#666666">[double precision]</text>
<polygon fill="none" stroke="black" points="534.94,-851 534.94,-881.8 776.89,-881.8 776.89,-851 534.94,-851"/>
<text text-anchor="start" x="541.94" y="-863.2" font-family="Arial" font-size="14.00">comment </text>
<text text-anchor="start" x="603.4" y="-863.2" font-family="Arial" font-size="14.00" fill="#666666">[text]</text>
<polygon fill="none" stroke="black" points="534.94,-820.2 534.94,-851 776.89,-851 776.89,-820.2 534.94,-820.2"/>
<text text-anchor="start" x="541.94" y="-832.4" font-family="Arial" font-size="14.00">date </text>
<text text-anchor="start" x="573.07" y="-832.4" font-family="Arial" font-size="14.00" fill="#666666">[date]</text>
<polygon fill="none" stroke="black" points="534.94,-789.4 534.94,-820.2 776.89,-820.2 776.89,-789.4 534.94,-789.4"/>
<text text-anchor="start" x="541.94" y="-801.6" font-family="Arial" font-size="14.00">hour </text>
<text text-anchor="start" x="573.85" y="-801.6" font-family="Arial" font-size="14.00" fill="#666666">[time(6) without time zone]</text>
<polygon fill="none" stroke="black" points="534.94,-758.6 534.94,-789.4 776.89,-789.4 776.89,-758.6 534.94,-758.6"/>
<text text-anchor="start" x="541.94" y="-770.8" font-family="Arial" font-size="14.00">limit_status </text>
<text text-anchor="start" x="615.85" y="-770.8" font-family="Arial" font-size="14.00" fill="#666666">[varchar(255)]</text>
<polygon fill="none" stroke="black" points="534.94,-727.8 534.94,-758.6 776.89,-758.6 776.89,-727.8 534.94,-727.8"/>
<text text-anchor="start" x="541.94" y="-740" font-family="Arial" font-size="14.00">instrument_id </text>
<text text-anchor="start" x="629.87" y="-740" font-family="Arial" font-size="14.00" fill="#666666">[bigint]</text>
<polygon fill="none" stroke="black" points="534.94,-697 534.94,-727.8 776.89,-727.8 776.89,-697 534.94,-697"/>
<text text-anchor="start" x="541.94" y="-709.2" font-family="Arial" font-size="14.00">output_id </text>
<text text-anchor="start" x="603.43" y="-709.2" font-family="Arial" font-size="14.00" fill="#666666">[bigint]</text>
<polygon fill="none" stroke="black" points="534.94,-666.2 534.94,-697 776.89,-697 776.89,-666.2 534.94,-666.2"/>
<text text-anchor="start" x="541.94" y="-678.4" font-family="Arial" font-size="14.00">user_id </text>
<text text-anchor="start" x="591.74" y="-678.4" font-family="Arial" font-size="14.00" fill="#666666">[bigint]</text>
<polygon fill="none" stroke="black" stroke-width="3" points="533.44,-664.7 533.44,-1011.3 778.39,-1011.3 778.39,-664.7 533.44,-664.7"/>
</g>
<!-- public.instrument -->
<g id="node3" class="node">
<title>public.instrument</title>
<polygon fill="#efefef" stroke="none" points="43.2,-505.2 43.2,-540.8 434.63,-540.8 434.63,-505.2 43.2,-505.2"/>
<polygon fill="none" stroke="black" points="43.2,-505.2 43.2,-540.8 434.63,-540.8 434.63,-505.2 43.2,-505.2"/>
<text text-anchor="start" x="113.43" y="-518.6" font-family="Arial Bold" font-size="18.00">public.instrument</text>
<text text-anchor="start" x="239.91" y="-518.6" font-family="Arial" font-size="14.00">    </text>
<text text-anchor="start" x="271.03" y="-518.6" font-family="Arial" font-size="14.00" fill="#666666">[BASE TABLE]</text>
<polygon fill="none" stroke="black" points="43.2,-474.4 43.2,-505.2 434.63,-505.2 434.63,-474.4 43.2,-474.4"/>
<text text-anchor="start" x="50.2" y="-486.6" font-family="Arial" font-size="14.00">id </text>
<text text-anchor="start" x="64.99" y="-486.6" font-family="Arial" font-size="14.00" fill="#666666">[bigint]</text>
<polygon fill="none" stroke="black" points="43.2,-443.6 43.2,-474.4 434.63,-474.4 434.63,-443.6 43.2,-443.6"/>
<text text-anchor="start" x="50.2" y="-455.8" font-family="Arial" font-size="14.00">active </text>
<text text-anchor="start" x="90.66" y="-455.8" font-family="Arial" font-size="14.00" fill="#666666">[boolean]</text>
<polygon fill="none" stroke="black" points="43.2,-412.8 43.2,-443.6 434.63,-443.6 434.63,-412.8 43.2,-412.8"/>
<text text-anchor="start" x="50.2" y="-425" font-family="Arial" font-size="14.00">active_for_section </text>
<text text-anchor="start" x="166.93" y="-425" font-family="Arial" font-size="14.00" fill="#666666">[boolean]</text>
<polygon fill="none" stroke="black" points="43.2,-382 43.2,-412.8 434.63,-412.8 434.63,-382 43.2,-382"/>
<text text-anchor="start" x="50.2" y="-394.2" font-family="Arial" font-size="14.00">distance_offset </text>
<text text-anchor="start" x="148.26" y="-394.2" font-family="Arial" font-size="14.00" fill="#666666">[double precision]</text>
<polygon fill="none" stroke="black" points="43.2,-351.2 43.2,-382 434.63,-382 434.63,-351.2 43.2,-351.2"/>
<text text-anchor="start" x="50.2" y="-363.4" font-family="Arial" font-size="14.00">is_linimetric_ruler </text>
<text text-anchor="start" x="163.01" y="-363.4" font-family="Arial" font-size="14.00" fill="#666666">[boolean]</text>
<polygon fill="none" stroke="black" points="43.2,-320.4 43.2,-351.2 434.63,-351.2 434.63,-320.4 43.2,-320.4"/>
<text text-anchor="start" x="50.2" y="-332.6" font-family="Arial" font-size="14.00">last_update_variables_date </text>
<text text-anchor="start" x="225.33" y="-332.6" font-family="Arial" font-size="14.00" fill="#666666">[timestamp(6) without time zone]</text>
<polygon fill="none" stroke="black" points="43.2,-289.6 43.2,-320.4 434.63,-320.4 434.63,-289.6 43.2,-289.6"/>
<text text-anchor="start" x="50.2" y="-301.8" font-family="Arial" font-size="14.00">latitude </text>
<text text-anchor="start" x="99.23" y="-301.8" font-family="Arial" font-size="14.00" fill="#666666">[double precision]</text>
<polygon fill="none" stroke="black" points="43.2,-258.8 43.2,-289.6 434.63,-289.6 434.63,-258.8 43.2,-258.8"/>
<text text-anchor="start" x="50.2" y="-271" font-family="Arial" font-size="14.00">linimetric_ruler_code </text>
<text text-anchor="start" x="183.25" y="-271" font-family="Arial" font-size="14.00" fill="#666666">[bigint]</text>
<polygon fill="none" stroke="black" points="43.2,-228 43.2,-258.8 434.63,-258.8 434.63,-228 43.2,-228"/>
<text text-anchor="start" x="50.2" y="-240.2" font-family="Arial" font-size="14.00">location </text>
<text text-anchor="start" x="102.34" y="-240.2" font-family="Arial" font-size="14.00" fill="#666666">[varchar(255)]</text>
<polygon fill="none" stroke="black" points="43.2,-197.2 43.2,-228 434.63,-228 434.63,-197.2 43.2,-197.2"/>
<text text-anchor="start" x="50.2" y="-209.4" font-family="Arial" font-size="14.00">longitude </text>
<text text-anchor="start" x="110.92" y="-209.4" font-family="Arial" font-size="14.00" fill="#666666">[double precision]</text>
<polygon fill="none" stroke="black" points="43.2,-166.4 43.2,-197.2 434.63,-197.2 434.63,-166.4 43.2,-166.4"/>
<text text-anchor="start" x="50.2" y="-178.6" font-family="Arial" font-size="14.00">name </text>
<text text-anchor="start" x="89.11" y="-178.6" font-family="Arial" font-size="14.00" fill="#666666">[varchar(255)]</text>
<polygon fill="none" stroke="black" points="43.2,-135.6 43.2,-166.4 434.63,-166.4 434.63,-135.6 43.2,-135.6"/>
<text text-anchor="start" x="50.2" y="-147.8" font-family="Arial" font-size="14.00">no_limit </text>
<text text-anchor="start" x="102.33" y="-147.8" font-family="Arial" font-size="14.00" fill="#666666">[boolean]</text>
<polygon fill="none" stroke="black" points="43.2,-104.8 43.2,-135.6 434.63,-135.6 434.63,-104.8 43.2,-104.8"/>
<text text-anchor="start" x="50.2" y="-117" font-family="Arial" font-size="14.00">dam_id </text>
<text text-anchor="start" x="100.01" y="-117" font-family="Arial" font-size="14.00" fill="#666666">[bigint]</text>
<polygon fill="none" stroke="black" points="43.2,-74 43.2,-104.8 434.63,-104.8 434.63,-74 43.2,-74"/>
<text text-anchor="start" x="50.2" y="-86.2" font-family="Arial" font-size="14.00">instrument_type_id </text>
<text text-anchor="start" x="172.38" y="-86.2" font-family="Arial" font-size="14.00" fill="#666666">[bigint]</text>
<polygon fill="none" stroke="black" points="43.2,-43.2 43.2,-74 434.63,-74 434.63,-43.2 43.2,-43.2"/>
<text text-anchor="start" x="50.2" y="-55.4" font-family="Arial" font-size="14.00">section_id </text>
<text text-anchor="start" x="117.13" y="-55.4" font-family="Arial" font-size="14.00" fill="#666666">[bigint]</text>
</g>
<!-- public.reading&#45;&gt;public.instrument -->
<g id="edge2" class="edge">
<title>public.reading:instrument_id&#45;&gt;public.instrument:id</title>
<path fill="none" stroke="black" d="M524.14,-740.69C475.89,-714.37 492.49,-489.8 435.63,-489.8"/>
<polygon fill="black" stroke="black" points="523.92,-740.64 532.5,-747.48 529.09,-741.96 533.29,-743.03 533.29,-743.03 533.29,-743.03 529.09,-741.96 534.73,-738.76 523.92,-740.64"/>
<text text-anchor="start" x="254.09" y="-753.2" font-family="Arial" font-size="10.00">FOREIGN KEY (instrument_id) REFERENCES instrument(id)</text>
</g>
<!-- public.output -->
<g id="node4" class="node">
<title>public.output</title>
<polygon fill="#efefef" stroke="none" points="538.92,-397.4 538.92,-433 772.9,-433 772.9,-397.4 538.92,-397.4"/>
<polygon fill="none" stroke="black" points="538.92,-397.4 538.92,-433 772.9,-433 772.9,-397.4 538.92,-397.4"/>
<text text-anchor="start" x="545.92" y="-410.8" font-family="Arial Bold" font-size="18.00">public.output</text>
<text text-anchor="start" x="641.41" y="-410.8" font-family="Arial" font-size="14.00">    </text>
<text text-anchor="start" x="672.53" y="-410.8" font-family="Arial" font-size="14.00" fill="#666666">[BASE TABLE]</text>
<polygon fill="none" stroke="black" points="538.92,-366.6 538.92,-397.4 772.9,-397.4 772.9,-366.6 538.92,-366.6"/>
<text text-anchor="start" x="545.92" y="-378.8" font-family="Arial" font-size="14.00">id </text>
<text text-anchor="start" x="560.71" y="-378.8" font-family="Arial" font-size="14.00" fill="#666666">[bigint]</text>
<polygon fill="none" stroke="black" points="538.92,-335.8 538.92,-366.6 772.9,-366.6 772.9,-335.8 538.92,-335.8"/>
<text text-anchor="start" x="545.92" y="-348" font-family="Arial" font-size="14.00">acronym </text>
<text text-anchor="start" x="603.49" y="-348" font-family="Arial" font-size="14.00" fill="#666666">[varchar(255)]</text>
<polygon fill="none" stroke="black" points="538.92,-305 538.92,-335.8 772.9,-335.8 772.9,-305 538.92,-305"/>
<text text-anchor="start" x="545.92" y="-317.2" font-family="Arial" font-size="14.00">active </text>
<text text-anchor="start" x="586.38" y="-317.2" font-family="Arial" font-size="14.00" fill="#666666">[boolean]</text>
<polygon fill="none" stroke="black" points="538.92,-274.2 538.92,-305 772.9,-305 772.9,-274.2 538.92,-274.2"/>
<text text-anchor="start" x="545.92" y="-286.4" font-family="Arial" font-size="14.00">equation </text>
<text text-anchor="start" x="603.53" y="-286.4" font-family="Arial" font-size="14.00" fill="#666666">[text]</text>
<polygon fill="none" stroke="black" points="538.92,-243.4 538.92,-274.2 772.9,-274.2 772.9,-243.4 538.92,-243.4"/>
<text text-anchor="start" x="545.92" y="-255.6" font-family="Arial" font-size="14.00">name </text>
<text text-anchor="start" x="584.83" y="-255.6" font-family="Arial" font-size="14.00" fill="#666666">[varchar(255)]</text>
<polygon fill="none" stroke="black" points="538.92,-212.6 538.92,-243.4 772.9,-243.4 772.9,-212.6 538.92,-212.6"/>
<text text-anchor="start" x="545.92" y="-224.8" font-family="Arial" font-size="14.00">precision </text>
<text text-anchor="start" x="605.84" y="-224.8" font-family="Arial" font-size="14.00" fill="#666666">[integer]</text>
<polygon fill="none" stroke="black" points="538.92,-181.8 538.92,-212.6 772.9,-212.6 772.9,-181.8 538.92,-181.8"/>
<text text-anchor="start" x="545.92" y="-194" font-family="Arial" font-size="14.00">instrument_id </text>
<text text-anchor="start" x="633.85" y="-194" font-family="Arial" font-size="14.00" fill="#666666">[bigint]</text>
<polygon fill="none" stroke="black" points="538.92,-151 538.92,-181.8 772.9,-181.8 772.9,-151 538.92,-151"/>
<text text-anchor="start" x="545.92" y="-163.2" font-family="Arial" font-size="14.00">measurement_unit_id </text>
<text text-anchor="start" x="684.45" y="-163.2" font-family="Arial" font-size="14.00" fill="#666666">[bigint]</text>
</g>
<!-- public.reading&#45;&gt;public.output -->
<g id="edge3" class="edge">
<title>public.reading:output_id&#45;&gt;public.output:id</title>
<path fill="none" stroke="black" d="M786.11,-706.09C813.73,-660.42 807.61,-382 773.9,-382"/>
<polygon fill="black" stroke="black" points="786.09,-706.11 775.42,-708.63 781.86,-709.36 778.42,-711.99 778.42,-711.99 778.42,-711.99 781.86,-709.36 780.89,-715.77 786.09,-706.11"/>
<text text-anchor="start" x="784.89" y="-722.4" font-family="Arial" font-size="10.00">FOREIGN KEY (output_id) REFERENCES output(id)</text>
</g>
<!-- public.users -->
<g id="node5" class="node">
<title>public.users</title>
<polygon fill="#efefef" stroke="none" points="877.61,-459 877.61,-494.6 1212.21,-494.6 1212.21,-459 877.61,-459"/>
<polygon fill="none" stroke="black" points="877.61,-459 877.61,-494.6 1212.21,-494.6 1212.21,-459 877.61,-459"/>
<text text-anchor="start" x="939.43" y="-472.4" font-family="Arial Bold" font-size="18.00">public.users</text>
<text text-anchor="start" x="1025.91" y="-472.4" font-family="Arial" font-size="14.00">    </text>
<text text-anchor="start" x="1057.03" y="-472.4" font-family="Arial" font-size="14.00" fill="#666666">[BASE TABLE]</text>
<polygon fill="none" stroke="black" points="877.61,-428.2 877.61,-459 1212.21,-459 1212.21,-428.2 877.61,-428.2"/>
<text text-anchor="start" x="884.61" y="-440.4" font-family="Arial" font-size="14.00">id </text>
<text text-anchor="start" x="899.4" y="-440.4" font-family="Arial" font-size="14.00" fill="#666666">[bigint]</text>
<polygon fill="none" stroke="black" points="877.61,-397.4 877.61,-428.2 1212.21,-428.2 1212.21,-397.4 877.61,-397.4"/>
<text text-anchor="start" x="884.61" y="-409.6" font-family="Arial" font-size="14.00">email </text>
<text text-anchor="start" x="921.96" y="-409.6" font-family="Arial" font-size="14.00" fill="#666666">[varchar(255)]</text>
<polygon fill="none" stroke="black" points="877.61,-366.6 877.61,-397.4 1212.21,-397.4 1212.21,-366.6 877.61,-366.6"/>
<text text-anchor="start" x="884.61" y="-378.8" font-family="Arial" font-size="14.00">is_first_access </text>
<text text-anchor="start" x="980.31" y="-378.8" font-family="Arial" font-size="14.00" fill="#666666">[boolean]</text>
<polygon fill="none" stroke="black" points="877.61,-335.8 877.61,-366.6 1212.21,-366.6 1212.21,-335.8 877.61,-335.8"/>
<text text-anchor="start" x="884.61" y="-348" font-family="Arial" font-size="14.00">last_token </text>
<text text-anchor="start" x="952.32" y="-348" font-family="Arial" font-size="14.00" fill="#666666">[text]</text>
<polygon fill="none" stroke="black" points="877.61,-305 877.61,-335.8 1212.21,-335.8 1212.21,-305 877.61,-305"/>
<text text-anchor="start" x="884.61" y="-317.2" font-family="Arial" font-size="14.00">name </text>
<text text-anchor="start" x="923.52" y="-317.2" font-family="Arial" font-size="14.00" fill="#666666">[varchar(255)]</text>
<polygon fill="none" stroke="black" points="877.61,-274.2 877.61,-305 1212.21,-305 1212.21,-274.2 877.61,-274.2"/>
<text text-anchor="start" x="884.61" y="-286.4" font-family="Arial" font-size="14.00">password </text>
<text text-anchor="start" x="948.42" y="-286.4" font-family="Arial" font-size="14.00" fill="#666666">[varchar(255)]</text>
<polygon fill="none" stroke="black" points="877.61,-243.4 877.61,-274.2 1212.21,-274.2 1212.21,-243.4 877.61,-243.4"/>
<text text-anchor="start" x="884.61" y="-255.6" font-family="Arial" font-size="14.00">phone </text>
<text text-anchor="start" x="927.43" y="-255.6" font-family="Arial" font-size="14.00" fill="#666666">[varchar(11)]</text>
<polygon fill="none" stroke="black" points="877.61,-212.6 877.61,-243.4 1212.21,-243.4 1212.21,-212.6 877.61,-212.6"/>
<text text-anchor="start" x="884.61" y="-224.8" font-family="Arial" font-size="14.00">token_expiry_date </text>
<text text-anchor="start" x="1002.92" y="-224.8" font-family="Arial" font-size="14.00" fill="#666666">[timestamp(6) without time zone]</text>
<polygon fill="none" stroke="black" points="877.61,-181.8 877.61,-212.6 1212.21,-212.6 1212.21,-181.8 877.61,-181.8"/>
<text text-anchor="start" x="884.61" y="-194" font-family="Arial" font-size="14.00">created_by_id </text>
<text text-anchor="start" x="976.45" y="-194" font-family="Arial" font-size="14.00" fill="#666666">[bigint]</text>
<polygon fill="none" stroke="black" points="877.61,-151 877.61,-181.8 1212.21,-181.8 1212.21,-151 877.61,-151"/>
<text text-anchor="start" x="884.61" y="-163.2" font-family="Arial" font-size="14.00">role_id </text>
<text text-anchor="start" x="930.53" y="-163.2" font-family="Arial" font-size="14.00" fill="#666666">[bigint]</text>
<polygon fill="none" stroke="black" points="877.61,-120.2 877.61,-151 1212.21,-151 1212.21,-120.2 877.61,-120.2"/>
<text text-anchor="start" x="884.61" y="-132.4" font-family="Arial" font-size="14.00">sex_id </text>
<text text-anchor="start" x="928.97" y="-132.4" font-family="Arial" font-size="14.00" fill="#666666">[bigint]</text>
<polygon fill="none" stroke="black" points="877.61,-89.4 877.61,-120.2 1212.21,-120.2 1212.21,-89.4 877.61,-89.4"/>
<text text-anchor="start" x="884.61" y="-101.6" font-family="Arial" font-size="14.00">status_id </text>
<text text-anchor="start" x="944.54" y="-101.6" font-family="Arial" font-size="14.00" fill="#666666">[bigint]</text>
</g>
<!-- public.reading&#45;&gt;public.users -->
<g id="edge4" class="edge">
<title>public.reading:user_id&#45;&gt;public.users:id</title>
<path fill="none" stroke="black" d="M788.22,-680.87C884.26,-666.51 765.79,-443.6 876.61,-443.6"/>
<polygon fill="black" stroke="black" points="788.2,-680.88 777.91,-677.09 782.88,-681.25 778.56,-681.55 778.56,-681.55 778.56,-681.55 782.88,-681.25 778.54,-686.07 788.2,-680.88"/>
<text text-anchor="start" x="784.89" y="-691.6" font-family="Arial" font-size="10.00">FOREIGN KEY (user_id) REFERENCES users(id)</text>
</g>
<!-- public.reading_input_value_mapping -->
<g id="node2" class="node">
<title>public.reading_input_value_mapping</title>
<polygon fill="#efefef" stroke="none" points="451.95,-1196.8 451.95,-1232.4 859.88,-1232.4 859.88,-1196.8 451.95,-1196.8"/>
<polygon fill="none" stroke="black" points="451.95,-1196.8 451.95,-1232.4 859.88,-1232.4 859.88,-1196.8 451.95,-1196.8"/>
<text text-anchor="start" x="458.95" y="-1210.2" font-family="Arial Bold" font-size="18.00">public.reading_input_value_mapping</text>
<text text-anchor="start" x="728.39" y="-1210.2" font-family="Arial" font-size="14.00">    </text>
<text text-anchor="start" x="759.5" y="-1210.2" font-family="Arial" font-size="14.00" fill="#666666">[BASE TABLE]</text>
<polygon fill="none" stroke="black" points="451.95,-1166 451.95,-1196.8 859.88,-1196.8 859.88,-1166 451.95,-1166"/>
<text text-anchor="start" x="458.95" y="-1178.2" font-family="Arial" font-size="14.00">reading_id </text>
<text text-anchor="start" x="528.22" y="-1178.2" font-family="Arial" font-size="14.00" fill="#666666">[bigint]</text>
<polygon fill="none" stroke="black" points="451.95,-1135.2 451.95,-1166 859.88,-1166 859.88,-1135.2 451.95,-1135.2"/>
<text text-anchor="start" x="458.95" y="-1147.4" font-family="Arial" font-size="14.00">input_value_id </text>
<text text-anchor="start" x="553.14" y="-1147.4" font-family="Arial" font-size="14.00" fill="#666666">[bigint]</text>
</g>
<!-- public.reading_input_value_mapping&#45;&gt;public.reading -->
<g id="edge1" class="edge">
<title>public.reading_input_value_mapping:reading_id&#45;&gt;public.reading:id</title>
<path fill="none" stroke="black" d="M871.05,-1180.64C960.76,-1166.44 879.87,-958.8 777.89,-958.8"/>
<polygon fill="black" stroke="black" points="871.18,-1180.63 860.87,-1176.89 865.86,-1181.03 861.54,-1181.35 861.54,-1181.35 861.54,-1181.35 865.86,-1181.03 861.55,-1185.86 871.18,-1180.63"/>
<text text-anchor="start" x="867.88" y="-1191.4" font-family="Arial" font-size="10.00">FOREIGN KEY (reading_id) REFERENCES reading(id)</text>
</g>
</g>
</svg>
