<?xml version="1.0" encoding="UTF-8" standalone="no"?>
<!DOCTYPE svg PUBLIC "-//W3C//DTD SVG 1.1//EN"
 "http://www.w3.org/Graphics/SVG/1.1/DTD/svg11.dtd">
<!-- Generated by graphviz version 12.1.2 (20240928.0832)
 -->
<!-- Title: public.regulatory_dam Pages: 1 -->
<svg width="1976pt" height="1218pt"
 viewBox="0.00 0.00 1976.34 1218.00" xmlns="http://www.w3.org/2000/svg" xmlns:xlink="http://www.w3.org/1999/xlink">
<g id="graph0" class="graph" transform="scale(1 1) rotate(0) translate(4 1214)">
<title>public.regulatory_dam</title>
<polygon fill="white" stroke="none" points="-4,4 -4,-1214 1972.34,-1214 1972.34,4 -4,4"/>
<!-- public.regulatory_dam -->
<g id="node1" class="node">
<title>public.regulatory_dam</title>
<polygon fill="#efefef" stroke="none" points="811.2,-1128.2 811.2,-1163.8 1113.14,-1163.8 1113.14,-1128.2 811.2,-1128.2"/>
<polygon fill="none" stroke="black" points="811.2,-1128.2 811.2,-1163.8 1113.14,-1163.8 1113.14,-1128.2 811.2,-1128.2"/>
<text text-anchor="start" x="818.2" y="-1141.6" font-family="Arial Bold" font-size="18.00">public.regulatory_dam</text>
<text text-anchor="start" x="981.65" y="-1141.6" font-family="Arial" font-size="14.00">    </text>
<text text-anchor="start" x="1012.77" y="-1141.6" font-family="Arial" font-size="14.00" fill="#666666">[BASE TABLE]</text>
<polygon fill="none" stroke="black" points="811.2,-1097.4 811.2,-1128.2 1113.14,-1128.2 1113.14,-1097.4 811.2,-1097.4"/>
<text text-anchor="start" x="818.2" y="-1109.6" font-family="Arial" font-size="14.00">id </text>
<text text-anchor="start" x="832.99" y="-1109.6" font-family="Arial" font-size="14.00" fill="#666666">[bigint]</text>
<polygon fill="none" stroke="black" points="811.2,-1066.6 811.2,-1097.4 1113.14,-1097.4 1113.14,-1066.6 811.2,-1066.6"/>
<text text-anchor="start" x="818.2" y="-1078.8" font-family="Arial" font-size="14.00">frame_pnsb </text>
<text text-anchor="start" x="896.02" y="-1078.8" font-family="Arial" font-size="14.00" fill="#666666">[boolean]</text>
<polygon fill="none" stroke="black" points="811.2,-1035.8 811.2,-1066.6 1113.14,-1066.6 1113.14,-1035.8 811.2,-1035.8"/>
<text text-anchor="start" x="818.2" y="-1048" font-family="Arial" font-size="14.00">representative_email </text>
<text text-anchor="start" x="952.05" y="-1048" font-family="Arial" font-size="14.00" fill="#666666">[varchar(255)]</text>
<polygon fill="none" stroke="black" points="811.2,-1005 811.2,-1035.8 1113.14,-1035.8 1113.14,-1005 811.2,-1005"/>
<text text-anchor="start" x="818.2" y="-1017.2" font-family="Arial" font-size="14.00">representative_name </text>
<text text-anchor="start" x="953.61" y="-1017.2" font-family="Arial" font-size="14.00" fill="#666666">[varchar(255)]</text>
<polygon fill="none" stroke="black" points="811.2,-974.2 811.2,-1005 1113.14,-1005 1113.14,-974.2 811.2,-974.2"/>
<text text-anchor="start" x="818.2" y="-986.4" font-family="Arial" font-size="14.00">representative_phone </text>
<text text-anchor="start" x="957.52" y="-986.4" font-family="Arial" font-size="14.00" fill="#666666">[varchar(255)]</text>
<polygon fill="none" stroke="black" points="811.2,-943.4 811.2,-974.2 1113.14,-974.2 1113.14,-943.4 811.2,-943.4"/>
<text text-anchor="start" x="818.2" y="-955.6" font-family="Arial" font-size="14.00">supervisory_body_name </text>
<text text-anchor="start" x="974.62" y="-955.6" font-family="Arial" font-size="14.00" fill="#666666">[varchar(255)]</text>
<polygon fill="none" stroke="black" points="811.2,-912.6 811.2,-943.4 1113.14,-943.4 1113.14,-912.6 811.2,-912.6"/>
<text text-anchor="start" x="818.2" y="-924.8" font-family="Arial" font-size="14.00">technical_manager_email </text>
<text text-anchor="start" x="981.63" y="-924.8" font-family="Arial" font-size="14.00" fill="#666666">[varchar(255)]</text>
<polygon fill="none" stroke="black" points="811.2,-881.8 811.2,-912.6 1113.14,-912.6 1113.14,-881.8 811.2,-881.8"/>
<text text-anchor="start" x="818.2" y="-894" font-family="Arial" font-size="14.00">technical_manager_name </text>
<text text-anchor="start" x="983.19" y="-894" font-family="Arial" font-size="14.00" fill="#666666">[varchar(255)]</text>
<polygon fill="none" stroke="black" points="811.2,-851 811.2,-881.8 1113.14,-881.8 1113.14,-851 811.2,-851"/>
<text text-anchor="start" x="818.2" y="-863.2" font-family="Arial" font-size="14.00">technical_manager_phone </text>
<text text-anchor="start" x="987.1" y="-863.2" font-family="Arial" font-size="14.00" fill="#666666">[varchar(255)]</text>
<polygon fill="none" stroke="black" points="811.2,-820.2 811.2,-851 1113.14,-851 1113.14,-820.2 811.2,-820.2"/>
<text text-anchor="start" x="818.2" y="-832.4" font-family="Arial" font-size="14.00">classification_dam_id </text>
<text text-anchor="start" x="955.16" y="-832.4" font-family="Arial" font-size="14.00" fill="#666666">[bigint]</text>
<polygon fill="none" stroke="black" points="811.2,-789.4 811.2,-820.2 1113.14,-820.2 1113.14,-789.4 811.2,-789.4"/>
<text text-anchor="start" x="818.2" y="-801.6" font-family="Arial" font-size="14.00">dam_id </text>
<text text-anchor="start" x="868.01" y="-801.6" font-family="Arial" font-size="14.00" fill="#666666">[bigint]</text>
<polygon fill="none" stroke="black" points="811.2,-758.6 811.2,-789.4 1113.14,-789.4 1113.14,-758.6 811.2,-758.6"/>
<text text-anchor="start" x="818.2" y="-770.8" font-family="Arial" font-size="14.00">potential_damage_id </text>
<text text-anchor="start" x="952.08" y="-770.8" font-family="Arial" font-size="14.00" fill="#666666">[bigint]</text>
<polygon fill="none" stroke="black" points="811.2,-727.8 811.2,-758.6 1113.14,-758.6 1113.14,-727.8 811.2,-727.8"/>
<text text-anchor="start" x="818.2" y="-740" font-family="Arial" font-size="14.00">risk_category_id </text>
<text text-anchor="start" x="924.03" y="-740" font-family="Arial" font-size="14.00" fill="#666666">[bigint]</text>
<polygon fill="none" stroke="black" points="811.2,-697 811.2,-727.8 1113.14,-727.8 1113.14,-697 811.2,-697"/>
<text text-anchor="start" x="818.2" y="-709.2" font-family="Arial" font-size="14.00">security_level_id </text>
<text text-anchor="start" x="925.59" y="-709.2" font-family="Arial" font-size="14.00" fill="#666666">[bigint]</text>
<polygon fill="none" stroke="black" stroke-width="3" points="809.7,-695.5 809.7,-1165.3 1114.64,-1165.3 1114.64,-695.5 809.7,-695.5"/>
</g>
<!-- public.classification_dams -->
<g id="node2" class="node">
<title>public.classification_dams</title>
<polygon fill="#efefef" stroke="none" points="43.2,-320.4 43.2,-356 373.14,-356 373.14,-320.4 43.2,-320.4"/>
<polygon fill="none" stroke="black" points="43.2,-320.4 43.2,-356 373.14,-356 373.14,-320.4 43.2,-320.4"/>
<text text-anchor="start" x="50.2" y="-333.8" font-family="Arial Bold" font-size="18.00">public.classification_dams</text>
<text text-anchor="start" x="241.65" y="-333.8" font-family="Arial" font-size="14.00">    </text>
<text text-anchor="start" x="272.77" y="-333.8" font-family="Arial" font-size="14.00" fill="#666666">[BASE TABLE]</text>
<polygon fill="none" stroke="black" points="43.2,-289.6 43.2,-320.4 373.14,-320.4 373.14,-289.6 43.2,-289.6"/>
<text text-anchor="start" x="50.2" y="-301.8" font-family="Arial" font-size="14.00">id </text>
<text text-anchor="start" x="64.99" y="-301.8" font-family="Arial" font-size="14.00" fill="#666666">[bigint]</text>
<polygon fill="none" stroke="black" points="43.2,-258.8 43.2,-289.6 373.14,-289.6 373.14,-258.8 43.2,-258.8"/>
<text text-anchor="start" x="50.2" y="-271" font-family="Arial" font-size="14.00">classification </text>
<text text-anchor="start" x="133.45" y="-271" font-family="Arial" font-size="14.00" fill="#666666">[varchar(255)]</text>
</g>
<!-- public.regulatory_dam&#45;&gt;public.classification_dams -->
<g id="edge1" class="edge">
<title>public.regulatory_dam:classification_dam_id&#45;&gt;public.classification_dams:id</title>
<path fill="none" stroke="black" d="M799.91,-835.55C610.28,-833.5 535.66,-774.01 425.17,-614.8 385.39,-557.48 443.91,-305 374.14,-305"/>
<polygon fill="black" stroke="black" points="799.87,-835.54 809.84,-840.1 805.2,-835.57 809.53,-835.6 809.53,-835.6 809.53,-835.6 805.2,-835.57 809.89,-831.1 799.87,-835.54"/>
<text text-anchor="start" x="455.32" y="-845.6" font-family="Arial" font-size="10.00">FOREIGN KEY (classification_dam_id) REFERENCES classification_dams(id)</text>
</g>
<!-- public.dam -->
<g id="node3" class="node">
<title>public.dam</title>
<polygon fill="#efefef" stroke="none" points="477.69,-536 477.69,-571.6 696.66,-571.6 696.66,-536 477.69,-536"/>
<polygon fill="none" stroke="black" points="477.69,-536 477.69,-571.6 696.66,-571.6 696.66,-536 477.69,-536"/>
<text text-anchor="start" x="484.69" y="-549.4" font-family="Arial Bold" font-size="18.00">public.dam</text>
<text text-anchor="start" x="565.17" y="-549.4" font-family="Arial" font-size="14.00">    </text>
<text text-anchor="start" x="596.28" y="-549.4" font-family="Arial" font-size="14.00" fill="#666666">[BASE TABLE]</text>
<polygon fill="none" stroke="black" points="477.69,-505.2 477.69,-536 696.66,-536 696.66,-505.2 477.69,-505.2"/>
<text text-anchor="start" x="484.69" y="-517.4" font-family="Arial" font-size="14.00">id </text>
<text text-anchor="start" x="499.47" y="-517.4" font-family="Arial" font-size="14.00" fill="#666666">[bigint]</text>
<polygon fill="none" stroke="black" points="477.69,-474.4 477.69,-505.2 696.66,-505.2 696.66,-474.4 477.69,-474.4"/>
<text text-anchor="start" x="484.69" y="-486.6" font-family="Arial" font-size="14.00">city </text>
<text text-anchor="start" x="509.58" y="-486.6" font-family="Arial" font-size="14.00" fill="#666666">[varchar(100)]</text>
<polygon fill="none" stroke="black" points="477.69,-443.6 477.69,-474.4 696.66,-474.4 696.66,-443.6 477.69,-443.6"/>
<text text-anchor="start" x="484.69" y="-455.8" font-family="Arial" font-size="14.00">dam_image_path </text>
<text text-anchor="start" x="596.76" y="-455.8" font-family="Arial" font-size="14.00" fill="#666666">[varchar(255)]</text>
<polygon fill="none" stroke="black" points="477.69,-412.8 477.69,-443.6 696.66,-443.6 696.66,-412.8 477.69,-412.8"/>
<text text-anchor="start" x="484.69" y="-425" font-family="Arial" font-size="14.00">latitude </text>
<text text-anchor="start" x="533.72" y="-425" font-family="Arial" font-size="14.00" fill="#666666">[double precision]</text>
<polygon fill="none" stroke="black" points="477.69,-382 477.69,-412.8 696.66,-412.8 696.66,-382 477.69,-382"/>
<text text-anchor="start" x="484.69" y="-394.2" font-family="Arial" font-size="14.00">link_legislation </text>
<text text-anchor="start" x="579.63" y="-394.2" font-family="Arial" font-size="14.00" fill="#666666">[varchar(255)]</text>
<polygon fill="none" stroke="black" points="477.69,-351.2 477.69,-382 696.66,-382 696.66,-351.2 477.69,-351.2"/>
<text text-anchor="start" x="484.69" y="-363.4" font-family="Arial" font-size="14.00">linkpsb </text>
<text text-anchor="start" x="532.15" y="-363.4" font-family="Arial" font-size="14.00" fill="#666666">[varchar(255)]</text>
<polygon fill="none" stroke="black" points="477.69,-320.4 477.69,-351.2 696.66,-351.2 696.66,-320.4 477.69,-320.4"/>
<text text-anchor="start" x="484.69" y="-332.6" font-family="Arial" font-size="14.00">logo_path </text>
<text text-anchor="start" x="550.08" y="-332.6" font-family="Arial" font-size="14.00" fill="#666666">[varchar(255)]</text>
<polygon fill="none" stroke="black" points="477.69,-289.6 477.69,-320.4 696.66,-320.4 696.66,-289.6 477.69,-289.6"/>
<text text-anchor="start" x="484.69" y="-301.8" font-family="Arial" font-size="14.00">longitude </text>
<text text-anchor="start" x="545.4" y="-301.8" font-family="Arial" font-size="14.00" fill="#666666">[double precision]</text>
<polygon fill="none" stroke="black" points="477.69,-258.8 477.69,-289.6 696.66,-289.6 696.66,-258.8 477.69,-258.8"/>
<text text-anchor="start" x="484.69" y="-271" font-family="Arial" font-size="14.00">name </text>
<text text-anchor="start" x="523.6" y="-271" font-family="Arial" font-size="14.00" fill="#666666">[varchar(255)]</text>
<polygon fill="none" stroke="black" points="477.69,-228 477.69,-258.8 696.66,-258.8 696.66,-228 477.69,-228"/>
<text text-anchor="start" x="484.69" y="-240.2" font-family="Arial" font-size="14.00">neighborhood </text>
<text text-anchor="start" x="574.21" y="-240.2" font-family="Arial" font-size="14.00" fill="#666666">[varchar(100)]</text>
<polygon fill="none" stroke="black" points="477.69,-197.2 477.69,-228 696.66,-228 696.66,-197.2 477.69,-197.2"/>
<text text-anchor="start" x="484.69" y="-209.4" font-family="Arial" font-size="14.00">number_address </text>
<text text-anchor="start" x="593.64" y="-209.4" font-family="Arial" font-size="14.00" fill="#666666">[varchar(10)]</text>
<polygon fill="none" stroke="black" points="477.69,-166.4 477.69,-197.2 696.66,-197.2 696.66,-166.4 477.69,-166.4"/>
<text text-anchor="start" x="484.69" y="-178.6" font-family="Arial" font-size="14.00">state </text>
<text text-anchor="start" x="518.93" y="-178.6" font-family="Arial" font-size="14.00" fill="#666666">[varchar(100)]</text>
<polygon fill="none" stroke="black" points="477.69,-135.6 477.69,-166.4 696.66,-166.4 696.66,-135.6 477.69,-135.6"/>
<text text-anchor="start" x="484.69" y="-147.8" font-family="Arial" font-size="14.00">street </text>
<text text-anchor="start" x="523.59" y="-147.8" font-family="Arial" font-size="14.00" fill="#666666">[varchar(255)]</text>
<polygon fill="none" stroke="black" points="477.69,-104.8 477.69,-135.6 696.66,-135.6 696.66,-104.8 477.69,-104.8"/>
<text text-anchor="start" x="484.69" y="-117" font-family="Arial" font-size="14.00">zip_code </text>
<text text-anchor="start" x="544.62" y="-117" font-family="Arial" font-size="14.00" fill="#666666">[varchar(9)]</text>
<polygon fill="none" stroke="black" points="477.69,-74 477.69,-104.8 696.66,-104.8 696.66,-74 477.69,-74"/>
<text text-anchor="start" x="484.69" y="-86.2" font-family="Arial" font-size="14.00">client_id </text>
<text text-anchor="start" x="539.94" y="-86.2" font-family="Arial" font-size="14.00" fill="#666666">[bigint]</text>
<polygon fill="none" stroke="black" points="477.69,-43.2 477.69,-74 696.66,-74 696.66,-43.2 477.69,-43.2"/>
<text text-anchor="start" x="484.69" y="-55.4" font-family="Arial" font-size="14.00">status_id </text>
<text text-anchor="start" x="544.61" y="-55.4" font-family="Arial" font-size="14.00" fill="#666666">[bigint]</text>
</g>
<!-- public.regulatory_dam&#45;&gt;public.dam -->
<g id="edge2" class="edge">
<title>public.regulatory_dam:dam_id&#45;&gt;public.dam:id</title>
<path fill="none" stroke="black" d="M800.19,-802.51C744.48,-775.62 762,-520.6 697.66,-520.6"/>
<polygon fill="black" stroke="black" points="800.13,-802.5 808.87,-809.11 805.33,-803.69 809.55,-804.65 809.55,-804.65 809.55,-804.65 805.33,-803.69 810.88,-800.34 800.13,-802.5"/>
<text text-anchor="start" x="584.82" y="-814.8" font-family="Arial" font-size="10.00">FOREIGN KEY (dam_id) REFERENCES dam(id)</text>
</g>
<!-- public.potential_damages -->
<g id="node4" class="node">
<title>public.potential_damages</title>
<polygon fill="#efefef" stroke="none" points="800.7,-320.4 800.7,-356 1123.64,-356 1123.64,-320.4 800.7,-320.4"/>
<polygon fill="none" stroke="black" points="800.7,-320.4 800.7,-356 1123.64,-356 1123.64,-320.4 800.7,-320.4"/>
<text text-anchor="start" x="807.7" y="-333.8" font-family="Arial Bold" font-size="18.00">public.potential_damages</text>
<text text-anchor="start" x="992.15" y="-333.8" font-family="Arial" font-size="14.00">    </text>
<text text-anchor="start" x="1023.27" y="-333.8" font-family="Arial" font-size="14.00" fill="#666666">[BASE TABLE]</text>
<polygon fill="none" stroke="black" points="800.7,-289.6 800.7,-320.4 1123.64,-320.4 1123.64,-289.6 800.7,-289.6"/>
<text text-anchor="start" x="807.7" y="-301.8" font-family="Arial" font-size="14.00">id </text>
<text text-anchor="start" x="822.49" y="-301.8" font-family="Arial" font-size="14.00" fill="#666666">[bigint]</text>
<polygon fill="none" stroke="black" points="800.7,-258.8 800.7,-289.6 1123.64,-289.6 1123.64,-258.8 800.7,-258.8"/>
<text text-anchor="start" x="807.7" y="-271" font-family="Arial" font-size="14.00">name </text>
<text text-anchor="start" x="846.61" y="-271" font-family="Arial" font-size="14.00" fill="#666666">[varchar(255)]</text>
</g>
<!-- public.regulatory_dam&#45;&gt;public.potential_damages -->
<g id="edge3" class="edge">
<title>public.regulatory_dam:potential_damage_id&#45;&gt;public.potential_damages:id</title>
<path fill="none" stroke="black" d="M1123.15,-769.05C1167.31,-718.93 1173.61,-305 1124.64,-305"/>
<polygon fill="black" stroke="black" points="1123.2,-769.02 1112.27,-769.9 1118.52,-771.59 1114.73,-773.68 1114.73,-773.68 1114.73,-773.68 1118.52,-771.59 1116.6,-777.78 1123.2,-769.02"/>
<text text-anchor="start" x="1121.14" y="-784" font-family="Arial" font-size="10.00">FOREIGN KEY (potential_damage_id) REFERENCES potential_damages(id)</text>
</g>
<!-- public.risk_categories -->
<g id="node5" class="node">
<title>public.risk_categories</title>
<polygon fill="#efefef" stroke="none" points="1227.7,-320.4 1227.7,-356 1524.64,-356 1524.64,-320.4 1227.7,-320.4"/>
<polygon fill="none" stroke="black" points="1227.7,-320.4 1227.7,-356 1524.64,-356 1524.64,-320.4 1227.7,-320.4"/>
<text text-anchor="start" x="1234.7" y="-333.8" font-family="Arial Bold" font-size="18.00">public.risk_categories</text>
<text text-anchor="start" x="1393.15" y="-333.8" font-family="Arial" font-size="14.00">    </text>
<text text-anchor="start" x="1424.27" y="-333.8" font-family="Arial" font-size="14.00" fill="#666666">[BASE TABLE]</text>
<polygon fill="none" stroke="black" points="1227.7,-289.6 1227.7,-320.4 1524.64,-320.4 1524.64,-289.6 1227.7,-289.6"/>
<text text-anchor="start" x="1234.7" y="-301.8" font-family="Arial" font-size="14.00">id </text>
<text text-anchor="start" x="1249.49" y="-301.8" font-family="Arial" font-size="14.00" fill="#666666">[bigint]</text>
<polygon fill="none" stroke="black" points="1227.7,-258.8 1227.7,-289.6 1524.64,-289.6 1524.64,-258.8 1227.7,-258.8"/>
<text text-anchor="start" x="1234.7" y="-271" font-family="Arial" font-size="14.00">name </text>
<text text-anchor="start" x="1273.61" y="-271" font-family="Arial" font-size="14.00" fill="#666666">[varchar(255)]</text>
</g>
<!-- public.regulatory_dam&#45;&gt;public.risk_categories -->
<g id="edge4" class="edge">
<title>public.regulatory_dam:risk_category_id&#45;&gt;public.risk_categories:id</title>
<path fill="none" stroke="black" d="M1124.44,-742.52C1175.26,-735.26 1158.21,-671.69 1176.17,-614.8 1197.17,-548.28 1156.95,-305 1226.7,-305"/>
<polygon fill="black" stroke="black" points="1124.45,-742.51 1114.18,-738.69 1119.13,-742.87 1114.81,-743.16 1114.81,-743.16 1114.81,-743.16 1119.13,-742.87 1114.77,-747.67 1124.45,-742.51"/>
<text text-anchor="start" x="1121.14" y="-753.2" font-family="Arial" font-size="10.00">FOREIGN KEY (risk_category_id) REFERENCES risk_categories(id)</text>
</g>
<!-- public.security_levels -->
<g id="node6" class="node">
<title>public.security_levels</title>
<polygon fill="#efefef" stroke="none" points="1629.2,-320.4 1629.2,-356 1925.14,-356 1925.14,-320.4 1629.2,-320.4"/>
<polygon fill="none" stroke="black" points="1629.2,-320.4 1629.2,-356 1925.14,-356 1925.14,-320.4 1629.2,-320.4"/>
<text text-anchor="start" x="1636.2" y="-333.8" font-family="Arial Bold" font-size="18.00">public.security_levels</text>
<text text-anchor="start" x="1793.65" y="-333.8" font-family="Arial" font-size="14.00">    </text>
<text text-anchor="start" x="1824.77" y="-333.8" font-family="Arial" font-size="14.00" fill="#666666">[BASE TABLE]</text>
<polygon fill="none" stroke="black" points="1629.2,-289.6 1629.2,-320.4 1925.14,-320.4 1925.14,-289.6 1629.2,-289.6"/>
<text text-anchor="start" x="1636.2" y="-301.8" font-family="Arial" font-size="14.00">id </text>
<text text-anchor="start" x="1650.98" y="-301.8" font-family="Arial" font-size="14.00" fill="#666666">[bigint]</text>
<polygon fill="none" stroke="black" points="1629.2,-258.8 1629.2,-289.6 1925.14,-289.6 1925.14,-258.8 1629.2,-258.8"/>
<text text-anchor="start" x="1636.2" y="-271" font-family="Arial" font-size="14.00">level </text>
<text text-anchor="start" x="1668.88" y="-271" font-family="Arial" font-size="14.00" fill="#666666">[varchar(255)]</text>
</g>
<!-- public.regulatory_dam&#45;&gt;public.security_levels -->
<g id="edge5" class="edge">
<title>public.regulatory_dam:security_level_id&#45;&gt;public.security_levels:id</title>
<path fill="none" stroke="black" d="M1124.51,-712.34C1236.91,-711 1506.76,-688.42 1577.17,-614.8 1625.4,-564.38 1558.43,-305 1628.2,-305"/>
<polygon fill="black" stroke="black" points="1124.47,-712.34 1114.45,-707.9 1119.14,-712.37 1114.81,-712.4 1114.81,-712.4 1114.81,-712.4 1119.14,-712.37 1114.5,-716.9 1124.47,-712.34"/>
<text text-anchor="start" x="1121.14" y="-722.4" font-family="Arial" font-size="10.00">FOREIGN KEY (security_level_id) REFERENCES security_levels(id)</text>
</g>
</g>
</svg>
