<?xml version="1.0" encoding="UTF-8" standalone="no"?>
<!DOCTYPE svg PUBLIC "-//W3C//DTD SVG 1.1//EN"
 "http://www.w3.org/Graphics/SVG/1.1/DTD/svg11.dtd">
<!-- Generated by graphviz version 12.1.2 (20240928.0832)
 -->
<!-- Title: public.security_levels Pages: 1 -->
<svg width="522pt" height="787pt"
 viewBox="0.00 0.00 521.81 786.80" xmlns="http://www.w3.org/2000/svg" xmlns:xlink="http://www.w3.org/1999/xlink">
<g id="graph0" class="graph" transform="scale(1 1) rotate(0) translate(4 782.8)">
<title>public.security_levels</title>
<polygon fill="white" stroke="none" points="-4,4 -4,-782.8 517.81,-782.8 517.81,4 -4,4"/>
<!-- public.security_levels -->
<g id="node1" class="node">
<title>public.security_levels</title>
<polygon fill="#efefef" stroke="none" points="171.66,-107.8 171.66,-143.4 467.61,-143.4 467.61,-107.8 171.66,-107.8"/>
<polygon fill="none" stroke="black" points="171.66,-107.8 171.66,-143.4 467.61,-143.4 467.61,-107.8 171.66,-107.8"/>
<text text-anchor="start" x="178.66" y="-121.2" font-family="Arial Bold" font-size="18.00">public.security_levels</text>
<text text-anchor="start" x="336.12" y="-121.2" font-family="Arial" font-size="14.00">    </text>
<text text-anchor="start" x="367.24" y="-121.2" font-family="Arial" font-size="14.00" fill="#666666">[BASE TABLE]</text>
<polygon fill="none" stroke="black" points="171.66,-77 171.66,-107.8 467.61,-107.8 467.61,-77 171.66,-77"/>
<text text-anchor="start" x="178.66" y="-89.2" font-family="Arial" font-size="14.00">id </text>
<text text-anchor="start" x="193.45" y="-89.2" font-family="Arial" font-size="14.00" fill="#666666">[bigint]</text>
<polygon fill="none" stroke="black" points="171.66,-46.2 171.66,-77 467.61,-77 467.61,-46.2 171.66,-46.2"/>
<text text-anchor="start" x="178.66" y="-58.4" font-family="Arial" font-size="14.00">level </text>
<text text-anchor="start" x="211.34" y="-58.4" font-family="Arial" font-size="14.00" fill="#666666">[varchar(255)]</text>
<polygon fill="none" stroke="black" stroke-width="3" points="170.16,-44.7 170.16,-144.9 469.11,-144.9 469.11,-44.7 170.16,-44.7"/>
</g>
<!-- public.regulatory_dam -->
<g id="node2" class="node">
<title>public.regulatory_dam</title>
<polygon fill="#efefef" stroke="none" points="168.67,-700 168.67,-735.6 470.6,-735.6 470.6,-700 168.67,-700"/>
<polygon fill="none" stroke="black" points="168.67,-700 168.67,-735.6 470.6,-735.6 470.6,-700 168.67,-700"/>
<text text-anchor="start" x="175.67" y="-713.4" font-family="Arial Bold" font-size="18.00">public.regulatory_dam</text>
<text text-anchor="start" x="339.12" y="-713.4" font-family="Arial" font-size="14.00">    </text>
<text text-anchor="start" x="370.23" y="-713.4" font-family="Arial" font-size="14.00" fill="#666666">[BASE TABLE]</text>
<polygon fill="none" stroke="black" points="168.67,-669.2 168.67,-700 470.6,-700 470.6,-669.2 168.67,-669.2"/>
<text text-anchor="start" x="175.67" y="-681.4" font-family="Arial" font-size="14.00">id </text>
<text text-anchor="start" x="190.45" y="-681.4" font-family="Arial" font-size="14.00" fill="#666666">[bigint]</text>
<polygon fill="none" stroke="black" points="168.67,-638.4 168.67,-669.2 470.6,-669.2 470.6,-638.4 168.67,-638.4"/>
<text text-anchor="start" x="175.67" y="-650.6" font-family="Arial" font-size="14.00">frame_pnsb </text>
<text text-anchor="start" x="253.49" y="-650.6" font-family="Arial" font-size="14.00" fill="#666666">[boolean]</text>
<polygon fill="none" stroke="black" points="168.67,-607.6 168.67,-638.4 470.6,-638.4 470.6,-607.6 168.67,-607.6"/>
<text text-anchor="start" x="175.67" y="-619.8" font-family="Arial" font-size="14.00">representative_email </text>
<text text-anchor="start" x="309.51" y="-619.8" font-family="Arial" font-size="14.00" fill="#666666">[varchar(255)]</text>
<polygon fill="none" stroke="black" points="168.67,-576.8 168.67,-607.6 470.6,-607.6 470.6,-576.8 168.67,-576.8"/>
<text text-anchor="start" x="175.67" y="-589" font-family="Arial" font-size="14.00">representative_name </text>
<text text-anchor="start" x="311.08" y="-589" font-family="Arial" font-size="14.00" fill="#666666">[varchar(255)]</text>
<polygon fill="none" stroke="black" points="168.67,-546 168.67,-576.8 470.6,-576.8 470.6,-546 168.67,-546"/>
<text text-anchor="start" x="175.67" y="-558.2" font-family="Arial" font-size="14.00">representative_phone </text>
<text text-anchor="start" x="314.99" y="-558.2" font-family="Arial" font-size="14.00" fill="#666666">[varchar(255)]</text>
<polygon fill="none" stroke="black" points="168.67,-515.2 168.67,-546 470.6,-546 470.6,-515.2 168.67,-515.2"/>
<text text-anchor="start" x="175.67" y="-527.4" font-family="Arial" font-size="14.00">supervisory_body_name </text>
<text text-anchor="start" x="332.08" y="-527.4" font-family="Arial" font-size="14.00" fill="#666666">[varchar(255)]</text>
<polygon fill="none" stroke="black" points="168.67,-484.4 168.67,-515.2 470.6,-515.2 470.6,-484.4 168.67,-484.4"/>
<text text-anchor="start" x="175.67" y="-496.6" font-family="Arial" font-size="14.00">technical_manager_email </text>
<text text-anchor="start" x="339.09" y="-496.6" font-family="Arial" font-size="14.00" fill="#666666">[varchar(255)]</text>
<polygon fill="none" stroke="black" points="168.67,-453.6 168.67,-484.4 470.6,-484.4 470.6,-453.6 168.67,-453.6"/>
<text text-anchor="start" x="175.67" y="-465.8" font-family="Arial" font-size="14.00">technical_manager_name </text>
<text text-anchor="start" x="340.66" y="-465.8" font-family="Arial" font-size="14.00" fill="#666666">[varchar(255)]</text>
<polygon fill="none" stroke="black" points="168.67,-422.8 168.67,-453.6 470.6,-453.6 470.6,-422.8 168.67,-422.8"/>
<text text-anchor="start" x="175.67" y="-435" font-family="Arial" font-size="14.00">technical_manager_phone </text>
<text text-anchor="start" x="344.57" y="-435" font-family="Arial" font-size="14.00" fill="#666666">[varchar(255)]</text>
<polygon fill="none" stroke="black" points="168.67,-392 168.67,-422.8 470.6,-422.8 470.6,-392 168.67,-392"/>
<text text-anchor="start" x="175.67" y="-404.2" font-family="Arial" font-size="14.00">classification_dam_id </text>
<text text-anchor="start" x="312.62" y="-404.2" font-family="Arial" font-size="14.00" fill="#666666">[bigint]</text>
<polygon fill="none" stroke="black" points="168.67,-361.2 168.67,-392 470.6,-392 470.6,-361.2 168.67,-361.2"/>
<text text-anchor="start" x="175.67" y="-373.4" font-family="Arial" font-size="14.00">dam_id </text>
<text text-anchor="start" x="225.47" y="-373.4" font-family="Arial" font-size="14.00" fill="#666666">[bigint]</text>
<polygon fill="none" stroke="black" points="168.67,-330.4 168.67,-361.2 470.6,-361.2 470.6,-330.4 168.67,-330.4"/>
<text text-anchor="start" x="175.67" y="-342.6" font-family="Arial" font-size="14.00">potential_damage_id </text>
<text text-anchor="start" x="309.55" y="-342.6" font-family="Arial" font-size="14.00" fill="#666666">[bigint]</text>
<polygon fill="none" stroke="black" points="168.67,-299.6 168.67,-330.4 470.6,-330.4 470.6,-299.6 168.67,-299.6"/>
<text text-anchor="start" x="175.67" y="-311.8" font-family="Arial" font-size="14.00">risk_category_id </text>
<text text-anchor="start" x="281.49" y="-311.8" font-family="Arial" font-size="14.00" fill="#666666">[bigint]</text>
<polygon fill="none" stroke="black" points="168.67,-268.8 168.67,-299.6 470.6,-299.6 470.6,-268.8 168.67,-268.8"/>
<text text-anchor="start" x="175.67" y="-281" font-family="Arial" font-size="14.00">security_level_id </text>
<text text-anchor="start" x="283.05" y="-281" font-family="Arial" font-size="14.00" fill="#666666">[bigint]</text>
</g>
<!-- public.regulatory_dam&#45;&gt;public.security_levels -->
<g id="edge1" class="edge">
<title>public.regulatory_dam:security_level_id&#45;&gt;public.security_levels:id</title>
<path fill="none" stroke="black" d="M320.46,-257.47C330.55,-199.16 430.86,-249.89 467.61,-189.6 490.1,-152.71 511.81,-92.4 468.61,-92.4"/>
<polygon fill="black" stroke="black" points="320.45,-257.5 315.18,-267.11 320.03,-262.82 319.69,-267.13 319.69,-267.13 319.69,-267.13 320.03,-262.82 324.15,-267.82 320.45,-257.5"/>
<text text-anchor="start" x="7" y="-277.8" font-family="Arial" font-size="10.00">FOREIGN KEY (security_level_id) REFERENCES security_levels(id)</text>
</g>
</g>
</svg>
