<?xml version="1.0" encoding="UTF-8" standalone="no"?>
<!DOCTYPE svg PUBLIC "-//W3C//DTD SVG 1.1//EN"
 "http://www.w3.org/Graphics/SVG/1.1/DTD/svg11.dtd">
<!-- Generated by graphviz version 12.1.2 (20240928.0832)
 -->
<!-- Title: public.instrument_graph_customization_properties Pages: 1 -->
<svg width="2488pt" height="1187pt"
 viewBox="0.00 0.00 2487.87 1187.20" xmlns="http://www.w3.org/2000/svg" xmlns:xlink="http://www.w3.org/1999/xlink">
<g id="graph0" class="graph" transform="scale(1 1) rotate(0) translate(4 1183.2)">
<title>public.instrument_graph_customization_properties</title>
<polygon fill="white" stroke="none" points="-4,4 -4,-1183.2 2483.87,-1183.2 2483.87,4 -4,4"/>
<!-- public.instrument_graph_customization_properties -->
<g id="node1" class="node">
<title>public.instrument_graph_customization_properties</title>
<polygon fill="#efefef" stroke="none" points="976.23,-1097.4 976.23,-1133 1482.14,-1133 1482.14,-1097.4 976.23,-1097.4"/>
<polygon fill="none" stroke="black" points="976.23,-1097.4 976.23,-1133 1482.14,-1133 1482.14,-1097.4 976.23,-1097.4"/>
<text text-anchor="start" x="983.23" y="-1110.8" font-family="Arial Bold" font-size="18.00">public.instrument_graph_customization_properties</text>
<text text-anchor="start" x="1350.65" y="-1110.8" font-family="Arial" font-size="14.00">    </text>
<text text-anchor="start" x="1381.76" y="-1110.8" font-family="Arial" font-size="14.00" fill="#666666">[BASE TABLE]</text>
<polygon fill="none" stroke="black" points="976.23,-1066.6 976.23,-1097.4 1482.14,-1097.4 1482.14,-1066.6 976.23,-1066.6"/>
<text text-anchor="start" x="983.23" y="-1078.8" font-family="Arial" font-size="14.00">id </text>
<text text-anchor="start" x="998.02" y="-1078.8" font-family="Arial" font-size="14.00" fill="#666666">[bigint]</text>
<polygon fill="none" stroke="black" points="976.23,-1035.8 976.23,-1066.6 1482.14,-1066.6 1482.14,-1035.8 976.23,-1035.8"/>
<text text-anchor="start" x="983.23" y="-1048" font-family="Arial" font-size="14.00">customization_type </text>
<text text-anchor="start" x="1106.96" y="-1048" font-family="Arial" font-size="14.00" fill="#666666">[varchar(255)]</text>
<polygon fill="none" stroke="black" points="976.23,-1005 976.23,-1035.8 1482.14,-1035.8 1482.14,-1005 976.23,-1005"/>
<text text-anchor="start" x="983.23" y="-1017.2" font-family="Arial" font-size="14.00">fill_color </text>
<text text-anchor="start" x="1038.47" y="-1017.2" font-family="Arial" font-size="14.00" fill="#666666">[varchar(255)]</text>
<polygon fill="none" stroke="black" points="976.23,-974.2 976.23,-1005 1482.14,-1005 1482.14,-974.2 976.23,-974.2"/>
<text text-anchor="start" x="983.23" y="-986.4" font-family="Arial" font-size="14.00">is_primary_ordinate </text>
<text text-anchor="start" x="1110.06" y="-986.4" font-family="Arial" font-size="14.00" fill="#666666">[boolean]</text>
<polygon fill="none" stroke="black" points="976.23,-943.4 976.23,-974.2 1482.14,-974.2 1482.14,-943.4 976.23,-943.4"/>
<text text-anchor="start" x="983.23" y="-955.6" font-family="Arial" font-size="14.00">label_enable </text>
<text text-anchor="start" x="1066.53" y="-955.6" font-family="Arial" font-size="14.00" fill="#666666">[boolean]</text>
<polygon fill="none" stroke="black" points="976.23,-912.6 976.23,-943.4 1482.14,-943.4 1482.14,-912.6 976.23,-912.6"/>
<text text-anchor="start" x="983.23" y="-924.8" font-family="Arial" font-size="14.00">limit_value_type </text>
<text text-anchor="start" x="1087.5" y="-924.8" font-family="Arial" font-size="14.00" fill="#666666">[varchar(255)]</text>
<polygon fill="none" stroke="black" points="976.23,-881.8 976.23,-912.6 1482.14,-912.6 1482.14,-881.8 976.23,-881.8"/>
<text text-anchor="start" x="983.23" y="-894" font-family="Arial" font-size="14.00">line_type </text>
<text text-anchor="start" x="1043.16" y="-894" font-family="Arial" font-size="14.00" fill="#666666">[varchar(255)]</text>
<polygon fill="none" stroke="black" points="976.23,-851 976.23,-881.8 1482.14,-881.8 1482.14,-851 976.23,-851"/>
<text text-anchor="start" x="983.23" y="-863.2" font-family="Arial" font-size="14.00">name </text>
<text text-anchor="start" x="1022.14" y="-863.2" font-family="Arial" font-size="14.00" fill="#666666">[varchar(255)]</text>
<polygon fill="none" stroke="black" points="976.23,-820.2 976.23,-851 1482.14,-851 1482.14,-820.2 976.23,-820.2"/>
<text text-anchor="start" x="983.23" y="-832.4" font-family="Arial" font-size="14.00">constant_id </text>
<text text-anchor="start" x="1058.73" y="-832.4" font-family="Arial" font-size="14.00" fill="#666666">[bigint]</text>
<polygon fill="none" stroke="black" points="976.23,-789.4 976.23,-820.2 1482.14,-820.2 1482.14,-789.4 976.23,-789.4"/>
<text text-anchor="start" x="983.23" y="-801.6" font-family="Arial" font-size="14.00">deterministic_limit_id </text>
<text text-anchor="start" x="1117.05" y="-801.6" font-family="Arial" font-size="14.00" fill="#666666">[bigint]</text>
<polygon fill="none" stroke="black" points="976.23,-758.6 976.23,-789.4 1482.14,-789.4 1482.14,-758.6 976.23,-758.6"/>
<text text-anchor="start" x="983.23" y="-770.8" font-family="Arial" font-size="14.00">instrument_id </text>
<text text-anchor="start" x="1071.16" y="-770.8" font-family="Arial" font-size="14.00" fill="#666666">[bigint]</text>
<polygon fill="none" stroke="black" points="976.23,-727.8 976.23,-758.6 1482.14,-758.6 1482.14,-727.8 976.23,-727.8"/>
<text text-anchor="start" x="983.23" y="-740" font-family="Arial" font-size="14.00">output_id </text>
<text text-anchor="start" x="1044.73" y="-740" font-family="Arial" font-size="14.00" fill="#666666">[bigint]</text>
<polygon fill="none" stroke="black" points="976.23,-697 976.23,-727.8 1482.14,-727.8 1482.14,-697 976.23,-697"/>
<text text-anchor="start" x="983.23" y="-709.2" font-family="Arial" font-size="14.00">pattern_id </text>
<text text-anchor="start" x="1049.39" y="-709.2" font-family="Arial" font-size="14.00" fill="#666666">[bigint]</text>
<polygon fill="none" stroke="black" points="976.23,-666.2 976.23,-697 1482.14,-697 1482.14,-666.2 976.23,-666.2"/>
<text text-anchor="start" x="983.23" y="-678.4" font-family="Arial" font-size="14.00">statistical_limit_id </text>
<text text-anchor="start" x="1096.04" y="-678.4" font-family="Arial" font-size="14.00" fill="#666666">[bigint]</text>
<polygon fill="none" stroke="black" stroke-width="3" points="974.73,-664.7 974.73,-1134.5 1483.64,-1134.5 1483.64,-664.7 974.73,-664.7"/>
</g>
<!-- public.constant -->
<g id="node2" class="node">
<title>public.constant</title>
<polygon fill="#efefef" stroke="none" points="43.2,-382 43.2,-417.6 291.17,-417.6 291.17,-382 43.2,-382"/>
<polygon fill="none" stroke="black" points="43.2,-382 43.2,-417.6 291.17,-417.6 291.17,-382 43.2,-382"/>
<text text-anchor="start" x="50.2" y="-395.4" font-family="Arial Bold" font-size="18.00">public.constant</text>
<text text-anchor="start" x="159.68" y="-395.4" font-family="Arial" font-size="14.00">    </text>
<text text-anchor="start" x="190.79" y="-395.4" font-family="Arial" font-size="14.00" fill="#666666">[BASE TABLE]</text>
<polygon fill="none" stroke="black" points="43.2,-351.2 43.2,-382 291.17,-382 291.17,-351.2 43.2,-351.2"/>
<text text-anchor="start" x="50.2" y="-363.4" font-family="Arial" font-size="14.00">id </text>
<text text-anchor="start" x="64.99" y="-363.4" font-family="Arial" font-size="14.00" fill="#666666">[bigint]</text>
<polygon fill="none" stroke="black" points="43.2,-320.4 43.2,-351.2 291.17,-351.2 291.17,-320.4 43.2,-320.4"/>
<text text-anchor="start" x="50.2" y="-332.6" font-family="Arial" font-size="14.00">acronym </text>
<text text-anchor="start" x="107.77" y="-332.6" font-family="Arial" font-size="14.00" fill="#666666">[varchar(255)]</text>
<polygon fill="none" stroke="black" points="43.2,-289.6 43.2,-320.4 291.17,-320.4 291.17,-289.6 43.2,-289.6"/>
<text text-anchor="start" x="50.2" y="-301.8" font-family="Arial" font-size="14.00">name </text>
<text text-anchor="start" x="89.11" y="-301.8" font-family="Arial" font-size="14.00" fill="#666666">[varchar(255)]</text>
<polygon fill="none" stroke="black" points="43.2,-258.8 43.2,-289.6 291.17,-289.6 291.17,-258.8 43.2,-258.8"/>
<text text-anchor="start" x="50.2" y="-271" font-family="Arial" font-size="14.00">precision </text>
<text text-anchor="start" x="110.12" y="-271" font-family="Arial" font-size="14.00" fill="#666666">[integer]</text>
<polygon fill="none" stroke="black" points="43.2,-228 43.2,-258.8 291.17,-258.8 291.17,-228 43.2,-228"/>
<text text-anchor="start" x="50.2" y="-240.2" font-family="Arial" font-size="14.00">value </text>
<text text-anchor="start" x="87.56" y="-240.2" font-family="Arial" font-size="14.00" fill="#666666">[double precision]</text>
<polygon fill="none" stroke="black" points="43.2,-197.2 43.2,-228 291.17,-228 291.17,-197.2 43.2,-197.2"/>
<text text-anchor="start" x="50.2" y="-209.4" font-family="Arial" font-size="14.00">instrument_id </text>
<text text-anchor="start" x="138.13" y="-209.4" font-family="Arial" font-size="14.00" fill="#666666">[bigint]</text>
<polygon fill="none" stroke="black" points="43.2,-166.4 43.2,-197.2 291.17,-197.2 291.17,-166.4 43.2,-166.4"/>
<text text-anchor="start" x="50.2" y="-178.6" font-family="Arial" font-size="14.00">measurement_unit_id </text>
<text text-anchor="start" x="188.72" y="-178.6" font-family="Arial" font-size="14.00" fill="#666666">[bigint]</text>
</g>
<!-- public.instrument_graph_customization_properties&#45;&gt;public.constant -->
<g id="edge1" class="edge">
<title>public.instrument_graph_customization_properties:constant_id&#45;&gt;public.constant:id</title>
<path fill="none" stroke="black" d="M965.11,-835.59C669.9,-835.07 538.33,-810.48 343.18,-584 278.4,-508.81 391.41,-366.6 292.17,-366.6"/>
<polygon fill="black" stroke="black" points="964.89,-835.59 974.89,-840.1 970.23,-835.6 974.56,-835.6 974.56,-835.6 974.56,-835.6 970.23,-835.6 974.9,-831.1 964.89,-835.59"/>
<text text-anchor="start" x="713.15" y="-845.6" font-family="Arial" font-size="10.00">FOREIGN KEY (constant_id) REFERENCES constant(id)</text>
</g>
<!-- public.deterministic_limit -->
<g id="node3" class="node">
<title>public.deterministic_limit</title>
<polygon fill="#efefef" stroke="none" points="395.7,-351.2 395.7,-386.8 720.66,-386.8 720.66,-351.2 395.7,-351.2"/>
<polygon fill="none" stroke="black" points="395.7,-351.2 395.7,-386.8 720.66,-386.8 720.66,-351.2 395.7,-351.2"/>
<text text-anchor="start" x="402.7" y="-364.6" font-family="Arial Bold" font-size="18.00">public.deterministic_limit</text>
<text text-anchor="start" x="589.17" y="-364.6" font-family="Arial" font-size="14.00">    </text>
<text text-anchor="start" x="620.29" y="-364.6" font-family="Arial" font-size="14.00" fill="#666666">[BASE TABLE]</text>
<polygon fill="none" stroke="black" points="395.7,-320.4 395.7,-351.2 720.66,-351.2 720.66,-320.4 395.7,-320.4"/>
<text text-anchor="start" x="402.7" y="-332.6" font-family="Arial" font-size="14.00">id </text>
<text text-anchor="start" x="417.49" y="-332.6" font-family="Arial" font-size="14.00" fill="#666666">[bigint]</text>
<polygon fill="none" stroke="black" points="395.7,-289.6 395.7,-320.4 720.66,-320.4 720.66,-289.6 395.7,-289.6"/>
<text text-anchor="start" x="402.7" y="-301.8" font-family="Arial" font-size="14.00">alert_value </text>
<text text-anchor="start" x="475.08" y="-301.8" font-family="Arial" font-size="14.00" fill="#666666">[double precision]</text>
<polygon fill="none" stroke="black" points="395.7,-258.8 395.7,-289.6 720.66,-289.6 720.66,-258.8 395.7,-258.8"/>
<text text-anchor="start" x="402.7" y="-271" font-family="Arial" font-size="14.00">attention_value </text>
<text text-anchor="start" x="501.56" y="-271" font-family="Arial" font-size="14.00" fill="#666666">[double precision]</text>
<polygon fill="none" stroke="black" points="395.7,-228 395.7,-258.8 720.66,-258.8 720.66,-228 395.7,-228"/>
<text text-anchor="start" x="402.7" y="-240.2" font-family="Arial" font-size="14.00">emergency_value </text>
<text text-anchor="start" x="517.1" y="-240.2" font-family="Arial" font-size="14.00" fill="#666666">[double precision]</text>
<polygon fill="none" stroke="black" points="395.7,-197.2 395.7,-228 720.66,-228 720.66,-197.2 395.7,-197.2"/>
<text text-anchor="start" x="402.7" y="-209.4" font-family="Arial" font-size="14.00">output_id </text>
<text text-anchor="start" x="464.2" y="-209.4" font-family="Arial" font-size="14.00" fill="#666666">[bigint]</text>
</g>
<!-- public.instrument_graph_customization_properties&#45;&gt;public.deterministic_limit -->
<g id="edge2" class="edge">
<title>public.instrument_graph_customization_properties:deterministic_limit_id&#45;&gt;public.deterministic_limit:id</title>
<path fill="none" stroke="black" d="M964.96,-804.59C841.73,-799.39 832.17,-699.3 773.18,-584 747.53,-533.85 777.99,-335.8 721.66,-335.8"/>
<polygon fill="black" stroke="black" points="964.9,-804.59 974.8,-809.29 970.23,-804.7 974.56,-804.79 974.56,-804.79 974.56,-804.79 970.23,-804.7 974.99,-800.29 964.9,-804.59"/>
<text text-anchor="start" x="629.83" y="-814.8" font-family="Arial" font-size="10.00">FOREIGN KEY (deterministic_limit_id) REFERENCES deterministic_limit(id)</text>
</g>
<!-- public.instrument -->
<g id="node4" class="node">
<title>public.instrument</title>
<polygon fill="#efefef" stroke="none" points="825.47,-505.2 825.47,-540.8 1216.9,-540.8 1216.9,-505.2 825.47,-505.2"/>
<polygon fill="none" stroke="black" points="825.47,-505.2 825.47,-540.8 1216.9,-540.8 1216.9,-505.2 825.47,-505.2"/>
<text text-anchor="start" x="895.7" y="-518.6" font-family="Arial Bold" font-size="18.00">public.instrument</text>
<text text-anchor="start" x="1022.18" y="-518.6" font-family="Arial" font-size="14.00">    </text>
<text text-anchor="start" x="1053.3" y="-518.6" font-family="Arial" font-size="14.00" fill="#666666">[BASE TABLE]</text>
<polygon fill="none" stroke="black" points="825.47,-474.4 825.47,-505.2 1216.9,-505.2 1216.9,-474.4 825.47,-474.4"/>
<text text-anchor="start" x="832.47" y="-486.6" font-family="Arial" font-size="14.00">id </text>
<text text-anchor="start" x="847.26" y="-486.6" font-family="Arial" font-size="14.00" fill="#666666">[bigint]</text>
<polygon fill="none" stroke="black" points="825.47,-443.6 825.47,-474.4 1216.9,-474.4 1216.9,-443.6 825.47,-443.6"/>
<text text-anchor="start" x="832.47" y="-455.8" font-family="Arial" font-size="14.00">active </text>
<text text-anchor="start" x="872.93" y="-455.8" font-family="Arial" font-size="14.00" fill="#666666">[boolean]</text>
<polygon fill="none" stroke="black" points="825.47,-412.8 825.47,-443.6 1216.9,-443.6 1216.9,-412.8 825.47,-412.8"/>
<text text-anchor="start" x="832.47" y="-425" font-family="Arial" font-size="14.00">active_for_section </text>
<text text-anchor="start" x="949.2" y="-425" font-family="Arial" font-size="14.00" fill="#666666">[boolean]</text>
<polygon fill="none" stroke="black" points="825.47,-382 825.47,-412.8 1216.9,-412.8 1216.9,-382 825.47,-382"/>
<text text-anchor="start" x="832.47" y="-394.2" font-family="Arial" font-size="14.00">distance_offset </text>
<text text-anchor="start" x="930.53" y="-394.2" font-family="Arial" font-size="14.00" fill="#666666">[double precision]</text>
<polygon fill="none" stroke="black" points="825.47,-351.2 825.47,-382 1216.9,-382 1216.9,-351.2 825.47,-351.2"/>
<text text-anchor="start" x="832.47" y="-363.4" font-family="Arial" font-size="14.00">is_linimetric_ruler </text>
<text text-anchor="start" x="945.28" y="-363.4" font-family="Arial" font-size="14.00" fill="#666666">[boolean]</text>
<polygon fill="none" stroke="black" points="825.47,-320.4 825.47,-351.2 1216.9,-351.2 1216.9,-320.4 825.47,-320.4"/>
<text text-anchor="start" x="832.47" y="-332.6" font-family="Arial" font-size="14.00">last_update_variables_date </text>
<text text-anchor="start" x="1007.6" y="-332.6" font-family="Arial" font-size="14.00" fill="#666666">[timestamp(6) without time zone]</text>
<polygon fill="none" stroke="black" points="825.47,-289.6 825.47,-320.4 1216.9,-320.4 1216.9,-289.6 825.47,-289.6"/>
<text text-anchor="start" x="832.47" y="-301.8" font-family="Arial" font-size="14.00">latitude </text>
<text text-anchor="start" x="881.5" y="-301.8" font-family="Arial" font-size="14.00" fill="#666666">[double precision]</text>
<polygon fill="none" stroke="black" points="825.47,-258.8 825.47,-289.6 1216.9,-289.6 1216.9,-258.8 825.47,-258.8"/>
<text text-anchor="start" x="832.47" y="-271" font-family="Arial" font-size="14.00">linimetric_ruler_code </text>
<text text-anchor="start" x="965.52" y="-271" font-family="Arial" font-size="14.00" fill="#666666">[bigint]</text>
<polygon fill="none" stroke="black" points="825.47,-228 825.47,-258.8 1216.9,-258.8 1216.9,-228 825.47,-228"/>
<text text-anchor="start" x="832.47" y="-240.2" font-family="Arial" font-size="14.00">location </text>
<text text-anchor="start" x="884.61" y="-240.2" font-family="Arial" font-size="14.00" fill="#666666">[varchar(255)]</text>
<polygon fill="none" stroke="black" points="825.47,-197.2 825.47,-228 1216.9,-228 1216.9,-197.2 825.47,-197.2"/>
<text text-anchor="start" x="832.47" y="-209.4" font-family="Arial" font-size="14.00">longitude </text>
<text text-anchor="start" x="893.19" y="-209.4" font-family="Arial" font-size="14.00" fill="#666666">[double precision]</text>
<polygon fill="none" stroke="black" points="825.47,-166.4 825.47,-197.2 1216.9,-197.2 1216.9,-166.4 825.47,-166.4"/>
<text text-anchor="start" x="832.47" y="-178.6" font-family="Arial" font-size="14.00">name </text>
<text text-anchor="start" x="871.38" y="-178.6" font-family="Arial" font-size="14.00" fill="#666666">[varchar(255)]</text>
<polygon fill="none" stroke="black" points="825.47,-135.6 825.47,-166.4 1216.9,-166.4 1216.9,-135.6 825.47,-135.6"/>
<text text-anchor="start" x="832.47" y="-147.8" font-family="Arial" font-size="14.00">no_limit </text>
<text text-anchor="start" x="884.6" y="-147.8" font-family="Arial" font-size="14.00" fill="#666666">[boolean]</text>
<polygon fill="none" stroke="black" points="825.47,-104.8 825.47,-135.6 1216.9,-135.6 1216.9,-104.8 825.47,-104.8"/>
<text text-anchor="start" x="832.47" y="-117" font-family="Arial" font-size="14.00">dam_id </text>
<text text-anchor="start" x="882.28" y="-117" font-family="Arial" font-size="14.00" fill="#666666">[bigint]</text>
<polygon fill="none" stroke="black" points="825.47,-74 825.47,-104.8 1216.9,-104.8 1216.9,-74 825.47,-74"/>
<text text-anchor="start" x="832.47" y="-86.2" font-family="Arial" font-size="14.00">instrument_type_id </text>
<text text-anchor="start" x="954.65" y="-86.2" font-family="Arial" font-size="14.00" fill="#666666">[bigint]</text>
<polygon fill="none" stroke="black" points="825.47,-43.2 825.47,-74 1216.9,-74 1216.9,-43.2 825.47,-43.2"/>
<text text-anchor="start" x="832.47" y="-55.4" font-family="Arial" font-size="14.00">section_id </text>
<text text-anchor="start" x="899.4" y="-55.4" font-family="Arial" font-size="14.00" fill="#666666">[bigint]</text>
</g>
<!-- public.instrument_graph_customization_properties&#45;&gt;public.instrument -->
<g id="edge3" class="edge">
<title>public.instrument_graph_customization_properties:instrument_id&#45;&gt;public.instrument:id</title>
<path fill="none" stroke="black" d="M965.17,-773.17C909.43,-763.35 933.75,-668.98 976.23,-620 1047.09,-538.29 1145.87,-665.56 1216.9,-584 1244.39,-552.43 1259.76,-489.8 1217.9,-489.8"/>
<polygon fill="black" stroke="black" points="964.93,-773.15 974.53,-778.46 970.25,-773.59 974.56,-773.94 974.56,-773.94 974.56,-773.94 970.25,-773.59 975.27,-769.49 964.93,-773.15"/>
<text text-anchor="start" x="695.39" y="-784" font-family="Arial" font-size="10.00">FOREIGN KEY (instrument_id) REFERENCES instrument(id)</text>
</g>
<!-- public.output -->
<g id="node5" class="node">
<title>public.output</title>
<polygon fill="#efefef" stroke="none" points="1321.19,-397.4 1321.19,-433 1555.17,-433 1555.17,-397.4 1321.19,-397.4"/>
<polygon fill="none" stroke="black" points="1321.19,-397.4 1321.19,-433 1555.17,-433 1555.17,-397.4 1321.19,-397.4"/>
<text text-anchor="start" x="1328.19" y="-410.8" font-family="Arial Bold" font-size="18.00">public.output</text>
<text text-anchor="start" x="1423.68" y="-410.8" font-family="Arial" font-size="14.00">    </text>
<text text-anchor="start" x="1454.8" y="-410.8" font-family="Arial" font-size="14.00" fill="#666666">[BASE TABLE]</text>
<polygon fill="none" stroke="black" points="1321.19,-366.6 1321.19,-397.4 1555.17,-397.4 1555.17,-366.6 1321.19,-366.6"/>
<text text-anchor="start" x="1328.19" y="-378.8" font-family="Arial" font-size="14.00">id </text>
<text text-anchor="start" x="1342.98" y="-378.8" font-family="Arial" font-size="14.00" fill="#666666">[bigint]</text>
<polygon fill="none" stroke="black" points="1321.19,-335.8 1321.19,-366.6 1555.17,-366.6 1555.17,-335.8 1321.19,-335.8"/>
<text text-anchor="start" x="1328.19" y="-348" font-family="Arial" font-size="14.00">acronym </text>
<text text-anchor="start" x="1385.76" y="-348" font-family="Arial" font-size="14.00" fill="#666666">[varchar(255)]</text>
<polygon fill="none" stroke="black" points="1321.19,-305 1321.19,-335.8 1555.17,-335.8 1555.17,-305 1321.19,-305"/>
<text text-anchor="start" x="1328.19" y="-317.2" font-family="Arial" font-size="14.00">active </text>
<text text-anchor="start" x="1368.65" y="-317.2" font-family="Arial" font-size="14.00" fill="#666666">[boolean]</text>
<polygon fill="none" stroke="black" points="1321.19,-274.2 1321.19,-305 1555.17,-305 1555.17,-274.2 1321.19,-274.2"/>
<text text-anchor="start" x="1328.19" y="-286.4" font-family="Arial" font-size="14.00">equation </text>
<text text-anchor="start" x="1385.8" y="-286.4" font-family="Arial" font-size="14.00" fill="#666666">[text]</text>
<polygon fill="none" stroke="black" points="1321.19,-243.4 1321.19,-274.2 1555.17,-274.2 1555.17,-243.4 1321.19,-243.4"/>
<text text-anchor="start" x="1328.19" y="-255.6" font-family="Arial" font-size="14.00">name </text>
<text text-anchor="start" x="1367.1" y="-255.6" font-family="Arial" font-size="14.00" fill="#666666">[varchar(255)]</text>
<polygon fill="none" stroke="black" points="1321.19,-212.6 1321.19,-243.4 1555.17,-243.4 1555.17,-212.6 1321.19,-212.6"/>
<text text-anchor="start" x="1328.19" y="-224.8" font-family="Arial" font-size="14.00">precision </text>
<text text-anchor="start" x="1388.11" y="-224.8" font-family="Arial" font-size="14.00" fill="#666666">[integer]</text>
<polygon fill="none" stroke="black" points="1321.19,-181.8 1321.19,-212.6 1555.17,-212.6 1555.17,-181.8 1321.19,-181.8"/>
<text text-anchor="start" x="1328.19" y="-194" font-family="Arial" font-size="14.00">instrument_id </text>
<text text-anchor="start" x="1416.12" y="-194" font-family="Arial" font-size="14.00" fill="#666666">[bigint]</text>
<polygon fill="none" stroke="black" points="1321.19,-151 1321.19,-181.8 1555.17,-181.8 1555.17,-151 1321.19,-151"/>
<text text-anchor="start" x="1328.19" y="-163.2" font-family="Arial" font-size="14.00">measurement_unit_id </text>
<text text-anchor="start" x="1466.72" y="-163.2" font-family="Arial" font-size="14.00" fill="#666666">[bigint]</text>
</g>
<!-- public.instrument_graph_customization_properties&#45;&gt;public.output -->
<g id="edge4" class="edge">
<title>public.instrument_graph_customization_properties:output_id&#45;&gt;public.output:id</title>
<path fill="none" stroke="black" d="M1493.42,-742.15C1533.28,-733.01 1503.12,-666.38 1482.14,-620 1442.6,-532.6 1360.84,-563.55 1321.19,-476.2 1303.89,-438.07 1278.32,-382 1320.19,-382"/>
<polygon fill="black" stroke="black" points="1493.42,-742.15 1483.01,-738.69 1488.11,-742.69 1483.8,-743.13 1483.8,-743.13 1483.8,-743.13 1488.11,-742.69 1483.93,-747.64 1493.42,-742.15"/>
<text text-anchor="start" x="1490.14" y="-753.2" font-family="Arial" font-size="10.00">FOREIGN KEY (output_id) REFERENCES output(id)</text>
</g>
<!-- public.instrument_graph_pattern -->
<g id="node6" class="node">
<title>public.instrument_graph_pattern</title>
<polygon fill="#efefef" stroke="none" points="1659.22,-335.8 1659.22,-371.4 2033.15,-371.4 2033.15,-335.8 1659.22,-335.8"/>
<polygon fill="none" stroke="black" points="1659.22,-335.8 1659.22,-371.4 2033.15,-371.4 2033.15,-335.8 1659.22,-335.8"/>
<text text-anchor="start" x="1666.22" y="-349.2" font-family="Arial Bold" font-size="18.00">public.instrument_graph_pattern</text>
<text text-anchor="start" x="1901.66" y="-349.2" font-family="Arial" font-size="14.00">    </text>
<text text-anchor="start" x="1932.78" y="-349.2" font-family="Arial" font-size="14.00" fill="#666666">[BASE TABLE]</text>
<polygon fill="none" stroke="black" points="1659.22,-305 1659.22,-335.8 2033.15,-335.8 2033.15,-305 1659.22,-305"/>
<text text-anchor="start" x="1666.22" y="-317.2" font-family="Arial" font-size="14.00">id </text>
<text text-anchor="start" x="1681" y="-317.2" font-family="Arial" font-size="14.00" fill="#666666">[bigint]</text>
<polygon fill="none" stroke="black" points="1659.22,-274.2 1659.22,-305 2033.15,-305 2033.15,-274.2 1659.22,-274.2"/>
<text text-anchor="start" x="1666.22" y="-286.4" font-family="Arial" font-size="14.00">name </text>
<text text-anchor="start" x="1705.13" y="-286.4" font-family="Arial" font-size="14.00" fill="#666666">[varchar(255)]</text>
<polygon fill="none" stroke="black" points="1659.22,-243.4 1659.22,-274.2 2033.15,-274.2 2033.15,-243.4 1659.22,-243.4"/>
<text text-anchor="start" x="1666.22" y="-255.6" font-family="Arial" font-size="14.00">folder_id </text>
<text text-anchor="start" x="1723.81" y="-255.6" font-family="Arial" font-size="14.00" fill="#666666">[bigint]</text>
<polygon fill="none" stroke="black" points="1659.22,-212.6 1659.22,-243.4 2033.15,-243.4 2033.15,-212.6 1659.22,-212.6"/>
<text text-anchor="start" x="1666.22" y="-224.8" font-family="Arial" font-size="14.00">instrument_id </text>
<text text-anchor="start" x="1754.15" y="-224.8" font-family="Arial" font-size="14.00" fill="#666666">[bigint]</text>
</g>
<!-- public.instrument_graph_customization_properties&#45;&gt;public.instrument_graph_pattern -->
<g id="edge5" class="edge">
<title>public.instrument_graph_customization_properties:pattern_id&#45;&gt;public.instrument_graph_pattern:id</title>
<path fill="none" stroke="black" d="M1493.41,-712.05C1563.27,-707.16 1572.21,-651.23 1607.18,-584 1634.72,-531.07 1598.55,-320.4 1658.22,-320.4"/>
<polygon fill="black" stroke="black" points="1493.47,-712.05 1483.32,-707.89 1488.13,-712.23 1483.81,-712.38 1483.81,-712.38 1483.81,-712.38 1488.13,-712.23 1483.62,-716.89 1493.47,-712.05"/>
<text text-anchor="start" x="1490.14" y="-722.4" font-family="Arial" font-size="10.00">FOREIGN KEY (pattern_id) REFERENCES instrument_graph_pattern(id)</text>
</g>
<!-- public.statistical_limit -->
<g id="node7" class="node">
<title>public.statistical_limit</title>
<polygon fill="#efefef" stroke="none" points="2137.7,-335.8 2137.7,-371.4 2436.67,-371.4 2436.67,-335.8 2137.7,-335.8"/>
<polygon fill="none" stroke="black" points="2137.7,-335.8 2137.7,-371.4 2436.67,-371.4 2436.67,-335.8 2137.7,-335.8"/>
<text text-anchor="start" x="2144.7" y="-349.2" font-family="Arial Bold" font-size="18.00">public.statistical_limit</text>
<text text-anchor="start" x="2305.18" y="-349.2" font-family="Arial" font-size="14.00">    </text>
<text text-anchor="start" x="2336.3" y="-349.2" font-family="Arial" font-size="14.00" fill="#666666">[BASE TABLE]</text>
<polygon fill="none" stroke="black" points="2137.7,-305 2137.7,-335.8 2436.67,-335.8 2436.67,-305 2137.7,-305"/>
<text text-anchor="start" x="2144.7" y="-317.2" font-family="Arial" font-size="14.00">id </text>
<text text-anchor="start" x="2159.48" y="-317.2" font-family="Arial" font-size="14.00" fill="#666666">[bigint]</text>
<polygon fill="none" stroke="black" points="2137.7,-274.2 2137.7,-305 2436.67,-305 2436.67,-274.2 2137.7,-274.2"/>
<text text-anchor="start" x="2144.7" y="-286.4" font-family="Arial" font-size="14.00">lower_value </text>
<text text-anchor="start" x="2223.3" y="-286.4" font-family="Arial" font-size="14.00" fill="#666666">[double precision]</text>
<polygon fill="none" stroke="black" points="2137.7,-243.4 2137.7,-274.2 2436.67,-274.2 2436.67,-243.4 2137.7,-243.4"/>
<text text-anchor="start" x="2144.7" y="-255.6" font-family="Arial" font-size="14.00">upper_value </text>
<text text-anchor="start" x="2225.65" y="-255.6" font-family="Arial" font-size="14.00" fill="#666666">[double precision]</text>
<polygon fill="none" stroke="black" points="2137.7,-212.6 2137.7,-243.4 2436.67,-243.4 2436.67,-212.6 2137.7,-212.6"/>
<text text-anchor="start" x="2144.7" y="-224.8" font-family="Arial" font-size="14.00">output_id </text>
<text text-anchor="start" x="2206.19" y="-224.8" font-family="Arial" font-size="14.00" fill="#666666">[bigint]</text>
</g>
<!-- public.instrument_graph_customization_properties&#45;&gt;public.statistical_limit -->
<g id="edge6" class="edge">
<title>public.instrument_graph_customization_properties:statistical_limit_id&#45;&gt;public.statistical_limit:id</title>
<path fill="none" stroke="black" d="M1493.47,-681.59C1636.53,-681.38 1990.19,-675.98 2085.18,-584 2170.94,-500.96 2017.33,-320.4 2136.7,-320.4"/>
<polygon fill="black" stroke="black" points="1493.47,-681.59 1483.47,-677.1 1488.14,-681.6 1483.81,-681.6 1483.81,-681.6 1483.81,-681.6 1488.14,-681.6 1483.47,-686.1 1493.47,-681.59"/>
<text text-anchor="start" x="1490.14" y="-691.6" font-family="Arial" font-size="10.00">FOREIGN KEY (statistical_limit_id) REFERENCES statistical_limit(id)</text>
</g>
</g>
</svg>
