<?xml version="1.0" encoding="UTF-8" standalone="no"?>
<!DOCTYPE svg PUBLIC "-//W3C//DTD SVG 1.1//EN"
 "http://www.w3.org/Graphics/SVG/1.1/DTD/svg11.dtd">
<!-- Generated by graphviz version 12.1.2 (20240928.0832)
 -->
<!-- Title: public.verification_codes Pages: 1 -->
<svg width="456pt" height="818pt"
 viewBox="0.00 0.00 455.88 817.60" xmlns="http://www.w3.org/2000/svg" xmlns:xlink="http://www.w3.org/1999/xlink">
<g id="graph0" class="graph" transform="scale(1 1) rotate(0) translate(4 813.6)">
<title>public.verification_codes</title>
<polygon fill="white" stroke="none" points="-4,4 -4,-813.6 451.88,-813.6 451.88,4 -4,4"/>
<!-- public.verification_codes -->
<g id="node1" class="node">
<title>public.verification_codes</title>
<polygon fill="#efefef" stroke="none" points="76.92,-727.8 76.92,-763.4 397.84,-763.4 397.84,-727.8 76.92,-727.8"/>
<polygon fill="none" stroke="black" points="76.92,-727.8 76.92,-763.4 397.84,-763.4 397.84,-727.8 76.92,-727.8"/>
<text text-anchor="start" x="83.92" y="-741.2" font-family="Arial Bold" font-size="18.00">public.verification_codes</text>
<text text-anchor="start" x="266.35" y="-741.2" font-family="Arial" font-size="14.00">    </text>
<text text-anchor="start" x="297.47" y="-741.2" font-family="Arial" font-size="14.00" fill="#666666">[BASE TABLE]</text>
<polygon fill="none" stroke="black" points="76.92,-697 76.92,-727.8 397.84,-727.8 397.84,-697 76.92,-697"/>
<text text-anchor="start" x="83.92" y="-709.2" font-family="Arial" font-size="14.00">id </text>
<text text-anchor="start" x="98.7" y="-709.2" font-family="Arial" font-size="14.00" fill="#666666">[bigint]</text>
<polygon fill="none" stroke="black" points="76.92,-666.2 76.92,-697 397.84,-697 397.84,-666.2 76.92,-666.2"/>
<text text-anchor="start" x="83.92" y="-678.4" font-family="Arial" font-size="14.00">code </text>
<text text-anchor="start" x="118.17" y="-678.4" font-family="Arial" font-size="14.00" fill="#666666">[varchar(255)]</text>
<polygon fill="none" stroke="black" points="76.92,-635.4 76.92,-666.2 397.84,-666.2 397.84,-635.4 76.92,-635.4"/>
<text text-anchor="start" x="83.92" y="-647.6" font-family="Arial" font-size="14.00">expiry_date </text>
<text text-anchor="start" x="160.19" y="-647.6" font-family="Arial" font-size="14.00" fill="#666666">[timestamp(6) without time zone]</text>
<polygon fill="none" stroke="black" points="76.92,-604.6 76.92,-635.4 397.84,-635.4 397.84,-604.6 76.92,-604.6"/>
<text text-anchor="start" x="83.92" y="-616.8" font-family="Arial" font-size="14.00">used </text>
<text text-anchor="start" x="118.17" y="-616.8" font-family="Arial" font-size="14.00" fill="#666666">[boolean]</text>
<polygon fill="none" stroke="black" points="76.92,-573.8 76.92,-604.6 397.84,-604.6 397.84,-573.8 76.92,-573.8"/>
<text text-anchor="start" x="83.92" y="-586" font-family="Arial" font-size="14.00">user_id </text>
<text text-anchor="start" x="133.72" y="-586" font-family="Arial" font-size="14.00" fill="#666666">[bigint]</text>
<polygon fill="none" stroke="black" stroke-width="3" points="75.42,-572.3 75.42,-764.9 399.34,-764.9 399.34,-572.3 75.42,-572.3"/>
</g>
<!-- public.users -->
<g id="node2" class="node">
<title>public.users</title>
<polygon fill="#efefef" stroke="none" points="70.08,-412.8 70.08,-448.4 404.68,-448.4 404.68,-412.8 70.08,-412.8"/>
<polygon fill="none" stroke="black" points="70.08,-412.8 70.08,-448.4 404.68,-448.4 404.68,-412.8 70.08,-412.8"/>
<text text-anchor="start" x="131.89" y="-426.2" font-family="Arial Bold" font-size="18.00">public.users</text>
<text text-anchor="start" x="218.38" y="-426.2" font-family="Arial" font-size="14.00">    </text>
<text text-anchor="start" x="249.49" y="-426.2" font-family="Arial" font-size="14.00" fill="#666666">[BASE TABLE]</text>
<polygon fill="none" stroke="black" points="70.08,-382 70.08,-412.8 404.68,-412.8 404.68,-382 70.08,-382"/>
<text text-anchor="start" x="77.08" y="-394.2" font-family="Arial" font-size="14.00">id </text>
<text text-anchor="start" x="91.87" y="-394.2" font-family="Arial" font-size="14.00" fill="#666666">[bigint]</text>
<polygon fill="none" stroke="black" points="70.08,-351.2 70.08,-382 404.68,-382 404.68,-351.2 70.08,-351.2"/>
<text text-anchor="start" x="77.08" y="-363.4" font-family="Arial" font-size="14.00">email </text>
<text text-anchor="start" x="114.42" y="-363.4" font-family="Arial" font-size="14.00" fill="#666666">[varchar(255)]</text>
<polygon fill="none" stroke="black" points="70.08,-320.4 70.08,-351.2 404.68,-351.2 404.68,-320.4 70.08,-320.4"/>
<text text-anchor="start" x="77.08" y="-332.6" font-family="Arial" font-size="14.00">is_first_access </text>
<text text-anchor="start" x="172.78" y="-332.6" font-family="Arial" font-size="14.00" fill="#666666">[boolean]</text>
<polygon fill="none" stroke="black" points="70.08,-289.6 70.08,-320.4 404.68,-320.4 404.68,-289.6 70.08,-289.6"/>
<text text-anchor="start" x="77.08" y="-301.8" font-family="Arial" font-size="14.00">last_token </text>
<text text-anchor="start" x="144.79" y="-301.8" font-family="Arial" font-size="14.00" fill="#666666">[text]</text>
<polygon fill="none" stroke="black" points="70.08,-258.8 70.08,-289.6 404.68,-289.6 404.68,-258.8 70.08,-258.8"/>
<text text-anchor="start" x="77.08" y="-271" font-family="Arial" font-size="14.00">name </text>
<text text-anchor="start" x="115.99" y="-271" font-family="Arial" font-size="14.00" fill="#666666">[varchar(255)]</text>
<polygon fill="none" stroke="black" points="70.08,-228 70.08,-258.8 404.68,-258.8 404.68,-228 70.08,-228"/>
<text text-anchor="start" x="77.08" y="-240.2" font-family="Arial" font-size="14.00">password </text>
<text text-anchor="start" x="140.89" y="-240.2" font-family="Arial" font-size="14.00" fill="#666666">[varchar(255)]</text>
<polygon fill="none" stroke="black" points="70.08,-197.2 70.08,-228 404.68,-228 404.68,-197.2 70.08,-197.2"/>
<text text-anchor="start" x="77.08" y="-209.4" font-family="Arial" font-size="14.00">phone </text>
<text text-anchor="start" x="119.9" y="-209.4" font-family="Arial" font-size="14.00" fill="#666666">[varchar(11)]</text>
<polygon fill="none" stroke="black" points="70.08,-166.4 70.08,-197.2 404.68,-197.2 404.68,-166.4 70.08,-166.4"/>
<text text-anchor="start" x="77.08" y="-178.6" font-family="Arial" font-size="14.00">token_expiry_date </text>
<text text-anchor="start" x="195.38" y="-178.6" font-family="Arial" font-size="14.00" fill="#666666">[timestamp(6) without time zone]</text>
<polygon fill="none" stroke="black" points="70.08,-135.6 70.08,-166.4 404.68,-166.4 404.68,-135.6 70.08,-135.6"/>
<text text-anchor="start" x="77.08" y="-147.8" font-family="Arial" font-size="14.00">created_by_id </text>
<text text-anchor="start" x="168.92" y="-147.8" font-family="Arial" font-size="14.00" fill="#666666">[bigint]</text>
<polygon fill="none" stroke="black" points="70.08,-104.8 70.08,-135.6 404.68,-135.6 404.68,-104.8 70.08,-104.8"/>
<text text-anchor="start" x="77.08" y="-117" font-family="Arial" font-size="14.00">role_id </text>
<text text-anchor="start" x="123" y="-117" font-family="Arial" font-size="14.00" fill="#666666">[bigint]</text>
<polygon fill="none" stroke="black" points="70.08,-74 70.08,-104.8 404.68,-104.8 404.68,-74 70.08,-74"/>
<text text-anchor="start" x="77.08" y="-86.2" font-family="Arial" font-size="14.00">sex_id </text>
<text text-anchor="start" x="121.44" y="-86.2" font-family="Arial" font-size="14.00" fill="#666666">[bigint]</text>
<polygon fill="none" stroke="black" points="70.08,-43.2 70.08,-74 404.68,-74 404.68,-43.2 70.08,-43.2"/>
<text text-anchor="start" x="77.08" y="-55.4" font-family="Arial" font-size="14.00">status_id </text>
<text text-anchor="start" x="137" y="-55.4" font-family="Arial" font-size="14.00" fill="#666666">[bigint]</text>
</g>
<!-- public.verification_codes&#45;&gt;public.users -->
<g id="edge1" class="edge">
<title>public.verification_codes:user_id&#45;&gt;public.users:id</title>
<path fill="none" stroke="black" d="M238.11,-562.57C248.28,-496.27 362.43,-558.28 404.68,-491.6 427.09,-456.23 447.55,-397.4 405.68,-397.4"/>
<polygon fill="black" stroke="black" points="238.11,-562.49 232.91,-572.15 237.73,-567.81 237.43,-572.13 237.43,-572.13 237.43,-572.13 237.73,-567.81 241.89,-572.79 238.11,-562.49"/>
<text text-anchor="start" x="7" y="-582.8" font-family="Arial" font-size="10.00">FOREIGN KEY (user_id) REFERENCES users(id)</text>
</g>
</g>
</svg>
