<?xml version="1.0" encoding="UTF-8" standalone="no"?>
<!DOCTYPE svg PUBLIC "-//W3C//DTD SVG 1.1//EN"
 "http://www.w3.org/Graphics/SVG/1.1/DTD/svg11.dtd">
<!-- Generated by graphviz version 12.1.2 (20240928.0832)
 -->
<!-- Title: public.user_client Pages: 1 -->
<svg width="786pt" height="818pt"
 viewBox="0.00 0.00 786.14 817.60" xmlns="http://www.w3.org/2000/svg" xmlns:xlink="http://www.w3.org/1999/xlink">
<g id="graph0" class="graph" transform="scale(1 1) rotate(0) translate(4 813.6)">
<title>public.user_client</title>
<polygon fill="white" stroke="none" points="-4,4 -4,-813.6 782.14,-813.6 782.14,4 -4,4"/>
<!-- public.user_client -->
<g id="node1" class="node">
<title>public.user_client</title>
<polygon fill="#efefef" stroke="none" points="270.02,-727.8 270.02,-763.4 536.97,-763.4 536.97,-727.8 270.02,-727.8"/>
<polygon fill="none" stroke="black" points="270.02,-727.8 270.02,-763.4 536.97,-763.4 536.97,-727.8 270.02,-727.8"/>
<text text-anchor="start" x="277.02" y="-741.2" font-family="Arial Bold" font-size="18.00">public.user_client</text>
<text text-anchor="start" x="405.49" y="-741.2" font-family="Arial" font-size="14.00">    </text>
<text text-anchor="start" x="436.6" y="-741.2" font-family="Arial" font-size="14.00" fill="#666666">[BASE TABLE]</text>
<polygon fill="none" stroke="black" points="270.02,-697 270.02,-727.8 536.97,-727.8 536.97,-697 270.02,-697"/>
<text text-anchor="start" x="277.02" y="-709.2" font-family="Arial" font-size="14.00">user_id </text>
<text text-anchor="start" x="326.83" y="-709.2" font-family="Arial" font-size="14.00" fill="#666666">[bigint]</text>
<polygon fill="none" stroke="black" points="270.02,-666.2 270.02,-697 536.97,-697 536.97,-666.2 270.02,-666.2"/>
<text text-anchor="start" x="277.02" y="-678.4" font-family="Arial" font-size="14.00">client_id </text>
<text text-anchor="start" x="332.28" y="-678.4" font-family="Arial" font-size="14.00" fill="#666666">[bigint]</text>
<polygon fill="none" stroke="black" stroke-width="3" points="268.52,-664.7 268.52,-764.9 538.47,-764.9 538.47,-664.7 268.52,-664.7"/>
</g>
<!-- public.users -->
<g id="node2" class="node">
<title>public.users</title>
<polygon fill="#efefef" stroke="none" points="43.2,-459 43.2,-494.6 377.8,-494.6 377.8,-459 43.2,-459"/>
<polygon fill="none" stroke="black" points="43.2,-459 43.2,-494.6 377.8,-494.6 377.8,-459 43.2,-459"/>
<text text-anchor="start" x="105.01" y="-472.4" font-family="Arial Bold" font-size="18.00">public.users</text>
<text text-anchor="start" x="191.5" y="-472.4" font-family="Arial" font-size="14.00">    </text>
<text text-anchor="start" x="222.61" y="-472.4" font-family="Arial" font-size="14.00" fill="#666666">[BASE TABLE]</text>
<polygon fill="none" stroke="black" points="43.2,-428.2 43.2,-459 377.8,-459 377.8,-428.2 43.2,-428.2"/>
<text text-anchor="start" x="50.2" y="-440.4" font-family="Arial" font-size="14.00">id </text>
<text text-anchor="start" x="64.99" y="-440.4" font-family="Arial" font-size="14.00" fill="#666666">[bigint]</text>
<polygon fill="none" stroke="black" points="43.2,-397.4 43.2,-428.2 377.8,-428.2 377.8,-397.4 43.2,-397.4"/>
<text text-anchor="start" x="50.2" y="-409.6" font-family="Arial" font-size="14.00">email </text>
<text text-anchor="start" x="87.54" y="-409.6" font-family="Arial" font-size="14.00" fill="#666666">[varchar(255)]</text>
<polygon fill="none" stroke="black" points="43.2,-366.6 43.2,-397.4 377.8,-397.4 377.8,-366.6 43.2,-366.6"/>
<text text-anchor="start" x="50.2" y="-378.8" font-family="Arial" font-size="14.00">is_first_access </text>
<text text-anchor="start" x="145.9" y="-378.8" font-family="Arial" font-size="14.00" fill="#666666">[boolean]</text>
<polygon fill="none" stroke="black" points="43.2,-335.8 43.2,-366.6 377.8,-366.6 377.8,-335.8 43.2,-335.8"/>
<text text-anchor="start" x="50.2" y="-348" font-family="Arial" font-size="14.00">last_token </text>
<text text-anchor="start" x="117.91" y="-348" font-family="Arial" font-size="14.00" fill="#666666">[text]</text>
<polygon fill="none" stroke="black" points="43.2,-305 43.2,-335.8 377.8,-335.8 377.8,-305 43.2,-305"/>
<text text-anchor="start" x="50.2" y="-317.2" font-family="Arial" font-size="14.00">name </text>
<text text-anchor="start" x="89.11" y="-317.2" font-family="Arial" font-size="14.00" fill="#666666">[varchar(255)]</text>
<polygon fill="none" stroke="black" points="43.2,-274.2 43.2,-305 377.8,-305 377.8,-274.2 43.2,-274.2"/>
<text text-anchor="start" x="50.2" y="-286.4" font-family="Arial" font-size="14.00">password </text>
<text text-anchor="start" x="114.01" y="-286.4" font-family="Arial" font-size="14.00" fill="#666666">[varchar(255)]</text>
<polygon fill="none" stroke="black" points="43.2,-243.4 43.2,-274.2 377.8,-274.2 377.8,-243.4 43.2,-243.4"/>
<text text-anchor="start" x="50.2" y="-255.6" font-family="Arial" font-size="14.00">phone </text>
<text text-anchor="start" x="93.02" y="-255.6" font-family="Arial" font-size="14.00" fill="#666666">[varchar(11)]</text>
<polygon fill="none" stroke="black" points="43.2,-212.6 43.2,-243.4 377.8,-243.4 377.8,-212.6 43.2,-212.6"/>
<text text-anchor="start" x="50.2" y="-224.8" font-family="Arial" font-size="14.00">token_expiry_date </text>
<text text-anchor="start" x="168.5" y="-224.8" font-family="Arial" font-size="14.00" fill="#666666">[timestamp(6) without time zone]</text>
<polygon fill="none" stroke="black" points="43.2,-181.8 43.2,-212.6 377.8,-212.6 377.8,-181.8 43.2,-181.8"/>
<text text-anchor="start" x="50.2" y="-194" font-family="Arial" font-size="14.00">created_by_id </text>
<text text-anchor="start" x="142.04" y="-194" font-family="Arial" font-size="14.00" fill="#666666">[bigint]</text>
<polygon fill="none" stroke="black" points="43.2,-151 43.2,-181.8 377.8,-181.8 377.8,-151 43.2,-151"/>
<text text-anchor="start" x="50.2" y="-163.2" font-family="Arial" font-size="14.00">role_id </text>
<text text-anchor="start" x="96.12" y="-163.2" font-family="Arial" font-size="14.00" fill="#666666">[bigint]</text>
<polygon fill="none" stroke="black" points="43.2,-120.2 43.2,-151 377.8,-151 377.8,-120.2 43.2,-120.2"/>
<text text-anchor="start" x="50.2" y="-132.4" font-family="Arial" font-size="14.00">sex_id </text>
<text text-anchor="start" x="94.56" y="-132.4" font-family="Arial" font-size="14.00" fill="#666666">[bigint]</text>
<polygon fill="none" stroke="black" points="43.2,-89.4 43.2,-120.2 377.8,-120.2 377.8,-89.4 43.2,-89.4"/>
<text text-anchor="start" x="50.2" y="-101.6" font-family="Arial" font-size="14.00">status_id </text>
<text text-anchor="start" x="110.12" y="-101.6" font-family="Arial" font-size="14.00" fill="#666666">[bigint]</text>
</g>
<!-- public.user_client&#45;&gt;public.users -->
<g id="edge1" class="edge">
<title>public.user_client:user_id&#45;&gt;public.users:id</title>
<path fill="none" stroke="black" d="M258.78,-710.88C232.52,-701.7 253.41,-653.12 270.02,-620 297.04,-566.16 350.79,-591.65 377.8,-537.8 396.57,-500.37 420.67,-443.6 378.8,-443.6"/>
<polygon fill="black" stroke="black" points="258.8,-710.88 268.03,-716.8 264.08,-711.66 268.36,-712.3 268.36,-712.3 268.36,-712.3 264.08,-711.66 269.36,-707.9 258.8,-710.88"/>
<text text-anchor="start" x="38.65" y="-722.4" font-family="Arial" font-size="10.00">FOREIGN KEY (user_id) REFERENCES users(id)</text>
</g>
<!-- public.client -->
<g id="node3" class="node">
<title>public.client</title>
<polygon fill="#efefef" stroke="none" points="482.52,-505.2 482.52,-540.8 710.48,-540.8 710.48,-505.2 482.52,-505.2"/>
<polygon fill="none" stroke="black" points="482.52,-505.2 482.52,-540.8 710.48,-540.8 710.48,-505.2 482.52,-505.2"/>
<text text-anchor="start" x="489.52" y="-518.6" font-family="Arial Bold" font-size="18.00">public.client</text>
<text text-anchor="start" x="578.99" y="-518.6" font-family="Arial" font-size="14.00">    </text>
<text text-anchor="start" x="610.11" y="-518.6" font-family="Arial" font-size="14.00" fill="#666666">[BASE TABLE]</text>
<polygon fill="none" stroke="black" points="482.52,-474.4 482.52,-505.2 710.48,-505.2 710.48,-474.4 482.52,-474.4"/>
<text text-anchor="start" x="489.52" y="-486.6" font-family="Arial" font-size="14.00">id </text>
<text text-anchor="start" x="504.3" y="-486.6" font-family="Arial" font-size="14.00" fill="#666666">[bigint]</text>
<polygon fill="none" stroke="black" points="482.52,-443.6 482.52,-474.4 710.48,-474.4 710.48,-443.6 482.52,-443.6"/>
<text text-anchor="start" x="489.52" y="-455.8" font-family="Arial" font-size="14.00">city </text>
<text text-anchor="start" x="514.41" y="-455.8" font-family="Arial" font-size="14.00" fill="#666666">[varchar(100)]</text>
<polygon fill="none" stroke="black" points="482.52,-412.8 482.52,-443.6 710.48,-443.6 710.48,-412.8 482.52,-412.8"/>
<text text-anchor="start" x="489.52" y="-425" font-family="Arial" font-size="14.00">complement </text>
<text text-anchor="start" x="569.66" y="-425" font-family="Arial" font-size="14.00" fill="#666666">[varchar(100)]</text>
<polygon fill="none" stroke="black" points="482.52,-382 482.52,-412.8 710.48,-412.8 710.48,-382 482.52,-382"/>
<text text-anchor="start" x="489.52" y="-394.2" font-family="Arial" font-size="14.00">email </text>
<text text-anchor="start" x="526.86" y="-394.2" font-family="Arial" font-size="14.00" fill="#666666">[varchar(255)]</text>
<polygon fill="none" stroke="black" points="482.52,-351.2 482.52,-382 710.48,-382 710.48,-351.2 482.52,-351.2"/>
<text text-anchor="start" x="489.52" y="-363.4" font-family="Arial" font-size="14.00">email_contact </text>
<text text-anchor="start" x="579.79" y="-363.4" font-family="Arial" font-size="14.00" fill="#666666">[varchar(150)]</text>
<polygon fill="none" stroke="black" points="482.52,-320.4 482.52,-351.2 710.48,-351.2 710.48,-320.4 482.52,-320.4"/>
<text text-anchor="start" x="489.52" y="-332.6" font-family="Arial" font-size="14.00">logo_path </text>
<text text-anchor="start" x="554.91" y="-332.6" font-family="Arial" font-size="14.00" fill="#666666">[varchar(255)]</text>
<polygon fill="none" stroke="black" points="482.52,-289.6 482.52,-320.4 710.48,-320.4 710.48,-289.6 482.52,-289.6"/>
<text text-anchor="start" x="489.52" y="-301.8" font-family="Arial" font-size="14.00">name </text>
<text text-anchor="start" x="528.43" y="-301.8" font-family="Arial" font-size="14.00" fill="#666666">[varchar(255)]</text>
<polygon fill="none" stroke="black" points="482.52,-258.8 482.52,-289.6 710.48,-289.6 710.48,-258.8 482.52,-258.8"/>
<text text-anchor="start" x="489.52" y="-271" font-family="Arial" font-size="14.00">neighborhood </text>
<text text-anchor="start" x="579.04" y="-271" font-family="Arial" font-size="14.00" fill="#666666">[varchar(100)]</text>
<polygon fill="none" stroke="black" points="482.52,-228 482.52,-258.8 710.48,-258.8 710.48,-228 482.52,-228"/>
<text text-anchor="start" x="489.52" y="-240.2" font-family="Arial" font-size="14.00">number_address </text>
<text text-anchor="start" x="598.47" y="-240.2" font-family="Arial" font-size="14.00" fill="#666666">[varchar(10)]</text>
<polygon fill="none" stroke="black" points="482.52,-197.2 482.52,-228 710.48,-228 710.48,-197.2 482.52,-197.2"/>
<text text-anchor="start" x="489.52" y="-209.4" font-family="Arial" font-size="14.00">phone </text>
<text text-anchor="start" x="532.34" y="-209.4" font-family="Arial" font-size="14.00" fill="#666666">[varchar(11)]</text>
<polygon fill="none" stroke="black" points="482.52,-166.4 482.52,-197.2 710.48,-197.2 710.48,-166.4 482.52,-166.4"/>
<text text-anchor="start" x="489.52" y="-178.6" font-family="Arial" font-size="14.00">state </text>
<text text-anchor="start" x="523.76" y="-178.6" font-family="Arial" font-size="14.00" fill="#666666">[varchar(100)]</text>
<polygon fill="none" stroke="black" points="482.52,-135.6 482.52,-166.4 710.48,-166.4 710.48,-135.6 482.52,-135.6"/>
<text text-anchor="start" x="489.52" y="-147.8" font-family="Arial" font-size="14.00">street </text>
<text text-anchor="start" x="528.42" y="-147.8" font-family="Arial" font-size="14.00" fill="#666666">[varchar(255)]</text>
<polygon fill="none" stroke="black" points="482.52,-104.8 482.52,-135.6 710.48,-135.6 710.48,-104.8 482.52,-104.8"/>
<text text-anchor="start" x="489.52" y="-117" font-family="Arial" font-size="14.00">whatsapp_phone </text>
<text text-anchor="start" x="600.06" y="-117" font-family="Arial" font-size="14.00" fill="#666666">[varchar(11)]</text>
<polygon fill="none" stroke="black" points="482.52,-74 482.52,-104.8 710.48,-104.8 710.48,-74 482.52,-74"/>
<text text-anchor="start" x="489.52" y="-86.2" font-family="Arial" font-size="14.00">zip_code </text>
<text text-anchor="start" x="549.45" y="-86.2" font-family="Arial" font-size="14.00" fill="#666666">[varchar(9)]</text>
<polygon fill="none" stroke="black" points="482.52,-43.2 482.52,-74 710.48,-74 710.48,-43.2 482.52,-43.2"/>
<text text-anchor="start" x="489.52" y="-55.4" font-family="Arial" font-size="14.00">status_id </text>
<text text-anchor="start" x="549.44" y="-55.4" font-family="Arial" font-size="14.00" fill="#666666">[bigint]</text>
</g>
<!-- public.user_client&#45;&gt;public.client -->
<g id="edge2" class="edge">
<title>public.user_client:client_id&#45;&gt;public.client:id</title>
<path fill="none" stroke="black" d="M547.86,-679.04C560.65,-670.18 548.08,-640.26 536.97,-620 523.03,-594.56 496.39,-609.48 482.52,-584 462.5,-547.23 439.65,-489.8 481.52,-489.8"/>
<polygon fill="black" stroke="black" points="547.98,-679.01 537.17,-677.16 542.81,-680.35 538.62,-681.43 538.62,-681.43 538.62,-681.43 542.81,-680.35 539.43,-685.87 547.98,-679.01"/>
<text text-anchor="start" x="544.97" y="-691.6" font-family="Arial" font-size="10.00">FOREIGN KEY (client_id) REFERENCES client(id)</text>
</g>
</g>
</svg>
