<?xml version="1.0" encoding="UTF-8" standalone="no"?>
<!DOCTYPE svg PUBLIC "-//W3C//DTD SVG 1.1//EN"
 "http://www.w3.org/Graphics/SVG/1.1/DTD/svg11.dtd">
<!-- Generated by graphviz version 12.1.2 (20240928.0832)
 -->
<!-- Title: public.reservoirs Pages: 1 -->
<svg width="768pt" height="910pt"
 viewBox="0.00 0.00 768.33 910.00" xmlns="http://www.w3.org/2000/svg" xmlns:xlink="http://www.w3.org/1999/xlink">
<g id="graph0" class="graph" transform="scale(1 1) rotate(0) translate(4 906)">
<title>public.reservoirs</title>
<polygon fill="white" stroke="none" points="-4,4 -4,-906 764.33,-906 764.33,4 -4,4"/>
<!-- public.reservoirs -->
<g id="node1" class="node">
<title>public.reservoirs</title>
<polygon fill="#efefef" stroke="none" points="233.38,-820.2 233.38,-855.8 519.72,-855.8 519.72,-820.2 233.38,-820.2"/>
<polygon fill="none" stroke="black" points="233.38,-820.2 233.38,-855.8 519.72,-855.8 519.72,-820.2 233.38,-820.2"/>
<text text-anchor="start" x="254.07" y="-833.6" font-family="Arial Bold" font-size="18.00">public.reservoirs</text>
<text text-anchor="start" x="374.54" y="-833.6" font-family="Arial" font-size="14.00">    </text>
<text text-anchor="start" x="405.65" y="-833.6" font-family="Arial" font-size="14.00" fill="#666666">[BASE TABLE]</text>
<polygon fill="none" stroke="black" points="233.38,-789.4 233.38,-820.2 519.72,-820.2 519.72,-789.4 233.38,-789.4"/>
<text text-anchor="start" x="240.38" y="-801.6" font-family="Arial" font-size="14.00">id </text>
<text text-anchor="start" x="255.17" y="-801.6" font-family="Arial" font-size="14.00" fill="#666666">[bigint]</text>
<polygon fill="none" stroke="black" points="233.38,-758.6 233.38,-789.4 519.72,-789.4 519.72,-758.6 233.38,-758.6"/>
<text text-anchor="start" x="240.38" y="-770.8" font-family="Arial" font-size="14.00">created_at </text>
<text text-anchor="start" x="310.43" y="-770.8" font-family="Arial" font-size="14.00" fill="#666666">[timestamp(6) without time zone]</text>
<polygon fill="none" stroke="black" points="233.38,-727.8 233.38,-758.6 519.72,-758.6 519.72,-727.8 233.38,-727.8"/>
<text text-anchor="start" x="240.38" y="-740" font-family="Arial" font-size="14.00">dam_id </text>
<text text-anchor="start" x="290.19" y="-740" font-family="Arial" font-size="14.00" fill="#666666">[bigint]</text>
<polygon fill="none" stroke="black" points="233.38,-697 233.38,-727.8 519.72,-727.8 519.72,-697 233.38,-697"/>
<text text-anchor="start" x="240.38" y="-709.2" font-family="Arial" font-size="14.00">level_id </text>
<text text-anchor="start" x="291.74" y="-709.2" font-family="Arial" font-size="14.00" fill="#666666">[bigint]</text>
<polygon fill="none" stroke="black" stroke-width="3" points="231.88,-695.5 231.88,-857.3 521.22,-857.3 521.22,-695.5 231.88,-695.5"/>
</g>
<!-- public.dam -->
<g id="node2" class="node">
<title>public.dam</title>
<polygon fill="#efefef" stroke="none" points="89.07,-536 89.07,-571.6 308.04,-571.6 308.04,-536 89.07,-536"/>
<polygon fill="none" stroke="black" points="89.07,-536 89.07,-571.6 308.04,-571.6 308.04,-536 89.07,-536"/>
<text text-anchor="start" x="96.07" y="-549.4" font-family="Arial Bold" font-size="18.00">public.dam</text>
<text text-anchor="start" x="176.55" y="-549.4" font-family="Arial" font-size="14.00">    </text>
<text text-anchor="start" x="207.66" y="-549.4" font-family="Arial" font-size="14.00" fill="#666666">[BASE TABLE]</text>
<polygon fill="none" stroke="black" points="89.07,-505.2 89.07,-536 308.04,-536 308.04,-505.2 89.07,-505.2"/>
<text text-anchor="start" x="96.07" y="-517.4" font-family="Arial" font-size="14.00">id </text>
<text text-anchor="start" x="110.85" y="-517.4" font-family="Arial" font-size="14.00" fill="#666666">[bigint]</text>
<polygon fill="none" stroke="black" points="89.07,-474.4 89.07,-505.2 308.04,-505.2 308.04,-474.4 89.07,-474.4"/>
<text text-anchor="start" x="96.07" y="-486.6" font-family="Arial" font-size="14.00">city </text>
<text text-anchor="start" x="120.96" y="-486.6" font-family="Arial" font-size="14.00" fill="#666666">[varchar(100)]</text>
<polygon fill="none" stroke="black" points="89.07,-443.6 89.07,-474.4 308.04,-474.4 308.04,-443.6 89.07,-443.6"/>
<text text-anchor="start" x="96.07" y="-455.8" font-family="Arial" font-size="14.00">dam_image_path </text>
<text text-anchor="start" x="208.14" y="-455.8" font-family="Arial" font-size="14.00" fill="#666666">[varchar(255)]</text>
<polygon fill="none" stroke="black" points="89.07,-412.8 89.07,-443.6 308.04,-443.6 308.04,-412.8 89.07,-412.8"/>
<text text-anchor="start" x="96.07" y="-425" font-family="Arial" font-size="14.00">latitude </text>
<text text-anchor="start" x="145.1" y="-425" font-family="Arial" font-size="14.00" fill="#666666">[double precision]</text>
<polygon fill="none" stroke="black" points="89.07,-382 89.07,-412.8 308.04,-412.8 308.04,-382 89.07,-382"/>
<text text-anchor="start" x="96.07" y="-394.2" font-family="Arial" font-size="14.00">link_legislation </text>
<text text-anchor="start" x="191.01" y="-394.2" font-family="Arial" font-size="14.00" fill="#666666">[varchar(255)]</text>
<polygon fill="none" stroke="black" points="89.07,-351.2 89.07,-382 308.04,-382 308.04,-351.2 89.07,-351.2"/>
<text text-anchor="start" x="96.07" y="-363.4" font-family="Arial" font-size="14.00">linkpsb </text>
<text text-anchor="start" x="143.53" y="-363.4" font-family="Arial" font-size="14.00" fill="#666666">[varchar(255)]</text>
<polygon fill="none" stroke="black" points="89.07,-320.4 89.07,-351.2 308.04,-351.2 308.04,-320.4 89.07,-320.4"/>
<text text-anchor="start" x="96.07" y="-332.6" font-family="Arial" font-size="14.00">logo_path </text>
<text text-anchor="start" x="161.46" y="-332.6" font-family="Arial" font-size="14.00" fill="#666666">[varchar(255)]</text>
<polygon fill="none" stroke="black" points="89.07,-289.6 89.07,-320.4 308.04,-320.4 308.04,-289.6 89.07,-289.6"/>
<text text-anchor="start" x="96.07" y="-301.8" font-family="Arial" font-size="14.00">longitude </text>
<text text-anchor="start" x="156.78" y="-301.8" font-family="Arial" font-size="14.00" fill="#666666">[double precision]</text>
<polygon fill="none" stroke="black" points="89.07,-258.8 89.07,-289.6 308.04,-289.6 308.04,-258.8 89.07,-258.8"/>
<text text-anchor="start" x="96.07" y="-271" font-family="Arial" font-size="14.00">name </text>
<text text-anchor="start" x="134.98" y="-271" font-family="Arial" font-size="14.00" fill="#666666">[varchar(255)]</text>
<polygon fill="none" stroke="black" points="89.07,-228 89.07,-258.8 308.04,-258.8 308.04,-228 89.07,-228"/>
<text text-anchor="start" x="96.07" y="-240.2" font-family="Arial" font-size="14.00">neighborhood </text>
<text text-anchor="start" x="185.59" y="-240.2" font-family="Arial" font-size="14.00" fill="#666666">[varchar(100)]</text>
<polygon fill="none" stroke="black" points="89.07,-197.2 89.07,-228 308.04,-228 308.04,-197.2 89.07,-197.2"/>
<text text-anchor="start" x="96.07" y="-209.4" font-family="Arial" font-size="14.00">number_address </text>
<text text-anchor="start" x="205.02" y="-209.4" font-family="Arial" font-size="14.00" fill="#666666">[varchar(10)]</text>
<polygon fill="none" stroke="black" points="89.07,-166.4 89.07,-197.2 308.04,-197.2 308.04,-166.4 89.07,-166.4"/>
<text text-anchor="start" x="96.07" y="-178.6" font-family="Arial" font-size="14.00">state </text>
<text text-anchor="start" x="130.31" y="-178.6" font-family="Arial" font-size="14.00" fill="#666666">[varchar(100)]</text>
<polygon fill="none" stroke="black" points="89.07,-135.6 89.07,-166.4 308.04,-166.4 308.04,-135.6 89.07,-135.6"/>
<text text-anchor="start" x="96.07" y="-147.8" font-family="Arial" font-size="14.00">street </text>
<text text-anchor="start" x="134.97" y="-147.8" font-family="Arial" font-size="14.00" fill="#666666">[varchar(255)]</text>
<polygon fill="none" stroke="black" points="89.07,-104.8 89.07,-135.6 308.04,-135.6 308.04,-104.8 89.07,-104.8"/>
<text text-anchor="start" x="96.07" y="-117" font-family="Arial" font-size="14.00">zip_code </text>
<text text-anchor="start" x="156" y="-117" font-family="Arial" font-size="14.00" fill="#666666">[varchar(9)]</text>
<polygon fill="none" stroke="black" points="89.07,-74 89.07,-104.8 308.04,-104.8 308.04,-74 89.07,-74"/>
<text text-anchor="start" x="96.07" y="-86.2" font-family="Arial" font-size="14.00">client_id </text>
<text text-anchor="start" x="151.32" y="-86.2" font-family="Arial" font-size="14.00" fill="#666666">[bigint]</text>
<polygon fill="none" stroke="black" points="89.07,-43.2 89.07,-74 308.04,-74 308.04,-43.2 89.07,-43.2"/>
<text text-anchor="start" x="96.07" y="-55.4" font-family="Arial" font-size="14.00">status_id </text>
<text text-anchor="start" x="155.99" y="-55.4" font-family="Arial" font-size="14.00" fill="#666666">[bigint]</text>
</g>
<!-- public.reservoirs&#45;&gt;public.dam -->
<g id="edge1" class="edge">
<title>public.reservoirs:dam_id&#45;&gt;public.dam:id</title>
<path fill="none" stroke="black" d="M222.39,-741.74C195.08,-732.58 213.42,-682.21 233.38,-650.8 253.14,-619.71 288.28,-645.89 308.04,-614.8 330.49,-579.46 350.91,-520.6 309.04,-520.6"/>
<polygon fill="black" stroke="black" points="222.15,-741.71 231.4,-747.6 227.43,-742.48 231.72,-743.1 231.72,-743.1 231.72,-743.1 227.43,-742.48 232.7,-738.7 222.15,-741.71"/>
<text text-anchor="start" x="7" y="-753.2" font-family="Arial" font-size="10.00">FOREIGN KEY (dam_id) REFERENCES dam(id)</text>
</g>
<!-- public.levels -->
<g id="node3" class="node">
<title>public.levels</title>
<polygon fill="#efefef" stroke="none" points="412.38,-366.6 412.38,-402.2 698.72,-402.2 698.72,-366.6 412.38,-366.6"/>
<polygon fill="none" stroke="black" points="412.38,-366.6 412.38,-402.2 698.72,-402.2 698.72,-366.6 412.38,-366.6"/>
<text text-anchor="start" x="447.57" y="-380" font-family="Arial Bold" font-size="18.00">public.levels</text>
<text text-anchor="start" x="539.04" y="-380" font-family="Arial" font-size="14.00">    </text>
<text text-anchor="start" x="570.16" y="-380" font-family="Arial" font-size="14.00" fill="#666666">[BASE TABLE]</text>
<polygon fill="none" stroke="black" points="412.38,-335.8 412.38,-366.6 698.72,-366.6 698.72,-335.8 412.38,-335.8"/>
<text text-anchor="start" x="419.38" y="-348" font-family="Arial" font-size="14.00">id </text>
<text text-anchor="start" x="434.17" y="-348" font-family="Arial" font-size="14.00" fill="#666666">[bigint]</text>
<polygon fill="none" stroke="black" points="412.38,-305 412.38,-335.8 698.72,-335.8 698.72,-305 412.38,-305"/>
<text text-anchor="start" x="419.38" y="-317.2" font-family="Arial" font-size="14.00">created_at </text>
<text text-anchor="start" x="489.43" y="-317.2" font-family="Arial" font-size="14.00" fill="#666666">[timestamp(6) without time zone]</text>
<polygon fill="none" stroke="black" points="412.38,-274.2 412.38,-305 698.72,-305 698.72,-274.2 412.38,-274.2"/>
<text text-anchor="start" x="419.38" y="-286.4" font-family="Arial" font-size="14.00">name </text>
<text text-anchor="start" x="458.29" y="-286.4" font-family="Arial" font-size="14.00" fill="#666666">[varchar(255)]</text>
<polygon fill="none" stroke="black" points="412.38,-243.4 412.38,-274.2 698.72,-274.2 698.72,-243.4 412.38,-243.4"/>
<text text-anchor="start" x="419.38" y="-255.6" font-family="Arial" font-size="14.00">unit_level </text>
<text text-anchor="start" x="482.42" y="-255.6" font-family="Arial" font-size="14.00" fill="#666666">[varchar(255)]</text>
<polygon fill="none" stroke="black" points="412.38,-212.6 412.38,-243.4 698.72,-243.4 698.72,-212.6 412.38,-212.6"/>
<text text-anchor="start" x="419.38" y="-224.8" font-family="Arial" font-size="14.00">value </text>
<text text-anchor="start" x="456.74" y="-224.8" font-family="Arial" font-size="14.00" fill="#666666">[double precision]</text>
</g>
<!-- public.reservoirs&#45;&gt;public.levels -->
<g id="edge2" class="edge">
<title>public.reservoirs:level_id&#45;&gt;public.levels:id</title>
<path fill="none" stroke="black" d="M531.11,-711.86C668.78,-696.36 247.42,-351.2 411.38,-351.2"/>
<polygon fill="black" stroke="black" points="531.04,-711.86 520.82,-707.89 525.72,-712.14 521.39,-712.37 521.39,-712.37 521.39,-712.37 525.72,-712.14 521.29,-716.88 531.04,-711.86"/>
<text text-anchor="start" x="527.72" y="-722.4" font-family="Arial" font-size="10.00">FOREIGN KEY (level_id) REFERENCES levels(id)</text>
</g>
</g>
</svg>
