<?xml version="1.0" encoding="UTF-8" standalone="no"?>
<!DOCTYPE svg PUBLIC "-//W3C//DTD SVG 1.1//EN"
 "http://www.w3.org/Graphics/SVG/1.1/DTD/svg11.dtd">
<!-- Generated by graphviz version 12.1.2 (20240928.0832)
 -->
<!-- Title: public.anomalies Pages: 1 -->
<svg width="1549pt" height="1468pt"
 viewBox="0.00 0.00 1549.18 1468.40" xmlns="http://www.w3.org/2000/svg" xmlns:xlink="http://www.w3.org/1999/xlink">
<g id="graph0" class="graph" transform="scale(1 1) rotate(0) translate(4 1464.4)">
<title>public.anomalies</title>
<polygon fill="white" stroke="none" points="-4,4 -4,-1464.4 1545.18,-1464.4 1545.18,4 -4,4"/>
<!-- public.anomalies -->
<g id="node1" class="node">
<title>public.anomalies</title>
<polygon fill="#efefef" stroke="none" points="566.51,-1097.4 566.51,-1133 852.86,-1133 852.86,-1097.4 566.51,-1097.4"/>
<polygon fill="none" stroke="black" points="566.51,-1097.4 566.51,-1133 852.86,-1133 852.86,-1097.4 566.51,-1097.4"/>
<text text-anchor="start" x="586.21" y="-1110.8" font-family="Arial Bold" font-size="18.00">public.anomalies</text>
<text text-anchor="start" x="708.67" y="-1110.8" font-family="Arial" font-size="14.00">    </text>
<text text-anchor="start" x="739.79" y="-1110.8" font-family="Arial" font-size="14.00" fill="#666666">[BASE TABLE]</text>
<polygon fill="none" stroke="black" points="566.51,-1066.6 566.51,-1097.4 852.86,-1097.4 852.86,-1066.6 566.51,-1066.6"/>
<text text-anchor="start" x="573.51" y="-1078.8" font-family="Arial" font-size="14.00">id </text>
<text text-anchor="start" x="588.3" y="-1078.8" font-family="Arial" font-size="14.00" fill="#666666">[bigint]</text>
<polygon fill="none" stroke="black" points="566.51,-1035.8 566.51,-1066.6 852.86,-1066.6 852.86,-1035.8 566.51,-1035.8"/>
<text text-anchor="start" x="573.51" y="-1048" font-family="Arial" font-size="14.00">created_at </text>
<text text-anchor="start" x="643.56" y="-1048" font-family="Arial" font-size="14.00" fill="#666666">[timestamp(6) without time zone]</text>
<polygon fill="none" stroke="black" points="566.51,-1005 566.51,-1035.8 852.86,-1035.8 852.86,-1005 566.51,-1005"/>
<text text-anchor="start" x="573.51" y="-1017.2" font-family="Arial" font-size="14.00">latitude </text>
<text text-anchor="start" x="622.55" y="-1017.2" font-family="Arial" font-size="14.00" fill="#666666">[double precision]</text>
<polygon fill="none" stroke="black" points="566.51,-974.2 566.51,-1005 852.86,-1005 852.86,-974.2 566.51,-974.2"/>
<text text-anchor="start" x="573.51" y="-986.4" font-family="Arial" font-size="14.00">longitude </text>
<text text-anchor="start" x="634.23" y="-986.4" font-family="Arial" font-size="14.00" fill="#666666">[double precision]</text>
<polygon fill="none" stroke="black" points="566.51,-943.4 566.51,-974.2 852.86,-974.2 852.86,-943.4 566.51,-943.4"/>
<text text-anchor="start" x="573.51" y="-955.6" font-family="Arial" font-size="14.00">observation </text>
<text text-anchor="start" x="649.78" y="-955.6" font-family="Arial" font-size="14.00" fill="#666666">[text]</text>
<polygon fill="none" stroke="black" points="566.51,-912.6 566.51,-943.4 852.86,-943.4 852.86,-912.6 566.51,-912.6"/>
<text text-anchor="start" x="573.51" y="-924.8" font-family="Arial" font-size="14.00">origin </text>
<text text-anchor="start" x="611.64" y="-924.8" font-family="Arial" font-size="14.00" fill="#666666">[varchar(255)]</text>
<polygon fill="none" stroke="black" points="566.51,-881.8 566.51,-912.6 852.86,-912.6 852.86,-881.8 566.51,-881.8"/>
<text text-anchor="start" x="573.51" y="-894" font-family="Arial" font-size="14.00">question_id </text>
<text text-anchor="start" x="649.02" y="-894" font-family="Arial" font-size="14.00" fill="#666666">[bigint]</text>
<polygon fill="none" stroke="black" points="566.51,-851 566.51,-881.8 852.86,-881.8 852.86,-851 566.51,-851"/>
<text text-anchor="start" x="573.51" y="-863.2" font-family="Arial" font-size="14.00">questionnaire_id </text>
<text text-anchor="start" x="680.15" y="-863.2" font-family="Arial" font-size="14.00" fill="#666666">[bigint]</text>
<polygon fill="none" stroke="black" points="566.51,-820.2 566.51,-851 852.86,-851 852.86,-820.2 566.51,-820.2"/>
<text text-anchor="start" x="573.51" y="-832.4" font-family="Arial" font-size="14.00">recommendation </text>
<text text-anchor="start" x="681.68" y="-832.4" font-family="Arial" font-size="14.00" fill="#666666">[text]</text>
<polygon fill="none" stroke="black" points="566.51,-789.4 566.51,-820.2 852.86,-820.2 852.86,-789.4 566.51,-789.4"/>
<text text-anchor="start" x="573.51" y="-801.6" font-family="Arial" font-size="14.00">dam_id </text>
<text text-anchor="start" x="623.32" y="-801.6" font-family="Arial" font-size="14.00" fill="#666666">[bigint]</text>
<polygon fill="none" stroke="black" points="566.51,-758.6 566.51,-789.4 852.86,-789.4 852.86,-758.6 566.51,-758.6"/>
<text text-anchor="start" x="573.51" y="-770.8" font-family="Arial" font-size="14.00">danger_level_id </text>
<text text-anchor="start" x="676.26" y="-770.8" font-family="Arial" font-size="14.00" fill="#666666">[bigint]</text>
<polygon fill="none" stroke="black" points="566.51,-727.8 566.51,-758.6 852.86,-758.6 852.86,-727.8 566.51,-727.8"/>
<text text-anchor="start" x="573.51" y="-740" font-family="Arial" font-size="14.00">status_id </text>
<text text-anchor="start" x="633.44" y="-740" font-family="Arial" font-size="14.00" fill="#666666">[bigint]</text>
<polygon fill="none" stroke="black" points="566.51,-697 566.51,-727.8 852.86,-727.8 852.86,-697 566.51,-697"/>
<text text-anchor="start" x="573.51" y="-709.2" font-family="Arial" font-size="14.00">user_id </text>
<text text-anchor="start" x="623.32" y="-709.2" font-family="Arial" font-size="14.00" fill="#666666">[bigint]</text>
<polygon fill="none" stroke="black" stroke-width="3" points="565.01,-695.5 565.01,-1134.5 854.36,-1134.5 854.36,-695.5 565.01,-695.5"/>
</g>
<!-- public.dam -->
<g id="node3" class="node">
<title>public.dam</title>
<polygon fill="#efefef" stroke="none" points="43.2,-536 43.2,-571.6 262.17,-571.6 262.17,-536 43.2,-536"/>
<polygon fill="none" stroke="black" points="43.2,-536 43.2,-571.6 262.17,-571.6 262.17,-536 43.2,-536"/>
<text text-anchor="start" x="50.2" y="-549.4" font-family="Arial Bold" font-size="18.00">public.dam</text>
<text text-anchor="start" x="130.68" y="-549.4" font-family="Arial" font-size="14.00">    </text>
<text text-anchor="start" x="161.8" y="-549.4" font-family="Arial" font-size="14.00" fill="#666666">[BASE TABLE]</text>
<polygon fill="none" stroke="black" points="43.2,-505.2 43.2,-536 262.17,-536 262.17,-505.2 43.2,-505.2"/>
<text text-anchor="start" x="50.2" y="-517.4" font-family="Arial" font-size="14.00">id </text>
<text text-anchor="start" x="64.99" y="-517.4" font-family="Arial" font-size="14.00" fill="#666666">[bigint]</text>
<polygon fill="none" stroke="black" points="43.2,-474.4 43.2,-505.2 262.17,-505.2 262.17,-474.4 43.2,-474.4"/>
<text text-anchor="start" x="50.2" y="-486.6" font-family="Arial" font-size="14.00">city </text>
<text text-anchor="start" x="75.09" y="-486.6" font-family="Arial" font-size="14.00" fill="#666666">[varchar(100)]</text>
<polygon fill="none" stroke="black" points="43.2,-443.6 43.2,-474.4 262.17,-474.4 262.17,-443.6 43.2,-443.6"/>
<text text-anchor="start" x="50.2" y="-455.8" font-family="Arial" font-size="14.00">dam_image_path </text>
<text text-anchor="start" x="162.28" y="-455.8" font-family="Arial" font-size="14.00" fill="#666666">[varchar(255)]</text>
<polygon fill="none" stroke="black" points="43.2,-412.8 43.2,-443.6 262.17,-443.6 262.17,-412.8 43.2,-412.8"/>
<text text-anchor="start" x="50.2" y="-425" font-family="Arial" font-size="14.00">latitude </text>
<text text-anchor="start" x="99.23" y="-425" font-family="Arial" font-size="14.00" fill="#666666">[double precision]</text>
<polygon fill="none" stroke="black" points="43.2,-382 43.2,-412.8 262.17,-412.8 262.17,-382 43.2,-382"/>
<text text-anchor="start" x="50.2" y="-394.2" font-family="Arial" font-size="14.00">link_legislation </text>
<text text-anchor="start" x="145.14" y="-394.2" font-family="Arial" font-size="14.00" fill="#666666">[varchar(255)]</text>
<polygon fill="none" stroke="black" points="43.2,-351.2 43.2,-382 262.17,-382 262.17,-351.2 43.2,-351.2"/>
<text text-anchor="start" x="50.2" y="-363.4" font-family="Arial" font-size="14.00">linkpsb </text>
<text text-anchor="start" x="97.67" y="-363.4" font-family="Arial" font-size="14.00" fill="#666666">[varchar(255)]</text>
<polygon fill="none" stroke="black" points="43.2,-320.4 43.2,-351.2 262.17,-351.2 262.17,-320.4 43.2,-320.4"/>
<text text-anchor="start" x="50.2" y="-332.6" font-family="Arial" font-size="14.00">logo_path </text>
<text text-anchor="start" x="115.59" y="-332.6" font-family="Arial" font-size="14.00" fill="#666666">[varchar(255)]</text>
<polygon fill="none" stroke="black" points="43.2,-289.6 43.2,-320.4 262.17,-320.4 262.17,-289.6 43.2,-289.6"/>
<text text-anchor="start" x="50.2" y="-301.8" font-family="Arial" font-size="14.00">longitude </text>
<text text-anchor="start" x="110.92" y="-301.8" font-family="Arial" font-size="14.00" fill="#666666">[double precision]</text>
<polygon fill="none" stroke="black" points="43.2,-258.8 43.2,-289.6 262.17,-289.6 262.17,-258.8 43.2,-258.8"/>
<text text-anchor="start" x="50.2" y="-271" font-family="Arial" font-size="14.00">name </text>
<text text-anchor="start" x="89.11" y="-271" font-family="Arial" font-size="14.00" fill="#666666">[varchar(255)]</text>
<polygon fill="none" stroke="black" points="43.2,-228 43.2,-258.8 262.17,-258.8 262.17,-228 43.2,-228"/>
<text text-anchor="start" x="50.2" y="-240.2" font-family="Arial" font-size="14.00">neighborhood </text>
<text text-anchor="start" x="139.72" y="-240.2" font-family="Arial" font-size="14.00" fill="#666666">[varchar(100)]</text>
<polygon fill="none" stroke="black" points="43.2,-197.2 43.2,-228 262.17,-228 262.17,-197.2 43.2,-197.2"/>
<text text-anchor="start" x="50.2" y="-209.4" font-family="Arial" font-size="14.00">number_address </text>
<text text-anchor="start" x="159.15" y="-209.4" font-family="Arial" font-size="14.00" fill="#666666">[varchar(10)]</text>
<polygon fill="none" stroke="black" points="43.2,-166.4 43.2,-197.2 262.17,-197.2 262.17,-166.4 43.2,-166.4"/>
<text text-anchor="start" x="50.2" y="-178.6" font-family="Arial" font-size="14.00">state </text>
<text text-anchor="start" x="84.44" y="-178.6" font-family="Arial" font-size="14.00" fill="#666666">[varchar(100)]</text>
<polygon fill="none" stroke="black" points="43.2,-135.6 43.2,-166.4 262.17,-166.4 262.17,-135.6 43.2,-135.6"/>
<text text-anchor="start" x="50.2" y="-147.8" font-family="Arial" font-size="14.00">street </text>
<text text-anchor="start" x="89.1" y="-147.8" font-family="Arial" font-size="14.00" fill="#666666">[varchar(255)]</text>
<polygon fill="none" stroke="black" points="43.2,-104.8 43.2,-135.6 262.17,-135.6 262.17,-104.8 43.2,-104.8"/>
<text text-anchor="start" x="50.2" y="-117" font-family="Arial" font-size="14.00">zip_code </text>
<text text-anchor="start" x="110.13" y="-117" font-family="Arial" font-size="14.00" fill="#666666">[varchar(9)]</text>
<polygon fill="none" stroke="black" points="43.2,-74 43.2,-104.8 262.17,-104.8 262.17,-74 43.2,-74"/>
<text text-anchor="start" x="50.2" y="-86.2" font-family="Arial" font-size="14.00">client_id </text>
<text text-anchor="start" x="105.45" y="-86.2" font-family="Arial" font-size="14.00" fill="#666666">[bigint]</text>
<polygon fill="none" stroke="black" points="43.2,-43.2 43.2,-74 262.17,-74 262.17,-43.2 43.2,-43.2"/>
<text text-anchor="start" x="50.2" y="-55.4" font-family="Arial" font-size="14.00">status_id </text>
<text text-anchor="start" x="110.12" y="-55.4" font-family="Arial" font-size="14.00" fill="#666666">[bigint]</text>
</g>
<!-- public.anomalies&#45;&gt;public.dam -->
<g id="edge2" class="edge">
<title>public.anomalies:dam_id&#45;&gt;public.dam:id</title>
<path fill="none" stroke="black" d="M555.09,-804.64C424.62,-800.52 403.68,-718.03 314.69,-614.8 283.53,-578.66 310.89,-520.6 263.17,-520.6"/>
<polygon fill="black" stroke="black" points="555.18,-804.64 565.11,-809.29 560.51,-804.72 564.84,-804.79 564.84,-804.79 564.84,-804.79 560.51,-804.72 565.25,-800.3 555.18,-804.64"/>
<text text-anchor="start" x="340.13" y="-814.8" font-family="Arial" font-size="10.00">FOREIGN KEY (dam_id) REFERENCES dam(id)</text>
</g>
<!-- public.danger_levels -->
<g id="node4" class="node">
<title>public.danger_levels</title>
<polygon fill="#efefef" stroke="none" points="366.72,-335.8 366.72,-371.4 654.65,-371.4 654.65,-335.8 366.72,-335.8"/>
<polygon fill="none" stroke="black" points="366.72,-335.8 366.72,-371.4 654.65,-371.4 654.65,-335.8 366.72,-335.8"/>
<text text-anchor="start" x="373.72" y="-349.2" font-family="Arial Bold" font-size="18.00">public.danger_levels</text>
<text text-anchor="start" x="523.17" y="-349.2" font-family="Arial" font-size="14.00">    </text>
<text text-anchor="start" x="554.28" y="-349.2" font-family="Arial" font-size="14.00" fill="#666666">[BASE TABLE]</text>
<polygon fill="none" stroke="black" points="366.72,-305 366.72,-335.8 654.65,-335.8 654.65,-305 366.72,-305"/>
<text text-anchor="start" x="373.72" y="-317.2" font-family="Arial" font-size="14.00">id </text>
<text text-anchor="start" x="388.5" y="-317.2" font-family="Arial" font-size="14.00" fill="#666666">[bigint]</text>
<polygon fill="none" stroke="black" points="366.72,-274.2 366.72,-305 654.65,-305 654.65,-274.2 366.72,-274.2"/>
<text text-anchor="start" x="373.72" y="-286.4" font-family="Arial" font-size="14.00">description </text>
<text text-anchor="start" x="445.31" y="-286.4" font-family="Arial" font-size="14.00" fill="#666666">[varchar(255)]</text>
<polygon fill="none" stroke="black" points="366.72,-243.4 366.72,-274.2 654.65,-274.2 654.65,-243.4 366.72,-243.4"/>
<text text-anchor="start" x="373.72" y="-255.6" font-family="Arial" font-size="14.00">name </text>
<text text-anchor="start" x="412.63" y="-255.6" font-family="Arial" font-size="14.00" fill="#666666">[varchar(255)]</text>
</g>
<!-- public.anomalies&#45;&gt;public.danger_levels -->
<g id="edge3" class="edge">
<title>public.anomalies:danger_level_id&#45;&gt;public.danger_levels:id</title>
<path fill="none" stroke="black" d="M555.32,-773.58C377.37,-758.19 857.58,-320.4 655.65,-320.4"/>
<polygon fill="black" stroke="black" points="555.19,-773.58 565,-778.48 560.52,-773.8 564.85,-773.97 564.85,-773.97 564.85,-773.97 560.52,-773.8 565.36,-769.49 555.19,-773.58"/>
<text text-anchor="start" x="259.51" y="-784" font-family="Arial" font-size="10.00">FOREIGN KEY (danger_level_id) REFERENCES danger_levels(id)</text>
</g>
<!-- public.anomaly_status -->
<g id="node5" class="node">
<title>public.anomaly_status</title>
<polygon fill="#efefef" stroke="none" points="758.7,-335.8 758.7,-371.4 1058.67,-371.4 1058.67,-335.8 758.7,-335.8"/>
<polygon fill="none" stroke="black" points="758.7,-335.8 758.7,-371.4 1058.67,-371.4 1058.67,-335.8 758.7,-335.8"/>
<text text-anchor="start" x="765.7" y="-349.2" font-family="Arial Bold" font-size="18.00">public.anomaly_status</text>
<text text-anchor="start" x="927.18" y="-349.2" font-family="Arial" font-size="14.00">    </text>
<text text-anchor="start" x="958.29" y="-349.2" font-family="Arial" font-size="14.00" fill="#666666">[BASE TABLE]</text>
<polygon fill="none" stroke="black" points="758.7,-305 758.7,-335.8 1058.67,-335.8 1058.67,-305 758.7,-305"/>
<text text-anchor="start" x="765.7" y="-317.2" font-family="Arial" font-size="14.00">id </text>
<text text-anchor="start" x="780.49" y="-317.2" font-family="Arial" font-size="14.00" fill="#666666">[bigint]</text>
<polygon fill="none" stroke="black" points="758.7,-274.2 758.7,-305 1058.67,-305 1058.67,-274.2 758.7,-274.2"/>
<text text-anchor="start" x="765.7" y="-286.4" font-family="Arial" font-size="14.00">description </text>
<text text-anchor="start" x="837.3" y="-286.4" font-family="Arial" font-size="14.00" fill="#666666">[varchar(255)]</text>
<polygon fill="none" stroke="black" points="758.7,-243.4 758.7,-274.2 1058.67,-274.2 1058.67,-243.4 758.7,-243.4"/>
<text text-anchor="start" x="765.7" y="-255.6" font-family="Arial" font-size="14.00">name </text>
<text text-anchor="start" x="804.61" y="-255.6" font-family="Arial" font-size="14.00" fill="#666666">[varchar(255)]</text>
</g>
<!-- public.anomalies&#45;&gt;public.anomaly_status -->
<g id="edge4" class="edge">
<title>public.anomalies:status_id&#45;&gt;public.anomaly_status:id</title>
<path fill="none" stroke="black" d="M863.9,-742.77C1028.93,-727.66 568.57,-320.4 757.7,-320.4"/>
<polygon fill="black" stroke="black" points="864.18,-742.76 854,-738.69 858.85,-742.99 854.53,-743.17 854.53,-743.17 854.53,-743.17 858.85,-742.99 854.38,-747.68 864.18,-742.76"/>
<text text-anchor="start" x="860.86" y="-753.2" font-family="Arial" font-size="10.00">FOREIGN KEY (status_id) REFERENCES anomaly_status(id)</text>
</g>
<!-- public.users -->
<g id="node6" class="node">
<title>public.users</title>
<polygon fill="#efefef" stroke="none" points="1163.39,-474.4 1163.39,-510 1497.98,-510 1497.98,-474.4 1163.39,-474.4"/>
<polygon fill="none" stroke="black" points="1163.39,-474.4 1163.39,-510 1497.98,-510 1497.98,-474.4 1163.39,-474.4"/>
<text text-anchor="start" x="1225.2" y="-487.8" font-family="Arial Bold" font-size="18.00">public.users</text>
<text text-anchor="start" x="1311.68" y="-487.8" font-family="Arial" font-size="14.00">    </text>
<text text-anchor="start" x="1342.8" y="-487.8" font-family="Arial" font-size="14.00" fill="#666666">[BASE TABLE]</text>
<polygon fill="none" stroke="black" points="1163.39,-443.6 1163.39,-474.4 1497.98,-474.4 1497.98,-443.6 1163.39,-443.6"/>
<text text-anchor="start" x="1170.39" y="-455.8" font-family="Arial" font-size="14.00">id </text>
<text text-anchor="start" x="1185.17" y="-455.8" font-family="Arial" font-size="14.00" fill="#666666">[bigint]</text>
<polygon fill="none" stroke="black" points="1163.39,-412.8 1163.39,-443.6 1497.98,-443.6 1497.98,-412.8 1163.39,-412.8"/>
<text text-anchor="start" x="1170.39" y="-425" font-family="Arial" font-size="14.00">email </text>
<text text-anchor="start" x="1207.73" y="-425" font-family="Arial" font-size="14.00" fill="#666666">[varchar(255)]</text>
<polygon fill="none" stroke="black" points="1163.39,-382 1163.39,-412.8 1497.98,-412.8 1497.98,-382 1163.39,-382"/>
<text text-anchor="start" x="1170.39" y="-394.2" font-family="Arial" font-size="14.00">is_first_access </text>
<text text-anchor="start" x="1266.08" y="-394.2" font-family="Arial" font-size="14.00" fill="#666666">[boolean]</text>
<polygon fill="none" stroke="black" points="1163.39,-351.2 1163.39,-382 1497.98,-382 1497.98,-351.2 1163.39,-351.2"/>
<text text-anchor="start" x="1170.39" y="-363.4" font-family="Arial" font-size="14.00">last_token </text>
<text text-anchor="start" x="1238.1" y="-363.4" font-family="Arial" font-size="14.00" fill="#666666">[text]</text>
<polygon fill="none" stroke="black" points="1163.39,-320.4 1163.39,-351.2 1497.98,-351.2 1497.98,-320.4 1163.39,-320.4"/>
<text text-anchor="start" x="1170.39" y="-332.6" font-family="Arial" font-size="14.00">name </text>
<text text-anchor="start" x="1209.3" y="-332.6" font-family="Arial" font-size="14.00" fill="#666666">[varchar(255)]</text>
<polygon fill="none" stroke="black" points="1163.39,-289.6 1163.39,-320.4 1497.98,-320.4 1497.98,-289.6 1163.39,-289.6"/>
<text text-anchor="start" x="1170.39" y="-301.8" font-family="Arial" font-size="14.00">password </text>
<text text-anchor="start" x="1234.19" y="-301.8" font-family="Arial" font-size="14.00" fill="#666666">[varchar(255)]</text>
<polygon fill="none" stroke="black" points="1163.39,-258.8 1163.39,-289.6 1497.98,-289.6 1497.98,-258.8 1163.39,-258.8"/>
<text text-anchor="start" x="1170.39" y="-271" font-family="Arial" font-size="14.00">phone </text>
<text text-anchor="start" x="1213.21" y="-271" font-family="Arial" font-size="14.00" fill="#666666">[varchar(11)]</text>
<polygon fill="none" stroke="black" points="1163.39,-228 1163.39,-258.8 1497.98,-258.8 1497.98,-228 1163.39,-228"/>
<text text-anchor="start" x="1170.39" y="-240.2" font-family="Arial" font-size="14.00">token_expiry_date </text>
<text text-anchor="start" x="1288.69" y="-240.2" font-family="Arial" font-size="14.00" fill="#666666">[timestamp(6) without time zone]</text>
<polygon fill="none" stroke="black" points="1163.39,-197.2 1163.39,-228 1497.98,-228 1497.98,-197.2 1163.39,-197.2"/>
<text text-anchor="start" x="1170.39" y="-209.4" font-family="Arial" font-size="14.00">created_by_id </text>
<text text-anchor="start" x="1262.23" y="-209.4" font-family="Arial" font-size="14.00" fill="#666666">[bigint]</text>
<polygon fill="none" stroke="black" points="1163.39,-166.4 1163.39,-197.2 1497.98,-197.2 1497.98,-166.4 1163.39,-166.4"/>
<text text-anchor="start" x="1170.39" y="-178.6" font-family="Arial" font-size="14.00">role_id </text>
<text text-anchor="start" x="1216.3" y="-178.6" font-family="Arial" font-size="14.00" fill="#666666">[bigint]</text>
<polygon fill="none" stroke="black" points="1163.39,-135.6 1163.39,-166.4 1497.98,-166.4 1497.98,-135.6 1163.39,-135.6"/>
<text text-anchor="start" x="1170.39" y="-147.8" font-family="Arial" font-size="14.00">sex_id </text>
<text text-anchor="start" x="1214.74" y="-147.8" font-family="Arial" font-size="14.00" fill="#666666">[bigint]</text>
<polygon fill="none" stroke="black" points="1163.39,-104.8 1163.39,-135.6 1497.98,-135.6 1497.98,-104.8 1163.39,-104.8"/>
<text text-anchor="start" x="1170.39" y="-117" font-family="Arial" font-size="14.00">status_id </text>
<text text-anchor="start" x="1230.31" y="-117" font-family="Arial" font-size="14.00" fill="#666666">[bigint]</text>
</g>
<!-- public.anomalies&#45;&gt;public.users -->
<g id="edge5" class="edge">
<title>public.anomalies:user_id&#45;&gt;public.users:id</title>
<path fill="none" stroke="black" d="M864.06,-712.38C978.84,-711.8 1028.6,-700.47 1110.69,-614.8 1161.16,-562.12 1089.43,-459 1162.39,-459"/>
<polygon fill="black" stroke="black" points="864.19,-712.38 854.18,-707.9 858.86,-712.39 854.53,-712.4 854.53,-712.4 854.53,-712.4 858.86,-712.39 854.2,-716.9 864.19,-712.38"/>
<text text-anchor="start" x="860.86" y="-722.4" font-family="Arial" font-size="10.00">FOREIGN KEY (user_id) REFERENCES users(id)</text>
</g>
<!-- public.anomaly_photos -->
<g id="node2" class="node">
<title>public.anomaly_photos</title>
<polygon fill="#efefef" stroke="none" points="556.2,-1381.6 556.2,-1417.2 863.17,-1417.2 863.17,-1381.6 556.2,-1381.6"/>
<polygon fill="none" stroke="black" points="556.2,-1381.6 556.2,-1417.2 863.17,-1417.2 863.17,-1381.6 556.2,-1381.6"/>
<text text-anchor="start" x="563.2" y="-1395" font-family="Arial Bold" font-size="18.00">public.anomaly_photos</text>
<text text-anchor="start" x="731.68" y="-1395" font-family="Arial" font-size="14.00">    </text>
<text text-anchor="start" x="762.8" y="-1395" font-family="Arial" font-size="14.00" fill="#666666">[BASE TABLE]</text>
<polygon fill="none" stroke="black" points="556.2,-1350.8 556.2,-1381.6 863.17,-1381.6 863.17,-1350.8 556.2,-1350.8"/>
<text text-anchor="start" x="563.2" y="-1363" font-family="Arial" font-size="14.00">id </text>
<text text-anchor="start" x="577.99" y="-1363" font-family="Arial" font-size="14.00" fill="#666666">[bigint]</text>
<polygon fill="none" stroke="black" points="556.2,-1320 556.2,-1350.8 863.17,-1350.8 863.17,-1320 556.2,-1320"/>
<text text-anchor="start" x="563.2" y="-1332.2" font-family="Arial" font-size="14.00">dam_id </text>
<text text-anchor="start" x="613.01" y="-1332.2" font-family="Arial" font-size="14.00" fill="#666666">[bigint]</text>
<polygon fill="none" stroke="black" points="556.2,-1289.2 556.2,-1320 863.17,-1320 863.17,-1289.2 556.2,-1289.2"/>
<text text-anchor="start" x="563.2" y="-1301.4" font-family="Arial" font-size="14.00">image_path </text>
<text text-anchor="start" x="640.26" y="-1301.4" font-family="Arial" font-size="14.00" fill="#666666">[varchar(255)]</text>
<polygon fill="none" stroke="black" points="556.2,-1258.4 556.2,-1289.2 863.17,-1289.2 863.17,-1258.4 556.2,-1258.4"/>
<text text-anchor="start" x="563.2" y="-1270.6" font-family="Arial" font-size="14.00">anomaly_id </text>
<text text-anchor="start" x="638.69" y="-1270.6" font-family="Arial" font-size="14.00" fill="#666666">[bigint]</text>
</g>
<!-- public.anomaly_photos&#45;&gt;public.anomalies -->
<g id="edge1" class="edge">
<title>public.anomaly_photos:anomaly_id&#45;&gt;public.anomalies:id</title>
<path fill="none" stroke="black" d="M710.48,-1247.32C720.26,-1190.32 817.44,-1238.21 852.86,-1179.2 875.09,-1142.16 897.06,-1082 853.86,-1082"/>
<polygon fill="black" stroke="black" points="710.5,-1247.1 705.23,-1256.71 710.08,-1252.42 709.74,-1256.73 709.74,-1256.73 709.74,-1256.73 710.08,-1252.42 714.2,-1257.42 710.5,-1247.1"/>
<text text-anchor="start" x="439.83" y="-1267.4" font-family="Arial" font-size="10.00">FOREIGN KEY (anomaly_id) REFERENCES anomalies(id)</text>
</g>
</g>
</svg>
