<?xml version="1.0" encoding="UTF-8" standalone="no"?>
<!DOCTYPE svg PUBLIC "-//W3C//DTD SVG 1.1//EN"
 "http://www.w3.org/Graphics/SVG/1.1/DTD/svg11.dtd">
<!-- Generated by graphviz version 12.1.2 (20240928.0832)
 -->
<!-- Title: public.risk_categories Pages: 1 -->
<svg width="675pt" height="787pt"
 viewBox="0.00 0.00 674.83 786.80" xmlns="http://www.w3.org/2000/svg" xmlns:xlink="http://www.w3.org/1999/xlink">
<g id="graph0" class="graph" transform="scale(1 1) rotate(0) translate(4 782.8)">
<title>public.risk_categories</title>
<polygon fill="white" stroke="none" points="-4,4 -4,-782.8 670.83,-782.8 670.83,4 -4,4"/>
<!-- public.risk_categories -->
<g id="node1" class="node">
<title>public.risk_categories</title>
<polygon fill="#efefef" stroke="none" points="46.2,-107.8 46.2,-143.4 343.14,-143.4 343.14,-107.8 46.2,-107.8"/>
<polygon fill="none" stroke="black" points="46.2,-107.8 46.2,-143.4 343.14,-143.4 343.14,-107.8 46.2,-107.8"/>
<text text-anchor="start" x="53.2" y="-121.2" font-family="Arial Bold" font-size="18.00">public.risk_categories</text>
<text text-anchor="start" x="211.65" y="-121.2" font-family="Arial" font-size="14.00">    </text>
<text text-anchor="start" x="242.77" y="-121.2" font-family="Arial" font-size="14.00" fill="#666666">[BASE TABLE]</text>
<polygon fill="none" stroke="black" points="46.2,-77 46.2,-107.8 343.14,-107.8 343.14,-77 46.2,-77"/>
<text text-anchor="start" x="53.2" y="-89.2" font-family="Arial" font-size="14.00">id </text>
<text text-anchor="start" x="67.99" y="-89.2" font-family="Arial" font-size="14.00" fill="#666666">[bigint]</text>
<polygon fill="none" stroke="black" points="46.2,-46.2 46.2,-77 343.14,-77 343.14,-46.2 46.2,-46.2"/>
<text text-anchor="start" x="53.2" y="-58.4" font-family="Arial" font-size="14.00">name </text>
<text text-anchor="start" x="92.11" y="-58.4" font-family="Arial" font-size="14.00" fill="#666666">[varchar(255)]</text>
<polygon fill="none" stroke="black" stroke-width="3" points="44.7,-44.7 44.7,-144.9 344.64,-144.9 344.64,-44.7 44.7,-44.7"/>
</g>
<!-- public.regulatory_dam -->
<g id="node2" class="node">
<title>public.regulatory_dam</title>
<polygon fill="#efefef" stroke="none" points="43.7,-700 43.7,-735.6 345.64,-735.6 345.64,-700 43.7,-700"/>
<polygon fill="none" stroke="black" points="43.7,-700 43.7,-735.6 345.64,-735.6 345.64,-700 43.7,-700"/>
<text text-anchor="start" x="50.7" y="-713.4" font-family="Arial Bold" font-size="18.00">public.regulatory_dam</text>
<text text-anchor="start" x="214.15" y="-713.4" font-family="Arial" font-size="14.00">    </text>
<text text-anchor="start" x="245.27" y="-713.4" font-family="Arial" font-size="14.00" fill="#666666">[BASE TABLE]</text>
<polygon fill="none" stroke="black" points="43.7,-669.2 43.7,-700 345.64,-700 345.64,-669.2 43.7,-669.2"/>
<text text-anchor="start" x="50.7" y="-681.4" font-family="Arial" font-size="14.00">id </text>
<text text-anchor="start" x="65.49" y="-681.4" font-family="Arial" font-size="14.00" fill="#666666">[bigint]</text>
<polygon fill="none" stroke="black" points="43.7,-638.4 43.7,-669.2 345.64,-669.2 345.64,-638.4 43.7,-638.4"/>
<text text-anchor="start" x="50.7" y="-650.6" font-family="Arial" font-size="14.00">frame_pnsb </text>
<text text-anchor="start" x="128.52" y="-650.6" font-family="Arial" font-size="14.00" fill="#666666">[boolean]</text>
<polygon fill="none" stroke="black" points="43.7,-607.6 43.7,-638.4 345.64,-638.4 345.64,-607.6 43.7,-607.6"/>
<text text-anchor="start" x="50.7" y="-619.8" font-family="Arial" font-size="14.00">representative_email </text>
<text text-anchor="start" x="184.55" y="-619.8" font-family="Arial" font-size="14.00" fill="#666666">[varchar(255)]</text>
<polygon fill="none" stroke="black" points="43.7,-576.8 43.7,-607.6 345.64,-607.6 345.64,-576.8 43.7,-576.8"/>
<text text-anchor="start" x="50.7" y="-589" font-family="Arial" font-size="14.00">representative_name </text>
<text text-anchor="start" x="186.11" y="-589" font-family="Arial" font-size="14.00" fill="#666666">[varchar(255)]</text>
<polygon fill="none" stroke="black" points="43.7,-546 43.7,-576.8 345.64,-576.8 345.64,-546 43.7,-546"/>
<text text-anchor="start" x="50.7" y="-558.2" font-family="Arial" font-size="14.00">representative_phone </text>
<text text-anchor="start" x="190.02" y="-558.2" font-family="Arial" font-size="14.00" fill="#666666">[varchar(255)]</text>
<polygon fill="none" stroke="black" points="43.7,-515.2 43.7,-546 345.64,-546 345.64,-515.2 43.7,-515.2"/>
<text text-anchor="start" x="50.7" y="-527.4" font-family="Arial" font-size="14.00">supervisory_body_name </text>
<text text-anchor="start" x="207.12" y="-527.4" font-family="Arial" font-size="14.00" fill="#666666">[varchar(255)]</text>
<polygon fill="none" stroke="black" points="43.7,-484.4 43.7,-515.2 345.64,-515.2 345.64,-484.4 43.7,-484.4"/>
<text text-anchor="start" x="50.7" y="-496.6" font-family="Arial" font-size="14.00">technical_manager_email </text>
<text text-anchor="start" x="214.13" y="-496.6" font-family="Arial" font-size="14.00" fill="#666666">[varchar(255)]</text>
<polygon fill="none" stroke="black" points="43.7,-453.6 43.7,-484.4 345.64,-484.4 345.64,-453.6 43.7,-453.6"/>
<text text-anchor="start" x="50.7" y="-465.8" font-family="Arial" font-size="14.00">technical_manager_name </text>
<text text-anchor="start" x="215.69" y="-465.8" font-family="Arial" font-size="14.00" fill="#666666">[varchar(255)]</text>
<polygon fill="none" stroke="black" points="43.7,-422.8 43.7,-453.6 345.64,-453.6 345.64,-422.8 43.7,-422.8"/>
<text text-anchor="start" x="50.7" y="-435" font-family="Arial" font-size="14.00">technical_manager_phone </text>
<text text-anchor="start" x="219.6" y="-435" font-family="Arial" font-size="14.00" fill="#666666">[varchar(255)]</text>
<polygon fill="none" stroke="black" points="43.7,-392 43.7,-422.8 345.64,-422.8 345.64,-392 43.7,-392"/>
<text text-anchor="start" x="50.7" y="-404.2" font-family="Arial" font-size="14.00">classification_dam_id </text>
<text text-anchor="start" x="187.66" y="-404.2" font-family="Arial" font-size="14.00" fill="#666666">[bigint]</text>
<polygon fill="none" stroke="black" points="43.7,-361.2 43.7,-392 345.64,-392 345.64,-361.2 43.7,-361.2"/>
<text text-anchor="start" x="50.7" y="-373.4" font-family="Arial" font-size="14.00">dam_id </text>
<text text-anchor="start" x="100.51" y="-373.4" font-family="Arial" font-size="14.00" fill="#666666">[bigint]</text>
<polygon fill="none" stroke="black" points="43.7,-330.4 43.7,-361.2 345.64,-361.2 345.64,-330.4 43.7,-330.4"/>
<text text-anchor="start" x="50.7" y="-342.6" font-family="Arial" font-size="14.00">potential_damage_id </text>
<text text-anchor="start" x="184.58" y="-342.6" font-family="Arial" font-size="14.00" fill="#666666">[bigint]</text>
<polygon fill="none" stroke="black" points="43.7,-299.6 43.7,-330.4 345.64,-330.4 345.64,-299.6 43.7,-299.6"/>
<text text-anchor="start" x="50.7" y="-311.8" font-family="Arial" font-size="14.00">risk_category_id </text>
<text text-anchor="start" x="156.53" y="-311.8" font-family="Arial" font-size="14.00" fill="#666666">[bigint]</text>
<polygon fill="none" stroke="black" points="43.7,-268.8 43.7,-299.6 345.64,-299.6 345.64,-268.8 43.7,-268.8"/>
<text text-anchor="start" x="50.7" y="-281" font-family="Arial" font-size="14.00">security_level_id </text>
<text text-anchor="start" x="158.09" y="-281" font-family="Arial" font-size="14.00" fill="#666666">[bigint]</text>
</g>
<!-- public.regulatory_dam&#45;&gt;public.risk_categories -->
<g id="edge1" class="edge">
<title>public.regulatory_dam:risk_category_id&#45;&gt;public.risk_categories:id</title>
<path fill="none" stroke="black" d="M356.97,-314.15C445.27,-299.2 439.5,-92.4 344.14,-92.4"/>
<polygon fill="black" stroke="black" points="356.94,-314.15 346.6,-310.49 351.62,-314.59 347.31,-314.95 347.31,-314.95 347.31,-314.95 351.62,-314.59 347.34,-319.46 356.94,-314.15"/>
<text text-anchor="start" x="353.64" y="-325" font-family="Arial" font-size="10.00">FOREIGN KEY (risk_category_id) REFERENCES risk_categories(id)</text>
</g>
</g>
</svg>
